<?xml version="1.0" encoding="utf-8" standalone="no"?>
<!DOCTYPE svg PUBLIC "-//W3C//DTD SVG 1.1//EN"
  "http://www.w3.org/Graphics/SVG/1.1/DTD/svg11.dtd">
<svg xmlns:xlink="http://www.w3.org/1999/xlink" width="460.8pt" height="345.6pt" viewBox="0 0 460.8 345.6" xmlns="http://www.w3.org/2000/svg" version="1.1">
 <metadata>
  <rdf:RDF xmlns:dc="http://purl.org/dc/elements/1.1/" xmlns:cc="http://creativecommons.org/ns#" xmlns:rdf="http://www.w3.org/1999/02/22-rdf-syntax-ns#">
   <cc:Work>
    <dc:type rdf:resource="http://purl.org/dc/dcmitype/StillImage"/>
    <dc:date>2024-06-19T19:28:26.403628</dc:date>
    <dc:format>image/svg+xml</dc:format>
    <dc:creator>
     <cc:Agent>
      <dc:title>Matplotlib v3.5.2, https://matplotlib.org/</dc:title>
     </cc:Agent>
    </dc:creator>
   </cc:Work>
  </rdf:RDF>
 </metadata>
 <defs>
  <style type="text/css">*{stroke-linejoin: round; stroke-linecap: butt}</style>
 </defs>
 <g id="figure_1">
  <g id="patch_1">
   <path d="M 0 345.6 
L 460.8 345.6 
L 460.8 0 
L 0 0 
z
" style="fill: #ffffff"/>
  </g>
  <g id="axes_1">
   <g id="patch_2">
    <path d="M 34.16 291.28 
L 453.192 291.28 
L 453.192 3 
L 34.16 3 
z
" style="fill: #ffffff"/>
   </g>
   <g id="matplotlib.axis_1">
    <g id="xtick_1">
     <g id="line2d_1">
      <path d="M 86.131274 291.28 
L 86.131274 3 
" clip-path="url(#p21e4bbbb3c)" style="fill: none; stroke: #b0b0b0; stroke-width: 0.8; stroke-linecap: square"/>
     </g>
     <g id="line2d_2">
      <defs>
       <path id="mecf6c91cec" d="M 0 0 
L 0 3.5 
" style="stroke: #000000; stroke-width: 0.8"/>
      </defs>
      <g>
       <use xlink:href="#mecf6c91cec" x="86.131274" y="291.28" style="stroke: #000000; stroke-width: 0.8"/>
      </g>
     </g>
     <g id="text_1">
      <!-- -1 -->
      <g transform="translate(76.160961 313.476875)scale(0.2 -0.2)">
       <defs>
        <path id="DejaVuSans-2d" d="M 313 2009 
L 1997 2009 
L 1997 1497 
L 313 1497 
L 313 2009 
z
" transform="scale(0.015625)"/>
        <path id="DejaVuSans-31" d="M 794 531 
L 1825 531 
L 1825 4091 
L 703 3866 
L 703 4441 
L 1819 4666 
L 2450 4666 
L 2450 531 
L 3481 531 
L 3481 0 
L 794 0 
L 794 531 
z
" transform="scale(0.015625)"/>
       </defs>
       <use xlink:href="#DejaVuSans-2d"/>
       <use xlink:href="#DejaVuSans-31" x="36.083984"/>
      </g>
     </g>
    </g>
    <g id="xtick_2">
     <g id="line2d_3">
      <path d="M 243.676 291.28 
L 243.676 3 
" clip-path="url(#p21e4bbbb3c)" style="fill: none; stroke: #b0b0b0; stroke-width: 0.8; stroke-linecap: square"/>
     </g>
     <g id="line2d_4">
      <g>
       <use xlink:href="#mecf6c91cec" x="243.676" y="291.28" style="stroke: #000000; stroke-width: 0.8"/>
      </g>
     </g>
     <g id="text_2">
      <!-- 0 -->
      <g transform="translate(237.3135 313.476875)scale(0.2 -0.2)">
       <defs>
        <path id="DejaVuSans-30" d="M 2034 4250 
Q 1547 4250 1301 3770 
Q 1056 3291 1056 2328 
Q 1056 1369 1301 889 
Q 1547 409 2034 409 
Q 2525 409 2770 889 
Q 3016 1369 3016 2328 
Q 3016 3291 2770 3770 
Q 2525 4250 2034 4250 
z
M 2034 4750 
Q 2819 4750 3233 4129 
Q 3647 3509 3647 2328 
Q 3647 1150 3233 529 
Q 2819 -91 2034 -91 
Q 1250 -91 836 529 
Q 422 1150 422 2328 
Q 422 3509 836 4129 
Q 1250 4750 2034 4750 
z
" transform="scale(0.015625)"/>
       </defs>
       <use xlink:href="#DejaVuSans-30"/>
      </g>
     </g>
    </g>
    <g id="xtick_3">
     <g id="line2d_5">
      <path d="M 401.220726 291.28 
L 401.220726 3 
" clip-path="url(#p21e4bbbb3c)" style="fill: none; stroke: #b0b0b0; stroke-width: 0.8; stroke-linecap: square"/>
     </g>
     <g id="line2d_6">
      <g>
       <use xlink:href="#mecf6c91cec" x="401.220726" y="291.28" style="stroke: #000000; stroke-width: 0.8"/>
      </g>
     </g>
     <g id="text_3">
      <!-- 1 -->
      <g transform="translate(394.858226 313.476875)scale(0.2 -0.2)">
       <use xlink:href="#DejaVuSans-31"/>
      </g>
     </g>
    </g>
    <g id="xtick_4">
     <g id="line2d_7">
      <defs>
       <path id="m9d597749eb" d="M 0 0 
L 0 2 
" style="stroke: #000000; stroke-width: 0.6"/>
      </defs>
      <g>
       <use xlink:href="#m9d597749eb" x="38.705585" y="291.28" style="stroke: #000000; stroke-width: 0.6"/>
      </g>
     </g>
    </g>
    <g id="xtick_5">
     <g id="line2d_8">
      <g>
       <use xlink:href="#m9d597749eb" x="51.180173" y="291.28" style="stroke: #000000; stroke-width: 0.6"/>
      </g>
     </g>
    </g>
    <g id="xtick_6">
     <g id="line2d_9">
      <g>
       <use xlink:href="#m9d597749eb" x="61.727287" y="291.28" style="stroke: #000000; stroke-width: 0.6"/>
      </g>
     </g>
    </g>
    <g id="xtick_7">
     <g id="line2d_10">
      <g>
       <use xlink:href="#m9d597749eb" x="70.863612" y="291.28" style="stroke: #000000; stroke-width: 0.6"/>
      </g>
     </g>
    </g>
    <g id="xtick_8">
     <g id="line2d_11">
      <g>
       <use xlink:href="#m9d597749eb" x="78.922422" y="291.28" style="stroke: #000000; stroke-width: 0.6"/>
      </g>
     </g>
    </g>
    <g id="xtick_9">
     <g id="line2d_12">
      <g>
       <use xlink:href="#m9d597749eb" x="133.556962" y="291.28" style="stroke: #000000; stroke-width: 0.6"/>
      </g>
     </g>
    </g>
    <g id="xtick_10">
     <g id="line2d_13">
      <g>
       <use xlink:href="#m9d597749eb" x="161.299211" y="291.28" style="stroke: #000000; stroke-width: 0.6"/>
      </g>
     </g>
    </g>
    <g id="xtick_11">
     <g id="line2d_14">
      <g>
       <use xlink:href="#m9d597749eb" x="180.98265" y="291.28" style="stroke: #000000; stroke-width: 0.6"/>
      </g>
     </g>
    </g>
    <g id="xtick_12">
     <g id="line2d_15">
      <g>
       <use xlink:href="#m9d597749eb" x="196.250312" y="291.28" style="stroke: #000000; stroke-width: 0.6"/>
      </g>
     </g>
    </g>
    <g id="xtick_13">
     <g id="line2d_16">
      <g>
       <use xlink:href="#m9d597749eb" x="208.724899" y="291.28" style="stroke: #000000; stroke-width: 0.6"/>
      </g>
     </g>
    </g>
    <g id="xtick_14">
     <g id="line2d_17">
      <g>
       <use xlink:href="#m9d597749eb" x="219.272013" y="291.28" style="stroke: #000000; stroke-width: 0.6"/>
      </g>
     </g>
    </g>
    <g id="xtick_15">
     <g id="line2d_18">
      <g>
       <use xlink:href="#m9d597749eb" x="228.408339" y="291.28" style="stroke: #000000; stroke-width: 0.6"/>
      </g>
     </g>
    </g>
    <g id="xtick_16">
     <g id="line2d_19">
      <g>
       <use xlink:href="#m9d597749eb" x="236.467149" y="291.28" style="stroke: #000000; stroke-width: 0.6"/>
      </g>
     </g>
    </g>
    <g id="xtick_17">
     <g id="line2d_20">
      <g>
       <use xlink:href="#m9d597749eb" x="291.101688" y="291.28" style="stroke: #000000; stroke-width: 0.6"/>
      </g>
     </g>
    </g>
    <g id="xtick_18">
     <g id="line2d_21">
      <g>
       <use xlink:href="#m9d597749eb" x="318.843938" y="291.28" style="stroke: #000000; stroke-width: 0.6"/>
      </g>
     </g>
    </g>
    <g id="xtick_19">
     <g id="line2d_22">
      <g>
       <use xlink:href="#m9d597749eb" x="338.527377" y="291.28" style="stroke: #000000; stroke-width: 0.6"/>
      </g>
     </g>
    </g>
    <g id="xtick_20">
     <g id="line2d_23">
      <g>
       <use xlink:href="#m9d597749eb" x="353.795038" y="291.28" style="stroke: #000000; stroke-width: 0.6"/>
      </g>
     </g>
    </g>
    <g id="xtick_21">
     <g id="line2d_24">
      <g>
       <use xlink:href="#m9d597749eb" x="366.269626" y="291.28" style="stroke: #000000; stroke-width: 0.6"/>
      </g>
     </g>
    </g>
    <g id="xtick_22">
     <g id="line2d_25">
      <g>
       <use xlink:href="#m9d597749eb" x="376.816739" y="291.28" style="stroke: #000000; stroke-width: 0.6"/>
      </g>
     </g>
    </g>
    <g id="xtick_23">
     <g id="line2d_26">
      <g>
       <use xlink:href="#m9d597749eb" x="385.953065" y="291.28" style="stroke: #000000; stroke-width: 0.6"/>
      </g>
     </g>
    </g>
    <g id="xtick_24">
     <g id="line2d_27">
      <g>
       <use xlink:href="#m9d597749eb" x="394.011875" y="291.28" style="stroke: #000000; stroke-width: 0.6"/>
      </g>
     </g>
    </g>
    <g id="xtick_25">
     <g id="line2d_28">
      <g>
       <use xlink:href="#m9d597749eb" x="448.646415" y="291.28" style="stroke: #000000; stroke-width: 0.6"/>
      </g>
     </g>
    </g>
    <g id="text_4">
     <!-- log10 of FEvals ratio -->
     <g transform="translate(141.371312 336.833125)scale(0.2 -0.2)">
      <defs>
       <path id="DejaVuSans-6c" d="M 603 4863 
L 1178 4863 
L 1178 0 
L 603 0 
L 603 4863 
z
" transform="scale(0.015625)"/>
       <path id="DejaVuSans-6f" d="M 1959 3097 
Q 1497 3097 1228 2736 
Q 959 2375 959 1747 
Q 959 1119 1226 758 
Q 1494 397 1959 397 
Q 2419 397 2687 759 
Q 2956 1122 2956 1747 
Q 2956 2369 2687 2733 
Q 2419 3097 1959 3097 
z
M 1959 3584 
Q 2709 3584 3137 3096 
Q 3566 2609 3566 1747 
Q 3566 888 3137 398 
Q 2709 -91 1959 -91 
Q 1206 -91 779 398 
Q 353 888 353 1747 
Q 353 2609 779 3096 
Q 1206 3584 1959 3584 
z
" transform="scale(0.015625)"/>
       <path id="DejaVuSans-67" d="M 2906 1791 
Q 2906 2416 2648 2759 
Q 2391 3103 1925 3103 
Q 1463 3103 1205 2759 
Q 947 2416 947 1791 
Q 947 1169 1205 825 
Q 1463 481 1925 481 
Q 2391 481 2648 825 
Q 2906 1169 2906 1791 
z
M 3481 434 
Q 3481 -459 3084 -895 
Q 2688 -1331 1869 -1331 
Q 1566 -1331 1297 -1286 
Q 1028 -1241 775 -1147 
L 775 -588 
Q 1028 -725 1275 -790 
Q 1522 -856 1778 -856 
Q 2344 -856 2625 -561 
Q 2906 -266 2906 331 
L 2906 616 
Q 2728 306 2450 153 
Q 2172 0 1784 0 
Q 1141 0 747 490 
Q 353 981 353 1791 
Q 353 2603 747 3093 
Q 1141 3584 1784 3584 
Q 2172 3584 2450 3431 
Q 2728 3278 2906 2969 
L 2906 3500 
L 3481 3500 
L 3481 434 
z
" transform="scale(0.015625)"/>
       <path id="DejaVuSans-20" transform="scale(0.015625)"/>
       <path id="DejaVuSans-66" d="M 2375 4863 
L 2375 4384 
L 1825 4384 
Q 1516 4384 1395 4259 
Q 1275 4134 1275 3809 
L 1275 3500 
L 2222 3500 
L 2222 3053 
L 1275 3053 
L 1275 0 
L 697 0 
L 697 3053 
L 147 3053 
L 147 3500 
L 697 3500 
L 697 3744 
Q 697 4328 969 4595 
Q 1241 4863 1831 4863 
L 2375 4863 
z
" transform="scale(0.015625)"/>
       <path id="DejaVuSans-46" d="M 628 4666 
L 3309 4666 
L 3309 4134 
L 1259 4134 
L 1259 2759 
L 3109 2759 
L 3109 2228 
L 1259 2228 
L 1259 0 
L 628 0 
L 628 4666 
z
" transform="scale(0.015625)"/>
       <path id="DejaVuSans-45" d="M 628 4666 
L 3578 4666 
L 3578 4134 
L 1259 4134 
L 1259 2753 
L 3481 2753 
L 3481 2222 
L 1259 2222 
L 1259 531 
L 3634 531 
L 3634 0 
L 628 0 
L 628 4666 
z
" transform="scale(0.015625)"/>
       <path id="DejaVuSans-76" d="M 191 3500 
L 800 3500 
L 1894 563 
L 2988 3500 
L 3597 3500 
L 2284 0 
L 1503 0 
L 191 3500 
z
" transform="scale(0.015625)"/>
       <path id="DejaVuSans-61" d="M 2194 1759 
Q 1497 1759 1228 1600 
Q 959 1441 959 1056 
Q 959 750 1161 570 
Q 1363 391 1709 391 
Q 2188 391 2477 730 
Q 2766 1069 2766 1631 
L 2766 1759 
L 2194 1759 
z
M 3341 1997 
L 3341 0 
L 2766 0 
L 2766 531 
Q 2569 213 2275 61 
Q 1981 -91 1556 -91 
Q 1019 -91 701 211 
Q 384 513 384 1019 
Q 384 1609 779 1909 
Q 1175 2209 1959 2209 
L 2766 2209 
L 2766 2266 
Q 2766 2663 2505 2880 
Q 2244 3097 1772 3097 
Q 1472 3097 1187 3025 
Q 903 2953 641 2809 
L 641 3341 
Q 956 3463 1253 3523 
Q 1550 3584 1831 3584 
Q 2591 3584 2966 3190 
Q 3341 2797 3341 1997 
z
" transform="scale(0.015625)"/>
       <path id="DejaVuSans-73" d="M 2834 3397 
L 2834 2853 
Q 2591 2978 2328 3040 
Q 2066 3103 1784 3103 
Q 1356 3103 1142 2972 
Q 928 2841 928 2578 
Q 928 2378 1081 2264 
Q 1234 2150 1697 2047 
L 1894 2003 
Q 2506 1872 2764 1633 
Q 3022 1394 3022 966 
Q 3022 478 2636 193 
Q 2250 -91 1575 -91 
Q 1294 -91 989 -36 
Q 684 19 347 128 
L 347 722 
Q 666 556 975 473 
Q 1284 391 1588 391 
Q 1994 391 2212 530 
Q 2431 669 2431 922 
Q 2431 1156 2273 1281 
Q 2116 1406 1581 1522 
L 1381 1569 
Q 847 1681 609 1914 
Q 372 2147 372 2553 
Q 372 3047 722 3315 
Q 1072 3584 1716 3584 
Q 2034 3584 2315 3537 
Q 2597 3491 2834 3397 
z
" transform="scale(0.015625)"/>
       <path id="DejaVuSans-72" d="M 2631 2963 
Q 2534 3019 2420 3045 
Q 2306 3072 2169 3072 
Q 1681 3072 1420 2755 
Q 1159 2438 1159 1844 
L 1159 0 
L 581 0 
L 581 3500 
L 1159 3500 
L 1159 2956 
Q 1341 3275 1631 3429 
Q 1922 3584 2338 3584 
Q 2397 3584 2469 3576 
Q 2541 3569 2628 3553 
L 2631 2963 
z
" transform="scale(0.015625)"/>
       <path id="DejaVuSans-74" d="M 1172 4494 
L 1172 3500 
L 2356 3500 
L 2356 3053 
L 1172 3053 
L 1172 1153 
Q 1172 725 1289 603 
Q 1406 481 1766 481 
L 2356 481 
L 2356 0 
L 1766 0 
Q 1100 0 847 248 
Q 594 497 594 1153 
L 594 3053 
L 172 3053 
L 172 3500 
L 594 3500 
L 594 4494 
L 1172 4494 
z
" transform="scale(0.015625)"/>
       <path id="DejaVuSans-69" d="M 603 3500 
L 1178 3500 
L 1178 0 
L 603 0 
L 603 3500 
z
M 603 4863 
L 1178 4863 
L 1178 4134 
L 603 4134 
L 603 4863 
z
" transform="scale(0.015625)"/>
      </defs>
      <use xlink:href="#DejaVuSans-6c"/>
      <use xlink:href="#DejaVuSans-6f" x="27.783203"/>
      <use xlink:href="#DejaVuSans-67" x="88.964844"/>
      <use xlink:href="#DejaVuSans-31" x="152.441406"/>
      <use xlink:href="#DejaVuSans-30" x="216.064453"/>
      <use xlink:href="#DejaVuSans-20" x="279.6875"/>
      <use xlink:href="#DejaVuSans-6f" x="311.474609"/>
      <use xlink:href="#DejaVuSans-66" x="372.65625"/>
      <use xlink:href="#DejaVuSans-20" x="407.861328"/>
      <use xlink:href="#DejaVuSans-46" x="439.648438"/>
      <use xlink:href="#DejaVuSans-45" x="497.167969"/>
      <use xlink:href="#DejaVuSans-76" x="560.351562"/>
      <use xlink:href="#DejaVuSans-61" x="619.53125"/>
      <use xlink:href="#DejaVuSans-6c" x="680.810547"/>
      <use xlink:href="#DejaVuSans-73" x="708.59375"/>
      <use xlink:href="#DejaVuSans-20" x="760.693359"/>
      <use xlink:href="#DejaVuSans-72" x="792.480469"/>
      <use xlink:href="#DejaVuSans-61" x="833.59375"/>
      <use xlink:href="#DejaVuSans-74" x="894.873047"/>
      <use xlink:href="#DejaVuSans-69" x="934.082031"/>
      <use xlink:href="#DejaVuSans-6f" x="961.865234"/>
     </g>
    </g>
   </g>
   <g id="matplotlib.axis_2">
    <g id="ytick_1">
     <g id="line2d_29">
      <path d="M 34.16 288.453725 
L 453.192 288.453725 
" clip-path="url(#p21e4bbbb3c)" style="fill: none; stroke: #b0b0b0; stroke-width: 0.8; stroke-linecap: square"/>
     </g>
     <g id="line2d_30">
      <defs>
       <path id="m68c48fd256" d="M 0 0 
L -3.5 0 
" style="stroke: #000000; stroke-width: 0.8"/>
      </defs>
      <g>
       <use xlink:href="#m68c48fd256" x="34.16" y="288.453725" style="stroke: #000000; stroke-width: 0.8"/>
      </g>
     </g>
    </g>
    <g id="ytick_2">
     <g id="line2d_31">
      <path d="M 34.16 217.796863 
L 453.192 217.796863 
" clip-path="url(#p21e4bbbb3c)" style="fill: none; stroke: #b0b0b0; stroke-width: 0.8; stroke-linecap: square"/>
     </g>
     <g id="line2d_32">
      <g>
       <use xlink:href="#m68c48fd256" x="34.16" y="217.796863" style="stroke: #000000; stroke-width: 0.8"/>
      </g>
     </g>
    </g>
    <g id="ytick_3">
     <g id="line2d_33">
      <path d="M 34.16 147.14 
L 453.192 147.14 
" clip-path="url(#p21e4bbbb3c)" style="fill: none; stroke: #b0b0b0; stroke-width: 0.8; stroke-linecap: square"/>
     </g>
     <g id="line2d_34">
      <g>
       <use xlink:href="#m68c48fd256" x="34.16" y="147.14" style="stroke: #000000; stroke-width: 0.8"/>
      </g>
     </g>
    </g>
    <g id="ytick_4">
     <g id="line2d_35">
      <path d="M 34.16 76.483137 
L 453.192 76.483137 
" clip-path="url(#p21e4bbbb3c)" style="fill: none; stroke: #b0b0b0; stroke-width: 0.8; stroke-linecap: square"/>
     </g>
     <g id="line2d_36">
      <g>
       <use xlink:href="#m68c48fd256" x="34.16" y="76.483137" style="stroke: #000000; stroke-width: 0.8"/>
      </g>
     </g>
    </g>
    <g id="ytick_5">
     <g id="line2d_37">
      <path d="M 34.16 5.826275 
L 453.192 5.826275 
" clip-path="url(#p21e4bbbb3c)" style="fill: none; stroke: #b0b0b0; stroke-width: 0.8; stroke-linecap: square"/>
     </g>
     <g id="line2d_38">
      <g>
       <use xlink:href="#m68c48fd256" x="34.16" y="5.826275" style="stroke: #000000; stroke-width: 0.8"/>
      </g>
     </g>
    </g>
    <g id="text_5">
     <!-- proportion of trials -->
     <g transform="translate(19.000625 240.14625)rotate(-90)scale(0.2 -0.2)">
      <defs>
       <path id="DejaVuSans-70" d="M 1159 525 
L 1159 -1331 
L 581 -1331 
L 581 3500 
L 1159 3500 
L 1159 2969 
Q 1341 3281 1617 3432 
Q 1894 3584 2278 3584 
Q 2916 3584 3314 3078 
Q 3713 2572 3713 1747 
Q 3713 922 3314 415 
Q 2916 -91 2278 -91 
Q 1894 -91 1617 61 
Q 1341 213 1159 525 
z
M 3116 1747 
Q 3116 2381 2855 2742 
Q 2594 3103 2138 3103 
Q 1681 3103 1420 2742 
Q 1159 2381 1159 1747 
Q 1159 1113 1420 752 
Q 1681 391 2138 391 
Q 2594 391 2855 752 
Q 3116 1113 3116 1747 
z
" transform="scale(0.015625)"/>
       <path id="DejaVuSans-6e" d="M 3513 2113 
L 3513 0 
L 2938 0 
L 2938 2094 
Q 2938 2591 2744 2837 
Q 2550 3084 2163 3084 
Q 1697 3084 1428 2787 
Q 1159 2491 1159 1978 
L 1159 0 
L 581 0 
L 581 3500 
L 1159 3500 
L 1159 2956 
Q 1366 3272 1645 3428 
Q 1925 3584 2291 3584 
Q 2894 3584 3203 3211 
Q 3513 2838 3513 2113 
z
" transform="scale(0.015625)"/>
      </defs>
      <use xlink:href="#DejaVuSans-70"/>
      <use xlink:href="#DejaVuSans-72" x="63.476562"/>
      <use xlink:href="#DejaVuSans-6f" x="102.339844"/>
      <use xlink:href="#DejaVuSans-70" x="163.521484"/>
      <use xlink:href="#DejaVuSans-6f" x="226.998047"/>
      <use xlink:href="#DejaVuSans-72" x="288.179688"/>
      <use xlink:href="#DejaVuSans-74" x="329.292969"/>
      <use xlink:href="#DejaVuSans-69" x="368.501953"/>
      <use xlink:href="#DejaVuSans-6f" x="396.285156"/>
      <use xlink:href="#DejaVuSans-6e" x="457.466797"/>
      <use xlink:href="#DejaVuSans-20" x="520.845703"/>
      <use xlink:href="#DejaVuSans-6f" x="552.632812"/>
      <use xlink:href="#DejaVuSans-66" x="613.814453"/>
      <use xlink:href="#DejaVuSans-20" x="649.019531"/>
      <use xlink:href="#DejaVuSans-74" x="680.806641"/>
      <use xlink:href="#DejaVuSans-72" x="720.015625"/>
      <use xlink:href="#DejaVuSans-69" x="761.128906"/>
      <use xlink:href="#DejaVuSans-61" x="788.912109"/>
      <use xlink:href="#DejaVuSans-6c" x="850.191406"/>
      <use xlink:href="#DejaVuSans-73" x="877.974609"/>
     </g>
    </g>
   </g>
   <g id="line2d_39">
    <path d="M 34.16 288.453725 
L 86.311773 288.453725 
L 86.311773 288.202501 
L 92.466419 288.202501 
L 92.466419 287.951277 
L 92.778278 287.951277 
L 92.88407 287.197603 
L 93.879482 287.197603 
L 93.985274 286.695155 
L 94.449497 286.695155 
L 94.555289 286.192706 
L 95.398272 286.192706 
L 95.398272 285.941481 
L 95.611512 285.941481 
L 95.717303 285.439033 
L 96.612063 285.439033 
L 96.629035 284.936584 
L 96.734826 284.936584 
L 96.843693 284.434135 
L 96.860941 284.434135 
L 96.860941 284.182911 
L 97.016445 284.182911 
L 97.122236 283.680462 
L 97.944897 283.680462 
L 97.996359 282.926789 
L 98.100026 282.926789 
L 98.205817 282.173115 
L 98.370224 282.173115 
L 98.467198 281.419442 
L 98.514912 281.419442 
L 98.53216 280.916993 
L 98.768571 280.916993 
L 98.768571 280.665769 
L 98.952278 280.665769 
L 98.952278 280.414545 
L 99.154271 280.414545 
L 99.154271 280.16332 
L 99.638325 280.16332 
L 99.744116 279.158423 
L 99.869775 279.158423 
L 99.962411 278.153525 
L 100.035616 278.153525 
L 100.068202 277.399852 
L 100.43979 277.399852 
L 100.43979 277.148627 
L 100.623497 277.148627 
L 100.711698 276.394954 
L 101.001041 276.394954 
L 101.099108 274.887608 
L 101.194132 274.887608 
L 101.299923 274.385159 
L 101.511549 274.385159 
L 101.61734 273.631486 
L 101.785512 273.631486 
L 101.785512 273.380261 
L 102.060158 273.380261 
L 102.169306 271.370466 
L 102.182689 271.370466 
L 102.182689 271.119242 
L 102.619327 271.119242 
L 102.67226 270.616793 
L 102.735754 270.616793 
L 102.803035 269.611895 
L 103.006737 269.611895 
L 103.006737 269.360671 
L 103.18563 269.360671 
L 103.287758 267.853325 
L 103.328209 267.853325 
L 103.328209 267.6021 
L 103.674543 267.6021 
L 103.780335 266.597203 
L 103.834274 266.597203 
L 103.901335 265.592305 
L 103.986652 265.592305 
L 104.090319 264.084959 
L 104.170359 264.084959 
L 104.274026 263.58251 
L 104.286834 263.58251 
L 104.388962 262.828837 
L 104.633022 262.828837 
L 104.633022 262.577612 
L 104.851797 262.577612 
L 104.958977 260.819041 
L 105.239207 260.819041 
L 105.306268 259.311695 
L 105.499338 259.311695 
L 105.594212 258.306797 
L 105.628617 258.306797 
L 105.628617 258.055573 
L 105.812325 258.055573 
L 105.920117 257.553124 
L 105.952703 257.553124 
L 106.018863 257.050675 
L 106.08889 257.050675 
L 106.136411 256.045778 
L 106.219121 256.045778 
L 106.322788 254.789656 
L 106.386282 254.789656 
L 106.43255 253.784758 
L 106.600542 253.784758 
L 106.66917 253.282309 
L 107.036386 253.282309 
L 107.138515 252.528636 
L 107.170557 252.528636 
L 107.239185 251.774963 
L 107.287832 251.774963 
L 107.377455 250.770065 
L 107.423796 250.770065 
L 107.525925 249.765168 
L 107.685549 249.765168 
L 107.757206 249.011495 
L 107.861087 249.011495 
L 107.928148 248.006597 
L 108.152587 248.006597 
L 108.252234 245.996802 
L 108.332572 245.996802 
L 108.40371 245.243129 
L 108.473737 245.243129 
L 108.577404 244.238231 
L 108.609506 244.238231 
L 108.609506 243.987007 
L 109.201777 243.987007 
L 109.21271 243.484558 
L 109.350095 243.484558 
L 109.418722 242.47966 
L 109.480388 242.47966 
L 109.483955 241.725987 
L 109.664836 241.725987 
L 109.737505 240.972314 
L 109.797806 240.972314 
L 109.902555 239.464967 
L 110.045676 239.464967 
L 110.147805 238.711294 
L 110.337176 238.711294 
L 110.439789 237.455172 
L 110.47189 237.455172 
L 110.47189 237.203948 
L 110.717419 237.203948 
L 110.821086 236.450275 
L 110.889713 236.450275 
L 110.889713 236.19905 
L 111.44518 236.19905 
L 111.512241 235.194153 
L 111.601483 235.194153 
L 111.703611 234.440479 
L 111.897306 234.440479 
L 111.988927 232.933133 
L 112.021029 232.933133 
L 112.021029 232.681908 
L 112.334924 232.681908 
L 112.428012 231.928235 
L 112.587196 231.928235 
L 112.68347 231.174562 
L 112.719512 231.174562 
L 112.752098 230.672113 
L 112.959003 230.672113 
L 112.959003 230.420889 
L 113.532101 230.420889 
L 113.629769 229.91844 
L 113.699796 229.91844 
L 113.731898 229.415991 
L 113.903908 229.415991 
L 113.983819 228.662318 
L 114.081895 228.662318 
L 114.184023 227.908645 
L 114.232609 227.908645 
L 114.301236 227.406196 
L 114.442215 227.406196 
L 114.442215 227.154972 
L 115.519049 227.154972 
L 115.519049 226.903747 
L 115.943478 226.903747 
L 116.012105 226.401298 
L 116.236448 226.401298 
L 116.236448 226.150074 
L 116.395603 226.150074 
L 116.464231 225.396401 
L 116.73284 225.396401 
L 116.73284 225.145176 
L 117.677745 225.145176 
L 117.677745 224.893952 
L 118.489569 224.893952 
L 118.587975 223.889054 
L 118.861377 223.889054 
L 118.861377 223.63783 
L 119.275048 223.63783 
L 119.275048 223.386606 
L 119.435906 223.386606 
L 119.53288 222.632932 
L 120.068577 222.632932 
L 120.159726 222.130484 
L 120.219953 222.130484 
L 120.219953 221.879259 
L 120.596861 221.879259 
L 120.596861 221.628035 
L 120.968668 221.628035 
L 121.013483 221.125586 
L 121.421423 221.125586 
L 121.421423 220.874362 
L 122.180934 220.874362 
L 122.180934 220.623137 
L 122.391094 220.623137 
L 122.391094 220.371913 
L 122.635214 220.371913 
L 122.635214 220.120688 
L 122.762901 220.120688 
L 122.762901 219.869464 
L 123.12584 219.869464 
L 123.12584 219.61824 
L 123.35031 219.61824 
L 123.35031 219.367015 
L 123.528714 219.367015 
L 123.528714 219.115791 
L 124.295215 219.115791 
L 124.40022 218.362118 
L 124.490349 218.362118 
L 124.490349 218.110893 
L 124.742505 218.110893 
L 124.753798 217.608444 
L 125.153345 217.608444 
L 125.177422 217.105996 
L 125.322948 217.105996 
L 125.322948 216.854771 
L 125.698704 216.854771 
L 125.698704 216.603547 
L 125.970951 216.603547 
L 125.970951 216.352322 
L 126.314372 216.352322 
L 126.314372 216.101098 
L 126.500666 216.101098 
L 126.59764 215.0962 
L 126.686179 215.0962 
L 126.686179 214.844976 
L 127.284713 214.844976 
L 127.284713 214.593752 
L 127.536006 214.593752 
L 127.536006 214.342527 
L 128.078243 214.342527 
L 128.083308 213.840078 
L 128.294899 213.840078 
L 128.391873 213.086405 
L 129.078946 213.086405 
L 129.126321 212.583956 
L 129.246225 212.583956 
L 129.322553 211.830283 
L 129.872476 211.830283 
L 129.872476 211.579059 
L 130.023332 211.579059 
L 130.023332 211.327834 
L 130.1906 211.327834 
L 130.267459 210.825386 
L 130.460016 210.825386 
L 130.460016 210.574161 
L 130.656172 210.574161 
L 130.656172 210.322937 
L 130.968237 210.322937 
L 130.968237 210.071712 
L 131.30799 210.071712 
L 131.359975 209.318039 
L 131.679797 209.318039 
L 131.679797 209.066815 
L 131.984833 209.066815 
L 131.984833 208.81559 
L 132.218177 208.81559 
L 132.315151 208.061917 
L 132.624417 208.061917 
L 132.624417 207.810693 
L 132.763463 207.810693 
L 132.763463 207.559468 
L 133.002224 207.559468 
L 133.002224 207.308244 
L 133.154209 207.308244 
L 133.154209 207.05702 
L 133.690652 207.05702 
L 133.795754 206.554571 
L 134.062459 206.554571 
L 134.062459 206.303346 
L 134.239844 206.303346 
L 134.239844 206.052122 
L 134.557697 206.052122 
L 134.557697 205.800898 
L 135.224927 205.800898 
L 135.224927 205.549673 
L 135.453635 205.549673 
L 135.453635 205.298449 
L 135.908111 205.298449 
L 135.925705 204.796 
L 136.622505 204.796 
L 136.675819 204.293551 
L 137.077487 204.293551 
L 137.077487 204.042327 
L 137.198191 204.042327 
L 137.30877 202.786205 
L 137.332218 202.786205 
L 137.332218 202.53498 
L 137.50779 202.53498 
L 137.50779 202.283756 
L 137.836296 202.283756 
L 137.879597 201.781307 
L 137.995843 201.781307 
L 138.032997 201.278858 
L 138.480975 201.278858 
L 138.480975 201.027634 
L 138.779063 201.027634 
L 138.789372 200.525185 
L 139.126452 200.525185 
L 139.15087 200.022736 
L 139.594457 200.022736 
L 139.691431 199.269063 
L 139.82723 199.269063 
L 139.890004 198.766614 
L 140.105648 198.766614 
L 140.105648 198.51539 
L 140.378504 198.51539 
L 140.439643 198.012941 
L 140.824815 198.012941 
L 140.901729 197.510492 
L 141.172034 197.510492 
L 141.172034 197.259268 
L 141.411416 197.259268 
L 141.411416 197.008044 
L 141.546456 197.008044 
L 141.653434 196.505595 
L 141.710916 196.505595 
L 141.710916 196.25437 
L 141.863573 196.25437 
L 141.96731 195.751922 
L 142.071105 195.751922 
L 142.071105 195.500697 
L 142.641461 195.500697 
L 142.641461 195.249473 
L 142.924707 195.249473 
L 142.924707 194.998248 
L 143.04973 194.998248 
L 143.04973 194.747024 
L 143.284391 194.747024 
L 143.284391 194.4958 
L 143.411595 194.4958 
L 143.508569 193.490902 
L 143.750508 193.490902 
L 143.750508 193.239678 
L 144.195642 193.239678 
L 144.195642 192.988453 
L 144.453766 192.988453 
L 144.453766 192.737229 
L 144.682868 192.737229 
L 144.779842 191.481107 
L 144.84184 191.481107 
L 144.84184 191.229882 
L 144.989171 191.229882 
L 144.989171 190.978658 
L 145.262696 190.978658 
L 145.262696 190.727434 
L 145.466915 190.727434 
L 145.466915 190.476209 
L 145.598568 190.476209 
L 145.598568 190.224985 
L 145.857254 190.224985 
L 145.857254 189.97376 
L 146.044649 189.97376 
L 146.044649 189.722536 
L 146.260294 189.722536 
L 146.260444 189.220087 
L 146.416456 189.220087 
L 146.416456 188.968863 
L 146.632101 188.968863 
L 146.632101 188.717638 
L 147.101529 188.717638 
L 147.101529 188.466414 
L 147.701102 188.466414 
L 147.701102 188.21519 
L 148.025147 188.21519 
L 148.072909 187.461516 
L 148.270904 187.461516 
L 148.374313 186.707843 
L 148.744126 186.707843 
L 148.744126 186.456619 
L 148.960914 186.456619 
L 148.976503 185.95417 
L 149.192147 185.95417 
L 149.192147 185.702946 
L 149.516808 185.702946 
L 149.542177 185.200497 
L 149.674392 185.200497 
L 149.674392 184.949272 
L 149.935443 184.949272 
L 150.029594 184.446824 
L 150.190294 184.446824 
L 150.190959 183.944375 
L 150.405938 183.944375 
L 150.426009 183.441926 
L 150.632955 183.441926 
L 150.632955 183.190702 
L 150.945665 183.190702 
L 150.945665 182.939477 
L 151.126788 182.939477 
L 151.126788 182.688253 
L 151.846746 182.688253 
L 151.9553 181.93458 
L 152.045429 181.93458 
L 152.045429 181.683355 
L 152.164099 181.683355 
L 152.261073 180.678458 
L 152.276418 180.678458 
L 152.276418 180.427233 
L 152.732502 180.427233 
L 152.839254 179.67356 
L 152.948146 179.67356 
L 153.016333 179.171111 
L 153.148066 179.171111 
L 153.148066 178.919887 
L 153.526031 178.919887 
L 153.611752 177.914989 
L 153.701881 177.914989 
L 153.741675 177.41254 
L 154.148668 177.41254 
L 154.243147 176.910092 
L 154.388954 176.910092 
L 154.388954 176.658867 
L 154.669585 176.658867 
L 154.704562 176.156418 
L 154.943926 176.156418 
L 154.943926 175.905194 
L 155.182484 175.905194 
L 155.182484 175.653969 
L 155.378713 175.653969 
L 155.378713 175.402745 
L 155.51442 175.402745 
L 155.574645 174.900296 
L 155.638388 174.900296 
L 155.638388 174.649072 
L 155.854032 174.649072 
L 155.854032 174.397847 
L 155.985917 174.397847 
L 155.985917 174.146623 
L 156.215198 174.146623 
L 156.215198 173.895399 
L 156.807764 173.895399 
L 156.807764 173.644174 
L 157.023408 173.644174 
L 157.023408 173.39295 
L 157.294841 173.39295 
L 157.294841 173.141725 
L 157.464172 173.141725 
L 157.464172 172.890501 
L 157.999948 172.890501 
L 157.999948 172.639277 
L 158.211252 172.639277 
L 158.221179 172.136828 
L 158.33582 172.136828 
L 158.426896 171.634379 
L 158.464216 171.634379 
L 158.464216 171.383155 
L 159.867705 171.383155 
L 159.867705 171.13193 
L 160.267625 171.13193 
L 160.361776 170.629481 
L 160.388752 170.629481 
L 160.388752 170.378257 
L 160.565831 170.378257 
L 160.565831 170.127033 
L 160.7624 170.127033 
L 160.7624 169.875808 
L 162.219083 169.875808 
L 162.219083 169.624584 
L 162.780007 169.624584 
L 162.780007 169.373359 
L 162.995651 169.373359 
L 162.995651 169.122135 
L 163.480785 169.122135 
L 163.480785 168.870911 
L 163.69643 168.870911 
L 163.69643 168.619686 
L 163.894249 168.619686 
L 163.894249 168.368462 
L 164.057786 168.368462 
L 164.151938 167.866013 
L 164.241769 167.866013 
L 164.241769 167.614789 
L 164.43646 167.614789 
L 164.48085 167.11234 
L 164.566383 167.11234 
L 164.566383 166.861115 
L 165.036744 166.861115 
L 165.137238 166.358667 
L 165.576507 166.358667 
L 165.576507 166.107442 
L 165.710895 166.107442 
L 165.753585 165.604993 
L 166.198266 165.604993 
L 166.293049 165.102545 
L 166.3872 165.102545 
L 166.3872 164.85132 
L 166.512576 164.85132 
L 166.611846 164.348871 
L 166.99347 164.348871 
L 166.99347 164.097647 
L 167.406837 164.097647 
L 167.406837 163.846423 
L 167.684411 163.846423 
L 167.684411 163.595198 
L 167.796354 163.595198 
L 167.796354 163.343974 
L 168.271011 163.343974 
L 168.33213 162.841525 
L 168.668002 162.841525 
L 168.668002 162.590301 
L 168.826906 162.590301 
L 168.826906 162.339076 
L 169.501057 162.339076 
L 169.501057 162.087852 
L 169.919674 162.087852 
L 169.919674 161.836627 
L 170.506274 161.836627 
L 170.506274 161.585403 
L 171.062168 161.585403 
L 171.094582 161.082954 
L 171.586516 161.082954 
L 171.586516 160.83173 
L 171.73632 160.83173 
L 171.73632 160.580505 
L 172.122292 160.580505 
L 172.122292 160.329281 
L 172.313639 160.329281 
L 172.40779 159.826832 
L 172.458164 159.826832 
L 172.458164 159.575608 
L 172.638253 159.575608 
L 172.732404 159.073159 
L 172.766492 159.073159 
L 172.766492 158.821935 
L 173.138299 158.821935 
L 173.138299 158.57071 
L 173.647962 158.57071 
L 173.702165 158.068261 
L 173.821779 158.068261 
L 173.821779 157.817037 
L 174.270136 157.817037 
L 174.364287 157.063364 
L 174.542968 157.063364 
L 174.584446 156.560915 
L 174.678597 156.560915 
L 174.693426 156.058466 
L 174.884743 156.058466 
L 174.884743 155.807242 
L 175.698345 155.807242 
L 175.698345 155.556017 
L 175.908689 155.556017 
L 175.940264 155.053569 
L 176.085767 155.053569 
L 176.085767 154.802344 
L 176.264877 154.802344 
L 176.264877 154.55112 
L 176.526864 154.55112 
L 176.526864 154.299895 
L 176.851477 154.299895 
L 176.912136 153.797447 
L 177.082759 153.797447 
L 177.120006 153.294998 
L 177.407372 153.294998 
L 177.407372 153.043773 
L 177.739019 153.043773 
L 177.75691 152.541325 
L 177.89676 152.541325 
L 177.89676 152.2901 
L 178.081523 152.2901 
L 178.081523 152.038876 
L 178.211071 152.038876 
L 178.211071 151.787651 
L 178.483361 151.787651 
L 178.483361 151.536427 
L 178.670297 151.536427 
L 178.767271 150.782754 
L 178.797671 150.782754 
L 178.797671 150.531529 
L 179.039255 150.531529 
L 179.039255 150.280305 
L 179.353565 150.280305 
L 179.454344 149.777856 
L 179.69885 149.777856 
L 179.730722 149.024183 
L 179.842369 149.024183 
L 179.875929 148.521734 
L 180.027717 148.521734 
L 180.027717 148.27051 
L 180.166982 148.27051 
L 180.247873 147.768061 
L 180.378144 147.768061 
L 180.378144 147.516837 
L 180.702758 147.516837 
L 180.714016 147.014388 
L 181.03863 147.014388 
L 181.03863 146.763163 
L 181.52918 146.763163 
L 181.52918 146.511939 
L 181.719832 146.511939 
L 181.813983 145.507041 
L 181.868186 145.507041 
L 181.934113 145.004593 
L 182.111191 145.004593 
L 182.113176 144.502144 
L 182.334641 144.502144 
L 182.36023 143.999695 
L 182.648951 143.999695 
L 182.670513 143.497246 
L 182.984823 143.497246 
L 182.984823 143.246022 
L 183.140596 143.246022 
L 183.140596 142.994797 
L 183.465209 142.994797 
L 183.529606 142.492349 
L 183.764443 142.492349 
L 183.764443 142.241124 
L 184.933094 142.241124 
L 184.933094 141.9899 
L 185.097093 141.9899 
L 185.097093 141.738675 
L 185.346457 141.738675 
L 185.411403 140.985002 
L 185.933057 140.985002 
L 185.98726 140.482553 
L 186.488951 140.482553 
L 186.543154 139.980105 
L 187.163103 139.980105 
L 187.217305 139.477656 
L 187.954703 139.477656 
L 187.954703 139.226431 
L 188.131781 139.226431 
L 188.131781 138.975207 
L 188.279316 138.975207 
L 188.279316 138.723983 
L 188.456395 138.723983 
L 188.456395 138.472758 
L 189.248562 138.472758 
L 189.302764 137.970309 
L 189.501849 137.970309 
L 189.501849 137.719085 
L 189.784337 137.719085 
L 189.83854 136.965412 
L 189.9112 136.965412 
L 189.9112 136.714187 
L 190.062904 136.714187 
L 190.120209 135.70929 
L 190.174412 135.70929 
L 190.22551 134.955617 
L 190.402588 134.955617 
L 190.402588 134.704392 
L 190.808677 134.704392 
L 190.808677 134.453168 
L 191.74153 134.453168 
L 191.74153 134.201943 
L 192.05584 134.201943 
L 192.05584 133.950719 
L 192.546789 133.950719 
L 192.600992 133.44827 
L 193.853065 133.44827 
L 193.886413 132.945821 
L 196.088328 132.945821 
L 196.088328 132.694597 
L 197.184551 132.694597 
L 197.184551 132.443373 
L 197.360896 132.443373 
L 197.415098 131.940924 
L 197.537974 131.940924 
L 197.592177 131.438475 
L 198.880547 131.438475 
L 198.974698 130.936026 
L 199.191226 130.936026 
L 199.245429 130.433577 
L 201.958283 130.433577 
L 202.052434 129.931129 
L 202.108918 129.931129 
L 202.108918 129.679904 
L 202.433532 129.679904 
L 202.507172 129.177455 
L 203.093772 129.177455 
L 203.093772 128.926231 
L 203.649667 128.926231 
L 203.649667 128.675007 
L 204.065415 128.675007 
L 204.065415 128.423782 
L 204.323818 128.423782 
L 204.379725 127.921333 
L 205.256421 127.921333 
L 205.350572 127.418885 
L 205.584908 127.418885 
L 205.584908 127.16766 
L 206.171508 127.16766 
L 206.171508 126.916436 
L 206.409277 126.916436 
L 206.409277 126.665211 
L 206.727402 126.665211 
L 206.727402 126.413987 
L 206.945052 126.413987 
L 206.945052 126.162763 
L 207.280925 126.162763 
L 207.280925 125.911538 
L 207.401553 125.911538 
L 207.401553 125.660314 
L 208.883045 125.660314 
L 208.883045 125.409089 
L 209.469646 125.409089 
L 209.487012 124.906641 
L 209.707504 124.906641 
L 209.707504 124.655416 
L 210.022788 124.655416 
L 210.02554 124.152967 
L 210.35866 124.152967 
L 210.35866 123.901743 
L 210.699691 123.901743 
L 210.699691 123.650519 
L 211.515111 123.650519 
L 211.569314 123.14807 
L 212.78515 123.14807 
L 212.78524 122.645621 
L 213.320926 122.645621 
L 213.320926 122.394397 
L 213.656798 122.394397 
L 213.656798 122.143172 
L 214.521611 122.143172 
L 214.521611 121.891948 
L 214.698689 121.891948 
L 214.698689 121.640723 
L 216.083378 121.640723 
L 216.083378 121.389499 
L 216.351941 121.389499 
L 216.351941 121.138275 
L 217.599347 121.138275 
L 217.599347 120.88705 
L 217.776425 120.88705 
L 217.776425 120.635826 
L 219.429677 120.635826 
L 219.429677 120.384601 
L 220.897485 120.384601 
L 220.897485 120.133377 
L 221.074563 120.133377 
L 221.074563 119.882153 
L 222.727815 119.882153 
L 222.727815 119.630928 
L 228.675826 119.630928 
L 228.675826 119.379704 
L 231.753562 119.379704 
L 231.753562 119.128479 
L 235.0517 119.128479 
L 235.0517 118.877255 
L 243.2189 118.877255 
L 243.269539 107.572157 
L 243.608122 107.572157 
L 243.659033 5.826275 
L 453.192 5.826275 
L 453.192 5.826275 
" clip-path="url(#p21e4bbbb3c)" style="fill: none; stroke: #000000; stroke-width: 3; stroke-linecap: square"/>
   </g>
   <g id="line2d_40">
    <path clip-path="url(#p21e4bbbb3c)" style="fill: none; stroke: #000000; stroke-width: 3; stroke-linecap: square"/>
   </g>
   <g id="line2d_41">
    <path d="M 34.16 288.453725 
L 96.569257 288.453725 
L 96.600857 287.951277 
L 97.84048 287.951277 
L 97.84048 287.700052 
L 97.975284 287.700052 
L 98.002453 287.197603 
L 99.214268 287.197603 
L 99.28311 286.695155 
L 100.222472 286.695155 
L 100.222472 286.44393 
L 100.414856 286.44393 
L 100.414856 286.192706 
L 100.733124 286.192706 
L 100.733124 285.941481 
L 101.462095 285.941481 
L 101.462095 285.690257 
L 101.596899 285.690257 
L 101.654478 284.936584 
L 101.789282 284.936584 
L 101.816452 284.434135 
L 101.995234 284.434135 
L 102.07559 283.931686 
L 102.133268 283.931686 
L 102.167909 283.429237 
L 102.45844 283.429237 
L 102.45844 283.178013 
L 102.616648 283.178013 
L 102.616648 282.926789 
L 102.835883 282.926789 
L 102.904724 282.42434 
L 103.028266 282.42434 
L 103.097108 281.921891 
L 103.218191 281.921891 
L 103.218191 281.670667 
L 103.372891 281.670667 
L 103.480547 280.916993 
L 103.507695 280.916993 
L 103.569505 279.912096 
L 103.698063 279.912096 
L 103.698063 279.660871 
L 103.820978 279.660871 
L 103.860036 278.655974 
L 103.991074 278.655974 
L 104.018244 278.153525 
L 104.354739 278.153525 
L 104.354739 277.902301 
L 104.547122 277.902301 
L 104.547122 277.651076 
L 104.746679 277.651076 
L 104.850161 276.394954 
L 104.889039 276.394954 
L 104.944397 275.892505 
L 105.060601 275.892505 
L 105.140692 275.138832 
L 105.195405 275.138832 
L 105.2989 274.133935 
L 105.616848 274.133935 
L 105.697205 273.631486 
L 105.750669 273.631486 
L 105.809232 273.129037 
L 105.889588 273.129037 
L 105.889588 272.877813 
L 106.005697 272.877813 
L 106.005697 272.626588 
L 106.140501 272.626588 
L 106.16767 272.124139 
L 106.265535 272.124139 
L 106.36805 271.119242 
L 106.378444 271.119242 
L 106.434389 270.616793 
L 106.50323 270.616793 
L 106.590707 270.114344 
L 106.748915 270.114344 
L 106.748915 269.86312 
L 106.990291 269.86312 
L 106.990291 269.611895 
L 107.102162 269.611895 
L 107.152265 268.858222 
L 107.294545 268.858222 
L 107.379485 268.355773 
L 107.448327 268.355773 
L 107.527644 267.350876 
L 107.562285 267.350876 
L 107.645641 266.345978 
L 107.827539 266.345978 
L 107.933173 265.341081 
L 107.953245 265.341081 
L 108.011024 264.838632 
L 108.09138 264.838632 
L 108.09138 264.587407 
L 108.242073 264.587407 
L 108.251568 264.084959 
L 108.364079 264.084959 
L 108.432921 263.58251 
L 108.510654 263.58251 
L 108.566011 263.080061 
L 108.64708 263.080061 
L 108.709218 262.326388 
L 108.758395 262.326388 
L 108.863619 261.572715 
L 108.871191 261.572715 
L 108.970525 260.567817 
L 109.012958 260.567817 
L 109.067161 259.311695 
L 109.201965 259.311695 
L 109.295711 258.306797 
L 109.338129 258.306797 
L 109.338129 258.055573 
L 109.496337 258.055573 
L 109.496337 257.804349 
L 109.882935 257.804349 
L 109.989665 257.050675 
L 110.000058 257.050675 
L 110.103241 256.297002 
L 110.151847 256.297002 
L 110.259052 254.035983 
L 110.265215 254.035983 
L 110.372121 253.031085 
L 110.42145 253.031085 
L 110.511448 251.523739 
L 110.700667 251.523739 
L 110.801979 250.770065 
L 110.904829 250.770065 
L 110.960187 250.267617 
L 111.145045 250.267617 
L 111.225401 249.765168 
L 111.477029 249.765168 
L 111.583936 249.011495 
L 111.601862 249.011495 
L 111.652778 248.257821 
L 111.735642 248.257821 
L 111.777908 247.755373 
L 111.878328 247.755373 
L 111.959806 245.996802 
L 112.10916 245.996802 
L 112.2035 245.243129 
L 112.225633 245.243129 
L 112.236026 244.74068 
L 112.361708 244.74068 
L 112.469526 243.735782 
L 112.630358 243.735782 
L 112.630358 243.484558 
L 112.863971 243.484558 
L 112.944328 242.982109 
L 112.995885 242.982109 
L 113.102792 241.977211 
L 113.109614 241.977211 
L 113.120374 241.474763 
L 113.221915 241.474763 
L 113.302271 240.972314 
L 113.566038 240.972314 
L 113.598564 240.218641 
L 114.03885 240.218641 
L 114.094208 239.716192 
L 114.257995 239.716192 
L 114.364902 238.711294 
L 114.445258 238.711294 
L 114.543661 237.455172 
L 114.707228 237.455172 
L 114.707228 237.203948 
L 114.891008 237.203948 
L 114.891008 236.952723 
L 115.167483 236.952723 
L 115.167483 236.701499 
L 115.495728 236.701499 
L 115.528255 235.947826 
L 115.743308 235.947826 
L 115.850215 234.942928 
L 115.933823 234.942928 
L 115.989181 234.440479 
L 116.11572 234.440479 
L 116.171078 233.938031 
L 117.1518 233.938031 
L 117.258707 232.430684 
L 117.314065 232.430684 
L 117.423228 231.425786 
L 117.572598 231.425786 
L 117.605125 230.672113 
L 118.608678 230.672113 
L 118.715585 229.667216 
L 118.737718 229.667216 
L 118.748112 229.164767 
L 119.141878 229.164767 
L 119.141878 228.913542 
L 119.577464 228.913542 
L 119.577464 228.662318 
L 119.924384 228.662318 
L 119.924384 228.411094 
L 120.319897 228.411094 
L 120.319897 228.159869 
L 123.255945 228.159869 
L 123.255945 227.908645 
L 123.408458 227.908645 
L 123.408458 227.65742 
L 124.142342 227.65742 
L 124.142342 227.406196 
L 124.355655 227.406196 
L 124.355655 227.154972 
L 124.863656 227.154972 
L 124.863656 226.903747 
L 125.058676 226.903747 
L 125.058676 226.652523 
L 126.8403 226.652523 
L 126.8403 226.401298 
L 130.616131 226.401298 
L 130.616131 226.150074 
L 134.928762 226.150074 
L 134.928762 225.89885 
L 136.028471 225.89885 
L 136.028471 225.647625 
L 136.536473 225.647625 
L 136.536473 225.396401 
L 136.731493 225.396401 
L 136.731493 225.145176 
L 137.7665 225.145176 
L 137.7665 224.893952 
L 142.288948 224.893952 
L 142.288948 224.642728 
L 146.227266 224.642728 
L 146.227266 224.391503 
L 147.414665 224.391503 
L 147.414665 224.140279 
L 149.439317 224.140279 
L 149.439317 223.889054 
L 150.888098 223.889054 
L 150.888098 223.63783 
L 151.0689 223.63783 
L 151.0689 223.386606 
L 152.876201 223.386606 
L 152.876201 223.135381 
L 154.0636 223.135381 
L 154.0636 222.884157 
L 156.679477 222.884157 
L 156.679477 222.632932 
L 157.127071 222.632932 
L 157.127071 222.381708 
L 157.537033 222.381708 
L 157.562657 221.879259 
L 157.717834 221.879259 
L 157.717834 221.628035 
L 157.909578 221.628035 
L 157.909578 221.37681 
L 158.292614 221.37681 
L 158.31447 220.371913 
L 158.750056 220.371913 
L 158.750056 220.120688 
L 159.096977 220.120688 
L 159.096977 219.869464 
L 159.492489 219.869464 
L 159.492489 219.61824 
L 161.393651 219.61824 
L 161.393651 219.367015 
L 161.787903 219.367015 
L 161.787903 219.115791 
L 161.968704 219.115791 
L 161.968704 218.864566 
L 162.127535 218.864566 
L 162.223488 218.362118 
L 162.40429 218.362118 
L 162.40429 218.110893 
L 162.570409 218.110893 
L 162.581051 217.608444 
L 162.751211 217.608444 
L 162.751211 217.35722 
L 162.965921 217.35722 
L 162.965921 217.105996 
L 163.146723 217.105996 
L 163.146723 216.854771 
L 163.314934 216.854771 
L 163.328412 216.352322 
L 164.825493 216.352322 
L 164.825493 216.101098 
L 164.941549 216.101098 
L 164.945347 215.598649 
L 166.012892 215.598649 
L 166.054483 215.0962 
L 166.235285 215.0962 
L 166.235285 214.844976 
L 166.788367 214.844976 
L 166.788367 214.593752 
L 166.969169 214.593752 
L 166.969169 214.342527 
L 167.579282 214.342527 
L 167.579282 214.091303 
L 167.723321 214.091303 
L 167.723321 213.840078 
L 168.014868 213.840078 
L 168.014868 213.588854 
L 168.361788 213.588854 
L 168.361788 213.33763 
L 168.757301 213.33763 
L 168.757301 213.086405 
L 169.192419 213.086405 
L 169.196217 212.583956 
L 169.486324 212.583956 
L 169.486324 212.332732 
L 169.628005 212.332732 
L 169.667126 211.579059 
L 169.974925 211.579059 
L 169.978724 211.07661 
L 170.370438 211.07661 
L 170.374236 210.574161 
L 171.845862 210.574161 
L 171.845862 210.322937 
L 172.579746 210.322937 
L 172.579746 210.071712 
L 172.913955 210.071712 
L 172.913955 209.820488 
L 173.458999 209.820488 
L 173.462798 209.318039 
L 174.013664 209.318039 
L 174.101354 208.81559 
L 174.192883 208.81559 
L 174.196681 208.313142 
L 174.372256 208.313142 
L 174.372256 208.061917 
L 174.521666 208.061917 
L 174.521666 207.810693 
L 174.716686 207.810693 
L 174.716686 207.559468 
L 175.201063 207.559468 
L 175.277703 207.05702 
L 175.709065 207.05702 
L 175.709065 206.805795 
L 175.904085 206.805795 
L 175.904085 206.554571 
L 176.89084 206.554571 
L 176.894639 206.052122 
L 177.574787 206.052122 
L 177.574787 205.800898 
L 177.755588 205.800898 
L 177.755588 205.549673 
L 178.623126 205.549673 
L 178.674496 205.047224 
L 178.855298 205.047224 
L 178.855298 204.796 
L 179.058711 204.796 
L 179.058711 204.544776 
L 179.182498 204.544776 
L 179.182498 204.293551 
L 179.363299 204.293551 
L 179.405632 203.539878 
L 179.558319 203.539878 
L 179.558319 203.288654 
L 179.801144 203.288654 
L 179.801144 203.037429 
L 180.274141 203.037429 
L 180.274141 202.786205 
L 181.46154 202.786205 
L 181.46154 202.53498 
L 182.889706 202.53498 
L 182.889706 202.283756 
L 183.366166 202.283756 
L 183.366166 202.032532 
L 183.62359 202.032532 
L 183.62359 201.781307 
L 184.465875 201.781307 
L 184.465875 201.530083 
L 184.934972 201.530083 
L 184.983101 200.525185 
L 185.115774 200.525185 
L 185.168897 200.022736 
L 186.079012 200.022736 
L 186.08281 199.520288 
L 186.321547 199.520288 
L 186.321547 199.269063 
L 186.587014 199.269063 
L 186.590812 198.766614 
L 186.782034 198.766614 
L 186.785832 198.264166 
L 187.42451 198.264166 
L 187.42451 198.012941 
L 188.611909 198.012941 
L 188.611909 197.761717 
L 189.764979 197.761717 
L 189.764979 197.510492 
L 190.726352 197.510492 
L 190.726352 197.259268 
L 192.085341 197.259268 
L 192.085341 197.008044 
L 192.266143 197.008044 
L 192.343287 196.25437 
L 193.299069 196.25437 
L 193.299069 196.003146 
L 194.410009 196.003146 
L 194.410009 195.751922 
L 195.509719 195.751922 
L 195.509719 195.500697 
L 196.01772 195.500697 
L 196.01772 195.249473 
L 196.21274 195.249473 
L 196.21274 194.998248 
L 196.413914 194.998248 
L 196.413914 194.747024 
L 197.486911 194.747024 
L 197.486911 194.4958 
L 197.87672 194.4958 
L 197.87672 194.244575 
L 199.489857 194.244575 
L 199.493656 193.742126 
L 199.948004 193.742126 
L 199.948004 193.490902 
L 200.664784 193.490902 
L 200.664784 193.239678 
L 201.100369 193.239678 
L 201.100369 192.988453 
L 201.44729 192.988453 
L 201.44729 192.737229 
L 201.770195 192.737229 
L 201.842802 192.23478 
L 204.135846 192.23478 
L 204.198874 191.732331 
L 204.63446 191.732331 
L 204.63446 191.481107 
L 204.931364 191.481107 
L 204.981381 190.978658 
L 205.376893 190.978658 
L 205.376893 190.727434 
L 205.665248 190.727434 
L 205.665248 190.476209 
L 208.363205 190.476209 
L 208.465455 189.722536 
L 208.822302 189.722536 
L 208.920564 189.220087 
L 209.169223 189.220087 
L 209.199338 188.717638 
L 209.564735 188.717638 
L 209.564735 188.466414 
L 211.289412 188.466414 
L 211.289412 188.21519 
L 211.897296 188.21519 
L 211.897296 187.963965 
L 212.653296 187.963965 
L 212.653296 187.712741 
L 213.38718 187.712741 
L 213.38718 187.461516 
L 216.085138 187.461516 
L 216.085138 187.210292 
L 216.451668 187.210292 
L 216.451668 186.959068 
L 217.551377 186.959068 
L 217.551377 186.707843 
L 218.059379 186.707843 
L 218.059379 186.456619 
L 218.254398 186.456619 
L 218.254398 186.205394 
L 219.985758 186.205394 
L 219.985758 185.95417 
L 221.085467 185.95417 
L 221.085467 185.702946 
L 221.593469 185.702946 
L 221.593469 185.451721 
L 221.788489 185.451721 
L 221.788489 185.200497 
L 223.7368 185.200497 
L 223.811854 184.698048 
L 224.1736 184.698048 
L 224.1736 184.446824 
L 225.273309 184.446824 
L 225.273309 184.195599 
L 225.781311 184.195599 
L 225.781311 183.944375 
L 225.976331 183.944375 
L 225.976331 183.69315 
L 227.345944 183.69315 
L 227.345944 183.441926 
L 230.962222 183.441926 
L 230.962222 183.190702 
L 231.533786 183.190702 
L 231.533786 182.939477 
L 232.296289 182.939477 
L 232.296289 182.688253 
L 232.442553 182.688253 
L 232.442553 182.437028 
L 233.463988 182.437028 
L 233.463988 182.185804 
L 234.496313 182.185804 
L 234.496313 181.93458 
L 238.684155 181.93458 
L 238.684155 181.683355 
L 238.945224 181.683355 
L 238.945224 181.432131 
L 240.790266 181.432131 
L 240.790266 181.180906 
L 241.164959 181.180906 
L 241.164959 180.929682 
L 242.574564 180.929682 
L 242.614896 180.427233 
L 242.714568 180.427233 
L 242.811297 168.117237 
L 243.151441 168.117237 
L 243.2189 157.314588 
L 243.625111 157.314588 
L 243.659037 100.537874 
L 243.9786 100.537874 
L 243.9786 100.286649 
L 244.374113 100.286649 
L 244.374113 100.035425 
L 244.889941 100.035425 
L 244.889941 99.7842 
L 245.911377 99.7842 
L 245.911377 99.532976 
L 246.17602 99.532976 
L 246.17602 99.281752 
L 247.422011 99.281752 
L 247.462674 98.528078 
L 248.196558 98.528078 
L 248.196558 98.276854 
L 250.894516 98.276854 
L 250.894516 98.02563 
L 251.690071 98.02563 
L 251.690071 97.774405 
L 252.125657 97.774405 
L 252.125657 97.523181 
L 252.346971 97.523181 
L 252.346971 97.271956 
L 252.472577 97.271956 
L 252.472577 97.020732 
L 252.86809 97.020732 
L 252.86809 96.769508 
L 253.612347 96.769508 
L 253.612347 96.518283 
L 255.021953 96.518283 
L 255.062284 96.015834 
L 255.258686 96.015834 
L 255.258686 95.76461 
L 255.373568 95.76461 
L 255.373568 95.513386 
L 255.956651 95.513386 
L 255.956651 95.262161 
L 256.690535 95.262161 
L 256.690535 95.010937 
L 256.824024 95.010937 
L 256.824024 94.759712 
L 258.623408 94.759712 
L 258.666889 94.257264 
L 258.982978 94.257264 
L 258.982978 94.006039 
L 259.388493 94.006039 
L 259.388493 93.754815 
L 259.8694 93.754815 
L 259.8694 93.50359 
L 260.082687 93.50359 
L 260.082687 93.252366 
L 260.437504 93.252366 
L 260.437504 93.001142 
L 260.590689 93.001142 
L 260.590689 92.749917 
L 260.785709 92.749917 
L 260.785709 92.498693 
L 261.427964 92.498693 
L 261.427964 92.247468 
L 264.79436 92.247468 
L 264.79436 91.996244 
L 266.343164 91.996244 
L 266.343164 91.74502 
L 267.476955 91.74502 
L 267.476955 91.493795 
L 267.820956 91.493795 
L 267.820956 91.242571 
L 268.576664 91.242571 
L 268.576664 90.991346 
L 269.084666 90.991346 
L 269.084666 90.740122 
L 269.271412 90.740122 
L 269.279686 90.237673 
L 271.114278 90.237673 
L 271.114278 89.986449 
L 272.884893 89.986449 
L 272.884893 89.735224 
L 273.493533 89.735224 
L 273.493533 89.484 
L 273.875353 89.484 
L 273.875353 89.232776 
L 274.837141 89.232776 
L 274.837141 88.981551 
L 274.991395 88.981551 
L 275.075193 86.971756 
L 275.428268 86.971756 
L 275.495728 85.213185 
L 275.592831 85.213185 
L 275.676629 83.20339 
L 276.029704 83.20339 
L 276.097164 81.444819 
L 281.98751 81.444819 
L 281.98751 81.193595 
L 297.034137 81.193595 
L 297.117935 79.1838 
L 297.47101 79.1838 
L 297.53847 77.425229 
L 297.714186 77.425229 
L 297.797984 75.415434 
L 297.926744 75.415434 
L 298.010542 73.405638 
L 298.151059 73.405638 
L 298.260212 69.637272 
L 298.363617 69.637272 
L 298.431077 67.878702 
L 298.613287 67.878702 
L 298.680747 66.120131 
L 313.877692 66.120131 
L 313.961489 64.110336 
L 314.045581 64.110336 
L 314.129379 62.10054 
L 314.219033 62.10054 
L 314.314565 59.839521 
L 314.331423 59.839521 
L 314.382024 58.332174 
L 314.482454 58.332174 
L 314.549914 56.573603 
L 314.655906 56.573603 
L 314.723366 54.815033 
L 453.192 54.815033 
L 453.192 54.815033 
" clip-path="url(#p21e4bbbb3c)" style="fill: none; stroke: #00bfbf; stroke-width: 3; stroke-linecap: square"/>
   </g>
   <g id="line2d_42">
    <path clip-path="url(#p21e4bbbb3c)" style="fill: none; stroke: #00bfbf; stroke-width: 3; stroke-linecap: square"/>
   </g>
   <g id="line2d_43">
    <path d="M 34.16 288.453725 
L 94.178868 288.453725 
L 94.178868 288.202501 
L 94.519124 288.202501 
L 94.519124 287.951277 
L 94.993784 287.951277 
L 94.993784 287.700052 
L 95.33404 287.700052 
L 95.33404 287.448828 
L 95.721668 287.448828 
L 95.817945 286.695155 
L 96.085531 286.695155 
L 96.158201 285.941481 
L 96.321454 285.941481 
L 96.321454 285.690257 
L 96.536584 285.690257 
L 96.583354 285.187808 
L 96.65365 285.187808 
L 96.65365 284.936584 
L 96.900447 284.936584 
L 96.993906 284.182911 
L 97.13637 284.182911 
L 97.209121 283.680462 
L 97.326657 283.680462 
L 97.380248 282.926789 
L 97.452632 282.926789 
L 97.510646 282.42434 
L 97.690519 282.42434 
L 97.724608 281.670667 
L 97.850903 281.670667 
L 97.960531 280.916993 
L 98.024037 280.916993 
L 98.126154 280.414545 
L 98.19645 280.414545 
L 98.267548 279.912096 
L 98.37146 279.912096 
L 98.37146 279.660871 
L 98.490017 279.660871 
L 98.560313 279.158423 
L 98.72594 279.158423 
L 98.81411 278.404749 
L 98.848198 278.404749 
L 98.923048 277.902301 
L 99.053447 277.902301 
L 99.132087 276.394954 
L 99.171561 276.394954 
L 99.186376 275.892505 
L 99.286911 275.892505 
L 99.286911 275.641281 
L 99.417309 275.641281 
L 99.522834 273.88271 
L 99.613607 273.88271 
L 99.683903 273.129037 
L 99.857118 273.129037 
L 99.927414 272.626588 
L 99.973532 272.626588 
L 100.010537 271.621691 
L 100.294749 271.621691 
L 100.335148 270.868017 
L 100.410501 270.868017 
L 100.410501 270.616793 
L 100.5409 270.616793 
L 100.5409 270.365569 
L 100.652918 270.365569 
L 100.714361 268.858222 
L 100.775946 268.858222 
L 100.846242 268.104549 
L 101.016781 268.104549 
L 101.11891 266.345978 
L 101.252704 266.345978 
L 101.314146 265.341081 
L 101.478796 265.341081 
L 101.57284 264.336183 
L 101.703239 264.336183 
L 101.753006 263.833734 
L 101.834514 263.833734 
L 101.901555 262.828837 
L 101.954614 262.828837 
L 101.954614 262.577612 
L 102.093262 262.577612 
L 102.201814 260.819041 
L 102.268869 260.819041 
L 102.302957 260.316593 
L 102.383882 260.316593 
L 102.445325 259.311695 
L 102.624587 259.311695 
L 102.681213 258.558022 
L 102.747122 258.558022 
L 102.811611 258.055573 
L 102.908719 258.055573 
L 103.003785 257.553124 
L 103.025145 257.553124 
L 103.068366 257.050675 
L 103.138662 257.050675 
L 103.247296 256.548227 
L 103.268656 256.548227 
L 103.364153 255.04088 
L 103.424085 255.04088 
L 103.49438 254.287207 
L 103.562038 254.287207 
L 103.659669 253.784758 
L 103.723635 253.784758 
L 103.723635 253.533534 
L 103.86526 253.533534 
L 103.895592 253.031085 
L 103.995659 253.031085 
L 104.013644 252.528636 
L 104.166124 252.528636 
L 104.220978 251.774963 
L 104.295723 251.774963 
L 104.386199 250.770065 
L 104.411083 250.770065 
L 104.513707 249.513943 
L 104.547796 249.513943 
L 104.56382 249.011495 
L 104.783259 249.011495 
L 104.82856 248.509046 
L 105.02677 248.509046 
L 105.119884 247.755373 
L 105.151608 247.755373 
L 105.221904 247.252924 
L 105.274497 247.252924 
L 105.383501 246.248026 
L 105.59513 246.248026 
L 105.656573 244.74068 
L 105.885293 244.74068 
L 105.972817 242.982109 
L 106.012291 242.982109 
L 106.110099 242.228436 
L 106.240497 242.228436 
L 106.240497 241.977211 
L 106.41813 241.977211 
L 106.488426 240.972314 
L 106.682187 240.972314 
L 106.682187 240.721089 
L 106.812586 240.721089 
L 106.835623 239.967416 
L 107.053971 239.967416 
L 107.053971 239.716192 
L 107.215024 239.716192 
L 107.215024 239.464967 
L 107.345423 239.464967 
L 107.345423 239.213743 
L 107.678373 239.213743 
L 107.739815 238.208845 
L 107.839969 238.208845 
L 107.901412 237.203948 
L 108.238018 237.203948 
L 108.238018 236.952723 
L 108.412057 236.952723 
L 108.4735 235.947826 
L 108.541787 235.947826 
L 108.593737 235.194153 
L 108.703383 235.194153 
L 108.724743 234.691704 
L 108.944895 234.691704 
L 109.006337 233.686806 
L 109.275471 233.686806 
L 109.296831 233.184357 
L 109.808308 233.184357 
L 109.829669 232.681908 
L 110.299645 232.681908 
L 110.321261 232.17946 
L 110.482857 232.17946 
L 110.482857 231.928235 
L 111.054945 231.928235 
L 111.054945 231.677011 
L 111.587783 231.677011 
L 111.587783 231.425786 
L 114.384748 231.425786 
L 114.384748 231.174562 
L 115.461629 231.174562 
L 115.461629 230.923338 
L 115.897603 230.923338 
L 115.897603 230.672113 
L 116.243534 230.672113 
L 116.243534 230.420889 
L 116.638908 230.420889 
L 116.638908 230.169664 
L 119.730034 230.169664 
L 119.730034 229.91844 
L 120.120573 229.91844 
L 120.120573 229.667216 
L 120.462806 229.667216 
L 120.462806 229.415991 
L 123.161061 229.415991 
L 123.161061 229.164767 
L 125.282557 229.164767 
L 125.282557 228.913542 
L 125.718532 228.913542 
L 125.718532 228.662318 
L 126.064463 228.662318 
L 126.064463 228.411094 
L 126.459837 228.411094 
L 126.459837 228.159869 
L 129.550962 228.159869 
L 129.550962 227.908645 
L 130.283735 227.908645 
L 130.283735 227.65742 
L 131.246864 227.65742 
L 131.246864 227.406196 
L 132.346296 227.406196 
L 132.346296 227.154972 
L 132.854762 227.154972 
L 132.854762 226.903747 
L 132.98199 226.903747 
L 133.050486 226.401298 
L 138.607348 226.401298 
L 138.607348 226.150074 
L 141.067793 226.150074 
L 141.067793 225.89885 
L 142.167225 225.89885 
L 142.167225 225.647625 
L 142.675691 225.647625 
L 142.675691 225.396401 
L 142.871415 225.396401 
L 142.871415 225.145176 
L 145.756064 225.145176 
L 145.756064 224.893952 
L 148.428276 224.893952 
L 148.428276 224.642728 
L 149.96245 224.642728 
L 149.96245 224.391503 
L 150.822049 224.391503 
L 150.822049 224.140279 
L 154.361708 224.140279 
L 154.361708 223.889054 
L 154.650681 223.889054 
L 154.650681 223.63783 
L 155.576992 223.63783 
L 155.576992 223.386606 
L 155.698275 223.386606 
L 155.698275 223.135381 
L 156.557874 223.135381 
L 156.557874 222.884157 
L 159.472099 222.884157 
L 159.472099 222.632932 
L 160.097533 222.632932 
L 160.097533 222.381708 
L 160.386506 222.381708 
L 160.386506 222.130484 
L 160.733744 222.130484 
L 160.733744 221.879259 
L 160.860259 221.879259 
L 160.860259 221.628035 
L 161.296234 221.628035 
L 161.296234 221.37681 
L 161.642165 221.37681 
L 161.719858 220.623137 
L 162.037539 220.623137 
L 162.037539 220.371913 
L 162.155833 220.371913 
L 162.155833 220.120688 
L 162.501764 220.120688 
L 162.501764 219.869464 
L 162.897138 219.869464 
L 162.897138 219.61824 
L 165.128664 219.61824 
L 165.207924 219.115791 
L 165.259517 219.115791 
L 165.259517 218.864566 
L 165.54849 218.864566 
L 165.54849 218.613342 
L 165.695492 218.613342 
L 165.695492 218.362118 
L 165.861437 218.362118 
L 165.861437 218.110893 
L 165.984465 218.110893 
L 166.041422 217.35722 
L 166.330396 217.35722 
L 166.436796 216.854771 
L 166.469569 216.854771 
L 166.469569 216.603547 
L 166.721036 216.603547 
L 166.72577 216.101098 
L 167.416692 216.101098 
L 167.416692 215.849874 
L 168.559692 215.849874 
L 168.559692 215.598649 
L 169.419291 215.598649 
L 169.527922 215.0962 
L 169.816895 215.0962 
L 169.816895 214.844976 
L 170.260695 214.844976 
L 170.369908 214.342527 
L 170.549668 214.342527 
L 170.549668 214.091303 
L 170.805883 214.091303 
L 170.805883 213.840078 
L 171.151814 213.840078 
L 171.162805 213.33763 
L 171.547188 213.33763 
L 171.631553 212.835181 
L 172.067528 212.835181 
L 172.067528 212.583956 
L 172.413458 212.583956 
L 172.413458 212.332732 
L 172.578676 212.332732 
L 172.578676 212.081508 
L 172.808832 212.081508 
L 172.808832 211.830283 
L 172.958949 211.830283 
L 173.014651 211.327834 
L 173.247923 211.327834 
L 173.247923 211.07661 
L 173.360581 211.07661 
L 173.360581 210.825386 
L 173.755955 210.825386 
L 173.755955 210.574161 
L 174.638313 210.574161 
L 174.638313 210.322937 
L 175.371086 210.322937 
L 175.371086 210.071712 
L 175.899958 210.071712 
L 175.899958 209.820488 
L 176.632731 209.820488 
L 176.645495 209.318039 
L 176.847081 209.318039 
L 176.898631 208.81559 
L 177.505094 208.81559 
L 177.579854 208.313142 
L 177.744927 208.313142 
L 177.744927 208.061917 
L 178.069341 208.061917 
L 178.069341 207.810693 
L 178.253393 207.810693 
L 178.253393 207.559468 
L 178.449117 207.559468 
L 178.449117 207.308244 
L 178.604526 207.308244 
L 178.604526 207.05702 
L 179.112992 207.05702 
L 179.112992 206.805795 
L 179.308716 206.805795 
L 179.330986 206.303346 
L 180.278109 206.303346 
L 180.278109 206.052122 
L 181.044752 206.052122 
L 181.044752 205.800898 
L 181.333726 205.800898 
L 181.333726 205.549673 
L 182.060615 205.549673 
L 182.144185 205.047224 
L 182.433158 205.047224 
L 182.496589 204.544776 
L 182.65265 204.544776 
L 182.65265 204.293551 
L 182.84252 204.293551 
L 182.941623 203.539878 
L 183.137348 203.539878 
L 183.237894 203.037429 
L 184.005978 203.037429 
L 184.005978 202.786205 
L 184.865577 202.786205 
L 184.865577 202.53498 
L 186.155144 202.53498 
L 186.155144 202.283756 
L 186.329019 202.283756 
L 186.329019 202.032532 
L 187.061792 202.032532 
L 187.061792 201.781307 
L 187.254576 201.781307 
L 187.254576 201.530083 
L 187.416788 201.530083 
L 187.416788 201.278858 
L 187.763041 201.278858 
L 187.763041 201.027634 
L 187.958766 201.027634 
L 187.958766 200.77641 
L 188.363911 200.77641 
L 188.405236 200.273961 
L 188.516221 200.273961 
L 188.516221 200.022736 
L 188.694209 200.022736 
L 188.694209 199.771512 
L 189.024686 199.771512 
L 189.024686 199.520288 
L 189.22041 199.520288 
L 189.22041 199.269063 
L 189.463344 199.269063 
L 189.463344 199.017839 
L 189.760047 199.017839 
L 189.760047 198.766614 
L 189.971809 198.766614 
L 189.971809 198.51539 
L 190.167534 198.51539 
L 190.167534 198.264166 
L 191.001925 198.264166 
L 191.001925 198.012941 
L 191.154694 198.012941 
L 191.154694 197.761717 
L 192.014293 197.761717 
L 192.014293 197.510492 
L 193.515627 197.510492 
L 193.515627 197.259268 
L 194.777272 197.259268 
L 194.777272 197.008044 
L 195.232912 197.008044 
L 195.232912 196.756819 
L 195.553952 196.756819 
L 195.553952 196.505595 
L 195.724395 196.505595 
L 195.724395 196.25437 
L 195.842925 196.25437 
L 195.842925 196.003146 
L 196.73775 196.003146 
L 196.73775 195.751922 
L 197.84585 195.751922 
L 197.84585 195.500697 
L 198.683918 195.500697 
L 198.683918 195.249473 
L 198.945282 195.249473 
L 198.945282 194.998248 
L 199.453748 194.998248 
L 199.453748 194.747024 
L 199.649472 194.747024 
L 199.649472 194.4958 
L 200.664343 194.4958 
L 200.664343 194.244575 
L 200.968737 194.244575 
L 200.968737 193.993351 
L 201.899734 193.993351 
L 201.925988 193.490902 
L 202.335709 193.490902 
L 202.335709 193.239678 
L 202.68164 193.239678 
L 202.68164 192.988453 
L 202.873111 192.988453 
L 202.873111 192.737229 
L 203.077014 192.737229 
L 203.077014 192.486004 
L 204.419743 192.486004 
L 204.419743 192.23478 
L 205.206334 192.23478 
L 205.206334 191.983556 
L 206.130721 191.983556 
L 206.168139 191.481107 
L 206.566696 191.481107 
L 206.566696 191.229882 
L 206.900912 191.229882 
L 206.912626 190.727434 
L 207.308 190.727434 
L 207.308 190.476209 
L 209.581727 190.476209 
L 209.599167 189.97376 
L 210.017702 189.97376 
L 210.017702 189.722536 
L 210.363632 189.722536 
L 210.399126 189.220087 
L 210.759006 189.220087 
L 210.759006 188.968863 
L 211.131899 188.968863 
L 211.131899 188.717638 
L 211.693777 188.717638 
L 211.693777 188.466414 
L 212.35505 188.466414 
L 212.35505 188.21519 
L 213.830154 188.21519 
L 213.850132 187.712741 
L 214.582905 187.712741 
L 214.582905 187.461516 
L 217.28116 187.461516 
L 217.28116 187.210292 
L 217.68497 187.210292 
L 217.68497 186.959068 
L 218.784402 186.959068 
L 218.784402 186.707843 
L 219.292867 186.707843 
L 219.292867 186.456619 
L 219.488592 186.456619 
L 219.488592 186.205394 
L 221.915956 186.205394 
L 221.915956 185.95417 
L 223.015389 185.95417 
L 223.015389 185.702946 
L 223.523854 185.702946 
L 223.523854 185.451721 
L 223.719578 185.451721 
L 223.719578 185.200497 
L 224.388628 185.200497 
L 224.388628 184.949272 
L 225.045453 184.949272 
L 225.045453 184.698048 
L 225.366962 184.698048 
L 225.366962 184.446824 
L 226.466395 184.446824 
L 226.466395 184.195599 
L 226.97486 184.195599 
L 226.97486 183.944375 
L 227.170585 183.944375 
L 227.170585 183.69315 
L 229.27644 183.69315 
L 229.27644 183.441926 
L 232.194169 183.441926 
L 232.212882 182.939477 
L 232.727446 182.939477 
L 232.727446 182.688253 
L 233.731241 182.688253 
L 233.731241 182.437028 
L 233.862426 182.437028 
L 233.862426 182.185804 
L 236.425156 182.185804 
L 236.425156 181.93458 
L 239.467066 181.93458 
L 239.467066 181.683355 
L 239.876162 181.683355 
L 239.876162 181.432131 
L 241.465954 181.432131 
L 241.465954 181.180906 
L 241.785971 181.180906 
L 241.803348 180.678458 
L 241.967262 180.678458 
L 241.967262 180.427233 
L 242.757413 180.427233 
L 242.757413 180.176009 
L 243.625111 180.176009 
L 243.659037 123.650519 
L 244.62905 123.650519 
L 244.62905 123.399294 
L 244.907733 123.399294 
L 244.907733 123.14807 
L 245.065024 123.14807 
L 245.065024 122.896845 
L 245.410955 122.896845 
L 245.417245 122.394397 
L 245.806329 122.394397 
L 245.806329 122.143172 
L 246.557277 122.143172 
L 246.557277 121.891948 
L 247.219897 121.891948 
L 247.219897 121.640723 
L 247.703087 121.640723 
L 247.703087 121.389499 
L 248.897455 121.389499 
L 248.897455 121.138275 
L 249.630227 121.138275 
L 249.630227 120.88705 
L 251.34579 120.88705 
L 251.34579 120.635826 
L 252.328482 120.635826 
L 252.328482 120.384601 
L 252.865071 120.384601 
L 252.865071 120.133377 
L 253.301046 120.133377 
L 253.301046 119.882153 
L 253.646977 119.882153 
L 253.646977 119.630928 
L 254.042351 119.630928 
L 254.042351 119.379704 
L 254.160805 119.379704 
L 254.160805 119.128479 
L 254.480822 119.128479 
L 254.498199 118.626031 
L 255.079369 118.626031 
L 255.079369 118.374806 
L 255.452264 118.374806 
L 255.452264 118.123582 
L 255.998797 118.123582 
L 255.998797 117.872357 
L 257.133476 117.872357 
L 257.133476 117.621133 
L 257.297487 117.621133 
L 257.297487 117.369908 
L 257.866249 117.369908 
L 257.866249 117.118684 
L 258.112096 117.118684 
L 258.112096 116.86746 
L 259.914748 116.86746 
L 259.914748 116.616235 
L 260.414285 116.616235 
L 260.414285 116.365011 
L 260.564504 116.365011 
L 260.564504 116.113786 
L 261.072848 116.113786 
L 261.072848 115.862562 
L 261.513717 115.862562 
L 261.513717 115.611338 
L 262.022183 115.611338 
L 262.064995 115.108889 
L 262.217907 115.108889 
L 262.217907 114.857664 
L 264.040641 114.857664 
L 264.040641 114.60644 
L 267.77422 114.60644 
L 267.774769 114.103991 
L 268.650307 114.103991 
L 268.693648 113.601542 
L 269.749739 113.601542 
L 269.749739 113.350318 
L 269.992338 113.350318 
L 269.992338 113.099094 
L 270.258205 113.099094 
L 270.258205 112.847869 
L 270.453929 112.847869 
L 270.453929 112.596645 
L 273.767699 112.596645 
L 273.767699 112.34542 
L 274.759846 112.34542 
L 274.759846 112.094196 
L 274.923485 112.094196 
L 274.923485 111.842972 
L 276.01079 111.842972 
L 276.01079 111.591747 
L 283.159506 111.591747 
L 283.159506 111.340523 
L 374.370638 111.340523 
L 374.435801 110.084401 
L 374.746174 110.084401 
L 374.844479 108.074606 
L 375.123782 108.074606 
L 375.173189 107.572157 
L 379.782473 107.572157 
L 379.847636 106.316035 
L 379.91599 106.316035 
L 380.00634 104.30624 
L 380.03893 104.30624 
L 380.141702 102.296444 
L 380.158009 102.296444 
L 380.256315 99.030527 
L 380.270159 99.030527 
L 380.373438 96.267059 
L 380.389832 96.267059 
L 380.487736 93.252366 
L 380.501039 93.252366 
L 380.585024 89.484 
L 380.613121 89.484 
L 380.718542 86.971756 
L 380.726911 86.971756 
L 380.776318 86.469307 
L 380.84897 86.469307 
L 380.91168 85.46441 
L 380.990729 85.46441 
L 381.040136 84.961961 
L 383.417404 84.961961 
L 383.482567 83.705839 
L 383.79294 83.705839 
L 383.891245 81.696044 
L 384.170548 81.696044 
L 384.219955 81.193595 
L 387.970601 81.193595 
L 388.035764 79.937473 
L 388.156114 79.937473 
L 388.266592 76.671556 
L 388.296129 76.671556 
L 388.400392 73.656863 
L 388.418892 73.656863 
L 388.451481 71.647068 
L 388.53165 71.647068 
L 388.629956 68.129926 
L 388.655638 68.129926 
L 388.761854 64.110336 
L 388.773152 64.110336 
L 388.86016 61.095643 
L 388.909258 61.095643 
L 389.003981 59.839521 
L 389.033518 59.839521 
L 389.139463 58.834623 
L 389.18887 58.834623 
L 389.18887 58.583399 
L 392.86247 58.583399 
L 392.927633 57.327277 
L 393.238006 57.327277 
L 393.336312 55.317481 
L 393.615614 55.317481 
L 393.665022 54.815033 
L 453.192 54.815033 
L 453.192 54.815033 
" clip-path="url(#p21e4bbbb3c)" style="fill: none; stroke: #bf00bf; stroke-width: 3; stroke-linecap: square"/>
   </g>
   <g id="line2d_44">
    <path clip-path="url(#p21e4bbbb3c)" style="fill: none; stroke: #bf00bf; stroke-width: 3; stroke-linecap: square"/>
   </g>
   <g id="line2d_45">
    <path d="M 34.16 288.453725 
L 91.775573 288.453725 
L 91.775573 288.202501 
L 92.283871 288.202501 
L 92.283871 287.951277 
L 92.416648 287.951277 
L 92.448582 287.448828 
L 92.617643 287.448828 
L 92.617643 287.197603 
L 92.734571 287.197603 
L 92.734571 286.946379 
L 92.924946 286.946379 
L 92.95688 286.44393 
L 93.125941 286.44393 
L 93.125941 286.192706 
L 93.242869 286.192706 
L 93.242869 285.941481 
L 93.403537 285.941481 
L 93.404407 285.439033 
L 93.720194 285.439033 
L 93.720194 285.187808 
L 93.906891 285.187808 
L 93.912705 284.685359 
L 94.044612 284.685359 
L 94.152749 283.931686 
L 94.228492 283.931686 
L 94.245607 283.429237 
L 94.362535 283.429237 
L 94.362535 283.178013 
L 94.547966 283.178013 
L 94.579901 282.675564 
L 94.661047 282.675564 
L 94.748961 282.173115 
L 94.820407 282.173115 
L 94.865889 281.670667 
L 95.009921 281.670667 
L 95.032371 280.665769 
L 95.272012 280.665769 
L 95.348158 279.912096 
L 95.493637 279.912096 
L 95.574254 278.907198 
L 95.650996 278.907198 
L 95.704895 277.399852 
L 95.78031 277.399852 
L 95.880753 275.641281 
L 95.968919 275.641281 
L 95.990884 274.887608 
L 96.134712 274.887608 
L 96.232504 273.631486 
L 96.247264 273.631486 
L 96.335707 272.877813 
L 96.389051 272.877813 
L 96.452635 271.621691 
L 96.518492 271.621691 
L 96.533252 271.119242 
L 96.638755 271.119242 
L 96.744896 269.611895 
L 96.899977 269.611895 
L 96.976507 268.104549 
L 97.122471 268.104549 
L 97.232289 266.848427 
L 97.253194 266.848427 
L 97.350004 265.843529 
L 97.373411 265.843529 
L 97.450023 263.833734 
L 97.504115 263.833734 
L 97.550999 262.577612 
L 97.659399 262.577612 
L 97.667927 262.075163 
L 97.861405 262.075163 
L 97.951431 259.814144 
L 98.012071 259.814144 
L 98.104142 258.055573 
L 98.179328 258.055573 
L 98.22107 257.3019 
L 98.329235 257.3019 
L 98.37286 256.548227 
L 98.45513 256.548227 
L 98.538472 255.292105 
L 98.569689 255.292105 
L 98.65355 254.035983 
L 98.849164 254.035983 
L 98.890906 253.031085 
L 98.963428 253.031085 
L 99.073043 251.774963 
L 99.077578 251.774963 
L 99.17691 249.765168 
L 99.206693 249.765168 
L 99.206693 249.513943 
L 99.597507 249.513943 
L 99.679435 247.755373 
L 99.745235 247.755373 
L 99.753764 247.252924 
L 99.979244 247.252924 
L 100.083095 246.248026 
L 100.176073 246.248026 
L 100.277124 244.489455 
L 100.306907 244.489455 
L 100.306907 244.238231 
L 100.46296 244.238231 
L 100.543577 243.484558 
L 100.586448 243.484558 
L 100.659789 242.982109 
L 100.716769 242.982109 
L 100.814109 240.972314 
L 101.273587 240.972314 
L 101.367252 239.967416 
L 101.669724 239.967416 
L 101.711443 238.711294 
L 101.866553 238.711294 
L 101.875081 238.208845 
L 102.173195 238.208845 
L 102.253812 236.701499 
L 102.376617 236.701499 
L 102.428224 235.194153 
L 102.860333 235.194153 
L 102.94095 234.440479 
L 103.379959 234.440479 
L 103.388487 233.938031 
L 103.899888 233.938031 
L 103.94163 233.184357 
L 104.067097 233.184357 
L 104.075625 232.681908 
L 104.587026 232.681908 
L 104.628768 231.928235 
L 105.605975 231.928235 
L 105.605975 231.677011 
L 112.953499 231.677011 
L 112.977682 231.174562 
L 115.138111 231.174562 
L 115.138111 230.923338 
L 116.420468 230.923338 
L 116.420468 230.672113 
L 117.315417 230.672113 
L 117.315417 230.420889 
L 119.337647 230.420889 
L 119.337647 230.169664 
L 119.957627 230.169664 
L 119.957627 229.91844 
L 122.485635 229.91844 
L 122.509818 229.415991 
L 125.620558 229.415991 
L 125.620558 229.164767 
L 125.952604 229.164767 
L 125.952604 228.913542 
L 126.847553 228.913542 
L 126.847553 228.662318 
L 128.124871 228.662318 
L 128.124871 228.411094 
L 128.869784 228.411094 
L 128.869784 228.159869 
L 129.336926 228.159869 
L 129.336926 227.908645 
L 129.489763 227.908645 
L 129.489763 227.65742 
L 130.296779 227.65742 
L 130.296779 227.406196 
L 132.635437 227.406196 
L 132.635437 227.154972 
L 133.237374 227.154972 
L 133.237374 226.903747 
L 133.799588 226.903747 
L 133.799588 226.652523 
L 135.152694 226.652523 
L 135.152694 226.401298 
L 137.657007 226.401298 
L 137.657007 226.150074 
L 138.869062 226.150074 
L 138.869062 225.89885 
L 139.828916 225.89885 
L 139.828916 225.647625 
L 142.167573 225.647625 
L 142.167573 225.396401 
L 142.769511 225.396401 
L 142.769511 225.145176 
L 143.331724 225.145176 
L 143.331724 224.893952 
L 147.191193 224.893952 
L 147.191193 224.642728 
L 147.853528 224.642728 
L 147.853528 224.391503 
L 150.837739 224.391503 
L 150.837739 224.140279 
L 151.641219 224.140279 
L 151.641219 223.889054 
L 151.934809 223.889054 
L 151.934809 223.63783 
L 154.538717 223.63783 
L 154.5629 223.135381 
L 155.201052 223.135381 
L 155.225235 222.632932 
L 156.341503 222.632932 
L 156.341503 222.381708 
L 157.168719 222.381708 
L 157.168719 222.130484 
L 158.005686 222.130484 
L 158.05104 221.628035 
L 158.668021 221.628035 
L 158.668021 221.37681 
L 158.900635 221.37681 
L 158.988744 220.874362 
L 159.012926 220.874362 
L 159.012926 220.623137 
L 159.282333 220.623137 
L 159.306516 220.120688 
L 159.56297 220.120688 
L 159.56297 219.869464 
L 160.369876 219.869464 
L 160.369876 219.61824 
L 160.922866 219.61824 
L 160.922866 219.367015 
L 161.542845 219.367015 
L 161.585201 218.864566 
L 162.20518 218.864566 
L 162.20518 218.613342 
L 162.455712 218.613342 
L 162.455712 218.362118 
L 162.749302 218.362118 
L 162.749302 218.110893 
L 163.350662 218.110893 
L 163.350662 217.859669 
L 163.644251 217.859669 
L 163.71321 217.105996 
L 164.516243 217.105996 
L 164.540425 216.603547 
L 165.372892 216.603547 
L 165.422747 215.849874 
L 165.666481 215.849874 
L 165.666481 215.598649 
L 165.992871 215.598649 
L 165.992871 215.347425 
L 166.286461 215.347425 
L 166.286461 215.0962 
L 167.155996 215.0962 
L 167.205776 214.593752 
L 167.868111 214.593752 
L 167.868111 214.342527 
L 167.983211 214.342527 
L 168.050946 213.840078 
L 168.111763 213.840078 
L 168.111763 213.588854 
L 168.865533 213.588854 
L 168.878161 213.086405 
L 169.710089 213.086405 
L 169.760482 212.583956 
L 170.073176 212.583956 
L 170.073176 212.332732 
L 170.372424 212.332732 
L 170.372424 212.081508 
L 170.693155 212.081508 
L 170.693155 211.830283 
L 170.900391 211.830283 
L 170.922144 211.327834 
L 171.52037 211.327834 
L 171.584479 210.825386 
L 171.655802 210.825386 
L 171.655802 210.574161 
L 171.782713 210.574161 
L 171.881998 210.071712 
L 171.949392 210.071712 
L 171.949392 209.820488 
L 172.402692 209.820488 
L 172.402692 209.569264 
L 172.544333 209.569264 
L 172.544333 209.318039 
L 174.160115 209.318039 
L 174.220655 208.81559 
L 174.453705 208.81559 
L 174.453705 208.564366 
L 174.822593 208.564366 
L 174.88299 208.061917 
L 175.37217 208.061917 
L 175.459288 207.308244 
L 175.48347 207.308244 
L 175.484928 206.805795 
L 175.66576 206.805795 
L 175.66576 206.554571 
L 176.047141 206.554571 
L 176.047141 206.303346 
L 176.332024 206.303346 
L 176.356087 205.800898 
L 176.625613 205.800898 
L 176.625613 205.549673 
L 177.183302 205.549673 
L 177.183302 205.298449 
L 178.065623 205.298449 
L 178.065623 205.047224 
L 178.670681 205.047224 
L 178.670681 204.796 
L 178.860399 204.796 
L 178.964271 204.042327 
L 179.272619 204.042327 
L 179.272619 203.791102 
L 179.566208 203.791102 
L 179.566208 203.539878 
L 179.687614 203.539878 
L 179.687614 203.288654 
L 179.821206 203.288654 
L 179.834832 202.786205 
L 180.072454 202.786205 
L 180.128422 202.283756 
L 180.569936 202.283756 
L 180.569936 202.032532 
L 180.899669 202.032532 
L 180.899669 201.781307 
L 181.032308 201.781307 
L 181.032308 201.530083 
L 181.781991 201.530083 
L 181.859523 200.77641 
L 182.463415 200.77641 
L 182.463415 200.525185 
L 182.741845 200.525185 
L 182.741845 200.273961 
L 183.370966 200.273961 
L 183.370966 200.022736 
L 183.972903 200.022736 
L 183.972903 199.771512 
L 184.198181 199.771512 
L 184.198181 199.520288 
L 184.535116 199.520288 
L 184.535116 199.269063 
L 184.800118 199.269063 
L 184.800118 199.017839 
L 185.080502 199.017839 
L 185.080502 198.766614 
L 185.362332 198.766614 
L 185.362332 198.51539 
L 185.68244 198.51539 
L 185.68244 198.264166 
L 186.244653 198.264166 
L 186.244653 198.012941 
L 187.390701 198.012941 
L 187.390701 197.761717 
L 188.126346 197.761717 
L 188.126346 197.510492 
L 190.630659 197.510492 
L 190.630659 197.259268 
L 190.919168 197.259268 
L 190.919168 197.008044 
L 191.842714 197.008044 
L 191.842714 196.756819 
L 192.422958 196.756819 
L 192.422958 196.505595 
L 192.802568 196.505595 
L 192.802568 196.25437 
L 193.085292 196.25437 
L 193.085292 196.003146 
L 194.649612 196.003146 
L 194.738226 195.500697 
L 194.762408 195.500697 
L 194.762408 195.249473 
L 195.141225 195.249473 
L 195.141225 194.998248 
L 195.743163 194.998248 
L 195.743163 194.747024 
L 196.305376 194.747024 
L 196.305376 194.4958 
L 196.872984 194.4958 
L 196.872984 194.244575 
L 197.166573 194.244575 
L 197.166573 193.993351 
L 198.205194 193.993351 
L 198.290875 193.239678 
L 199.100144 193.239678 
L 199.100144 192.988453 
L 201.122374 192.988453 
L 201.122374 192.737229 
L 201.573268 192.737229 
L 201.573268 192.486004 
L 201.733661 192.486004 
L 201.742353 191.983556 
L 201.997136 191.983556 
L 202.021319 191.481107 
L 202.400483 191.481107 
L 202.400483 191.229882 
L 202.62861 191.229882 
L 202.62861 190.978658 
L 203.282805 190.978658 
L 203.282805 190.727434 
L 204.650841 190.727434 
L 204.650841 190.476209 
L 205.27082 190.476209 
L 205.27082 190.224985 
L 205.464105 190.224985 
L 205.464105 189.97376 
L 206.359054 189.97376 
L 206.359054 189.722536 
L 207.405285 189.722536 
L 207.405285 189.471312 
L 208.381285 189.471312 
L 208.381285 189.220087 
L 208.950079 189.220087 
L 209.001264 188.717638 
L 209.909597 188.717638 
L 209.909597 188.466414 
L 210.933751 188.466414 
L 210.933751 188.21519 
L 211.121652 188.21519 
L 211.121652 187.963965 
L 212.081506 187.963965 
L 212.081506 187.712741 
L 213.343528 187.712741 
L 213.438064 187.210292 
L 214.420164 187.210292 
L 214.420164 186.959068 
L 214.650119 186.959068 
L 214.664195 186.456619 
L 215.022101 186.456619 
L 215.022101 186.205394 
L 215.584314 186.205394 
L 215.609973 185.702946 
L 217.168508 185.702946 
L 217.168508 185.451721 
L 217.94863 185.451721 
L 217.94863 185.200497 
L 218.380563 185.200497 
L 218.380563 184.949272 
L 218.550568 184.949272 
L 218.550568 184.698048 
L 219.112781 184.698048 
L 219.112781 184.446824 
L 219.340417 184.446824 
L 219.340417 184.195599 
L 221.498522 184.195599 
L 221.498522 183.944375 
L 221.679074 183.944375 
L 221.679074 183.69315 
L 222.281012 183.69315 
L 222.281012 183.441926 
L 222.843225 183.441926 
L 222.843225 183.190702 
L 229.389106 183.190702 
L 229.431777 182.688253 
L 229.71715 182.688253 
L 229.71715 182.437028 
L 232.622466 182.437028 
L 232.622466 182.185804 
L 235.080488 182.185804 
L 235.080488 181.93458 
L 236.150932 181.93458 
L 236.150932 181.683355 
L 236.288885 181.683355 
L 236.288885 181.432131 
L 236.44929 181.432131 
L 236.466504 180.929682 
L 236.779301 180.929682 
L 236.803484 180.427233 
L 237.327643 180.427233 
L 237.327643 180.176009 
L 239.578441 180.176009 
L 239.578441 179.924784 
L 239.881377 179.924784 
L 239.881377 179.67356 
L 240.24627 179.67356 
L 240.24627 179.422336 
L 241.115718 179.422336 
L 241.141219 178.919887 
L 241.937549 178.919887 
L 241.937549 178.668662 
L 242.201195 178.668662 
L 242.265593 178.166214 
L 243.16345 178.166214 
L 243.16345 177.914989 
L 243.625111 177.914989 
L 243.659037 121.389499 
L 243.783429 121.389499 
L 243.783429 121.138275 
L 244.675167 121.138275 
L 244.69935 120.635826 
L 247.494764 120.635826 
L 247.494764 120.384601 
L 247.628931 120.384601 
L 247.628931 120.133377 
L 248.142136 120.133377 
L 248.142136 119.882153 
L 248.837328 119.882153 
L 248.837328 119.630928 
L 248.997733 119.630928 
L 249.037085 118.877255 
L 249.44636 118.877255 
L 249.44636 118.626031 
L 250.140488 118.626031 
L 250.140488 118.374806 
L 251.059316 118.374806 
L 251.059316 118.123582 
L 251.679295 118.123582 
L 251.679295 117.872357 
L 251.950673 117.872357 
L 251.950673 117.621133 
L 252.126884 117.621133 
L 252.183744 117.118684 
L 253.162728 117.118684 
L 253.162728 116.86746 
L 253.664161 116.86746 
L 253.664161 116.616235 
L 254.122582 116.616235 
L 254.122582 116.365011 
L 254.330172 116.365011 
L 254.330172 116.113786 
L 254.749638 116.113786 
L 254.749638 115.862562 
L 256.011672 115.862562 
L 256.011672 115.611338 
L 256.461239 115.611338 
L 256.461239 115.360113 
L 257.063177 115.360113 
L 257.063177 115.108889 
L 257.342226 115.108889 
L 257.342226 114.857664 
L 257.62539 114.857664 
L 257.62539 114.60644 
L 259.846539 114.60644 
L 259.846539 114.355216 
L 260.043207 114.355216 
L 260.043207 114.103991 
L 261.058594 114.103991 
L 261.058594 113.852767 
L 262.018448 113.852767 
L 262.018448 113.601542 
L 262.688931 113.601542 
L 262.688931 113.350318 
L 264.357105 113.350318 
L 264.357105 113.099094 
L 264.732187 113.099094 
L 264.732187 112.847869 
L 264.959043 112.847869 
L 264.959043 112.596645 
L 265.521256 112.596645 
L 265.521256 112.34542 
L 266.878615 112.34542 
L 266.878615 112.094196 
L 268.560115 112.094196 
L 268.560115 111.842972 
L 274.663542 111.842972 
L 274.663542 111.591747 
L 282.559408 111.591747 
L 282.559408 111.340523 
L 423.196304 111.340523 
L 423.196304 110.838074 
L 423.446815 110.838074 
L 423.446815 110.58685 
L 423.777009 110.58685 
L 423.808539 109.833176 
L 424.188041 109.833176 
L 424.188041 109.581952 
L 424.521841 109.581952 
L 424.601557 108.074606 
L 424.953418 108.074606 
L 424.953418 107.823381 
L 425.274869 107.823381 
L 425.274869 107.572157 
L 425.982757 107.572157 
L 425.982757 107.069708 
L 426.233269 107.069708 
L 426.233269 106.818484 
L 426.563463 106.818484 
L 426.594993 106.06481 
L 426.974495 106.06481 
L 426.974495 105.813586 
L 427.308294 105.813586 
L 427.388011 104.30624 
L 427.739872 104.30624 
L 427.739872 104.055015 
L 428.061323 104.055015 
L 428.061323 103.803791 
L 428.608861 103.803791 
L 428.633991 102.798893 
L 428.859372 102.798893 
L 428.884502 102.296444 
L 429.189566 102.296444 
L 429.246227 100.789098 
L 429.600598 100.789098 
L 429.625728 100.286649 
L 429.934397 100.286649 
L 430.039245 97.271956 
L 430.365975 97.271956 
L 430.391106 96.769508 
L 430.687426 96.769508 
L 430.712557 96.267059 
L 430.983288 96.267059 
L 431.093461 94.257264 
L 431.12981 94.257264 
L 431.2338 91.996244 
L 431.290424 91.996244 
L 431.380321 90.991346 
L 431.409587 90.991346 
L 431.479171 90.237673 
L 431.563994 90.237673 
L 431.674167 87.725429 
L 431.68993 87.725429 
L 431.794514 84.961961 
L 431.809366 84.961961 
L 431.840896 84.208288 
L 431.975026 84.208288 
L 432.085198 83.20339 
L 432.121547 83.20339 
L 432.220398 82.198492 
L 432.308825 82.198492 
L 432.418998 79.435024 
L 432.426407 79.435024 
L 432.535063 73.656863 
L 432.548379 73.656863 
L 432.633914 70.139721 
L 432.740403 70.139721 
L 432.850576 69.134824 
L 432.886924 69.134824 
L 432.985775 68.129926 
L 433.061854 68.129926 
L 433.172027 67.125028 
L 433.208375 67.125028 
L 433.307226 66.120131 
L 433.539731 66.120131 
L 433.642947 64.612784 
L 433.790242 64.612784 
L 433.893458 63.859111 
L 434.120436 63.859111 
L 434.223653 62.10054 
L 434.239416 62.10054 
L 434.255183 61.598092 
L 434.531468 61.598092 
L 434.634685 60.844418 
L 434.865268 60.844418 
L 434.970316 57.578501 
L 435.016303 57.578501 
L 435.048201 56.322379 
L 435.296845 56.322379 
L 435.400062 55.568706 
L 435.618297 55.568706 
L 435.721513 54.815033 
L 453.192 54.815033 
L 453.192 54.815033 
" clip-path="url(#p21e4bbbb3c)" style="fill: none; stroke: #ff0000; stroke-width: 3; stroke-linecap: square"/>
   </g>
   <g id="line2d_46">
    <path clip-path="url(#p21e4bbbb3c)" style="fill: none; stroke: #ff0000; stroke-width: 3; stroke-linecap: square"/>
   </g>
   <g id="line2d_47">
    <path d="M 243.676 291.28 
L 243.676 3 
" clip-path="url(#p21e4bbbb3c)" style="fill: none; stroke: #000000; stroke-width: 1.5; stroke-linecap: square"/>
   </g>
   <g id="line2d_48">
    <path d="M 34.16 147.14 
L 453.192 147.14 
" clip-path="url(#p21e4bbbb3c)" style="fill: none; stroke-dasharray: 2,3.3; stroke-dashoffset: 0; stroke: #000000; stroke-width: 2"/>
   </g>
   <g id="patch_3">
    <path d="M 34.16 291.28 
L 34.16 3 
" style="fill: none; stroke: #000000; stroke-width: 0.8; stroke-linejoin: miter; stroke-linecap: square"/>
   </g>
   <g id="patch_4">
    <path d="M 453.192 291.28 
L 453.192 3 
" style="fill: none; stroke: #000000; stroke-width: 0.8; stroke-linejoin: miter; stroke-linecap: square"/>
   </g>
   <g id="patch_5">
    <path d="M 34.16 291.28 
L 453.192 291.28 
" style="fill: none; stroke: #000000; stroke-width: 0.8; stroke-linejoin: miter; stroke-linecap: square"/>
   </g>
   <g id="patch_6">
    <path d="M 34.16 3 
L 453.192 3 
" style="fill: none; stroke: #000000; stroke-width: 0.8; stroke-linejoin: miter; stroke-linecap: square"/>
   </g>
   <g id="text_6">
    <!-- f1-f5,20-D -->
    <g transform="translate(343.64261 285.5144)scale(0.2 -0.2)">
     <defs>
      <path id="DejaVuSans-35" d="M 691 4666 
L 3169 4666 
L 3169 4134 
L 1269 4134 
L 1269 2991 
Q 1406 3038 1543 3061 
Q 1681 3084 1819 3084 
Q 2600 3084 3056 2656 
Q 3513 2228 3513 1497 
Q 3513 744 3044 326 
Q 2575 -91 1722 -91 
Q 1428 -91 1123 -41 
Q 819 9 494 109 
L 494 744 
Q 775 591 1075 516 
Q 1375 441 1709 441 
Q 2250 441 2565 725 
Q 2881 1009 2881 1497 
Q 2881 1984 2565 2268 
Q 2250 2553 1709 2553 
Q 1456 2553 1204 2497 
Q 953 2441 691 2322 
L 691 4666 
z
" transform="scale(0.015625)"/>
      <path id="DejaVuSans-2c" d="M 750 794 
L 1409 794 
L 1409 256 
L 897 -744 
L 494 -744 
L 750 256 
L 750 794 
z
" transform="scale(0.015625)"/>
      <path id="DejaVuSans-32" d="M 1228 531 
L 3431 531 
L 3431 0 
L 469 0 
L 469 531 
Q 828 903 1448 1529 
Q 2069 2156 2228 2338 
Q 2531 2678 2651 2914 
Q 2772 3150 2772 3378 
Q 2772 3750 2511 3984 
Q 2250 4219 1831 4219 
Q 1534 4219 1204 4116 
Q 875 4013 500 3803 
L 500 4441 
Q 881 4594 1212 4672 
Q 1544 4750 1819 4750 
Q 2544 4750 2975 4387 
Q 3406 4025 3406 3419 
Q 3406 3131 3298 2873 
Q 3191 2616 2906 2266 
Q 2828 2175 2409 1742 
Q 1991 1309 1228 531 
z
" transform="scale(0.015625)"/>
      <path id="DejaVuSans-44" d="M 1259 4147 
L 1259 519 
L 2022 519 
Q 2988 519 3436 956 
Q 3884 1394 3884 2338 
Q 3884 3275 3436 3711 
Q 2988 4147 2022 4147 
L 1259 4147 
z
M 628 4666 
L 1925 4666 
Q 3281 4666 3915 4102 
Q 4550 3538 4550 2338 
Q 4550 1131 3912 565 
Q 3275 0 1925 0 
L 628 0 
L 628 4666 
z
" transform="scale(0.015625)"/>
     </defs>
     <use xlink:href="#DejaVuSans-66"/>
     <use xlink:href="#DejaVuSans-31" x="35.205078"/>
     <use xlink:href="#DejaVuSans-2d" x="98.828125"/>
     <use xlink:href="#DejaVuSans-66" x="134.912109"/>
     <use xlink:href="#DejaVuSans-35" x="170.117188"/>
     <use xlink:href="#DejaVuSans-2c" x="233.740234"/>
     <use xlink:href="#DejaVuSans-32" x="265.527344"/>
     <use xlink:href="#DejaVuSans-30" x="329.150391"/>
     <use xlink:href="#DejaVuSans-2d" x="392.773438"/>
     <use xlink:href="#DejaVuSans-44" x="428.857422"/>
    </g>
   </g>
   <g id="text_7">
    <!-- v2.6.3 -->
    <g style="fill: #808080" transform="translate(227.99475 286.317512)scale(0.1 -0.1)">
     <defs>
      <path id="DejaVuSans-2e" d="M 684 794 
L 1344 794 
L 1344 0 
L 684 0 
L 684 794 
z
" transform="scale(0.015625)"/>
      <path id="DejaVuSans-36" d="M 2113 2584 
Q 1688 2584 1439 2293 
Q 1191 2003 1191 1497 
Q 1191 994 1439 701 
Q 1688 409 2113 409 
Q 2538 409 2786 701 
Q 3034 994 3034 1497 
Q 3034 2003 2786 2293 
Q 2538 2584 2113 2584 
z
M 3366 4563 
L 3366 3988 
Q 3128 4100 2886 4159 
Q 2644 4219 2406 4219 
Q 1781 4219 1451 3797 
Q 1122 3375 1075 2522 
Q 1259 2794 1537 2939 
Q 1816 3084 2150 3084 
Q 2853 3084 3261 2657 
Q 3669 2231 3669 1497 
Q 3669 778 3244 343 
Q 2819 -91 2113 -91 
Q 1303 -91 875 529 
Q 447 1150 447 2328 
Q 447 3434 972 4092 
Q 1497 4750 2381 4750 
Q 2619 4750 2861 4703 
Q 3103 4656 3366 4563 
z
" transform="scale(0.015625)"/>
      <path id="DejaVuSans-33" d="M 2597 2516 
Q 3050 2419 3304 2112 
Q 3559 1806 3559 1356 
Q 3559 666 3084 287 
Q 2609 -91 1734 -91 
Q 1441 -91 1130 -33 
Q 819 25 488 141 
L 488 750 
Q 750 597 1062 519 
Q 1375 441 1716 441 
Q 2309 441 2620 675 
Q 2931 909 2931 1356 
Q 2931 1769 2642 2001 
Q 2353 2234 1838 2234 
L 1294 2234 
L 1294 2753 
L 1863 2753 
Q 2328 2753 2575 2939 
Q 2822 3125 2822 3475 
Q 2822 3834 2567 4026 
Q 2313 4219 1838 4219 
Q 1578 4219 1281 4162 
Q 984 4106 628 3988 
L 628 4550 
Q 988 4650 1302 4700 
Q 1616 4750 1894 4750 
Q 2613 4750 3031 4423 
Q 3450 4097 3450 3541 
Q 3450 3153 3228 2886 
Q 3006 2619 2597 2516 
z
" transform="scale(0.015625)"/>
     </defs>
     <use xlink:href="#DejaVuSans-76"/>
     <use xlink:href="#DejaVuSans-32" x="59.179688"/>
     <use xlink:href="#DejaVuSans-2e" x="122.802734"/>
     <use xlink:href="#DejaVuSans-36" x="154.589844"/>
     <use xlink:href="#DejaVuSans-2e" x="218.212891"/>
     <use xlink:href="#DejaVuSans-33" x="250"/>
    </g>
   </g>
   <g id="legend_1">
    <g id="patch_7">
     <path d="M 48.16 136.425 
L 177.381875 136.425 
Q 181.381875 136.425 181.381875 132.425 
L 181.381875 17 
Q 181.381875 13 177.381875 13 
L 48.16 13 
Q 44.16 13 44.16 17 
L 44.16 132.425 
Q 44.16 136.425 48.16 136.425 
z
" style="fill: #ffffff; opacity: 0.2; stroke: #cccccc; stroke-linejoin: miter"/>
    </g>
    <g id="line2d_49">
     <path d="M 52.16 29.196875 
L 72.16 29.196875 
L 92.16 29.196875 
" style="fill: none; stroke: #000000; stroke-width: 3; stroke-linecap: square"/>
    </g>
    <g id="text_8">
     <!-- 1: 5/5 -->
     <g transform="translate(108.16 36.196875)scale(0.2 -0.2)">
      <defs>
       <path id="DejaVuSans-3a" d="M 750 794 
L 1409 794 
L 1409 0 
L 750 0 
L 750 794 
z
M 750 3309 
L 1409 3309 
L 1409 2516 
L 750 2516 
L 750 3309 
z
" transform="scale(0.015625)"/>
       <path id="DejaVuSans-2f" d="M 1625 4666 
L 2156 4666 
L 531 -594 
L 0 -594 
L 1625 4666 
z
" transform="scale(0.015625)"/>
      </defs>
      <use xlink:href="#DejaVuSans-31"/>
      <use xlink:href="#DejaVuSans-3a" x="63.623047"/>
      <use xlink:href="#DejaVuSans-20" x="97.314453"/>
      <use xlink:href="#DejaVuSans-35" x="129.101562"/>
      <use xlink:href="#DejaVuSans-2f" x="192.724609"/>
      <use xlink:href="#DejaVuSans-35" x="226.416016"/>
     </g>
    </g>
    <g id="line2d_50">
     <path d="M 52.16 58.553125 
L 72.16 58.553125 
L 92.16 58.553125 
" style="fill: none; stroke: #00bfbf; stroke-width: 3; stroke-linecap: square"/>
    </g>
    <g id="text_9">
     <!-- -1: 5/5 -->
     <g transform="translate(108.16 65.553125)scale(0.2 -0.2)">
      <use xlink:href="#DejaVuSans-2d"/>
      <use xlink:href="#DejaVuSans-31" x="36.083984"/>
      <use xlink:href="#DejaVuSans-3a" x="99.707031"/>
      <use xlink:href="#DejaVuSans-20" x="133.398438"/>
      <use xlink:href="#DejaVuSans-35" x="165.185547"/>
      <use xlink:href="#DejaVuSans-2f" x="228.808594"/>
      <use xlink:href="#DejaVuSans-35" x="262.5"/>
     </g>
    </g>
    <g id="line2d_51">
     <path d="M 52.16 87.909375 
L 72.16 87.909375 
L 92.16 87.909375 
" style="fill: none; stroke: #bf00bf; stroke-width: 3; stroke-linecap: square"/>
    </g>
    <g id="text_10">
     <!-- -4: 5/5 -->
     <g transform="translate(108.16 94.909375)scale(0.2 -0.2)">
      <defs>
       <path id="DejaVuSans-34" d="M 2419 4116 
L 825 1625 
L 2419 1625 
L 2419 4116 
z
M 2253 4666 
L 3047 4666 
L 3047 1625 
L 3713 1625 
L 3713 1100 
L 3047 1100 
L 3047 0 
L 2419 0 
L 2419 1100 
L 313 1100 
L 313 1709 
L 2253 4666 
z
" transform="scale(0.015625)"/>
      </defs>
      <use xlink:href="#DejaVuSans-2d"/>
      <use xlink:href="#DejaVuSans-34" x="36.083984"/>
      <use xlink:href="#DejaVuSans-3a" x="99.707031"/>
      <use xlink:href="#DejaVuSans-20" x="133.398438"/>
      <use xlink:href="#DejaVuSans-35" x="165.185547"/>
      <use xlink:href="#DejaVuSans-2f" x="228.808594"/>
      <use xlink:href="#DejaVuSans-35" x="262.5"/>
     </g>
    </g>
    <g id="line2d_52">
     <path d="M 52.16 117.265625 
L 72.16 117.265625 
L 92.16 117.265625 
" style="fill: none; stroke: #ff0000; stroke-width: 3; stroke-linecap: square"/>
    </g>
    <g id="text_11">
     <!-- -8: 5/5 -->
     <g transform="translate(108.16 124.265625)scale(0.2 -0.2)">
      <defs>
       <path id="DejaVuSans-38" d="M 2034 2216 
Q 1584 2216 1326 1975 
Q 1069 1734 1069 1313 
Q 1069 891 1326 650 
Q 1584 409 2034 409 
Q 2484 409 2743 651 
Q 3003 894 3003 1313 
Q 3003 1734 2745 1975 
Q 2488 2216 2034 2216 
z
M 1403 2484 
Q 997 2584 770 2862 
Q 544 3141 544 3541 
Q 544 4100 942 4425 
Q 1341 4750 2034 4750 
Q 2731 4750 3128 4425 
Q 3525 4100 3525 3541 
Q 3525 3141 3298 2862 
Q 3072 2584 2669 2484 
Q 3125 2378 3379 2068 
Q 3634 1759 3634 1313 
Q 3634 634 3220 271 
Q 2806 -91 2034 -91 
Q 1263 -91 848 271 
Q 434 634 434 1313 
Q 434 1759 690 2068 
Q 947 2378 1403 2484 
z
M 1172 3481 
Q 1172 3119 1398 2916 
Q 1625 2713 2034 2713 
Q 2441 2713 2670 2916 
Q 2900 3119 2900 3481 
Q 2900 3844 2670 4047 
Q 2441 4250 2034 4250 
Q 1625 4250 1398 4047 
Q 1172 3844 1172 3481 
z
" transform="scale(0.015625)"/>
      </defs>
      <use xlink:href="#DejaVuSans-2d"/>
      <use xlink:href="#DejaVuSans-38" x="36.083984"/>
      <use xlink:href="#DejaVuSans-3a" x="99.707031"/>
      <use xlink:href="#DejaVuSans-20" x="133.398438"/>
      <use xlink:href="#DejaVuSans-35" x="165.185547"/>
      <use xlink:href="#DejaVuSans-2f" x="228.808594"/>
      <use xlink:href="#DejaVuSans-35" x="262.5"/>
     </g>
    </g>
   </g>
  </g>
 </g>
 <defs>
  <clipPath id="p21e4bbbb3c">
   <rect x="34.16" y="3" width="419.032" height="288.28"/>
  </clipPath>
 </defs>
</svg>
