<?xml version="1.0" encoding="utf-8" standalone="no"?>
<!DOCTYPE svg PUBLIC "-//W3C//DTD SVG 1.1//EN"
  "http://www.w3.org/Graphics/SVG/1.1/DTD/svg11.dtd">
<svg xmlns:xlink="http://www.w3.org/1999/xlink" width="460.8pt" height="345.6pt" viewBox="0 0 460.8 345.6" xmlns="http://www.w3.org/2000/svg" version="1.1">
 <metadata>
  <rdf:RDF xmlns:dc="http://purl.org/dc/elements/1.1/" xmlns:cc="http://creativecommons.org/ns#" xmlns:rdf="http://www.w3.org/1999/02/22-rdf-syntax-ns#">
   <cc:Work>
    <dc:type rdf:resource="http://purl.org/dc/dcmitype/StillImage"/>
    <dc:date>2024-06-19T19:28:23.978048</dc:date>
    <dc:format>image/svg+xml</dc:format>
    <dc:creator>
     <cc:Agent>
      <dc:title>Matplotlib v3.5.2, https://matplotlib.org/</dc:title>
     </cc:Agent>
    </dc:creator>
   </cc:Work>
  </rdf:RDF>
 </metadata>
 <defs>
  <style type="text/css">*{stroke-linejoin: round; stroke-linecap: butt}</style>
 </defs>
 <g id="figure_1">
  <g id="patch_1">
   <path d="M 0 345.6 
L 460.8 345.6 
L 460.8 0 
L 0 0 
z
" style="fill: #ffffff"/>
  </g>
  <g id="axes_1">
   <g id="patch_2">
    <path d="M 34.16 291.28 
L 453.192 291.28 
L 453.192 3 
L 34.16 3 
z
" style="fill: #ffffff"/>
   </g>
   <g id="matplotlib.axis_1">
    <g id="xtick_1">
     <g id="line2d_1">
      <path d="M 137.933225 291.28 
L 137.933225 3 
" clip-path="url(#p7afb0b5b73)" style="fill: none; stroke: #b0b0b0; stroke-width: 0.8; stroke-linecap: square"/>
     </g>
     <g id="line2d_2">
      <defs>
       <path id="m936eee7d09" d="M 0 0 
L 0 3.5 
" style="stroke: #000000; stroke-width: 0.8"/>
      </defs>
      <g>
       <use xlink:href="#m936eee7d09" x="137.933225" y="291.28" style="stroke: #000000; stroke-width: 0.8"/>
      </g>
     </g>
     <g id="text_1">
      <!-- -1 -->
      <g transform="translate(127.962913 313.476875)scale(0.2 -0.2)">
       <defs>
        <path id="DejaVuSans-2d" d="M 313 2009 
L 1997 2009 
L 1997 1497 
L 313 1497 
L 313 2009 
z
" transform="scale(0.015625)"/>
        <path id="DejaVuSans-31" d="M 794 531 
L 1825 531 
L 1825 4091 
L 703 3866 
L 703 4441 
L 1819 4666 
L 2450 4666 
L 2450 531 
L 3481 531 
L 3481 0 
L 794 0 
L 794 531 
z
" transform="scale(0.015625)"/>
       </defs>
       <use xlink:href="#DejaVuSans-2d"/>
       <use xlink:href="#DejaVuSans-31" x="36.083984"/>
      </g>
     </g>
    </g>
    <g id="xtick_2">
     <g id="line2d_3">
      <path d="M 243.676 291.28 
L 243.676 3 
" clip-path="url(#p7afb0b5b73)" style="fill: none; stroke: #b0b0b0; stroke-width: 0.8; stroke-linecap: square"/>
     </g>
     <g id="line2d_4">
      <g>
       <use xlink:href="#m936eee7d09" x="243.676" y="291.28" style="stroke: #000000; stroke-width: 0.8"/>
      </g>
     </g>
     <g id="text_2">
      <!-- 0 -->
      <g transform="translate(237.3135 313.476875)scale(0.2 -0.2)">
       <defs>
        <path id="DejaVuSans-30" d="M 2034 4250 
Q 1547 4250 1301 3770 
Q 1056 3291 1056 2328 
Q 1056 1369 1301 889 
Q 1547 409 2034 409 
Q 2525 409 2770 889 
Q 3016 1369 3016 2328 
Q 3016 3291 2770 3770 
Q 2525 4250 2034 4250 
z
M 2034 4750 
Q 2819 4750 3233 4129 
Q 3647 3509 3647 2328 
Q 3647 1150 3233 529 
Q 2819 -91 2034 -91 
Q 1250 -91 836 529 
Q 422 1150 422 2328 
Q 422 3509 836 4129 
Q 1250 4750 2034 4750 
z
" transform="scale(0.015625)"/>
       </defs>
       <use xlink:href="#DejaVuSans-30"/>
      </g>
     </g>
    </g>
    <g id="xtick_3">
     <g id="line2d_5">
      <path d="M 349.418775 291.28 
L 349.418775 3 
" clip-path="url(#p7afb0b5b73)" style="fill: none; stroke: #b0b0b0; stroke-width: 0.8; stroke-linecap: square"/>
     </g>
     <g id="line2d_6">
      <g>
       <use xlink:href="#m936eee7d09" x="349.418775" y="291.28" style="stroke: #000000; stroke-width: 0.8"/>
      </g>
     </g>
     <g id="text_3">
      <!-- 1 -->
      <g transform="translate(343.056275 313.476875)scale(0.2 -0.2)">
       <use xlink:href="#DejaVuSans-31"/>
      </g>
     </g>
    </g>
    <g id="xtick_4">
     <g id="line2d_7">
      <defs>
       <path id="md2c9ce2ecf" d="M 0 0 
L 0 2 
" style="stroke: #000000; stroke-width: 0.6"/>
      </defs>
      <g>
       <use xlink:href="#md2c9ce2ecf" x="64.022198" y="291.28" style="stroke: #000000; stroke-width: 0.6"/>
      </g>
     </g>
    </g>
    <g id="xtick_5">
     <g id="line2d_8">
      <g>
       <use xlink:href="#md2c9ce2ecf" x="82.642576" y="291.28" style="stroke: #000000; stroke-width: 0.6"/>
      </g>
     </g>
    </g>
    <g id="xtick_6">
     <g id="line2d_9">
      <g>
       <use xlink:href="#md2c9ce2ecf" x="95.853945" y="291.28" style="stroke: #000000; stroke-width: 0.6"/>
      </g>
     </g>
    </g>
    <g id="xtick_7">
     <g id="line2d_10">
      <g>
       <use xlink:href="#md2c9ce2ecf" x="106.101478" y="291.28" style="stroke: #000000; stroke-width: 0.6"/>
      </g>
     </g>
    </g>
    <g id="xtick_8">
     <g id="line2d_11">
      <g>
       <use xlink:href="#md2c9ce2ecf" x="114.474323" y="291.28" style="stroke: #000000; stroke-width: 0.6"/>
      </g>
     </g>
    </g>
    <g id="xtick_9">
     <g id="line2d_12">
      <g>
       <use xlink:href="#md2c9ce2ecf" x="121.553462" y="291.28" style="stroke: #000000; stroke-width: 0.6"/>
      </g>
     </g>
    </g>
    <g id="xtick_10">
     <g id="line2d_13">
      <g>
       <use xlink:href="#md2c9ce2ecf" x="127.685692" y="291.28" style="stroke: #000000; stroke-width: 0.6"/>
      </g>
     </g>
    </g>
    <g id="xtick_11">
     <g id="line2d_14">
      <g>
       <use xlink:href="#md2c9ce2ecf" x="133.094701" y="291.28" style="stroke: #000000; stroke-width: 0.6"/>
      </g>
     </g>
    </g>
    <g id="xtick_12">
     <g id="line2d_15">
      <g>
       <use xlink:href="#md2c9ce2ecf" x="169.764972" y="291.28" style="stroke: #000000; stroke-width: 0.6"/>
      </g>
     </g>
    </g>
    <g id="xtick_13">
     <g id="line2d_16">
      <g>
       <use xlink:href="#md2c9ce2ecf" x="188.385351" y="291.28" style="stroke: #000000; stroke-width: 0.6"/>
      </g>
     </g>
    </g>
    <g id="xtick_14">
     <g id="line2d_17">
      <g>
       <use xlink:href="#md2c9ce2ecf" x="201.596719" y="291.28" style="stroke: #000000; stroke-width: 0.6"/>
      </g>
     </g>
    </g>
    <g id="xtick_15">
     <g id="line2d_18">
      <g>
       <use xlink:href="#md2c9ce2ecf" x="211.844253" y="291.28" style="stroke: #000000; stroke-width: 0.6"/>
      </g>
     </g>
    </g>
    <g id="xtick_16">
     <g id="line2d_19">
      <g>
       <use xlink:href="#md2c9ce2ecf" x="220.217098" y="291.28" style="stroke: #000000; stroke-width: 0.6"/>
      </g>
     </g>
    </g>
    <g id="xtick_17">
     <g id="line2d_20">
      <g>
       <use xlink:href="#md2c9ce2ecf" x="227.296237" y="291.28" style="stroke: #000000; stroke-width: 0.6"/>
      </g>
     </g>
    </g>
    <g id="xtick_18">
     <g id="line2d_21">
      <g>
       <use xlink:href="#md2c9ce2ecf" x="233.428466" y="291.28" style="stroke: #000000; stroke-width: 0.6"/>
      </g>
     </g>
    </g>
    <g id="xtick_19">
     <g id="line2d_22">
      <g>
       <use xlink:href="#md2c9ce2ecf" x="238.837476" y="291.28" style="stroke: #000000; stroke-width: 0.6"/>
      </g>
     </g>
    </g>
    <g id="xtick_20">
     <g id="line2d_23">
      <g>
       <use xlink:href="#md2c9ce2ecf" x="275.507747" y="291.28" style="stroke: #000000; stroke-width: 0.6"/>
      </g>
     </g>
    </g>
    <g id="xtick_21">
     <g id="line2d_24">
      <g>
       <use xlink:href="#md2c9ce2ecf" x="294.128125" y="291.28" style="stroke: #000000; stroke-width: 0.6"/>
      </g>
     </g>
    </g>
    <g id="xtick_22">
     <g id="line2d_25">
      <g>
       <use xlink:href="#md2c9ce2ecf" x="307.339494" y="291.28" style="stroke: #000000; stroke-width: 0.6"/>
      </g>
     </g>
    </g>
    <g id="xtick_23">
     <g id="line2d_26">
      <g>
       <use xlink:href="#md2c9ce2ecf" x="317.587028" y="291.28" style="stroke: #000000; stroke-width: 0.6"/>
      </g>
     </g>
    </g>
    <g id="xtick_24">
     <g id="line2d_27">
      <g>
       <use xlink:href="#md2c9ce2ecf" x="325.959872" y="291.28" style="stroke: #000000; stroke-width: 0.6"/>
      </g>
     </g>
    </g>
    <g id="xtick_25">
     <g id="line2d_28">
      <g>
       <use xlink:href="#md2c9ce2ecf" x="333.039012" y="291.28" style="stroke: #000000; stroke-width: 0.6"/>
      </g>
     </g>
    </g>
    <g id="xtick_26">
     <g id="line2d_29">
      <g>
       <use xlink:href="#md2c9ce2ecf" x="339.171241" y="291.28" style="stroke: #000000; stroke-width: 0.6"/>
      </g>
     </g>
    </g>
    <g id="xtick_27">
     <g id="line2d_30">
      <g>
       <use xlink:href="#md2c9ce2ecf" x="344.580251" y="291.28" style="stroke: #000000; stroke-width: 0.6"/>
      </g>
     </g>
    </g>
    <g id="xtick_28">
     <g id="line2d_31">
      <g>
       <use xlink:href="#md2c9ce2ecf" x="381.250522" y="291.28" style="stroke: #000000; stroke-width: 0.6"/>
      </g>
     </g>
    </g>
    <g id="xtick_29">
     <g id="line2d_32">
      <g>
       <use xlink:href="#md2c9ce2ecf" x="399.8709" y="291.28" style="stroke: #000000; stroke-width: 0.6"/>
      </g>
     </g>
    </g>
    <g id="xtick_30">
     <g id="line2d_33">
      <g>
       <use xlink:href="#md2c9ce2ecf" x="413.082268" y="291.28" style="stroke: #000000; stroke-width: 0.6"/>
      </g>
     </g>
    </g>
    <g id="xtick_31">
     <g id="line2d_34">
      <g>
       <use xlink:href="#md2c9ce2ecf" x="423.329802" y="291.28" style="stroke: #000000; stroke-width: 0.6"/>
      </g>
     </g>
    </g>
    <g id="xtick_32">
     <g id="line2d_35">
      <g>
       <use xlink:href="#md2c9ce2ecf" x="431.702647" y="291.28" style="stroke: #000000; stroke-width: 0.6"/>
      </g>
     </g>
    </g>
    <g id="xtick_33">
     <g id="line2d_36">
      <g>
       <use xlink:href="#md2c9ce2ecf" x="438.781786" y="291.28" style="stroke: #000000; stroke-width: 0.6"/>
      </g>
     </g>
    </g>
    <g id="xtick_34">
     <g id="line2d_37">
      <g>
       <use xlink:href="#md2c9ce2ecf" x="444.914015" y="291.28" style="stroke: #000000; stroke-width: 0.6"/>
      </g>
     </g>
    </g>
    <g id="xtick_35">
     <g id="line2d_38">
      <g>
       <use xlink:href="#md2c9ce2ecf" x="450.323025" y="291.28" style="stroke: #000000; stroke-width: 0.6"/>
      </g>
     </g>
    </g>
    <g id="text_4">
     <!-- log10 of FEvals ratio -->
     <g transform="translate(141.371312 336.833125)scale(0.2 -0.2)">
      <defs>
       <path id="DejaVuSans-6c" d="M 603 4863 
L 1178 4863 
L 1178 0 
L 603 0 
L 603 4863 
z
" transform="scale(0.015625)"/>
       <path id="DejaVuSans-6f" d="M 1959 3097 
Q 1497 3097 1228 2736 
Q 959 2375 959 1747 
Q 959 1119 1226 758 
Q 1494 397 1959 397 
Q 2419 397 2687 759 
Q 2956 1122 2956 1747 
Q 2956 2369 2687 2733 
Q 2419 3097 1959 3097 
z
M 1959 3584 
Q 2709 3584 3137 3096 
Q 3566 2609 3566 1747 
Q 3566 888 3137 398 
Q 2709 -91 1959 -91 
Q 1206 -91 779 398 
Q 353 888 353 1747 
Q 353 2609 779 3096 
Q 1206 3584 1959 3584 
z
" transform="scale(0.015625)"/>
       <path id="DejaVuSans-67" d="M 2906 1791 
Q 2906 2416 2648 2759 
Q 2391 3103 1925 3103 
Q 1463 3103 1205 2759 
Q 947 2416 947 1791 
Q 947 1169 1205 825 
Q 1463 481 1925 481 
Q 2391 481 2648 825 
Q 2906 1169 2906 1791 
z
M 3481 434 
Q 3481 -459 3084 -895 
Q 2688 -1331 1869 -1331 
Q 1566 -1331 1297 -1286 
Q 1028 -1241 775 -1147 
L 775 -588 
Q 1028 -725 1275 -790 
Q 1522 -856 1778 -856 
Q 2344 -856 2625 -561 
Q 2906 -266 2906 331 
L 2906 616 
Q 2728 306 2450 153 
Q 2172 0 1784 0 
Q 1141 0 747 490 
Q 353 981 353 1791 
Q 353 2603 747 3093 
Q 1141 3584 1784 3584 
Q 2172 3584 2450 3431 
Q 2728 3278 2906 2969 
L 2906 3500 
L 3481 3500 
L 3481 434 
z
" transform="scale(0.015625)"/>
       <path id="DejaVuSans-20" transform="scale(0.015625)"/>
       <path id="DejaVuSans-66" d="M 2375 4863 
L 2375 4384 
L 1825 4384 
Q 1516 4384 1395 4259 
Q 1275 4134 1275 3809 
L 1275 3500 
L 2222 3500 
L 2222 3053 
L 1275 3053 
L 1275 0 
L 697 0 
L 697 3053 
L 147 3053 
L 147 3500 
L 697 3500 
L 697 3744 
Q 697 4328 969 4595 
Q 1241 4863 1831 4863 
L 2375 4863 
z
" transform="scale(0.015625)"/>
       <path id="DejaVuSans-46" d="M 628 4666 
L 3309 4666 
L 3309 4134 
L 1259 4134 
L 1259 2759 
L 3109 2759 
L 3109 2228 
L 1259 2228 
L 1259 0 
L 628 0 
L 628 4666 
z
" transform="scale(0.015625)"/>
       <path id="DejaVuSans-45" d="M 628 4666 
L 3578 4666 
L 3578 4134 
L 1259 4134 
L 1259 2753 
L 3481 2753 
L 3481 2222 
L 1259 2222 
L 1259 531 
L 3634 531 
L 3634 0 
L 628 0 
L 628 4666 
z
" transform="scale(0.015625)"/>
       <path id="DejaVuSans-76" d="M 191 3500 
L 800 3500 
L 1894 563 
L 2988 3500 
L 3597 3500 
L 2284 0 
L 1503 0 
L 191 3500 
z
" transform="scale(0.015625)"/>
       <path id="DejaVuSans-61" d="M 2194 1759 
Q 1497 1759 1228 1600 
Q 959 1441 959 1056 
Q 959 750 1161 570 
Q 1363 391 1709 391 
Q 2188 391 2477 730 
Q 2766 1069 2766 1631 
L 2766 1759 
L 2194 1759 
z
M 3341 1997 
L 3341 0 
L 2766 0 
L 2766 531 
Q 2569 213 2275 61 
Q 1981 -91 1556 -91 
Q 1019 -91 701 211 
Q 384 513 384 1019 
Q 384 1609 779 1909 
Q 1175 2209 1959 2209 
L 2766 2209 
L 2766 2266 
Q 2766 2663 2505 2880 
Q 2244 3097 1772 3097 
Q 1472 3097 1187 3025 
Q 903 2953 641 2809 
L 641 3341 
Q 956 3463 1253 3523 
Q 1550 3584 1831 3584 
Q 2591 3584 2966 3190 
Q 3341 2797 3341 1997 
z
" transform="scale(0.015625)"/>
       <path id="DejaVuSans-73" d="M 2834 3397 
L 2834 2853 
Q 2591 2978 2328 3040 
Q 2066 3103 1784 3103 
Q 1356 3103 1142 2972 
Q 928 2841 928 2578 
Q 928 2378 1081 2264 
Q 1234 2150 1697 2047 
L 1894 2003 
Q 2506 1872 2764 1633 
Q 3022 1394 3022 966 
Q 3022 478 2636 193 
Q 2250 -91 1575 -91 
Q 1294 -91 989 -36 
Q 684 19 347 128 
L 347 722 
Q 666 556 975 473 
Q 1284 391 1588 391 
Q 1994 391 2212 530 
Q 2431 669 2431 922 
Q 2431 1156 2273 1281 
Q 2116 1406 1581 1522 
L 1381 1569 
Q 847 1681 609 1914 
Q 372 2147 372 2553 
Q 372 3047 722 3315 
Q 1072 3584 1716 3584 
Q 2034 3584 2315 3537 
Q 2597 3491 2834 3397 
z
" transform="scale(0.015625)"/>
       <path id="DejaVuSans-72" d="M 2631 2963 
Q 2534 3019 2420 3045 
Q 2306 3072 2169 3072 
Q 1681 3072 1420 2755 
Q 1159 2438 1159 1844 
L 1159 0 
L 581 0 
L 581 3500 
L 1159 3500 
L 1159 2956 
Q 1341 3275 1631 3429 
Q 1922 3584 2338 3584 
Q 2397 3584 2469 3576 
Q 2541 3569 2628 3553 
L 2631 2963 
z
" transform="scale(0.015625)"/>
       <path id="DejaVuSans-74" d="M 1172 4494 
L 1172 3500 
L 2356 3500 
L 2356 3053 
L 1172 3053 
L 1172 1153 
Q 1172 725 1289 603 
Q 1406 481 1766 481 
L 2356 481 
L 2356 0 
L 1766 0 
Q 1100 0 847 248 
Q 594 497 594 1153 
L 594 3053 
L 172 3053 
L 172 3500 
L 594 3500 
L 594 4494 
L 1172 4494 
z
" transform="scale(0.015625)"/>
       <path id="DejaVuSans-69" d="M 603 3500 
L 1178 3500 
L 1178 0 
L 603 0 
L 603 3500 
z
M 603 4863 
L 1178 4863 
L 1178 4134 
L 603 4134 
L 603 4863 
z
" transform="scale(0.015625)"/>
      </defs>
      <use xlink:href="#DejaVuSans-6c"/>
      <use xlink:href="#DejaVuSans-6f" x="27.783203"/>
      <use xlink:href="#DejaVuSans-67" x="88.964844"/>
      <use xlink:href="#DejaVuSans-31" x="152.441406"/>
      <use xlink:href="#DejaVuSans-30" x="216.064453"/>
      <use xlink:href="#DejaVuSans-20" x="279.6875"/>
      <use xlink:href="#DejaVuSans-6f" x="311.474609"/>
      <use xlink:href="#DejaVuSans-66" x="372.65625"/>
      <use xlink:href="#DejaVuSans-20" x="407.861328"/>
      <use xlink:href="#DejaVuSans-46" x="439.648438"/>
      <use xlink:href="#DejaVuSans-45" x="497.167969"/>
      <use xlink:href="#DejaVuSans-76" x="560.351562"/>
      <use xlink:href="#DejaVuSans-61" x="619.53125"/>
      <use xlink:href="#DejaVuSans-6c" x="680.810547"/>
      <use xlink:href="#DejaVuSans-73" x="708.59375"/>
      <use xlink:href="#DejaVuSans-20" x="760.693359"/>
      <use xlink:href="#DejaVuSans-72" x="792.480469"/>
      <use xlink:href="#DejaVuSans-61" x="833.59375"/>
      <use xlink:href="#DejaVuSans-74" x="894.873047"/>
      <use xlink:href="#DejaVuSans-69" x="934.082031"/>
      <use xlink:href="#DejaVuSans-6f" x="961.865234"/>
     </g>
    </g>
   </g>
   <g id="matplotlib.axis_2">
    <g id="ytick_1">
     <g id="line2d_39">
      <path d="M 34.16 288.453725 
L 453.192 288.453725 
" clip-path="url(#p7afb0b5b73)" style="fill: none; stroke: #b0b0b0; stroke-width: 0.8; stroke-linecap: square"/>
     </g>
     <g id="line2d_40">
      <defs>
       <path id="m4f331fff89" d="M 0 0 
L -3.5 0 
" style="stroke: #000000; stroke-width: 0.8"/>
      </defs>
      <g>
       <use xlink:href="#m4f331fff89" x="34.16" y="288.453725" style="stroke: #000000; stroke-width: 0.8"/>
      </g>
     </g>
    </g>
    <g id="ytick_2">
     <g id="line2d_41">
      <path d="M 34.16 217.796863 
L 453.192 217.796863 
" clip-path="url(#p7afb0b5b73)" style="fill: none; stroke: #b0b0b0; stroke-width: 0.8; stroke-linecap: square"/>
     </g>
     <g id="line2d_42">
      <g>
       <use xlink:href="#m4f331fff89" x="34.16" y="217.796863" style="stroke: #000000; stroke-width: 0.8"/>
      </g>
     </g>
    </g>
    <g id="ytick_3">
     <g id="line2d_43">
      <path d="M 34.16 147.14 
L 453.192 147.14 
" clip-path="url(#p7afb0b5b73)" style="fill: none; stroke: #b0b0b0; stroke-width: 0.8; stroke-linecap: square"/>
     </g>
     <g id="line2d_44">
      <g>
       <use xlink:href="#m4f331fff89" x="34.16" y="147.14" style="stroke: #000000; stroke-width: 0.8"/>
      </g>
     </g>
    </g>
    <g id="ytick_4">
     <g id="line2d_45">
      <path d="M 34.16 76.483137 
L 453.192 76.483137 
" clip-path="url(#p7afb0b5b73)" style="fill: none; stroke: #b0b0b0; stroke-width: 0.8; stroke-linecap: square"/>
     </g>
     <g id="line2d_46">
      <g>
       <use xlink:href="#m4f331fff89" x="34.16" y="76.483137" style="stroke: #000000; stroke-width: 0.8"/>
      </g>
     </g>
    </g>
    <g id="ytick_5">
     <g id="line2d_47">
      <path d="M 34.16 5.826275 
L 453.192 5.826275 
" clip-path="url(#p7afb0b5b73)" style="fill: none; stroke: #b0b0b0; stroke-width: 0.8; stroke-linecap: square"/>
     </g>
     <g id="line2d_48">
      <g>
       <use xlink:href="#m4f331fff89" x="34.16" y="5.826275" style="stroke: #000000; stroke-width: 0.8"/>
      </g>
     </g>
    </g>
    <g id="text_5">
     <!-- proportion of trials -->
     <g transform="translate(19.000625 240.14625)rotate(-90)scale(0.2 -0.2)">
      <defs>
       <path id="DejaVuSans-70" d="M 1159 525 
L 1159 -1331 
L 581 -1331 
L 581 3500 
L 1159 3500 
L 1159 2969 
Q 1341 3281 1617 3432 
Q 1894 3584 2278 3584 
Q 2916 3584 3314 3078 
Q 3713 2572 3713 1747 
Q 3713 922 3314 415 
Q 2916 -91 2278 -91 
Q 1894 -91 1617 61 
Q 1341 213 1159 525 
z
M 3116 1747 
Q 3116 2381 2855 2742 
Q 2594 3103 2138 3103 
Q 1681 3103 1420 2742 
Q 1159 2381 1159 1747 
Q 1159 1113 1420 752 
Q 1681 391 2138 391 
Q 2594 391 2855 752 
Q 3116 1113 3116 1747 
z
" transform="scale(0.015625)"/>
       <path id="DejaVuSans-6e" d="M 3513 2113 
L 3513 0 
L 2938 0 
L 2938 2094 
Q 2938 2591 2744 2837 
Q 2550 3084 2163 3084 
Q 1697 3084 1428 2787 
Q 1159 2491 1159 1978 
L 1159 0 
L 581 0 
L 581 3500 
L 1159 3500 
L 1159 2956 
Q 1366 3272 1645 3428 
Q 1925 3584 2291 3584 
Q 2894 3584 3203 3211 
Q 3513 2838 3513 2113 
z
" transform="scale(0.015625)"/>
      </defs>
      <use xlink:href="#DejaVuSans-70"/>
      <use xlink:href="#DejaVuSans-72" x="63.476562"/>
      <use xlink:href="#DejaVuSans-6f" x="102.339844"/>
      <use xlink:href="#DejaVuSans-70" x="163.521484"/>
      <use xlink:href="#DejaVuSans-6f" x="226.998047"/>
      <use xlink:href="#DejaVuSans-72" x="288.179688"/>
      <use xlink:href="#DejaVuSans-74" x="329.292969"/>
      <use xlink:href="#DejaVuSans-69" x="368.501953"/>
      <use xlink:href="#DejaVuSans-6f" x="396.285156"/>
      <use xlink:href="#DejaVuSans-6e" x="457.466797"/>
      <use xlink:href="#DejaVuSans-20" x="520.845703"/>
      <use xlink:href="#DejaVuSans-6f" x="552.632812"/>
      <use xlink:href="#DejaVuSans-66" x="613.814453"/>
      <use xlink:href="#DejaVuSans-20" x="649.019531"/>
      <use xlink:href="#DejaVuSans-74" x="680.806641"/>
      <use xlink:href="#DejaVuSans-72" x="720.015625"/>
      <use xlink:href="#DejaVuSans-69" x="761.128906"/>
      <use xlink:href="#DejaVuSans-61" x="788.912109"/>
      <use xlink:href="#DejaVuSans-6c" x="850.191406"/>
      <use xlink:href="#DejaVuSans-73" x="877.974609"/>
     </g>
    </g>
   </g>
   <g id="line2d_49">
    <path d="M 34.16 288.453725 
L 79.108256 288.453725 
L 79.108256 287.951277 
L 83.104123 287.951277 
L 83.104123 287.448828 
L 95.853945 287.448828 
L 95.853945 286.946379 
L 103.860863 286.946379 
L 103.860863 285.941481 
L 116.349012 285.941481 
L 116.349012 285.439033 
L 125.884539 285.439033 
L 125.884539 284.936584 
L 129.560381 284.936584 
L 129.560381 284.685359 
L 133.556248 284.685359 
L 133.556248 284.434135 
L 137.933225 284.434135 
L 137.933225 283.931686 
L 146.30607 283.931686 
L 146.30607 283.680462 
L 148.180759 283.680462 
L 148.180759 283.178013 
L 153.019283 283.178013 
L 153.019283 282.926789 
L 154.312988 282.926789 
L 154.312988 282.42434 
L 157.01515 282.42434 
L 157.01515 282.173115 
L 166.801137 282.173115 
L 166.801137 281.921891 
L 168.471267 281.921891 
L 168.471267 281.419442 
L 169.764972 281.419442 
L 169.764972 281.168218 
L 172.467134 281.168218 
L 172.467134 280.665769 
L 174.603496 280.665769 
L 174.603496 280.414545 
L 176.336665 280.414545 
L 176.336665 280.16332 
L 177.771891 280.16332 
L 177.771891 279.660871 
L 178.599364 279.660871 
L 178.599364 279.409647 
L 180.012506 279.409647 
L 180.012506 278.404749 
L 183.725638 278.404749 
L 183.725638 278.153525 
L 184.85103 278.153525 
L 184.85103 277.651076 
L 185.081746 277.651076 
L 185.081746 277.399852 
L 185.216956 277.399852 
L 185.216956 276.897403 
L 188.385351 276.897403 
L 188.385351 276.646179 
L 188.846897 276.646179 
L 188.846897 276.14373 
L 189.228007 276.14373 
L 189.228007 275.892505 
L 190.26004 275.892505 
L 190.26004 275.641281 
L 191.349186 275.641281 
L 191.349186 275.390057 
L 193.223875 275.390057 
L 193.223875 273.631486 
L 198.632884 273.631486 
L 198.632884 273.380261 
L 199.356104 273.380261 
L 199.356104 272.877813 
L 199.795567 272.877813 
L 199.795567 272.626588 
L 201.596719 272.626588 
L 201.596719 272.124139 
L 205.511746 272.124139 
L 205.511746 271.872915 
L 205.712024 271.872915 
L 205.712024 271.370466 
L 205.973697 271.370466 
L 205.973697 271.119242 
L 206.867854 271.119242 
L 206.867854 270.868017 
L 207.848386 270.868017 
L 207.848386 270.616793 
L 208.691844 270.616793 
L 208.691844 270.365569 
L 209.204493 270.365569 
L 209.219338 269.611895 
L 209.536438 269.611895 
L 209.603638 268.355773 
L 210.100917 268.355773 
L 210.100917 268.104549 
L 211.382064 268.104549 
L 211.382064 267.853325 
L 211.623573 267.853325 
L 211.623573 267.6021 
L 211.844253 267.6021 
L 211.844253 266.094754 
L 212.098793 266.094754 
L 212.098793 265.843529 
L 212.266233 265.843529 
L 212.266233 265.592305 
L 212.507742 265.592305 
L 212.507742 265.341081 
L 212.857746 265.341081 
L 212.874655 264.838632 
L 213.088698 264.838632 
L 213.088698 264.587407 
L 213.215206 264.587407 
L 213.215206 264.336183 
L 213.758824 264.336183 
L 213.788605 263.833734 
L 213.980615 263.833734 
L 213.980615 263.331285 
L 214.204224 263.331285 
L 214.264108 262.828837 
L 214.389736 262.828837 
L 214.389736 262.577612 
L 214.505617 262.577612 
L 214.505617 262.326388 
L 214.791169 262.326388 
L 214.87317 261.823939 
L 215.001231 261.823939 
L 215.088393 261.070266 
L 215.13349 261.070266 
L 215.156255 260.567817 
L 215.247551 260.567817 
L 215.273905 259.311695 
L 215.495522 259.311695 
L 215.495522 259.060471 
L 215.685755 259.060471 
L 215.757339 258.055573 
L 215.8854 258.055573 
L 215.953921 257.553124 
L 216.017659 257.553124 
L 216.040424 257.050675 
L 216.19543 257.050675 
L 216.19543 256.799451 
L 216.337376 256.799451 
L 216.337376 256.548227 
L 216.515652 256.548227 
L 216.574424 255.794553 
L 216.746604 255.794553 
L 216.746604 255.543329 
L 216.956484 255.543329 
L 216.956484 255.292105 
L 217.086268 255.292105 
L 217.086268 255.04088 
L 217.197993 255.04088 
L 217.27178 254.538431 
L 217.446512 254.538431 
L 217.446512 254.287207 
L 217.755214 254.287207 
L 217.845221 253.784758 
L 217.883275 253.784758 
L 217.883275 253.533534 
L 218.015534 253.533534 
L 218.076173 252.528636 
L 218.261685 252.528636 
L 218.335323 251.774963 
L 218.386068 251.774963 
L 218.449075 251.272514 
L 218.514167 251.272514 
L 218.572299 250.518841 
L 218.642228 250.518841 
L 218.745119 250.016392 
L 218.774487 250.016392 
L 218.87318 249.011495 
L 218.961593 249.011495 
L 219.028204 248.257821 
L 219.197589 248.257821 
L 219.197589 248.006597 
L 219.326753 248.006597 
L 219.331252 247.504148 
L 219.445027 247.504148 
L 219.445027 247.252924 
L 219.557705 247.252924 
L 219.573088 246.499251 
L 219.705347 246.499251 
L 219.778644 245.745577 
L 219.964156 245.745577 
L 219.964156 245.494353 
L 220.257612 245.494353 
L 220.262112 244.991904 
L 220.44759 244.991904 
L 220.551384 244.238231 
L 220.575651 244.238231 
L 220.575651 243.987007 
L 220.70791 243.987007 
L 220.792893 242.982109 
L 221.031727 242.982109 
L 221.031727 242.730885 
L 221.195464 242.730885 
L 221.264675 241.977211 
L 221.37978 241.977211 
L 221.37978 241.725987 
L 221.628609 241.725987 
L 221.64158 240.972314 
L 221.954417 240.972314 
L 222.043975 240.218641 
L 222.091787 240.218641 
L 222.185369 239.213743 
L 222.387834 239.213743 
L 222.387834 238.962519 
L 222.512778 238.962519 
L 222.520685 238.46007 
L 222.885277 238.46007 
L 222.993415 237.706397 
L 223.116535 237.706397 
L 223.116535 237.455172 
L 223.241531 237.455172 
L 223.322798 236.952723 
L 223.373544 236.952723 
L 223.373544 236.701499 
L 223.50831 236.701499 
L 223.559056 236.19905 
L 223.88784 236.19905 
L 223.991744 235.696601 
L 224.010609 235.696601 
L 224.119805 234.942928 
L 224.170551 234.942928 
L 224.274829 234.189255 
L 224.30281 234.189255 
L 224.325575 233.686806 
L 224.510654 233.686806 
L 224.597639 232.933133 
L 224.80433 232.933133 
L 224.859575 231.928235 
L 225.110013 231.928235 
L 225.110013 231.677011 
L 225.269607 231.677011 
L 225.351522 230.672113 
L 225.500559 230.672113 
L 225.523359 229.91844 
L 225.777384 229.91844 
L 225.777384 229.667216 
L 225.965028 229.667216 
L 225.965028 229.415991 
L 226.200466 229.415991 
L 226.208373 228.913542 
L 226.468764 228.913542 
L 226.468764 228.662318 
L 226.602603 228.662318 
L 226.602603 228.411094 
L 226.774441 228.411094 
L 226.774441 228.159869 
L 227.20303 228.159869 
L 227.296237 227.154972 
L 227.431994 227.154972 
L 227.48274 226.652523 
L 227.570054 226.652523 
L 227.635764 226.150074 
L 227.719623 226.150074 
L 227.719623 225.89885 
L 227.932173 225.89885 
L 227.932173 225.647625 
L 228.10401 225.647625 
L 228.117685 224.893952 
L 228.289522 224.893952 
L 228.316652 224.391503 
L 228.550202 224.391503 
L 228.601119 223.889054 
L 228.683648 223.889054 
L 228.772956 222.632932 
L 228.861439 222.632932 
L 228.901017 221.879259 
L 229.030302 221.879259 
L 229.056041 220.874362 
L 229.314813 220.874362 
L 229.418204 220.120688 
L 229.561781 220.120688 
L 229.590041 219.367015 
L 229.73537 219.367015 
L 229.801079 218.864566 
L 229.976879 218.864566 
L 230.042588 218.362118 
L 230.207017 218.362118 
L 230.207017 218.110893 
L 230.464631 218.110893 
L 230.477952 217.35722 
L 230.632097 217.35722 
L 230.666648 216.603547 
L 230.747183 216.603547 
L 230.805836 215.347425 
L 231.115063 215.347425 
L 231.21445 214.593752 
L 231.227961 214.593752 
L 231.322546 213.588854 
L 231.437126 213.588854 
L 231.455959 213.086405 
L 231.627314 213.086405 
L 231.627314 212.583956 
L 231.821771 212.583956 
L 231.821771 212.332732 
L 232.041369 212.332732 
L 232.041369 212.081508 
L 232.213206 212.081508 
L 232.213206 211.830283 
L 232.55753 211.830283 
L 232.623239 211.327834 
L 232.688208 211.327834 
L 232.743042 210.322937 
L 232.808751 210.322937 
L 232.814592 209.820488 
L 232.987849 209.820488 
L 232.987849 209.569264 
L 233.226476 209.569264 
L 233.292185 209.066815 
L 233.352992 209.066815 
L 233.428466 208.061917 
L 233.486796 208.061917 
L 233.57527 207.05702 
L 233.659186 207.05702 
L 233.659707 206.554571 
L 233.874737 206.554571 
L 233.971946 205.298449 
L 233.987852 205.298449 
L 234.043561 204.042327 
L 234.104771 204.042327 
L 234.203289 203.288654 
L 234.222122 203.288654 
L 234.239627 202.53498 
L 234.686723 202.53498 
L 234.705556 202.032532 
L 234.814784 202.032532 
L 234.865985 201.278858 
L 234.947043 201.278858 
L 234.988641 200.273961 
L 235.152125 200.273961 
L 235.196232 199.771512 
L 235.339687 199.771512 
L 235.392855 198.51539 
L 235.499309 198.51539 
L 235.580483 196.25437 
L 235.78651 196.25437 
L 235.78651 196.003146 
L 235.936301 196.003146 
L 236.004291 194.998248 
L 236.104379 194.998248 
L 236.214573 194.4958 
L 236.21782 194.4958 
L 236.237801 193.490902 
L 236.378476 193.490902 
L 236.419266 192.988453 
L 236.55234 192.988453 
L 236.589125 192.486004 
L 236.666726 192.486004 
L 236.743449 191.732331 
L 236.863056 191.732331 
L 236.863056 191.481107 
L 237.024855 191.481107 
L 237.125975 190.978658 
L 237.214609 190.978658 
L 237.31865 190.224985 
L 237.456214 190.224985 
L 237.543771 189.220087 
L 237.593908 189.220087 
L 237.593908 188.968863 
L 237.771102 188.968863 
L 237.850496 188.466414 
L 237.920319 188.466414 
L 237.94096 187.963965 
L 238.126973 187.963965 
L 238.145806 187.461516 
L 238.380963 187.461516 
L 238.47781 186.959068 
L 239.386691 186.959068 
L 239.386691 186.707843 
L 239.629292 186.707843 
L 239.629292 186.456619 
L 239.981915 186.456619 
L 240.065894 185.200497 
L 240.123478 185.200497 
L 240.123478 184.949272 
L 240.263702 184.949272 
L 240.357983 184.446824 
L 240.459549 184.446824 
L 240.487175 183.944375 
L 240.63324 183.944375 
L 240.742798 182.939477 
L 240.896473 182.939477 
L 240.944027 182.437028 
L 241.026224 182.437028 
L 241.051515 181.93458 
L 241.33294 181.93458 
L 241.442163 180.678458 
L 241.450069 180.678458 
L 241.554726 179.422336 
L 241.589263 179.422336 
L 241.589263 179.171111 
L 241.71409 179.171111 
L 241.774606 178.668662 
L 241.832518 178.668662 
L 241.929649 177.663765 
L 241.969128 177.663765 
L 242.044857 176.407643 
L 242.182421 176.407643 
L 242.186292 175.905194 
L 242.31262 175.905194 
L 242.419842 174.900296 
L 242.438512 174.900296 
L 242.497309 174.146623 
L 242.574884 174.146623 
L 242.667167 172.639277 
L 242.700515 172.639277 
L 242.779451 172.136828 
L 242.82701 172.136828 
L 242.890964 171.13193 
L 242.973076 171.13193 
L 243.060822 169.624584 
L 243.094338 169.624584 
L 243.204017 168.368462 
L 243.264197 168.368462 
L 243.365255 167.11234 
L 243.379382 167.11234 
L 243.48293 166.107442 
L 243.497746 166.107442 
L 243.597672 165.353769 
L 243.652789 165.353769 
L 243.676 163.595198 
L 243.801047 163.595198 
L 243.801047 163.343974 
L 243.948544 163.343974 
L 244.039353 162.087852 
L 244.189639 162.087852 
L 244.209906 161.334179 
L 244.513908 161.334179 
L 244.621054 160.580505 
L 244.640682 160.580505 
L 244.691565 159.826832 
L 244.882438 159.826832 
L 244.989938 158.821935 
L 244.999218 158.821935 
L 245.109011 157.314588 
L 245.203622 157.314588 
L 245.300653 156.812139 
L 245.33412 156.812139 
L 245.438564 155.807242 
L 245.471206 155.807242 
L 245.522213 154.55112 
L 245.659188 154.55112 
L 245.72901 153.797447 
L 245.829742 153.797447 
L 245.899564 153.294998 
L 245.997932 153.294998 
L 246.005979 152.792549 
L 246.159826 152.792549 
L 246.267326 151.787651 
L 246.460095 151.787651 
L 246.518361 151.285203 
L 246.577397 151.285203 
L 246.625862 150.029081 
L 246.695684 150.029081 
L 246.783513 149.275407 
L 246.842526 149.275407 
L 246.884112 148.521734 
L 247.0314 148.521734 
L 247.142049 147.265612 
L 247.177682 147.265612 
L 247.282569 146.260715 
L 247.313083 146.260715 
L 247.373405 145.507041 
L 247.450647 145.507041 
L 247.543458 144.250919 
L 247.563492 144.250919 
L 247.671867 143.497246 
L 247.678226 143.497246 
L 247.765535 142.743573 
L 247.812092 142.743573 
L 247.850472 141.9899 
L 247.935394 141.9899 
L 248.035564 140.985002 
L 248.052977 140.985002 
L 248.130678 139.477656 
L 248.176214 139.477656 
L 248.207737 138.472758 
L 248.300536 138.472758 
L 248.344292 137.970309 
L 248.437393 137.970309 
L 248.534347 136.965412 
L 248.558 136.965412 
L 248.65918 135.70929 
L 248.695565 135.70929 
L 248.702425 134.955617 
L 248.829038 134.955617 
L 248.925058 134.201943 
L 249.010452 134.201943 
L 249.117849 132.945821 
L 249.144102 132.945821 
L 249.187172 131.940924 
L 249.279574 131.940924 
L 249.365888 131.438475 
L 249.56088 131.438475 
L 249.652006 130.684802 
L 249.717161 130.684802 
L 249.792231 129.42868 
L 249.900132 129.42868 
L 249.975732 128.675007 
L 250.015703 128.675007 
L 250.121797 128.172558 
L 250.161768 128.172558 
L 250.272005 127.670109 
L 250.41223 127.670109 
L 250.442559 126.916436 
L 250.582783 126.916436 
L 250.636993 126.162763 
L 250.744494 126.162763 
L 250.806256 125.409089 
L 250.952321 125.409089 
L 250.952321 125.157865 
L 251.079088 125.157865 
L 251.177031 124.152967 
L 251.238679 124.152967 
L 251.347709 123.14807 
L 251.378904 123.14807 
L 251.378904 122.896845 
L 251.494875 122.896845 
L 251.602376 121.891948 
L 251.619409 121.891948 
L 251.677407 120.88705 
L 251.748441 120.88705 
L 251.852954 119.882153 
L 251.869042 119.882153 
L 251.895091 119.379704 
L 251.992295 119.379704 
L 252.034914 118.877255 
L 252.118563 118.877255 
L 252.180979 118.123582 
L 252.239954 118.123582 
L 252.264628 117.621133 
L 252.581959 117.621133 
L 252.609146 117.118684 
L 252.699004 117.118684 
L 252.771911 116.113786 
L 253.059026 116.113786 
L 253.130342 115.360113 
L 253.471453 115.360113 
L 253.558699 114.103991 
L 253.641505 114.103991 
L 253.641505 113.852767 
L 253.923534 113.852767 
L 254.033211 112.094196 
L 254.180121 112.094196 
L 254.220093 111.591747 
L 254.391747 111.591747 
L 254.461569 111.089298 
L 254.522127 111.089298 
L 254.562098 110.58685 
L 254.692179 110.58685 
L 254.732151 110.084401 
L 254.840092 110.084401 
L 254.840092 109.833176 
L 254.999193 109.833176 
L 255.039165 109.079503 
L 255.182097 109.079503 
L 255.182097 108.828279 
L 255.35215 108.828279 
L 255.352651 108.32583 
L 255.522703 108.32583 
L 255.522703 108.074606 
L 255.659164 108.074606 
L 255.699265 107.572157 
L 255.806766 107.572157 
L 255.829717 107.069708 
L 255.995622 107.069708 
L 256.04127 106.567259 
L 256.148771 106.567259 
L 256.239303 105.813586 
L 256.318823 105.813586 
L 256.322953 105.311137 
L 256.518337 105.311137 
L 256.625837 104.557464 
L 256.664958 104.557464 
L 256.751361 104.055015 
L 256.827963 104.055015 
L 256.83501 103.552566 
L 257.058375 103.552566 
L 257.142024 103.050118 
L 257.607509 103.050118 
L 257.717456 102.547669 
L 258.101694 102.547669 
L 258.101694 102.296444 
L 258.241919 102.296444 
L 258.300511 101.793996 
L 258.465391 101.793996 
L 258.510378 101.291547 
L 258.611456 101.291547 
L 258.611456 101.040322 
L 258.76813 101.040322 
L 258.808102 100.537874 
L 259.004564 100.537874 
L 259.004564 100.286649 
L 259.144788 100.286649 
L 259.144788 100.035425 
L 259.368261 100.035425 
L 259.428101 99.532976 
L 259.514326 99.532976 
L 259.598654 99.030527 
L 259.901306 99.030527 
L 259.99728 98.528078 
L 260.162438 98.528078 
L 260.162438 98.276854 
L 260.287274 98.276854 
L 260.394775 97.523181 
L 260.827312 97.523181 
L 260.910962 97.020732 
L 261.007032 97.020732 
L 261.007032 96.769508 
L 261.198141 96.769508 
L 261.204007 96.267059 
L 261.991061 96.267059 
L 262.048601 95.76461 
L 262.296378 95.76461 
L 262.296378 95.262161 
L 262.669781 95.262161 
L 262.669781 95.010937 
L 262.835655 95.010937 
L 262.835655 94.759712 
L 263.011786 94.759712 
L 263.083472 94.257264 
L 263.181839 94.257264 
L 263.181839 94.006039 
L 263.488853 94.006039 
L 263.57265 93.50359 
L 263.914656 93.50359 
L 263.966508 93.001142 
L 264.084708 93.001142 
L 264.097531 92.498693 
L 264.352897 92.498693 
L 264.391722 91.996244 
L 265.197491 91.996244 
L 265.293277 91.493795 
L 265.324188 91.493795 
L 265.324188 91.242571 
L 265.97222 91.242571 
L 265.97222 90.991346 
L 266.168782 90.991346 
L 266.168782 90.740122 
L 266.300017 90.740122 
L 266.397596 90.237673 
L 266.798724 90.237673 
L 266.798724 89.986449 
L 266.975353 89.986449 
L 266.975353 89.735224 
L 267.134902 89.735224 
L 267.182839 89.232776 
L 267.25779 89.232776 
L 267.25779 88.981551 
L 267.643318 88.981551 
L 267.643318 88.730327 
L 267.819947 88.730327 
L 267.819947 88.479102 
L 267.962375 88.479102 
L 268.044308 87.976654 
L 268.160659 87.976654 
L 268.231152 87.474205 
L 268.636656 87.474205 
L 268.734236 86.971756 
L 269.075746 86.971756 
L 269.075746 86.720532 
L 269.375518 86.720532 
L 269.375518 85.715634 
L 269.519479 85.715634 
L 269.52627 85.213185 
L 270.810744 85.213185 
L 270.810744 84.961961 
L 272.104449 84.961961 
L 272.104449 84.459512 
L 272.865196 84.459512 
L 272.865196 84.208288 
L 274.395254 84.208288 
L 274.395254 83.957063 
L 274.806611 83.957063 
L 274.806611 83.705839 
L 275.201835 83.705839 
L 275.201835 83.454614 
L 275.507747 83.454614 
L 275.507747 82.700941 
L 275.756871 82.700941 
L 275.756871 82.449717 
L 276.731893 82.449717 
L 276.731893 82.198492 
L 277.247978 82.198492 
L 277.247978 81.947268 
L 277.439087 81.947268 
L 277.439087 81.696044 
L 278.093511 81.696044 
L 278.093511 81.444819 
L 278.289547 81.444819 
L 278.291842 80.94237 
L 279.076601 80.94237 
L 279.076601 80.691146 
L 280.712197 80.691146 
L 280.712197 80.439922 
L 281.438437 80.439922 
L 281.438437 80.188697 
L 281.687414 80.188697 
L 281.783388 79.686248 
L 281.819997 79.686248 
L 281.917577 79.1838 
L 282.409729 79.1838 
L 282.409729 78.932575 
L 282.586886 78.932575 
L 282.586886 78.430126 
L 282.702819 78.430126 
L 282.702819 78.178902 
L 283.884264 78.178902 
L 283.884264 77.927678 
L 284.024053 77.927678 
L 284.127381 76.671556 
L 284.592598 76.671556 
L 284.592598 76.420331 
L 284.779355 76.420331 
L 284.88406 75.917882 
L 284.912624 75.917882 
L 284.912624 75.666658 
L 285.316692 75.666658 
L 285.316692 75.415434 
L 285.755281 75.415434 
L 285.755281 73.908087 
L 286.135463 73.908087 
L 286.135463 73.656863 
L 287.556433 73.656863 
L 287.556433 73.154414 
L 288.385176 73.154414 
L 288.385176 72.90319 
L 288.719116 72.90319 
L 288.719116 72.149516 
L 289.915234 72.149516 
L 289.915234 71.898292 
L 290.132258 71.898292 
L 290.132258 71.395843 
L 290.594981 71.395843 
L 290.594981 71.144619 
L 291.276852 71.144619 
L 291.312378 70.64217 
L 292.125038 70.64217 
L 292.125038 70.390946 
L 293.486656 70.390946 
L 293.494271 69.888497 
L 293.649017 69.888497 
L 293.649017 69.637272 
L 294.128125 69.637272 
L 294.128125 69.134824 
L 295.563352 69.134824 
L 295.563352 68.632375 
L 295.830911 68.632375 
L 295.830911 68.38115 
L 295.984502 68.38115 
L 296.082082 67.878702 
L 296.175612 67.878702 
L 296.273191 67.376253 
L 296.867325 67.376253 
L 296.867325 67.125028 
L 297.026071 67.125028 
L 297.123651 66.371355 
L 297.207394 66.371355 
L 297.303368 65.868906 
L 297.803967 65.868906 
L 297.910705 64.864009 
L 298.695948 64.864009 
L 298.798475 64.36156 
L 298.966649 64.36156 
L 298.966649 63.859111 
L 299.417199 63.859111 
L 299.513173 63.356662 
L 300.15031 63.356662 
L 300.174961 62.854214 
L 300.272541 62.854214 
L 300.272541 62.602989 
L 301.057784 62.602989 
L 301.146253 61.346867 
L 301.207265 61.346867 
L 301.243833 59.839521 
L 301.568328 59.839521 
L 301.568328 59.588296 
L 302.029075 59.588296 
L 302.029075 59.337072 
L 302.340062 59.337072 
L 302.340062 59.085847 
L 302.48695 59.085847 
L 302.549682 58.583399 
L 302.620789 58.583399 
L 302.718368 57.829725 
L 302.740791 57.829725 
L 302.797418 57.076052 
L 302.894997 57.076052 
L 302.894997 56.824828 
L 303.343627 56.824828 
L 303.343627 56.573603 
L 303.503611 56.573603 
L 303.591251 56.071155 
L 303.68024 56.071155 
L 303.68024 55.81993 
L 304.053217 55.81993 
L 304.150796 55.066257 
L 304.270849 55.066257 
L 304.378305 54.563808 
L 304.876517 54.563808 
L 304.936039 54.061359 
L 305.121308 54.061359 
L 305.121308 53.810135 
L 305.270172 53.810135 
L 305.270172 53.558911 
L 305.441357 53.558911 
L 305.473547 53.056462 
L 305.632467 53.056462 
L 305.707097 52.554013 
L 305.862139 52.554013 
L 305.908363 52.051564 
L 306.176811 52.051564 
L 306.176811 51.80034 
L 306.482926 51.80034 
L 306.482926 51.549115 
L 306.670168 51.549115 
L 306.74014 51.046667 
L 306.817229 51.046667 
L 306.872532 50.292993 
L 307.213157 50.292993 
L 307.311415 49.53932 
L 307.339494 49.53932 
L 307.339494 49.036871 
L 307.451639 49.036871 
L 307.451639 48.785647 
L 307.606812 48.785647 
L 307.711432 48.031974 
L 307.810187 48.031974 
L 307.821177 47.529525 
L 308.043736 47.529525 
L 308.0515 47.027076 
L 308.198778 47.027076 
L 308.270198 46.273403 
L 309.006807 46.273403 
L 309.042163 45.770954 
L 309.185968 45.770954 
L 309.24149 45.268505 
L 309.362597 45.268505 
L 309.362597 45.017281 
L 309.631816 45.017281 
L 309.631816 44.766057 
L 309.745561 44.766057 
L 309.745561 44.514832 
L 310.123589 44.514832 
L 310.144744 43.761159 
L 310.509887 43.761159 
L 310.618396 42.756261 
L 310.716026 42.756261 
L 310.816602 42.002588 
L 310.892655 42.002588 
L 310.892655 41.751364 
L 311.038388 41.751364 
L 311.038388 41.500139 
L 311.3719 41.500139 
L 311.467874 40.495242 
L 311.504213 40.495242 
L 311.563009 39.992793 
L 311.658983 39.992793 
L 311.658983 39.741569 
L 311.879501 39.741569 
L 311.879501 39.490344 
L 312.077643 39.490344 
L 312.148454 38.987895 
L 312.221507 38.987895 
L 312.254273 38.485447 
L 312.391559 38.485447 
L 312.481383 37.731773 
L 312.509443 37.731773 
L 312.509443 37.480549 
L 312.698573 37.480549 
L 312.698573 37.229325 
L 312.846526 37.229325 
L 312.950574 36.726876 
L 313.153242 36.726876 
L 313.200523 36.224427 
L 313.296497 36.224427 
L 313.375028 35.470754 
L 313.510072 35.470754 
L 313.547604 34.968305 
L 313.7263 34.968305 
L 313.781154 34.214632 
L 313.936196 34.214632 
L 313.936196 33.963407 
L 314.371504 33.963407 
L 314.371504 33.712183 
L 315.562359 33.712183 
L 315.658332 33.209734 
L 316.424345 33.209734 
L 316.53365 32.456061 
L 316.629624 32.456061 
L 316.708143 31.953612 
L 316.808417 31.953612 
L 316.808417 31.702388 
L 317.587028 31.702388 
L 317.587028 30.195041 
L 318.008186 30.195041 
L 318.10416 29.692593 
L 318.160252 29.692593 
L 318.218801 28.938919 
L 318.280789 28.938919 
L 318.280789 28.687695 
L 318.583944 28.687695 
L 318.583944 28.436471 
L 318.890659 28.436471 
L 318.890659 28.185246 
L 319.112445 28.185246 
L 319.112445 27.934022 
L 319.440614 27.934022 
L 319.536588 26.929124 
L 320.996864 26.929124 
L 320.996864 26.6779 
L 321.187973 26.6779 
L 321.187973 26.426675 
L 321.964005 26.426675 
L 322.038432 25.673002 
L 322.190148 25.673002 
L 322.190148 25.421778 
L 322.445561 25.421778 
L 322.445561 25.170553 
L 322.791478 25.170553 
L 322.886459 24.41688 
L 323.280114 24.41688 
L 323.334958 23.914431 
L 323.483489 23.914431 
L 323.483489 23.663207 
L 323.717038 23.663207 
L 323.717038 23.411983 
L 323.872081 23.411983 
L 323.872081 23.160758 
L 324.399953 23.160758 
L 324.399953 22.909534 
L 325.187322 22.909534 
L 325.187322 22.658309 
L 326.158614 22.658309 
L 326.158614 22.407085 
L 326.831101 22.407085 
L 326.831101 22.155861 
L 327.63315 22.155861 
L 327.63315 21.904636 
L 327.809779 21.904636 
L 327.809779 21.653412 
L 328.154686 21.653412 
L 328.154686 21.402187 
L 328.519828 21.402187 
L 328.519828 21.150963 
L 328.826544 21.150963 
L 328.826544 20.899739 
L 329.04833 20.899739 
L 329.065578 20.39729 
L 329.399603 20.39729 
L 329.406464 19.894841 
L 329.635714 19.894841 
L 329.635714 19.141168 
L 332.381445 19.141168 
L 332.381445 18.889943 
L 333.039012 18.889943 
L 333.039012 18.13627 
L 336.354654 18.13627 
L 336.354654 17.885046 
L 336.545763 17.885046 
L 336.545763 17.633821 
L 337.396223 17.633821 
L 337.396223 17.382597 
L 338.183277 17.382597 
L 338.183277 17.131373 
L 339.171241 17.131373 
L 339.171241 16.880148 
L 339.883247 16.880148 
L 339.883247 16.628924 
L 340.545112 16.628924 
L 340.545112 16.377699 
L 341.516404 16.377699 
L 341.516404 16.126475 
L 341.955336 16.126475 
L 341.955336 15.624026 
L 342.847082 15.624026 
L 342.847082 15.372802 
L 342.99094 15.372802 
L 342.99094 15.121577 
L 343.167569 15.121577 
L 343.167569 14.870353 
L 344.423368 14.870353 
L 344.423368 14.619129 
L 345.567625 14.619129 
L 345.665205 14.11668 
L 346.450448 14.11668 
L 346.450448 13.865455 
L 348.256092 13.865455 
L 348.256092 13.363007 
L 349.418775 13.363007 
L 349.418775 12.860558 
L 352.132805 12.860558 
L 352.132805 12.609333 
L 353.662862 12.609333 
L 353.662862 12.358109 
L 353.795752 12.358109 
L 353.795752 12.106885 
L 355.02448 12.106885 
L 355.02448 11.85566 
L 360.955023 11.85566 
L 361.050997 11.353211 
L 361.467461 11.353211 
L 361.467461 10.599538 
L 364.870758 10.599538 
L 364.870758 10.097089 
L 370.579987 10.097089 
L 370.579987 9.845865 
L 371.714994 9.845865 
L 371.714994 9.343416 
L 373.787083 9.343416 
L 373.787083 9.092192 
L 378.082127 9.092192 
L 378.082127 8.840967 
L 380.087839 8.840967 
L 380.087839 8.338519 
L 384.926363 8.338519 
L 384.926363 8.087294 
L 385.937777 8.087294 
L 385.937777 7.83607 
L 393.299208 7.83607 
L 393.299208 7.584845 
L 396.702505 7.584845 
L 396.702505 7.082397 
L 403.546741 7.082397 
L 403.546741 6.579948 
L 411.919586 6.579948 
L 411.919586 6.328723 
L 428.534252 6.328723 
L 428.534252 6.077499 
L 435.378488 6.077499 
L 435.378488 5.826275 
L 453.192 5.826275 
L 453.192 5.826275 
" clip-path="url(#p7afb0b5b73)" style="fill: none; stroke: #000000; stroke-width: 3; stroke-linecap: square"/>
   </g>
   <g id="line2d_50">
    <path clip-path="url(#p7afb0b5b73)" style="fill: none; stroke: #000000; stroke-width: 3; stroke-linecap: square"/>
   </g>
   <g id="line2d_51">
    <path d="M 34.16 288.453725 
L 207.549239 288.453725 
L 207.549239 288.202501 
L 208.293278 288.202501 
L 208.293278 287.951277 
L 210.111789 287.951277 
L 210.111789 287.700052 
L 213.217438 287.700052 
L 213.217438 287.448828 
L 213.352197 287.448828 
L 213.360552 286.946379 
L 213.961478 286.946379 
L 213.964394 286.44393 
L 214.096237 286.44393 
L 214.15039 285.941481 
L 215.124845 285.941481 
L 215.231068 285.187808 
L 215.344167 285.187808 
L 215.344167 284.936584 
L 215.473974 284.936584 
L 215.473974 284.685359 
L 215.714869 284.685359 
L 215.779988 284.182911 
L 215.868884 284.182911 
L 215.975107 283.429237 
L 216.317195 283.429237 
L 216.317195 283.178013 
L 216.458908 283.178013 
L 216.458908 282.926789 
L 216.631088 282.926789 
L 216.631088 282.675564 
L 216.979162 282.675564 
L 216.979162 282.42434 
L 217.227736 282.42434 
L 217.333282 281.921891 
L 217.375127 281.921891 
L 217.375127 281.670667 
L 217.672033 281.670667 
L 217.720359 280.665769 
L 217.793618 280.665769 
L 217.793618 280.414545 
L 217.955893 280.414545 
L 217.971776 279.912096 
L 218.077321 279.912096 
L 218.077321 279.660871 
L 218.277419 279.660871 
L 218.388355 279.158423 
L 218.422028 279.158423 
L 218.434892 278.655974 
L 218.687084 278.655974 
L 218.687084 278.404749 
L 218.985433 278.404749 
L 219.028752 277.902301 
L 219.163511 277.902301 
L 219.193638 277.399852 
L 219.431123 277.399852 
L 219.431123 277.148627 
L 219.571192 277.148627 
L 219.632593 276.646179 
L 219.767352 276.646179 
L 219.860978 275.390057 
L 219.893302 275.390057 
L 219.953348 274.636383 
L 220.152606 274.636383 
L 220.240539 274.133935 
L 220.317359 274.133935 
L 220.363896 273.631486 
L 220.65652 273.631486 
L 220.65652 273.380261 
L 220.784503 273.380261 
L 220.839663 272.877813 
L 220.907945 272.877813 
L 221.012367 271.621691 
L 221.029601 271.621691 
L 221.075089 270.868017 
L 221.142174 270.868017 
L 221.249634 270.114344 
L 221.276933 270.114344 
L 221.319388 269.611895 
L 221.500196 269.611895 
L 221.611015 268.355773 
L 221.646223 268.355773 
L 221.725996 267.853325 
L 221.789983 267.853325 
L 221.832219 267.350876 
L 221.940843 267.350876 
L 221.985394 266.597203 
L 222.08161 266.597203 
L 222.149168 265.089856 
L 222.233515 265.089856 
L 222.31602 264.587407 
L 222.380569 264.587407 
L 222.442402 264.084959 
L 222.533499 264.084959 
L 222.585524 263.58251 
L 222.647361 263.58251 
L 222.74707 262.828837 
L 222.78212 262.828837 
L 222.893208 261.823939 
L 222.919773 261.823939 
L 223.025997 260.316593 
L 223.03905 260.316593 
L 223.144595 259.311695 
L 223.155804 259.311695 
L 223.232239 258.558022 
L 223.337094 258.558022 
L 223.408708 257.3019 
L 223.474992 257.3019 
L 223.523318 256.297002 
L 223.59468 256.297002 
L 223.642891 255.292105 
L 223.748436 255.292105 
L 223.828887 254.538431 
L 223.879303 254.538431 
L 223.934432 253.533534 
L 223.999024 253.533534 
L 224.093144 252.779861 
L 224.12692 252.779861 
L 224.12692 252.528636 
L 224.253313 252.528636 
L 224.347446 251.774963 
L 224.416707 251.774963 
L 224.498398 250.518841 
L 224.554768 250.518841 
L 224.660991 249.262719 
L 224.708334 249.262719 
L 224.788392 248.509046 
L 224.849961 248.509046 
L 224.955507 247.755373 
L 224.967834 247.755373 
L 225.022665 247.001699 
L 225.102239 247.001699 
L 225.212248 245.243129 
L 225.247639 245.243129 
L 225.353862 243.233333 
L 225.399044 243.233333 
L 225.472917 242.47966 
L 225.531499 242.47966 
L 225.637722 241.223538 
L 225.837663 241.223538 
L 225.885989 240.721089 
L 225.964596 240.721089 
L 226.061011 239.716192 
L 226.101238 239.716192 
L 226.128162 238.962519 
L 226.281829 238.962519 
L 226.309309 238.46007 
L 226.417949 238.46007 
L 226.528892 236.952723 
L 226.561039 236.952723 
L 226.668404 235.445377 
L 226.68429 235.445377 
L 226.763205 233.686806 
L 226.802209 233.686806 
L 226.802209 233.435582 
L 226.937017 233.435582 
L 227.037742 232.17946 
L 227.098177 232.17946 
L 227.199658 230.672113 
L 227.21349 230.672113 
L 227.215648 230.169664 
L 227.350531 230.169664 
L 227.456076 228.411094 
L 227.49535 228.411094 
L 227.504402 227.908645 
L 227.614452 227.908645 
L 227.702209 226.652523 
L 227.728846 226.652523 
L 227.800783 225.647625 
L 227.84911 225.647625 
L 227.885776 224.893952 
L 227.960482 224.893952 
L 228.067282 224.391503 
L 228.084643 224.391503 
L 228.14457 223.386606 
L 228.221078 223.386606 
L 228.250002 222.632932 
L 228.351947 222.632932 
L 228.446249 221.125586 
L 228.498076 221.125586 
L 228.579431 219.869464 
L 228.63165 219.869464 
L 228.725984 217.608444 
L 228.750319 217.608444 
L 228.858204 216.101098 
L 228.921437 216.101098 
L 228.936569 215.347425 
L 229.04213 215.347425 
L 229.125659 213.840078 
L 229.213064 213.840078 
L 229.282259 213.086405 
L 229.355138 213.086405 
L 229.437275 212.583956 
L 229.526539 212.583956 
L 229.613703 211.579059 
L 229.648467 211.579059 
L 229.756709 209.820488 
L 229.771393 209.820488 
L 229.855845 209.066815 
L 229.944097 209.066815 
L 229.98793 208.564366 
L 230.073904 208.564366 
L 230.135547 207.810693 
L 230.214426 207.810693 
L 230.264759 207.05702 
L 230.458525 207.05702 
L 230.542231 206.303346 
L 230.584068 206.303346 
L 230.673087 205.549673 
L 230.731054 205.549673 
L 230.731054 205.298449 
L 230.893008 205.298449 
L 230.955623 204.293551 
L 231.010757 204.293551 
L 231.054663 203.539878 
L 231.182795 203.539878 
L 231.272339 202.032532 
L 231.314275 202.032532 
L 231.318397 201.530083 
L 231.474422 201.530083 
L 231.579091 201.027634 
L 231.645249 201.027634 
L 231.745819 200.273961 
L 231.792622 200.273961 
L 231.883559 199.520288 
L 231.978336 199.520288 
L 232.089044 198.766614 
L 232.093143 198.766614 
L 232.093143 198.51539 
L 232.220697 198.51539 
L 232.320289 197.761717 
L 232.357898 197.761717 
L 232.429902 196.25437 
L 232.475549 196.25437 
L 232.555822 195.249473 
L 232.618442 195.249473 
L 232.696984 193.993351 
L 232.88298 193.993351 
L 232.966329 193.239678 
L 233.015988 193.239678 
L 233.085249 192.486004 
L 233.173983 192.486004 
L 233.272115 191.983556 
L 233.291121 191.983556 
L 233.353681 190.978658 
L 233.44735 190.978658 
L 233.513523 189.722536 
L 233.585363 189.722536 
L 233.681387 188.21519 
L 233.699953 188.21519 
L 233.73185 187.461516 
L 233.876163 187.461516 
L 233.955366 185.95417 
L 234.076758 185.95417 
L 234.117364 185.451721 
L 234.199464 185.451721 
L 234.30336 184.195599 
L 234.338909 184.195599 
L 234.448534 182.939477 
L 234.469308 182.939477 
L 234.556891 182.185804 
L 234.587625 182.185804 
L 234.663762 181.683355 
L 234.710564 181.683355 
L 234.76573 180.176009 
L 234.833389 180.176009 
L 234.853313 179.67356 
L 234.986516 179.67356 
L 235.091665 177.914989 
L 235.182247 177.914989 
L 235.285677 177.41254 
L 235.324434 177.41254 
L 235.381452 176.407643 
L 235.48189 176.407643 
L 235.543424 175.402745 
L 235.626945 175.402745 
L 235.735499 173.644174 
L 235.776913 173.644174 
L 235.85718 172.136828 
L 235.906944 172.136828 
L 236.005828 171.13193 
L 236.105761 171.13193 
L 236.187499 170.127033 
L 236.234247 170.127033 
L 236.273265 169.624584 
L 236.34626 169.624584 
L 236.45295 167.363564 
L 236.470165 167.363564 
L 236.514172 166.861115 
L 236.595563 166.861115 
L 236.701899 166.107442 
L 236.726943 166.107442 
L 236.80957 165.604993 
L 236.884051 165.604993 
L 236.968125 164.85132 
L 237.102899 164.85132 
L 237.153045 163.846423 
L 237.310276 163.846423 
L 237.405708 162.339076 
L 237.470772 162.339076 
L 237.506106 161.836627 
L 237.589979 161.836627 
L 237.699037 160.83173 
L 237.704682 160.83173 
L 237.718024 160.329281 
L 237.825004 160.329281 
L 237.906415 159.575608 
L 237.984776 159.575608 
L 238.084485 159.073159 
L 238.108863 159.073159 
L 238.209237 158.319486 
L 238.288002 158.319486 
L 238.34246 157.817037 
L 238.440502 157.817037 
L 238.517232 156.812139 
L 238.58112 156.812139 
L 238.58112 156.560915 
L 238.703431 156.560915 
L 238.813055 155.304793 
L 238.857287 155.304793 
L 238.961762 153.294998 
L 239.003698 153.294998 
L 239.11355 152.038876 
L 239.138404 152.038876 
L 239.229488 151.536427 
L 239.302483 151.536427 
L 239.403641 149.777856 
L 239.443231 149.777856 
L 239.542244 148.27051 
L 239.576392 148.27051 
L 239.644885 147.516837 
L 239.719729 147.516837 
L 239.770296 146.763163 
L 239.851337 146.763163 
L 239.884552 146.260715 
L 240.109268 146.260715 
L 240.109268 146.00949 
L 240.261263 146.00949 
L 240.33958 145.255817 
L 240.436639 145.255817 
L 240.520881 143.497246 
L 240.556638 143.497246 
L 240.593877 142.994797 
L 240.715548 142.994797 
L 240.715548 142.743573 
L 240.833136 142.743573 
L 240.885923 141.487451 
L 240.973506 141.487451 
L 241.04504 139.72888 
L 241.127179 139.72888 
L 241.163162 139.226431 
L 241.319602 139.226431 
L 241.421496 137.467861 
L 241.439779 137.467861 
L 241.543486 136.211739 
L 241.552266 136.211739 
L 241.64844 134.704392 
L 241.678439 134.704392 
L 241.709504 133.950719 
L 241.793522 133.950719 
L 241.802113 133.197046 
L 241.938879 133.197046 
L 242.024775 131.940924 
L 242.283142 131.940924 
L 242.30134 131.438475 
L 242.439501 131.438475 
L 242.513485 130.936026 
L 242.560288 130.936026 
L 242.620241 129.931129 
L 242.728584 129.931129 
L 242.836785 129.177455 
L 242.856709 129.177455 
L 242.944816 128.675007 
L 243.021913 128.675007 
L 243.021913 128.423782 
L 243.22929 128.423782 
L 243.266565 127.921333 
L 243.421625 127.921333 
L 243.508993 127.16766 
L 243.559894 127.16766 
L 243.559894 126.916436 
L 243.671771 126.916436 
L 243.767271 126.162763 
L 243.783634 126.162763 
L 243.823766 125.660314 
L 244.046974 125.660314 
L 244.049994 125.157865 
L 244.189581 125.157865 
L 244.277829 124.655416 
L 244.377551 124.655416 
L 244.460291 123.14807 
L 244.596232 123.14807 
L 244.698951 121.891948 
L 244.758928 121.891948 
L 244.78585 121.389499 
L 244.903919 121.389499 
L 244.903919 121.138275 
L 245.1641 121.138275 
L 245.1641 120.88705 
L 245.398114 120.88705 
L 245.490959 119.882153 
L 245.565713 119.882153 
L 245.664807 118.877255 
L 245.696089 118.877255 
L 245.770351 117.872357 
L 245.859845 117.872357 
L 245.944509 117.118684 
L 245.977425 117.118684 
L 246.009545 116.616235 
L 246.183169 116.616235 
L 246.183169 116.365011 
L 246.308332 116.365011 
L 246.35404 115.862562 
L 246.439316 115.862562 
L 246.534779 115.108889 
L 246.57883 115.108889 
L 246.683427 114.103991 
L 246.717381 114.103991 
L 246.824799 113.601542 
L 246.83452 113.601542 
L 246.935667 113.099094 
L 246.9458 113.099094 
L 247.035584 111.842972 
L 247.062939 111.842972 
L 247.165727 110.58685 
L 247.192649 110.58685 
L 247.286728 109.079503 
L 247.31365 109.079503 
L 247.403866 108.074606 
L 247.430788 108.074606 
L 247.494608 106.818484 
L 247.552455 106.818484 
L 247.648187 105.562362 
L 247.70445 105.562362 
L 247.815447 104.557464 
L 247.953913 104.557464 
L 247.972512 104.055015 
L 248.093513 104.055015 
L 248.184557 103.050118 
L 248.205868 103.050118 
L 248.2833 102.296444 
L 248.373438 102.296444 
L 248.444527 101.793996 
L 248.698622 101.793996 
L 248.698622 101.542771 
L 248.850617 101.542771 
L 248.850617 101.291547 
L 248.976902 101.291547 
L 248.976902 101.040322 
L 249.128216 101.040322 
L 249.128216 100.789098 
L 249.471097 100.789098 
L 249.471097 100.537874 
L 249.643245 100.537874 
L 249.701396 99.532976 
L 249.800483 99.532976 
L 249.800483 99.281752 
L 249.936434 99.281752 
L 250.044786 98.276854 
L 250.506989 98.276854 
L 250.506989 98.02563 
L 251.143169 98.02563 
L 251.143169 97.774405 
L 251.37795 97.774405 
L 251.37795 97.523181 
L 251.528175 97.523181 
L 251.535015 97.020732 
L 251.656016 97.020732 
L 251.756593 96.518283 
L 251.773154 96.518283 
L 251.773154 96.267059 
L 251.935941 96.267059 
L 252.024526 95.76461 
L 252.097521 95.76461 
L 252.124443 95.010937 
L 252.404524 95.010937 
L 252.422014 94.508488 
L 252.643184 94.508488 
L 252.657619 93.754815 
L 252.809614 93.754815 
L 252.918365 93.001142 
L 252.951357 93.001142 
L 253.018282 91.996244 
L 253.10505 91.996244 
L 253.212503 91.493795 
L 253.42795 91.493795 
L 253.42795 91.242571 
L 253.656369 91.242571 
L 253.698968 90.740122 
L 253.798145 90.740122 
L 253.798145 90.488898 
L 253.924301 90.488898 
L 254.024219 89.735224 
L 254.155067 89.735224 
L 254.170003 89.232776 
L 254.804081 89.232776 
L 254.804081 88.981551 
L 255.216152 88.981551 
L 255.258634 88.479102 
L 255.415699 88.479102 
L 255.428418 87.976654 
L 255.5367 87.976654 
L 255.5367 87.725429 
L 255.653838 87.725429 
L 255.653838 87.474205 
L 255.816625 87.474205 
L 255.816625 87.22298 
L 256.011621 87.22298 
L 256.011621 86.971756 
L 256.404801 86.971756 
L 256.466809 86.469307 
L 256.561866 86.469307 
L 256.656423 85.966858 
L 256.682867 85.966858 
L 256.682867 85.715634 
L 256.800005 85.715634 
L 256.800005 85.46441 
L 256.962792 85.46441 
L 256.962792 85.213185 
L 257.126227 85.213185 
L 257.126227 84.961961 
L 257.278221 84.961961 
L 257.360648 84.459512 
L 258.114064 84.459512 
L 258.114064 84.208288 
L 258.366585 84.208288 
L 258.384641 83.705839 
L 258.536636 83.705839 
L 258.536636 83.454614 
L 259.612647 83.454614 
L 259.612647 83.20339 
L 259.764642 83.20339 
L 259.764642 82.952166 
L 260.347493 82.952166 
L 260.363798 82.449717 
L 260.520863 82.449717 
L 260.520863 82.198492 
L 260.641864 82.198492 
L 260.641864 81.947268 
L 260.759003 81.947268 
L 260.759003 81.696044 
L 260.921789 81.696044 
L 260.921789 81.444819 
L 261.241333 81.444819 
L 261.241333 81.193595 
L 261.49366 81.193595 
L 261.49366 80.94237 
L 262.247269 80.94237 
L 262.247269 80.691146 
L 262.3875 80.691146 
L 262.3875 80.439922 
L 262.582671 80.439922 
L 262.582671 80.188697 
L 263.393436 80.188697 
L 263.393436 79.937473 
L 263.588185 79.937473 
L 263.588185 79.686248 
L 263.816604 79.686248 
L 263.841086 79.1838 
L 264.084536 79.1838 
L 264.184453 78.430126 
L 264.832406 78.430126 
L 264.832406 78.178902 
L 264.964316 78.178902 
L 265.069092 77.425229 
L 265.110471 77.425229 
L 265.110471 77.174004 
L 265.22761 77.174004 
L 265.287541 76.671556 
L 265.375097 76.671556 
L 265.452657 75.666658 
L 265.638774 75.666658 
L 265.72258 74.66176 
L 265.771182 74.66176 
L 265.859666 72.90319 
L 265.903973 72.90319 
L 265.903973 72.651965 
L 266.07304 72.651965 
L 266.160597 70.893394 
L 266.206221 70.893394 
L 266.304665 69.134824 
L 266.339012 69.134824 
L 266.447491 67.627477 
L 266.468367 67.627477 
L 266.561678 64.612784 
L 266.600902 64.612784 
L 266.689472 63.356662 
L 266.723174 63.356662 
L 266.829224 62.10054 
L 266.842818 62.10054 
L 266.931132 60.341969 
L 266.957762 60.341969 
L 267.064102 57.578501 
L 267.090164 57.578501 
L 267.187356 56.322379 
L 267.269378 56.322379 
L 267.352433 55.066257 
L 267.464616 55.066257 
L 267.554135 53.810135 
L 267.580765 53.810135 
L 267.670998 51.80034 
L 267.71403 51.80034 
L 267.803788 50.544218 
L 267.870887 50.544218 
L 267.876817 50.041769 
L 268.204481 50.041769 
L 268.294 49.288096 
L 268.383695 49.288096 
L 268.383695 49.036871 
L 268.526819 49.036871 
L 268.526819 48.785647 
L 269.921265 48.785647 
L 269.921265 48.534423 
L 270.815104 48.534423 
L 270.815104 48.283198 
L 271.179679 48.283198 
L 271.179679 48.031974 
L 271.325758 48.031974 
L 271.43339 47.529525 
L 271.82104 47.529525 
L 271.82104 47.278301 
L 272.073518 47.278301 
L 272.073518 47.027076 
L 272.407504 47.027076 
L 272.407685 46.524627 
L 273.079454 46.524627 
L 273.079454 46.273403 
L 273.301524 46.273403 
L 273.301524 46.022179 
L 273.553671 46.022179 
L 273.553671 45.770954 
L 274.30746 45.770954 
L 274.30746 45.51973 
L 275.314074 45.51973 
L 275.314074 45.268505 
L 276.460241 45.268505 
L 276.460241 45.017281 
L 277.512668 45.017281 
L 277.512668 44.766057 
L 280.419238 44.766057 
L 280.419238 44.514832 
L 280.653584 44.514832 
L 280.741141 43.509935 
L 280.799754 43.509935 
L 280.799754 43.007486 
L 281.004817 43.007486 
L 281.107524 41.500139 
L 281.137225 41.500139 
L 281.246654 38.485447 
L 281.270016 38.485447 
L 281.328629 37.731773 
L 281.510331 37.731773 
L 281.554424 36.726876 
L 281.631759 36.726876 
L 281.731223 34.465856 
L 281.760228 34.465856 
L 281.849922 32.95851 
L 281.880357 32.95851 
L 281.981275 31.199939 
L 282.027844 31.199939 
L 282.116328 29.692593 
L 282.144033 29.692593 
L 282.188127 28.436471 
L 282.265742 28.436471 
L 282.364926 26.175451 
L 282.378239 26.175451 
L 282.409232 24.919329 
L 282.561327 24.919329 
L 282.656091 24.165656 
L 282.700184 24.165656 
L 282.809925 22.658309 
L 282.83272 22.658309 
L 282.92129 21.402187 
L 282.989138 21.402187 
L 282.989138 21.150963 
L 283.185024 21.150963 
L 283.239689 20.648514 
L 283.321982 20.648514 
L 283.411502 20.146065 
L 283.501196 20.146065 
L 283.501196 19.894841 
L 284.467695 19.894841 
L 284.467695 19.643617 
L 284.887845 19.643617 
L 284.887845 19.392392 
L 286.14626 19.392392 
L 286.14626 19.141168 
L 286.747527 19.141168 
L 286.747527 18.889943 
L 287.374265 18.889943 
L 287.374265 18.638719 
L 290.628211 18.638719 
L 290.628211 18.387495 
L 291.774378 18.387495 
L 291.774378 18.13627 
L 293.408145 18.13627 
L 293.495702 17.131373 
L 293.540108 17.131373 
L 293.540108 16.628924 
L 293.759378 16.628924 
L 293.847878 15.121577 
L 293.891786 15.121577 
L 293.980414 12.860558 
L 294.024577 12.860558 
L 294.068984 12.106885 
L 294.42527 12.106885 
L 294.514789 11.353211 
L 294.559195 11.353211 
L 294.64889 10.599538 
L 295.733375 10.599538 
L 295.733375 10.348314 
L 300.201983 10.348314 
L 300.201983 10.097089 
L 301.460397 10.097089 
L 301.460397 9.845865 
L 302.688403 9.845865 
L 302.688403 9.594641 
L 303.152378 9.594641 
L 303.239935 8.840967 
L 303.503611 8.840967 
L 303.547705 8.087294 
L 303.636019 8.087294 
L 303.724504 6.831172 
L 303.76881 6.831172 
L 303.76881 6.579948 
L 304.169503 6.579948 
L 304.259022 6.077499 
L 304.348716 6.077499 
L 304.348716 5.826275 
L 453.192 5.826275 
L 453.192 5.826275 
" clip-path="url(#p7afb0b5b73)" style="fill: none; stroke: #00bfbf; stroke-width: 3; stroke-linecap: square"/>
   </g>
   <g id="line2d_52">
    <path clip-path="url(#p7afb0b5b73)" style="fill: none; stroke: #00bfbf; stroke-width: 3; stroke-linecap: square"/>
   </g>
   <g id="line2d_53">
    <path d="M 34.16 288.453725 
L 208.57258 288.453725 
L 208.57258 288.202501 
L 209.740278 288.202501 
L 209.740278 287.951277 
L 212.322086 287.951277 
L 212.322086 287.700052 
L 213.032319 287.700052 
L 213.032319 287.448828 
L 215.197591 287.448828 
L 215.197591 287.197603 
L 215.947528 287.197603 
L 215.947528 286.946379 
L 216.616203 286.946379 
L 216.616203 286.695155 
L 217.177359 286.695155 
L 217.177359 286.44393 
L 217.783902 286.44393 
L 217.783902 286.192706 
L 218.90596 286.192706 
L 218.90596 285.941481 
L 220.066266 285.941481 
L 220.066266 285.690257 
L 220.180438 285.690257 
L 220.180438 285.439033 
L 220.36571 285.439033 
L 220.462846 284.936584 
L 220.606058 284.936584 
L 220.606058 284.685359 
L 221.075942 284.685359 
L 221.075942 284.434135 
L 221.233964 284.434135 
L 221.28364 283.931686 
L 221.651563 283.931686 
L 221.651563 283.680462 
L 222.451339 283.680462 
L 222.451339 283.429237 
L 223.088713 283.429237 
L 223.128724 282.926789 
L 223.241215 282.926789 
L 223.241215 282.675564 
L 223.435675 282.675564 
L 223.435675 282.42434 
L 223.65302 282.42434 
L 223.698835 281.921891 
L 223.815772 281.921891 
L 223.815772 281.670667 
L 223.991152 281.670667 
L 223.991152 281.419442 
L 224.49309 281.419442 
L 224.526005 280.916993 
L 224.705696 280.916993 
L 224.705696 280.665769 
L 224.820718 280.665769 
L 224.911065 279.660871 
L 225.033147 279.660871 
L 225.033147 279.409647 
L 225.178033 279.409647 
L 225.250906 278.655974 
L 225.743379 278.655974 
L 225.743379 278.404749 
L 225.984011 278.404749 
L 226.078763 277.902301 
L 226.14857 277.902301 
L 226.195675 276.897403 
L 226.304698 276.897403 
L 226.304698 276.646179 
L 226.430978 276.646179 
L 226.478083 276.14373 
L 226.555653 276.14373 
L 226.621294 275.390057 
L 226.691277 275.390057 
L 226.756462 274.636383 
L 226.949583 274.636383 
L 226.982405 274.133935 
L 227.137446 274.133935 
L 227.246925 273.129037 
L 227.34438 273.129037 
L 227.448341 271.621691 
L 227.472161 271.621691 
L 227.568765 270.616793 
L 227.678565 270.616793 
L 227.679095 270.114344 
L 227.887077 270.114344 
L 227.908651 269.360671 
L 228.099684 269.360671 
L 228.158574 268.104549 
L 228.221793 268.104549 
L 228.221793 267.853325 
L 228.41489 267.853325 
L 228.500282 266.848427 
L 228.627496 266.848427 
L 228.73332 264.838632 
L 228.749606 264.838632 
L 228.834997 263.331285 
L 229.000934 263.331285 
L 229.10395 261.823939 
L 229.14396 261.823939 
L 229.234204 260.316593 
L 229.258098 260.316593 
L 229.351585 259.814144 
L 229.370804 259.814144 
L 229.466433 258.306797 
L 229.48941 258.306797 
L 229.592827 257.050675 
L 229.609644 257.050675 
L 229.702017 256.045778 
L 229.733517 256.045778 
L 229.824126 255.04088 
L 229.888419 255.04088 
L 229.949641 254.035983 
L 230.039483 254.035983 
L 230.140837 251.02129 
L 230.156835 251.02129 
L 230.247227 250.267617 
L 230.278031 250.267617 
L 230.350643 248.76027 
L 230.398382 248.76027 
L 230.477454 247.001699 
L 230.529855 247.001699 
L 230.640913 245.494353 
L 230.663344 245.494353 
L 230.731911 244.489455 
L 230.830535 244.489455 
L 230.875979 243.484558 
L 231.026412 243.484558 
L 231.090197 241.977211 
L 231.145964 241.977211 
L 231.257008 238.962519 
L 231.297131 238.962519 
L 231.395812 238.208845 
L 231.413381 238.208845 
L 231.481203 236.952723 
L 231.536076 236.952723 
L 231.641595 235.194153 
L 231.65539 235.194153 
L 231.726149 232.933133 
L 231.784229 232.933133 
L 231.869337 231.928235 
L 231.952872 231.928235 
L 232.008558 230.923338 
L 232.0923 230.923338 
L 232.163013 229.415991 
L 232.243246 229.415991 
L 232.346662 227.65742 
L 232.367641 227.65742 
L 232.470332 226.150074 
L 232.532532 226.150074 
L 232.619276 224.893952 
L 232.65199 224.893952 
L 232.752324 222.632932 
L 232.771698 222.632932 
L 232.872599 221.37681 
L 232.907245 221.37681 
L 232.991808 219.367015 
L 233.029354 219.367015 
L 233.090118 218.110893 
L 233.145249 218.110893 
L 233.240579 217.105996 
L 233.298759 217.105996 
L 233.396074 215.0962 
L 233.442161 215.0962 
L 233.545578 212.583956 
L 233.571826 212.583956 
L 233.681825 211.579059 
L 233.699414 211.579059 
L 233.807125 209.318039 
L 233.83208 209.318039 
L 233.929723 207.308244 
L 233.966566 207.308244 
L 234.061454 205.549673 
L 234.090959 205.549673 
L 234.200867 204.796 
L 234.211888 204.796 
L 234.254514 204.042327 
L 234.324905 204.042327 
L 234.410566 201.781307 
L 234.483275 201.781307 
L 234.58879 200.273961 
L 234.610265 200.273961 
L 234.674435 198.012941 
L 234.752336 198.012941 
L 234.842206 196.003146 
L 234.874569 196.003146 
L 234.981387 194.244575 
L 235.041117 194.244575 
L 235.151914 192.988453 
L 235.215095 192.988453 
L 235.309343 190.978658 
L 235.3848 190.978658 
L 235.448474 189.97376 
L 235.587184 189.97376 
L 235.693121 188.466414 
L 235.760048 188.466414 
L 235.866446 185.95417 
L 235.880114 185.95417 
L 235.972776 183.69315 
L 235.99331 183.69315 
L 236.089843 181.93458 
L 236.149621 181.93458 
L 236.213408 180.176009 
L 236.272218 180.176009 
L 236.36881 177.914989 
L 236.401466 177.914989 
L 236.502796 176.156418 
L 236.59896 176.156418 
L 236.708499 174.397847 
L 236.71686 174.397847 
L 236.811114 171.885603 
L 236.904622 171.885603 
L 237.015191 169.624584 
L 237.023578 169.624584 
L 237.109142 168.368462 
L 237.138174 168.368462 
L 237.246843 165.856218 
L 237.263098 165.856218 
L 237.363858 163.846423 
L 237.381242 163.846423 
L 237.483557 161.585403 
L 237.50089 161.585403 
L 237.581517 160.580505 
L 237.620839 160.580505 
L 237.725329 159.073159 
L 237.756271 159.073159 
L 237.839457 157.063364 
L 237.884087 157.063364 
L 237.994176 153.797447 
L 238.004021 153.797447 
L 238.088696 151.787651 
L 238.130044 151.787651 
L 238.238936 150.531529 
L 238.246487 150.531529 
L 238.315768 148.27051 
L 238.36245 148.27051 
L 238.460166 146.260715 
L 238.475208 146.260715 
L 238.577523 145.004593 
L 238.587207 145.004593 
L 238.691836 142.743573 
L 238.701916 142.743573 
L 238.775398 141.738675 
L 238.814434 141.738675 
L 238.912551 139.72888 
L 238.959656 139.72888 
L 239.062994 136.965412 
L 239.104669 136.965412 
L 239.204873 134.201943 
L 239.226165 134.201943 
L 239.293079 132.694597 
L 239.350983 132.694597 
L 239.450922 129.931129 
L 239.500074 129.931129 
L 239.555552 127.921333 
L 239.622466 127.921333 
L 239.732507 125.409089 
L 239.745063 125.409089 
L 239.839385 123.901743 
L 239.887351 123.901743 
L 239.997801 121.891948 
L 239.999881 121.891948 
L 240.105968 120.635826 
L 240.111634 120.635826 
L 240.221013 119.128479 
L 240.296419 119.128479 
L 240.393733 117.621133 
L 240.41225 117.621133 
L 240.495861 116.365011 
L 240.546176 116.365011 
L 240.652773 113.350318 
L 240.662899 113.350318 
L 240.772805 111.842972 
L 240.77689 111.842972 
L 240.879525 109.833176 
L 240.905075 109.833176 
L 240.972915 108.32583 
L 241.031504 108.32583 
L 241.129562 106.818484 
L 241.19274 106.818484 
L 241.296113 105.311137 
L 241.346275 105.311137 
L 241.437089 103.050118 
L 241.476629 103.050118 
L 241.585194 101.040322 
L 241.625038 101.040322 
L 241.701386 99.532976 
L 241.738012 99.532976 
L 241.806015 98.779303 
L 241.877567 98.779303 
L 241.987419 96.518283 
L 242.006128 96.518283 
L 242.089848 95.76461 
L 242.131933 95.76461 
L 242.238047 94.508488 
L 242.40003 94.508488 
L 242.492737 93.252366 
L 242.521019 93.252366 
L 242.630631 91.242571 
L 242.635121 91.242571 
L 242.703759 89.484 
L 242.788811 89.484 
L 242.885743 87.22298 
L 242.903237 87.22298 
L 242.980376 85.213185 
L 243.041267 85.213185 
L 243.074876 84.710736 
L 243.17913 84.710736 
L 243.239141 83.20339 
L 243.312307 83.20339 
L 243.417206 81.444819 
L 243.446023 81.444819 
L 243.528313 80.439922 
L 243.581357 80.439922 
L 243.685919 79.435024 
L 243.695851 79.435024 
L 243.806114 76.420331 
L 243.874374 76.420331 
L 243.94958 75.415434 
L 243.996467 75.415434 
L 244.072068 73.405638 
L 244.112962 73.405638 
L 244.219756 71.144619 
L 244.244781 71.144619 
L 244.297195 69.888497 
L 244.39205 69.888497 
L 244.490131 68.38115 
L 244.514957 68.38115 
L 244.587894 67.627477 
L 244.635099 67.627477 
L 244.739849 66.371355 
L 244.771483 66.371355 
L 244.771483 66.120131 
L 244.898813 66.120131 
L 245.007966 64.864009 
L 245.058814 64.864009 
L 245.125749 64.36156 
L 245.185536 64.36156 
L 245.258997 63.859111 
L 245.315239 63.859111 
L 245.330336 63.356662 
L 245.454259 63.356662 
L 245.551339 62.351765 
L 245.567318 62.351765 
L 245.669633 61.598092 
L 245.702522 61.598092 
L 245.790648 59.588296 
L 245.814161 59.588296 
L 245.869834 58.08095 
L 245.943386 58.08095 
L 246.044165 56.824828 
L 246.082539 56.824828 
L 246.086602 56.322379 
L 246.217244 56.322379 
L 246.23464 55.568706 
L 246.352028 55.568706 
L 246.429199 54.815033 
L 246.495739 54.815033 
L 246.593053 54.061359 
L 246.688745 54.061359 
L 246.778819 53.307686 
L 246.807101 53.307686 
L 246.876211 52.302789 
L 246.964848 52.302789 
L 247.072225 50.544218 
L 247.218075 50.544218 
L 247.32587 49.288096 
L 247.333498 49.288096 
L 247.40522 48.534423 
L 247.452325 48.534423 
L 247.560348 47.529525 
L 247.597815 47.529525 
L 247.70074 46.524627 
L 247.745531 46.524627 
L 247.745531 46.273403 
L 247.868669 46.273403 
L 247.970984 45.51973 
L 248.12268 45.51973 
L 248.178366 44.514832 
L 248.244738 44.514832 
L 248.318219 43.007486 
L 248.399796 43.007486 
L 248.508877 42.505037 
L 248.533927 42.505037 
L 248.626083 42.002588 
L 248.680395 42.002588 
L 248.687168 41.500139 
L 248.957761 41.500139 
L 249.057565 40.997691 
L 249.080171 40.997691 
L 249.182259 38.987895 
L 249.206357 38.987895 
L 249.238374 38.485447 
L 249.379806 38.485447 
L 249.450636 36.726876 
L 249.563667 36.726876 
L 249.654046 35.973203 
L 249.691734 35.973203 
L 249.741621 34.968305 
L 249.905479 34.968305 
L 249.98997 33.963407 
L 250.030707 33.963407 
L 250.030707 33.712183 
L 250.2739 33.712183 
L 250.2739 33.460959 
L 250.440675 33.460959 
L 250.473615 32.707285 
L 250.653083 32.707285 
L 250.732546 31.702388 
L 251.019275 31.702388 
L 251.029101 31.199939 
L 251.162294 31.199939 
L 251.256897 30.69749 
L 251.300173 30.69749 
L 251.397487 29.943817 
L 251.422391 29.943817 
L 251.469496 29.441368 
L 251.653283 29.441368 
L 251.714699 28.938919 
L 251.94992 28.938919 
L 251.986633 28.185246 
L 252.095631 28.185246 
L 252.141446 27.682797 
L 252.340819 27.682797 
L 252.439172 26.929124 
L 252.653716 26.929124 
L 252.65778 26.426675 
L 252.790575 26.426675 
L 252.797791 25.924227 
L 252.927114 25.924227 
L 252.9828 24.919329 
L 253.038888 24.919329 
L 253.038888 24.668105 
L 253.189109 24.668105 
L 253.189109 24.41688 
L 253.309064 24.41688 
L 253.353676 23.914431 
L 253.463645 23.914431 
L 253.463645 23.663207 
L 254.007141 23.663207 
L 254.087483 23.160758 
L 254.208048 23.160758 
L 254.214821 22.658309 
L 254.3193 22.658309 
L 254.426622 21.653412 
L 254.457846 21.653412 
L 254.457846 21.402187 
L 254.670574 21.402187 
L 254.709913 20.899739 
L 255.301453 20.899739 
L 255.347268 20.146065 
L 255.414658 20.146065 
L 255.457517 19.392392 
L 255.577345 19.392392 
L 255.67241 18.889943 
L 255.790881 18.889943 
L 255.790881 18.638719 
L 256.147541 18.638719 
L 256.147541 18.387495 
L 256.312798 18.387495 
L 256.312798 18.13627 
L 256.559498 18.13627 
L 256.650291 17.633821 
L 256.788192 17.633821 
L 256.788192 17.382597 
L 256.944284 17.382597 
L 257.008255 16.628924 
L 257.632445 16.628924 
L 257.648685 16.126475 
L 257.967861 16.126475 
L 257.967861 15.875251 
L 258.225219 15.875251 
L 258.30121 15.121577 
L 258.630839 15.121577 
L 258.727083 14.619129 
L 258.893144 14.619129 
L 258.893144 14.367904 
L 259.377635 14.367904 
L 259.474688 13.614231 
L 260.402061 13.614231 
L 260.402061 13.363007 
L 260.63568 13.363007 
L 260.63568 13.111782 
L 261.184107 13.111782 
L 261.184107 12.860558 
L 261.708626 12.860558 
L 261.708626 12.609333 
L 261.986987 12.609333 
L 261.986987 12.358109 
L 262.363775 12.358109 
L 262.363775 12.106885 
L 262.697125 12.106885 
L 262.70702 11.604436 
L 263.407777 11.604436 
L 263.407777 11.353211 
L 263.546279 11.353211 
L 263.546279 11.101987 
L 264.38993 11.101987 
L 264.38993 10.850763 
L 264.587445 10.850763 
L 264.587445 10.599538 
L 264.797975 10.599538 
L 264.797975 10.348314 
L 264.920794 10.348314 
L 264.920794 10.097089 
L 265.569598 10.097089 
L 265.569598 9.845865 
L 265.902948 9.845865 
L 265.902948 9.594641 
L 266.382902 9.594641 
L 266.382902 9.343416 
L 267.021645 9.343416 
L 267.021645 9.092192 
L 268.003798 9.092192 
L 268.003798 8.840967 
L 268.466112 8.840967 
L 268.466112 8.589743 
L 268.606571 8.589743 
L 268.606571 8.338519 
L 269.588725 8.338519 
L 269.64578 7.83607 
L 269.860857 7.83607 
L 269.860857 7.584845 
L 269.979129 7.584845 
L 269.979129 7.333621 
L 272.07998 7.333621 
L 272.07998 7.082397 
L 273.664906 7.082397 
L 273.664906 6.831172 
L 274.256771 6.831172 
L 274.256771 6.579948 
L 276.480441 6.579948 
L 276.480441 6.328723 
L 277.462594 6.328723 
L 277.462594 6.077499 
L 281.538776 6.077499 
L 281.538776 5.826275 
L 453.192 5.826275 
L 453.192 5.826275 
" clip-path="url(#p7afb0b5b73)" style="fill: none; stroke: #bf00bf; stroke-width: 3; stroke-linecap: square"/>
   </g>
   <g id="line2d_54">
    <path clip-path="url(#p7afb0b5b73)" style="fill: none; stroke: #bf00bf; stroke-width: 3; stroke-linecap: square"/>
   </g>
   <g id="line2d_55">
    <path d="M 34.16 288.453725 
L 207.535959 288.453725 
L 207.535959 288.202501 
L 209.253127 288.202501 
L 209.253127 287.951277 
L 211.342834 287.951277 
L 211.342834 287.700052 
L 213.060002 287.700052 
L 213.060002 287.448828 
L 214.62107 287.448828 
L 214.643259 286.946379 
L 214.761209 286.946379 
L 214.761209 286.695155 
L 215.7022 286.695155 
L 215.731606 286.192706 
L 216.41731 286.192706 
L 216.41731 285.941481 
L 216.529697 285.941481 
L 216.529697 285.690257 
L 216.835057 285.690257 
L 216.835057 285.439033 
L 217.419369 285.439033 
L 217.476676 284.936584 
L 218.134478 284.936584 
L 218.134478 284.685359 
L 218.246866 284.685359 
L 218.246866 284.434135 
L 218.427945 284.434135 
L 218.450134 283.931686 
L 218.552225 283.931686 
L 218.568084 283.429237 
L 218.903184 283.429237 
L 218.903184 283.178013 
L 219.538481 283.178013 
L 219.538481 282.926789 
L 221.283551 282.926789 
L 221.283551 282.675564 
L 221.553835 282.675564 
L 221.553835 282.42434 
L 222.50931 282.42434 
L 222.50931 282.173115 
L 222.710059 282.173115 
L 222.8095 281.168218 
L 222.92745 281.168218 
L 222.92745 280.916993 
L 223.415792 280.916993 
L 223.52461 280.16332 
L 223.614809 280.16332 
L 223.64256 279.409647 
L 223.754947 279.409647 
L 223.754947 279.158423 
L 223.897847 279.158423 
L 223.942357 278.404749 
L 224.060306 278.404749 
L 224.060306 278.153525 
L 224.226479 278.153525 
L 224.226479 277.902301 
L 224.475068 277.902301 
L 224.475068 277.651076 
L 224.612957 277.651076 
L 224.612957 277.399852 
L 224.725344 277.399852 
L 224.725344 277.148627 
L 225.030704 277.148627 
L 225.030704 276.897403 
L 225.36071 276.897403 
L 225.36071 276.646179 
L 225.642918 276.646179 
L 225.642918 276.394954 
L 226.358027 276.394954 
L 226.358027 276.14373 
L 226.470415 276.14373 
L 226.470415 275.892505 
L 226.775774 275.892505 
L 226.792283 275.390057 
L 227.069426 275.390057 
L 227.069426 275.138832 
L 227.222667 275.138832 
L 227.222667 274.887608 
L 227.784535 274.887608 
L 227.784535 274.636383 
L 227.896923 274.636383 
L 227.982813 274.133935 
L 228.040632 274.133935 
L 228.040632 273.88271 
L 228.202282 273.88271 
L 228.311527 273.380261 
L 228.509452 273.380261 
L 228.509452 273.129037 
L 229.112568 273.129037 
L 229.222195 272.626588 
L 229.335945 272.626588 
L 229.422811 272.124139 
L 229.4872 272.124139 
L 229.594422 271.621691 
L 229.60684 271.621691 
L 229.699981 270.868017 
L 229.720076 270.868017 
L 229.758095 270.114344 
L 229.843011 270.114344 
L 229.941874 269.360671 
L 229.983149 269.360671 
L 229.983149 269.109447 
L 230.121828 269.109447 
L 230.154341 268.606998 
L 230.236921 268.606998 
L 230.236921 268.355773 
L 230.435186 268.355773 
L 230.507816 267.853325 
L 230.547573 267.853325 
L 230.598667 267.099651 
L 230.66889 267.099651 
L 230.718124 266.345978 
L 230.852933 266.345978 
L 230.953546 264.587407 
L 231.066288 264.587407 
L 231.172224 264.084959 
L 231.271484 264.084959 
L 231.271484 263.833734 
L 231.422344 263.833734 
L 231.513433 262.828837 
L 231.582033 262.828837 
L 231.688132 261.823939 
L 231.702375 261.823939 
L 231.78871 260.567817 
L 231.902605 260.567817 
L 232.009981 258.809246 
L 232.029604 258.809246 
L 232.115458 257.804349 
L 232.167969 257.804349 
L 232.261818 256.045778 
L 232.283508 256.045778 
L 232.383223 254.538431 
L 232.407811 254.538431 
L 232.50445 253.031085 
L 232.587766 253.031085 
L 232.698617 252.026187 
L 232.71489 252.026187 
L 232.784136 250.770065 
L 232.827549 250.770065 
L 232.921586 248.76027 
L 232.960223 248.76027 
L 233.064604 247.755373 
L 233.084482 247.755373 
L 233.192482 246.248026 
L 233.197919 246.248026 
L 233.305294 244.74068 
L 233.346498 244.74068 
L 233.456549 241.977211 
L 233.471128 241.977211 
L 233.56784 239.967416 
L 233.639727 239.967416 
L 233.741794 238.46007 
L 233.777381 238.46007 
L 233.888281 235.947826 
L 233.899583 235.947826 
L 233.997882 234.691704 
L 234.012471 234.691704 
L 234.119413 231.677011 
L 234.125125 231.677011 
L 234.233215 227.908645 
L 234.249527 227.908645 
L 234.348543 225.89885 
L 234.372527 225.89885 
L 234.48337 222.632932 
L 234.508329 222.632932 
L 234.619181 221.125586 
L 234.619629 221.125586 
L 234.716036 219.115791 
L 234.761231 219.115791 
L 234.870678 216.854771 
L 234.879452 216.854771 
L 234.98793 213.588854 
L 234.990972 213.588854 
L 235.092527 210.825386 
L 235.163678 210.825386 
L 235.253642 208.564366 
L 235.310656 208.564366 
L 235.393729 206.554571 
L 235.43241 206.554571 
L 235.509097 203.288654 
L 235.548356 203.288654 
L 235.650684 200.273961 
L 235.662819 200.273961 
L 235.771113 197.510492 
L 235.797638 197.510492 
L 235.901342 194.4958 
L 235.910435 194.4958 
L 235.998953 190.727434 
L 236.028083 190.727434 
L 236.136915 188.21519 
L 236.143892 188.21519 
L 236.253168 185.702946 
L 236.255126 185.702946 
L 236.328611 183.190702 
L 236.367444 183.190702 
L 236.462597 180.176009 
L 236.47902 180.176009 
L 236.581501 176.910092 
L 236.591271 176.910092 
L 236.699153 173.895399 
L 236.706503 173.895399 
L 236.805737 170.127033 
L 236.835065 170.127033 
L 236.905134 167.11234 
L 236.958766 167.11234 
L 237.052899 164.348871 
L 237.073792 164.348871 
L 237.164907 162.087852 
L 237.187272 162.087852 
L 237.27881 158.57071 
L 237.305338 158.57071 
L 237.414151 155.556017 
L 237.427463 155.556017 
L 237.53639 153.294998 
L 237.54576 153.294998 
L 237.639043 150.531529 
L 237.657142 150.531529 
L 237.764518 145.758266 
L 237.770269 145.758266 
L 237.878371 143.246022 
L 237.912772 143.246022 
L 238.00982 140.231329 
L 238.036385 140.231329 
L 238.142493 136.965412 
L 238.159509 136.965412 
L 238.256641 133.44827 
L 238.278575 133.44827 
L 238.389143 130.433577 
L 238.408467 130.433577 
L 238.513223 128.172558 
L 238.52123 128.172558 
L 238.612124 125.157865 
L 238.637732 125.157865 
L 238.748801 122.143172 
L 238.752711 122.143172 
L 238.862917 119.882153 
L 238.882476 119.882153 
L 238.980844 118.626031 
L 239.005285 118.626031 
L 239.114294 116.113786 
L 239.130981 116.113786 
L 239.213519 114.857664 
L 239.280577 114.857664 
L 239.365933 112.34542 
L 239.415205 112.34542 
L 239.52383 110.58685 
L 239.532967 110.58685 
L 239.593265 108.577054 
L 239.658492 108.577054 
L 239.707203 107.572157 
L 239.793677 107.572157 
L 239.862363 106.567259 
L 239.905661 106.567259 
L 240.009761 104.557464 
L 240.050493 104.557464 
L 240.139897 103.050118 
L 240.16307 103.050118 
L 240.270983 102.04522 
L 240.316793 102.04522 
L 240.388285 100.035425 
L 240.443376 100.035425 
L 240.540246 99.030527 
L 240.565989 99.030527 
L 240.646076 98.02563 
L 240.748415 98.02563 
L 240.810159 96.769508 
L 240.874099 96.769508 
L 240.907142 96.015834 
L 241.04932 96.015834 
L 241.128587 94.257264 
L 241.161708 94.257264 
L 241.266146 93.252366 
L 241.302823 93.252366 
L 241.332101 92.247468 
L 241.435129 92.247468 
L 241.506337 91.242571 
L 241.585377 91.242571 
L 241.608203 90.740122 
L 241.697278 90.740122 
L 241.754049 89.735224 
L 241.854669 89.735224 
L 241.944258 88.479102 
L 241.987716 88.479102 
L 242.090292 87.22298 
L 242.126618 87.22298 
L 242.199212 86.218083 
L 242.250686 86.218083 
L 242.34397 85.213185 
L 242.365123 85.213185 
L 242.46972 84.208288 
L 242.568052 84.208288 
L 242.673234 82.952166 
L 242.741059 82.952166 
L 242.849531 81.444819 
L 242.863567 81.444819 
L 242.95739 79.435024 
L 243.026352 79.435024 
L 243.089721 78.178902 
L 243.152297 78.178902 
L 243.262701 77.174004 
L 243.366064 77.174004 
L 243.431932 76.671556 
L 243.482474 76.671556 
L 243.524774 76.169107 
L 243.723049 76.169107 
L 243.831969 74.912985 
L 243.862646 74.912985 
L 243.948508 73.656863 
L 244.00069 73.656863 
L 244.096287 72.400741 
L 244.166075 72.400741 
L 244.274995 70.139721 
L 244.306049 70.139721 
L 244.408997 68.632375 
L 244.454727 68.632375 
L 244.454727 68.38115 
L 244.587864 68.38115 
L 244.587864 68.129926 
L 244.704274 68.129926 
L 244.771423 66.873804 
L 244.980616 66.873804 
L 245.064689 65.868906 
L 245.101231 65.868906 
L 245.155928 64.612784 
L 245.32516 64.612784 
L 245.371145 63.859111 
L 245.469065 63.859111 
L 245.577985 63.105438 
L 245.615571 63.105438 
L 245.693999 62.10054 
L 245.803947 62.10054 
L 245.862849 61.346867 
L 245.979259 61.346867 
L 246.083338 59.337072 
L 246.14849 59.337072 
L 246.197931 58.583399 
L 246.302224 58.583399 
L 246.40092 58.08095 
L 246.439077 58.08095 
L 246.51733 57.327277 
L 246.55963 57.327277 
L 246.649595 56.573603 
L 246.694689 56.573603 
L 246.790259 55.568706 
L 246.810705 55.568706 
L 246.920337 53.056462 
L 246.928727 53.056462 
L 247.016931 51.80034 
L 247.125554 51.80034 
L 247.167854 51.046667 
L 247.357233 51.046667 
L 247.466153 50.041769 
L 247.580674 50.041769 
L 247.664838 49.53932 
L 247.742067 49.53932 
L 247.823547 48.534423 
L 247.937044 48.534423 
L 247.937044 48.283198 
L 248.068736 48.283198 
L 248.141338 47.027076 
L 248.224273 47.027076 
L 248.315554 45.51973 
L 248.337742 45.51973 
L 248.446305 44.012383 
L 248.455692 44.012383 
L 248.542429 43.25871 
L 248.650427 43.25871 
L 248.703933 42.002588 
L 248.782294 42.002588 
L 248.848581 41.500139 
L 248.945942 41.500139 
L 249.039766 40.746466 
L 249.063642 40.746466 
L 249.168409 40.244017 
L 249.175787 40.244017 
L 249.258652 39.490344 
L 249.338405 39.490344 
L 249.426089 37.982998 
L 249.512952 37.982998 
L 249.585554 36.224427 
L 249.630235 36.224427 
L 249.682948 35.219529 
L 249.852804 35.219529 
L 249.954394 33.963407 
L 249.980303 33.963407 
L 250.051787 33.460959 
L 250.101393 33.460959 
L 250.184684 32.707285 
L 250.228891 32.707285 
L 250.323491 30.69749 
L 250.343733 30.69749 
L 250.441126 29.441368 
L 250.490016 29.441368 
L 250.5921 28.185246 
L 250.660012 28.185246 
L 250.710539 27.682797 
L 251.145709 27.682797 
L 251.218311 26.6779 
L 251.299021 26.6779 
L 251.385115 25.673002 
L 251.415431 25.673002 
L 251.457731 24.919329 
L 251.560427 24.919329 
L 251.661337 23.663207 
L 251.729658 23.663207 
L 251.775845 22.658309 
L 251.841069 22.658309 
L 251.938462 22.155861 
L 252.098498 22.155861 
L 252.098498 21.904636 
L 252.394013 21.904636 
L 252.487836 21.150963 
L 252.597668 21.150963 
L 252.706722 20.146065 
L 252.802354 20.146065 
L 252.899103 19.392392 
L 252.964327 19.392392 
L 253.061721 18.889943 
L 253.362415 18.889943 
L 253.362415 18.638719 
L 253.548528 18.638719 
L 253.548528 18.387495 
L 253.779801 18.387495 
L 253.888815 17.382597 
L 253.919939 17.382597 
L 253.985173 16.880148 
L 254.135777 16.880148 
L 254.135777 16.628924 
L 254.263275 16.628924 
L 254.263275 16.377699 
L 254.47907 16.377699 
L 254.47907 16.126475 
L 254.779893 16.126475 
L 254.890336 15.121577 
L 254.949889 15.121577 
L 254.949889 14.870353 
L 255.108431 14.870353 
L 255.108431 14.619129 
L 255.248318 14.619129 
L 255.326306 14.11668 
L 255.453005 14.11668 
L 255.453805 13.614231 
L 256.407315 13.614231 
L 256.407315 13.363007 
L 256.635407 13.363007 
L 256.635407 13.111782 
L 256.996599 13.111782 
L 256.996599 12.860558 
L 257.110276 12.860558 
L 257.110276 12.609333 
L 257.314962 12.609333 
L 257.314962 12.358109 
L 257.534471 12.358109 
L 257.534471 12.106885 
L 258.061915 12.106885 
L 258.061915 11.85566 
L 258.808463 11.85566 
L 258.808463 11.604436 
L 259.462716 11.604436 
L 259.462716 11.353211 
L 260.245954 11.353211 
L 260.245954 11.101987 
L 260.373453 11.101987 
L 260.373453 10.850763 
L 260.712565 10.850763 
L 260.736708 10.348314 
L 262.174199 10.348314 
L 262.174199 10.097089 
L 262.301698 10.097089 
L 262.301698 9.845865 
L 262.574522 9.845865 
L 262.574522 9.594641 
L 262.807052 9.594641 
L 262.807052 9.343416 
L 263.011738 9.343416 
L 263.011738 9.092192 
L 265.862453 9.092192 
L 265.862453 8.840967 
L 266.067139 8.840967 
L 266.067139 8.589743 
L 267.136445 8.589743 
L 267.136445 8.338519 
L 267.341131 8.338519 
L 267.341131 8.087294 
L 268.271299 8.087294 
L 268.271299 7.83607 
L 268.573936 7.83607 
L 268.573936 7.584845 
L 268.701435 7.584845 
L 268.778622 7.082397 
L 268.906121 7.082397 
L 268.906121 6.831172 
L 271.3267 6.831172 
L 271.3267 6.579948 
L 272.600692 6.579948 
L 272.600692 6.328723 
L 274.038183 6.328723 
L 274.038183 6.077499 
L 274.165682 6.077499 
L 274.165682 5.826275 
L 453.192 5.826275 
L 453.192 5.826275 
" clip-path="url(#p7afb0b5b73)" style="fill: none; stroke: #ff0000; stroke-width: 3; stroke-linecap: square"/>
   </g>
   <g id="line2d_56">
    <path clip-path="url(#p7afb0b5b73)" style="fill: none; stroke: #ff0000; stroke-width: 3; stroke-linecap: square"/>
   </g>
   <g id="line2d_57">
    <path d="M 243.676 291.28 
L 243.676 3 
" clip-path="url(#p7afb0b5b73)" style="fill: none; stroke: #000000; stroke-width: 1.5; stroke-linecap: square"/>
   </g>
   <g id="line2d_58">
    <path d="M 34.16 147.14 
L 453.192 147.14 
" clip-path="url(#p7afb0b5b73)" style="fill: none; stroke-dasharray: 2,3.3; stroke-dashoffset: 0; stroke: #000000; stroke-width: 2"/>
   </g>
   <g id="patch_3">
    <path d="M 34.16 291.28 
L 34.16 3 
" style="fill: none; stroke: #000000; stroke-width: 0.8; stroke-linejoin: miter; stroke-linecap: square"/>
   </g>
   <g id="patch_4">
    <path d="M 453.192 291.28 
L 453.192 3 
" style="fill: none; stroke: #000000; stroke-width: 0.8; stroke-linejoin: miter; stroke-linecap: square"/>
   </g>
   <g id="patch_5">
    <path d="M 34.16 291.28 
L 453.192 291.28 
" style="fill: none; stroke: #000000; stroke-width: 0.8; stroke-linejoin: miter; stroke-linecap: square"/>
   </g>
   <g id="patch_6">
    <path d="M 34.16 3 
L 453.192 3 
" style="fill: none; stroke: #000000; stroke-width: 0.8; stroke-linejoin: miter; stroke-linecap: square"/>
   </g>
   <g id="text_6">
    <!-- f10-f14,5-D -->
    <g transform="translate(330.91761 285.5144)scale(0.2 -0.2)">
     <defs>
      <path id="DejaVuSans-34" d="M 2419 4116 
L 825 1625 
L 2419 1625 
L 2419 4116 
z
M 2253 4666 
L 3047 4666 
L 3047 1625 
L 3713 1625 
L 3713 1100 
L 3047 1100 
L 3047 0 
L 2419 0 
L 2419 1100 
L 313 1100 
L 313 1709 
L 2253 4666 
z
" transform="scale(0.015625)"/>
      <path id="DejaVuSans-2c" d="M 750 794 
L 1409 794 
L 1409 256 
L 897 -744 
L 494 -744 
L 750 256 
L 750 794 
z
" transform="scale(0.015625)"/>
      <path id="DejaVuSans-35" d="M 691 4666 
L 3169 4666 
L 3169 4134 
L 1269 4134 
L 1269 2991 
Q 1406 3038 1543 3061 
Q 1681 3084 1819 3084 
Q 2600 3084 3056 2656 
Q 3513 2228 3513 1497 
Q 3513 744 3044 326 
Q 2575 -91 1722 -91 
Q 1428 -91 1123 -41 
Q 819 9 494 109 
L 494 744 
Q 775 591 1075 516 
Q 1375 441 1709 441 
Q 2250 441 2565 725 
Q 2881 1009 2881 1497 
Q 2881 1984 2565 2268 
Q 2250 2553 1709 2553 
Q 1456 2553 1204 2497 
Q 953 2441 691 2322 
L 691 4666 
z
" transform="scale(0.015625)"/>
      <path id="DejaVuSans-44" d="M 1259 4147 
L 1259 519 
L 2022 519 
Q 2988 519 3436 956 
Q 3884 1394 3884 2338 
Q 3884 3275 3436 3711 
Q 2988 4147 2022 4147 
L 1259 4147 
z
M 628 4666 
L 1925 4666 
Q 3281 4666 3915 4102 
Q 4550 3538 4550 2338 
Q 4550 1131 3912 565 
Q 3275 0 1925 0 
L 628 0 
L 628 4666 
z
" transform="scale(0.015625)"/>
     </defs>
     <use xlink:href="#DejaVuSans-66"/>
     <use xlink:href="#DejaVuSans-31" x="35.205078"/>
     <use xlink:href="#DejaVuSans-30" x="98.828125"/>
     <use xlink:href="#DejaVuSans-2d" x="162.451172"/>
     <use xlink:href="#DejaVuSans-66" x="198.535156"/>
     <use xlink:href="#DejaVuSans-31" x="233.740234"/>
     <use xlink:href="#DejaVuSans-34" x="297.363281"/>
     <use xlink:href="#DejaVuSans-2c" x="360.986328"/>
     <use xlink:href="#DejaVuSans-35" x="392.773438"/>
     <use xlink:href="#DejaVuSans-2d" x="456.396484"/>
     <use xlink:href="#DejaVuSans-44" x="492.480469"/>
    </g>
   </g>
   <g id="text_7">
    <!-- v2.6.3 -->
    <g style="fill: #808080" transform="translate(227.99475 286.317512)scale(0.1 -0.1)">
     <defs>
      <path id="DejaVuSans-32" d="M 1228 531 
L 3431 531 
L 3431 0 
L 469 0 
L 469 531 
Q 828 903 1448 1529 
Q 2069 2156 2228 2338 
Q 2531 2678 2651 2914 
Q 2772 3150 2772 3378 
Q 2772 3750 2511 3984 
Q 2250 4219 1831 4219 
Q 1534 4219 1204 4116 
Q 875 4013 500 3803 
L 500 4441 
Q 881 4594 1212 4672 
Q 1544 4750 1819 4750 
Q 2544 4750 2975 4387 
Q 3406 4025 3406 3419 
Q 3406 3131 3298 2873 
Q 3191 2616 2906 2266 
Q 2828 2175 2409 1742 
Q 1991 1309 1228 531 
z
" transform="scale(0.015625)"/>
      <path id="DejaVuSans-2e" d="M 684 794 
L 1344 794 
L 1344 0 
L 684 0 
L 684 794 
z
" transform="scale(0.015625)"/>
      <path id="DejaVuSans-36" d="M 2113 2584 
Q 1688 2584 1439 2293 
Q 1191 2003 1191 1497 
Q 1191 994 1439 701 
Q 1688 409 2113 409 
Q 2538 409 2786 701 
Q 3034 994 3034 1497 
Q 3034 2003 2786 2293 
Q 2538 2584 2113 2584 
z
M 3366 4563 
L 3366 3988 
Q 3128 4100 2886 4159 
Q 2644 4219 2406 4219 
Q 1781 4219 1451 3797 
Q 1122 3375 1075 2522 
Q 1259 2794 1537 2939 
Q 1816 3084 2150 3084 
Q 2853 3084 3261 2657 
Q 3669 2231 3669 1497 
Q 3669 778 3244 343 
Q 2819 -91 2113 -91 
Q 1303 -91 875 529 
Q 447 1150 447 2328 
Q 447 3434 972 4092 
Q 1497 4750 2381 4750 
Q 2619 4750 2861 4703 
Q 3103 4656 3366 4563 
z
" transform="scale(0.015625)"/>
      <path id="DejaVuSans-33" d="M 2597 2516 
Q 3050 2419 3304 2112 
Q 3559 1806 3559 1356 
Q 3559 666 3084 287 
Q 2609 -91 1734 -91 
Q 1441 -91 1130 -33 
Q 819 25 488 141 
L 488 750 
Q 750 597 1062 519 
Q 1375 441 1716 441 
Q 2309 441 2620 675 
Q 2931 909 2931 1356 
Q 2931 1769 2642 2001 
Q 2353 2234 1838 2234 
L 1294 2234 
L 1294 2753 
L 1863 2753 
Q 2328 2753 2575 2939 
Q 2822 3125 2822 3475 
Q 2822 3834 2567 4026 
Q 2313 4219 1838 4219 
Q 1578 4219 1281 4162 
Q 984 4106 628 3988 
L 628 4550 
Q 988 4650 1302 4700 
Q 1616 4750 1894 4750 
Q 2613 4750 3031 4423 
Q 3450 4097 3450 3541 
Q 3450 3153 3228 2886 
Q 3006 2619 2597 2516 
z
" transform="scale(0.015625)"/>
     </defs>
     <use xlink:href="#DejaVuSans-76"/>
     <use xlink:href="#DejaVuSans-32" x="59.179688"/>
     <use xlink:href="#DejaVuSans-2e" x="122.802734"/>
     <use xlink:href="#DejaVuSans-36" x="154.589844"/>
     <use xlink:href="#DejaVuSans-2e" x="218.212891"/>
     <use xlink:href="#DejaVuSans-33" x="250"/>
    </g>
   </g>
   <g id="legend_1">
    <g id="patch_7">
     <path d="M 48.16 136.425 
L 177.381875 136.425 
Q 181.381875 136.425 181.381875 132.425 
L 181.381875 17 
Q 181.381875 13 177.381875 13 
L 48.16 13 
Q 44.16 13 44.16 17 
L 44.16 132.425 
Q 44.16 136.425 48.16 136.425 
z
" style="fill: #ffffff; opacity: 0.2; stroke: #cccccc; stroke-linejoin: miter"/>
    </g>
    <g id="line2d_59">
     <path d="M 52.16 29.196875 
L 72.16 29.196875 
L 92.16 29.196875 
" style="fill: none; stroke: #000000; stroke-width: 3; stroke-linecap: square"/>
    </g>
    <g id="text_8">
     <!-- 1: 5/5 -->
     <g transform="translate(108.16 36.196875)scale(0.2 -0.2)">
      <defs>
       <path id="DejaVuSans-3a" d="M 750 794 
L 1409 794 
L 1409 0 
L 750 0 
L 750 794 
z
M 750 3309 
L 1409 3309 
L 1409 2516 
L 750 2516 
L 750 3309 
z
" transform="scale(0.015625)"/>
       <path id="DejaVuSans-2f" d="M 1625 4666 
L 2156 4666 
L 531 -594 
L 0 -594 
L 1625 4666 
z
" transform="scale(0.015625)"/>
      </defs>
      <use xlink:href="#DejaVuSans-31"/>
      <use xlink:href="#DejaVuSans-3a" x="63.623047"/>
      <use xlink:href="#DejaVuSans-20" x="97.314453"/>
      <use xlink:href="#DejaVuSans-35" x="129.101562"/>
      <use xlink:href="#DejaVuSans-2f" x="192.724609"/>
      <use xlink:href="#DejaVuSans-35" x="226.416016"/>
     </g>
    </g>
    <g id="line2d_60">
     <path d="M 52.16 58.553125 
L 72.16 58.553125 
L 92.16 58.553125 
" style="fill: none; stroke: #00bfbf; stroke-width: 3; stroke-linecap: square"/>
    </g>
    <g id="text_9">
     <!-- -1: 5/5 -->
     <g transform="translate(108.16 65.553125)scale(0.2 -0.2)">
      <use xlink:href="#DejaVuSans-2d"/>
      <use xlink:href="#DejaVuSans-31" x="36.083984"/>
      <use xlink:href="#DejaVuSans-3a" x="99.707031"/>
      <use xlink:href="#DejaVuSans-20" x="133.398438"/>
      <use xlink:href="#DejaVuSans-35" x="165.185547"/>
      <use xlink:href="#DejaVuSans-2f" x="228.808594"/>
      <use xlink:href="#DejaVuSans-35" x="262.5"/>
     </g>
    </g>
    <g id="line2d_61">
     <path d="M 52.16 87.909375 
L 72.16 87.909375 
L 92.16 87.909375 
" style="fill: none; stroke: #bf00bf; stroke-width: 3; stroke-linecap: square"/>
    </g>
    <g id="text_10">
     <!-- -4: 5/5 -->
     <g transform="translate(108.16 94.909375)scale(0.2 -0.2)">
      <use xlink:href="#DejaVuSans-2d"/>
      <use xlink:href="#DejaVuSans-34" x="36.083984"/>
      <use xlink:href="#DejaVuSans-3a" x="99.707031"/>
      <use xlink:href="#DejaVuSans-20" x="133.398438"/>
      <use xlink:href="#DejaVuSans-35" x="165.185547"/>
      <use xlink:href="#DejaVuSans-2f" x="228.808594"/>
      <use xlink:href="#DejaVuSans-35" x="262.5"/>
     </g>
    </g>
    <g id="line2d_62">
     <path d="M 52.16 117.265625 
L 72.16 117.265625 
L 92.16 117.265625 
" style="fill: none; stroke: #ff0000; stroke-width: 3; stroke-linecap: square"/>
    </g>
    <g id="text_11">
     <!-- -8: 5/5 -->
     <g transform="translate(108.16 124.265625)scale(0.2 -0.2)">
      <defs>
       <path id="DejaVuSans-38" d="M 2034 2216 
Q 1584 2216 1326 1975 
Q 1069 1734 1069 1313 
Q 1069 891 1326 650 
Q 1584 409 2034 409 
Q 2484 409 2743 651 
Q 3003 894 3003 1313 
Q 3003 1734 2745 1975 
Q 2488 2216 2034 2216 
z
M 1403 2484 
Q 997 2584 770 2862 
Q 544 3141 544 3541 
Q 544 4100 942 4425 
Q 1341 4750 2034 4750 
Q 2731 4750 3128 4425 
Q 3525 4100 3525 3541 
Q 3525 3141 3298 2862 
Q 3072 2584 2669 2484 
Q 3125 2378 3379 2068 
Q 3634 1759 3634 1313 
Q 3634 634 3220 271 
Q 2806 -91 2034 -91 
Q 1263 -91 848 271 
Q 434 634 434 1313 
Q 434 1759 690 2068 
Q 947 2378 1403 2484 
z
M 1172 3481 
Q 1172 3119 1398 2916 
Q 1625 2713 2034 2713 
Q 2441 2713 2670 2916 
Q 2900 3119 2900 3481 
Q 2900 3844 2670 4047 
Q 2441 4250 2034 4250 
Q 1625 4250 1398 4047 
Q 1172 3844 1172 3481 
z
" transform="scale(0.015625)"/>
      </defs>
      <use xlink:href="#DejaVuSans-2d"/>
      <use xlink:href="#DejaVuSans-38" x="36.083984"/>
      <use xlink:href="#DejaVuSans-3a" x="99.707031"/>
      <use xlink:href="#DejaVuSans-20" x="133.398438"/>
      <use xlink:href="#DejaVuSans-35" x="165.185547"/>
      <use xlink:href="#DejaVuSans-2f" x="228.808594"/>
      <use xlink:href="#DejaVuSans-35" x="262.5"/>
     </g>
    </g>
   </g>
  </g>
 </g>
 <defs>
  <clipPath id="p7afb0b5b73">
   <rect x="34.16" y="3" width="419.032" height="288.28"/>
  </clipPath>
 </defs>
</svg>
