<?xml version="1.0" encoding="utf-8" standalone="no"?>
<!DOCTYPE svg PUBLIC "-//W3C//DTD SVG 1.1//EN"
  "http://www.w3.org/Graphics/SVG/1.1/DTD/svg11.dtd">
<svg xmlns:xlink="http://www.w3.org/1999/xlink" width="460.8pt" height="345.6pt" viewBox="0 0 460.8 345.6" xmlns="http://www.w3.org/2000/svg" version="1.1">
 <metadata>
  <rdf:RDF xmlns:dc="http://purl.org/dc/elements/1.1/" xmlns:cc="http://creativecommons.org/ns#" xmlns:rdf="http://www.w3.org/1999/02/22-rdf-syntax-ns#">
   <cc:Work>
    <dc:type rdf:resource="http://purl.org/dc/dcmitype/StillImage"/>
    <dc:date>2024-06-19T19:28:25.758795</dc:date>
    <dc:format>image/svg+xml</dc:format>
    <dc:creator>
     <cc:Agent>
      <dc:title>Matplotlib v3.5.2, https://matplotlib.org/</dc:title>
     </cc:Agent>
    </dc:creator>
   </cc:Work>
  </rdf:RDF>
 </metadata>
 <defs>
  <style type="text/css">*{stroke-linejoin: round; stroke-linecap: butt}</style>
 </defs>
 <g id="figure_1">
  <g id="patch_1">
   <path d="M 0 345.6 
L 460.8 345.6 
L 460.8 0 
L 0 0 
z
" style="fill: #ffffff"/>
  </g>
  <g id="axes_1">
   <g id="patch_2">
    <path d="M 34.16 291.28 
L 453.192 291.28 
L 453.192 3 
L 34.16 3 
z
" style="fill: #ffffff"/>
   </g>
   <g id="matplotlib.axis_1">
    <g id="xtick_1">
     <g id="line2d_1">
      <path d="M 135.850961 291.28 
L 135.850961 3 
" clip-path="url(#p019d015e92)" style="fill: none; stroke: #b0b0b0; stroke-width: 0.8; stroke-linecap: square"/>
     </g>
     <g id="line2d_2">
      <defs>
       <path id="m99321ec257" d="M 0 0 
L 0 3.5 
" style="stroke: #000000; stroke-width: 0.8"/>
      </defs>
      <g>
       <use xlink:href="#m99321ec257" x="135.850961" y="291.28" style="stroke: #000000; stroke-width: 0.8"/>
      </g>
     </g>
     <g id="text_1">
      <!-- -1 -->
      <g transform="translate(125.880649 313.476875)scale(0.2 -0.2)">
       <defs>
        <path id="DejaVuSans-2d" d="M 313 2009 
L 1997 2009 
L 1997 1497 
L 313 1497 
L 313 2009 
z
" transform="scale(0.015625)"/>
        <path id="DejaVuSans-31" d="M 794 531 
L 1825 531 
L 1825 4091 
L 703 3866 
L 703 4441 
L 1819 4666 
L 2450 4666 
L 2450 531 
L 3481 531 
L 3481 0 
L 794 0 
L 794 531 
z
" transform="scale(0.015625)"/>
       </defs>
       <use xlink:href="#DejaVuSans-2d"/>
       <use xlink:href="#DejaVuSans-31" x="36.083984"/>
      </g>
     </g>
    </g>
    <g id="xtick_2">
     <g id="line2d_3">
      <path d="M 243.676 291.28 
L 243.676 3 
" clip-path="url(#p019d015e92)" style="fill: none; stroke: #b0b0b0; stroke-width: 0.8; stroke-linecap: square"/>
     </g>
     <g id="line2d_4">
      <g>
       <use xlink:href="#m99321ec257" x="243.676" y="291.28" style="stroke: #000000; stroke-width: 0.8"/>
      </g>
     </g>
     <g id="text_2">
      <!-- 0 -->
      <g transform="translate(237.3135 313.476875)scale(0.2 -0.2)">
       <defs>
        <path id="DejaVuSans-30" d="M 2034 4250 
Q 1547 4250 1301 3770 
Q 1056 3291 1056 2328 
Q 1056 1369 1301 889 
Q 1547 409 2034 409 
Q 2525 409 2770 889 
Q 3016 1369 3016 2328 
Q 3016 3291 2770 3770 
Q 2525 4250 2034 4250 
z
M 2034 4750 
Q 2819 4750 3233 4129 
Q 3647 3509 3647 2328 
Q 3647 1150 3233 529 
Q 2819 -91 2034 -91 
Q 1250 -91 836 529 
Q 422 1150 422 2328 
Q 422 3509 836 4129 
Q 1250 4750 2034 4750 
z
" transform="scale(0.015625)"/>
       </defs>
       <use xlink:href="#DejaVuSans-30"/>
      </g>
     </g>
    </g>
    <g id="xtick_3">
     <g id="line2d_5">
      <path d="M 351.501039 291.28 
L 351.501039 3 
" clip-path="url(#p019d015e92)" style="fill: none; stroke: #b0b0b0; stroke-width: 0.8; stroke-linecap: square"/>
     </g>
     <g id="line2d_6">
      <g>
       <use xlink:href="#m99321ec257" x="351.501039" y="291.28" style="stroke: #000000; stroke-width: 0.8"/>
      </g>
     </g>
     <g id="text_3">
      <!-- 1 -->
      <g transform="translate(345.138539 313.476875)scale(0.2 -0.2)">
       <use xlink:href="#DejaVuSans-31"/>
      </g>
     </g>
    </g>
    <g id="xtick_4">
     <g id="line2d_7">
      <defs>
       <path id="mad0dba18b7" d="M 0 0 
L 0 2 
" style="stroke: #000000; stroke-width: 0.6"/>
      </defs>
      <g>
       <use xlink:href="#mad0dba18b7" x="60.484494" y="291.28" style="stroke: #000000; stroke-width: 0.6"/>
      </g>
     </g>
    </g>
    <g id="xtick_5">
     <g id="line2d_8">
      <g>
       <use xlink:href="#mad0dba18b7" x="79.47154" y="291.28" style="stroke: #000000; stroke-width: 0.6"/>
      </g>
     </g>
    </g>
    <g id="xtick_6">
     <g id="line2d_9">
      <g>
       <use xlink:href="#mad0dba18b7" x="92.943065" y="291.28" style="stroke: #000000; stroke-width: 0.6"/>
      </g>
     </g>
    </g>
    <g id="xtick_7">
     <g id="line2d_10">
      <g>
       <use xlink:href="#mad0dba18b7" x="103.39239" y="291.28" style="stroke: #000000; stroke-width: 0.6"/>
      </g>
     </g>
    </g>
    <g id="xtick_8">
     <g id="line2d_11">
      <g>
       <use xlink:href="#mad0dba18b7" x="111.930111" y="291.28" style="stroke: #000000; stroke-width: 0.6"/>
      </g>
     </g>
    </g>
    <g id="xtick_9">
     <g id="line2d_12">
      <g>
       <use xlink:href="#mad0dba18b7" x="119.148652" y="291.28" style="stroke: #000000; stroke-width: 0.6"/>
      </g>
     </g>
    </g>
    <g id="xtick_10">
     <g id="line2d_13">
      <g>
       <use xlink:href="#mad0dba18b7" x="125.401635" y="291.28" style="stroke: #000000; stroke-width: 0.6"/>
      </g>
     </g>
    </g>
    <g id="xtick_11">
     <g id="line2d_14">
      <g>
       <use xlink:href="#mad0dba18b7" x="130.917158" y="291.28" style="stroke: #000000; stroke-width: 0.6"/>
      </g>
     </g>
    </g>
    <g id="xtick_12">
     <g id="line2d_15">
      <g>
       <use xlink:href="#mad0dba18b7" x="168.309532" y="291.28" style="stroke: #000000; stroke-width: 0.6"/>
      </g>
     </g>
    </g>
    <g id="xtick_13">
     <g id="line2d_16">
      <g>
       <use xlink:href="#mad0dba18b7" x="187.296579" y="291.28" style="stroke: #000000; stroke-width: 0.6"/>
      </g>
     </g>
    </g>
    <g id="xtick_14">
     <g id="line2d_17">
      <g>
       <use xlink:href="#mad0dba18b7" x="200.768103" y="291.28" style="stroke: #000000; stroke-width: 0.6"/>
      </g>
     </g>
    </g>
    <g id="xtick_15">
     <g id="line2d_18">
      <g>
       <use xlink:href="#mad0dba18b7" x="211.217429" y="291.28" style="stroke: #000000; stroke-width: 0.6"/>
      </g>
     </g>
    </g>
    <g id="xtick_16">
     <g id="line2d_19">
      <g>
       <use xlink:href="#mad0dba18b7" x="219.75515" y="291.28" style="stroke: #000000; stroke-width: 0.6"/>
      </g>
     </g>
    </g>
    <g id="xtick_17">
     <g id="line2d_20">
      <g>
       <use xlink:href="#mad0dba18b7" x="226.97369" y="291.28" style="stroke: #000000; stroke-width: 0.6"/>
      </g>
     </g>
    </g>
    <g id="xtick_18">
     <g id="line2d_21">
      <g>
       <use xlink:href="#mad0dba18b7" x="233.226674" y="291.28" style="stroke: #000000; stroke-width: 0.6"/>
      </g>
     </g>
    </g>
    <g id="xtick_19">
     <g id="line2d_22">
      <g>
       <use xlink:href="#mad0dba18b7" x="238.742197" y="291.28" style="stroke: #000000; stroke-width: 0.6"/>
      </g>
     </g>
    </g>
    <g id="xtick_20">
     <g id="line2d_23">
      <g>
       <use xlink:href="#mad0dba18b7" x="276.134571" y="291.28" style="stroke: #000000; stroke-width: 0.6"/>
      </g>
     </g>
    </g>
    <g id="xtick_21">
     <g id="line2d_24">
      <g>
       <use xlink:href="#mad0dba18b7" x="295.121618" y="291.28" style="stroke: #000000; stroke-width: 0.6"/>
      </g>
     </g>
    </g>
    <g id="xtick_22">
     <g id="line2d_25">
      <g>
       <use xlink:href="#mad0dba18b7" x="308.593142" y="291.28" style="stroke: #000000; stroke-width: 0.6"/>
      </g>
     </g>
    </g>
    <g id="xtick_23">
     <g id="line2d_26">
      <g>
       <use xlink:href="#mad0dba18b7" x="319.042468" y="291.28" style="stroke: #000000; stroke-width: 0.6"/>
      </g>
     </g>
    </g>
    <g id="xtick_24">
     <g id="line2d_27">
      <g>
       <use xlink:href="#mad0dba18b7" x="327.580189" y="291.28" style="stroke: #000000; stroke-width: 0.6"/>
      </g>
     </g>
    </g>
    <g id="xtick_25">
     <g id="line2d_28">
      <g>
       <use xlink:href="#mad0dba18b7" x="334.798729" y="291.28" style="stroke: #000000; stroke-width: 0.6"/>
      </g>
     </g>
    </g>
    <g id="xtick_26">
     <g id="line2d_29">
      <g>
       <use xlink:href="#mad0dba18b7" x="341.051713" y="291.28" style="stroke: #000000; stroke-width: 0.6"/>
      </g>
     </g>
    </g>
    <g id="xtick_27">
     <g id="line2d_30">
      <g>
       <use xlink:href="#mad0dba18b7" x="346.567235" y="291.28" style="stroke: #000000; stroke-width: 0.6"/>
      </g>
     </g>
    </g>
    <g id="xtick_28">
     <g id="line2d_31">
      <g>
       <use xlink:href="#mad0dba18b7" x="383.95961" y="291.28" style="stroke: #000000; stroke-width: 0.6"/>
      </g>
     </g>
    </g>
    <g id="xtick_29">
     <g id="line2d_32">
      <g>
       <use xlink:href="#mad0dba18b7" x="402.946656" y="291.28" style="stroke: #000000; stroke-width: 0.6"/>
      </g>
     </g>
    </g>
    <g id="xtick_30">
     <g id="line2d_33">
      <g>
       <use xlink:href="#mad0dba18b7" x="416.41818" y="291.28" style="stroke: #000000; stroke-width: 0.6"/>
      </g>
     </g>
    </g>
    <g id="xtick_31">
     <g id="line2d_34">
      <g>
       <use xlink:href="#mad0dba18b7" x="426.867506" y="291.28" style="stroke: #000000; stroke-width: 0.6"/>
      </g>
     </g>
    </g>
    <g id="xtick_32">
     <g id="line2d_35">
      <g>
       <use xlink:href="#mad0dba18b7" x="435.405227" y="291.28" style="stroke: #000000; stroke-width: 0.6"/>
      </g>
     </g>
    </g>
    <g id="xtick_33">
     <g id="line2d_36">
      <g>
       <use xlink:href="#mad0dba18b7" x="442.623767" y="291.28" style="stroke: #000000; stroke-width: 0.6"/>
      </g>
     </g>
    </g>
    <g id="xtick_34">
     <g id="line2d_37">
      <g>
       <use xlink:href="#mad0dba18b7" x="448.876751" y="291.28" style="stroke: #000000; stroke-width: 0.6"/>
      </g>
     </g>
    </g>
    <g id="text_4">
     <!-- log10 of FEvals ratio -->
     <g transform="translate(141.371312 336.833125)scale(0.2 -0.2)">
      <defs>
       <path id="DejaVuSans-6c" d="M 603 4863 
L 1178 4863 
L 1178 0 
L 603 0 
L 603 4863 
z
" transform="scale(0.015625)"/>
       <path id="DejaVuSans-6f" d="M 1959 3097 
Q 1497 3097 1228 2736 
Q 959 2375 959 1747 
Q 959 1119 1226 758 
Q 1494 397 1959 397 
Q 2419 397 2687 759 
Q 2956 1122 2956 1747 
Q 2956 2369 2687 2733 
Q 2419 3097 1959 3097 
z
M 1959 3584 
Q 2709 3584 3137 3096 
Q 3566 2609 3566 1747 
Q 3566 888 3137 398 
Q 2709 -91 1959 -91 
Q 1206 -91 779 398 
Q 353 888 353 1747 
Q 353 2609 779 3096 
Q 1206 3584 1959 3584 
z
" transform="scale(0.015625)"/>
       <path id="DejaVuSans-67" d="M 2906 1791 
Q 2906 2416 2648 2759 
Q 2391 3103 1925 3103 
Q 1463 3103 1205 2759 
Q 947 2416 947 1791 
Q 947 1169 1205 825 
Q 1463 481 1925 481 
Q 2391 481 2648 825 
Q 2906 1169 2906 1791 
z
M 3481 434 
Q 3481 -459 3084 -895 
Q 2688 -1331 1869 -1331 
Q 1566 -1331 1297 -1286 
Q 1028 -1241 775 -1147 
L 775 -588 
Q 1028 -725 1275 -790 
Q 1522 -856 1778 -856 
Q 2344 -856 2625 -561 
Q 2906 -266 2906 331 
L 2906 616 
Q 2728 306 2450 153 
Q 2172 0 1784 0 
Q 1141 0 747 490 
Q 353 981 353 1791 
Q 353 2603 747 3093 
Q 1141 3584 1784 3584 
Q 2172 3584 2450 3431 
Q 2728 3278 2906 2969 
L 2906 3500 
L 3481 3500 
L 3481 434 
z
" transform="scale(0.015625)"/>
       <path id="DejaVuSans-20" transform="scale(0.015625)"/>
       <path id="DejaVuSans-66" d="M 2375 4863 
L 2375 4384 
L 1825 4384 
Q 1516 4384 1395 4259 
Q 1275 4134 1275 3809 
L 1275 3500 
L 2222 3500 
L 2222 3053 
L 1275 3053 
L 1275 0 
L 697 0 
L 697 3053 
L 147 3053 
L 147 3500 
L 697 3500 
L 697 3744 
Q 697 4328 969 4595 
Q 1241 4863 1831 4863 
L 2375 4863 
z
" transform="scale(0.015625)"/>
       <path id="DejaVuSans-46" d="M 628 4666 
L 3309 4666 
L 3309 4134 
L 1259 4134 
L 1259 2759 
L 3109 2759 
L 3109 2228 
L 1259 2228 
L 1259 0 
L 628 0 
L 628 4666 
z
" transform="scale(0.015625)"/>
       <path id="DejaVuSans-45" d="M 628 4666 
L 3578 4666 
L 3578 4134 
L 1259 4134 
L 1259 2753 
L 3481 2753 
L 3481 2222 
L 1259 2222 
L 1259 531 
L 3634 531 
L 3634 0 
L 628 0 
L 628 4666 
z
" transform="scale(0.015625)"/>
       <path id="DejaVuSans-76" d="M 191 3500 
L 800 3500 
L 1894 563 
L 2988 3500 
L 3597 3500 
L 2284 0 
L 1503 0 
L 191 3500 
z
" transform="scale(0.015625)"/>
       <path id="DejaVuSans-61" d="M 2194 1759 
Q 1497 1759 1228 1600 
Q 959 1441 959 1056 
Q 959 750 1161 570 
Q 1363 391 1709 391 
Q 2188 391 2477 730 
Q 2766 1069 2766 1631 
L 2766 1759 
L 2194 1759 
z
M 3341 1997 
L 3341 0 
L 2766 0 
L 2766 531 
Q 2569 213 2275 61 
Q 1981 -91 1556 -91 
Q 1019 -91 701 211 
Q 384 513 384 1019 
Q 384 1609 779 1909 
Q 1175 2209 1959 2209 
L 2766 2209 
L 2766 2266 
Q 2766 2663 2505 2880 
Q 2244 3097 1772 3097 
Q 1472 3097 1187 3025 
Q 903 2953 641 2809 
L 641 3341 
Q 956 3463 1253 3523 
Q 1550 3584 1831 3584 
Q 2591 3584 2966 3190 
Q 3341 2797 3341 1997 
z
" transform="scale(0.015625)"/>
       <path id="DejaVuSans-73" d="M 2834 3397 
L 2834 2853 
Q 2591 2978 2328 3040 
Q 2066 3103 1784 3103 
Q 1356 3103 1142 2972 
Q 928 2841 928 2578 
Q 928 2378 1081 2264 
Q 1234 2150 1697 2047 
L 1894 2003 
Q 2506 1872 2764 1633 
Q 3022 1394 3022 966 
Q 3022 478 2636 193 
Q 2250 -91 1575 -91 
Q 1294 -91 989 -36 
Q 684 19 347 128 
L 347 722 
Q 666 556 975 473 
Q 1284 391 1588 391 
Q 1994 391 2212 530 
Q 2431 669 2431 922 
Q 2431 1156 2273 1281 
Q 2116 1406 1581 1522 
L 1381 1569 
Q 847 1681 609 1914 
Q 372 2147 372 2553 
Q 372 3047 722 3315 
Q 1072 3584 1716 3584 
Q 2034 3584 2315 3537 
Q 2597 3491 2834 3397 
z
" transform="scale(0.015625)"/>
       <path id="DejaVuSans-72" d="M 2631 2963 
Q 2534 3019 2420 3045 
Q 2306 3072 2169 3072 
Q 1681 3072 1420 2755 
Q 1159 2438 1159 1844 
L 1159 0 
L 581 0 
L 581 3500 
L 1159 3500 
L 1159 2956 
Q 1341 3275 1631 3429 
Q 1922 3584 2338 3584 
Q 2397 3584 2469 3576 
Q 2541 3569 2628 3553 
L 2631 2963 
z
" transform="scale(0.015625)"/>
       <path id="DejaVuSans-74" d="M 1172 4494 
L 1172 3500 
L 2356 3500 
L 2356 3053 
L 1172 3053 
L 1172 1153 
Q 1172 725 1289 603 
Q 1406 481 1766 481 
L 2356 481 
L 2356 0 
L 1766 0 
Q 1100 0 847 248 
Q 594 497 594 1153 
L 594 3053 
L 172 3053 
L 172 3500 
L 594 3500 
L 594 4494 
L 1172 4494 
z
" transform="scale(0.015625)"/>
       <path id="DejaVuSans-69" d="M 603 3500 
L 1178 3500 
L 1178 0 
L 603 0 
L 603 3500 
z
M 603 4863 
L 1178 4863 
L 1178 4134 
L 603 4134 
L 603 4863 
z
" transform="scale(0.015625)"/>
      </defs>
      <use xlink:href="#DejaVuSans-6c"/>
      <use xlink:href="#DejaVuSans-6f" x="27.783203"/>
      <use xlink:href="#DejaVuSans-67" x="88.964844"/>
      <use xlink:href="#DejaVuSans-31" x="152.441406"/>
      <use xlink:href="#DejaVuSans-30" x="216.064453"/>
      <use xlink:href="#DejaVuSans-20" x="279.6875"/>
      <use xlink:href="#DejaVuSans-6f" x="311.474609"/>
      <use xlink:href="#DejaVuSans-66" x="372.65625"/>
      <use xlink:href="#DejaVuSans-20" x="407.861328"/>
      <use xlink:href="#DejaVuSans-46" x="439.648438"/>
      <use xlink:href="#DejaVuSans-45" x="497.167969"/>
      <use xlink:href="#DejaVuSans-76" x="560.351562"/>
      <use xlink:href="#DejaVuSans-61" x="619.53125"/>
      <use xlink:href="#DejaVuSans-6c" x="680.810547"/>
      <use xlink:href="#DejaVuSans-73" x="708.59375"/>
      <use xlink:href="#DejaVuSans-20" x="760.693359"/>
      <use xlink:href="#DejaVuSans-72" x="792.480469"/>
      <use xlink:href="#DejaVuSans-61" x="833.59375"/>
      <use xlink:href="#DejaVuSans-74" x="894.873047"/>
      <use xlink:href="#DejaVuSans-69" x="934.082031"/>
      <use xlink:href="#DejaVuSans-6f" x="961.865234"/>
     </g>
    </g>
   </g>
   <g id="matplotlib.axis_2">
    <g id="ytick_1">
     <g id="line2d_38">
      <path d="M 34.16 288.453725 
L 453.192 288.453725 
" clip-path="url(#p019d015e92)" style="fill: none; stroke: #b0b0b0; stroke-width: 0.8; stroke-linecap: square"/>
     </g>
     <g id="line2d_39">
      <defs>
       <path id="mfcc2a3a3b0" d="M 0 0 
L -3.5 0 
" style="stroke: #000000; stroke-width: 0.8"/>
      </defs>
      <g>
       <use xlink:href="#mfcc2a3a3b0" x="34.16" y="288.453725" style="stroke: #000000; stroke-width: 0.8"/>
      </g>
     </g>
    </g>
    <g id="ytick_2">
     <g id="line2d_40">
      <path d="M 34.16 217.796863 
L 453.192 217.796863 
" clip-path="url(#p019d015e92)" style="fill: none; stroke: #b0b0b0; stroke-width: 0.8; stroke-linecap: square"/>
     </g>
     <g id="line2d_41">
      <g>
       <use xlink:href="#mfcc2a3a3b0" x="34.16" y="217.796863" style="stroke: #000000; stroke-width: 0.8"/>
      </g>
     </g>
    </g>
    <g id="ytick_3">
     <g id="line2d_42">
      <path d="M 34.16 147.14 
L 453.192 147.14 
" clip-path="url(#p019d015e92)" style="fill: none; stroke: #b0b0b0; stroke-width: 0.8; stroke-linecap: square"/>
     </g>
     <g id="line2d_43">
      <g>
       <use xlink:href="#mfcc2a3a3b0" x="34.16" y="147.14" style="stroke: #000000; stroke-width: 0.8"/>
      </g>
     </g>
    </g>
    <g id="ytick_4">
     <g id="line2d_44">
      <path d="M 34.16 76.483137 
L 453.192 76.483137 
" clip-path="url(#p019d015e92)" style="fill: none; stroke: #b0b0b0; stroke-width: 0.8; stroke-linecap: square"/>
     </g>
     <g id="line2d_45">
      <g>
       <use xlink:href="#mfcc2a3a3b0" x="34.16" y="76.483137" style="stroke: #000000; stroke-width: 0.8"/>
      </g>
     </g>
    </g>
    <g id="ytick_5">
     <g id="line2d_46">
      <path d="M 34.16 5.826275 
L 453.192 5.826275 
" clip-path="url(#p019d015e92)" style="fill: none; stroke: #b0b0b0; stroke-width: 0.8; stroke-linecap: square"/>
     </g>
     <g id="line2d_47">
      <g>
       <use xlink:href="#mfcc2a3a3b0" x="34.16" y="5.826275" style="stroke: #000000; stroke-width: 0.8"/>
      </g>
     </g>
    </g>
    <g id="text_5">
     <!-- proportion of trials -->
     <g transform="translate(19.000625 240.14625)rotate(-90)scale(0.2 -0.2)">
      <defs>
       <path id="DejaVuSans-70" d="M 1159 525 
L 1159 -1331 
L 581 -1331 
L 581 3500 
L 1159 3500 
L 1159 2969 
Q 1341 3281 1617 3432 
Q 1894 3584 2278 3584 
Q 2916 3584 3314 3078 
Q 3713 2572 3713 1747 
Q 3713 922 3314 415 
Q 2916 -91 2278 -91 
Q 1894 -91 1617 61 
Q 1341 213 1159 525 
z
M 3116 1747 
Q 3116 2381 2855 2742 
Q 2594 3103 2138 3103 
Q 1681 3103 1420 2742 
Q 1159 2381 1159 1747 
Q 1159 1113 1420 752 
Q 1681 391 2138 391 
Q 2594 391 2855 752 
Q 3116 1113 3116 1747 
z
" transform="scale(0.015625)"/>
       <path id="DejaVuSans-6e" d="M 3513 2113 
L 3513 0 
L 2938 0 
L 2938 2094 
Q 2938 2591 2744 2837 
Q 2550 3084 2163 3084 
Q 1697 3084 1428 2787 
Q 1159 2491 1159 1978 
L 1159 0 
L 581 0 
L 581 3500 
L 1159 3500 
L 1159 2956 
Q 1366 3272 1645 3428 
Q 1925 3584 2291 3584 
Q 2894 3584 3203 3211 
Q 3513 2838 3513 2113 
z
" transform="scale(0.015625)"/>
      </defs>
      <use xlink:href="#DejaVuSans-70"/>
      <use xlink:href="#DejaVuSans-72" x="63.476562"/>
      <use xlink:href="#DejaVuSans-6f" x="102.339844"/>
      <use xlink:href="#DejaVuSans-70" x="163.521484"/>
      <use xlink:href="#DejaVuSans-6f" x="226.998047"/>
      <use xlink:href="#DejaVuSans-72" x="288.179688"/>
      <use xlink:href="#DejaVuSans-74" x="329.292969"/>
      <use xlink:href="#DejaVuSans-69" x="368.501953"/>
      <use xlink:href="#DejaVuSans-6f" x="396.285156"/>
      <use xlink:href="#DejaVuSans-6e" x="457.466797"/>
      <use xlink:href="#DejaVuSans-20" x="520.845703"/>
      <use xlink:href="#DejaVuSans-6f" x="552.632812"/>
      <use xlink:href="#DejaVuSans-66" x="613.814453"/>
      <use xlink:href="#DejaVuSans-20" x="649.019531"/>
      <use xlink:href="#DejaVuSans-74" x="680.806641"/>
      <use xlink:href="#DejaVuSans-72" x="720.015625"/>
      <use xlink:href="#DejaVuSans-69" x="761.128906"/>
      <use xlink:href="#DejaVuSans-61" x="788.912109"/>
      <use xlink:href="#DejaVuSans-6c" x="850.191406"/>
      <use xlink:href="#DejaVuSans-73" x="877.974609"/>
     </g>
    </g>
   </g>
   <g id="line2d_48">
    <path d="M 34.16 288.453725 
L 89.327959 288.453725 
L 89.327959 288.202501 
L 90.897753 288.202501 
L 90.909323 287.700052 
L 91.08321 287.700052 
L 91.164579 287.197603 
L 91.397844 287.197603 
L 91.409538 286.695155 
L 107.356539 286.695155 
L 107.356539 286.44393 
L 109.292635 286.44393 
L 109.292635 286.192706 
L 109.409112 286.192706 
L 109.509147 285.690257 
L 109.838835 285.690257 
L 109.838835 285.439033 
L 110.050853 285.439033 
L 110.122081 284.936584 
L 110.395936 284.936584 
L 110.395936 284.685359 
L 110.964738 284.685359 
L 110.964738 284.434135 
L 111.15185 284.434135 
L 111.15185 284.182911 
L 111.345207 284.182911 
L 111.445243 283.680462 
L 111.891407 283.680462 
L 111.991443 282.926789 
L 112.058177 282.926789 
L 112.058177 282.675564 
L 112.332032 282.675564 
L 112.332032 282.42434 
L 112.533149 282.42434 
L 112.604377 281.921891 
L 112.878232 281.921891 
L 112.900833 281.419442 
L 113.204423 281.419442 
L 113.304458 280.916993 
L 113.347365 280.916993 
L 113.447034 280.414545 
L 113.810452 280.414545 
L 113.917392 279.409647 
L 114.191248 279.409647 
L 114.279735 278.655974 
L 114.325618 278.655974 
L 114.325618 278.404749 
L 114.490824 278.404749 
L 114.490824 278.153525 
L 114.760049 278.153525 
L 114.760049 277.902301 
L 115.014721 277.902301 
L 115.014721 277.651076 
L 115.283461 277.651076 
L 115.283461 277.399852 
L 115.746548 277.399852 
L 115.829661 276.646179 
L 115.989594 276.646179 
L 115.989594 276.394954 
L 116.215831 276.394954 
L 116.292748 275.641281 
L 116.356231 275.641281 
L 116.426919 275.138832 
L 116.483868 275.138832 
L 116.483868 274.887608 
L 116.762031 274.887608 
L 116.807914 274.385159 
L 116.973119 274.385159 
L 117.067293 273.88271 
L 117.142676 273.88271 
L 117.167329 273.380261 
L 117.605763 273.380261 
L 117.709035 272.626588 
L 117.780263 272.626588 
L 117.799688 272.124139 
L 117.971807 272.124139 
L 118.075046 271.119242 
L 118.12093 271.119242 
L 118.22827 270.365569 
L 118.286135 270.365569 
L 118.286135 270.114344 
L 118.53644 270.114344 
L 118.636476 269.360671 
L 118.673099 269.360671 
L 118.755137 268.606998 
L 119.028992 268.606998 
L 119.028992 268.355773 
L 119.178182 268.355773 
L 119.24941 267.853325 
L 119.523265 267.853325 
L 119.597793 267.350876 
L 119.72667 267.350876 
L 119.72667 267.099651 
L 119.907903 267.099651 
L 119.907903 266.848427 
L 120.092066 266.848427 
L 120.164365 266.345978 
L 120.454103 266.345978 
L 120.454103 266.094754 
L 120.710565 266.094754 
L 120.725672 265.592305 
L 120.825707 265.592305 
L 120.825707 265.341081 
L 121.005546 265.341081 
L 121.005546 265.089856 
L 121.242595 265.089856 
L 121.242595 264.838632 
L 121.367413 264.838632 
L 121.468634 264.084959 
L 121.532117 264.084959 
L 121.532117 263.833734 
L 121.712496 263.833734 
L 121.779243 263.080061 
L 121.879278 263.080061 
L 121.9838 262.075163 
L 122.023581 262.075163 
L 122.023581 261.823939 
L 122.149005 261.823939 
L 122.149005 261.572715 
L 122.281298 261.572715 
L 122.281298 261.32149 
L 122.420985 261.32149 
L 122.506991 260.065368 
L 122.766068 260.065368 
L 122.813101 259.562919 
L 122.912791 259.562919 
L 123.001264 258.558022 
L 123.123879 258.558022 
L 123.123879 258.306797 
L 123.295167 258.306797 
L 123.395203 257.553124 
L 123.407064 257.553124 
L 123.452947 257.050675 
L 123.618152 257.050675 
L 123.618152 256.799451 
L 123.936909 256.799451 
L 124.008137 256.297002 
L 124.082493 256.297002 
L 124.082493 256.045778 
L 124.281992 256.045778 
L 124.281992 255.794553 
L 124.663925 255.794553 
L 124.663925 255.543329 
L 124.850794 255.543329 
L 124.865674 255.04088 
L 124.965709 255.04088 
L 124.965709 254.789656 
L 125.127012 254.789656 
L 125.190496 254.287207 
L 125.507415 254.287207 
L 125.596295 253.533534 
L 125.629989 253.533534 
L 125.717496 252.779861 
L 125.807384 252.779861 
L 125.886451 252.026187 
L 126.135066 252.026187 
L 126.244067 251.02129 
L 126.4213 251.02129 
L 126.4213 250.770065 
L 126.604863 250.770065 
L 126.69575 250.016392 
L 126.776808 250.016392 
L 126.861325 249.011495 
L 127.099136 249.011495 
L 127.159634 248.257821 
L 127.233421 248.257821 
L 127.233421 248.006597 
L 127.355598 248.006597 
L 127.355598 247.755373 
L 127.690692 247.755373 
L 127.759991 247.001699 
L 127.857374 247.001699 
L 127.857374 246.750475 
L 128.165791 246.750475 
L 128.211674 246.248026 
L 128.37688 246.248026 
L 128.37688 245.996802 
L 128.803927 245.996802 
L 128.803927 245.745577 
L 129.212207 245.745577 
L 129.312242 244.74068 
L 129.330498 244.74068 
L 129.330498 244.489455 
L 129.54483 244.489455 
L 129.54483 244.238231 
L 129.736297 244.238231 
L 129.78218 243.735782 
L 129.853949 243.735782 
L 129.947386 242.730885 
L 130.009982 242.730885 
L 130.073319 242.228436 
L 130.199032 242.228436 
L 130.199032 241.977211 
L 130.341938 241.977211 
L 130.341938 241.725987 
L 130.536407 241.725987 
L 130.622916 240.469865 
L 130.767833 240.469865 
L 130.767833 240.218641 
L 130.89343 240.218641 
L 130.896771 239.716192 
L 131.00569 239.716192 
L 131.051573 239.213743 
L 131.216778 239.213743 
L 131.216778 238.962519 
L 131.465573 238.962519 
L 131.465573 238.711294 
L 131.857863 238.711294 
L 131.857863 238.46007 
L 132.114325 238.46007 
L 132.114325 238.208845 
L 132.946002 238.208845 
L 133.046038 237.706397 
L 133.15046 237.706397 
L 133.15046 237.455172 
L 133.428369 237.455172 
L 133.428369 237.203948 
L 133.587744 237.203948 
L 133.684832 235.947826 
L 133.8482 235.947826 
L 133.932827 235.445377 
L 134.082831 235.445377 
L 134.128714 234.942928 
L 134.293919 234.942928 
L 134.37477 234.189255 
L 134.501628 234.189255 
L 134.56956 233.686806 
L 134.697762 233.686806 
L 134.78057 233.184357 
L 134.826453 233.184357 
L 134.826453 232.933133 
L 134.954224 232.933133 
L 134.991659 232.430684 
L 136.397951 232.430684 
L 136.397951 232.17946 
L 136.884255 232.17946 
L 136.884255 231.928235 
L 137.347343 231.928235 
L 137.410826 231.425786 
L 137.774902 231.425786 
L 137.862509 230.672113 
L 138.027714 230.672113 
L 138.031365 230.169664 
L 138.472642 230.169664 
L 138.472642 229.91844 
L 138.729105 229.91844 
L 138.729105 229.667216 
L 139.168145 229.667216 
L 139.168145 229.415991 
L 141.508698 229.415991 
L 141.508698 229.164767 
L 141.76516 229.164767 
L 141.76516 228.913542 
L 151.402234 228.913542 
L 151.402234 228.662318 
L 158.502494 228.662318 
L 158.502494 228.411094 
L 159.923113 228.411094 
L 159.923113 228.159869 
L 161.086732 228.159869 
L 161.086732 227.908645 
L 171.606363 227.908645 
L 171.69162 227.406196 
L 172.183593 227.406196 
L 172.183593 227.154972 
L 173.037555 227.154972 
L 173.14745 226.652523 
L 174.369792 226.652523 
L 174.38441 226.150074 
L 174.578641 226.150074 
L 174.578641 225.89885 
L 175.348381 225.89885 
L 175.348381 225.647625 
L 175.815602 225.647625 
L 175.910879 225.145176 
L 176.598348 225.145176 
L 176.6713 224.642728 
L 176.724037 224.642728 
L 176.779572 224.140279 
L 177.147839 224.140279 
L 177.147839 223.889054 
L 178.11181 223.889054 
L 178.11181 223.63783 
L 178.241926 223.63783 
L 178.305401 222.884157 
L 178.479288 222.884157 
L 178.560657 222.381708 
L 178.793922 222.381708 
L 178.805616 221.879259 
L 180.691734 221.879259 
L 180.691734 221.628035 
L 180.976247 221.628035 
L 180.976247 221.37681 
L 181.380489 221.37681 
L 181.380489 221.125586 
L 182.122925 221.125586 
L 182.122925 220.874362 
L 182.517333 220.874362 
L 182.517333 220.623137 
L 182.649643 220.623137 
L 182.649643 220.371913 
L 183.322021 220.371913 
L 183.322021 220.120688 
L 183.455163 220.120688 
L 183.455163 219.869464 
L 183.754294 219.869464 
L 183.754294 219.61824 
L 184.160513 219.61824 
L 184.270705 218.864566 
L 184.457257 218.864566 
L 184.512381 218.362118 
L 184.718264 218.362118 
L 184.718264 218.110893 
L 185.42769 218.110893 
L 185.42769 217.859669 
L 185.701599 217.859669 
L 185.811791 217.35722 
L 186.391661 217.35722 
L 186.391661 217.105996 
L 186.93856 217.105996 
L 187.048752 216.352322 
L 187.51838 216.352322 
L 187.51838 216.101098 
L 187.882987 216.101098 
L 187.90253 215.598649 
L 188.012722 215.598649 
L 188.012722 215.347425 
L 189.059466 215.347425 
L 189.105136 214.844976 
L 189.866202 214.844976 
L 189.866202 214.593752 
L 190.061617 214.593752 
L 190.153251 214.091303 
L 190.296427 214.091303 
L 190.296427 213.840078 
L 190.467226 213.840078 
L 190.467226 213.588854 
L 191.09204 213.588854 
L 191.09204 213.33763 
L 191.260397 213.33763 
L 191.260397 213.086405 
L 191.584443 213.086405 
L 191.584443 212.835181 
L 191.735014 212.835181 
L 191.735014 212.583956 
L 192.422006 212.583956 
L 192.422006 212.332732 
L 192.685859 212.332732 
L 192.685859 212.081508 
L 192.91668 212.081508 
L 192.91668 211.830283 
L 193.245883 211.830283 
L 193.356075 211.327834 
L 193.392535 211.327834 
L 193.392535 211.07661 
L 193.676279 211.07661 
L 193.676279 210.825386 
L 193.963092 210.825386 
L 193.963092 210.574161 
L 194.226946 210.574161 
L 194.226946 210.322937 
L 194.51745 210.322937 
L 194.51745 210.071712 
L 195.200053 210.071712 
L 195.200053 209.820488 
L 195.45402 209.820488 
L 195.463906 209.318039 
L 196.058537 209.318039 
L 196.164023 208.81559 
L 196.310233 208.81559 
L 196.310233 208.564366 
L 196.427877 208.564366 
L 196.427877 208.313142 
L 196.60375 208.313142 
L 196.605047 207.810693 
L 197.020988 207.810693 
L 197.020988 207.559468 
L 197.295497 207.559468 
L 197.295497 207.308244 
L 197.851319 207.308244 
L 197.851319 207.05702 
L 198.138355 207.05702 
L 198.163027 206.303346 
L 198.259468 206.303346 
L 198.259468 206.052122 
L 199.08828 206.052122 
L 199.08828 205.800898 
L 199.383094 205.800898 
L 199.383094 205.549673 
L 199.523135 205.549673 
L 199.523135 205.298449 
L 200.05225 205.298449 
L 200.05225 205.047224 
L 200.347064 205.047224 
L 200.347064 204.796 
L 201.196531 204.796 
L 201.196531 204.544776 
L 201.507376 204.544776 
L 201.597937 203.791102 
L 201.77123 203.791102 
L 201.77123 203.539878 
L 202.553111 203.539878 
L 202.626063 203.037429 
L 202.707401 203.037429 
L 202.817593 202.53498 
L 203.1454 202.53498 
L 203.1454 202.283756 
L 203.60282 202.283756 
L 203.60282 202.032532 
L 204.196689 202.032532 
L 204.196689 201.781307 
L 204.686487 201.781307 
L 204.773139 201.278858 
L 205.195766 201.278858 
L 205.195766 201.027634 
L 205.395603 201.027634 
L 205.395603 200.77641 
L 205.690417 200.77641 
L 205.690417 200.525185 
L 205.923447 200.525185 
L 205.978842 200.022736 
L 206.041866 200.022736 
L 206.065268 199.269063 
L 206.774746 199.269063 
L 206.774746 199.017839 
L 206.887418 199.017839 
L 206.887418 198.766614 
L 207.335252 198.766614 
L 207.335252 198.51539 
L 207.61166 198.51539 
L 207.62323 197.761717 
L 207.797117 197.761717 
L 207.878486 197.259268 
L 208.111751 197.259268 
L 208.123445 196.756819 
L 209.187895 196.756819 
L 209.276783 196.003146 
L 209.358984 196.003146 
L 209.358984 195.751922 
L 210.467144 195.751922 
L 210.467144 195.500697 
L 210.664057 195.500697 
L 210.760983 194.998248 
L 210.777945 194.998248 
L 210.831473 194.4958 
L 210.917176 194.4958 
L 210.968894 193.993351 
L 211.055993 193.993351 
L 211.089785 193.490902 
L 211.229016 193.490902 
L 211.232747 192.988453 
L 211.357075 192.988453 
L 211.438727 192.23478 
L 211.496305 192.23478 
L 211.577958 190.978658 
L 211.635123 190.978658 
L 211.716776 189.97376 
L 211.775186 189.97376 
L 211.85048 189.220087 
L 212.11777 189.220087 
L 212.205143 188.466414 
L 212.230771 188.466414 
L 212.292915 187.712741 
L 212.354635 187.712741 
L 212.364421 187.210292 
L 212.53209 187.210292 
L 212.53209 186.959068 
L 212.666475 186.959068 
L 212.702514 186.456619 
L 212.812583 186.456619 
L 212.812583 186.205394 
L 212.933764 186.205394 
L 213.015417 185.702946 
L 213.064338 185.702946 
L 213.108909 184.949272 
L 213.442104 184.949272 
L 213.552569 183.944375 
L 213.623089 183.944375 
L 213.727463 182.939477 
L 213.795612 182.939477 
L 213.892875 182.185804 
L 213.963282 182.185804 
L 214.039303 181.432131 
L 214.08032 181.432131 
L 214.131699 180.929682 
L 214.213352 180.929682 
L 214.306844 179.422336 
L 214.358368 179.422336 
L 214.446656 178.166214 
L 214.481738 178.166214 
L 214.481738 177.914989 
L 214.635091 177.914989 
L 214.689399 177.41254 
L 214.841015 177.41254 
L 214.946931 176.658867 
L 214.956689 176.658867 
L 215.059898 175.905194 
L 215.096752 175.905194 
L 215.151935 174.649072 
L 215.214221 174.649072 
L 215.295874 173.895399 
L 215.354284 173.895399 
L 215.409273 173.141725 
L 215.576012 173.141725 
L 215.657009 172.639277 
L 215.765498 172.639277 
L 215.820964 172.136828 
L 215.904729 172.136828 
L 215.911567 171.634379 
L 216.043547 171.634379 
L 216.100278 170.880706 
L 216.207327 170.880706 
L 216.256543 170.378257 
L 216.481147 170.378257 
L 216.566207 169.624584 
L 216.840465 169.624584 
L 216.854944 169.122135 
L 217.029838 169.122135 
L 217.101928 168.619686 
L 217.155449 168.619686 
L 217.155449 168.368462 
L 217.293889 168.368462 
L 217.342188 167.866013 
L 217.455968 167.866013 
L 217.455968 167.614789 
L 217.679934 167.614789 
L 217.679934 167.363564 
L 217.814044 167.363564 
L 217.814044 167.11234 
L 217.937466 167.11234 
L 217.937466 166.861115 
L 218.172702 166.861115 
L 218.172702 166.609891 
L 218.485629 166.609891 
L 218.540122 166.107442 
L 218.715017 166.107442 
L 218.715017 165.856218 
L 218.863684 165.856218 
L 218.875253 165.353769 
L 219.049141 165.353769 
L 219.150445 164.600096 
L 219.245235 164.600096 
L 219.347297 163.595198 
L 219.363774 163.595198 
L 219.375468 162.841525 
L 219.622645 162.841525 
L 219.622645 162.590301 
L 219.739687 162.590301 
L 219.782607 161.585403 
L 220.040207 161.585403 
L 220.090007 161.082954 
L 220.357296 161.082954 
L 220.455845 160.329281 
L 220.49736 160.329281 
L 220.577473 159.575608 
L 220.727284 159.575608 
L 220.727284 159.324383 
L 221.039124 159.324383 
L 221.039124 159.073159 
L 221.306413 159.073159 
L 221.408783 158.068261 
L 221.446477 158.068261 
L 221.554753 157.314588 
L 221.692288 157.314588 
L 221.734305 156.560915 
L 221.847178 156.560915 
L 221.901974 156.058466 
L 221.965638 156.058466 
L 221.965638 155.807242 
L 222.115836 155.807242 
L 222.182467 155.304793 
L 222.366845 155.304793 
L 222.455748 154.55112 
L 222.515455 154.55112 
L 222.515455 154.299895 
L 222.694966 154.299895 
L 222.776619 153.546222 
L 222.807134 153.546222 
L 222.870111 152.541325 
L 222.975751 152.541325 
L 223.080542 152.038876 
L 223.087602 152.038876 
L 223.176238 150.782754 
L 223.234648 150.782754 
L 223.310005 150.029081 
L 223.391374 150.029081 
L 223.407701 149.526632 
L 223.57537 149.526632 
L 223.636333 148.772959 
L 223.794029 148.772959 
L 223.855863 148.27051 
L 224.029658 148.27051 
L 224.139372 147.516837 
L 224.255279 147.516837 
L 224.255279 147.265612 
L 224.567119 147.265612 
L 224.567119 147.014388 
L 224.760998 147.014388 
L 224.8706 145.507041 
L 224.916061 145.507041 
L 225.009553 144.250919 
L 225.028762 144.250919 
L 225.08624 143.748471 
L 225.196432 143.748471 
L 225.196432 143.497246 
L 225.366733 143.497246 
L 225.476925 142.743573 
L 225.714837 142.743573 
L 225.81783 142.241124 
L 225.982081 142.241124 
L 225.982081 141.9899 
L 226.271868 141.9899 
L 226.38206 141.487451 
L 226.401482 141.487451 
L 226.452553 140.985002 
L 226.514178 140.985002 
L 226.564223 140.482553 
L 227.10339 140.482553 
L 227.197138 139.477656 
L 227.304188 139.477656 
L 227.353404 138.975207 
L 227.503009 138.975207 
L 227.557654 138.221534 
L 227.963423 138.221534 
L 228.073615 137.467861 
L 228.276438 137.467861 
L 228.276438 137.216636 
L 228.444107 137.216636 
L 228.444107 136.965412 
L 228.7246 136.965412 
L 228.7246 136.714187 
L 228.857324 136.714187 
L 228.857324 136.462963 
L 229.210945 136.462963 
L 229.242832 135.960514 
L 229.610535 135.960514 
L 229.652741 135.206841 
L 230.047599 135.206841 
L 230.047599 134.955617 
L 230.247306 134.955617 
L 230.247306 134.704392 
L 230.368193 134.704392 
L 230.478385 134.201943 
L 230.745826 134.201943 
L 230.836547 133.44827 
L 230.915766 133.44827 
L 230.915766 133.197046 
L 231.137067 133.197046 
L 231.206666 132.694597 
L 231.32129 132.694597 
L 231.32129 132.443373 
L 231.518506 132.443373 
L 231.628963 130.936026 
L 231.672282 130.936026 
L 231.768159 129.931129 
L 231.785795 129.931129 
L 231.884219 128.423782 
L 231.925859 128.423782 
L 231.96094 127.921333 
L 232.117484 127.921333 
L 232.129178 127.418885 
L 232.419223 127.418885 
L 232.419223 127.16766 
L 232.784633 127.16766 
L 232.784633 126.916436 
L 232.944038 126.916436 
L 232.944692 126.413987 
L 233.180064 126.413987 
L 233.255472 125.660314 
L 233.347733 125.660314 
L 233.443917 124.655416 
L 233.463706 124.655416 
L 233.463706 124.404192 
L 233.611586 124.404192 
L 233.628226 123.901743 
L 233.726061 123.901743 
L 233.726061 123.650519 
L 233.892079 123.650519 
L 233.930092 123.14807 
L 234.040284 123.14807 
L 234.040284 122.896845 
L 234.375884 122.896845 
L 234.375884 122.645621 
L 234.509041 122.645621 
L 234.533361 121.891948 
L 234.662061 121.891948 
L 234.735013 121.389499 
L 234.797214 121.389499 
L 234.797214 121.138275 
L 235.251303 121.138275 
L 235.324255 120.384601 
L 235.443177 120.384601 
L 235.551823 119.882153 
L 235.624775 119.882153 
L 235.72367 119.128479 
L 235.813899 119.128479 
L 235.813899 118.877255 
L 236.194219 118.877255 
L 236.224916 118.374806 
L 236.305639 118.374806 
L 236.394035 117.621133 
L 236.488769 117.621133 
L 236.5503 116.86746 
L 236.628805 116.86746 
L 236.628805 116.616235 
L 236.894881 116.616235 
L 236.894881 116.365011 
L 237.068291 116.365011 
L 237.068291 116.113786 
L 237.195401 116.113786 
L 237.287959 115.108889 
L 237.358794 115.108889 
L 237.431746 114.103991 
L 237.516453 114.103991 
L 237.530774 113.601542 
L 237.811267 113.601542 
L 237.878461 113.099094 
L 237.951413 113.099094 
L 237.951413 112.847869 
L 238.138454 112.847869 
L 238.138454 112.596645 
L 238.32036 112.596645 
L 238.421588 111.340523 
L 238.442616 111.340523 
L 238.491832 110.58685 
L 238.577328 110.58685 
L 238.629686 109.833176 
L 238.716402 109.833176 
L 238.798312 109.330728 
L 238.89354 109.330728 
L 239.002372 108.828279 
L 239.104867 108.828279 
L 239.104867 108.577054 
L 239.444202 108.577054 
L 239.525927 107.572157 
L 239.632977 107.572157 
L 239.682192 107.069708 
L 239.920861 107.069708 
L 239.920861 106.818484 
L 240.033444 106.818484 
L 240.113143 106.316035 
L 240.333964 106.316035 
L 240.407957 105.813586 
L 240.725131 105.813586 
L 240.725131 105.562362 
L 241.118796 105.562362 
L 241.118796 105.311137 
L 241.29369 105.311137 
L 241.385734 104.808688 
L 241.594421 104.808688 
L 241.664786 103.803791 
L 241.792819 103.803791 
L 241.804464 103.301342 
L 241.943786 103.301342 
L 241.974976 102.798893 
L 242.140935 102.798893 
L 242.201318 101.793996 
L 242.275495 101.793996 
L 242.314576 101.291547 
L 242.455439 101.291547 
L 242.517913 100.789098 
L 242.576094 100.789098 
L 242.660603 100.286649 
L 242.812727 100.286649 
L 242.812727 100.035425 
L 243.164215 100.035425 
L 243.19917 98.276854 
L 243.349672 98.276854 
L 243.454426 95.76461 
L 243.465856 95.76461 
L 243.559715 95.010937 
L 243.62944 95.010937 
L 243.726272 92.749917 
L 243.862705 92.749917 
L 243.903458 91.493795 
L 243.987972 91.493795 
L 244.082466 89.232776 
L 244.106117 89.232776 
L 244.141721 87.22298 
L 244.225731 87.22298 
L 244.28703 84.961961 
L 244.35162 84.961961 
L 244.35162 84.710736 
L 244.602134 84.710736 
L 244.602134 84.459512 
L 244.763185 84.459512 
L 244.867183 82.700941 
L 244.879747 82.700941 
L 244.986797 82.198492 
L 245.036013 82.198492 
L 245.036013 81.947268 
L 245.183783 81.947268 
L 245.29324 80.94237 
L 245.498842 80.94237 
L 245.609034 78.932575 
L 245.765619 78.932575 
L 245.792495 78.430126 
L 246.079812 78.430126 
L 246.079812 78.178902 
L 246.374626 78.178902 
L 246.435279 77.425229 
L 246.777114 77.425229 
L 246.857179 75.666658 
L 246.94831 75.666658 
L 246.952008 73.908087 
L 247.168849 73.908087 
L 247.168849 73.656863 
L 247.319191 73.656863 
L 247.344393 73.154414 
L 247.602104 73.154414 
L 247.652566 71.395843 
L 247.75809 71.395843 
L 247.859636 69.637272 
L 247.929914 69.637272 
L 247.929914 69.386048 
L 248.05861 69.386048 
L 248.05861 69.134824 
L 248.29351 69.134824 
L 248.393516 68.38115 
L 248.40608 68.38115 
L 248.51313 67.627477 
L 248.519156 67.627477 
L 248.562345 67.125028 
L 248.819676 67.125028 
L 248.856709 66.62258 
L 249.222361 66.62258 
L 249.23393 66.120131 
L 249.353081 66.120131 
L 249.417199 65.366458 
L 249.489187 65.366458 
L 249.489187 65.115233 
L 249.682063 65.115233 
L 249.734145 64.36156 
L 249.865581 64.36156 
L 249.865581 64.110336 
L 250.026483 64.110336 
L 250.081682 63.607887 
L 250.385249 63.607887 
L 250.467565 62.854214 
L 250.574615 62.854214 
L 250.626647 62.10054 
L 250.986994 62.10054 
L 250.998564 61.598092 
L 251.146315 61.598092 
L 251.25382 60.844418 
L 251.283467 60.844418 
L 251.283467 60.593194 
L 251.422115 60.593194 
L 251.498778 59.588296 
L 251.589784 59.588296 
L 251.589784 59.337072 
L 251.725916 59.337072 
L 251.821505 58.834623 
L 251.870277 58.834623 
L 251.870277 58.583399 
L 252.02197 58.583399 
L 252.045489 57.829725 
L 252.141584 57.829725 
L 252.190799 57.327277 
L 252.346009 57.327277 
L 252.346009 57.076052 
L 252.775412 57.076052 
L 252.775412 56.824828 
L 252.91498 56.824828 
L 253.002712 55.066257 
L 253.111858 55.066257 
L 253.176572 54.312584 
L 253.283622 54.312584 
L 253.332838 53.810135 
L 253.517733 53.810135 
L 253.517733 53.558911 
L 253.760335 53.558911 
L 253.760335 53.307686 
L 253.951829 53.307686 
L 254.024188 51.549115 
L 254.106975 51.549115 
L 254.15298 51.046667 
L 254.407494 51.046667 
L 254.466967 50.544218 
L 254.672648 50.544218 
L 254.672648 50.292993 
L 254.921499 50.292993 
L 254.921499 50.041769 
L 255.084701 50.041769 
L 255.084701 49.790545 
L 255.340381 49.790545 
L 255.340381 48.283198 
L 255.673943 48.283198 
L 255.74 46.524627 
L 255.855779 46.524627 
L 255.882052 46.022179 
L 255.974463 46.022179 
L 255.974463 45.770954 
L 256.214466 45.770954 
L 256.22674 45.268505 
L 256.629542 45.268505 
L 256.734133 44.766057 
L 256.815982 44.766057 
L 256.893395 44.012383 
L 257.116501 44.012383 
L 257.116501 43.761159 
L 257.479824 43.761159 
L 257.479824 42.253813 
L 257.648562 42.253813 
L 257.648562 42.002588 
L 257.781434 42.002588 
L 257.781434 41.751364 
L 257.943376 41.751364 
L 257.943376 41.500139 
L 258.301102 41.500139 
L 258.301102 41.248915 
L 258.4928 41.248915 
L 258.519328 40.746466 
L 258.724986 40.746466 
L 258.772893 40.244017 
L 258.923473 40.244017 
L 258.923473 39.992793 
L 259.087698 39.992793 
L 259.087698 39.741569 
L 259.44314 39.741569 
L 259.44314 39.490344 
L 260.062595 39.490344 
L 260.074164 38.987895 
L 260.248052 38.987895 
L 260.32942 38.485447 
L 260.433636 38.485447 
L 260.517769 37.982998 
L 260.562685 37.982998 
L 260.574379 37.480549 
L 260.812583 37.480549 
L 260.812583 37.229325 
L 262.535491 37.229325 
L 262.535491 36.9781 
L 264.363881 36.9781 
L 264.431211 35.219529 
L 264.483729 35.219529 
L 264.483729 34.968305 
L 264.734573 34.968305 
L 264.734573 34.717081 
L 266.304368 34.717081 
L 266.315937 34.214632 
L 266.468321 34.214632 
L 266.571193 32.95851 
L 266.66672 32.95851 
L 266.678364 32.456061 
L 266.796355 32.456061 
L 266.816152 31.702388 
L 267.134076 31.702388 
L 267.134076 31.451163 
L 267.352936 31.451163 
L 267.352936 31.199939 
L 268.116141 31.199939 
L 268.116141 30.948715 
L 268.624745 30.948715 
L 268.624745 30.69749 
L 270.066151 30.69749 
L 270.089535 29.943817 
L 270.264549 29.943817 
L 270.276193 29.441368 
L 271.39494 29.441368 
L 271.39494 29.190144 
L 272.002386 29.190144 
L 272.002386 28.938919 
L 272.526467 28.938919 
L 272.526467 28.687695 
L 274.2911 28.687695 
L 274.2911 28.436471 
L 274.871593 28.436471 
L 274.871593 28.185246 
L 275.2892 28.185246 
L 275.2892 27.934022 
L 276.124296 27.934022 
L 276.124296 27.682797 
L 276.63702 27.682797 
L 276.63702 27.431573 
L 277.11759 27.431573 
L 277.11759 27.180349 
L 277.888929 27.180349 
L 277.888929 26.929124 
L 279.368164 26.929124 
L 279.368164 26.6779 
L 279.887785 26.6779 
L 279.887785 26.426675 
L 283.366701 26.426675 
L 283.366701 26.175451 
L 283.629028 26.175451 
L 283.629028 25.924227 
L 286.836022 25.924227 
L 286.859407 25.170553 
L 286.96453 25.170553 
L 287.046065 24.41688 
L 287.889043 24.41688 
L 287.889043 24.165656 
L 288.405527 24.165656 
L 288.405527 23.914431 
L 288.664413 23.914431 
L 288.687797 23.160758 
L 288.862811 23.160758 
L 288.874456 22.658309 
L 289.608473 22.658309 
L 289.608473 22.407085 
L 291.434607 22.407085 
L 291.457992 21.653412 
L 291.633006 21.653412 
L 291.64465 21.150963 
L 292.121874 21.150963 
L 292.149908 20.648514 
L 292.894168 20.648514 
L 292.894168 20.39729 
L 293.206303 20.39729 
L 293.206303 20.146065 
L 294.658801 20.146065 
L 294.722558 19.643617 
L 296.487191 19.643617 
L 296.487191 19.392392 
L 297.492753 19.392392 
L 297.492753 19.141168 
L 299.257386 19.141168 
L 299.257386 18.889943 
L 299.65755 18.889943 
L 299.65755 18.638719 
L 300.642753 18.638719 
L 300.642753 18.387495 
L 303.668696 18.387495 
L 303.734402 17.382597 
L 303.867094 17.382597 
L 303.918414 16.628924 
L 305.562792 16.628924 
L 305.562792 16.377699 
L 308.332987 16.377699 
L 308.332987 16.126475 
L 309.726841 16.126475 
L 309.726841 15.875251 
L 309.976174 15.875251 
L 309.976174 15.624026 
L 311.491474 15.624026 
L 311.491474 15.372802 
L 311.804565 15.372802 
L 311.804565 15.121577 
L 312.189575 15.121577 
L 312.21296 14.367904 
L 312.387974 14.367904 
L 312.41126 13.614231 
L 314.57476 13.614231 
L 314.57476 13.363007 
L 318.247721 13.363007 
L 318.247721 13.111782 
L 320.012354 13.111782 
L 320.012354 12.860558 
L 320.567075 12.860558 
L 320.567075 12.609333 
L 323.958082 12.609333 
L 323.981466 11.85566 
L 324.15648 11.85566 
L 324.168125 11.353211 
L 326.808848 11.353211 
L 326.808848 11.101987 
L 329.087954 11.101987 
L 329.087954 10.850763 
L 330.016227 10.850763 
L 330.016227 10.599538 
L 331.78086 10.599538 
L 331.78086 10.348314 
L 335.329727 10.348314 
L 335.329727 10.097089 
L 340.856461 10.097089 
L 340.856461 9.845865 
L 347.098234 9.845865 
L 347.098234 9.594641 
L 395.044834 9.594641 
L 395.044834 9.343416 
L 397.629072 9.343416 
L 397.629072 9.092192 
L 408.725933 9.092192 
L 408.725933 8.840967 
L 413.140688 8.840967 
L 413.21364 8.338519 
L 414.784266 8.338519 
L 414.784266 8.087294 
L 417.922829 8.087294 
L 417.922829 7.83607 
L 419.864361 7.83607 
L 419.864361 7.584845 
L 421.054721 7.584845 
L 421.054721 7.333621 
L 425.647476 7.333621 
L 425.647476 7.082397 
L 426.408542 7.082397 
L 426.408542 6.831172 
L 429.934874 6.831172 
L 429.934874 6.579948 
L 431.99636 6.579948 
L 431.99636 6.328723 
L 433.563328 6.328723 
L 433.563328 6.077499 
L 434.705367 6.077499 
L 434.705367 5.826275 
L 453.192 5.826275 
L 453.192 5.826275 
" clip-path="url(#p019d015e92)" style="fill: none; stroke: #000000; stroke-width: 3; stroke-linecap: square"/>
   </g>
   <g id="line2d_49">
    <path clip-path="url(#p019d015e92)" style="fill: none; stroke: #000000; stroke-width: 3; stroke-linecap: square"/>
   </g>
   <g id="line2d_50">
    <path d="M 34.16 288.453725 
L 64.972704 288.453725 
L 64.972704 288.202501 
L 70.52089 288.202501 
L 70.52089 287.951277 
L 71.705278 287.951277 
L 71.705278 287.700052 
L 77.253464 287.700052 
L 77.253464 287.448828 
L 78.519421 287.448828 
L 78.622942 286.946379 
L 80.116125 286.946379 
L 80.116125 286.695155 
L 80.82359 286.695155 
L 80.82359 286.44393 
L 81.778359 286.44393 
L 81.778359 286.192706 
L 82.576331 286.192706 
L 82.576331 285.941481 
L 84.067607 285.941481 
L 84.067607 285.690257 
L 84.641122 285.690257 
L 84.641122 285.439033 
L 85.355517 285.439033 
L 85.355517 285.187808 
L 86.423259 285.187808 
L 86.423259 284.936584 
L 86.568637 284.936584 
L 86.568637 284.685359 
L 86.848699 284.685359 
L 86.848699 284.434135 
L 87.523325 284.434135 
L 87.556164 283.931686 
L 88.44043 283.931686 
L 88.510933 283.429237 
L 88.582743 283.429237 
L 88.582743 283.178013 
L 89.308906 283.178013 
L 89.308906 282.926789 
L 91.373696 282.926789 
L 91.373696 282.675564 
L 92.116823 282.675564 
L 92.169659 282.173115 
L 93.155833 282.173115 
L 93.155833 281.921891 
L 93.662842 281.921891 
L 93.662842 281.670667 
L 94.130929 281.670667 
L 94.130929 281.419442 
L 94.255899 281.419442 
L 94.255899 281.168218 
L 94.370307 281.168218 
L 94.370307 280.916993 
L 95.173004 280.916993 
L 95.173004 280.665769 
L 95.325076 280.665769 
L 95.325076 280.414545 
L 96.123048 280.414545 
L 96.123048 280.16332 
L 97.796966 280.16332 
L 97.796966 279.912096 
L 98.187839 279.912096 
L 98.187839 279.660871 
L 98.725921 279.660871 
L 98.725921 279.409647 
L 99.25794 279.409647 
L 99.25794 279.158423 
L 99.969976 279.158423 
L 99.969976 278.907198 
L 100.218875 278.907198 
L 100.218875 278.655974 
L 100.646505 278.655974 
L 100.646505 278.404749 
L 101.070042 278.404749 
L 101.070042 278.153525 
L 101.712058 278.153525 
L 101.712058 277.902301 
L 101.987147 277.902301 
L 101.987147 277.651076 
L 102.15536 277.651076 
L 102.232981 277.148627 
L 102.419523 277.148627 
L 102.419523 276.897403 
L 103.374292 276.897403 
L 103.374292 276.646179 
L 103.726164 276.646179 
L 103.726164 276.394954 
L 104.172264 276.394954 
L 104.172264 276.14373 
L 104.433629 276.14373 
L 104.433629 275.892505 
L 105.388398 275.892505 
L 105.458495 275.390057 
L 106.18637 275.390057 
L 106.237055 274.887608 
L 108.019192 274.887608 
L 108.019192 274.636383 
L 108.251161 274.636383 
L 108.251161 274.385159 
L 108.429363 274.385159 
L 108.429363 274.133935 
L 109.119258 274.133935 
L 109.119258 273.88271 
L 109.570122 273.88271 
L 109.636441 273.380261 
L 109.706244 273.380261 
L 109.782062 272.877813 
L 109.890337 272.877813 
L 109.890337 272.626588 
L 110.016505 272.626588 
L 110.036363 271.872915 
L 111.133364 271.872915 
L 111.170301 271.370466 
L 111.278902 271.370466 
L 111.340755 270.868017 
L 111.432634 270.868017 
L 111.477479 270.114344 
L 111.947521 270.114344 
L 112.050468 269.360671 
L 112.070228 269.360671 
L 112.070228 269.109447 
L 112.272638 269.109447 
L 112.272638 268.858222 
L 112.516689 268.858222 
L 112.516689 268.606998 
L 112.631275 268.606998 
L 112.631275 268.355773 
L 112.787757 268.355773 
L 112.866044 267.853325 
L 113.005905 267.853325 
L 113.005905 267.6021 
L 113.278554 267.6021 
L 113.282813 267.099651 
L 113.459088 267.099651 
L 113.520792 266.597203 
L 113.594355 266.597203 
L 113.594355 266.345978 
L 113.977664 266.345978 
L 114.01984 265.843529 
L 114.239822 265.843529 
L 114.301272 265.089856 
L 114.374899 265.089856 
L 114.374899 264.838632 
L 114.816159 264.838632 
L 114.851825 264.336183 
L 115.262959 264.336183 
L 115.366228 262.577612 
L 115.381633 262.577612 
L 115.381633 262.326388 
L 115.528695 262.326388 
L 115.528695 262.075163 
L 115.733022 262.075163 
L 115.813647 260.316593 
L 116.147192 260.316593 
L 116.147192 260.065368 
L 116.362387 260.065368 
L 116.468122 259.562919 
L 116.796131 259.562919 
L 116.888942 258.306797 
L 116.965176 258.306797 
L 116.966368 257.804349 
L 117.108879 257.804349 
L 117.108879 257.553124 
L 117.306293 257.553124 
L 117.382659 256.799451 
L 117.481255 256.799451 
L 117.481255 256.548227 
L 117.714267 256.548227 
L 117.823361 255.794553 
L 117.929097 255.794553 
L 117.929097 255.543329 
L 118.158388 255.543329 
L 118.266313 254.287207 
L 118.42615 254.287207 
L 118.42615 254.035983 
L 118.60166 254.035983 
L 118.678026 253.031085 
L 118.812288 253.031085 
L 118.812288 252.779861 
L 119.120076 252.779861 
L 119.211926 251.774963 
L 119.287538 251.774963 
L 119.317661 251.272514 
L 119.522184 251.272514 
L 119.630575 250.518841 
L 119.639714 250.518841 
L 119.740027 249.513943 
L 119.761863 249.513943 
L 119.835325 248.509046 
L 120.037072 248.509046 
L 120.037072 248.257821 
L 120.197453 248.257821 
L 120.268838 247.504148 
L 120.321854 247.504148 
L 120.338641 247.001699 
L 120.483174 247.001699 
L 120.588578 245.745577 
L 120.720781 245.745577 
L 120.826517 244.74068 
L 120.832003 244.74068 
L 120.852578 244.238231 
L 120.972397 244.238231 
L 120.972397 243.987007 
L 121.103466 243.987007 
L 121.130692 243.484558 
L 121.266757 243.484558 
L 121.368104 241.725987 
L 121.528486 241.725987 
L 121.566567 240.721089 
L 121.640391 240.721089 
L 121.640391 240.469865 
L 121.77426 240.469865 
L 121.855981 239.716192 
L 121.895127 239.716192 
L 121.925783 239.213743 
L 122.056445 239.213743 
L 122.092379 238.711294 
L 122.251611 238.711294 
L 122.33596 237.455172 
L 122.434498 237.455172 
L 122.522613 236.952723 
L 122.630502 236.952723 
L 122.702625 236.450275 
L 122.943457 236.450275 
L 123.042251 235.194153 
L 123.079579 235.194153 
L 123.135579 234.440479 
L 123.2263 234.440479 
L 123.248002 233.686806 
L 123.351812 233.686806 
L 123.4323 232.681908 
L 123.539682 232.681908 
L 123.640175 231.928235 
L 123.681542 231.928235 
L 123.743908 230.923338 
L 123.795788 230.923338 
L 123.898939 229.667216 
L 123.982954 229.667216 
L 124.091485 228.411094 
L 124.289767 228.411094 
L 124.356165 227.406196 
L 124.425967 227.406196 
L 124.527405 226.150074 
L 124.744666 226.150074 
L 124.744666 225.89885 
L 124.888967 225.89885 
L 124.990994 224.140279 
L 125.07222 224.140279 
L 125.167832 222.381708 
L 125.190397 222.381708 
L 125.295598 221.879259 
L 125.392633 221.879259 
L 125.494917 221.125586 
L 125.559421 221.125586 
L 125.632948 220.371913 
L 125.678627 220.371913 
L 125.678627 220.120688 
L 125.803818 220.120688 
L 125.858438 219.61824 
L 125.964199 219.61824 
L 126.016909 218.864566 
L 126.12952 218.864566 
L 126.12952 218.613342 
L 126.253521 218.613342 
L 126.351604 218.110893 
L 126.484177 218.110893 
L 126.587717 216.603547 
L 126.789951 216.603547 
L 126.870212 215.849874 
L 126.957903 215.849874 
L 126.994726 215.347425 
L 127.083417 215.347425 
L 127.191642 213.33763 
L 127.221108 213.33763 
L 127.322446 212.081508 
L 127.385689 212.081508 
L 127.417998 211.579059 
L 127.526689 211.579059 
L 127.605775 210.071712 
L 127.65666 210.071712 
L 127.716037 209.318039 
L 127.78654 209.318039 
L 127.869634 208.313142 
L 128.011796 208.313142 
L 128.041819 207.559468 
L 128.135543 207.559468 
L 128.241278 206.303346 
L 128.271665 206.303346 
L 128.380133 205.047224 
L 128.389272 205.047224 
L 128.389272 204.796 
L 128.572725 204.796 
L 128.572725 204.544776 
L 128.733107 204.544776 
L 128.804651 203.288654 
L 128.874454 203.288654 
L 128.9691 202.032532 
L 128.987693 202.032532 
L 129.003482 201.530083 
L 129.115111 201.530083 
L 129.115111 201.278858 
L 129.412372 201.278858 
L 129.510654 199.520288 
L 129.532057 199.520288 
L 129.639119 198.766614 
L 129.651858 198.766614 
L 129.687532 198.012941 
L 129.81224 198.012941 
L 129.81224 197.761717 
L 130.055721 197.761717 
L 130.058441 197.259268 
L 130.294151 197.259268 
L 130.400011 196.505595 
L 130.447813 196.505595 
L 130.549127 196.003146 
L 130.635649 196.003146 
L 130.741384 194.998248 
L 130.841938 194.998248 
L 130.841938 194.747024 
L 130.997278 194.747024 
L 131.043755 193.742126 
L 131.155278 193.742126 
L 131.238438 192.737229 
L 131.393617 192.737229 
L 131.455139 191.983556 
L 131.509388 191.983556 
L 131.55825 190.978658 
L 131.821949 190.978658 
L 131.868425 190.476209 
L 131.941403 190.476209 
L 132.024509 189.97376 
L 132.110047 189.97376 
L 132.130244 189.471312 
L 132.276841 189.471312 
L 132.341748 188.466414 
L 132.563792 188.466414 
L 132.671478 187.210292 
L 132.69153 187.210292 
L 132.79131 186.205394 
L 132.849179 186.205394 
L 132.954915 185.451721 
L 133.063058 185.451721 
L 133.063058 185.200497 
L 133.249788 185.200497 
L 133.358695 184.195599 
L 133.413546 184.195599 
L 133.479866 182.939477 
L 133.549669 182.939477 
L 133.549669 182.688253 
L 133.668283 182.688253 
L 133.734602 182.185804 
L 133.804405 182.185804 
L 133.891377 181.683355 
L 133.971193 181.683355 
L 133.971193 181.432131 
L 134.092861 181.432131 
L 134.162524 180.427233 
L 134.446969 180.427233 
L 134.451228 179.924784 
L 134.664049 179.924784 
L 134.668308 179.422336 
L 134.808481 179.422336 
L 134.879078 178.668662 
L 134.97281 178.668662 
L 135.063898 177.914989 
L 135.105265 177.914989 
L 135.105265 177.663765 
L 135.241657 177.663765 
L 135.241657 177.41254 
L 135.424499 177.41254 
L 135.5229 176.407643 
L 135.592703 176.407643 
L 135.592703 176.156418 
L 135.835756 176.156418 
L 135.913652 175.402745 
L 135.978544 175.402745 
L 136.02024 174.900296 
L 136.144977 174.900296 
L 136.23732 173.644174 
L 136.452758 173.644174 
L 136.494125 173.141725 
L 136.754947 173.141725 
L 136.754947 172.890501 
L 136.917681 172.890501 
L 136.917681 172.639277 
L 137.062081 172.639277 
L 137.162588 172.136828 
L 137.271447 172.136828 
L 137.318795 170.880706 
L 137.532687 170.880706 
L 137.625146 170.127033 
L 137.77896 170.127033 
L 137.855013 169.373359 
L 137.956686 169.373359 
L 138.008334 168.870911 
L 138.108244 168.870911 
L 138.127183 168.368462 
L 138.277294 168.368462 
L 138.381919 167.866013 
L 138.494374 167.866013 
L 138.579915 167.363564 
L 138.749731 167.363564 
L 138.772118 166.609891 
L 138.932756 166.609891 
L 138.932756 166.358667 
L 139.324247 166.358667 
L 139.377888 165.604993 
L 139.903526 165.604993 
L 139.980703 165.102545 
L 140.170217 165.102545 
L 140.279144 164.097647 
L 140.319929 164.097647 
L 140.385626 163.595198 
L 140.967026 163.595198 
L 140.967026 163.343974 
L 141.249915 163.343974 
L 141.249915 163.092749 
L 141.442678 163.092749 
L 141.442678 162.841525 
L 141.679831 162.841525 
L 141.679831 162.590301 
L 141.896912 162.590301 
L 141.921795 161.836627 
L 142.536519 161.836627 
L 142.536519 161.585403 
L 142.661828 161.585403 
L 142.753599 160.580505 
L 142.895425 160.580505 
L 142.913981 160.078057 
L 143.060867 160.078057 
L 143.144088 159.324383 
L 143.224815 159.324383 
L 143.323927 158.821935 
L 143.535279 158.821935 
L 143.602913 158.319486 
L 143.656431 158.319486 
L 143.656431 158.068261 
L 143.819993 158.068261 
L 143.819993 157.817037 
L 144.068382 157.817037 
L 144.124842 157.063364 
L 144.230577 157.063364 
L 144.324881 156.560915 
L 144.407256 156.560915 
L 144.407256 156.309691 
L 144.727631 156.309691 
L 144.784558 155.807242 
L 144.872433 155.807242 
L 144.911069 155.053569 
L 145.093972 155.053569 
L 145.201348 154.299895 
L 145.241986 154.299895 
L 145.241986 154.048671 
L 145.698401 154.048671 
L 145.698401 153.797447 
L 146.064865 153.797447 
L 146.064865 153.546222 
L 146.240635 153.546222 
L 146.243356 153.043773 
L 146.457716 153.043773 
L 146.566695 152.2901 
L 147.026853 152.2901 
L 147.026853 152.038876 
L 147.225723 152.038876 
L 147.272199 151.285203 
L 147.347573 151.285203 
L 147.411253 150.782754 
L 147.666761 150.782754 
L 147.666761 150.531529 
L 148.126318 150.531529 
L 148.126318 150.280305 
L 148.252953 150.280305 
L 148.358689 149.526632 
L 148.553091 149.526632 
L 148.594458 148.772959 
L 148.855742 148.772959 
L 148.855742 148.521734 
L 149.057609 148.521734 
L 149.057609 148.27051 
L 149.402845 148.27051 
L 149.402845 148.019285 
L 149.523862 148.019285 
L 149.565229 147.516837 
L 149.657582 147.516837 
L 149.657582 147.265612 
L 150.156108 147.265612 
L 150.22972 146.763163 
L 150.276197 146.763163 
L 150.373616 146.00949 
L 150.628352 146.00949 
L 150.711044 145.507041 
L 151.018023 145.507041 
L 151.018023 145.255817 
L 151.256951 145.255817 
L 151.362686 144.753368 
L 151.445879 144.753368 
L 151.445879 144.502144 
L 151.758483 144.502144 
L 151.85974 143.999695 
L 152.41665 143.999695 
L 152.41665 143.748471 
L 152.605165 143.748471 
L 152.681203 143.246022 
L 152.722569 143.246022 
L 152.72515 142.743573 
L 152.974485 142.743573 
L 152.974485 142.492349 
L 153.251666 142.492349 
L 153.251666 142.241124 
L 153.530957 142.241124 
L 153.530957 141.9899 
L 153.758961 141.9899 
L 153.785693 141.487451 
L 153.959131 141.487451 
L 153.959131 141.236227 
L 154.467668 141.236227 
L 154.467668 140.985002 
L 154.9139 140.985002 
L 154.9139 140.733778 
L 155.105349 140.733778 
L 155.175133 140.231329 
L 155.527477 140.231329 
L 155.573991 139.72888 
L 155.6852 139.72888 
L 155.726567 138.975207 
L 156.129902 138.975207 
L 156.129902 138.723983 
L 156.534955 138.723983 
L 156.534955 138.472758 
L 156.789691 138.472758 
L 156.789691 138.221534 
L 156.927874 138.221534 
L 156.927874 137.970309 
L 157.776663 137.970309 
L 157.776663 137.719085 
L 157.923816 137.719085 
L 157.970293 137.216636 
L 158.577989 137.216636 
L 158.577989 136.965412 
L 158.869357 136.965412 
L 158.951047 136.462963 
L 158.992665 136.462963 
L 159.056782 135.70929 
L 159.553836 135.70929 
L 159.558799 135.206841 
L 160.607874 135.206841 
L 160.658866 134.704392 
L 160.774802 134.704392 
L 160.774802 134.453168 
L 161.57597 134.453168 
L 161.57597 134.201943 
L 161.874868 134.201943 
L 161.874868 133.950719 
L 162.791973 133.950719 
L 162.861474 133.44827 
L 163.379296 133.44827 
L 163.420663 132.945821 
L 164.22905 132.945821 
L 164.22905 132.694597 
L 164.483787 132.694597 
L 164.571511 132.192148 
L 166.10885 132.192148 
L 166.10885 131.940924 
L 166.272084 131.940924 
L 166.272084 131.689699 
L 167.172237 131.689699 
L 167.172237 131.438475 
L 167.667543 131.438475 
L 167.667543 131.187251 
L 168.276412 131.187251 
L 168.276412 130.936026 
L 169.921143 130.936026 
L 169.921143 130.684802 
L 170.478054 130.684802 
L 170.478054 130.433577 
L 171.041379 130.433577 
L 171.041379 130.182353 
L 171.63118 130.182353 
L 171.63118 129.931129 
L 171.861461 129.931129 
L 171.861461 129.679904 
L 172.638517 129.679904 
L 172.638517 129.42868 
L 173.077464 129.42868 
L 173.077464 129.177455 
L 173.924469 129.177455 
L 173.924469 128.926231 
L 174.047389 128.926231 
L 174.047389 128.675007 
L 174.383258 128.675007 
L 174.383258 128.423782 
L 175.483163 128.423782 
L 175.57096 127.921333 
L 176.675135 127.921333 
L 176.675135 127.670109 
L 177.560458 127.670109 
L 177.560458 127.418885 
L 177.736763 127.418885 
L 177.752317 126.916436 
L 178.101048 126.916436 
L 178.101048 126.665211 
L 178.664633 126.665211 
L 178.664633 126.413987 
L 178.876777 126.413987 
L 178.876777 126.162763 
L 179.446799 126.162763 
L 179.446799 125.911538 
L 179.922531 125.911538 
L 179.922531 125.660314 
L 180.866275 125.660314 
L 180.866275 125.409089 
L 181.03724 125.409089 
L 181.03724 125.157865 
L 181.442927 125.157865 
L 181.442927 124.906641 
L 182.221647 124.906641 
L 182.221647 124.655416 
L 182.341057 124.655416 
L 182.446112 124.152967 
L 183.026738 124.152967 
L 183.026738 123.901743 
L 183.300504 123.901743 
L 183.325822 123.399294 
L 183.950919 123.399294 
L 183.950919 123.14807 
L 184.43561 123.14807 
L 184.43561 122.896845 
L 185.055094 122.896845 
L 185.055094 122.645621 
L 185.527464 122.645621 
L 185.527464 122.394397 
L 185.916667 122.394397 
L 185.916667 122.143172 
L 187.256736 122.143172 
L 187.256736 121.891948 
L 187.375363 121.891948 
L 187.375363 121.640723 
L 187.687927 121.640723 
L 187.687927 121.389499 
L 188.321253 121.389499 
L 188.321253 121.138275 
L 188.591366 121.138275 
L 188.591366 120.88705 
L 188.975836 120.88705 
L 188.975836 120.635826 
L 189.096799 120.635826 
L 189.096799 120.384601 
L 189.258547 120.384601 
L 189.258547 120.133377 
L 189.417199 120.133377 
L 189.417199 119.882153 
L 190.080011 119.882153 
L 190.080011 119.630928 
L 190.310752 119.630928 
L 190.310752 119.379704 
L 190.73978 119.379704 
L 190.826071 118.877255 
L 191.402556 118.877255 
L 191.402556 118.626031 
L 192.281653 118.626031 
L 192.281653 118.374806 
L 192.729278 118.374806 
L 192.729278 118.123582 
L 192.895738 118.123582 
L 192.895738 117.872357 
L 193.603203 117.872357 
L 193.603203 117.621133 
L 194.435032 117.621133 
L 194.442116 117.118684 
L 194.557972 117.118684 
L 194.557972 116.86746 
L 194.97194 116.86746 
L 194.97194 116.616235 
L 195.355945 116.616235 
L 195.355945 116.365011 
L 195.651035 116.365011 
L 195.651035 116.113786 
L 195.850988 116.113786 
L 195.850988 115.862562 
L 196.701212 115.862562 
L 196.701212 115.611338 
L 197.288697 115.611338 
L 197.390467 115.108889 
L 197.420735 115.108889 
L 197.420735 114.857664 
L 197.757226 114.857664 
L 197.757226 114.60644 
L 198.392872 114.60644 
L 198.392872 114.355216 
L 198.861401 114.355216 
L 198.861401 114.103991 
L 199.119739 114.103991 
L 199.202872 113.601542 
L 200.302938 113.601542 
L 200.302938 113.350318 
L 200.594514 113.350318 
L 200.594514 113.099094 
L 201.063043 113.099094 
L 201.063043 112.847869 
L 201.220043 112.847869 
L 201.220043 112.596645 
L 201.72613 112.596645 
L 201.72613 112.34542 
L 202.250652 112.34542 
L 202.250652 112.094196 
L 202.754976 112.094196 
L 202.754976 111.842972 
L 203.223505 111.842972 
L 203.223505 111.591747 
L 203.466654 111.591747 
L 203.466654 111.340523 
L 204.144656 111.340523 
L 204.163848 110.838074 
L 204.632377 110.838074 
L 204.632377 110.58685 
L 206.170862 110.58685 
L 206.170862 110.335625 
L 207.275038 110.335625 
L 207.275038 110.084401 
L 209.476679 110.084401 
L 209.476679 109.833176 
L 210.03899 109.833176 
L 210.03899 109.581952 
L 210.507519 109.581952 
L 210.507519 109.330728 
L 211.505534 109.330728 
L 211.505534 109.079503 
L 211.637142 109.079503 
L 211.637142 108.828279 
L 212.066686 108.828279 
L 212.066686 108.577054 
L 212.457517 108.577054 
L 212.457517 108.32583 
L 212.926046 108.32583 
L 212.926046 108.074606 
L 213.046014 108.074606 
L 213.046014 107.823381 
L 213.170861 107.823381 
L 213.170861 107.572157 
L 215.372503 107.572157 
L 215.372503 107.320932 
L 215.790614 107.320932 
L 215.790614 107.069708 
L 217.532966 107.069708 
L 217.532966 106.818484 
L 218.921156 106.818484 
L 218.941838 106.316035 
L 220.957739 106.316035 
L 220.957739 106.06481 
L 221.338801 106.06481 
L 221.339683 105.562362 
L 222.061914 105.562362 
L 222.061914 105.311137 
L 224.263556 105.311137 
L 224.263556 105.059913 
L 224.81698 105.059913 
L 224.81698 104.808688 
L 226.369346 104.808688 
L 226.424019 104.30624 
L 227.019436 104.30624 
L 227.019436 104.055015 
L 227.235506 104.055015 
L 227.235506 103.803791 
L 227.406848 103.803791 
L 227.473521 103.301342 
L 227.832891 103.301342 
L 227.832891 103.050118 
L 228.511023 103.050118 
L 228.511023 102.798893 
L 229.440853 102.798893 
L 229.440853 102.547669 
L 229.675163 102.547669 
L 229.675163 102.296444 
L 230.712665 102.296444 
L 230.712665 102.04522 
L 230.934035 102.04522 
L 230.934035 101.793996 
L 231.6415 101.793996 
L 231.6415 101.542771 
L 231.835626 101.542771 
L 231.835626 101.291547 
L 232.596269 101.291547 
L 232.596269 101.040322 
L 232.873128 101.040322 
L 232.873128 100.789098 
L 233.244498 100.789098 
L 233.244498 100.537874 
L 233.394242 100.537874 
L 233.394242 100.286649 
L 233.708033 100.286649 
L 233.708033 100.035425 
L 234.079105 100.035425 
L 234.079105 99.7842 
L 234.282 99.7842 
L 234.282 99.532976 
L 235.459032 99.532976 
L 235.459032 99.281752 
L 236.126559 99.281752 
L 236.126559 99.030527 
L 237.241169 99.030527 
L 237.241169 98.779303 
L 237.718083 98.779303 
L 237.718083 98.528078 
L 238.341235 98.528078 
L 238.341235 98.276854 
L 238.822258 98.276854 
L 238.822258 98.02563 
L 239.119639 98.02563 
L 239.119639 97.774405 
L 239.25834 97.774405 
L 239.25834 97.523181 
L 240.157142 97.523181 
L 240.157142 97.271956 
L 241.0239 97.271956 
L 241.0239 97.020732 
L 241.538166 97.020732 
L 241.538166 96.769508 
L 241.894724 96.769508 
L 241.894724 96.518283 
L 242.575668 96.518283 
L 242.575668 96.267059 
L 243.184363 96.267059 
L 243.184363 96.015834 
L 244.593235 96.015834 
L 244.593235 95.76461 
L 249.543831 95.76461 
L 249.543831 95.513386 
L 250.468376 95.513386 
L 250.468376 95.262161 
L 252.886903 95.262161 
L 252.886903 95.010937 
L 259.498903 95.010937 
L 259.498903 94.759712 
L 265.057733 94.759712 
L 265.057733 94.508488 
L 267.897626 94.508488 
L 267.897626 94.257264 
L 269.887124 94.257264 
L 269.887124 94.006039 
L 271.164095 94.006039 
L 271.164095 93.754815 
L 272.117402 93.754815 
L 272.117402 93.50359 
L 274.548313 93.50359 
L 274.548313 93.252366 
L 275.945895 93.252366 
L 275.945895 93.001142 
L 276.277584 93.001142 
L 276.277584 92.749917 
L 277.948164 92.749917 
L 277.948164 92.498693 
L 279.562818 92.498693 
L 279.562818 92.247468 
L 279.933021 92.247468 
L 279.933021 91.996244 
L 281.302502 91.996244 
L 281.302502 91.74502 
L 281.552316 91.74502 
L 281.552316 91.493795 
L 284.344618 91.493795 
L 284.344618 91.242571 
L 286.213505 91.242571 
L 286.213505 90.991346 
L 286.334116 90.991346 
L 286.346887 90.488898 
L 287.942776 90.488898 
L 287.942776 90.237673 
L 288.336385 90.237673 
L 288.336385 89.986449 
L 289.615362 89.986449 
L 289.615362 89.735224 
L 290.083891 89.735224 
L 290.083891 89.484 
L 290.995305 89.484 
L 290.995305 89.232776 
L 292.724577 89.232776 
L 292.724577 88.981551 
L 292.967694 88.981551 
L 292.997574 88.479102 
L 294.726846 88.479102 
L 294.726846 88.227878 
L 297.749494 88.227878 
L 297.749494 87.976654 
L 298.497528 87.976654 
L 298.497528 87.725429 
L 299.751763 87.725429 
L 299.751763 87.474205 
L 301.280554 87.474205 
L 301.280554 87.22298 
L 301.749083 87.22298 
L 301.749083 86.971756 
L 304.393352 86.971756 
L 304.393352 86.720532 
L 306.062355 86.720532 
L 306.062355 86.469307 
L 306.530884 86.469307 
L 306.530884 86.218083 
L 308.064624 86.218083 
L 308.064624 85.966858 
L 308.533153 85.966858 
L 308.533153 85.715634 
L 309.08818 85.715634 
L 309.08818 85.46441 
L 310.16272 85.46441 
L 310.192355 84.961961 
L 312.393997 84.961961 
L 312.393997 84.710736 
L 313.284405 84.710736 
L 313.284405 84.459512 
L 314.55446 84.459512 
L 314.55446 84.208288 
L 314.944521 84.208288 
L 314.944521 83.957063 
L 315.963332 83.957063 
L 316.058544 83.454614 
L 316.94679 83.454614 
L 316.94679 83.20339 
L 318.696012 83.20339 
L 318.696012 82.952166 
L 319.733514 82.952166 
L 319.733514 82.700941 
L 320.840344 82.700941 
L 320.840344 82.449717 
L 321.838473 82.449717 
L 321.838473 82.198492 
L 322.842613 82.198492 
L 322.842613 81.947268 
L 324.257 81.947268 
L 324.257 81.696044 
L 324.949597 81.696044 
L 324.949597 81.444819 
L 329.731397 81.444819 
L 329.731397 81.193595 
L 330.044748 81.193595 
L 330.044748 80.94237 
L 330.361204 80.94237 
L 330.361204 80.691146 
L 331.398706 80.691146 
L 331.398706 80.439922 
L 331.733666 80.439922 
L 331.733666 80.188697 
L 335.143004 80.188697 
L 335.143004 79.937473 
L 336.180506 79.937473 
L 336.180506 79.686248 
L 337.145273 79.686248 
L 337.145273 79.435024 
L 338.182775 79.435024 
L 338.182775 79.1838 
L 341.70994 79.1838 
L 341.70994 78.932575 
L 346.491741 78.932575 
L 346.491741 78.681351 
L 348.49401 78.681351 
L 348.49401 78.430126 
L 401.414845 78.430126 
L 401.414845 78.178902 
L 413.080037 78.178902 
L 413.080037 77.927678 
L 417.861838 77.927678 
L 417.861838 77.676453 
L 419.864107 77.676453 
L 419.864107 77.425229 
L 453.192 77.425229 
L 453.192 77.425229 
" clip-path="url(#p019d015e92)" style="fill: none; stroke: #00bfbf; stroke-width: 3; stroke-linecap: square"/>
   </g>
   <g id="line2d_51">
    <path clip-path="url(#p019d015e92)" style="fill: none; stroke: #00bfbf; stroke-width: 3; stroke-linecap: square"/>
   </g>
   <g id="line2d_52">
    <path d="M 34.16 274.426809 
L 106.586891 274.426809 
L 106.586891 274.128364 
L 108.340267 274.128364 
L 108.340267 273.829919 
L 109.066492 273.829919 
L 109.105223 273.233029 
L 109.738332 273.233029 
L 109.840668 272.636138 
L 110.308576 272.636138 
L 110.308576 272.337693 
L 110.531612 272.337693 
L 110.531612 272.039248 
L 111.27514 272.039248 
L 111.27514 271.740803 
L 112.37258 271.740803 
L 112.37258 271.442358 
L 113.240207 271.442358 
L 113.240207 271.143913 
L 114.13025 271.143913 
L 114.13025 270.845468 
L 115.354382 270.845468 
L 115.361034 270.248578 
L 116.070053 270.248578 
L 116.070053 269.950133 
L 117.260913 269.950133 
L 117.260913 269.651688 
L 119.014289 269.651688 
L 119.028088 269.054798 
L 119.209941 269.054798 
L 119.209941 268.756353 
L 119.740514 268.756353 
L 119.779244 268.159463 
L 120.412354 268.159463 
L 120.51469 267.562573 
L 120.982597 267.562573 
L 120.982597 267.264128 
L 121.205634 267.264128 
L 121.205634 266.965683 
L 121.949162 266.965683 
L 121.949162 266.667238 
L 122.083489 266.667238 
L 122.083489 266.368793 
L 123.836865 266.368793 
L 123.914229 265.771903 
L 124.56309 265.771903 
L 124.60182 265.175013 
L 124.804272 265.175013 
L 124.804272 264.876567 
L 125.23493 264.876567 
L 125.337265 264.279677 
L 125.805173 264.279677 
L 125.805173 263.981232 
L 125.972822 263.981232 
L 126.035056 262.787452 
L 126.771738 262.787452 
L 126.771738 262.489007 
L 128.736805 262.489007 
L 128.736805 262.190562 
L 129.626848 262.190562 
L 129.70211 261.593672 
L 129.883963 261.593672 
L 129.883963 261.295227 
L 130.85098 261.295227 
L 130.857632 260.698337 
L 133.227619 260.698337 
L 133.227619 260.399892 
L 134.524685 260.399892 
L 134.524685 260.101447 
L 134.648321 260.101447 
L 134.706539 259.504557 
L 134.972878 259.504557 
L 134.972878 259.206112 
L 136.726254 259.206112 
L 136.726254 258.907667 
L 137.452479 258.907667 
L 137.491209 258.310777 
L 138.124319 258.310777 
L 138.226654 257.713887 
L 138.694562 257.713887 
L 138.694562 257.415442 
L 138.917598 257.415442 
L 138.917598 257.116997 
L 139.277774 257.116997 
L 139.277774 256.818551 
L 139.636253 256.818551 
L 139.661127 256.221661 
L 141.626194 256.221661 
L 141.626194 255.923216 
L 142.004099 255.923216 
L 142.004099 255.624771 
L 142.194877 255.624771 
L 142.194877 255.326326 
L 142.516237 255.326326 
L 142.516237 255.027881 
L 142.975247 255.027881 
L 142.975247 254.729436 
L 143.574002 254.729436 
L 143.574002 254.430991 
L 143.740369 254.430991 
L 143.757476 253.535656 
L 144.4837 253.535656 
L 144.522431 252.938766 
L 145.15554 252.938766 
L 145.257876 252.341876 
L 145.725784 252.341876 
L 145.725784 252.043431 
L 145.89235 252.043431 
L 145.94882 251.446541 
L 146.515429 251.446541 
L 146.515429 251.148096 
L 146.692348 251.148096 
L 146.692348 250.849651 
L 147.414074 250.849651 
L 147.414074 250.551206 
L 147.595928 250.551206 
L 147.595928 250.252761 
L 148.657415 250.252761 
L 148.657415 249.954316 
L 149.547458 249.954316 
L 149.547458 249.655871 
L 150.032445 249.655871 
L 150.032445 249.357426 
L 150.212902 249.357426 
L 150.212902 249.05898 
L 150.77159 249.05898 
L 150.778242 248.46209 
L 151.785821 248.46209 
L 151.785821 248.163645 
L 152.512046 248.163645 
L 152.550777 247.566755 
L 152.878016 247.566755 
L 152.882897 246.969865 
L 153.183886 246.969865 
L 153.286222 246.372975 
L 153.75413 246.372975 
L 153.75413 246.07453 
L 153.977166 246.07453 
L 153.977166 245.776085 
L 154.445296 245.776085 
L 154.445296 245.47764 
L 154.627149 245.47764 
L 154.720694 244.88075 
L 155.795119 244.88075 
L 155.795119 244.582305 
L 156.58037 244.582305 
L 156.685761 243.985415 
L 157.575804 243.985415 
L 157.575804 243.68697 
L 158.799936 243.68697 
L 158.806588 243.09008 
L 160.115671 243.09008 
L 160.132813 242.49319 
L 162.473642 242.49319 
L 162.473642 242.194745 
L 162.655495 242.194745 
L 162.655495 241.8963 
L 163.049916 241.8963 
L 163.049916 241.597855 
L 163.817118 241.597855 
L 163.817118 241.299409 
L 165.970651 241.299409 
L 165.970651 241.000964 
L 166.352537 241.000964 
L 166.352537 240.702519 
L 166.483139 240.702519 
L 166.541446 240.105629 
L 166.697917 240.105629 
L 166.697917 239.807184 
L 167.370468 239.807184 
L 167.370468 239.508739 
L 168.696483 239.508739 
L 168.696483 239.210294 
L 169.45855 239.210294 
L 169.45855 238.911849 
L 169.96828 238.911849 
L 170.050009 238.314959 
L 170.39539 238.314959 
L 170.479196 237.718069 
L 170.680844 237.718069 
L 170.680844 237.419624 
L 172.393956 237.419624 
L 172.495624 236.822734 
L 172.867354 236.822734 
L 172.867354 236.524289 
L 173.2754 236.524289 
L 173.2754 236.225844 
L 173.396299 236.225844 
L 173.396299 235.927399 
L 173.665753 235.927399 
L 173.737936 235.330509 
L 173.779101 235.330509 
L 173.779101 235.032064 
L 174.26667 235.032064 
L 174.26667 234.733619 
L 174.62073 234.733619 
L 174.62073 234.435174 
L 174.867607 234.435174 
L 174.867607 234.136729 
L 175.028776 234.136729 
L 175.028776 233.838284 
L 175.346955 233.838284 
L 175.385685 233.241393 
L 175.755001 233.241393 
L 175.793732 232.644503 
L 176.018794 232.644503 
L 176.12113 232.047613 
L 176.193096 232.047613 
L 176.193096 231.749168 
L 176.426841 231.749168 
L 176.529177 231.152278 
L 176.589038 231.152278 
L 176.589038 230.853833 
L 176.812074 230.853833 
L 176.812074 230.555388 
L 176.997085 230.555388 
L 176.997085 230.256943 
L 177.220121 230.256943 
L 177.220121 229.958498 
L 177.555603 229.958498 
L 177.555603 229.660053 
L 177.716851 229.660053 
L 177.716851 229.361608 
L 177.963649 229.361608 
L 177.963649 229.063163 
L 178.565079 229.063163 
L 178.565079 228.764718 
L 179.520669 228.764718 
L 179.520669 228.466273 
L 179.928716 228.466273 
L 179.952779 227.869383 
L 180.146569 227.869383 
L 180.146569 227.570938 
L 180.298159 227.570938 
L 180.298159 227.272493 
L 180.410712 227.272493 
L 180.410712 226.974048 
L 180.818759 226.974048 
L 180.818759 226.675603 
L 181.634845 226.675603 
L 181.641497 226.078713 
L 182.042891 226.078713 
L 182.049543 225.481822 
L 182.296725 225.481822 
L 182.296725 225.183377 
L 183.568522 225.183377 
L 183.568522 224.884932 
L 184.084319 224.884932 
L 184.084319 224.586487 
L 185.30855 224.586487 
L 185.30855 224.288042 
L 185.490404 224.288042 
L 185.490404 223.989597 
L 185.716597 223.989597 
L 185.716597 223.691152 
L 185.89845 223.691152 
L 185.89845 223.392707 
L 186.095866 223.392707 
L 186.095866 223.094262 
L 187.207576 223.094262 
L 187.207576 222.795817 
L 187.552957 222.795817 
L 187.552957 222.497372 
L 188.467849 222.497372 
L 188.467849 222.198927 
L 189.551522 222.198927 
L 189.551522 221.900482 
L 190.722312 221.900482 
L 190.82332 221.303592 
L 193.350663 221.303592 
L 193.350663 221.005147 
L 193.616209 221.005147 
L 193.639415 220.408257 
L 193.96159 220.408257 
L 193.96159 220.109812 
L 195.722646 220.109812 
L 195.722646 219.811367 
L 195.960155 219.811367 
L 195.960155 219.512922 
L 197.231953 219.512922 
L 197.231953 219.214477 
L 197.553959 219.214477 
L 197.586038 218.617587 
L 197.899339 218.617587 
L 197.959967 218.020697 
L 199.759296 218.020697 
L 199.759296 217.722251 
L 199.897905 217.722251 
L 199.897905 217.423806 
L 200.503141 217.423806 
L 200.503141 217.125361 
L 201.169702 217.125361 
L 201.169702 216.826916 
L 202.131279 216.826916 
L 202.131279 216.528471 
L 203.697046 216.528471 
L 203.697046 216.230026 
L 204.327435 216.230026 
L 204.327435 215.931581 
L 204.823693 215.931581 
L 204.823693 215.633136 
L 206.069029 215.633136 
L 206.069029 215.334691 
L 207.659235 215.334691 
L 207.659235 215.036246 
L 207.933108 215.036246 
L 207.933108 214.737801 
L 209.349745 214.737801 
L 209.412611 214.140911 
L 209.686484 214.140911 
L 209.686484 213.842466 
L 210.138836 213.842466 
L 210.177566 213.245576 
L 210.412709 213.245576 
L 210.45144 212.648686 
L 210.810675 212.648686 
L 210.913011 212.051796 
L 211.084549 212.051796 
L 211.191161 210.858016 
L 211.214892 210.858016 
L 211.214892 210.559571 
L 211.380919 210.559571 
L 211.380919 210.261126 
L 211.603955 210.261126 
L 211.654793 209.664235 
L 211.877829 209.664235 
L 211.877829 209.36579 
L 212.347484 209.36579 
L 212.347484 209.067345 
L 212.621357 209.067345 
L 212.621357 208.7689 
L 214.147358 208.7689 
L 214.147358 208.470455 
L 214.312551 208.470455 
L 214.312551 208.17201 
L 214.586424 208.17201 
L 214.592292 207.57512 
L 215.128705 207.57512 
L 215.202594 206.97823 
L 215.258521 206.97823 
L 215.258521 206.679785 
L 215.476467 206.679785 
L 215.476467 206.38134 
L 216.426726 206.38134 
L 216.433378 205.78445 
L 216.700599 205.78445 
L 216.707251 205.18756 
L 217.797075 205.18756 
L 217.797075 204.889115 
L 218.142455 204.889115 
L 218.170077 204.292225 
L 218.954294 204.292225 
L 218.954294 203.99378 
L 219.923453 203.99378 
L 219.923453 203.695335 
L 220.100431 203.695335 
L 220.141021 203.098445 
L 220.282285 203.098445 
L 220.374305 202.501555 
L 220.556158 202.501555 
L 220.649678 201.904664 
L 220.688408 201.904664 
L 220.688408 201.606219 
L 221.321518 201.606219 
L 221.423854 200.710884 
L 221.891761 200.710884 
L 221.953294 200.113994 
L 222.114798 200.113994 
L 222.114798 199.815549 
L 222.858326 199.815549 
L 222.858326 199.517104 
L 223.940162 199.517104 
L 223.940162 199.218659 
L 224.660801 199.218659 
L 224.660801 198.920214 
L 224.823393 198.920214 
L 224.823393 198.621769 
L 225.006181 198.621769 
L 225.006181 198.323324 
L 225.713436 198.323324 
L 225.713436 198.024879 
L 226.312145 198.024879 
L 226.312145 197.726434 
L 226.937568 197.726434 
L 227.004747 196.831099 
L 228.276544 196.831099 
L 228.276544 196.532654 
L 230.611274 196.532654 
L 230.611274 196.234209 
L 230.793127 196.234209 
L 230.803888 195.637319 
L 231.311693 195.637319 
L 231.311693 195.338874 
L 231.615615 195.338874 
L 231.615615 195.040429 
L 233.065069 195.040429 
L 233.175871 194.443539 
L 233.368991 194.443539 
L 233.368991 194.145093 
L 233.791294 194.145093 
L 233.830024 193.548203 
L 234.095216 193.548203 
L 234.133946 192.951313 
L 234.463133 192.951313 
L 234.565469 192.354423 
L 234.767055 192.354423 
L 234.869391 191.757533 
L 235.033377 191.757533 
L 235.033377 191.459088 
L 235.256413 191.459088 
L 235.337299 190.862198 
L 235.560335 190.862198 
L 235.582343 190.265308 
L 235.999942 190.265308 
L 235.999942 189.966863 
L 236.303864 189.966863 
L 236.303864 189.668418 
L 237.335719 189.668418 
L 237.335719 189.369973 
L 237.965008 189.369973 
L 238.061944 188.773083 
L 238.100675 188.773083 
L 238.100675 188.474638 
L 238.26893 188.474638 
L 238.26893 188.176193 
L 238.733784 188.176193 
L 238.83612 187.579303 
L 238.855051 187.579303 
L 238.855051 187.280858 
L 239.158973 187.280858 
L 239.158973 186.982413 
L 239.304028 186.982413 
L 239.304028 186.683968 
L 239.527064 186.683968 
L 239.527064 186.385522 
L 240.079184 186.385522 
L 240.085836 185.788632 
L 240.270592 185.788632 
L 240.270592 185.490187 
L 240.383106 185.490187 
L 240.389758 184.893297 
L 240.672074 184.893297 
L 240.672074 184.594852 
L 242.235659 184.594852 
L 242.235659 184.296407 
L 242.437567 184.296407 
L 242.537221 183.699517 
L 243.125702 183.699517 
L 243.125702 183.401072 
L 243.752889 183.401072 
L 243.752889 183.102627 
L 243.934743 183.102627 
L 243.934743 182.804182 
L 244.056811 182.804182 
L 244.056811 182.505737 
L 244.238665 182.505737 
L 244.238665 182.207292 
L 244.349834 182.207292 
L 244.356486 181.610402 
L 245.469688 181.610402 
L 245.469688 181.311957 
L 245.914622 181.311957 
L 245.914622 181.013512 
L 246.451034 181.013512 
L 246.451034 180.715067 
L 246.58085 180.715067 
L 246.58085 180.416622 
L 248.02354 180.416622 
L 248.02354 180.118177 
L 248.205393 180.118177 
L 248.205393 179.819732 
L 248.968093 179.819732 
L 248.968093 179.521287 
L 250.276623 179.521287 
L 250.276623 179.222842 
L 250.733585 179.222842 
L 250.83324 178.625952 
L 253.275624 178.625952 
L 253.275624 178.327506 
L 253.765707 178.327506 
L 253.765707 178.029061 
L 254.21064 178.029061 
L 254.21064 177.730616 
L 254.747053 177.730616 
L 254.747053 177.432171 
L 254.876869 177.432171 
L 254.876869 177.133726 
L 258.572642 177.133726 
L 258.572642 176.835281 
L 261.571643 176.835281 
L 261.571643 176.536836 
L 267.624606 176.536836 
L 267.624606 176.238391 
L 269.377982 176.238391 
L 269.377982 175.939946 
L 270.104206 175.939946 
L 270.142937 175.343056 
L 270.776046 175.343056 
L 270.878382 174.746166 
L 271.34629 174.746166 
L 271.34629 174.447721 
L 271.569326 174.447721 
L 271.569326 174.149276 
L 272.312854 174.149276 
L 272.312854 173.850831 
L 274.277921 173.850831 
L 274.277921 173.552386 
L 275.167964 173.552386 
L 275.167964 173.253941 
L 276.392096 173.253941 
L 276.398748 172.657051 
L 280.065802 172.657051 
L 280.065802 172.358606 
L 280.247655 172.358606 
L 280.247655 172.060161 
L 453.192 172.060161 
L 453.192 172.060161 
" clip-path="url(#p019d015e92)" style="fill: none; stroke: #bf00bf; stroke-width: 3; stroke-linecap: square"/>
   </g>
   <g id="line2d_53">
    <path clip-path="url(#p019d015e92)" style="fill: none; stroke: #bf00bf; stroke-width: 3; stroke-linecap: square"/>
   </g>
   <g id="line2d_54">
    <path d="M 34.16 278.359888 
L 126.937329 278.359888 
L 126.937329 278.023427 
L 139.339121 278.023427 
L 139.339121 277.686965 
L 148.7987 277.686965 
L 148.7987 277.350504 
L 152.001116 277.350504 
L 152.001116 277.014043 
L 155.833206 277.014043 
L 155.833206 276.677582 
L 161.200493 276.677582 
L 161.200493 276.34112 
L 163.793002 276.34112 
L 163.793002 276.004659 
L 164.536183 276.004659 
L 164.536183 275.668198 
L 165.232156 275.668198 
L 165.232156 275.331737 
L 165.765492 275.331737 
L 165.765492 274.995275 
L 166.470139 274.995275 
L 166.470139 274.658814 
L 168.234998 274.658814 
L 168.234998 274.322353 
L 170.417103 274.322353 
L 170.417103 273.985892 
L 170.531684 273.985892 
L 170.531684 273.64943 
L 170.708288 273.64943 
L 170.708288 273.312969 
L 172.890097 273.312969 
L 172.890097 272.976508 
L 173.084844 272.976508 
L 173.084844 272.640047 
L 173.521739 272.640047 
L 173.521739 272.303585 
L 173.862488 272.303585 
L 173.862488 271.967124 
L 174.880337 271.967124 
L 174.94342 271.294202 
L 175.668061 271.294202 
L 175.668061 270.95774 
L 176.194794 270.95774 
L 176.194794 270.621279 
L 177.170311 270.621279 
L 177.197087 269.948357 
L 177.946293 269.948357 
L 177.946293 269.611895 
L 178.191978 269.611895 
L 178.191978 269.275434 
L 178.705748 269.275434 
L 178.705748 268.938973 
L 179.217161 268.938973 
L 179.217161 268.602512 
L 180.896994 268.602512 
L 181.005926 267.929589 
L 181.71742 267.929589 
L 181.751699 267.256667 
L 181.87163 267.256667 
L 181.87163 266.920205 
L 184.344624 266.920205 
L 184.344624 266.583744 
L 184.539372 266.583744 
L 184.539372 266.247283 
L 184.976266 266.247283 
L 184.976266 265.910822 
L 186.334865 265.910822 
L 186.397948 264.901438 
L 187.093528 264.901438 
L 187.122588 264.228515 
L 187.626863 264.228515 
L 187.626863 263.892054 
L 188.33151 263.892054 
L 188.33151 263.555593 
L 188.624838 263.555593 
L 188.651614 262.88267 
L 188.85679 262.88267 
L 188.85679 262.546209 
L 189.400821 262.546209 
L 189.400821 262.209748 
L 189.646505 262.209748 
L 189.646505 261.873287 
L 190.160275 261.873287 
L 190.160275 261.536825 
L 190.671688 261.536825 
L 190.671688 261.200364 
L 192.393056 261.200364 
L 192.393056 260.863903 
L 192.569659 260.863903 
L 192.569659 260.527442 
L 193.171947 260.527442 
L 193.206227 259.854519 
L 193.407719 259.854519 
L 193.43206 259.181597 
L 194.128034 259.181597 
L 194.128034 258.845135 
L 194.661369 258.845135 
L 194.661369 258.508674 
L 195.366016 258.508674 
L 195.366016 258.172213 
L 199.427562 258.172213 
L 199.427562 257.835752 
L 199.604165 257.835752 
L 199.604165 257.49929 
L 201.391856 257.49929 
L 201.391856 257.162829 
L 202.08783 257.162829 
L 202.08783 256.826368 
L 202.621165 256.826368 
L 202.621165 256.489907 
L 203.325812 256.489907 
L 203.325812 256.153445 
L 206.069714 256.153445 
L 206.069714 255.816984 
L 207.387358 255.816984 
L 207.387358 255.480523 
L 207.563961 255.480523 
L 207.563961 255.144062 
L 218.60478 255.144062 
L 218.60478 254.8076 
L 219.300754 254.8076 
L 219.300754 254.471139 
L 219.83409 254.471139 
L 219.83409 254.134678 
L 220.538736 254.134678 
L 220.538736 253.798217 
L 224.600282 253.798217 
L 224.600282 253.461755 
L 224.776885 253.461755 
L 224.776885 253.125294 
L 453.192 253.125294 
L 453.192 253.125294 
" clip-path="url(#p019d015e92)" style="fill: none; stroke: #ff0000; stroke-width: 3; stroke-linecap: square"/>
   </g>
   <g id="line2d_55">
    <path clip-path="url(#p019d015e92)" style="fill: none; stroke: #ff0000; stroke-width: 3; stroke-linecap: square"/>
   </g>
   <g id="line2d_56">
    <path d="M 243.676 291.28 
L 243.676 3 
" clip-path="url(#p019d015e92)" style="fill: none; stroke: #000000; stroke-width: 1.5; stroke-linecap: square"/>
   </g>
   <g id="line2d_57">
    <path d="M 34.16 147.14 
L 453.192 147.14 
" clip-path="url(#p019d015e92)" style="fill: none; stroke-dasharray: 2,3.3; stroke-dashoffset: 0; stroke: #000000; stroke-width: 2"/>
   </g>
   <g id="patch_3">
    <path d="M 34.16 291.28 
L 34.16 3 
" style="fill: none; stroke: #000000; stroke-width: 0.8; stroke-linejoin: miter; stroke-linecap: square"/>
   </g>
   <g id="patch_4">
    <path d="M 453.192 291.28 
L 453.192 3 
" style="fill: none; stroke: #000000; stroke-width: 0.8; stroke-linejoin: miter; stroke-linecap: square"/>
   </g>
   <g id="patch_5">
    <path d="M 34.16 291.28 
L 453.192 291.28 
" style="fill: none; stroke: #000000; stroke-width: 0.8; stroke-linejoin: miter; stroke-linecap: square"/>
   </g>
   <g id="patch_6">
    <path d="M 34.16 3 
L 453.192 3 
" style="fill: none; stroke: #000000; stroke-width: 0.8; stroke-linejoin: miter; stroke-linecap: square"/>
   </g>
   <g id="text_6">
    <!-- f15-f19,20-D -->
    <g transform="translate(318.19261 285.5144)scale(0.2 -0.2)">
     <defs>
      <path id="DejaVuSans-35" d="M 691 4666 
L 3169 4666 
L 3169 4134 
L 1269 4134 
L 1269 2991 
Q 1406 3038 1543 3061 
Q 1681 3084 1819 3084 
Q 2600 3084 3056 2656 
Q 3513 2228 3513 1497 
Q 3513 744 3044 326 
Q 2575 -91 1722 -91 
Q 1428 -91 1123 -41 
Q 819 9 494 109 
L 494 744 
Q 775 591 1075 516 
Q 1375 441 1709 441 
Q 2250 441 2565 725 
Q 2881 1009 2881 1497 
Q 2881 1984 2565 2268 
Q 2250 2553 1709 2553 
Q 1456 2553 1204 2497 
Q 953 2441 691 2322 
L 691 4666 
z
" transform="scale(0.015625)"/>
      <path id="DejaVuSans-39" d="M 703 97 
L 703 672 
Q 941 559 1184 500 
Q 1428 441 1663 441 
Q 2288 441 2617 861 
Q 2947 1281 2994 2138 
Q 2813 1869 2534 1725 
Q 2256 1581 1919 1581 
Q 1219 1581 811 2004 
Q 403 2428 403 3163 
Q 403 3881 828 4315 
Q 1253 4750 1959 4750 
Q 2769 4750 3195 4129 
Q 3622 3509 3622 2328 
Q 3622 1225 3098 567 
Q 2575 -91 1691 -91 
Q 1453 -91 1209 -44 
Q 966 3 703 97 
z
M 1959 2075 
Q 2384 2075 2632 2365 
Q 2881 2656 2881 3163 
Q 2881 3666 2632 3958 
Q 2384 4250 1959 4250 
Q 1534 4250 1286 3958 
Q 1038 3666 1038 3163 
Q 1038 2656 1286 2365 
Q 1534 2075 1959 2075 
z
" transform="scale(0.015625)"/>
      <path id="DejaVuSans-2c" d="M 750 794 
L 1409 794 
L 1409 256 
L 897 -744 
L 494 -744 
L 750 256 
L 750 794 
z
" transform="scale(0.015625)"/>
      <path id="DejaVuSans-32" d="M 1228 531 
L 3431 531 
L 3431 0 
L 469 0 
L 469 531 
Q 828 903 1448 1529 
Q 2069 2156 2228 2338 
Q 2531 2678 2651 2914 
Q 2772 3150 2772 3378 
Q 2772 3750 2511 3984 
Q 2250 4219 1831 4219 
Q 1534 4219 1204 4116 
Q 875 4013 500 3803 
L 500 4441 
Q 881 4594 1212 4672 
Q 1544 4750 1819 4750 
Q 2544 4750 2975 4387 
Q 3406 4025 3406 3419 
Q 3406 3131 3298 2873 
Q 3191 2616 2906 2266 
Q 2828 2175 2409 1742 
Q 1991 1309 1228 531 
z
" transform="scale(0.015625)"/>
      <path id="DejaVuSans-44" d="M 1259 4147 
L 1259 519 
L 2022 519 
Q 2988 519 3436 956 
Q 3884 1394 3884 2338 
Q 3884 3275 3436 3711 
Q 2988 4147 2022 4147 
L 1259 4147 
z
M 628 4666 
L 1925 4666 
Q 3281 4666 3915 4102 
Q 4550 3538 4550 2338 
Q 4550 1131 3912 565 
Q 3275 0 1925 0 
L 628 0 
L 628 4666 
z
" transform="scale(0.015625)"/>
     </defs>
     <use xlink:href="#DejaVuSans-66"/>
     <use xlink:href="#DejaVuSans-31" x="35.205078"/>
     <use xlink:href="#DejaVuSans-35" x="98.828125"/>
     <use xlink:href="#DejaVuSans-2d" x="162.451172"/>
     <use xlink:href="#DejaVuSans-66" x="198.535156"/>
     <use xlink:href="#DejaVuSans-31" x="233.740234"/>
     <use xlink:href="#DejaVuSans-39" x="297.363281"/>
     <use xlink:href="#DejaVuSans-2c" x="360.986328"/>
     <use xlink:href="#DejaVuSans-32" x="392.773438"/>
     <use xlink:href="#DejaVuSans-30" x="456.396484"/>
     <use xlink:href="#DejaVuSans-2d" x="520.019531"/>
     <use xlink:href="#DejaVuSans-44" x="556.103516"/>
    </g>
   </g>
   <g id="text_7">
    <!-- v2.6.3 -->
    <g style="fill: #808080" transform="translate(227.99475 286.317512)scale(0.1 -0.1)">
     <defs>
      <path id="DejaVuSans-2e" d="M 684 794 
L 1344 794 
L 1344 0 
L 684 0 
L 684 794 
z
" transform="scale(0.015625)"/>
      <path id="DejaVuSans-36" d="M 2113 2584 
Q 1688 2584 1439 2293 
Q 1191 2003 1191 1497 
Q 1191 994 1439 701 
Q 1688 409 2113 409 
Q 2538 409 2786 701 
Q 3034 994 3034 1497 
Q 3034 2003 2786 2293 
Q 2538 2584 2113 2584 
z
M 3366 4563 
L 3366 3988 
Q 3128 4100 2886 4159 
Q 2644 4219 2406 4219 
Q 1781 4219 1451 3797 
Q 1122 3375 1075 2522 
Q 1259 2794 1537 2939 
Q 1816 3084 2150 3084 
Q 2853 3084 3261 2657 
Q 3669 2231 3669 1497 
Q 3669 778 3244 343 
Q 2819 -91 2113 -91 
Q 1303 -91 875 529 
Q 447 1150 447 2328 
Q 447 3434 972 4092 
Q 1497 4750 2381 4750 
Q 2619 4750 2861 4703 
Q 3103 4656 3366 4563 
z
" transform="scale(0.015625)"/>
      <path id="DejaVuSans-33" d="M 2597 2516 
Q 3050 2419 3304 2112 
Q 3559 1806 3559 1356 
Q 3559 666 3084 287 
Q 2609 -91 1734 -91 
Q 1441 -91 1130 -33 
Q 819 25 488 141 
L 488 750 
Q 750 597 1062 519 
Q 1375 441 1716 441 
Q 2309 441 2620 675 
Q 2931 909 2931 1356 
Q 2931 1769 2642 2001 
Q 2353 2234 1838 2234 
L 1294 2234 
L 1294 2753 
L 1863 2753 
Q 2328 2753 2575 2939 
Q 2822 3125 2822 3475 
Q 2822 3834 2567 4026 
Q 2313 4219 1838 4219 
Q 1578 4219 1281 4162 
Q 984 4106 628 3988 
L 628 4550 
Q 988 4650 1302 4700 
Q 1616 4750 1894 4750 
Q 2613 4750 3031 4423 
Q 3450 4097 3450 3541 
Q 3450 3153 3228 2886 
Q 3006 2619 2597 2516 
z
" transform="scale(0.015625)"/>
     </defs>
     <use xlink:href="#DejaVuSans-76"/>
     <use xlink:href="#DejaVuSans-32" x="59.179688"/>
     <use xlink:href="#DejaVuSans-2e" x="122.802734"/>
     <use xlink:href="#DejaVuSans-36" x="154.589844"/>
     <use xlink:href="#DejaVuSans-2e" x="218.212891"/>
     <use xlink:href="#DejaVuSans-33" x="250"/>
    </g>
   </g>
   <g id="legend_1">
    <g id="patch_7">
     <path d="M 309.970125 281.28 
L 439.192 281.28 
Q 443.192 281.28 443.192 277.28 
L 443.192 161.855 
Q 443.192 157.855 439.192 157.855 
L 309.970125 157.855 
Q 305.970125 157.855 305.970125 161.855 
L 305.970125 277.28 
Q 305.970125 281.28 309.970125 281.28 
z
" style="fill: #ffffff; opacity: 0.2; stroke: #cccccc; stroke-linejoin: miter"/>
    </g>
    <g id="line2d_58">
     <path d="M 313.970125 174.051875 
L 333.970125 174.051875 
L 353.970125 174.051875 
" style="fill: none; stroke: #000000; stroke-width: 3; stroke-linecap: square"/>
    </g>
    <g id="text_8">
     <!-- 1: 5/5 -->
     <g transform="translate(369.970125 181.051875)scale(0.2 -0.2)">
      <defs>
       <path id="DejaVuSans-3a" d="M 750 794 
L 1409 794 
L 1409 0 
L 750 0 
L 750 794 
z
M 750 3309 
L 1409 3309 
L 1409 2516 
L 750 2516 
L 750 3309 
z
" transform="scale(0.015625)"/>
       <path id="DejaVuSans-2f" d="M 1625 4666 
L 2156 4666 
L 531 -594 
L 0 -594 
L 1625 4666 
z
" transform="scale(0.015625)"/>
      </defs>
      <use xlink:href="#DejaVuSans-31"/>
      <use xlink:href="#DejaVuSans-3a" x="63.623047"/>
      <use xlink:href="#DejaVuSans-20" x="97.314453"/>
      <use xlink:href="#DejaVuSans-35" x="129.101562"/>
      <use xlink:href="#DejaVuSans-2f" x="192.724609"/>
      <use xlink:href="#DejaVuSans-35" x="226.416016"/>
     </g>
    </g>
    <g id="line2d_59">
     <path d="M 313.970125 203.408125 
L 333.970125 203.408125 
L 353.970125 203.408125 
" style="fill: none; stroke: #00bfbf; stroke-width: 3; stroke-linecap: square"/>
    </g>
    <g id="text_9">
     <!-- -1: 4/5 -->
     <g transform="translate(369.970125 210.408125)scale(0.2 -0.2)">
      <defs>
       <path id="DejaVuSans-34" d="M 2419 4116 
L 825 1625 
L 2419 1625 
L 2419 4116 
z
M 2253 4666 
L 3047 4666 
L 3047 1625 
L 3713 1625 
L 3713 1100 
L 3047 1100 
L 3047 0 
L 2419 0 
L 2419 1100 
L 313 1100 
L 313 1709 
L 2253 4666 
z
" transform="scale(0.015625)"/>
      </defs>
      <use xlink:href="#DejaVuSans-2d"/>
      <use xlink:href="#DejaVuSans-31" x="36.083984"/>
      <use xlink:href="#DejaVuSans-3a" x="99.707031"/>
      <use xlink:href="#DejaVuSans-20" x="133.398438"/>
      <use xlink:href="#DejaVuSans-34" x="165.185547"/>
      <use xlink:href="#DejaVuSans-2f" x="228.808594"/>
      <use xlink:href="#DejaVuSans-35" x="262.5"/>
     </g>
    </g>
    <g id="line2d_60">
     <path d="M 313.970125 232.764375 
L 333.970125 232.764375 
L 353.970125 232.764375 
" style="fill: none; stroke: #bf00bf; stroke-width: 3; stroke-linecap: square"/>
    </g>
    <g id="text_10">
     <!-- -4: 3/5 -->
     <g transform="translate(369.970125 239.764375)scale(0.2 -0.2)">
      <use xlink:href="#DejaVuSans-2d"/>
      <use xlink:href="#DejaVuSans-34" x="36.083984"/>
      <use xlink:href="#DejaVuSans-3a" x="99.707031"/>
      <use xlink:href="#DejaVuSans-20" x="133.398438"/>
      <use xlink:href="#DejaVuSans-33" x="165.185547"/>
      <use xlink:href="#DejaVuSans-2f" x="228.808594"/>
      <use xlink:href="#DejaVuSans-35" x="262.5"/>
     </g>
    </g>
    <g id="line2d_61">
     <path d="M 313.970125 262.120625 
L 333.970125 262.120625 
L 353.970125 262.120625 
" style="fill: none; stroke: #ff0000; stroke-width: 3; stroke-linecap: square"/>
    </g>
    <g id="text_11">
     <!-- -8: 2/5 -->
     <g transform="translate(369.970125 269.120625)scale(0.2 -0.2)">
      <defs>
       <path id="DejaVuSans-38" d="M 2034 2216 
Q 1584 2216 1326 1975 
Q 1069 1734 1069 1313 
Q 1069 891 1326 650 
Q 1584 409 2034 409 
Q 2484 409 2743 651 
Q 3003 894 3003 1313 
Q 3003 1734 2745 1975 
Q 2488 2216 2034 2216 
z
M 1403 2484 
Q 997 2584 770 2862 
Q 544 3141 544 3541 
Q 544 4100 942 4425 
Q 1341 4750 2034 4750 
Q 2731 4750 3128 4425 
Q 3525 4100 3525 3541 
Q 3525 3141 3298 2862 
Q 3072 2584 2669 2484 
Q 3125 2378 3379 2068 
Q 3634 1759 3634 1313 
Q 3634 634 3220 271 
Q 2806 -91 2034 -91 
Q 1263 -91 848 271 
Q 434 634 434 1313 
Q 434 1759 690 2068 
Q 947 2378 1403 2484 
z
M 1172 3481 
Q 1172 3119 1398 2916 
Q 1625 2713 2034 2713 
Q 2441 2713 2670 2916 
Q 2900 3119 2900 3481 
Q 2900 3844 2670 4047 
Q 2441 4250 2034 4250 
Q 1625 4250 1398 4047 
Q 1172 3844 1172 3481 
z
" transform="scale(0.015625)"/>
      </defs>
      <use xlink:href="#DejaVuSans-2d"/>
      <use xlink:href="#DejaVuSans-38" x="36.083984"/>
      <use xlink:href="#DejaVuSans-3a" x="99.707031"/>
      <use xlink:href="#DejaVuSans-20" x="133.398438"/>
      <use xlink:href="#DejaVuSans-32" x="165.185547"/>
      <use xlink:href="#DejaVuSans-2f" x="228.808594"/>
      <use xlink:href="#DejaVuSans-35" x="262.5"/>
     </g>
    </g>
   </g>
  </g>
 </g>
 <defs>
  <clipPath id="p019d015e92">
   <rect x="34.16" y="3" width="419.032" height="288.28"/>
  </clipPath>
 </defs>
</svg>
