<?xml version="1.0" encoding="utf-8" standalone="no"?>
<!DOCTYPE svg PUBLIC "-//W3C//DTD SVG 1.1//EN"
  "http://www.w3.org/Graphics/SVG/1.1/DTD/svg11.dtd">
<svg xmlns:xlink="http://www.w3.org/1999/xlink" width="460.8pt" height="345.6pt" viewBox="0 0 460.8 345.6" xmlns="http://www.w3.org/2000/svg" version="1.1">
 <metadata>
  <rdf:RDF xmlns:dc="http://purl.org/dc/elements/1.1/" xmlns:cc="http://creativecommons.org/ns#" xmlns:rdf="http://www.w3.org/1999/02/22-rdf-syntax-ns#">
   <cc:Work>
    <dc:type rdf:resource="http://purl.org/dc/dcmitype/StillImage"/>
    <dc:date>2024-06-19T19:28:26.874323</dc:date>
    <dc:format>image/svg+xml</dc:format>
    <dc:creator>
     <cc:Agent>
      <dc:title>Matplotlib v3.5.2, https://matplotlib.org/</dc:title>
     </cc:Agent>
    </dc:creator>
   </cc:Work>
  </rdf:RDF>
 </metadata>
 <defs>
  <style type="text/css">*{stroke-linejoin: round; stroke-linecap: butt}</style>
 </defs>
 <g id="figure_1">
  <g id="patch_1">
   <path d="M 0 345.6 
L 460.8 345.6 
L 460.8 0 
L 0 0 
z
" style="fill: #ffffff"/>
  </g>
  <g id="axes_1">
   <g id="patch_2">
    <path d="M 34.16 291.28 
L 453.192 291.28 
L 453.192 3 
L 34.16 3 
z
" style="fill: #ffffff"/>
   </g>
   <g id="matplotlib.axis_1">
    <g id="xtick_1">
     <g id="line2d_1">
      <path d="M 120.44214 291.28 
L 120.44214 3 
" clip-path="url(#p9ea5cb3905)" style="fill: none; stroke: #b0b0b0; stroke-width: 0.8; stroke-linecap: square"/>
     </g>
     <g id="line2d_2">
      <defs>
       <path id="m4dc94e0f70" d="M 0 0 
L 0 3.5 
" style="stroke: #000000; stroke-width: 0.8"/>
      </defs>
      <g>
       <use xlink:href="#m4dc94e0f70" x="120.44214" y="291.28" style="stroke: #000000; stroke-width: 0.8"/>
      </g>
     </g>
     <g id="text_1">
      <!-- -2 -->
      <g transform="translate(110.471828 313.476875)scale(0.2 -0.2)">
       <defs>
        <path id="DejaVuSans-2d" d="M 313 2009 
L 1997 2009 
L 1997 1497 
L 313 1497 
L 313 2009 
z
" transform="scale(0.015625)"/>
        <path id="DejaVuSans-32" d="M 1228 531 
L 3431 531 
L 3431 0 
L 469 0 
L 469 531 
Q 828 903 1448 1529 
Q 2069 2156 2228 2338 
Q 2531 2678 2651 2914 
Q 2772 3150 2772 3378 
Q 2772 3750 2511 3984 
Q 2250 4219 1831 4219 
Q 1534 4219 1204 4116 
Q 875 4013 500 3803 
L 500 4441 
Q 881 4594 1212 4672 
Q 1544 4750 1819 4750 
Q 2544 4750 2975 4387 
Q 3406 4025 3406 3419 
Q 3406 3131 3298 2873 
Q 3191 2616 2906 2266 
Q 2828 2175 2409 1742 
Q 1991 1309 1228 531 
z
" transform="scale(0.015625)"/>
       </defs>
       <use xlink:href="#DejaVuSans-2d"/>
       <use xlink:href="#DejaVuSans-32" x="36.083984"/>
      </g>
     </g>
    </g>
    <g id="xtick_2">
     <g id="line2d_3">
      <path d="M 243.676 291.28 
L 243.676 3 
" clip-path="url(#p9ea5cb3905)" style="fill: none; stroke: #b0b0b0; stroke-width: 0.8; stroke-linecap: square"/>
     </g>
     <g id="line2d_4">
      <g>
       <use xlink:href="#m4dc94e0f70" x="243.676" y="291.28" style="stroke: #000000; stroke-width: 0.8"/>
      </g>
     </g>
     <g id="text_2">
      <!-- 0 -->
      <g transform="translate(237.3135 313.476875)scale(0.2 -0.2)">
       <defs>
        <path id="DejaVuSans-30" d="M 2034 4250 
Q 1547 4250 1301 3770 
Q 1056 3291 1056 2328 
Q 1056 1369 1301 889 
Q 1547 409 2034 409 
Q 2525 409 2770 889 
Q 3016 1369 3016 2328 
Q 3016 3291 2770 3770 
Q 2525 4250 2034 4250 
z
M 2034 4750 
Q 2819 4750 3233 4129 
Q 3647 3509 3647 2328 
Q 3647 1150 3233 529 
Q 2819 -91 2034 -91 
Q 1250 -91 836 529 
Q 422 1150 422 2328 
Q 422 3509 836 4129 
Q 1250 4750 2034 4750 
z
" transform="scale(0.015625)"/>
       </defs>
       <use xlink:href="#DejaVuSans-30"/>
      </g>
     </g>
    </g>
    <g id="xtick_3">
     <g id="line2d_5">
      <path d="M 366.90986 291.28 
L 366.90986 3 
" clip-path="url(#p9ea5cb3905)" style="fill: none; stroke: #b0b0b0; stroke-width: 0.8; stroke-linecap: square"/>
     </g>
     <g id="line2d_6">
      <g>
       <use xlink:href="#m4dc94e0f70" x="366.90986" y="291.28" style="stroke: #000000; stroke-width: 0.8"/>
      </g>
     </g>
     <g id="text_3">
      <!-- 2 -->
      <g transform="translate(360.54736 313.476875)scale(0.2 -0.2)">
       <use xlink:href="#DejaVuSans-32"/>
      </g>
     </g>
    </g>
    <g id="text_4">
     <!-- log10 of FEvals ratio -->
     <g transform="translate(141.371312 336.833125)scale(0.2 -0.2)">
      <defs>
       <path id="DejaVuSans-6c" d="M 603 4863 
L 1178 4863 
L 1178 0 
L 603 0 
L 603 4863 
z
" transform="scale(0.015625)"/>
       <path id="DejaVuSans-6f" d="M 1959 3097 
Q 1497 3097 1228 2736 
Q 959 2375 959 1747 
Q 959 1119 1226 758 
Q 1494 397 1959 397 
Q 2419 397 2687 759 
Q 2956 1122 2956 1747 
Q 2956 2369 2687 2733 
Q 2419 3097 1959 3097 
z
M 1959 3584 
Q 2709 3584 3137 3096 
Q 3566 2609 3566 1747 
Q 3566 888 3137 398 
Q 2709 -91 1959 -91 
Q 1206 -91 779 398 
Q 353 888 353 1747 
Q 353 2609 779 3096 
Q 1206 3584 1959 3584 
z
" transform="scale(0.015625)"/>
       <path id="DejaVuSans-67" d="M 2906 1791 
Q 2906 2416 2648 2759 
Q 2391 3103 1925 3103 
Q 1463 3103 1205 2759 
Q 947 2416 947 1791 
Q 947 1169 1205 825 
Q 1463 481 1925 481 
Q 2391 481 2648 825 
Q 2906 1169 2906 1791 
z
M 3481 434 
Q 3481 -459 3084 -895 
Q 2688 -1331 1869 -1331 
Q 1566 -1331 1297 -1286 
Q 1028 -1241 775 -1147 
L 775 -588 
Q 1028 -725 1275 -790 
Q 1522 -856 1778 -856 
Q 2344 -856 2625 -561 
Q 2906 -266 2906 331 
L 2906 616 
Q 2728 306 2450 153 
Q 2172 0 1784 0 
Q 1141 0 747 490 
Q 353 981 353 1791 
Q 353 2603 747 3093 
Q 1141 3584 1784 3584 
Q 2172 3584 2450 3431 
Q 2728 3278 2906 2969 
L 2906 3500 
L 3481 3500 
L 3481 434 
z
" transform="scale(0.015625)"/>
       <path id="DejaVuSans-31" d="M 794 531 
L 1825 531 
L 1825 4091 
L 703 3866 
L 703 4441 
L 1819 4666 
L 2450 4666 
L 2450 531 
L 3481 531 
L 3481 0 
L 794 0 
L 794 531 
z
" transform="scale(0.015625)"/>
       <path id="DejaVuSans-20" transform="scale(0.015625)"/>
       <path id="DejaVuSans-66" d="M 2375 4863 
L 2375 4384 
L 1825 4384 
Q 1516 4384 1395 4259 
Q 1275 4134 1275 3809 
L 1275 3500 
L 2222 3500 
L 2222 3053 
L 1275 3053 
L 1275 0 
L 697 0 
L 697 3053 
L 147 3053 
L 147 3500 
L 697 3500 
L 697 3744 
Q 697 4328 969 4595 
Q 1241 4863 1831 4863 
L 2375 4863 
z
" transform="scale(0.015625)"/>
       <path id="DejaVuSans-46" d="M 628 4666 
L 3309 4666 
L 3309 4134 
L 1259 4134 
L 1259 2759 
L 3109 2759 
L 3109 2228 
L 1259 2228 
L 1259 0 
L 628 0 
L 628 4666 
z
" transform="scale(0.015625)"/>
       <path id="DejaVuSans-45" d="M 628 4666 
L 3578 4666 
L 3578 4134 
L 1259 4134 
L 1259 2753 
L 3481 2753 
L 3481 2222 
L 1259 2222 
L 1259 531 
L 3634 531 
L 3634 0 
L 628 0 
L 628 4666 
z
" transform="scale(0.015625)"/>
       <path id="DejaVuSans-76" d="M 191 3500 
L 800 3500 
L 1894 563 
L 2988 3500 
L 3597 3500 
L 2284 0 
L 1503 0 
L 191 3500 
z
" transform="scale(0.015625)"/>
       <path id="DejaVuSans-61" d="M 2194 1759 
Q 1497 1759 1228 1600 
Q 959 1441 959 1056 
Q 959 750 1161 570 
Q 1363 391 1709 391 
Q 2188 391 2477 730 
Q 2766 1069 2766 1631 
L 2766 1759 
L 2194 1759 
z
M 3341 1997 
L 3341 0 
L 2766 0 
L 2766 531 
Q 2569 213 2275 61 
Q 1981 -91 1556 -91 
Q 1019 -91 701 211 
Q 384 513 384 1019 
Q 384 1609 779 1909 
Q 1175 2209 1959 2209 
L 2766 2209 
L 2766 2266 
Q 2766 2663 2505 2880 
Q 2244 3097 1772 3097 
Q 1472 3097 1187 3025 
Q 903 2953 641 2809 
L 641 3341 
Q 956 3463 1253 3523 
Q 1550 3584 1831 3584 
Q 2591 3584 2966 3190 
Q 3341 2797 3341 1997 
z
" transform="scale(0.015625)"/>
       <path id="DejaVuSans-73" d="M 2834 3397 
L 2834 2853 
Q 2591 2978 2328 3040 
Q 2066 3103 1784 3103 
Q 1356 3103 1142 2972 
Q 928 2841 928 2578 
Q 928 2378 1081 2264 
Q 1234 2150 1697 2047 
L 1894 2003 
Q 2506 1872 2764 1633 
Q 3022 1394 3022 966 
Q 3022 478 2636 193 
Q 2250 -91 1575 -91 
Q 1294 -91 989 -36 
Q 684 19 347 128 
L 347 722 
Q 666 556 975 473 
Q 1284 391 1588 391 
Q 1994 391 2212 530 
Q 2431 669 2431 922 
Q 2431 1156 2273 1281 
Q 2116 1406 1581 1522 
L 1381 1569 
Q 847 1681 609 1914 
Q 372 2147 372 2553 
Q 372 3047 722 3315 
Q 1072 3584 1716 3584 
Q 2034 3584 2315 3537 
Q 2597 3491 2834 3397 
z
" transform="scale(0.015625)"/>
       <path id="DejaVuSans-72" d="M 2631 2963 
Q 2534 3019 2420 3045 
Q 2306 3072 2169 3072 
Q 1681 3072 1420 2755 
Q 1159 2438 1159 1844 
L 1159 0 
L 581 0 
L 581 3500 
L 1159 3500 
L 1159 2956 
Q 1341 3275 1631 3429 
Q 1922 3584 2338 3584 
Q 2397 3584 2469 3576 
Q 2541 3569 2628 3553 
L 2631 2963 
z
" transform="scale(0.015625)"/>
       <path id="DejaVuSans-74" d="M 1172 4494 
L 1172 3500 
L 2356 3500 
L 2356 3053 
L 1172 3053 
L 1172 1153 
Q 1172 725 1289 603 
Q 1406 481 1766 481 
L 2356 481 
L 2356 0 
L 1766 0 
Q 1100 0 847 248 
Q 594 497 594 1153 
L 594 3053 
L 172 3053 
L 172 3500 
L 594 3500 
L 594 4494 
L 1172 4494 
z
" transform="scale(0.015625)"/>
       <path id="DejaVuSans-69" d="M 603 3500 
L 1178 3500 
L 1178 0 
L 603 0 
L 603 3500 
z
M 603 4863 
L 1178 4863 
L 1178 4134 
L 603 4134 
L 603 4863 
z
" transform="scale(0.015625)"/>
      </defs>
      <use xlink:href="#DejaVuSans-6c"/>
      <use xlink:href="#DejaVuSans-6f" x="27.783203"/>
      <use xlink:href="#DejaVuSans-67" x="88.964844"/>
      <use xlink:href="#DejaVuSans-31" x="152.441406"/>
      <use xlink:href="#DejaVuSans-30" x="216.064453"/>
      <use xlink:href="#DejaVuSans-20" x="279.6875"/>
      <use xlink:href="#DejaVuSans-6f" x="311.474609"/>
      <use xlink:href="#DejaVuSans-66" x="372.65625"/>
      <use xlink:href="#DejaVuSans-20" x="407.861328"/>
      <use xlink:href="#DejaVuSans-46" x="439.648438"/>
      <use xlink:href="#DejaVuSans-45" x="497.167969"/>
      <use xlink:href="#DejaVuSans-76" x="560.351562"/>
      <use xlink:href="#DejaVuSans-61" x="619.53125"/>
      <use xlink:href="#DejaVuSans-6c" x="680.810547"/>
      <use xlink:href="#DejaVuSans-73" x="708.59375"/>
      <use xlink:href="#DejaVuSans-20" x="760.693359"/>
      <use xlink:href="#DejaVuSans-72" x="792.480469"/>
      <use xlink:href="#DejaVuSans-61" x="833.59375"/>
      <use xlink:href="#DejaVuSans-74" x="894.873047"/>
      <use xlink:href="#DejaVuSans-69" x="934.082031"/>
      <use xlink:href="#DejaVuSans-6f" x="961.865234"/>
     </g>
    </g>
   </g>
   <g id="matplotlib.axis_2">
    <g id="ytick_1">
     <g id="line2d_7">
      <path d="M 34.16 288.453725 
L 453.192 288.453725 
" clip-path="url(#p9ea5cb3905)" style="fill: none; stroke: #b0b0b0; stroke-width: 0.8; stroke-linecap: square"/>
     </g>
     <g id="line2d_8">
      <defs>
       <path id="m1dca05c32d" d="M 0 0 
L -3.5 0 
" style="stroke: #000000; stroke-width: 0.8"/>
      </defs>
      <g>
       <use xlink:href="#m1dca05c32d" x="34.16" y="288.453725" style="stroke: #000000; stroke-width: 0.8"/>
      </g>
     </g>
    </g>
    <g id="ytick_2">
     <g id="line2d_9">
      <path d="M 34.16 217.796863 
L 453.192 217.796863 
" clip-path="url(#p9ea5cb3905)" style="fill: none; stroke: #b0b0b0; stroke-width: 0.8; stroke-linecap: square"/>
     </g>
     <g id="line2d_10">
      <g>
       <use xlink:href="#m1dca05c32d" x="34.16" y="217.796863" style="stroke: #000000; stroke-width: 0.8"/>
      </g>
     </g>
    </g>
    <g id="ytick_3">
     <g id="line2d_11">
      <path d="M 34.16 147.14 
L 453.192 147.14 
" clip-path="url(#p9ea5cb3905)" style="fill: none; stroke: #b0b0b0; stroke-width: 0.8; stroke-linecap: square"/>
     </g>
     <g id="line2d_12">
      <g>
       <use xlink:href="#m1dca05c32d" x="34.16" y="147.14" style="stroke: #000000; stroke-width: 0.8"/>
      </g>
     </g>
    </g>
    <g id="ytick_4">
     <g id="line2d_13">
      <path d="M 34.16 76.483137 
L 453.192 76.483137 
" clip-path="url(#p9ea5cb3905)" style="fill: none; stroke: #b0b0b0; stroke-width: 0.8; stroke-linecap: square"/>
     </g>
     <g id="line2d_14">
      <g>
       <use xlink:href="#m1dca05c32d" x="34.16" y="76.483137" style="stroke: #000000; stroke-width: 0.8"/>
      </g>
     </g>
    </g>
    <g id="ytick_5">
     <g id="line2d_15">
      <path d="M 34.16 5.826275 
L 453.192 5.826275 
" clip-path="url(#p9ea5cb3905)" style="fill: none; stroke: #b0b0b0; stroke-width: 0.8; stroke-linecap: square"/>
     </g>
     <g id="line2d_16">
      <g>
       <use xlink:href="#m1dca05c32d" x="34.16" y="5.826275" style="stroke: #000000; stroke-width: 0.8"/>
      </g>
     </g>
    </g>
    <g id="text_5">
     <!-- proportion of trials -->
     <g transform="translate(19.000625 240.14625)rotate(-90)scale(0.2 -0.2)">
      <defs>
       <path id="DejaVuSans-70" d="M 1159 525 
L 1159 -1331 
L 581 -1331 
L 581 3500 
L 1159 3500 
L 1159 2969 
Q 1341 3281 1617 3432 
Q 1894 3584 2278 3584 
Q 2916 3584 3314 3078 
Q 3713 2572 3713 1747 
Q 3713 922 3314 415 
Q 2916 -91 2278 -91 
Q 1894 -91 1617 61 
Q 1341 213 1159 525 
z
M 3116 1747 
Q 3116 2381 2855 2742 
Q 2594 3103 2138 3103 
Q 1681 3103 1420 2742 
Q 1159 2381 1159 1747 
Q 1159 1113 1420 752 
Q 1681 391 2138 391 
Q 2594 391 2855 752 
Q 3116 1113 3116 1747 
z
" transform="scale(0.015625)"/>
       <path id="DejaVuSans-6e" d="M 3513 2113 
L 3513 0 
L 2938 0 
L 2938 2094 
Q 2938 2591 2744 2837 
Q 2550 3084 2163 3084 
Q 1697 3084 1428 2787 
Q 1159 2491 1159 1978 
L 1159 0 
L 581 0 
L 581 3500 
L 1159 3500 
L 1159 2956 
Q 1366 3272 1645 3428 
Q 1925 3584 2291 3584 
Q 2894 3584 3203 3211 
Q 3513 2838 3513 2113 
z
" transform="scale(0.015625)"/>
      </defs>
      <use xlink:href="#DejaVuSans-70"/>
      <use xlink:href="#DejaVuSans-72" x="63.476562"/>
      <use xlink:href="#DejaVuSans-6f" x="102.339844"/>
      <use xlink:href="#DejaVuSans-70" x="163.521484"/>
      <use xlink:href="#DejaVuSans-6f" x="226.998047"/>
      <use xlink:href="#DejaVuSans-72" x="288.179688"/>
      <use xlink:href="#DejaVuSans-74" x="329.292969"/>
      <use xlink:href="#DejaVuSans-69" x="368.501953"/>
      <use xlink:href="#DejaVuSans-6f" x="396.285156"/>
      <use xlink:href="#DejaVuSans-6e" x="457.466797"/>
      <use xlink:href="#DejaVuSans-20" x="520.845703"/>
      <use xlink:href="#DejaVuSans-6f" x="552.632812"/>
      <use xlink:href="#DejaVuSans-66" x="613.814453"/>
      <use xlink:href="#DejaVuSans-20" x="649.019531"/>
      <use xlink:href="#DejaVuSans-74" x="680.806641"/>
      <use xlink:href="#DejaVuSans-72" x="720.015625"/>
      <use xlink:href="#DejaVuSans-69" x="761.128906"/>
      <use xlink:href="#DejaVuSans-61" x="788.912109"/>
      <use xlink:href="#DejaVuSans-6c" x="850.191406"/>
      <use xlink:href="#DejaVuSans-73" x="877.974609"/>
     </g>
    </g>
   </g>
   <g id="line2d_17">
    <path d="M 34.16 288.453725 
L 167.859515 288.453725 
L 167.859515 287.951277 
L 175.038231 287.951277 
L 175.038231 286.946379 
L 184.878506 286.946379 
L 184.878506 286.44393 
L 186.408059 286.44393 
L 186.408059 286.192706 
L 188.030368 286.192706 
L 188.030368 285.690257 
L 193.586775 285.690257 
L 193.586775 285.187808 
L 195.728709 285.187808 
L 195.728709 283.680462 
L 197.258262 283.680462 
L 197.258262 283.178013 
L 200.607614 283.178013 
L 200.607614 282.173115 
L 203.42705 282.173115 
L 203.42705 281.921891 
L 204.436977 281.921891 
L 204.436977 280.916993 
L 204.956603 280.916993 
L 204.956603 280.414545 
L 206.578912 280.414545 
L 206.578912 279.660871 
L 210.927901 279.660871 
L 210.927901 279.409647 
L 212.135319 279.409647 
L 212.135319 278.404749 
L 214.277253 278.404749 
L 214.277253 276.14373 
L 215.806806 276.14373 
L 215.806806 275.641281 
L 217.429115 275.641281 
L 217.429115 275.138832 
L 218.106616 275.138832 
L 218.106616 274.636383 
L 219.156158 274.636383 
L 219.156158 274.133935 
L 219.931862 274.133935 
L 219.931862 273.88271 
L 221.975594 273.88271 
L 221.975594 273.380261 
L 222.985522 273.380261 
L 222.985522 272.375364 
L 223.505148 272.375364 
L 223.505148 271.872915 
L 225.127456 271.872915 
L 225.127456 269.611895 
L 227.110577 269.611895 
L 227.110577 269.109447 
L 227.946892 269.109447 
L 227.946892 268.858222 
L 229.526891 268.858222 
L 229.526891 268.606998 
L 230.006361 268.606998 
L 230.006361 267.6021 
L 230.288457 267.6021 
L 230.288457 267.350876 
L 230.683863 267.350876 
L 230.683863 266.345978 
L 231.098753 266.345978 
L 231.098753 266.094754 
L 232.377478 266.094754 
L 232.377478 265.843529 
L 232.825797 265.843529 
L 232.830492 263.080061 
L 233.139044 263.080061 
L 233.139044 262.828837 
L 233.592058 262.828837 
L 233.592058 262.577612 
L 234.05927 262.577612 
L 234.05927 262.326388 
L 234.353058 262.326388 
L 234.353058 262.075163 
L 234.820836 262.075163 
L 234.820836 261.823939 
L 235.114624 261.823939 
L 235.114624 261.572715 
L 235.977659 261.572715 
L 235.977659 260.567817 
L 236.337149 260.567817 
L 236.337149 260.065368 
L 236.509324 260.065368 
L 236.595946 258.306797 
L 236.686956 258.306797 
L 236.781319 257.050675 
L 236.882953 257.050675 
L 236.975962 255.543329 
L 237.053655 255.543329 
L 237.161336 252.779861 
L 237.23243 252.779861 
L 237.342971 250.016392 
L 237.429678 250.016392 
L 237.534781 249.011495 
L 237.605967 249.011495 
L 237.709909 247.252924 
L 237.79403 247.252924 
L 237.897972 246.248026 
L 238.02529 246.248026 
L 238.02529 245.996802 
L 238.14711 245.996802 
L 238.251052 245.494353 
L 238.482999 245.494353 
L 238.586942 244.74068 
L 238.797095 244.74068 
L 238.797095 243.987007 
L 239.258191 243.987007 
L 239.365571 242.730885 
L 239.537746 242.730885 
L 239.550944 241.977211 
L 239.715378 241.977211 
L 239.728489 241.474763 
L 239.911374 241.474763 
L 239.92439 240.972314 
L 240.027743 240.972314 
L 240.102714 240.469865 
L 240.279858 240.469865 
L 240.279858 240.218641 
L 240.524139 240.218641 
L 240.524139 239.716192 
L 240.831128 239.716192 
L 240.831128 239.464967 
L 241.939823 239.464967 
L 241.995917 238.46007 
L 242.111998 238.46007 
L 242.18129 236.701499 
L 242.28963 236.701499 
L 242.358835 235.696601 
L 242.474347 235.696601 
L 242.554736 234.189255 
L 242.616875 234.189255 
L 242.712215 231.677011 
L 242.824154 231.677011 
L 242.910204 228.662318 
L 242.987373 228.662318 
L 243.054101 224.642728 
L 243.149731 224.642728 
L 243.250001 219.61824 
L 243.293427 219.61824 
L 243.399559 213.33763 
L 243.410568 213.33763 
L 243.511566 205.800898 
L 243.525755 205.800898 
L 243.60547 204.042327 
L 243.643234 204.042327 
L 243.752639 189.220087 
L 243.766036 189.220087 
L 243.873248 183.190702 
L 243.878455 183.190702 
L 243.903138 181.93458 
L 244.012524 181.93458 
L 244.088529 177.914989 
L 244.13473 177.914989 
L 244.243187 174.649072 
L 244.256218 174.649072 
L 244.322393 174.146623 
L 244.403091 174.146623 
L 244.423193 172.136828 
L 244.577004 172.136828 
L 244.592107 170.629481 
L 244.748981 170.629481 
L 244.854666 169.373359 
L 244.919971 169.373359 
L 244.926569 168.619686 
L 245.092061 168.619686 
L 245.092061 168.117237 
L 245.363507 168.117237 
L 245.363507 167.866013 
L 245.657295 167.866013 
L 245.657295 167.614789 
L 245.78198 167.614789 
L 245.78198 167.363564 
L 246.015801 167.363564 
L 246.015801 167.11234 
L 246.33923 167.11234 
L 246.33923 166.861115 
L 246.543546 166.861115 
L 246.543546 166.609891 
L 246.724532 166.609891 
L 246.777366 166.107442 
L 246.865258 166.107442 
L 246.865258 165.856218 
L 247.17298 165.856218 
L 247.17298 165.604993 
L 247.566981 165.604993 
L 247.625994 165.102545 
L 247.705253 165.102545 
L 247.801056 164.097647 
L 247.857085 164.097647 
L 247.857085 163.846423 
L 248.158268 163.846423 
L 248.158268 163.595198 
L 248.283008 163.595198 
L 248.383113 162.841525 
L 248.554905 162.841525 
L 248.554905 161.836627 
L 248.854772 161.836627 
L 248.854772 161.585403 
L 249.052559 161.585403 
L 249.14856 161.082954 
L 249.387045 161.082954 
L 249.387045 160.83173 
L 249.534952 160.83173 
L 249.617763 159.826832 
L 249.647297 159.826832 
L 249.680834 159.324383 
L 249.769229 159.324383 
L 249.869581 158.57071 
L 249.889607 158.57071 
L 249.889607 158.319486 
L 250.019205 158.319486 
L 250.123147 157.314588 
L 250.173765 157.314588 
L 250.173765 157.063364 
L 250.379328 157.063364 
L 250.47769 156.309691 
L 250.508394 156.309691 
L 250.581633 155.304793 
L 250.854715 155.304793 
L 250.854715 154.299895 
L 251.127174 154.299895 
L 251.127174 154.048671 
L 251.256911 154.048671 
L 251.34835 153.546222 
L 251.374341 153.546222 
L 251.374341 151.033978 
L 251.550699 151.033978 
L 251.584882 150.531529 
L 251.688825 150.531529 
L 251.688825 150.280305 
L 251.874378 150.280305 
L 251.880623 149.777856 
L 252.406651 149.777856 
L 252.498597 149.275407 
L 252.563374 149.275407 
L 252.563374 149.024183 
L 252.679961 149.024183 
L 252.679961 148.521734 
L 252.797651 148.521734 
L 252.898003 148.019285 
L 252.918028 148.019285 
L 252.918028 147.768061 
L 253.292127 147.768061 
L 253.346485 147.265612 
L 253.750488 147.265612 
L 253.824401 146.763163 
L 254.016452 146.763163 
L 254.108051 146.00949 
L 254.276516 146.00949 
L 254.276516 145.758266 
L 254.526203 145.758266 
L 254.593952 145.004593 
L 255.137626 145.004593 
L 255.19372 144.502144 
L 255.371903 144.502144 
L 255.472255 143.748471 
L 255.49228 143.748471 
L 255.568362 142.743573 
L 255.624734 142.743573 
L 255.694266 141.9899 
L 255.802183 141.9899 
L 255.906427 141.236227 
L 255.952923 141.236227 
L 256.064014 135.458065 
L 256.067408 135.458065 
L 256.176911 131.438475 
L 256.183469 131.438475 
L 256.291742 122.143172 
L 256.296674 122.143172 
L 256.404206 119.379704 
L 256.410488 119.379704 
L 256.519805 112.847869 
L 256.52494 112.847869 
L 256.635828 109.330728 
L 256.642388 109.330728 
L 256.751716 105.813586 
L 256.787107 105.813586 
L 256.872094 102.296444 
L 256.914662 102.296444 
L 257.023059 100.537874 
L 257.029657 100.537874 
L 257.094796 98.779303 
L 257.190412 98.779303 
L 257.259438 97.774405 
L 257.320038 97.774405 
L 257.353363 96.769508 
L 257.507717 96.769508 
L 257.525076 96.015834 
L 257.680959 96.015834 
L 257.69399 95.513386 
L 257.850864 95.513386 
L 257.85742 95.010937 
L 258.021854 95.010937 
L 258.03999 94.006039 
L 258.193944 94.006039 
L 258.193944 93.50359 
L 258.651258 93.50359 
L 258.651258 93.252366 
L 258.871218 93.252366 
L 258.871218 93.001142 
L 259.375631 93.001142 
L 259.404145 92.498693 
L 259.544461 92.498693 
L 259.544461 92.247468 
L 259.833339 92.247468 
L 259.937282 91.493795 
L 260.110025 91.493795 
L 260.183274 90.991346 
L 260.563039 90.991346 
L 260.577482 90.488898 
L 260.694991 90.488898 
L 260.694991 89.986449 
L 260.811303 89.986449 
L 260.922 89.484 
L 261.109755 89.484 
L 261.109755 89.232776 
L 261.343576 89.232776 
L 261.343576 88.981551 
L 261.791817 88.981551 
L 261.791817 88.730327 
L 262.085605 88.730327 
L 262.085605 88.479102 
L 262.224544 88.479102 
L 262.224544 86.469307 
L 262.362483 86.469307 
L 262.362483 86.218083 
L 262.572883 86.218083 
L 262.572883 85.966858 
L 262.894756 85.966858 
L 262.979621 85.46441 
L 263.132867 85.46441 
L 263.213441 84.961961 
L 263.846852 84.961961 
L 263.846852 84.459512 
L 264.285394 84.459512 
L 264.396221 82.700941 
L 264.402779 82.700941 
L 264.413265 81.947268 
L 264.554059 81.947268 
L 264.650722 80.188697 
L 264.732745 80.188697 
L 264.811422 79.435024 
L 264.945538 79.435024 
L 265.05545 77.174004 
L 265.062006 77.174004 
L 265.151682 72.90319 
L 265.203229 72.90319 
L 265.309597 67.125028 
L 265.314405 67.125028 
L 265.403362 61.598092 
L 265.438869 61.598092 
L 265.548082 57.076052 
L 265.551766 57.076052 
L 265.650929 52.805237 
L 265.681659 52.805237 
L 265.773533 51.549115 
L 265.808203 51.549115 
L 265.898494 51.046667 
L 265.929416 51.046667 
L 265.942448 50.544218 
L 266.05906 50.544218 
L 266.105877 49.790545 
L 266.194685 49.790545 
L 266.27691 48.534423 
L 266.3496 48.534423 
L 266.442401 47.529525 
L 266.500739 47.529525 
L 266.526948 46.775852 
L 266.697938 46.775852 
L 266.704537 46.273403 
L 266.815403 46.273403 
L 266.870028 45.770954 
L 266.998724 45.770954 
L 266.998724 45.51973 
L 268.085703 45.51973 
L 268.141987 45.017281 
L 268.67426 45.017281 
L 268.67426 44.766057 
L 269.922885 44.766057 
L 269.922885 43.761159 
L 270.444761 43.761159 
L 270.544126 43.25871 
L 270.93629 43.25871 
L 270.93629 43.007486 
L 271.389304 43.007486 
L 271.389304 42.756261 
L 271.545194 42.756261 
L 271.545194 41.248915 
L 271.811277 41.248915 
L 271.811277 40.997691 
L 272.618082 40.997691 
L 272.618082 40.746466 
L 272.91187 40.746466 
L 272.91187 40.495242 
L 273.074747 40.495242 
L 273.074747 39.490344 
L 273.514527 39.490344 
L 273.514527 39.23912 
L 273.748347 39.23912 
L 273.748347 38.987895 
L 274.661864 38.987895 
L 274.661864 38.736671 
L 275.11166 38.736671 
L 275.114878 38.234222 
L 275.299527 38.234222 
L 275.299527 37.982998 
L 275.637688 37.982998 
L 275.637688 37.731773 
L 276.343656 37.731773 
L 276.424099 36.475651 
L 276.637444 36.475651 
L 276.637444 36.224427 
L 277.055437 36.224427 
L 277.055437 35.973203 
L 277.350309 35.973203 
L 277.350309 35.721978 
L 277.824989 35.721978 
L 277.824989 35.470754 
L 278.597249 35.470754 
L 278.597249 35.219529 
L 278.837233 35.219529 
L 278.837233 34.968305 
L 279.363261 34.968305 
L 279.363261 34.717081 
L 279.986366 34.717081 
L 279.986366 34.465856 
L 280.773088 34.465856 
L 280.781011 33.209734 
L 281.079032 33.209734 
L 281.079032 32.95851 
L 281.271027 32.95851 
L 281.271027 32.707285 
L 281.447836 32.707285 
L 281.550562 32.204837 
L 281.90085 32.204837 
L 281.90085 31.953612 
L 282.395397 31.953612 
L 282.395397 31.451163 
L 282.836953 31.451163 
L 282.836953 31.199939 
L 283.129628 31.199939 
L 283.129628 30.948715 
L 283.289967 30.948715 
L 283.289967 30.69749 
L 283.423416 30.69749 
L 283.423416 30.446266 
L 284.340792 30.446266 
L 284.340792 30.195041 
L 284.518745 30.195041 
L 284.574613 29.692593 
L 284.812533 29.692593 
L 284.812533 29.441368 
L 284.9966 29.441368 
L 284.9966 29.190144 
L 285.623206 29.190144 
L 285.623206 28.938919 
L 286.125793 28.938919 
L 286.149234 28.436471 
L 286.744386 28.436471 
L 286.744386 27.934022 
L 287.012323 27.934022 
L 287.012323 27.682797 
L 287.538351 27.682797 
L 287.566983 27.180349 
L 288.066366 27.180349 
L 288.176575 26.6779 
L 288.300186 26.6779 
L 288.336535 26.175451 
L 288.9561 26.175451 
L 288.9561 25.924227 
L 289.725652 25.924227 
L 289.725652 25.673002 
L 289.851366 25.673002 
L 289.851366 25.421778 
L 290.093738 25.421778 
L 290.093738 24.41688 
L 291.623291 24.41688 
L 291.623291 23.411983 
L 291.782573 23.411983 
L 291.782573 23.160758 
L 291.902148 23.160758 
L 291.905297 22.658309 
L 293.17169 22.658309 
L 293.17169 22.407085 
L 294.092898 22.407085 
L 294.092898 22.155861 
L 294.852338 22.155861 
L 294.852338 21.904636 
L 295.086158 21.904636 
L 295.086158 21.653412 
L 295.630871 21.653412 
L 295.630871 21.402187 
L 295.748347 21.402187 
L 295.748347 20.899739 
L 296.241455 20.899739 
L 296.241455 20.648514 
L 296.475276 20.648514 
L 296.475276 20.39729 
L 296.637339 20.39729 
L 296.637339 20.146065 
L 296.943485 20.146065 
L 296.943485 19.894841 
L 297.396499 19.894841 
L 297.396499 19.643617 
L 298.026456 19.643617 
L 298.026456 19.392392 
L 298.625277 19.392392 
L 298.688121 18.889943 
L 298.919065 18.889943 
L 298.919065 18.638719 
L 299.321632 18.638719 
L 299.321632 17.633821 
L 300.077238 17.633821 
L 300.077238 17.382597 
L 301.118855 17.382597 
L 301.118855 17.131373 
L 301.644883 17.131373 
L 301.644883 16.880148 
L 302.416843 16.880148 
L 302.416843 16.628924 
L 303.062632 16.628924 
L 303.062632 16.377699 
L 303.80596 16.377699 
L 303.832184 15.875251 
L 307.278222 15.875251 
L 307.278222 15.624026 
L 310.347987 15.624026 
L 310.347987 15.372802 
L 310.581807 15.372802 
L 310.581807 15.121577 
L 312.132987 15.121577 
L 312.132987 14.870353 
L 314.18377 14.870353 
L 314.18377 14.619129 
L 317.912492 14.619129 
L 317.912492 14.367904 
L 319.492485 14.367904 
L 319.492485 13.363007 
L 453.192 13.363007 
L 453.192 13.363007 
" clip-path="url(#p9ea5cb3905)" style="fill: none; stroke: #000000; stroke-width: 3; stroke-linecap: square"/>
   </g>
   <g id="line2d_18">
    <path clip-path="url(#p9ea5cb3905)" style="fill: none; stroke: #000000; stroke-width: 3; stroke-linecap: square"/>
   </g>
   <g id="line2d_19">
    <path d="M 34.16 285.860813 
L 148.051023 285.860813 
L 148.051023 285.601522 
L 152.146733 285.601522 
L 152.146733 285.342231 
L 180.236806 285.342231 
L 180.236806 285.082939 
L 180.509714 285.082939 
L 180.509714 284.823648 
L 182.96755 284.823648 
L 183.052819 284.305066 
L 183.752721 284.305066 
L 183.752721 284.045774 
L 184.025629 284.045774 
L 184.025629 283.786483 
L 184.162183 283.786483 
L 184.162183 283.527192 
L 185.142511 283.527192 
L 185.142511 283.267901 
L 185.415419 283.267901 
L 185.445604 282.749318 
L 185.579484 282.749318 
L 185.579484 282.490027 
L 185.718512 282.490027 
L 185.718512 282.230736 
L 185.99601 282.230736 
L 185.99601 281.971445 
L 186.483464 281.971445 
L 186.568734 281.452862 
L 186.641132 281.452862 
L 186.671121 280.93428 
L 187.678098 280.93428 
L 187.678098 280.674988 
L 187.873254 280.674988 
L 187.958524 280.156406 
L 188.010404 280.156406 
L 188.010404 279.897115 
L 188.176347 279.897115 
L 188.283312 279.119241 
L 188.710883 279.119241 
L 188.736186 278.600658 
L 188.983791 278.600658 
L 189.067888 277.822785 
L 189.095398 277.822785 
L 189.137499 277.304202 
L 189.370981 277.304202 
L 189.444104 276.78562 
L 189.511924 276.78562 
L 189.511924 276.526328 
L 189.678775 276.526328 
L 189.717011 276.007746 
L 189.951683 276.007746 
L 189.951683 275.748455 
L 190.123936 275.748455 
L 190.187036 274.970581 
L 190.247252 274.970581 
L 190.247252 274.71129 
L 190.485188 274.71129 
L 190.520159 274.192707 
L 190.741147 274.192707 
L 190.826417 273.414834 
L 190.901714 273.414834 
L 190.901714 273.155542 
L 191.204807 273.155542 
L 191.204807 272.896251 
L 191.327805 272.896251 
L 191.327805 272.63696 
L 191.441627 272.63696 
L 191.546837 271.859086 
L 191.576826 271.859086 
L 191.576826 271.599795 
L 191.739838 271.599795 
L 191.84993 271.081212 
L 191.879919 271.081212 
L 191.935781 270.56263 
L 192.012746 270.56263 
L 192.012746 270.303339 
L 192.174847 270.303339 
L 192.280744 269.266174 
L 192.409518 269.266174 
L 192.494788 268.747591 
L 192.553652 268.747591 
L 192.653413 267.710426 
L 192.977995 267.710426 
L 193.063265 267.191844 
L 193.353082 267.191844 
L 193.36948 266.673261 
L 193.604152 266.673261 
L 193.665016 265.636096 
L 193.769607 265.636096 
L 193.769607 265.376805 
L 193.944983 265.376805 
L 194.053561 264.33964 
L 194.15464 264.33964 
L 194.172629 263.821058 
L 194.270992 263.821058 
L 194.346296 263.302475 
L 194.41473 263.302475 
L 194.470581 261.487437 
L 194.555851 261.487437 
L 194.555851 261.228145 
L 194.786781 261.228145 
L 194.843719 260.450272 
L 195.011487 260.450272 
L 195.115209 258.635233 
L 195.145198 258.635233 
L 195.203307 258.11665 
L 195.332733 258.11665 
L 195.437978 257.598068 
L 195.589929 257.598068 
L 195.665215 256.820194 
L 195.84843 256.820194 
L 195.878418 256.301612 
L 196.006455 256.301612 
L 196.11309 255.523738 
L 196.206121 255.523738 
L 196.233509 255.005156 
L 196.451013 255.005156 
L 196.536602 254.227282 
L 196.651578 254.227282 
L 196.681567 253.708699 
L 196.835793 253.708699 
L 196.911097 252.930826 
L 196.970653 252.930826 
L 197.048946 252.412243 
L 197.082516 252.412243 
L 197.179228 251.893661 
L 197.210263 251.893661 
L 197.210263 251.634369 
L 197.452135 251.634369 
L 197.54241 250.597205 
L 197.611576 250.597205 
L 197.627679 249.819331 
L 197.897534 249.819331 
L 197.943483 249.041457 
L 198.039947 249.041457 
L 198.144164 248.263583 
L 198.174153 248.263583 
L 198.269492 247.226418 
L 198.344796 247.226418 
L 198.344796 246.967127 
L 198.504163 246.967127 
L 198.598013 245.929962 
L 198.68507 245.929962 
L 198.746631 244.892797 
L 199.07264 244.892797 
L 199.147944 244.114924 
L 199.331233 244.114924 
L 199.331233 243.855632 
L 199.497318 243.855632 
L 199.565904 243.33705 
L 199.801882 243.33705 
L 199.909971 242.818467 
L 199.913844 242.818467 
L 199.995241 242.299885 
L 200.134381 242.299885 
L 200.239217 241.522011 
L 200.535102 241.522011 
L 200.64053 239.966264 
L 200.654479 239.966264 
L 200.739749 239.447681 
L 200.769773 239.447681 
L 200.780123 238.929099 
L 201.104605 238.929099 
L 201.181436 238.151225 
L 201.215992 238.151225 
L 201.245981 237.632643 
L 201.33825 237.632643 
L 201.33825 237.373351 
L 201.626967 237.373351 
L 201.626967 237.11406 
L 201.849113 237.11406 
L 201.849113 236.854769 
L 202.167873 236.854769 
L 202.167873 236.595478 
L 202.521905 236.595478 
L 202.521905 236.336186 
L 202.65402 236.336186 
L 202.65402 236.076895 
L 202.830836 236.076895 
L 202.938431 235.558313 
L 202.980029 235.558313 
L 203.055333 235.03973 
L 203.266413 235.03973 
L 203.371742 234.261856 
L 203.583554 234.261856 
L 203.682939 233.224691 
L 203.712359 233.224691 
L 203.712359 232.9654 
L 204.04177 232.9654 
L 204.04177 232.706109 
L 204.328062 232.706109 
L 204.358051 232.187527 
L 204.486845 232.187527 
L 204.486845 231.928235 
L 204.698796 231.928235 
L 204.698796 231.668944 
L 205.245638 231.668944 
L 205.281796 231.150362 
L 205.678607 231.150362 
L 205.678607 230.89107 
L 205.850897 230.89107 
L 205.902665 230.113197 
L 206.004616 230.113197 
L 206.07992 229.594614 
L 206.423115 229.594614 
L 206.423115 229.335323 
L 206.645848 229.335323 
L 206.749124 228.81674 
L 206.824428 228.81674 
L 206.824428 228.557449 
L 207.066357 228.557449 
L 207.066357 228.298158 
L 207.243781 228.298158 
L 207.243781 228.038867 
L 207.810865 228.038867 
L 207.810865 227.779575 
L 208.032973 227.779575 
L 208.032973 227.520284 
L 208.270226 227.520284 
L 208.270226 227.260993 
L 208.827924 227.260993 
L 208.827924 227.001702 
L 209.014734 227.001702 
L 209.014734 226.742411 
L 209.425857 226.742411 
L 209.425857 226.483119 
L 214.785137 226.483119 
L 214.785137 226.223828 
L 215.455887 226.223828 
L 215.455887 225.964537 
L 216.257763 225.964537 
L 216.257763 225.705246 
L 216.776182 225.705246 
L 216.776182 225.445954 
L 217.446932 225.445954 
L 217.446932 225.186663 
L 218.225562 225.186663 
L 218.225562 224.927372 
L 219.773678 224.927372 
L 219.876353 224.408789 
L 219.94915 224.408789 
L 220.003669 223.890207 
L 220.216607 223.890207 
L 220.216607 223.630916 
L 221.163468 223.630916 
L 221.163468 223.371624 
L 221.466561 223.371624 
L 221.466561 223.112333 
L 221.867399 223.112333 
L 221.940195 222.593751 
L 221.994714 222.593751 
L 221.994714 222.334459 
L 222.275581 222.334459 
L 222.275581 222.075168 
L 224.031361 222.075168 
L 224.031361 221.815877 
L 224.266626 221.815877 
L 224.266626 221.556586 
L 224.73184 221.556586 
L 224.73184 221.297294 
L 225.442755 221.297294 
L 225.465061 220.778712 
L 225.606965 220.778712 
L 225.699732 220.26013 
L 226.268209 220.26013 
L 226.277715 219.741547 
L 226.971017 219.741547 
L 226.971017 219.482256 
L 227.641768 219.482256 
L 227.641768 219.222965 
L 227.760795 219.222965 
L 227.760795 218.963673 
L 228.301701 218.963673 
L 228.301701 218.704382 
L 229.04739 218.704382 
L 229.153093 218.1858 
L 229.823843 218.1858 
L 229.823843 217.926508 
L 230.175597 217.926508 
L 230.175597 217.667217 
L 230.411442 217.667217 
L 230.508647 217.148635 
L 230.698182 217.148635 
L 230.770978 216.630052 
L 230.825497 216.630052 
L 230.832623 216.11147 
L 232.062234 216.11147 
L 232.13503 215.592887 
L 232.189549 215.592887 
L 232.189549 215.333596 
L 232.499692 215.333596 
L 232.593518 214.815013 
L 233.097409 214.815013 
L 233.200185 214.296431 
L 233.944693 214.296431 
L 233.944693 214.03714 
L 234.24431 214.03714 
L 234.317106 213.518557 
L 234.371625 213.518557 
L 234.461461 212.999975 
L 234.805053 212.999975 
L 234.805053 212.740684 
L 236.493969 212.740684 
L 236.493969 212.481392 
L 236.643537 212.481392 
L 236.726237 211.96281 
L 237.986335 211.96281 
L 237.986335 211.703519 
L 238.428282 211.703519 
L 238.485014 211.184936 
L 238.616536 211.184936 
L 238.616536 210.925645 
L 238.947857 210.925645 
L 238.947857 210.666354 
L 240.812047 210.666354 
L 240.812047 210.407062 
L 241.117764 210.407062 
L 241.117764 210.147771 
L 241.330475 210.147771 
L 241.330475 209.88848 
L 241.4782 209.88848 
L 241.4782 209.629189 
L 242.694527 209.629189 
L 242.694527 209.369897 
L 243.043567 209.369897 
L 243.043567 209.110606 
L 243.469246 209.110606 
L 243.469246 208.851315 
L 243.841291 208.851315 
L 243.841291 208.592024 
L 244.075979 208.592024 
L 244.075979 208.332733 
L 244.469347 208.332733 
L 244.469347 208.073441 
L 244.704035 208.073441 
L 244.732241 207.554859 
L 244.876603 207.554859 
L 244.966929 207.036276 
L 245.367443 207.036276 
L 245.367443 206.776985 
L 245.832406 206.776985 
L 245.832406 206.517694 
L 246.067095 206.517694 
L 246.114258 205.999111 
L 246.348946 205.999111 
L 246.348946 205.73982 
L 247.315797 205.73982 
L 247.315797 205.480529 
L 248.679849 205.480529 
L 248.786397 204.961946 
L 249.021085 204.961946 
L 249.021085 204.702655 
L 249.463153 204.702655 
L 249.463153 204.443364 
L 249.927479 204.443364 
L 249.927479 204.184073 
L 250.162167 204.184073 
L 250.162167 203.924781 
L 250.459383 203.924781 
L 250.459383 203.66549 
L 250.694071 203.66549 
L 250.694071 203.406199 
L 250.861925 203.406199 
L 250.861925 203.146908 
L 252.300029 203.146908 
L 252.300029 202.887616 
L 252.658265 202.887616 
L 252.73592 202.369034 
L 252.892953 202.369034 
L 252.892953 202.109743 
L 253.230236 202.109743 
L 253.230236 201.850452 
L 253.363976 201.850452 
L 253.464924 201.331869 
L 253.62687 201.331869 
L 253.664081 200.813287 
L 254.727036 200.813287 
L 254.746595 200.294704 
L 254.981283 200.294704 
L 255.008887 199.776122 
L 255.846157 199.776122 
L 255.846157 199.51683 
L 256.236801 199.51683 
L 256.244238 198.998248 
L 256.471489 198.998248 
L 256.478926 198.479665 
L 257.681026 198.479665 
L 257.681026 198.220374 
L 258.822108 198.220374 
L 258.822108 197.961083 
L 259.354012 197.961083 
L 259.354012 197.701792 
L 261.552894 197.701792 
L 261.552894 197.4425 
L 262.124865 197.4425 
L 262.124865 197.183209 
L 262.57069 197.183209 
L 262.57069 196.923918 
L 262.805378 196.923918 
L 262.805378 196.664627 
L 263.641225 196.664627 
L 263.641225 196.405335 
L 265.131431 196.405335 
L 265.138867 195.886753 
L 266.565399 195.886753 
L 266.565399 195.627462 
L 266.800087 195.627462 
L 266.800087 195.368171 
L 270.260595 195.368171 
L 270.260595 195.108879 
L 270.888652 195.108879 
L 270.888652 194.849588 
L 271.151546 194.849588 
L 271.151546 194.590297 
L 271.465319 194.590297 
L 271.465319 194.331006 
L 271.808351 194.331006 
L 271.808351 194.071714 
L 272.251711 194.071714 
L 272.251711 193.812423 
L 272.533563 193.812423 
L 272.533563 193.553132 
L 275.205702 193.553132 
L 275.205702 193.293841 
L 275.460029 193.293841 
L 275.460029 193.034549 
L 276.346784 193.034549 
L 276.346784 192.775258 
L 276.878688 192.775258 
L 276.878688 192.515967 
L 277.605781 192.515967 
L 277.605781 192.256676 
L 278.233837 192.256676 
L 278.233837 191.997384 
L 278.496731 191.997384 
L 278.496731 191.738093 
L 278.689836 191.738093 
L 278.689836 191.478802 
L 279.07757 191.478802 
L 279.07757 191.219511 
L 279.317892 191.219511 
L 279.317892 190.960219 
L 279.580786 190.960219 
L 279.649541 190.182346 
L 279.75312 190.182346 
L 279.75312 189.923055 
L 279.878748 189.923055 
L 279.878748 189.663763 
L 280.680952 189.663763 
L 280.680952 189.404472 
L 280.962803 189.404472 
L 280.962803 189.145181 
L 281.1659 189.145181 
L 281.170649 188.626598 
L 281.646554 188.626598 
L 281.747313 188.108016 
L 282.274611 188.108016 
L 282.375369 187.589433 
L 282.537505 187.589433 
L 282.638263 186.81156 
L 282.656106 186.81156 
L 282.663543 186.292977 
L 283.091833 186.292977 
L 283.091833 186.033686 
L 283.634942 186.033686 
L 283.738428 184.996521 
L 283.919522 184.996521 
L 284.02028 184.477938 
L 284.223873 184.477938 
L 284.223873 184.218647 
L 284.351932 184.218647 
L 284.351932 183.959356 
L 284.776024 183.959356 
L 284.793878 183.440774 
L 284.982133 183.440774 
L 284.982133 183.181482 
L 285.267293 183.181482 
L 285.307928 182.6629 
L 286.422755 182.6629 
L 286.422755 182.403609 
L 286.591661 182.403609 
L 286.692419 181.885026 
L 286.994726 181.885026 
L 286.994726 181.625735 
L 287.177643 181.625735 
L 287.177643 181.366444 
L 287.483361 181.366444 
L 287.50681 180.847861 
L 287.732743 180.847861 
L 287.833501 180.329279 
L 288.078781 180.329279 
L 288.078781 180.069987 
L 288.264646 180.069987 
L 288.365405 179.551405 
L 288.511085 179.551405 
L 288.511085 179.292114 
L 288.989995 179.292114 
L 288.989995 179.032822 
L 289.59514 179.032822 
L 289.59514 178.773531 
L 290.001291 178.773531 
L 290.008728 178.254949 
L 290.463529 178.254949 
L 290.564287 177.736366 
L 290.654294 177.736366 
L 290.654294 177.477075 
L 291.0355 177.477075 
L 291.136258 176.43991 
L 291.175134 176.43991 
L 291.175134 176.180619 
L 291.80319 176.180619 
L 291.80319 175.921328 
L 292.066084 175.921328 
L 292.066084 175.662036 
L 292.551859 175.662036 
L 292.652617 175.143454 
L 292.984704 175.143454 
L 292.984704 174.884163 
L 293.166249 174.884163 
L 293.166249 174.624871 
L 293.448101 174.624871 
L 293.448101 174.36558 
L 294.042065 174.36558 
L 294.15026 173.328415 
L 296.12024 173.328415 
L 296.12024 173.069124 
L 296.33518 173.069124 
L 296.33518 172.809833 
L 296.494966 172.809833 
L 296.494966 172.550541 
L 297.123023 172.550541 
L 297.123023 172.29125 
L 297.261322 172.29125 
L 297.261322 172.031959 
L 297.385917 172.031959 
L 297.419235 171.513377 
L 297.793226 171.513377 
L 297.793226 171.254085 
L 298.486082 171.254085 
L 298.486082 170.994794 
L 298.767934 170.994794 
L 298.767934 170.735503 
L 299.466643 170.735503 
L 299.466643 170.476212 
L 299.992108 170.476212 
L 300.094699 169.957629 
L 300.329889 169.957629 
L 300.375954 169.179755 
L 300.476712 169.179755 
L 300.564079 168.661173 
L 301.413944 168.661173 
L 301.457758 167.883299 
L 301.73961 167.883299 
L 301.73961 167.624008 
L 302.080438 167.624008 
L 302.097225 167.105425 
L 302.576593 167.105425 
L 302.581155 166.327552 
L 302.725281 166.327552 
L 302.725281 166.06826 
L 302.886179 166.06826 
L 302.988175 165.549678 
L 303.113058 165.549678 
L 303.20465 164.771804 
L 303.467544 164.771804 
L 303.578081 163.475348 
L 303.777129 163.475348 
L 303.815837 162.956766 
L 304.08834 162.956766 
L 304.08834 162.697474 
L 304.370192 162.697474 
L 304.471421 161.660309 
L 304.567709 161.660309 
L 304.567709 161.141727 
L 304.849561 161.141727 
L 304.877295 160.363853 
L 305.159146 160.363853 
L 305.159146 160.104562 
L 305.311941 160.104562 
L 305.311941 159.845271 
L 305.552831 159.845271 
L 305.552831 159.585979 
L 305.883912 159.585979 
L 305.883912 159.326688 
L 306.084735 159.326688 
L 306.084735 159.067397 
L 307.042331 159.067397 
L 307.042331 158.808106 
L 307.400271 158.808106 
L 307.400271 158.548815 
L 307.5217 158.548815 
L 307.5217 158.030232 
L 307.831285 158.030232 
L 307.831285 157.770941 
L 308.183413 157.770941 
L 308.283617 157.252358 
L 308.662782 157.252358 
L 308.715317 156.474485 
L 308.855588 156.474485 
L 308.897914 155.696611 
L 308.972368 155.696611 
L 308.972368 155.43732 
L 309.194685 155.43732 
L 309.194685 154.918737 
L 309.504271 154.918737 
L 309.504271 154.659446 
L 309.904533 154.659446 
L 309.904533 154.400155 
L 310.371947 154.400155 
L 310.371947 154.140863 
L 310.914199 154.140863 
L 310.914199 153.881572 
L 311.393568 153.881572 
L 311.48617 153.103699 
L 311.703153 153.103699 
L 311.703153 152.844407 
L 311.862153 152.844407 
L 311.965539 151.807242 
L 312.275124 151.807242 
L 312.275124 151.547951 
L 313.002529 151.547951 
L 313.002529 151.28866 
L 313.481898 151.28866 
L 313.481898 150.770077 
L 313.791484 150.770077 
L 313.899242 150.251495 
L 314.492735 150.251495 
L 314.500172 149.732912 
L 314.972104 149.732912 
L 314.979541 148.695747 
L 315.224366 148.695747 
L 315.289126 147.917874 
L 316.339589 147.917874 
L 316.339589 147.658582 
L 318.196042 147.658582 
L 318.196042 147.399291 
L 319.219075 147.399291 
L 319.219075 147.14 
L 320.826624 147.14 
L 320.826624 146.880709 
L 321.305993 146.880709 
L 321.305993 146.362126 
L 321.615578 146.362126 
L 321.615578 146.102835 
L 322.190751 146.102835 
L 322.190751 145.843544 
L 322.759175 145.843544 
L 322.759175 145.584253 
L 324.821333 145.584253 
L 324.821333 145.324961 
L 325.300702 145.324961 
L 325.300702 144.806379 
L 325.610288 144.806379 
L 325.701886 144.287796 
L 326.118716 144.287796 
L 326.118716 144.028505 
L 327.62307 144.028505 
L 327.62307 143.769214 
L 328.883169 143.769214 
L 328.883169 143.509923 
L 329.325116 143.509923 
L 329.325116 143.250631 
L 329.51337 143.250631 
L 329.51337 142.99134 
L 331.632889 142.99134 
L 331.70888 142.472758 
L 332.014598 142.472758 
L 332.121472 141.954175 
L 334.042657 141.954175 
L 334.042657 141.694884 
L 335.302755 141.694884 
L 335.302755 141.435593 
L 335.744702 141.435593 
L 335.744702 141.176301 
L 335.932956 141.176301 
L 335.932956 140.91701 
L 337.019891 140.91701 
L 337.019891 140.657719 
L 338.128466 140.657719 
L 338.128466 140.398428 
L 338.434184 140.398428 
L 338.434184 140.139137 
L 341.345057 140.139137 
L 341.345057 139.879845 
L 350.181433 139.879845 
L 350.181433 139.620554 
L 370.649954 139.620554 
L 370.649954 139.361263 
L 376.164127 139.361263 
L 376.164127 139.101972 
L 377.06954 139.101972 
L 377.06954 138.84268 
L 381.551128 138.84268 
L 381.551128 138.583389 
L 382.583713 138.583389 
L 382.583713 138.324098 
L 387.710654 138.324098 
L 387.710654 138.064807 
L 387.970714 138.064807 
L 387.970714 137.805515 
L 394.712671 137.805515 
L 394.712671 137.546224 
L 401.132257 137.546224 
L 401.132257 137.286933 
L 432.241891 137.286933 
L 432.241891 137.027642 
L 438.661477 137.027642 
L 438.661477 136.76835 
L 453.192 136.76835 
L 453.192 136.76835 
" clip-path="url(#p9ea5cb3905)" style="fill: none; stroke: #00bfbf; stroke-width: 3; stroke-linecap: square"/>
   </g>
   <g id="line2d_20">
    <path clip-path="url(#p9ea5cb3905)" style="fill: none; stroke: #00bfbf; stroke-width: 3; stroke-linecap: square"/>
   </g>
   <g id="line2d_21">
    <path d="M 34.16 281.738404 
L 152.785286 281.738404 
L 152.785286 281.446433 
L 156.128126 281.446433 
L 156.128126 281.154463 
L 162.559286 281.154463 
L 162.635831 280.570522 
L 164.190529 280.570522 
L 164.190529 280.278551 
L 175.293411 280.278551 
L 175.293411 279.986581 
L 176.112237 279.986581 
L 176.112237 279.69461 
L 185.278537 279.69461 
L 185.278537 279.40264 
L 187.097131 279.40264 
L 187.097131 279.110669 
L 189.652401 279.110669 
L 189.652401 278.818699 
L 190.228346 278.818699 
L 190.304892 278.234758 
L 190.713471 278.234758 
L 190.713471 277.942787 
L 191.85959 277.942787 
L 191.85959 277.650817 
L 194.336801 277.650817 
L 194.336801 277.358846 
L 194.684138 277.358846 
L 194.760684 276.774905 
L 194.80689 276.774905 
L 194.80689 276.482935 
L 194.926168 276.482935 
L 194.926168 276.190964 
L 195.834887 276.190964 
L 195.834887 275.898994 
L 196.315382 275.898994 
L 196.315382 275.607023 
L 196.981934 275.607023 
L 196.981934 275.315053 
L 197.667512 275.315053 
L 197.667512 275.023082 
L 198.861263 275.023082 
L 198.861263 274.731112 
L 199.177727 274.731112 
L 199.177727 274.439141 
L 200.837825 274.439141 
L 200.837825 274.147171 
L 202.962471 274.147171 
L 202.962471 273.8552 
L 203.781298 273.8552 
L 203.781298 273.56323 
L 206.473654 273.56323 
L 206.550199 272.979289 
L 207.418263 272.979289 
L 207.418263 272.687318 
L 208.104897 272.687318 
L 208.104897 272.395348 
L 208.23709 272.395348 
L 208.23709 272.103377 
L 208.440527 272.103377 
L 208.440527 271.811407 
L 208.644497 271.811407 
L 208.644497 271.519436 
L 210.542737 271.519436 
L 210.619282 270.935495 
L 212.17398 270.935495 
L 212.17398 270.643525 
L 213.035413 270.643525 
L 213.035413 270.351554 
L 213.64283 270.351554 
L 213.64283 270.059584 
L 215.033814 270.059584 
L 215.033814 269.767613 
L 216.070057 269.767613 
L 216.070057 269.475643 
L 217.065715 269.475643 
L 217.065715 269.183672 
L 217.22902 269.183672 
L 217.321461 268.599731 
L 217.588654 268.599731 
L 217.639949 268.01579 
L 218.382532 268.01579 
L 218.382532 267.723819 
L 219.207779 267.723819 
L 219.207779 267.431849 
L 219.360701 267.431849 
L 219.360701 267.139878 
L 220.026606 267.139878 
L 220.026606 266.847908 
L 221.286251 266.847908 
L 221.371733 266.263967 
L 221.777253 266.263967 
L 221.777253 265.971996 
L 222.005862 265.971996 
L 222.005862 265.680026 
L 222.595229 265.680026 
L 222.595229 265.388055 
L 222.808011 265.388055 
L 222.838324 264.804114 
L 223.276862 264.804114 
L 223.276862 264.512144 
L 224.095688 264.512144 
L 224.095688 264.220173 
L 224.650994 264.220173 
L 224.650994 263.928203 
L 225.336572 263.928203 
L 225.336572 263.636232 
L 225.845941 263.636232 
L 225.845941 263.344262 
L 226.461654 263.344262 
L 226.461654 263.052291 
L 227.051021 263.052291 
L 227.051021 262.760321 
L 227.68622 262.760321 
L 227.68622 262.46835 
L 227.871615 262.46835 
L 227.973641 261.884409 
L 228.33926 261.884409 
L 228.33926 261.592439 
L 228.506886 261.592439 
L 228.506886 261.300468 
L 229.106787 261.300468 
L 229.106787 261.008498 
L 229.428646 261.008498 
L 229.428646 260.716527 
L 229.705588 260.716527 
L 229.792365 260.132586 
L 231.962792 260.132586 
L 231.962792 259.840616 
L 232.962678 259.840616 
L 232.962678 259.548645 
L 233.566769 259.548645 
L 233.566769 259.256675 
L 234.505594 259.256675 
L 234.505594 258.964704 
L 234.62784 258.964704 
L 234.62784 258.672734 
L 235.23173 258.672734 
L 235.23173 258.380763 
L 235.52771 258.380763 
L 235.52771 258.088793 
L 236.293336 258.088793 
L 236.399804 257.212881 
L 236.506399 257.212881 
L 236.531268 256.62894 
L 236.633294 256.62894 
L 236.633294 256.33697 
L 237.635852 256.33697 
L 237.744608 255.753029 
L 237.806025 255.753029 
L 237.806025 255.461058 
L 238.25117 255.461058 
L 238.25117 255.169088 
L 238.365241 255.169088 
L 238.424362 254.585147 
L 238.696922 254.585147 
L 238.696922 254.293176 
L 238.840537 254.293176 
L 238.840537 254.001206 
L 240.622445 254.001206 
L 240.622445 253.709235 
L 240.896302 253.709235 
L 240.896302 253.417265 
L 241.087448 253.417265 
L 241.087448 253.125294 
L 241.58188 253.125294 
L 241.58188 252.833324 
L 242.320252 252.833324 
L 242.320252 252.541353 
L 242.909619 252.541353 
L 242.909619 252.249383 
L 243.891383 252.249383 
L 243.891383 251.957412 
L 244.12864 251.957412 
L 244.187363 251.373471 
L 244.752193 251.373471 
L 244.836145 250.78953 
L 244.952989 250.78953 
L 245.059457 249.913619 
L 245.166052 249.913619 
L 245.166052 249.621648 
L 245.650963 249.621648 
L 245.650963 249.329678 
L 246.022342 249.329678 
L 246.022342 249.037707 
L 246.465678 249.037707 
L 246.560445 248.453766 
L 247.084015 248.453766 
L 247.084015 248.161795 
L 247.47148 248.161795 
L 247.47148 247.869825 
L 248.400724 247.869825 
L 248.400724 247.577854 
L 248.58612 247.577854 
L 248.688146 246.993913 
L 248.821276 246.993913 
L 248.821276 246.701943 
L 250.420092 246.701943 
L 250.420092 246.409972 
L 251.38074 246.409972 
L 251.38074 246.118002 
L 251.694098 246.118002 
L 251.694098 245.826031 
L 252.677297 245.826031 
L 252.677297 245.534061 
L 253.221019 245.534061 
L 253.221019 245.24209 
L 253.406414 245.24209 
L 253.50844 244.366179 
L 254.681995 244.366179 
L 254.681995 244.074208 
L 255.240387 244.074208 
L 255.240387 243.782238 
L 255.946234 243.782238 
L 255.946234 243.490267 
L 256.085014 243.490267 
L 256.085014 243.198297 
L 256.242214 243.198297 
L 256.242214 242.906326 
L 256.692431 242.906326 
L 256.692431 242.614356 
L 257.00784 242.614356 
L 257.114308 242.030415 
L 257.220903 242.030415 
L 257.220903 241.738444 
L 257.497591 241.738444 
L 257.497591 241.446474 
L 258.083415 241.446474 
L 258.083415 241.154503 
L 258.520529 241.154503 
L 258.520529 240.862533 
L 259.119658 240.862533 
L 259.138866 240.278592 
L 260.278621 240.278592 
L 260.278621 239.986621 
L 260.638255 239.986621 
L 260.68955 239.40268 
L 260.766529 239.40268 
L 260.766529 239.11071 
L 261.062509 239.11071 
L 261.062509 238.818739 
L 261.828135 238.818739 
L 261.934603 238.234798 
L 262.041198 238.234798 
L 262.041198 237.942828 
L 262.410302 237.942828 
L 262.410302 237.650857 
L 263.340824 237.650857 
L 263.340824 237.358887 
L 263.959161 237.358887 
L 263.959161 237.066916 
L 264.335852 237.066916 
L 264.335852 236.774946 
L 265.550649 236.774946 
L 265.550649 236.482975 
L 265.857612 236.482975 
L 265.857612 236.191005 
L 266.656127 236.191005 
L 266.736846 235.607064 
L 268.496406 235.607064 
L 268.496406 235.315093 
L 268.681801 235.315093 
L 268.783827 234.731152 
L 270.370944 234.731152 
L 270.370944 234.439182 
L 270.515774 234.439182 
L 270.515774 234.147211 
L 271.388861 234.147211 
L 271.388861 233.855241 
L 271.557141 233.855241 
L 271.557141 233.56327 
L 272.478247 233.56327 
L 272.478247 233.2713 
L 272.772978 233.2713 
L 272.772978 232.979329 
L 273.107845 232.979329 
L 273.107845 232.687359 
L 274.948124 232.687359 
L 274.948124 232.395388 
L 275.133519 232.395388 
L 275.235546 231.811447 
L 276.041916 231.811447 
L 276.130305 231.227506 
L 276.337896 231.227506 
L 276.337896 230.935536 
L 276.967492 230.935536 
L 276.967492 230.643565 
L 277.103521 230.643565 
L 277.20999 230.059624 
L 277.316584 230.059624 
L 277.316584 229.767654 
L 277.970584 229.767654 
L 277.970584 229.475683 
L 278.155979 229.475683 
L 278.258005 228.891742 
L 278.61621 228.891742 
L 278.61621 228.599772 
L 279.224696 228.599772 
L 279.234547 228.01583 
L 279.989952 228.01583 
L 279.989952 227.72386 
L 282.247156 227.72386 
L 282.247156 227.431889 
L 282.493634 227.431889 
L 282.493634 227.139919 
L 282.789614 227.139919 
L 282.789614 226.847948 
L 283.55524 226.847948 
L 283.661708 226.264007 
L 283.768303 226.264007 
L 283.768303 225.972037 
L 284.064977 225.972037 
L 284.064977 225.680066 
L 285.067929 225.680066 
L 285.067929 225.388096 
L 285.516094 225.388096 
L 285.516094 225.096125 
L 285.64633 225.096125 
L 285.686266 224.512184 
L 285.812074 224.512184 
L 285.905256 223.928243 
L 286.090651 223.928243 
L 286.192677 223.344302 
L 286.5777 223.344302 
L 286.684168 222.760361 
L 286.790763 222.760361 
L 286.832528 222.17642 
L 287.924624 222.17642 
L 287.924624 221.88445 
L 288.090389 221.88445 
L 288.090389 221.592479 
L 288.708726 221.592479 
L 288.708726 221.300509 
L 290.181828 221.300509 
L 290.181828 221.008538 
L 292.098049 221.008538 
L 292.098049 220.716568 
L 292.266794 220.716568 
L 292.266794 220.424597 
L 293.284246 220.424597 
L 293.284246 220.132627 
L 293.450766 220.132627 
L 293.450766 219.840656 
L 293.603819 219.840656 
L 293.603819 219.548686 
L 293.746746 219.548686 
L 293.746746 219.256715 
L 294.107073 219.256715 
L 294.107073 218.964745 
L 294.292469 218.964745 
L 294.394495 218.380804 
L 294.512372 218.380804 
L 294.61884 217.796863 
L 294.725435 217.796863 
L 294.725435 217.504892 
L 295.120509 217.504892 
L 295.186253 216.920951 
L 296.025061 216.920951 
L 296.126441 216.33701 
L 296.306706 216.33701 
L 296.306706 216.04504 
L 296.643398 216.04504 
L 296.643398 215.753069 
L 297.026532 215.753069 
L 297.026532 215.461099 
L 297.211927 215.461099 
L 297.313953 214.877158 
L 297.994735 214.877158 
L 297.994735 214.585187 
L 298.383646 214.585187 
L 298.383646 214.293217 
L 298.602152 214.293217 
L 298.660552 213.709276 
L 299.0459 213.709276 
L 299.0459 213.417305 
L 299.987851 213.417305 
L 299.993136 212.833364 
L 300.500831 212.833364 
L 300.500831 212.541394 
L 300.686226 212.541394 
L 300.788252 211.957453 
L 301.029379 211.957453 
L 301.029379 211.665482 
L 301.303104 211.665482 
L 301.303104 211.373512 
L 301.652583 211.373512 
L 301.652583 211.081541 
L 301.948563 211.081541 
L 301.948563 210.789571 
L 302.188342 210.789571 
L 302.188342 210.4976 
L 302.520199 210.4976 
L 302.599271 209.621689 
L 302.714189 209.621689 
L 302.820657 209.037748 
L 302.927252 209.037748 
L 302.927252 208.745777 
L 303.055181 208.745777 
L 303.055181 208.453807 
L 304.226878 208.453807 
L 304.320023 207.577895 
L 304.378767 207.577895 
L 304.378767 207.285924 
L 304.572042 207.285924 
L 304.572042 206.993954 
L 304.777403 206.993954 
L 304.868022 206.118042 
L 304.986184 206.118042 
L 304.986184 205.826072 
L 305.633648 205.826072 
L 305.740116 205.242131 
L 305.84671 205.242131 
L 305.84671 204.95016 
L 306.245573 204.95016 
L 306.245573 204.65819 
L 306.377168 204.65819 
L 306.377168 204.366219 
L 307.146337 204.366219 
L 307.146337 204.074249 
L 307.413411 204.074249 
L 307.413411 203.782278 
L 307.764674 203.782278 
L 307.767333 203.198337 
L 308.046341 203.198337 
L 308.046341 202.906367 
L 308.342321 202.906367 
L 308.342321 202.614396 
L 308.572374 202.614396 
L 308.572374 202.322426 
L 308.932008 202.322426 
L 308.983303 201.738485 
L 309.107947 201.738485 
L 309.214415 201.154544 
L 309.32101 201.154544 
L 309.32101 200.862573 
L 309.685024 200.862573 
L 309.685024 200.570603 
L 310.620636 200.570603 
L 310.704055 199.986662 
L 311.238973 199.986662 
L 311.256998 199.402721 
L 311.525303 199.402721 
L 311.525303 199.11075 
L 311.710699 199.11075 
L 311.812725 198.526809 
L 312.443195 198.526809 
L 312.443195 198.234839 
L 312.629605 198.234839 
L 312.629605 197.942868 
L 313.298582 197.942868 
L 313.298582 197.650898 
L 313.544671 197.650898 
L 313.544671 197.358927 
L 314.151365 197.358927 
L 314.176457 196.774986 
L 314.387968 196.774986 
L 314.387968 196.483016 
L 314.972204 196.483016 
L 314.972204 196.191045 
L 315.207768 196.191045 
L 315.243282 195.607104 
L 315.362654 195.607104 
L 315.362654 195.315134 
L 315.801876 195.315134 
L 315.801876 195.023163 
L 316.812483 195.023163 
L 316.812483 194.731193 
L 316.997879 194.731193 
L 317.099905 193.563311 
L 317.233443 193.563311 
L 317.335469 192.687399 
L 317.370983 192.687399 
L 317.370983 192.395429 
L 317.650756 192.395429 
L 317.650756 192.103458 
L 318.831851 192.103458 
L 318.836953 191.519517 
L 319.067415 191.519517 
L 319.102929 190.643606 
L 319.366793 190.643606 
L 319.366793 190.351635 
L 319.682614 190.351635 
L 319.682614 190.059665 
L 320.132419 190.059665 
L 320.238887 189.475724 
L 320.345482 189.475724 
L 320.345482 189.183753 
L 320.772 189.183753 
L 320.772 188.891783 
L 321.089056 188.891783 
L 321.089056 188.599812 
L 321.32462 188.599812 
L 321.360134 188.015871 
L 321.645108 188.015871 
L 321.645108 187.723901 
L 322.263445 187.723901 
L 322.263445 187.43193 
L 324.357993 187.43193 
L 324.357993 187.139959 
L 324.593557 187.139959 
L 324.653973 186.264048 
L 324.889537 186.264048 
L 324.925051 185.680107 
L 325.419599 185.680107 
L 325.526067 185.096166 
L 325.632662 185.096166 
L 325.690677 184.220254 
L 325.761631 184.220254 
L 325.868226 183.344343 
L 325.90374 183.344343 
L 325.90374 183.052372 
L 326.932288 183.052372 
L 326.932288 182.760402 
L 327.167852 182.760402 
L 327.203366 182.176461 
L 327.550625 182.176461 
L 327.550625 181.88449 
L 327.786189 181.88449 
L 327.821703 181.300549 
L 328.675228 181.300549 
L 328.675228 181.008579 
L 329.861425 181.008579 
L 329.861425 180.716608 
L 333.962408 180.716608 
L 333.962408 180.424638 
L 334.197972 180.424638 
L 334.233486 179.840697 
L 335.148605 179.840697 
L 335.148605 179.548726 
L 335.384169 179.548726 
L 335.419683 178.964785 
L 453.192 178.964785 
L 453.192 178.964785 
" clip-path="url(#p9ea5cb3905)" style="fill: none; stroke: #bf00bf; stroke-width: 3; stroke-linecap: square"/>
   </g>
   <g id="line2d_22">
    <path clip-path="url(#p9ea5cb3905)" style="fill: none; stroke: #bf00bf; stroke-width: 3; stroke-linecap: square"/>
   </g>
   <g id="line2d_23">
    <path d="M 34.16 286.081197 
L 155.094739 286.081197 
L 155.094739 285.784631 
L 159.264463 285.784631 
L 159.264463 285.488065 
L 185.541426 285.488065 
L 185.541426 285.191499 
L 187.085036 285.191499 
L 187.085036 284.894933 
L 195.027412 284.894933 
L 195.027412 284.598367 
L 195.452009 284.598367 
L 195.452009 284.301801 
L 199.072225 284.301801 
L 199.072225 284.005235 
L 199.621733 284.005235 
L 199.621733 283.708669 
L 203.593021 283.708669 
L 203.593021 283.412103 
L 205.418007 283.412103 
L 205.418007 283.115536 
L 205.776519 283.115536 
L 205.807097 282.522404 
L 205.906795 282.522404 
L 205.906795 282.225838 
L 206.60782 282.225838 
L 206.60782 281.929272 
L 207.787392 281.929272 
L 207.787392 281.632706 
L 208.539004 281.632706 
L 208.539004 281.33614 
L 209.912591 281.33614 
L 209.912591 281.039574 
L 210.095364 281.039574 
L 210.095364 280.743008 
L 210.46051 280.743008 
L 210.46051 280.446442 
L 211.408044 280.446442 
L 211.408044 280.149876 
L 213.291016 280.149876 
L 213.291016 279.85331 
L 214.141218 279.85331 
L 214.212285 279.260178 
L 216.20841 279.260178 
L 216.255709 278.667046 
L 216.421001 278.667046 
L 216.421001 278.37048 
L 216.769018 278.37048 
L 216.769018 278.073914 
L 217.071752 278.073914 
L 217.071752 277.777347 
L 217.543257 277.777347 
L 217.543257 277.480781 
L 218.488192 277.480781 
L 218.535491 276.591083 
L 218.846578 276.591083 
L 218.846578 276.294517 
L 219.0488 276.294517 
L 219.0488 275.997951 
L 219.823039 275.997951 
L 219.823039 275.701385 
L 220.581675 275.701385 
L 220.628974 275.108253 
L 220.882435 275.108253 
L 220.961068 274.218555 
L 221.142283 274.218555 
L 221.214866 273.625423 
L 221.474377 273.625423 
L 221.49439 273.032291 
L 221.746451 273.032291 
L 221.746451 272.735725 
L 221.916522 272.735725 
L 221.916522 272.439158 
L 222.141435 272.439158 
L 222.248617 271.252894 
L 222.572692 271.252894 
L 222.572692 270.956328 
L 222.693092 270.956328 
L 222.693092 270.659762 
L 223.088325 270.659762 
L 223.162217 270.06663 
L 223.386967 270.06663 
L 223.494648 269.176932 
L 223.813642 269.176932 
L 223.860941 268.5838 
L 223.953202 268.5838 
L 223.953202 268.287234 
L 224.208626 268.287234 
L 224.289113 267.397536 
L 224.336412 267.397536 
L 224.423895 266.507837 
L 224.490017 266.507837 
L 224.490017 266.211271 
L 224.760283 266.211271 
L 224.852474 264.728441 
L 225.14849 264.728441 
L 225.2557 264.135309 
L 225.320891 264.135309 
L 225.393103 263.245611 
L 225.454159 263.245611 
L 225.543474 261.466214 
L 225.587794 261.466214 
L 225.666025 259.983384 
L 225.717339 259.983384 
L 225.717339 259.686818 
L 225.920225 259.686818 
L 226.014767 259.093686 
L 226.09513 259.093686 
L 226.09513 258.79712 
L 226.232984 258.79712 
L 226.232984 258.500554 
L 226.517377 258.500554 
L 226.517377 258.203988 
L 226.769799 258.203988 
L 226.849472 257.31429 
L 226.945957 257.31429 
L 226.945957 257.017724 
L 227.278052 257.017724 
L 227.278052 256.721158 
L 227.460294 256.721158 
L 227.569448 254.941761 
L 227.574832 254.941761 
L 227.68497 253.755497 
L 227.732269 253.755497 
L 227.810822 252.272667 
L 228.020902 252.272667 
L 228.124408 251.382969 
L 228.13544 251.382969 
L 228.245577 250.49327 
L 228.293825 250.49327 
L 228.326467 249.900138 
L 228.487668 249.900138 
L 228.487668 249.603572 
L 228.658561 249.603572 
L 228.658561 249.307006 
L 228.795142 249.307006 
L 228.898648 247.52761 
L 228.90968 247.52761 
L 229.019817 246.637912 
L 229.068064 246.637912 
L 229.068064 246.341346 
L 229.195376 246.341346 
L 229.295569 245.451647 
L 229.434308 245.451647 
L 229.533574 244.858515 
L 229.749345 244.858515 
L 229.766739 244.265383 
L 230.128184 244.265383 
L 230.224816 243.079119 
L 230.460615 243.079119 
L 230.460615 242.782553 
L 230.572909 242.782553 
L 230.653396 241.892855 
L 230.693557 241.892855 
L 230.695986 241.299723 
L 231.04279 241.299723 
L 231.124565 240.410024 
L 231.169028 240.410024 
L 231.169028 240.113458 
L 231.389861 240.113458 
L 231.437774 239.520326 
L 231.518261 239.520326 
L 231.558434 238.927194 
L 231.640198 238.927194 
L 231.640198 238.630628 
L 231.813356 238.630628 
L 231.818441 238.037496 
L 231.953418 238.037496 
L 232.033905 237.147798 
L 232.095249 237.147798 
L 232.196175 236.2581 
L 232.237825 236.2581 
L 232.334074 235.368402 
L 232.358995 235.368402 
L 232.46675 234.478703 
L 232.490233 234.478703 
L 232.581288 232.699307 
L 232.683306 232.699307 
L 232.739673 231.809609 
L 232.874121 231.809609 
L 232.874121 231.513043 
L 233.04189 231.513043 
L 233.04189 231.216477 
L 233.198951 231.216477 
L 233.198951 230.919911 
L 233.395997 230.919911 
L 233.499503 230.030213 
L 233.510535 230.030213 
L 233.620672 229.43708 
L 233.668919 229.43708 
L 233.735766 228.843948 
L 233.824577 228.843948 
L 233.928083 227.657684 
L 233.939115 227.657684 
L 234.049252 227.064552 
L 234.097499 227.064552 
L 234.097499 226.767986 
L 234.238933 226.767986 
L 234.340209 226.174854 
L 234.402065 226.174854 
L 234.454747 225.285156 
L 234.564885 225.285156 
L 234.613132 224.692024 
L 234.689441 224.692024 
L 234.792948 223.802325 
L 234.803979 223.802325 
L 234.914117 223.209193 
L 234.962364 223.209193 
L 234.967604 222.616061 
L 235.205086 222.616061 
L 235.308592 221.429797 
L 235.319624 221.429797 
L 235.429762 220.836665 
L 235.478009 220.836665 
L 235.478009 220.540099 
L 235.741901 220.540099 
L 235.845407 219.650401 
L 235.856439 219.650401 
L 235.966577 219.057268 
L 236.014824 219.057268 
L 236.11792 218.464136 
L 237.138807 218.464136 
L 237.138807 218.16757 
L 237.533791 218.16757 
L 237.614278 217.574438 
L 238.085447 217.574438 
L 238.085447 217.277872 
L 238.199572 217.277872 
L 238.199572 216.981306 
L 238.594556 216.981306 
L 238.675043 216.388174 
L 238.779323 216.388174 
L 238.779323 216.091608 
L 239.146212 216.091608 
L 239.146212 215.795042 
L 239.840088 215.795042 
L 239.840088 215.498476 
L 240.287644 215.498476 
L 240.287644 215.20191 
L 240.785458 215.20191 
L 240.888965 214.312212 
L 240.899996 214.312212 
L 241.010134 213.719079 
L 241.058381 213.719079 
L 241.058381 213.422513 
L 241.846223 213.422513 
L 241.94973 212.532815 
L 241.960761 212.532815 
L 242.070899 211.939683 
L 242.119146 211.939683 
L 242.202407 211.346551 
L 243.95029 211.346551 
L 243.95029 211.049985 
L 245.775277 211.049985 
L 245.775277 210.753419 
L 246.133788 210.753419 
L 246.164367 210.160287 
L 246.264065 210.160287 
L 246.372131 209.567155 
L 246.96509 209.567155 
L 246.96509 209.270589 
L 248.144662 209.270589 
L 248.144662 208.974023 
L 250.269861 208.974023 
L 250.269861 208.677457 
L 250.452633 208.677457 
L 250.452633 208.38089 
L 250.81778 208.38089 
L 250.81778 208.084324 
L 251.765314 208.084324 
L 251.765314 207.787758 
L 253.648285 207.787758 
L 253.648285 207.491192 
L 254.569555 207.491192 
L 254.569555 207.194626 
L 284.616202 207.194626 
L 284.616202 206.89806 
L 286.441188 206.89806 
L 286.441188 206.601494 
L 286.7997 206.601494 
L 286.830278 206.008362 
L 286.929976 206.008362 
L 286.929976 205.711796 
L 287.631001 205.711796 
L 287.631001 205.41523 
L 288.810573 205.41523 
L 288.810573 205.118664 
L 290.700689 205.118664 
L 290.700689 204.822098 
L 290.935772 204.822098 
L 290.935772 204.525532 
L 291.118545 204.525532 
L 291.118545 204.228966 
L 291.483691 204.228966 
L 291.483691 203.9324 
L 292.431225 203.9324 
L 292.525675 203.339268 
L 292.884187 203.339268 
L 292.914765 202.746135 
L 293.014464 202.746135 
L 293.014464 202.449569 
L 293.715489 202.449569 
L 293.715489 202.153003 
L 294.314197 202.153003 
L 294.314197 201.856437 
L 294.89506 201.856437 
L 294.89506 201.559871 
L 295.235466 201.559871 
L 295.235466 201.263305 
L 297.020259 201.263305 
L 297.020259 200.966739 
L 297.203032 200.966739 
L 297.203032 200.670173 
L 297.568178 200.670173 
L 297.568178 200.373607 
L 298.515712 200.373607 
L 298.515712 200.077041 
L 300.398684 200.077041 
L 300.398684 199.780475 
L 301.319953 199.780475 
L 301.319953 199.483909 
L 453.192 199.483909 
L 453.192 199.483909 
" clip-path="url(#p9ea5cb3905)" style="fill: none; stroke: #ff0000; stroke-width: 3; stroke-linecap: square"/>
   </g>
   <g id="line2d_24">
    <path clip-path="url(#p9ea5cb3905)" style="fill: none; stroke: #ff0000; stroke-width: 3; stroke-linecap: square"/>
   </g>
   <g id="line2d_25">
    <path d="M 243.676 291.28 
L 243.676 3 
" clip-path="url(#p9ea5cb3905)" style="fill: none; stroke: #000000; stroke-width: 1.5; stroke-linecap: square"/>
   </g>
   <g id="line2d_26">
    <path d="M 34.16 147.14 
L 453.192 147.14 
" clip-path="url(#p9ea5cb3905)" style="fill: none; stroke-dasharray: 2,3.3; stroke-dashoffset: 0; stroke: #000000; stroke-width: 2"/>
   </g>
   <g id="patch_3">
    <path d="M 34.16 291.28 
L 34.16 3 
" style="fill: none; stroke: #000000; stroke-width: 0.8; stroke-linejoin: miter; stroke-linecap: square"/>
   </g>
   <g id="patch_4">
    <path d="M 453.192 291.28 
L 453.192 3 
" style="fill: none; stroke: #000000; stroke-width: 0.8; stroke-linejoin: miter; stroke-linecap: square"/>
   </g>
   <g id="patch_5">
    <path d="M 34.16 291.28 
L 453.192 291.28 
" style="fill: none; stroke: #000000; stroke-width: 0.8; stroke-linejoin: miter; stroke-linecap: square"/>
   </g>
   <g id="patch_6">
    <path d="M 34.16 3 
L 453.192 3 
" style="fill: none; stroke: #000000; stroke-width: 0.8; stroke-linejoin: miter; stroke-linecap: square"/>
   </g>
   <g id="text_6">
    <!-- f20-f24,20-D -->
    <g transform="translate(318.19261 285.5144)scale(0.2 -0.2)">
     <defs>
      <path id="DejaVuSans-34" d="M 2419 4116 
L 825 1625 
L 2419 1625 
L 2419 4116 
z
M 2253 4666 
L 3047 4666 
L 3047 1625 
L 3713 1625 
L 3713 1100 
L 3047 1100 
L 3047 0 
L 2419 0 
L 2419 1100 
L 313 1100 
L 313 1709 
L 2253 4666 
z
" transform="scale(0.015625)"/>
      <path id="DejaVuSans-2c" d="M 750 794 
L 1409 794 
L 1409 256 
L 897 -744 
L 494 -744 
L 750 256 
L 750 794 
z
" transform="scale(0.015625)"/>
      <path id="DejaVuSans-44" d="M 1259 4147 
L 1259 519 
L 2022 519 
Q 2988 519 3436 956 
Q 3884 1394 3884 2338 
Q 3884 3275 3436 3711 
Q 2988 4147 2022 4147 
L 1259 4147 
z
M 628 4666 
L 1925 4666 
Q 3281 4666 3915 4102 
Q 4550 3538 4550 2338 
Q 4550 1131 3912 565 
Q 3275 0 1925 0 
L 628 0 
L 628 4666 
z
" transform="scale(0.015625)"/>
     </defs>
     <use xlink:href="#DejaVuSans-66"/>
     <use xlink:href="#DejaVuSans-32" x="35.205078"/>
     <use xlink:href="#DejaVuSans-30" x="98.828125"/>
     <use xlink:href="#DejaVuSans-2d" x="162.451172"/>
     <use xlink:href="#DejaVuSans-66" x="198.535156"/>
     <use xlink:href="#DejaVuSans-32" x="233.740234"/>
     <use xlink:href="#DejaVuSans-34" x="297.363281"/>
     <use xlink:href="#DejaVuSans-2c" x="360.986328"/>
     <use xlink:href="#DejaVuSans-32" x="392.773438"/>
     <use xlink:href="#DejaVuSans-30" x="456.396484"/>
     <use xlink:href="#DejaVuSans-2d" x="520.019531"/>
     <use xlink:href="#DejaVuSans-44" x="556.103516"/>
    </g>
   </g>
   <g id="text_7">
    <!-- v2.6.3 -->
    <g style="fill: #808080" transform="translate(227.99475 286.317512)scale(0.1 -0.1)">
     <defs>
      <path id="DejaVuSans-2e" d="M 684 794 
L 1344 794 
L 1344 0 
L 684 0 
L 684 794 
z
" transform="scale(0.015625)"/>
      <path id="DejaVuSans-36" d="M 2113 2584 
Q 1688 2584 1439 2293 
Q 1191 2003 1191 1497 
Q 1191 994 1439 701 
Q 1688 409 2113 409 
Q 2538 409 2786 701 
Q 3034 994 3034 1497 
Q 3034 2003 2786 2293 
Q 2538 2584 2113 2584 
z
M 3366 4563 
L 3366 3988 
Q 3128 4100 2886 4159 
Q 2644 4219 2406 4219 
Q 1781 4219 1451 3797 
Q 1122 3375 1075 2522 
Q 1259 2794 1537 2939 
Q 1816 3084 2150 3084 
Q 2853 3084 3261 2657 
Q 3669 2231 3669 1497 
Q 3669 778 3244 343 
Q 2819 -91 2113 -91 
Q 1303 -91 875 529 
Q 447 1150 447 2328 
Q 447 3434 972 4092 
Q 1497 4750 2381 4750 
Q 2619 4750 2861 4703 
Q 3103 4656 3366 4563 
z
" transform="scale(0.015625)"/>
      <path id="DejaVuSans-33" d="M 2597 2516 
Q 3050 2419 3304 2112 
Q 3559 1806 3559 1356 
Q 3559 666 3084 287 
Q 2609 -91 1734 -91 
Q 1441 -91 1130 -33 
Q 819 25 488 141 
L 488 750 
Q 750 597 1062 519 
Q 1375 441 1716 441 
Q 2309 441 2620 675 
Q 2931 909 2931 1356 
Q 2931 1769 2642 2001 
Q 2353 2234 1838 2234 
L 1294 2234 
L 1294 2753 
L 1863 2753 
Q 2328 2753 2575 2939 
Q 2822 3125 2822 3475 
Q 2822 3834 2567 4026 
Q 2313 4219 1838 4219 
Q 1578 4219 1281 4162 
Q 984 4106 628 3988 
L 628 4550 
Q 988 4650 1302 4700 
Q 1616 4750 1894 4750 
Q 2613 4750 3031 4423 
Q 3450 4097 3450 3541 
Q 3450 3153 3228 2886 
Q 3006 2619 2597 2516 
z
" transform="scale(0.015625)"/>
     </defs>
     <use xlink:href="#DejaVuSans-76"/>
     <use xlink:href="#DejaVuSans-32" x="59.179688"/>
     <use xlink:href="#DejaVuSans-2e" x="122.802734"/>
     <use xlink:href="#DejaVuSans-36" x="154.589844"/>
     <use xlink:href="#DejaVuSans-2e" x="218.212891"/>
     <use xlink:href="#DejaVuSans-33" x="250"/>
    </g>
   </g>
   <g id="legend_1">
    <g id="patch_7">
     <path d="M 48.16 136.425 
L 177.381875 136.425 
Q 181.381875 136.425 181.381875 132.425 
L 181.381875 17 
Q 181.381875 13 177.381875 13 
L 48.16 13 
Q 44.16 13 44.16 17 
L 44.16 132.425 
Q 44.16 136.425 48.16 136.425 
z
" style="fill: #ffffff; opacity: 0.2; stroke: #cccccc; stroke-linejoin: miter"/>
    </g>
    <g id="line2d_27">
     <path d="M 52.16 29.196875 
L 72.16 29.196875 
L 92.16 29.196875 
" style="fill: none; stroke: #000000; stroke-width: 3; stroke-linecap: square"/>
    </g>
    <g id="text_8">
     <!-- 1: 5/5 -->
     <g transform="translate(108.16 36.196875)scale(0.2 -0.2)">
      <defs>
       <path id="DejaVuSans-3a" d="M 750 794 
L 1409 794 
L 1409 0 
L 750 0 
L 750 794 
z
M 750 3309 
L 1409 3309 
L 1409 2516 
L 750 2516 
L 750 3309 
z
" transform="scale(0.015625)"/>
       <path id="DejaVuSans-35" d="M 691 4666 
L 3169 4666 
L 3169 4134 
L 1269 4134 
L 1269 2991 
Q 1406 3038 1543 3061 
Q 1681 3084 1819 3084 
Q 2600 3084 3056 2656 
Q 3513 2228 3513 1497 
Q 3513 744 3044 326 
Q 2575 -91 1722 -91 
Q 1428 -91 1123 -41 
Q 819 9 494 109 
L 494 744 
Q 775 591 1075 516 
Q 1375 441 1709 441 
Q 2250 441 2565 725 
Q 2881 1009 2881 1497 
Q 2881 1984 2565 2268 
Q 2250 2553 1709 2553 
Q 1456 2553 1204 2497 
Q 953 2441 691 2322 
L 691 4666 
z
" transform="scale(0.015625)"/>
       <path id="DejaVuSans-2f" d="M 1625 4666 
L 2156 4666 
L 531 -594 
L 0 -594 
L 1625 4666 
z
" transform="scale(0.015625)"/>
      </defs>
      <use xlink:href="#DejaVuSans-31"/>
      <use xlink:href="#DejaVuSans-3a" x="63.623047"/>
      <use xlink:href="#DejaVuSans-20" x="97.314453"/>
      <use xlink:href="#DejaVuSans-35" x="129.101562"/>
      <use xlink:href="#DejaVuSans-2f" x="192.724609"/>
      <use xlink:href="#DejaVuSans-35" x="226.416016"/>
     </g>
    </g>
    <g id="line2d_28">
     <path d="M 52.16 58.553125 
L 72.16 58.553125 
L 92.16 58.553125 
" style="fill: none; stroke: #00bfbf; stroke-width: 3; stroke-linecap: square"/>
    </g>
    <g id="text_9">
     <!-- -1: 4/5 -->
     <g transform="translate(108.16 65.553125)scale(0.2 -0.2)">
      <use xlink:href="#DejaVuSans-2d"/>
      <use xlink:href="#DejaVuSans-31" x="36.083984"/>
      <use xlink:href="#DejaVuSans-3a" x="99.707031"/>
      <use xlink:href="#DejaVuSans-20" x="133.398438"/>
      <use xlink:href="#DejaVuSans-34" x="165.185547"/>
      <use xlink:href="#DejaVuSans-2f" x="228.808594"/>
      <use xlink:href="#DejaVuSans-35" x="262.5"/>
     </g>
    </g>
    <g id="line2d_29">
     <path d="M 52.16 87.909375 
L 72.16 87.909375 
L 92.16 87.909375 
" style="fill: none; stroke: #bf00bf; stroke-width: 3; stroke-linecap: square"/>
    </g>
    <g id="text_10">
     <!-- -4: 4/5 -->
     <g transform="translate(108.16 94.909375)scale(0.2 -0.2)">
      <use xlink:href="#DejaVuSans-2d"/>
      <use xlink:href="#DejaVuSans-34" x="36.083984"/>
      <use xlink:href="#DejaVuSans-3a" x="99.707031"/>
      <use xlink:href="#DejaVuSans-20" x="133.398438"/>
      <use xlink:href="#DejaVuSans-34" x="165.185547"/>
      <use xlink:href="#DejaVuSans-2f" x="228.808594"/>
      <use xlink:href="#DejaVuSans-35" x="262.5"/>
     </g>
    </g>
    <g id="line2d_30">
     <path d="M 52.16 117.265625 
L 72.16 117.265625 
L 92.16 117.265625 
" style="fill: none; stroke: #ff0000; stroke-width: 3; stroke-linecap: square"/>
    </g>
    <g id="text_11">
     <!-- -8: 3/5 -->
     <g transform="translate(108.16 124.265625)scale(0.2 -0.2)">
      <defs>
       <path id="DejaVuSans-38" d="M 2034 2216 
Q 1584 2216 1326 1975 
Q 1069 1734 1069 1313 
Q 1069 891 1326 650 
Q 1584 409 2034 409 
Q 2484 409 2743 651 
Q 3003 894 3003 1313 
Q 3003 1734 2745 1975 
Q 2488 2216 2034 2216 
z
M 1403 2484 
Q 997 2584 770 2862 
Q 544 3141 544 3541 
Q 544 4100 942 4425 
Q 1341 4750 2034 4750 
Q 2731 4750 3128 4425 
Q 3525 4100 3525 3541 
Q 3525 3141 3298 2862 
Q 3072 2584 2669 2484 
Q 3125 2378 3379 2068 
Q 3634 1759 3634 1313 
Q 3634 634 3220 271 
Q 2806 -91 2034 -91 
Q 1263 -91 848 271 
Q 434 634 434 1313 
Q 434 1759 690 2068 
Q 947 2378 1403 2484 
z
M 1172 3481 
Q 1172 3119 1398 2916 
Q 1625 2713 2034 2713 
Q 2441 2713 2670 2916 
Q 2900 3119 2900 3481 
Q 2900 3844 2670 4047 
Q 2441 4250 2034 4250 
Q 1625 4250 1398 4047 
Q 1172 3844 1172 3481 
z
" transform="scale(0.015625)"/>
      </defs>
      <use xlink:href="#DejaVuSans-2d"/>
      <use xlink:href="#DejaVuSans-38" x="36.083984"/>
      <use xlink:href="#DejaVuSans-3a" x="99.707031"/>
      <use xlink:href="#DejaVuSans-20" x="133.398438"/>
      <use xlink:href="#DejaVuSans-33" x="165.185547"/>
      <use xlink:href="#DejaVuSans-2f" x="228.808594"/>
      <use xlink:href="#DejaVuSans-35" x="262.5"/>
     </g>
    </g>
   </g>
  </g>
 </g>
 <defs>
  <clipPath id="p9ea5cb3905">
   <rect x="34.16" y="3" width="419.032" height="288.28"/>
  </clipPath>
 </defs>
</svg>
