<?xml version="1.0" encoding="utf-8" standalone="no"?>
<!DOCTYPE svg PUBLIC "-//W3C//DTD SVG 1.1//EN"
  "http://www.w3.org/Graphics/SVG/1.1/DTD/svg11.dtd">
<svg xmlns:xlink="http://www.w3.org/1999/xlink" width="460.8pt" height="345.6pt" viewBox="0 0 460.8 345.6" xmlns="http://www.w3.org/2000/svg" version="1.1">
 <metadata>
  <rdf:RDF xmlns:dc="http://purl.org/dc/elements/1.1/" xmlns:cc="http://creativecommons.org/ns#" xmlns:rdf="http://www.w3.org/1999/02/22-rdf-syntax-ns#">
   <cc:Work>
    <dc:type rdf:resource="http://purl.org/dc/dcmitype/StillImage"/>
    <dc:date>2024-06-19T19:28:23.372254</dc:date>
    <dc:format>image/svg+xml</dc:format>
    <dc:creator>
     <cc:Agent>
      <dc:title>Matplotlib v3.5.2, https://matplotlib.org/</dc:title>
     </cc:Agent>
    </dc:creator>
   </cc:Work>
  </rdf:RDF>
 </metadata>
 <defs>
  <style type="text/css">*{stroke-linejoin: round; stroke-linecap: butt}</style>
 </defs>
 <g id="figure_1">
  <g id="patch_1">
   <path d="M 0 345.6 
L 460.8 345.6 
L 460.8 0 
L 0 0 
z
" style="fill: #ffffff"/>
  </g>
  <g id="axes_1">
   <g id="patch_2">
    <path d="M 34.16 291.28 
L 453.192 291.28 
L 453.192 3 
L 34.16 3 
z
" style="fill: #ffffff"/>
   </g>
   <g id="matplotlib.axis_1">
    <g id="xtick_1">
     <g id="line2d_1">
      <path d="M 116.748332 291.28 
L 116.748332 3 
" clip-path="url(#pfa62e8570c)" style="fill: none; stroke: #b0b0b0; stroke-width: 0.8; stroke-linecap: square"/>
     </g>
     <g id="line2d_2">
      <defs>
       <path id="m6eed302ea6" d="M 0 0 
L 0 3.5 
" style="stroke: #000000; stroke-width: 0.8"/>
      </defs>
      <g>
       <use xlink:href="#m6eed302ea6" x="116.748332" y="291.28" style="stroke: #000000; stroke-width: 0.8"/>
      </g>
     </g>
     <g id="text_1">
      <!-- -1 -->
      <g transform="translate(106.778019 313.476875)scale(0.2 -0.2)">
       <defs>
        <path id="DejaVuSans-2d" d="M 313 2009 
L 1997 2009 
L 1997 1497 
L 313 1497 
L 313 2009 
z
" transform="scale(0.015625)"/>
        <path id="DejaVuSans-31" d="M 794 531 
L 1825 531 
L 1825 4091 
L 703 3866 
L 703 4441 
L 1819 4666 
L 2450 4666 
L 2450 531 
L 3481 531 
L 3481 0 
L 794 0 
L 794 531 
z
" transform="scale(0.015625)"/>
       </defs>
       <use xlink:href="#DejaVuSans-2d"/>
       <use xlink:href="#DejaVuSans-31" x="36.083984"/>
      </g>
     </g>
    </g>
    <g id="xtick_2">
     <g id="line2d_3">
      <path d="M 243.676 291.28 
L 243.676 3 
" clip-path="url(#pfa62e8570c)" style="fill: none; stroke: #b0b0b0; stroke-width: 0.8; stroke-linecap: square"/>
     </g>
     <g id="line2d_4">
      <g>
       <use xlink:href="#m6eed302ea6" x="243.676" y="291.28" style="stroke: #000000; stroke-width: 0.8"/>
      </g>
     </g>
     <g id="text_2">
      <!-- 0 -->
      <g transform="translate(237.3135 313.476875)scale(0.2 -0.2)">
       <defs>
        <path id="DejaVuSans-30" d="M 2034 4250 
Q 1547 4250 1301 3770 
Q 1056 3291 1056 2328 
Q 1056 1369 1301 889 
Q 1547 409 2034 409 
Q 2525 409 2770 889 
Q 3016 1369 3016 2328 
Q 3016 3291 2770 3770 
Q 2525 4250 2034 4250 
z
M 2034 4750 
Q 2819 4750 3233 4129 
Q 3647 3509 3647 2328 
Q 3647 1150 3233 529 
Q 2819 -91 2034 -91 
Q 1250 -91 836 529 
Q 422 1150 422 2328 
Q 422 3509 836 4129 
Q 1250 4750 2034 4750 
z
" transform="scale(0.015625)"/>
       </defs>
       <use xlink:href="#DejaVuSans-30"/>
      </g>
     </g>
    </g>
    <g id="xtick_3">
     <g id="line2d_5">
      <path d="M 370.603668 291.28 
L 370.603668 3 
" clip-path="url(#pfa62e8570c)" style="fill: none; stroke: #b0b0b0; stroke-width: 0.8; stroke-linecap: square"/>
     </g>
     <g id="line2d_6">
      <g>
       <use xlink:href="#m6eed302ea6" x="370.603668" y="291.28" style="stroke: #000000; stroke-width: 0.8"/>
      </g>
     </g>
     <g id="text_3">
      <!-- 1 -->
      <g transform="translate(364.241168 313.476875)scale(0.2 -0.2)">
       <use xlink:href="#DejaVuSans-31"/>
      </g>
     </g>
    </g>
    <g id="xtick_4">
     <g id="line2d_7">
      <defs>
       <path id="m0c735b3f5f" d="M 0 0 
L 0 2 
" style="stroke: #000000; stroke-width: 0.6"/>
      </defs>
      <g>
       <use xlink:href="#m0c735b3f5f" x="50.380552" y="291.28" style="stroke: #000000; stroke-width: 0.6"/>
      </g>
     </g>
    </g>
    <g id="xtick_5">
     <g id="line2d_8">
      <g>
       <use xlink:href="#m0c735b3f5f" x="66.238734" y="291.28" style="stroke: #000000; stroke-width: 0.6"/>
      </g>
     </g>
    </g>
    <g id="xtick_6">
     <g id="line2d_9">
      <g>
       <use xlink:href="#m0c735b3f5f" x="78.539296" y="291.28" style="stroke: #000000; stroke-width: 0.6"/>
      </g>
     </g>
    </g>
    <g id="xtick_7">
     <g id="line2d_10">
      <g>
       <use xlink:href="#m0c735b3f5f" x="88.589587" y="291.28" style="stroke: #000000; stroke-width: 0.6"/>
      </g>
     </g>
    </g>
    <g id="xtick_8">
     <g id="line2d_11">
      <g>
       <use xlink:href="#m0c735b3f5f" x="97.086987" y="291.28" style="stroke: #000000; stroke-width: 0.6"/>
      </g>
     </g>
    </g>
    <g id="xtick_9">
     <g id="line2d_12">
      <g>
       <use xlink:href="#m0c735b3f5f" x="104.44777" y="291.28" style="stroke: #000000; stroke-width: 0.6"/>
      </g>
     </g>
    </g>
    <g id="xtick_10">
     <g id="line2d_13">
      <g>
       <use xlink:href="#m0c735b3f5f" x="110.94044" y="291.28" style="stroke: #000000; stroke-width: 0.6"/>
      </g>
     </g>
    </g>
    <g id="xtick_11">
     <g id="line2d_14">
      <g>
       <use xlink:href="#m0c735b3f5f" x="154.957367" y="291.28" style="stroke: #000000; stroke-width: 0.6"/>
      </g>
     </g>
    </g>
    <g id="xtick_12">
     <g id="line2d_15">
      <g>
       <use xlink:href="#m0c735b3f5f" x="177.30822" y="291.28" style="stroke: #000000; stroke-width: 0.6"/>
      </g>
     </g>
    </g>
    <g id="xtick_13">
     <g id="line2d_16">
      <g>
       <use xlink:href="#m0c735b3f5f" x="193.166403" y="291.28" style="stroke: #000000; stroke-width: 0.6"/>
      </g>
     </g>
    </g>
    <g id="xtick_14">
     <g id="line2d_17">
      <g>
       <use xlink:href="#m0c735b3f5f" x="205.466965" y="291.28" style="stroke: #000000; stroke-width: 0.6"/>
      </g>
     </g>
    </g>
    <g id="xtick_15">
     <g id="line2d_18">
      <g>
       <use xlink:href="#m0c735b3f5f" x="215.517256" y="291.28" style="stroke: #000000; stroke-width: 0.6"/>
      </g>
     </g>
    </g>
    <g id="xtick_16">
     <g id="line2d_19">
      <g>
       <use xlink:href="#m0c735b3f5f" x="224.014655" y="291.28" style="stroke: #000000; stroke-width: 0.6"/>
      </g>
     </g>
    </g>
    <g id="xtick_17">
     <g id="line2d_20">
      <g>
       <use xlink:href="#m0c735b3f5f" x="231.375438" y="291.28" style="stroke: #000000; stroke-width: 0.6"/>
      </g>
     </g>
    </g>
    <g id="xtick_18">
     <g id="line2d_21">
      <g>
       <use xlink:href="#m0c735b3f5f" x="237.868108" y="291.28" style="stroke: #000000; stroke-width: 0.6"/>
      </g>
     </g>
    </g>
    <g id="xtick_19">
     <g id="line2d_22">
      <g>
       <use xlink:href="#m0c735b3f5f" x="281.885035" y="291.28" style="stroke: #000000; stroke-width: 0.6"/>
      </g>
     </g>
    </g>
    <g id="xtick_20">
     <g id="line2d_23">
      <g>
       <use xlink:href="#m0c735b3f5f" x="304.235888" y="291.28" style="stroke: #000000; stroke-width: 0.6"/>
      </g>
     </g>
    </g>
    <g id="xtick_21">
     <g id="line2d_24">
      <g>
       <use xlink:href="#m0c735b3f5f" x="320.094071" y="291.28" style="stroke: #000000; stroke-width: 0.6"/>
      </g>
     </g>
    </g>
    <g id="xtick_22">
     <g id="line2d_25">
      <g>
       <use xlink:href="#m0c735b3f5f" x="332.394633" y="291.28" style="stroke: #000000; stroke-width: 0.6"/>
      </g>
     </g>
    </g>
    <g id="xtick_23">
     <g id="line2d_26">
      <g>
       <use xlink:href="#m0c735b3f5f" x="342.444924" y="291.28" style="stroke: #000000; stroke-width: 0.6"/>
      </g>
     </g>
    </g>
    <g id="xtick_24">
     <g id="line2d_27">
      <g>
       <use xlink:href="#m0c735b3f5f" x="350.942324" y="291.28" style="stroke: #000000; stroke-width: 0.6"/>
      </g>
     </g>
    </g>
    <g id="xtick_25">
     <g id="line2d_28">
      <g>
       <use xlink:href="#m0c735b3f5f" x="358.303106" y="291.28" style="stroke: #000000; stroke-width: 0.6"/>
      </g>
     </g>
    </g>
    <g id="xtick_26">
     <g id="line2d_29">
      <g>
       <use xlink:href="#m0c735b3f5f" x="364.795777" y="291.28" style="stroke: #000000; stroke-width: 0.6"/>
      </g>
     </g>
    </g>
    <g id="xtick_27">
     <g id="line2d_30">
      <g>
       <use xlink:href="#m0c735b3f5f" x="408.812704" y="291.28" style="stroke: #000000; stroke-width: 0.6"/>
      </g>
     </g>
    </g>
    <g id="xtick_28">
     <g id="line2d_31">
      <g>
       <use xlink:href="#m0c735b3f5f" x="431.163557" y="291.28" style="stroke: #000000; stroke-width: 0.6"/>
      </g>
     </g>
    </g>
    <g id="xtick_29">
     <g id="line2d_32">
      <g>
       <use xlink:href="#m0c735b3f5f" x="447.021739" y="291.28" style="stroke: #000000; stroke-width: 0.6"/>
      </g>
     </g>
    </g>
    <g id="text_4">
     <!-- log10 of FEvals ratio -->
     <g transform="translate(141.371312 336.833125)scale(0.2 -0.2)">
      <defs>
       <path id="DejaVuSans-6c" d="M 603 4863 
L 1178 4863 
L 1178 0 
L 603 0 
L 603 4863 
z
" transform="scale(0.015625)"/>
       <path id="DejaVuSans-6f" d="M 1959 3097 
Q 1497 3097 1228 2736 
Q 959 2375 959 1747 
Q 959 1119 1226 758 
Q 1494 397 1959 397 
Q 2419 397 2687 759 
Q 2956 1122 2956 1747 
Q 2956 2369 2687 2733 
Q 2419 3097 1959 3097 
z
M 1959 3584 
Q 2709 3584 3137 3096 
Q 3566 2609 3566 1747 
Q 3566 888 3137 398 
Q 2709 -91 1959 -91 
Q 1206 -91 779 398 
Q 353 888 353 1747 
Q 353 2609 779 3096 
Q 1206 3584 1959 3584 
z
" transform="scale(0.015625)"/>
       <path id="DejaVuSans-67" d="M 2906 1791 
Q 2906 2416 2648 2759 
Q 2391 3103 1925 3103 
Q 1463 3103 1205 2759 
Q 947 2416 947 1791 
Q 947 1169 1205 825 
Q 1463 481 1925 481 
Q 2391 481 2648 825 
Q 2906 1169 2906 1791 
z
M 3481 434 
Q 3481 -459 3084 -895 
Q 2688 -1331 1869 -1331 
Q 1566 -1331 1297 -1286 
Q 1028 -1241 775 -1147 
L 775 -588 
Q 1028 -725 1275 -790 
Q 1522 -856 1778 -856 
Q 2344 -856 2625 -561 
Q 2906 -266 2906 331 
L 2906 616 
Q 2728 306 2450 153 
Q 2172 0 1784 0 
Q 1141 0 747 490 
Q 353 981 353 1791 
Q 353 2603 747 3093 
Q 1141 3584 1784 3584 
Q 2172 3584 2450 3431 
Q 2728 3278 2906 2969 
L 2906 3500 
L 3481 3500 
L 3481 434 
z
" transform="scale(0.015625)"/>
       <path id="DejaVuSans-20" transform="scale(0.015625)"/>
       <path id="DejaVuSans-66" d="M 2375 4863 
L 2375 4384 
L 1825 4384 
Q 1516 4384 1395 4259 
Q 1275 4134 1275 3809 
L 1275 3500 
L 2222 3500 
L 2222 3053 
L 1275 3053 
L 1275 0 
L 697 0 
L 697 3053 
L 147 3053 
L 147 3500 
L 697 3500 
L 697 3744 
Q 697 4328 969 4595 
Q 1241 4863 1831 4863 
L 2375 4863 
z
" transform="scale(0.015625)"/>
       <path id="DejaVuSans-46" d="M 628 4666 
L 3309 4666 
L 3309 4134 
L 1259 4134 
L 1259 2759 
L 3109 2759 
L 3109 2228 
L 1259 2228 
L 1259 0 
L 628 0 
L 628 4666 
z
" transform="scale(0.015625)"/>
       <path id="DejaVuSans-45" d="M 628 4666 
L 3578 4666 
L 3578 4134 
L 1259 4134 
L 1259 2753 
L 3481 2753 
L 3481 2222 
L 1259 2222 
L 1259 531 
L 3634 531 
L 3634 0 
L 628 0 
L 628 4666 
z
" transform="scale(0.015625)"/>
       <path id="DejaVuSans-76" d="M 191 3500 
L 800 3500 
L 1894 563 
L 2988 3500 
L 3597 3500 
L 2284 0 
L 1503 0 
L 191 3500 
z
" transform="scale(0.015625)"/>
       <path id="DejaVuSans-61" d="M 2194 1759 
Q 1497 1759 1228 1600 
Q 959 1441 959 1056 
Q 959 750 1161 570 
Q 1363 391 1709 391 
Q 2188 391 2477 730 
Q 2766 1069 2766 1631 
L 2766 1759 
L 2194 1759 
z
M 3341 1997 
L 3341 0 
L 2766 0 
L 2766 531 
Q 2569 213 2275 61 
Q 1981 -91 1556 -91 
Q 1019 -91 701 211 
Q 384 513 384 1019 
Q 384 1609 779 1909 
Q 1175 2209 1959 2209 
L 2766 2209 
L 2766 2266 
Q 2766 2663 2505 2880 
Q 2244 3097 1772 3097 
Q 1472 3097 1187 3025 
Q 903 2953 641 2809 
L 641 3341 
Q 956 3463 1253 3523 
Q 1550 3584 1831 3584 
Q 2591 3584 2966 3190 
Q 3341 2797 3341 1997 
z
" transform="scale(0.015625)"/>
       <path id="DejaVuSans-73" d="M 2834 3397 
L 2834 2853 
Q 2591 2978 2328 3040 
Q 2066 3103 1784 3103 
Q 1356 3103 1142 2972 
Q 928 2841 928 2578 
Q 928 2378 1081 2264 
Q 1234 2150 1697 2047 
L 1894 2003 
Q 2506 1872 2764 1633 
Q 3022 1394 3022 966 
Q 3022 478 2636 193 
Q 2250 -91 1575 -91 
Q 1294 -91 989 -36 
Q 684 19 347 128 
L 347 722 
Q 666 556 975 473 
Q 1284 391 1588 391 
Q 1994 391 2212 530 
Q 2431 669 2431 922 
Q 2431 1156 2273 1281 
Q 2116 1406 1581 1522 
L 1381 1569 
Q 847 1681 609 1914 
Q 372 2147 372 2553 
Q 372 3047 722 3315 
Q 1072 3584 1716 3584 
Q 2034 3584 2315 3537 
Q 2597 3491 2834 3397 
z
" transform="scale(0.015625)"/>
       <path id="DejaVuSans-72" d="M 2631 2963 
Q 2534 3019 2420 3045 
Q 2306 3072 2169 3072 
Q 1681 3072 1420 2755 
Q 1159 2438 1159 1844 
L 1159 0 
L 581 0 
L 581 3500 
L 1159 3500 
L 1159 2956 
Q 1341 3275 1631 3429 
Q 1922 3584 2338 3584 
Q 2397 3584 2469 3576 
Q 2541 3569 2628 3553 
L 2631 2963 
z
" transform="scale(0.015625)"/>
       <path id="DejaVuSans-74" d="M 1172 4494 
L 1172 3500 
L 2356 3500 
L 2356 3053 
L 1172 3053 
L 1172 1153 
Q 1172 725 1289 603 
Q 1406 481 1766 481 
L 2356 481 
L 2356 0 
L 1766 0 
Q 1100 0 847 248 
Q 594 497 594 1153 
L 594 3053 
L 172 3053 
L 172 3500 
L 594 3500 
L 594 4494 
L 1172 4494 
z
" transform="scale(0.015625)"/>
       <path id="DejaVuSans-69" d="M 603 3500 
L 1178 3500 
L 1178 0 
L 603 0 
L 603 3500 
z
M 603 4863 
L 1178 4863 
L 1178 4134 
L 603 4134 
L 603 4863 
z
" transform="scale(0.015625)"/>
      </defs>
      <use xlink:href="#DejaVuSans-6c"/>
      <use xlink:href="#DejaVuSans-6f" x="27.783203"/>
      <use xlink:href="#DejaVuSans-67" x="88.964844"/>
      <use xlink:href="#DejaVuSans-31" x="152.441406"/>
      <use xlink:href="#DejaVuSans-30" x="216.064453"/>
      <use xlink:href="#DejaVuSans-20" x="279.6875"/>
      <use xlink:href="#DejaVuSans-6f" x="311.474609"/>
      <use xlink:href="#DejaVuSans-66" x="372.65625"/>
      <use xlink:href="#DejaVuSans-20" x="407.861328"/>
      <use xlink:href="#DejaVuSans-46" x="439.648438"/>
      <use xlink:href="#DejaVuSans-45" x="497.167969"/>
      <use xlink:href="#DejaVuSans-76" x="560.351562"/>
      <use xlink:href="#DejaVuSans-61" x="619.53125"/>
      <use xlink:href="#DejaVuSans-6c" x="680.810547"/>
      <use xlink:href="#DejaVuSans-73" x="708.59375"/>
      <use xlink:href="#DejaVuSans-20" x="760.693359"/>
      <use xlink:href="#DejaVuSans-72" x="792.480469"/>
      <use xlink:href="#DejaVuSans-61" x="833.59375"/>
      <use xlink:href="#DejaVuSans-74" x="894.873047"/>
      <use xlink:href="#DejaVuSans-69" x="934.082031"/>
      <use xlink:href="#DejaVuSans-6f" x="961.865234"/>
     </g>
    </g>
   </g>
   <g id="matplotlib.axis_2">
    <g id="ytick_1">
     <g id="line2d_33">
      <path d="M 34.16 288.453725 
L 453.192 288.453725 
" clip-path="url(#pfa62e8570c)" style="fill: none; stroke: #b0b0b0; stroke-width: 0.8; stroke-linecap: square"/>
     </g>
     <g id="line2d_34">
      <defs>
       <path id="m9fca4bb754" d="M 0 0 
L -3.5 0 
" style="stroke: #000000; stroke-width: 0.8"/>
      </defs>
      <g>
       <use xlink:href="#m9fca4bb754" x="34.16" y="288.453725" style="stroke: #000000; stroke-width: 0.8"/>
      </g>
     </g>
    </g>
    <g id="ytick_2">
     <g id="line2d_35">
      <path d="M 34.16 217.796863 
L 453.192 217.796863 
" clip-path="url(#pfa62e8570c)" style="fill: none; stroke: #b0b0b0; stroke-width: 0.8; stroke-linecap: square"/>
     </g>
     <g id="line2d_36">
      <g>
       <use xlink:href="#m9fca4bb754" x="34.16" y="217.796863" style="stroke: #000000; stroke-width: 0.8"/>
      </g>
     </g>
    </g>
    <g id="ytick_3">
     <g id="line2d_37">
      <path d="M 34.16 147.14 
L 453.192 147.14 
" clip-path="url(#pfa62e8570c)" style="fill: none; stroke: #b0b0b0; stroke-width: 0.8; stroke-linecap: square"/>
     </g>
     <g id="line2d_38">
      <g>
       <use xlink:href="#m9fca4bb754" x="34.16" y="147.14" style="stroke: #000000; stroke-width: 0.8"/>
      </g>
     </g>
    </g>
    <g id="ytick_4">
     <g id="line2d_39">
      <path d="M 34.16 76.483137 
L 453.192 76.483137 
" clip-path="url(#pfa62e8570c)" style="fill: none; stroke: #b0b0b0; stroke-width: 0.8; stroke-linecap: square"/>
     </g>
     <g id="line2d_40">
      <g>
       <use xlink:href="#m9fca4bb754" x="34.16" y="76.483137" style="stroke: #000000; stroke-width: 0.8"/>
      </g>
     </g>
    </g>
    <g id="ytick_5">
     <g id="line2d_41">
      <path d="M 34.16 5.826275 
L 453.192 5.826275 
" clip-path="url(#pfa62e8570c)" style="fill: none; stroke: #b0b0b0; stroke-width: 0.8; stroke-linecap: square"/>
     </g>
     <g id="line2d_42">
      <g>
       <use xlink:href="#m9fca4bb754" x="34.16" y="5.826275" style="stroke: #000000; stroke-width: 0.8"/>
      </g>
     </g>
    </g>
    <g id="text_5">
     <!-- proportion of trials -->
     <g transform="translate(19.000625 240.14625)rotate(-90)scale(0.2 -0.2)">
      <defs>
       <path id="DejaVuSans-70" d="M 1159 525 
L 1159 -1331 
L 581 -1331 
L 581 3500 
L 1159 3500 
L 1159 2969 
Q 1341 3281 1617 3432 
Q 1894 3584 2278 3584 
Q 2916 3584 3314 3078 
Q 3713 2572 3713 1747 
Q 3713 922 3314 415 
Q 2916 -91 2278 -91 
Q 1894 -91 1617 61 
Q 1341 213 1159 525 
z
M 3116 1747 
Q 3116 2381 2855 2742 
Q 2594 3103 2138 3103 
Q 1681 3103 1420 2742 
Q 1159 2381 1159 1747 
Q 1159 1113 1420 752 
Q 1681 391 2138 391 
Q 2594 391 2855 752 
Q 3116 1113 3116 1747 
z
" transform="scale(0.015625)"/>
       <path id="DejaVuSans-6e" d="M 3513 2113 
L 3513 0 
L 2938 0 
L 2938 2094 
Q 2938 2591 2744 2837 
Q 2550 3084 2163 3084 
Q 1697 3084 1428 2787 
Q 1159 2491 1159 1978 
L 1159 0 
L 581 0 
L 581 3500 
L 1159 3500 
L 1159 2956 
Q 1366 3272 1645 3428 
Q 1925 3584 2291 3584 
Q 2894 3584 3203 3211 
Q 3513 2838 3513 2113 
z
" transform="scale(0.015625)"/>
      </defs>
      <use xlink:href="#DejaVuSans-70"/>
      <use xlink:href="#DejaVuSans-72" x="63.476562"/>
      <use xlink:href="#DejaVuSans-6f" x="102.339844"/>
      <use xlink:href="#DejaVuSans-70" x="163.521484"/>
      <use xlink:href="#DejaVuSans-6f" x="226.998047"/>
      <use xlink:href="#DejaVuSans-72" x="288.179688"/>
      <use xlink:href="#DejaVuSans-74" x="329.292969"/>
      <use xlink:href="#DejaVuSans-69" x="368.501953"/>
      <use xlink:href="#DejaVuSans-6f" x="396.285156"/>
      <use xlink:href="#DejaVuSans-6e" x="457.466797"/>
      <use xlink:href="#DejaVuSans-20" x="520.845703"/>
      <use xlink:href="#DejaVuSans-6f" x="552.632812"/>
      <use xlink:href="#DejaVuSans-66" x="613.814453"/>
      <use xlink:href="#DejaVuSans-20" x="649.019531"/>
      <use xlink:href="#DejaVuSans-74" x="680.806641"/>
      <use xlink:href="#DejaVuSans-72" x="720.015625"/>
      <use xlink:href="#DejaVuSans-69" x="761.128906"/>
      <use xlink:href="#DejaVuSans-61" x="788.912109"/>
      <use xlink:href="#DejaVuSans-6c" x="850.191406"/>
      <use xlink:href="#DejaVuSans-73" x="877.974609"/>
     </g>
    </g>
   </g>
   <g id="line2d_43">
    <path d="M 34.16 288.453725 
L 48.836065 288.453725 
L 48.836065 288.139695 
L 57.618547 288.139695 
L 57.618547 287.825664 
L 69.108699 287.825664 
L 69.108699 287.511634 
L 71.186917 287.511634 
L 71.186917 287.197603 
L 74.427766 287.197603 
L 74.427766 286.883573 
L 75.658052 286.883573 
L 75.658052 286.569542 
L 77.276606 286.569542 
L 77.276606 286.255512 
L 77.408167 286.255512 
L 77.408167 285.941481 
L 78.237614 285.941481 
L 78.237614 285.627451 
L 79.215673 285.627451 
L 79.215673 285.31342 
L 88.044354 285.31342 
L 88.044354 284.99939 
L 96.826836 284.99939 
L 96.826836 284.685359 
L 108.316988 284.685359 
L 108.316988 284.371329 
L 110.395207 284.371329 
L 110.395207 284.057298 
L 113.636055 284.057298 
L 113.636055 283.743268 
L 114.866341 283.743268 
L 114.897473 283.115207 
L 116.484895 283.115207 
L 116.484895 282.801176 
L 116.616456 282.801176 
L 116.616456 282.487146 
L 117.445903 282.487146 
L 117.445903 282.173115 
L 118.423962 282.173115 
L 118.423962 281.859085 
L 135.836458 281.859085 
L 135.836458 281.545054 
L 142.656805 281.545054 
L 142.656805 281.231024 
L 146.613838 281.231024 
L 146.613838 280.916993 
L 150.441769 280.916993 
L 150.441769 280.602963 
L 154.105762 280.602963 
L 154.105762 280.288932 
L 154.741233 280.288932 
L 154.741233 279.974902 
L 156.09287 279.974902 
L 156.09287 279.660871 
L 163.523715 279.660871 
L 163.523715 279.346841 
L 165.847727 279.346841 
L 165.847727 279.03281 
L 167.157673 279.03281 
L 167.157673 278.71878 
L 169.487197 278.71878 
L 169.580721 278.090719 
L 174.630209 278.090719 
L 174.630209 277.776688 
L 175.013867 277.776688 
L 175.044747 277.148627 
L 177.092086 277.148627 
L 177.092086 276.834597 
L 180.332935 276.834597 
L 180.332935 276.520566 
L 181.563221 276.520566 
L 181.563221 276.206536 
L 182.880287 276.206536 
L 182.880287 275.892505 
L 183.181775 275.892505 
L 183.181775 275.578475 
L 183.313335 275.578475 
L 183.313335 275.264444 
L 184.142782 275.264444 
L 184.222705 274.636383 
L 185.120841 274.636383 
L 185.120841 274.322353 
L 185.578635 274.322353 
L 185.578635 274.008322 
L 185.822127 274.008322 
L 185.822127 273.694292 
L 186.120361 273.694292 
L 186.120361 273.380261 
L 186.315915 273.380261 
L 186.315915 273.066231 
L 187.428129 273.066231 
L 187.428129 272.7522 
L 188.19858 272.7522 
L 188.20522 272.124139 
L 189.541925 272.124139 
L 189.650058 271.496078 
L 190.248005 271.496078 
L 190.349617 270.868017 
L 190.963248 270.868017 
L 190.963248 270.553987 
L 191.439429 270.553987 
L 191.439429 270.239956 
L 191.662769 270.239956 
L 191.662769 269.925926 
L 192.140057 269.925926 
L 192.140057 269.611895 
L 192.669715 269.611895 
L 192.669715 269.297865 
L 192.793041 269.297865 
L 192.793041 268.983834 
L 193.005188 268.983834 
L 193.005188 268.669804 
L 193.219947 268.669804 
L 193.219947 268.355773 
L 194.138251 268.355773 
L 194.138251 268.041743 
L 194.288269 268.041743 
L 194.288269 267.727712 
L 194.419829 267.727712 
L 194.419829 267.413682 
L 194.884642 267.413682 
L 194.884642 267.099651 
L 195.098397 267.099651 
L 195.098397 266.785621 
L 195.249276 266.785621 
L 195.249276 266.47159 
L 196.227335 266.47159 
L 196.227335 266.15756 
L 200.055191 266.15756 
L 200.055191 265.843529 
L 203.152921 265.843529 
L 203.152921 265.529499 
L 203.667124 265.529499 
L 203.667124 265.215468 
L 204.49534 265.215468 
L 204.49534 264.901438 
L 205.015567 264.901438 
L 205.015567 264.587407 
L 205.23114 264.587407 
L 205.23114 264.273377 
L 205.576121 264.273377 
L 205.616613 263.645316 
L 206.573558 263.645316 
L 206.588549 263.017255 
L 206.765428 263.017255 
L 206.765428 262.703224 
L 208.471989 262.703224 
L 208.537086 262.075163 
L 208.64826 262.075163 
L 208.695486 261.133072 
L 209.702274 261.133072 
L 209.702274 260.819041 
L 209.814407 260.819041 
L 209.814407 260.505011 
L 210.647701 260.505011 
L 210.647701 260.19098 
L 210.93258 260.19098 
L 210.93258 259.87695 
L 211.044693 259.87695 
L 211.044693 259.562919 
L 211.320828 259.562919 
L 211.320828 259.248889 
L 211.452389 259.248889 
L 211.452389 258.934858 
L 211.9049 258.934858 
L 211.907617 258.306797 
L 212.281836 258.306797 
L 212.281836 257.992767 
L 212.663247 257.992767 
L 212.663247 257.678736 
L 212.794808 257.678736 
L 212.794808 257.364706 
L 213.137902 257.364706 
L 213.137902 257.050675 
L 213.259895 257.050675 
L 213.259895 256.736645 
L 213.624255 256.736645 
L 213.624255 256.422614 
L 214.307869 256.422614 
L 214.307869 256.108584 
L 214.602314 256.108584 
L 214.602314 255.794553 
L 214.756456 255.794553 
L 214.756456 255.480523 
L 214.888017 255.480523 
L 214.888017 255.166492 
L 215.157276 255.166492 
L 215.157276 254.852462 
L 215.54791 254.852462 
L 215.54791 254.538431 
L 215.717464 254.538431 
L 215.717464 254.224401 
L 216.640925 254.224401 
L 216.695523 253.59634 
L 217.235495 253.59634 
L 217.319568 252.968279 
L 217.411014 252.968279 
L 217.430743 252.340218 
L 217.583115 252.340218 
L 217.583115 252.026187 
L 218.451631 252.026187 
L 218.451631 251.712157 
L 219.052677 251.712157 
L 219.063972 251.084096 
L 219.430183 251.084096 
L 219.430183 250.770065 
L 219.715062 250.770065 
L 219.715062 250.456035 
L 220.476344 250.456035 
L 220.476344 250.142004 
L 220.62498 250.142004 
L 220.722458 249.513943 
L 220.802641 249.513943 
L 220.802641 249.199913 
L 221.013863 249.199913 
L 221.013863 248.885882 
L 221.706224 248.885882 
L 221.706629 248.257821 
L 222.195935 248.257821 
L 222.195935 247.943791 
L 223.090352 247.943791 
L 223.090352 247.62976 
L 223.325183 247.62976 
L 223.325183 247.31573 
L 223.456744 247.31573 
L 223.456744 247.001699 
L 224.286191 247.001699 
L 224.286191 246.687669 
L 224.933731 246.687669 
L 224.988282 245.745577 
L 225.26425 245.745577 
L 225.340964 244.803486 
L 225.63872 244.803486 
L 225.63872 244.489455 
L 227.038062 244.489455 
L 227.038062 244.175425 
L 228.80972 244.175425 
L 228.80972 243.861394 
L 228.920895 243.861394 
L 228.920895 243.547364 
L 229.11628 243.547364 
L 229.11628 243.233333 
L 229.516435 243.233333 
L 229.516435 242.919303 
L 230.117481 242.919303 
L 230.117481 242.605272 
L 230.488706 242.605272 
L 230.488706 242.291242 
L 230.847078 242.291242 
L 230.920335 241.34915 
L 230.999113 241.34915 
L 231.019179 240.721089 
L 231.205215 240.721089 
L 231.205215 240.407059 
L 231.909135 240.407059 
L 231.939482 239.778998 
L 232.357129 239.778998 
L 232.357129 239.464967 
L 232.540528 239.464967 
L 232.540528 239.150937 
L 232.678771 239.150937 
L 232.733322 238.208845 
L 232.998554 238.208845 
L 232.998554 237.894815 
L 233.283433 237.894815 
L 233.38376 237.266754 
L 233.587415 237.266754 
L 233.587415 236.952723 
L 234.061044 236.952723 
L 234.158522 236.010632 
L 234.239962 236.010632 
L 234.239962 235.696601 
L 234.449927 235.696601 
L 234.449927 235.382571 
L 234.580504 235.382571 
L 234.580504 235.06854 
L 235.061886 235.06854 
L 235.061886 234.75451 
L 235.205969 234.75451 
L 235.205969 234.440479 
L 235.33753 234.440479 
L 235.359074 233.812418 
L 235.470248 233.812418 
L 235.470248 233.498388 
L 235.631999 233.498388 
L 235.631999 233.184357 
L 236.166977 233.184357 
L 236.239403 232.556296 
L 236.405768 232.556296 
L 236.405768 232.242266 
L 236.524282 232.242266 
L 236.524282 231.928235 
L 236.658722 231.928235 
L 236.658722 231.614205 
L 236.91138 231.614205 
L 236.977627 230.986144 
L 237.088802 230.986144 
L 237.145036 230.044052 
L 237.220363 230.044052 
L 237.220363 229.730022 
L 237.469689 229.730022 
L 237.469689 229.415991 
L 237.688472 229.415991 
L 237.754568 228.78793 
L 237.938635 228.78793 
L 237.938635 228.4739 
L 238.04981 228.4739 
L 238.04981 228.159869 
L 238.705481 228.159869 
L 238.705481 227.845839 
L 238.828816 227.845839 
L 238.916694 227.217778 
L 239.025176 227.217778 
L 239.088243 226.275686 
L 239.219803 226.275686 
L 239.219803 225.961656 
L 239.373122 225.961656 
L 239.373122 225.647625 
L 239.504683 225.647625 
L 239.504683 225.333595 
L 239.635317 225.333595 
L 239.731257 224.705534 
L 239.832868 224.705534 
L 239.934667 223.135381 
L 239.982103 223.135381 
L 240.04925 221.879259 
L 240.334129 221.879259 
L 240.367568 221.251198 
L 240.446499 221.251198 
L 240.446499 220.937168 
L 240.585105 220.937168 
L 240.687092 219.995076 
L 240.704209 219.995076 
L 240.704209 219.367015 
L 241.027309 219.367015 
L 241.129857 218.738954 
L 241.312188 218.738954 
L 241.354647 218.110893 
L 241.640092 218.110893 
L 241.745391 216.540741 
L 241.799942 216.540741 
L 241.903717 215.598649 
L 241.911882 215.598649 
L 241.978858 214.342527 
L 242.083983 214.342527 
L 242.083983 214.028497 
L 242.276292 214.028497 
L 242.381444 213.086405 
L 242.434781 213.086405 
L 242.489332 211.202222 
L 242.608707 211.202222 
L 242.703199 210.574161 
L 242.748411 210.574161 
L 242.748411 210.260131 
L 242.863347 210.260131 
L 242.971704 208.061917 
L 243.086433 208.061917 
L 243.187453 205.549673 
L 243.566952 205.549673 
L 243.622142 203.66549 
L 243.709419 203.66549 
L 243.709419 203.35146 
L 243.837891 203.35146 
L 243.837891 202.723399 
L 244.057077 202.723399 
L 244.057077 202.409368 
L 244.271941 202.409368 
L 244.334929 201.781307 
L 244.507031 201.781307 
L 244.507031 201.467277 
L 244.687478 201.467277 
L 244.687478 201.153246 
L 245.125848 201.153246 
L 245.223326 200.525185 
L 245.514731 200.525185 
L 245.514731 200.211155 
L 246.224966 200.211155 
L 246.289628 199.583094 
L 246.515348 199.583094 
L 246.515348 199.269063 
L 246.696803 199.269063 
L 246.696803 198.955033 
L 247.297926 198.955033 
L 247.297926 198.641002 
L 247.548895 198.641002 
L 247.646373 198.012941 
L 247.937396 198.012941 
L 247.937778 197.38488 
L 248.528211 197.38488 
L 248.538442 196.756819 
L 248.941695 196.756819 
L 248.941695 196.442789 
L 249.119851 196.442789 
L 249.119851 196.128758 
L 249.538443 196.128758 
L 249.538443 195.814728 
L 249.770285 195.814728 
L 249.78689 195.186667 
L 250.146765 195.186667 
L 250.146765 194.872636 
L 250.278326 194.872636 
L 250.387937 193.930545 
L 250.563981 193.930545 
L 250.563981 193.616514 
L 251.107773 193.616514 
L 251.165028 192.988453 
L 251.900686 192.988453 
L 251.900686 192.674423 
L 252.085832 192.674423 
L 252.193333 192.046362 
L 252.377323 192.046362 
L 252.377323 191.732331 
L 252.501732 191.732331 
L 252.606767 190.79024 
L 252.708378 190.79024 
L 252.708378 190.476209 
L 252.848121 190.476209 
L 252.848121 190.162179 
L 253.071381 190.162179 
L 253.071381 189.848148 
L 253.207813 189.848148 
L 253.309424 189.220087 
L 253.322009 189.220087 
L 253.342965 188.592026 
L 253.635573 188.592026 
L 253.66799 187.963965 
L 253.803632 187.963965 
L 253.803632 187.649935 
L 253.923056 187.649935 
L 253.923056 187.335904 
L 254.223547 187.335904 
L 254.223547 187.021874 
L 254.472264 187.021874 
L 254.472264 186.707843 
L 254.82673 186.707843 
L 254.82673 186.393813 
L 255.151802 186.393813 
L 255.151802 186.079782 
L 255.578708 186.079782 
L 255.578708 185.765752 
L 255.752849 185.765752 
L 255.752849 185.451721 
L 256.179755 185.451721 
L 256.179755 185.137691 
L 256.346937 185.137691 
L 256.346937 184.82366 
L 256.497013 184.82366 
L 256.497013 184.50963 
L 256.676224 184.50963 
L 256.676224 184.195599 
L 257.098059 184.195599 
L 257.098059 183.881569 
L 257.453315 183.881569 
L 257.453315 183.567538 
L 258.790019 183.567538 
L 258.790019 183.253508 
L 259.4961 183.253508 
L 259.597711 182.625447 
L 260.211343 182.625447 
L 260.211343 182.311416 
L 260.332843 182.311416 
L 260.332843 181.997386 
L 260.504944 181.997386 
L 260.504944 181.683355 
L 260.94605 181.683355 
L 260.94605 181.369325 
L 261.088005 181.369325 
L 261.088005 181.055294 
L 261.380613 181.055294 
L 261.413029 180.427233 
L 261.734155 180.427233 
L 261.798816 179.799172 
L 262.024536 179.799172 
L 262.041136 179.171111 
L 262.182337 179.171111 
L 262.217304 178.54305 
L 262.354439 178.54305 
L 262.413953 177.914989 
L 262.468042 177.914989 
L 262.468042 177.600959 
L 262.959429 177.600959 
L 263.014999 176.972898 
L 263.13153 176.972898 
L 263.13153 176.658867 
L 263.281916 176.658867 
L 263.386346 175.716776 
L 263.546809 175.716776 
L 263.644287 174.460654 
L 263.935692 174.460654 
L 263.935692 174.146623 
L 264.136185 174.146623 
L 264.136185 173.832593 
L 264.296133 173.832593 
L 264.296133 173.518562 
L 264.468234 173.518562 
L 264.468234 173.204532 
L 264.735673 173.204532 
L 264.828086 172.576471 
L 264.868436 172.576471 
L 264.966415 171.94841 
L 265.002214 171.94841 
L 265.103825 171.320349 
L 265.117765 171.320349 
L 265.219119 170.064227 
L 265.272707 170.064227 
L 265.275926 169.436166 
L 265.396303 169.436166 
L 265.498427 168.180044 
L 265.717456 168.180044 
L 265.785187 167.551983 
L 265.889558 167.551983 
L 265.889558 167.237952 
L 266.173394 167.237952 
L 266.270873 166.609891 
L 266.559232 166.609891 
L 266.562278 165.98183 
L 266.689179 165.98183 
L 266.689179 165.6678 
L 266.967259 165.6678 
L 266.967259 165.353769 
L 267.291484 165.353769 
L 267.291484 165.039739 
L 267.453431 165.039739 
L 267.547249 164.097647 
L 267.607577 164.097647 
L 267.659611 163.469586 
L 267.719351 163.469586 
L 267.74435 162.841525 
L 267.898982 162.841525 
L 267.974156 162.213464 
L 268.146257 162.213464 
L 268.21618 161.271373 
L 268.28935 161.271373 
L 268.391337 160.015251 
L 268.415269 160.015251 
L 268.415269 159.70122 
L 268.581958 159.70122 
L 268.683945 158.445098 
L 268.706674 158.445098 
L 268.716361 157.817037 
L 268.89246 157.817037 
L 268.931422 157.188976 
L 269.028901 157.188976 
L 269.081055 155.932854 
L 269.303286 155.932854 
L 269.383916 154.676732 
L 269.418649 154.676732 
L 269.520636 152.792549 
L 269.719795 152.792549 
L 269.787135 151.850458 
L 269.88068 151.850458 
L 269.888746 151.222397 
L 270.040741 151.222397 
L 270.049326 150.594336 
L 270.154625 150.594336 
L 270.188191 149.966275 
L 270.312951 149.966275 
L 270.37435 148.710153 
L 270.431049 148.710153 
L 270.536147 146.511939 
L 270.588771 146.511939 
L 270.656769 145.255817 
L 270.761215 145.255817 
L 270.858694 143.057603 
L 271.083286 143.057603 
L 271.188121 140.85939 
L 271.201802 140.85939 
L 271.2856 138.975207 
L 271.319563 138.975207 
L 271.384225 137.719085 
L 271.44225 137.719085 
L 271.542136 136.462963 
L 271.556556 136.462963 
L 271.651948 133.322658 
L 271.69474 133.322658 
L 271.759402 132.694597 
L 271.824019 132.694597 
L 271.920977 129.868322 
L 271.973314 129.868322 
L 271.985122 128.926231 
L 272.106426 128.926231 
L 272.203904 127.670109 
L 272.268794 127.670109 
L 272.332171 126.728017 
L 272.40188 126.728017 
L 272.495309 125.785926 
L 272.644555 125.785926 
L 272.671435 124.843834 
L 272.759077 124.843834 
L 272.860617 123.901743 
L 272.962228 123.901743 
L 272.962228 123.587712 
L 273.105485 123.587712 
L 273.215793 122.959651 
L 273.316308 122.959651 
L 273.316308 122.645621 
L 273.57586 122.645621 
L 273.677381 122.01756 
L 274.598494 122.01756 
L 274.598494 121.703529 
L 274.709668 121.703529 
L 274.8094 120.761438 
L 274.981501 120.761438 
L 274.981501 120.447407 
L 275.392365 120.447407 
L 275.405653 119.819346 
L 275.832559 119.819346 
L 275.832559 119.505316 
L 276.709109 119.505316 
L 276.750863 118.877255 
L 276.993988 118.877255 
L 276.993988 118.563224 
L 278.023366 118.563224 
L 278.120844 117.935163 
L 278.412249 117.935163 
L 278.412249 117.621133 
L 278.724415 117.621133 
L 278.724415 117.307102 
L 278.946842 117.307102 
L 278.946842 116.993072 
L 279.248017 116.993072 
L 279.248017 116.679041 
L 279.513932 116.679041 
L 279.594321 116.05098 
L 279.725744 116.05098 
L 279.725744 115.422919 
L 280.244862 115.422919 
L 280.337274 114.794858 
L 280.369277 114.794858 
L 280.475603 113.852767 
L 280.65806 113.852767 
L 280.728308 113.224706 
L 280.957038 113.224706 
L 280.960833 112.596645 
L 281.147462 112.596645 
L 281.147462 112.282614 
L 281.792623 112.282614 
L 281.885035 111.340523 
L 282.000478 111.340523 
L 282.023364 110.712462 
L 282.198368 110.712462 
L 282.276069 110.084401 
L 282.504799 110.084401 
L 282.557146 109.45634 
L 282.667803 109.45634 
L 282.667803 109.142309 
L 283.289397 109.142309 
L 283.289397 108.828279 
L 283.718753 108.828279 
L 283.811165 107.886187 
L 283.949494 107.886187 
L 283.949494 107.572157 
L 284.093688 107.572157 
L 284.202199 106.944096 
L 284.40664 106.944096 
L 284.485991 106.002004 
L 285.138892 106.002004 
L 285.183732 105.373943 
L 285.672259 105.373943 
L 285.672259 105.059913 
L 285.82841 105.059913 
L 285.915983 104.431852 
L 286.148187 104.431852 
L 286.250174 103.803791 
L 286.306272 103.803791 
L 286.306272 103.17573 
L 286.498859 103.17573 
L 286.520436 102.547669 
L 286.917729 102.547669 
L 286.965594 101.919608 
L 287.226517 101.919608 
L 287.328128 100.977516 
L 287.59094 100.977516 
L 287.692927 100.035425 
L 287.767632 100.035425 
L 287.767632 99.721394 
L 287.908163 99.721394 
L 288.013462 97.523181 
L 288.032533 97.523181 
L 288.060379 96.581089 
L 288.162178 96.581089 
L 288.264165 95.010937 
L 288.360482 95.010937 
L 288.423566 94.068845 
L 288.649515 94.068845 
L 288.702852 92.498693 
L 288.877094 92.498693 
L 288.982193 91.242571 
L 289.034817 91.242571 
L 289.131418 89.672418 
L 289.185224 89.672418 
L 289.265558 88.730327 
L 289.350916 88.730327 
L 289.456215 87.160174 
L 289.465638 87.160174 
L 289.518263 86.532113 
L 289.589271 86.532113 
L 289.694369 85.590022 
L 289.746993 85.590022 
L 289.835023 84.019869 
L 289.869294 84.019869 
L 289.922683 82.449717 
L 290.007623 82.449717 
L 290.097993 80.565534 
L 290.136757 80.565534 
L 290.221883 78.36732 
L 290.260328 78.36732 
L 290.367022 76.483137 
L 290.436189 76.483137 
L 290.542447 74.598954 
L 290.574171 74.598954 
L 290.663506 72.714771 
L 290.688893 72.714771 
L 290.756521 71.77268 
L 290.81017 71.77268 
L 290.917624 69.888497 
L 290.93071 69.888497 
L 290.988323 68.946405 
L 291.079199 68.946405 
L 291.145409 68.004314 
L 291.199215 68.004314 
L 291.277776 67.376253 
L 291.414965 67.376253 
L 291.414965 66.748192 
L 291.730388 66.748192 
L 291.783777 65.8061 
L 291.849014 65.8061 
L 291.849014 65.178039 
L 291.997851 65.178039 
L 292.051499 64.549978 
L 292.158953 64.549978 
L 292.158953 64.235948 
L 292.320528 64.235948 
L 292.320528 63.921917 
L 292.662415 63.921917 
L 292.662415 63.607887 
L 293.695774 63.607887 
L 293.765821 62.979826 
L 294.051312 62.979826 
L 294.051312 62.351765 
L 294.710634 62.351765 
L 294.757206 61.723704 
L 295.02312 61.723704 
L 295.02312 61.409673 
L 295.234932 61.409673 
L 295.344655 60.467582 
L 295.53748 60.467582 
L 295.53748 60.153551 
L 295.648654 60.153551 
L 295.648654 59.839521 
L 296.304967 59.839521 
L 296.304967 59.52549 
L 296.490346 59.52549 
L 296.570881 58.897429 
L 296.782693 58.897429 
L 296.782693 58.269368 
L 297.033703 58.269368 
L 297.033703 57.955338 
L 297.145376 57.955338 
L 297.145376 57.641307 
L 297.648095 57.641307 
L 297.648095 57.327277 
L 297.765954 57.327277 
L 297.765954 57.013246 
L 297.917141 57.013246 
L 297.932974 56.071155 
L 298.231097 56.071155 
L 298.231097 55.757124 
L 298.497011 55.757124 
L 298.497011 55.443094 
L 298.708823 55.443094 
L 298.708823 54.815033 
L 298.854115 54.815033 
L 298.959214 54.186972 
L 298.99487 54.186972 
L 299.011838 53.558911 
L 299.753903 53.558911 
L 299.807292 52.616819 
L 300.021366 52.616819 
L 300.075014 51.988758 
L 300.182468 51.988758 
L 300.182468 51.674728 
L 300.344044 51.674728 
L 300.344044 51.360697 
L 301.108666 51.360697 
L 301.108666 51.046667 
L 301.252657 51.046667 
L 301.354644 49.476514 
L 301.814747 49.476514 
L 301.916358 48.534423 
L 302.013966 48.534423 
L 302.022199 47.592331 
L 302.452464 47.592331 
L 302.546 46.336209 
L 302.647987 46.336209 
L 302.718379 45.080087 
L 302.93019 45.080087 
L 303.012633 43.195904 
L 303.117932 43.195904 
L 303.117932 42.567843 
L 303.276259 42.567843 
L 303.315542 41.625752 
L 303.389438 41.625752 
L 303.494536 40.997691 
L 303.531419 40.997691 
L 303.547161 40.36963 
L 303.655353 40.36963 
L 303.760451 38.799477 
L 303.777254 38.799477 
L 303.867165 36.915294 
L 303.935581 36.915294 
L 304.024887 35.345142 
L 304.235888 35.345142 
L 304.342614 33.146928 
L 304.359782 33.146928 
L 304.466644 31.890806 
L 304.505444 31.890806 
L 304.610337 28.750501 
L 304.717791 28.750501 
L 304.822603 26.552288 
L 304.873837 26.552288 
L 304.983706 24.040044 
L 305.034415 24.040044 
L 305.145281 21.84183 
L 305.164766 21.84183 
L 305.195518 20.585708 
L 305.357093 20.585708 
L 305.357093 19.957647 
L 305.529231 19.957647 
L 305.598815 19.015556 
L 305.704993 19.015556 
L 305.798786 18.073464 
L 306.104178 18.073464 
L 306.104178 17.759434 
L 306.232836 17.759434 
L 306.314859 17.131373 
L 306.426033 17.131373 
L 306.426033 16.817342 
L 306.967047 16.817342 
L 306.967047 16.503312 
L 307.651939 16.503312 
L 307.651939 16.189281 
L 308.371132 16.189281 
L 308.425474 15.56122 
L 308.706617 15.56122 
L 308.710353 14.933159 
L 309.578069 14.933159 
L 309.578069 14.619129 
L 310.14279 14.619129 
L 310.14279 14.305098 
L 310.253965 14.305098 
L 310.253965 13.991068 
L 311.621933 13.991068 
L 311.621933 13.677037 
L 312.085642 13.677037 
L 312.085642 13.363007 
L 312.253405 13.363007 
L 312.253405 13.048976 
L 312.538284 13.048976 
L 312.538284 12.734946 
L 313.799436 12.734946 
L 313.799436 12.106885 
L 314.736411 12.106885 
L 314.841509 11.478824 
L 314.894133 11.478824 
L 314.894133 11.164793 
L 315.535774 11.164793 
L 315.636198 10.536732 
L 315.689587 10.536732 
L 315.689587 10.222702 
L 315.903661 10.222702 
L 315.957309 9.28061 
L 316.064764 9.28061 
L 316.064764 8.96658 
L 316.226339 8.96658 
L 316.226339 8.652549 
L 319.483997 8.652549 
L 319.483997 8.338519 
L 323.311928 8.338519 
L 323.311928 8.024488 
L 327.41656 8.024488 
L 327.41656 7.710458 
L 329.188218 7.710458 
L 329.188218 7.396427 
L 329.299392 7.396427 
L 329.299392 7.082397 
L 331.298833 7.082397 
L 331.298833 6.768366 
L 331.583712 6.768366 
L 331.583712 6.454336 
L 334.959001 6.454336 
L 334.959001 6.140305 
L 342.357356 6.140305 
L 342.357356 5.826275 
L 453.192 5.826275 
L 453.192 5.826275 
" clip-path="url(#pfa62e8570c)" style="fill: none; stroke: #000000; stroke-width: 3; stroke-linecap: square"/>
   </g>
   <g id="line2d_44">
    <path clip-path="url(#pfa62e8570c)" style="fill: none; stroke: #000000; stroke-width: 3; stroke-linecap: square"/>
   </g>
   <g id="line2d_45">
    <path d="M 34.16 288.453725 
L 193.773684 288.453725 
L 193.773684 288.139695 
L 195.061751 288.139695 
L 195.061751 287.825664 
L 195.953452 287.825664 
L 195.953452 287.511634 
L 197.564951 287.511634 
L 197.564951 287.197603 
L 197.848538 287.197603 
L 197.848538 286.883573 
L 200.363875 286.883573 
L 200.363875 286.569542 
L 201.374485 286.569542 
L 201.374485 286.255512 
L 201.636357 286.255512 
L 201.636357 285.941481 
L 201.905913 285.941481 
L 201.905913 285.627451 
L 202.332079 285.627451 
L 202.332079 285.31342 
L 202.543644 285.31342 
L 202.543644 284.99939 
L 203.234266 284.99939 
L 203.234266 284.685359 
L 204.155143 284.685359 
L 204.155143 284.371329 
L 204.605373 284.371329 
L 204.605373 284.057298 
L 205.211013 284.057298 
L 205.288828 283.429237 
L 205.398377 283.429237 
L 205.398377 283.115207 
L 206.018761 283.115207 
L 206.018761 282.801176 
L 206.31068 282.801176 
L 206.31068 282.487146 
L 206.785141 282.487146 
L 206.785141 282.173115 
L 206.96968 282.173115 
L 206.96968 281.859085 
L 207.390782 281.859085 
L 207.390782 281.545054 
L 207.964677 281.545054 
L 207.964677 281.231024 
L 208.226549 281.231024 
L 208.226549 280.916993 
L 208.391346 280.916993 
L 208.496104 279.974902 
L 209.002281 279.974902 
L 209.002281 279.660871 
L 209.679474 279.660871 
L 209.679474 279.346841 
L 209.824458 279.346841 
L 209.824458 279.03281 
L 210.367243 279.03281 
L 210.367243 278.71878 
L 210.551479 278.71878 
L 210.551479 278.404749 
L 211.324576 278.404749 
L 211.324576 278.090719 
L 211.648916 278.090719 
L 211.648916 277.776688 
L 211.848223 277.776688 
L 211.95126 277.148627 
L 211.988569 277.148627 
L 211.988569 276.834597 
L 212.206174 276.834597 
L 212.271926 275.892505 
L 212.468046 275.892505 
L 212.534018 275.264444 
L 212.591312 275.264444 
L 212.634968 274.322353 
L 212.737602 274.322353 
L 212.836363 273.380261 
L 212.894865 273.380261 
L 212.975515 272.43817 
L 213.073687 272.43817 
L 213.073687 272.124139 
L 213.294926 272.124139 
L 213.343243 271.496078 
L 213.451163 271.496078 
L 213.559872 270.868017 
L 213.82037 270.868017 
L 213.840506 270.239956 
L 214.065955 270.239956 
L 214.138932 269.611895 
L 214.180029 269.611895 
L 214.249735 268.983834 
L 214.323168 268.983834 
L 214.323168 268.669804 
L 214.490013 268.669804 
L 214.589387 267.099651 
L 214.671596 267.099651 
L 214.771081 265.529499 
L 214.876419 265.529499 
L 214.981537 264.901438 
L 215.058713 264.901438 
L 215.058713 264.587407 
L 215.421755 264.587407 
L 215.421755 264.273377 
L 215.850377 264.273377 
L 215.850377 263.959346 
L 215.975092 263.959346 
L 216.000001 263.331285 
L 216.108277 263.331285 
L 216.108277 263.017255 
L 216.220085 263.017255 
L 216.230066 262.389194 
L 216.38258 262.389194 
L 216.38258 262.075163 
L 216.516362 262.075163 
L 216.516362 261.761133 
L 216.669782 261.761133 
L 216.73548 261.133072 
L 216.835707 261.133072 
L 216.885104 259.87695 
L 217.142369 259.87695 
L 217.177897 259.248889 
L 217.456091 259.248889 
L 217.487679 258.620828 
L 217.59542 258.620828 
L 217.59542 258.306797 
L 217.74801 258.306797 
L 217.801369 257.678736 
L 217.961553 257.678736 
L 217.961553 257.364706 
L 218.110635 257.364706 
L 218.221321 256.736645 
L 218.281281 256.736645 
L 218.361076 256.108584 
L 218.40701 256.108584 
L 218.493867 254.538431 
L 218.730283 254.538431 
L 218.775536 253.59634 
L 218.863074 253.59634 
L 218.92516 252.340218 
L 219.161651 252.340218 
L 219.223035 251.398126 
L 219.303149 251.398126 
L 219.399625 250.456035 
L 219.542255 250.456035 
L 219.550974 249.827974 
L 219.700938 249.827974 
L 219.700938 249.513943 
L 219.828676 249.513943 
L 219.905297 248.885882 
L 220.003282 248.885882 
L 220.066333 248.257821 
L 220.192114 248.257821 
L 220.290403 247.31573 
L 220.433321 247.31573 
L 220.520578 246.373638 
L 220.616035 246.373638 
L 220.723542 245.745577 
L 220.75766 245.745577 
L 220.75766 245.431547 
L 221.060004 245.431547 
L 221.060004 245.117516 
L 221.346948 245.117516 
L 221.346948 244.803486 
L 221.495942 244.803486 
L 221.495942 244.489455 
L 221.786721 244.489455 
L 221.786721 244.175425 
L 221.901902 244.175425 
L 221.941681 243.547364 
L 222.051895 243.547364 
L 222.106389 242.605272 
L 222.227534 242.605272 
L 222.227534 242.291242 
L 222.352686 242.291242 
L 222.40367 241.663181 
L 222.499003 241.663181 
L 222.595307 241.03512 
L 222.622242 241.03512 
L 222.679912 240.093028 
L 222.857491 240.093028 
L 222.93334 239.150937 
L 223.285553 239.150937 
L 223.322683 238.208845 
L 223.421453 238.208845 
L 223.523699 237.266754 
L 223.624691 237.266754 
L 223.682036 236.638693 
L 223.78669 236.638693 
L 223.823997 236.010632 
L 223.902399 236.010632 
L 223.950595 235.382571 
L 224.027114 235.382571 
L 224.052023 234.75451 
L 224.157218 234.75451 
L 224.216006 234.126449 
L 224.282729 234.126449 
L 224.306556 233.498388 
L 224.567138 233.498388 
L 224.567138 233.184357 
L 224.71188 233.184357 
L 224.758008 232.556296 
L 224.83639 232.556296 
L 224.882061 231.928235 
L 224.959121 231.928235 
L 224.959121 231.614205 
L 225.083836 231.614205 
L 225.128309 230.358083 
L 225.54119 230.358083 
L 225.647442 229.730022 
L 225.692533 229.730022 
L 225.787309 228.159869 
L 225.80446 228.159869 
L 225.885823 227.531808 
L 225.973308 227.531808 
L 226.037068 226.275686 
L 226.114706 226.275686 
L 226.114706 225.961656 
L 226.242864 225.961656 
L 226.346612 224.705534 
L 226.366996 224.705534 
L 226.366996 224.391503 
L 226.568495 224.391503 
L 226.629179 223.449412 
L 226.698421 223.449412 
L 226.756339 221.565229 
L 226.910486 221.565229 
L 227.018523 220.623137 
L 227.02701 220.623137 
L 227.02701 220.309107 
L 227.208975 220.309107 
L 227.304032 218.738954 
L 227.415959 218.738954 
L 227.415959 218.424924 
L 227.571217 218.424924 
L 227.664594 217.482832 
L 227.684731 217.482832 
L 227.714756 216.540741 
L 227.80722 216.540741 
L 227.904987 215.598649 
L 227.948485 215.598649 
L 227.948485 215.284619 
L 228.065592 215.284619 
L 228.065592 214.970588 
L 228.249124 214.970588 
L 228.327977 214.028497 
L 228.362682 214.028497 
L 228.362682 213.714466 
L 228.531873 213.714466 
L 228.531873 213.400436 
L 228.76627 213.400436 
L 228.76627 213.086405 
L 228.887024 213.086405 
L 228.950542 212.458344 
L 229.107675 212.458344 
L 229.211363 211.830283 
L 229.348931 211.830283 
L 229.348931 211.516253 
L 229.513708 211.516253 
L 229.606634 210.888192 
L 229.677091 210.888192 
L 229.735328 209.63207 
L 229.838743 209.63207 
L 229.838743 209.318039 
L 230.060959 209.318039 
L 230.10504 208.689978 
L 230.18569 208.689978 
L 230.275018 207.747887 
L 230.355712 207.747887 
L 230.46023 206.177734 
L 230.468083 206.177734 
L 230.569351 204.921612 
L 230.647631 204.921612 
L 230.681343 203.979521 
L 230.824555 203.979521 
L 230.895465 202.095338 
L 230.962788 202.095338 
L 230.973263 201.467277 
L 231.113566 201.467277 
L 231.147023 200.839216 
L 231.225493 200.839216 
L 231.306631 200.211155 
L 231.375438 200.211155 
L 231.473475 199.269063 
L 231.487365 199.269063 
L 231.487365 198.955033 
L 231.632263 198.955033 
L 231.734058 197.38488 
L 231.75692 197.38488 
L 231.758019 196.756819 
L 231.956226 196.756819 
L 232.040392 195.814728 
L 232.27409 195.814728 
L 232.289447 195.186667 
L 232.388529 195.186667 
L 232.393421 194.558606 
L 232.530197 194.558606 
L 232.564552 193.930545 
L 232.728297 193.930545 
L 232.811519 192.674423 
L 232.934083 192.674423 
L 232.973347 192.046362 
L 233.053316 192.046362 
L 233.085274 191.10427 
L 233.172095 191.10427 
L 233.190907 190.476209 
L 233.284579 190.476209 
L 233.379011 189.534118 
L 233.412825 189.534118 
L 233.505587 188.592026 
L 233.53754 188.592026 
L 233.6178 187.649935 
L 233.681494 187.649935 
L 233.748497 187.021874 
L 233.805994 187.021874 
L 233.894931 186.079782 
L 233.990805 186.079782 
L 234.077405 185.137691 
L 234.160666 185.137691 
L 234.231919 184.50963 
L 234.349476 184.50963 
L 234.430126 183.567538 
L 234.529873 183.567538 
L 234.621263 181.683355 
L 234.664815 181.683355 
L 234.751115 180.741264 
L 234.952874 180.741264 
L 234.985587 179.799172 
L 235.134127 179.799172 
L 235.184931 178.22902 
L 235.249385 178.22902 
L 235.346405 176.658867 
L 235.401443 176.658867 
L 235.448691 175.716776 
L 235.53477 175.716776 
L 235.53477 175.402745 
L 235.676169 175.402745 
L 235.781911 174.146623 
L 235.794539 174.146623 
L 235.869769 173.204532 
L 235.958882 173.204532 
L 236.069075 171.94841 
L 236.108062 171.94841 
L 236.185174 170.378257 
L 236.250027 170.378257 
L 236.360994 169.436166 
L 236.363938 169.436166 
L 236.444218 167.866013 
L 236.510806 167.866013 
L 236.609801 166.295861 
L 236.694214 166.295861 
L 236.761149 164.411678 
L 236.820688 164.411678 
L 236.876962 163.469586 
L 236.972843 163.469586 
L 237.044527 162.527495 
L 237.124191 162.527495 
L 237.228763 161.899434 
L 237.244879 161.899434 
L 237.353214 161.271373 
L 237.400953 161.271373 
L 237.510516 160.329281 
L 237.562887 160.329281 
L 237.562887 160.015251 
L 237.690161 160.015251 
L 237.709706 159.38719 
L 238.0145 159.38719 
L 238.090228 158.445098 
L 238.130426 158.445098 
L 238.220377 157.503007 
L 238.242353 157.503007 
L 238.316845 156.874946 
L 238.42282 156.874946 
L 238.474348 155.618824 
L 238.534205 155.618824 
L 238.632508 154.990763 
L 238.736221 154.990763 
L 238.77488 154.362702 
L 239.005776 154.362702 
L 239.08182 153.734641 
L 239.179523 153.734641 
L 239.194371 153.10658 
L 239.329056 153.10658 
L 239.416164 151.850458 
L 239.603825 151.850458 
L 239.675932 150.908366 
L 239.757195 150.908366 
L 239.833711 149.966275 
L 239.873817 149.966275 
L 239.873817 149.652244 
L 240.334129 149.652244 
L 240.442423 148.710153 
L 240.461235 148.710153 
L 240.503485 147.454031 
L 240.586082 147.454031 
L 240.64725 146.197908 
L 240.718873 146.197908 
L 240.795304 143.371634 
L 240.854236 143.371634 
L 240.925453 142.429542 
L 240.9839 142.429542 
L 241.005584 141.801481 
L 241.097319 141.801481 
L 241.097319 141.487451 
L 241.244483 141.487451 
L 241.266671 140.85939 
L 241.399462 140.85939 
L 241.467023 139.917298 
L 241.587304 139.917298 
L 241.599813 139.289237 
L 241.699231 139.289237 
L 241.699231 138.975207 
L 241.825554 138.975207 
L 241.898537 138.347146 
L 241.976902 138.347146 
L 241.976902 138.033115 
L 242.215962 138.033115 
L 242.277501 137.091024 
L 242.340677 137.091024 
L 242.444508 135.206841 
L 242.49824 135.206841 
L 242.601841 133.636688 
L 242.613179 133.636688 
L 242.65801 133.008627 
L 242.866786 133.008627 
L 242.972643 131.438475 
L 243.031964 131.438475 
L 243.118624 130.810414 
L 243.173084 130.810414 
L 243.190851 130.182353 
L 243.335685 130.182353 
L 243.417983 128.6122 
L 243.453035 128.6122 
L 243.541571 127.042048 
L 243.587831 127.042048 
L 243.612088 126.413987 
L 243.860854 126.413987 
L 243.964716 125.157865 
L 243.976532 125.157865 
L 244.069544 124.215773 
L 244.106681 124.215773 
L 244.19792 123.273682 
L 244.218624 123.273682 
L 244.247851 122.645621 
L 244.382156 122.645621 
L 244.40286 121.703529 
L 244.513903 121.703529 
L 244.513903 121.389499 
L 244.655512 121.389499 
L 244.655512 121.075468 
L 244.876946 121.075468 
L 244.876946 120.761438 
L 244.996436 120.761438 
L 244.996436 120.447407 
L 245.121151 120.447407 
L 245.158346 119.505316 
L 245.363334 119.505316 
L 245.363334 119.191285 
L 245.491209 119.191285 
L 245.546815 118.563224 
L 245.833816 118.563224 
L 245.838934 117.935163 
L 245.985165 117.935163 
L 246.039286 117.307102 
L 246.164726 117.307102 
L 246.164726 116.993072 
L 246.278632 116.993072 
L 246.323663 116.365011 
L 246.570207 116.365011 
L 246.662168 114.794858 
L 246.712172 114.794858 
L 246.803302 113.538736 
L 246.911379 113.538736 
L 246.952926 112.596645 
L 247.180311 112.596645 
L 247.234346 111.654553 
L 247.293965 111.654553 
L 247.349938 111.026492 
L 247.439748 111.026492 
L 247.534173 110.084401 
L 247.657336 110.084401 
L 247.657336 109.77037 
L 248.018002 109.77037 
L 248.082998 108.828279 
L 248.152306 108.828279 
L 248.216755 107.258126 
L 248.277771 107.258126 
L 248.346904 106.316035 
L 248.420064 106.316035 
L 248.497354 104.431852 
L 248.548345 104.431852 
L 248.607487 102.861699 
L 248.700761 102.861699 
L 248.758339 102.233638 
L 248.854185 102.233638 
L 248.948087 101.605577 
L 249.079011 101.605577 
L 249.079011 101.291547 
L 249.272591 101.291547 
L 249.272591 100.977516 
L 249.456075 100.977516 
L 249.534774 99.721394 
L 249.607423 99.721394 
L 249.677363 98.779303 
L 249.729656 98.779303 
L 249.807512 97.20915 
L 249.846875 97.20915 
L 249.879065 96.581089 
L 250.030413 96.581089 
L 250.134155 95.638998 
L 250.200982 95.638998 
L 250.200982 95.324967 
L 250.329442 95.324967 
L 250.406849 94.382876 
L 250.478102 94.382876 
L 250.478102 94.068845 
L 250.59767 94.068845 
L 250.684948 93.126754 
L 250.808869 93.126754 
L 250.842427 91.870632 
L 250.93278 91.870632 
L 251.024021 89.986449 
L 251.055775 89.986449 
L 251.104671 89.044357 
L 251.247646 89.044357 
L 251.284142 88.416296 
L 251.372717 88.416296 
L 251.420099 87.474205 
L 251.556953 87.474205 
L 251.572081 86.846144 
L 251.680762 86.846144 
L 251.72278 85.904052 
L 251.792689 85.904052 
L 251.792689 85.590022 
L 251.991995 85.590022 
L 251.991995 85.275991 
L 252.196659 85.275991 
L 252.196659 84.961961 
L 252.320085 84.961961 
L 252.390968 84.019869 
L 252.506436 84.019869 
L 252.567512 83.391808 
L 252.655261 83.391808 
L 252.766204 81.821656 
L 252.803623 81.821656 
L 252.828094 81.193595 
L 252.992328 81.193595 
L 253.025265 79.623442 
L 253.19209 79.623442 
L 253.19209 79.309412 
L 253.318182 79.309412 
L 253.384457 78.05329 
L 253.576056 78.05329 
L 253.620527 77.425229 
L 253.737919 77.425229 
L 253.737919 77.111198 
L 253.944508 77.111198 
L 254.05382 76.169107 
L 254.095857 76.169107 
L 254.144233 75.227015 
L 254.21862 75.227015 
L 254.274382 74.284924 
L 254.350584 74.284924 
L 254.374378 73.656863 
L 254.634961 73.656863 
L 254.674924 73.028802 
L 254.964193 73.028802 
L 254.977268 72.400741 
L 255.171442 72.400741 
L 255.260605 71.77268 
L 255.288241 71.77268 
L 255.309834 70.830588 
L 255.594861 70.830588 
L 255.594861 70.516558 
L 255.714516 70.516558 
L 255.818917 68.946405 
L 255.834986 68.946405 
L 255.834986 68.632375 
L 256.071897 68.632375 
L 256.144345 67.376253 
L 256.231922 67.376253 
L 256.331665 66.120131 
L 256.350477 66.120131 
L 256.456925 63.607887 
L 256.611533 63.607887 
L 256.708871 62.665795 
L 256.821249 62.665795 
L 256.821249 62.351765 
L 256.978308 62.351765 
L 257.06626 61.409673 
L 257.124443 61.409673 
L 257.229998 60.467582 
L 257.266612 60.467582 
L 257.375079 58.583399 
L 257.493649 58.583399 
L 257.528781 56.699216 
L 257.644359 56.699216 
L 257.70219 55.129063 
L 257.783167 55.129063 
L 257.867998 54.501002 
L 258.101763 54.501002 
L 258.101763 54.186972 
L 258.21369 54.186972 
L 258.266582 53.558911 
L 258.412996 53.558911 
L 258.49499 52.93085 
L 258.724431 52.93085 
L 258.746216 52.302789 
L 258.876385 52.302789 
L 258.876385 51.988758 
L 259.0011 51.988758 
L 259.041544 51.046667 
L 259.264686 51.046667 
L 259.264686 50.732636 
L 259.578001 50.732636 
L 259.578001 50.418606 
L 259.840185 50.418606 
L 259.840185 50.104575 
L 260.167125 50.104575 
L 260.240185 49.162484 
L 260.301856 49.162484 
L 260.409661 48.220392 
L 260.474822 48.220392 
L 260.549802 46.65024 
L 260.621428 46.65024 
L 260.621428 46.336209 
L 260.824746 46.336209 
L 260.850497 45.708148 
L 261.802261 45.708148 
L 261.848611 45.080087 
L 262.207238 45.080087 
L 262.207238 44.766057 
L 262.838122 44.766057 
L 262.838122 44.452026 
L 263.227508 44.452026 
L 263.227508 44.137996 
L 263.455987 44.137996 
L 263.564575 43.509935 
L 263.585279 43.509935 
L 263.681115 42.253813 
L 263.862443 42.253813 
L 263.953841 40.36963 
L 264.219654 40.36963 
L 264.318165 38.485447 
L 264.529173 38.485447 
L 264.529173 38.171416 
L 264.655232 38.171416 
L 264.692693 37.229325 
L 264.812729 37.229325 
L 264.812729 36.915294 
L 265.090719 36.915294 
L 265.090719 36.601264 
L 265.235918 36.601264 
L 265.235918 36.287233 
L 265.351302 36.287233 
L 265.432884 35.345142 
L 265.462546 35.345142 
L 265.498101 34.40305 
L 265.736117 34.40305 
L 265.736117 34.08902 
L 265.87262 34.08902 
L 265.953269 33.460959 
L 266.164309 33.460959 
L 266.164309 33.146928 
L 266.330469 33.146928 
L 266.411118 32.518867 
L 266.447461 32.518867 
L 266.551327 31.890806 
L 266.708044 31.890806 
L 266.716592 31.262745 
L 266.914421 31.262745 
L 266.914421 30.948715 
L 267.065769 30.948715 
L 267.065769 30.634684 
L 267.371671 30.634684 
L 267.442924 30.006623 
L 267.69465 30.006623 
L 267.703895 29.378562 
L 267.807249 29.378562 
L 267.908069 28.750501 
L 268.350877 28.750501 
L 268.430784 28.12244 
L 268.511434 28.12244 
L 268.511434 27.80841 
L 269.051391 27.80841 
L 269.086031 27.180349 
L 269.339031 27.180349 
L 269.339031 26.866318 
L 269.54388 26.866318 
L 269.54388 26.552288 
L 270.155652 26.552288 
L 270.155652 26.238257 
L 270.613501 26.238257 
L 270.613501 25.924227 
L 270.739372 25.924227 
L 270.739372 25.610196 
L 270.939307 25.610196 
L 271.018198 24.982135 
L 271.199076 24.982135 
L 271.199076 24.668105 
L 271.394451 24.668105 
L 271.465704 23.726013 
L 271.644195 23.726013 
L 271.656925 23.097952 
L 271.830029 23.097952 
L 271.93515 22.155861 
L 272.374509 22.155861 
L 272.37738 21.213769 
L 272.528728 21.213769 
L 272.528728 20.899739 
L 272.713816 20.899739 
L 272.713816 20.585708 
L 272.835229 20.585708 
L 272.835229 20.271678 
L 272.986577 20.271678 
L 273.029587 19.643617 
L 273.100841 19.643617 
L 273.100841 19.329586 
L 273.277264 19.329586 
L 273.370626 18.701525 
L 273.465165 18.701525 
L 273.497472 18.073464 
L 273.75724 18.073464 
L 273.75724 17.759434 
L 273.948298 17.759434 
L 273.948298 17.445403 
L 274.818524 17.445403 
L 274.818524 17.131373 
L 274.935544 17.131373 
L 274.935544 16.817342 
L 275.086892 16.817342 
L 275.086892 16.503312 
L 278.740223 16.503312 
L 278.740223 16.189281 
L 279.198072 16.189281 
L 279.198072 15.875251 
L 279.349448 15.875251 
L 279.349448 15.56122 
L 280.030037 15.56122 
L 280.030037 15.24719 
L 280.230389 15.24719 
L 280.281483 14.619129 
L 280.739332 14.619129 
L 280.739332 14.305098 
L 281.298387 14.305098 
L 281.320789 13.677037 
L 282.839647 13.677037 
L 282.839647 13.363007 
L 286.783748 13.363007 
L 286.846364 12.734946 
L 287.183431 12.734946 
L 287.241597 11.792854 
L 289.341913 11.792854 
L 289.341913 11.478824 
L 290.335448 11.478824 
L 290.335448 11.164793 
L 294.358228 11.164793 
L 294.358228 10.850763 
L 295.993364 10.850763 
L 295.993364 10.536732 
L 298.074022 10.536732 
L 298.074022 10.222702 
L 298.398361 10.222702 
L 298.398361 9.908671 
L 298.700705 9.908671 
L 298.700705 9.594641 
L 300.044372 9.594641 
L 300.044372 9.28061 
L 302.599823 9.28061 
L 302.599823 8.96658 
L 302.724538 8.96658 
L 302.749447 8.338519 
L 304.344865 8.338519 
L 304.344865 8.024488 
L 305.930676 8.024488 
L 305.930676 7.710458 
L 308.536166 7.710458 
L 308.536166 7.396427 
L 310.170898 7.396427 
L 310.170898 7.082397 
L 310.431481 7.082397 
L 310.431481 6.768366 
L 311.631506 6.768366 
L 311.631506 6.454336 
L 312.774829 6.454336 
L 312.774829 6.140305 
L 316.098377 6.140305 
L 316.098377 5.826275 
L 453.192 5.826275 
L 453.192 5.826275 
" clip-path="url(#pfa62e8570c)" style="fill: none; stroke: #00bfbf; stroke-width: 3; stroke-linecap: square"/>
   </g>
   <g id="line2d_46">
    <path clip-path="url(#pfa62e8570c)" style="fill: none; stroke: #00bfbf; stroke-width: 3; stroke-linecap: square"/>
   </g>
   <g id="line2d_47">
    <path d="M 34.16 288.453725 
L 208.686031 288.453725 
L 208.686031 288.139695 
L 208.953907 288.139695 
L 208.953907 287.825664 
L 209.244617 287.825664 
L 209.244617 287.511634 
L 211.770908 287.511634 
L 211.770908 287.197603 
L 212.762542 287.197603 
L 212.762542 286.883573 
L 213.030417 286.883573 
L 213.030417 286.569542 
L 213.321127 286.569542 
L 213.321127 286.255512 
L 213.510016 286.255512 
L 213.55403 285.627451 
L 213.777892 285.627451 
L 213.777892 285.31342 
L 213.975605 285.31342 
L 214.068601 284.685359 
L 214.243481 284.685359 
L 214.264264 284.057298 
L 214.53214 284.057298 
L 214.542398 283.115207 
L 214.82285 283.115207 
L 214.897912 282.173115 
L 214.9973 282.173115 
L 214.9973 281.859085 
L 215.165788 281.859085 
L 215.265175 281.231024 
L 215.330044 281.231024 
L 215.383806 280.602963 
L 215.456498 280.602963 
L 215.555885 279.974902 
L 215.59792 279.974902 
L 215.59792 279.660871 
L 215.847418 279.660871 
L 215.888629 279.03281 
L 216.130258 279.03281 
L 216.130258 278.71878 
L 216.398134 278.71878 
L 216.398134 278.404749 
L 216.594893 278.404749 
L 216.688843 277.776688 
L 217.060481 277.776688 
L 217.060481 277.462658 
L 217.349141 277.462658 
L 217.349141 277.148627 
L 217.610787 277.148627 
L 217.63054 276.520566 
L 217.971748 276.520566 
L 218.082176 275.578475 
L 218.239624 275.578475 
L 218.239624 275.264444 
L 218.378015 275.264444 
L 218.41492 274.636383 
L 218.530333 274.636383 
L 218.618909 274.008322 
L 218.655721 274.008322 
L 218.655721 273.694292 
L 218.843604 273.694292 
L 218.94829 272.7522 
L 219.132263 272.7522 
L 219.229993 271.496078 
L 219.366383 271.496078 
L 219.460316 270.868017 
L 219.497869 270.868017 
L 219.506876 270.239956 
L 219.691869 270.239956 
L 219.788578 269.297865 
L 219.831972 269.297865 
L 219.865298 268.669804 
L 220.120631 268.669804 
L 220.207791 267.413682 
L 220.446117 267.413682 
L 220.446117 267.099651 
L 220.562482 267.099651 
L 220.67338 266.47159 
L 220.754279 266.47159 
L 220.853666 265.215468 
L 220.950085 265.215468 
L 221.056624 263.645316 
L 221.079765 263.645316 
L 221.186411 262.389194 
L 221.217961 262.389194 
L 221.217961 262.075163 
L 221.379815 262.075163 
L 221.379815 261.761133 
L 221.508671 261.761133 
L 221.60036 260.505011 
L 221.653945 260.505011 
L 221.711051 259.248889 
L 221.806891 259.248889 
L 221.806891 258.934858 
L 221.986625 258.934858 
L 222.033167 257.992767 
L 222.312111 257.992767 
L 222.314869 257.364706 
L 222.433283 257.364706 
L 222.49039 256.422614 
L 222.732232 256.422614 
L 222.839747 255.480523 
L 222.900361 255.480523 
L 222.99127 254.538431 
L 223.048214 254.538431 
L 223.048214 254.224401 
L 223.18902 254.224401 
L 223.191641 253.59634 
L 223.459516 253.59634 
L 223.479706 252.968279 
L 223.647358 252.968279 
L 223.750226 252.340218 
L 223.770608 252.340218 
L 223.828115 251.084096 
L 223.922055 251.084096 
L 223.945295 250.456035 
L 224.034962 250.456035 
L 224.097992 249.827974 
L 224.153601 249.827974 
L 224.2548 248.885882 
L 224.476958 248.885882 
L 224.537656 248.257821 
L 224.620101 248.257821 
L 224.669522 247.62976 
L 224.804657 247.62976 
L 224.867603 247.001699 
L 224.96699 247.001699 
L 225.055014 246.373638 
L 225.08636 246.373638 
L 225.130143 245.745577 
L 225.20834 245.745577 
L 225.299734 244.489455 
L 225.411846 244.489455 
L 225.505738 242.605272 
L 225.646065 242.605272 
L 225.646065 242.291242 
L 225.758446 242.291242 
L 225.818084 241.663181 
L 225.901588 241.663181 
L 225.927768 240.721089 
L 226.050127 240.721089 
L 226.13213 239.464967 
L 226.189237 239.464967 
L 226.276517 238.208845 
L 226.418849 238.208845 
L 226.418849 237.894815 
L 226.540583 237.894815 
L 226.540583 237.580784 
L 226.669389 237.580784 
L 226.747115 236.638693 
L 226.806452 236.638693 
L 226.896504 236.010632 
L 226.922999 236.010632 
L 226.958048 235.382571 
L 227.047581 235.382571 
L 227.131938 234.75451 
L 227.223959 234.75451 
L 227.329802 233.498388 
L 227.373506 233.498388 
L 227.472944 231.614205 
L 227.520223 231.614205 
L 227.598744 230.672113 
L 227.64786 230.672113 
L 227.75754 229.101961 
L 227.805276 229.101961 
L 227.883617 228.159869 
L 227.936305 228.159869 
L 228.041556 226.275686 
L 228.056882 226.275686 
L 228.154749 224.391503 
L 228.203722 224.391503 
L 228.250083 223.763442 
L 228.329068 223.763442 
L 228.431667 222.821351 
L 228.488774 222.821351 
L 228.510122 221.879259 
L 228.614167 221.879259 
L 228.722909 220.623137 
L 228.824041 220.623137 
L 228.91798 219.681046 
L 228.998934 219.681046 
L 229.048007 218.738954 
L 229.125291 218.738954 
L 229.199683 217.796863 
L 229.250935 217.796863 
L 229.361641 216.540741 
L 229.373493 216.540741 
L 229.48394 214.656558 
L 229.487238 214.656558 
L 229.589086 213.714466 
L 229.613442 213.714466 
L 229.687721 212.144314 
L 229.748973 212.144314 
L 229.839058 209.9461 
L 229.865234 209.9461 
L 229.972903 208.061917 
L 229.990678 208.061917 
L 230.082223 206.805795 
L 230.11589 206.805795 
L 230.198759 205.235643 
L 230.280421 205.235643 
L 230.37122 203.037429 
L 230.497914 203.037429 
L 230.556501 202.095338 
L 230.623093 202.095338 
L 230.665531 201.467277 
L 230.738153 201.467277 
L 230.848925 200.211155 
L 230.894929 200.211155 
L 230.99035 198.955033 
L 231.017708 198.955033 
L 231.103456 197.698911 
L 231.16085 197.698911 
L 231.21428 195.814728 
L 231.347728 195.814728 
L 231.456482 193.302484 
L 231.492401 193.302484 
L 231.519608 192.674423 
L 231.627577 192.674423 
L 231.729665 191.10427 
L 231.741782 191.10427 
L 231.852352 187.963965 
L 231.89066 187.963965 
L 232.001307 185.451721 
L 232.004449 185.451721 
L 232.114687 182.311416 
L 232.116396 182.311416 
L 232.225436 179.799172 
L 232.234981 179.799172 
L 232.272441 178.857081 
L 232.459254 178.857081 
L 232.55818 176.344837 
L 232.648031 176.344837 
L 232.718607 175.088715 
L 232.799419 175.088715 
L 232.903786 173.832593 
L 232.92191 173.832593 
L 233.032097 172.576471 
L 233.085485 172.576471 
L 233.161331 171.94841 
L 233.211617 171.94841 
L 233.28424 170.378257 
L 233.338633 170.378257 
L 233.407834 168.494074 
L 233.459477 168.494074 
L 233.546894 167.237952 
L 233.586837 167.237952 
L 233.6492 165.353769 
L 233.709246 165.353769 
L 233.77291 164.411678 
L 233.823373 164.411678 
L 233.930956 161.271373 
L 233.963714 161.271373 
L 234.067271 158.445098 
L 234.084984 158.445098 
L 234.154886 157.188976 
L 234.23087 157.188976 
L 234.314366 154.048671 
L 234.359937 154.048671 
L 234.450059 152.164488 
L 234.493796 152.164488 
L 234.595945 150.594336 
L 234.626471 150.594336 
L 234.704989 148.396122 
L 234.74889 148.396122 
L 234.838623 146.197908 
L 234.864039 146.197908 
L 234.961454 144.941786 
L 235.031363 144.941786 
L 235.123676 142.743573 
L 235.175824 142.743573 
L 235.270235 141.801481 
L 235.308648 141.801481 
L 235.382355 140.545359 
L 235.43035 140.545359 
L 235.539683 137.719085 
L 235.550858 137.719085 
L 235.642411 135.834902 
L 235.729623 135.834902 
L 235.831711 133.322658 
L 235.842081 133.322658 
L 235.931213 130.810414 
L 235.992024 130.810414 
L 236.100403 127.356078 
L 236.141525 127.356078 
L 236.216832 124.843834 
L 236.31285 124.843834 
L 236.414107 122.959651 
L 236.448161 122.959651 
L 236.522816 121.389499 
L 236.589739 121.389499 
L 236.652559 120.133377 
L 236.710552 120.133377 
L 236.817087 117.621133 
L 236.887057 117.621133 
L 236.895431 116.993072 
L 237.006121 116.993072 
L 237.08479 115.108889 
L 237.157875 115.108889 
L 237.265223 113.538736 
L 237.306103 113.538736 
L 237.39309 111.968584 
L 237.428533 111.968584 
L 237.48564 109.77037 
L 237.541261 109.77037 
L 237.641373 108.514248 
L 237.678836 108.514248 
L 237.772347 106.002004 
L 237.790618 106.002004 
L 237.888941 104.431852 
L 237.933798 104.431852 
L 238.008626 101.605577 
L 238.04822 101.605577 
L 238.105545 100.349455 
L 238.166037 100.349455 
L 238.249254 99.093333 
L 238.282946 99.093333 
L 238.388443 96.89512 
L 238.410741 96.89512 
L 238.507964 95.010937 
L 238.526959 95.010937 
L 238.556627 94.382876 
L 238.647037 94.382876 
L 238.74269 92.498693 
L 238.765858 92.498693 
L 238.852946 90.92854 
L 238.902584 90.92854 
L 239.012014 89.044357 
L 239.043266 89.044357 
L 239.088739 86.846144 
L 239.155358 86.846144 
L 239.259141 84.961961 
L 239.266871 84.961961 
L 239.300168 84.019869 
L 239.405166 84.019869 
L 239.505929 81.507625 
L 239.560866 81.507625 
L 239.62559 80.251503 
L 239.687178 80.251503 
L 239.791675 78.05329 
L 239.805339 78.05329 
L 239.908573 75.855076 
L 239.936449 75.855076 
L 240.011245 73.342832 
L 240.061963 73.342832 
L 240.171778 71.458649 
L 240.176698 71.458649 
L 240.252328 70.202527 
L 240.296992 70.202527 
L 240.309576 69.574466 
L 240.409399 69.574466 
L 240.419777 68.946405 
L 240.568743 68.946405 
L 240.631384 67.690283 
L 240.687912 67.690283 
L 240.794539 65.8061 
L 240.846157 65.8061 
L 240.940424 65.178039 
L 240.986963 65.178039 
L 241.080883 63.607887 
L 241.1608 63.607887 
L 241.269306 62.665795 
L 241.308393 62.665795 
L 241.41685 60.781612 
L 241.457271 60.781612 
L 241.50041 59.52549 
L 241.572112 59.52549 
L 241.655412 57.641307 
L 241.698891 57.641307 
L 241.809951 55.129063 
L 241.885037 55.129063 
L 241.992062 53.24488 
L 242.028166 53.24488 
L 242.076349 51.988758 
L 242.151403 51.988758 
L 242.216147 51.360697 
L 242.309301 51.360697 
L 242.392421 50.418606 
L 242.423884 50.418606 
L 242.521727 49.790545 
L 242.555576 49.790545 
L 242.555576 49.476514 
L 242.700755 49.476514 
L 242.777245 48.534423 
L 242.992676 48.534423 
L 243.082409 46.96427 
L 243.228454 46.96427 
L 243.228518 46.336209 
L 243.367462 46.336209 
L 243.394536 45.708148 
L 243.482439 45.708148 
L 243.563531 44.766057 
L 243.607975 44.766057 
L 243.699528 43.195904 
L 243.754465 43.195904 
L 243.849057 41.939782 
L 243.893721 41.939782 
L 243.98919 40.055599 
L 244.10633 40.055599 
L 244.199011 38.485447 
L 244.22 38.485447 
L 244.302385 37.229325 
L 244.386759 37.229325 
L 244.464089 36.601264 
L 244.512525 36.601264 
L 244.591382 35.659172 
L 244.627823 35.659172 
L 244.718259 34.40305 
L 244.85404 34.40305 
L 244.96091 33.146928 
L 244.992899 33.146928 
L 244.997888 32.518867 
L 245.161043 32.518867 
L 245.249907 31.262745 
L 245.363674 31.262745 
L 245.449097 30.320654 
L 245.612252 30.320654 
L 245.723321 29.064532 
L 245.911393 29.064532 
L 245.991398 28.12244 
L 246.149819 28.12244 
L 246.154553 27.494379 
L 246.278576 27.494379 
L 246.311511 26.552288 
L 246.401244 26.552288 
L 246.490901 25.610196 
L 246.654055 25.610196 
L 246.759672 24.668105 
L 246.823179 24.668105 
L 246.823179 24.354074 
L 246.937102 24.354074 
L 247.02995 22.155861 
L 247.08969 22.155861 
L 247.200783 21.213769 
L 247.208173 21.213769 
L 247.252837 19.957647 
L 247.639043 19.957647 
L 247.639043 19.643617 
L 248.08407 19.643617 
L 248.08407 19.329586 
L 248.246854 19.329586 
L 248.279745 18.701525 
L 248.370294 18.701525 
L 248.370294 18.387495 
L 248.568741 18.387495 
L 248.568741 18.073464 
L 248.853628 18.073464 
L 248.953581 17.131373 
L 249.028819 17.131373 
L 249.058829 16.503312 
L 249.736663 16.503312 
L 249.736663 16.189281 
L 250.255936 16.189281 
L 250.286016 15.24719 
L 250.375347 15.24719 
L 250.395189 14.619129 
L 250.944541 14.619129 
L 250.944541 14.305098 
L 251.174224 14.305098 
L 251.174224 13.991068 
L 251.337378 13.991068 
L 251.337378 13.677037 
L 251.459095 13.677037 
L 251.459095 13.363007 
L 251.705802 13.363007 
L 251.705802 13.048976 
L 251.910304 13.048976 
L 251.910304 12.734946 
L 252.347654 12.734946 
L 252.452605 11.478824 
L 252.562256 11.478824 
L 252.562256 11.164793 
L 252.952108 11.164793 
L 252.952108 10.850763 
L 253.714023 10.850763 
L 253.803632 10.222702 
L 254.263376 10.222702 
L 254.263376 9.908671 
L 254.487008 9.908671 
L 254.576741 9.28061 
L 254.861793 9.28061 
L 254.861793 8.96658 
L 255.683162 8.96658 
L 255.683162 8.652549 
L 256.455242 8.652549 
L 256.455242 8.338519 
L 256.744239 8.338519 
L 256.744239 8.024488 
L 257.635431 8.024488 
L 257.635431 7.710458 
L 258.431433 7.710458 
L 258.45233 7.082397 
L 260.523151 7.082397 
L 260.523151 6.768366 
L 261.889521 6.768366 
L 261.889521 6.454336 
L 262.438873 6.454336 
L 262.438873 6.140305 
L 263.858659 6.140305 
L 263.858659 5.826275 
L 453.192 5.826275 
L 453.192 5.826275 
" clip-path="url(#pfa62e8570c)" style="fill: none; stroke: #bf00bf; stroke-width: 3; stroke-linecap: square"/>
   </g>
   <g id="line2d_48">
    <path clip-path="url(#pfa62e8570c)" style="fill: none; stroke: #bf00bf; stroke-width: 3; stroke-linecap: square"/>
   </g>
   <g id="line2d_49">
    <path d="M 34.16 288.453725 
L 208.039738 288.453725 
L 208.061286 287.825664 
L 210.098354 287.825664 
L 210.098354 287.511634 
L 211.781508 287.511634 
L 211.781508 287.197603 
L 211.905349 287.197603 
L 211.926897 286.569542 
L 212.166173 286.569542 
L 212.166173 286.255512 
L 212.284232 286.255512 
L 212.30578 285.627451 
L 212.480605 285.627451 
L 212.502154 284.99939 
L 212.742403 284.99939 
L 212.795409 283.743268 
L 213.323048 283.743268 
L 213.344596 283.115207 
L 213.963965 283.115207 
L 213.963965 282.801176 
L 214.342848 282.801176 
L 214.342848 282.487146 
L 214.513557 282.487146 
L 214.539221 281.545054 
L 214.801019 281.545054 
L 214.837472 279.660871 
L 215.087999 279.660871 
L 215.142709 278.404749 
L 215.381664 278.404749 
L 215.438492 277.776688 
L 215.647119 277.776688 
L 215.647119 277.462658 
L 216.026002 277.462658 
L 216.031784 276.834597 
L 216.222376 276.834597 
L 216.222376 276.520566 
L 216.410667 276.520566 
L 216.515631 275.578475 
L 216.572173 275.578475 
L 216.60704 274.950414 
L 216.692843 274.950414 
L 216.714392 274.322353 
L 216.868838 274.322353 
L 216.900296 273.066231 
L 217.064818 273.066231 
L 217.146615 272.43817 
L 217.179777 272.43817 
L 217.179777 272.124139 
L 217.301086 272.124139 
L 217.397019 270.868017 
L 217.449483 270.868017 
L 217.449483 270.553987 
L 218.104394 270.553987 
L 218.104394 270.239956 
L 218.255327 270.239956 
L 218.255327 269.925926 
L 218.556178 269.925926 
L 218.639992 268.983834 
L 218.751459 268.983834 
L 218.82977 268.355773 
L 218.862931 268.355773 
L 218.942358 267.413682 
L 219.214434 267.413682 
L 219.304103 266.47159 
L 219.434087 266.47159 
L 219.434087 266.15756 
L 219.682986 266.15756 
L 219.751445 265.529499 
L 219.87936 265.529499 
L 219.87936 265.215468 
L 220.141157 265.215468 
L 220.172615 264.587407 
L 220.390143 264.587407 
L 220.434614 263.959346 
L 220.721802 263.959346 
L 220.822214 262.703224 
L 221.117241 262.703224 
L 221.166697 262.075163 
L 221.246397 262.075163 
L 221.246397 261.761133 
L 221.404595 261.761133 
L 221.501906 261.133072 
L 221.54558 261.133072 
L 221.625279 260.505011 
L 221.741954 260.505011 
L 221.821653 259.87695 
L 221.912311 259.87695 
L 222.003751 258.934858 
L 222.035209 258.934858 
L 222.114909 257.992767 
L 222.213162 257.992767 
L 222.214678 257.364706 
L 222.348887 257.364706 
L 222.348887 257.050675 
L 222.486754 257.050675 
L 222.584396 255.794553 
L 222.619033 255.794553 
L 222.664095 255.166492 
L 222.807058 255.166492 
L 222.859282 254.224401 
L 223.387703 254.224401 
L 223.387703 253.91037 
L 223.617056 253.91037 
L 223.626894 253.282309 
L 223.774905 253.282309 
L 223.854605 252.654248 
L 223.995938 252.654248 
L 224.091598 251.398126 
L 224.155456 251.398126 
L 224.255754 250.142004 
L 224.349348 250.142004 
L 224.454109 248.885882 
L 224.462209 248.885882 
L 224.542436 247.943791 
L 224.578213 247.943791 
L 224.634637 247.31573 
L 224.774225 247.31573 
L 224.880579 246.059608 
L 224.927101 246.059608 
L 225.034754 245.431547 
L 225.092808 245.431547 
L 225.185817 244.175425 
L 225.270206 244.175425 
L 225.270206 243.861394 
L 225.563377 243.861394 
L 225.673453 242.919303 
L 225.845462 242.919303 
L 225.954192 242.291242 
L 226.033891 242.291242 
L 226.138718 241.34915 
L 226.225264 241.34915 
L 226.225264 241.03512 
L 226.446675 241.03512 
L 226.52763 239.778998 
L 226.636819 239.778998 
L 226.716518 238.836906 
L 226.757499 238.836906 
L 226.863962 237.266754 
L 227.0599 237.266754 
L 227.166329 236.324662 
L 227.272267 236.324662 
L 227.353155 235.06854 
L 227.438404 235.06854 
L 227.492505 233.812418 
L 227.724759 233.812418 
L 227.724759 233.498388 
L 227.871387 233.498388 
L 227.902342 232.556296 
L 227.990123 232.556296 
L 228.067761 231.614205 
L 228.179265 231.614205 
L 228.278408 230.044052 
L 228.329558 230.044052 
L 228.428709 228.78793 
L 228.442292 228.78793 
L 228.526218 227.531808 
L 228.630361 227.531808 
L 228.645691 226.903747 
L 228.810792 226.903747 
L 228.920124 225.333595 
L 228.986703 225.333595 
L 229.092852 223.763442 
L 229.249379 223.763442 
L 229.279956 222.821351 
L 229.373488 222.821351 
L 229.395218 221.879259 
L 229.568789 221.879259 
L 229.667294 220.623137 
L 229.690653 220.623137 
L 229.782992 219.367015 
L 229.841056 219.367015 
L 229.907635 218.738954 
L 229.987299 218.738954 
L 230.077438 216.854771 
L 230.100713 216.854771 
L 230.142822 215.598649 
L 230.235161 215.598649 
L 230.339252 214.342527 
L 230.353328 214.342527 
L 230.462715 212.458344 
L 230.475321 212.458344 
L 230.5419 211.202222 
L 230.603661 211.202222 
L 230.710181 209.004009 
L 230.740328 209.004009 
L 230.791915 208.375948 
L 230.865322 208.375948 
L 230.928685 206.491765 
L 231.062134 206.491765 
L 231.14934 203.979521 
L 231.180798 203.979521 
L 231.272138 202.409368 
L 231.319978 202.409368 
L 231.360019 201.781307 
L 231.555166 201.781307 
L 231.593202 200.839216 
L 231.729985 200.839216 
L 231.827006 199.583094 
L 231.878682 199.583094 
L 231.98728 197.698911 
L 232.013536 197.698911 
L 232.096666 196.128758 
L 232.146197 196.128758 
L 232.255584 193.302484 
L 232.279999 193.302484 
L 232.37834 191.418301 
L 232.440644 191.418301 
L 232.55003 188.906057 
L 232.573524 188.906057 
L 232.668916 187.963965 
L 232.776628 187.963965 
L 232.776628 187.649935 
L 232.904104 187.649935 
L 232.976022 186.079782 
L 233.080957 186.079782 
L 233.151071 185.451721 
L 233.221345 185.451721 
L 233.304967 183.567538 
L 233.38415 183.567538 
L 233.494936 182.625447 
L 233.49951 182.625447 
L 233.579213 181.055294 
L 233.671551 181.055294 
L 233.78252 177.286928 
L 233.816935 177.286928 
L 233.916888 175.088715 
L 233.949571 175.088715 
L 234.056235 173.518562 
L 234.084548 173.518562 
L 234.168697 170.378257 
L 234.229972 170.378257 
L 234.30743 168.808105 
L 234.356765 168.808105 
L 234.356765 168.494074 
L 234.555482 168.494074 
L 234.656881 166.923922 
L 234.688718 166.923922 
L 234.795793 165.6678 
L 234.815141 165.6678 
L 234.926068 163.155556 
L 234.929201 163.155556 
L 235.01827 159.70122 
L 235.060436 159.70122 
L 235.151841 158.131068 
L 235.177019 158.131068 
L 235.25562 156.246885 
L 235.291759 156.246885 
L 235.379961 154.990763 
L 235.408863 154.990763 
L 235.518589 153.42061 
L 235.521863 153.42061 
L 235.623922 152.164488 
L 235.64704 152.164488 
L 235.748245 150.908366 
L 235.782407 150.908366 
L 235.885259 149.024183 
L 235.906601 149.024183 
L 235.99571 148.082092 
L 236.044177 148.082092 
L 236.147167 147.14 
L 236.18135 147.14 
L 236.292109 145.255817 
L 236.325782 145.255817 
L 236.411874 142.429542 
L 236.447879 142.429542 
L 236.546242 139.603268 
L 236.563215 139.603268 
L 236.662706 138.033115 
L 236.685589 138.033115 
L 236.788538 135.520871 
L 236.814456 135.520871 
L 236.907527 133.636688 
L 236.929979 133.636688 
L 237.022461 131.752505 
L 237.047389 131.752505 
L 237.102282 129.240261 
L 237.158999 129.240261 
L 237.268385 127.670109 
L 237.276068 127.670109 
L 237.374415 124.215773 
L 237.388657 124.215773 
L 237.425511 123.273682 
L 237.506719 123.273682 
L 237.604384 121.075468 
L 237.619722 121.075468 
L 237.70757 118.877255 
L 237.736547 118.877255 
L 237.845962 116.05098 
L 237.878098 116.05098 
L 237.966609 114.166797 
L 237.992345 114.166797 
L 238.084978 111.654553 
L 238.134173 111.654553 
L 238.230393 109.77037 
L 238.247672 109.77037 
L 238.355701 108.200218 
L 238.358915 108.200218 
L 238.468302 106.944096 
L 238.477328 106.944096 
L 238.580986 105.373943 
L 238.619759 105.373943 
L 238.71312 104.117821 
L 238.823449 104.117821 
L 238.927928 100.663486 
L 238.984959 100.663486 
L 239.019274 99.407364 
L 239.128383 99.407364 
L 239.238397 98.151242 
L 239.248506 98.151242 
L 239.357892 96.581089 
L 239.372765 96.581089 
L 239.483719 94.382876 
L 239.501821 94.382876 
L 239.567949 92.812723 
L 239.617248 92.812723 
L 239.707841 89.986449 
L 239.733203 89.986449 
L 239.811791 88.102266 
L 239.883462 88.102266 
L 239.970553 85.904052 
L 239.996923 85.904052 
L 240.078005 82.763747 
L 240.18982 82.763747 
L 240.277399 81.193595 
L 240.302356 81.193595 
L 240.373539 79.623442 
L 240.473753 79.623442 
L 240.560062 78.681351 
L 240.625211 78.681351 
L 240.696293 77.425229 
L 240.753922 77.425229 
L 240.84782 75.855076 
L 240.879 75.855076 
L 240.974888 74.598954 
L 241.056978 74.598954 
L 241.108657 73.028802 
L 241.17786 73.028802 
L 241.22052 71.77268 
L 241.296041 71.77268 
L 241.389737 70.516558 
L 241.433476 70.516558 
L 241.541194 68.318344 
L 241.559257 68.318344 
L 241.64972 66.748192 
L 241.684467 66.748192 
L 241.791547 65.178039 
L 241.818834 65.178039 
L 241.912728 63.293856 
L 241.958181 63.293856 
L 242.014019 62.351765 
L 242.086259 62.351765 
L 242.157432 61.409673 
L 242.255932 61.409673 
L 242.328344 59.21146 
L 242.396255 59.21146 
L 242.486984 57.641307 
L 242.513014 57.641307 
L 242.616372 55.757124 
L 242.648868 55.757124 
L 242.74267 54.186972 
L 242.789016 54.186972 
L 242.847495 52.616819 
L 242.947232 52.616819 
L 243.010309 51.674728 
L 243.094815 51.674728 
L 243.193271 50.104575 
L 243.268384 50.104575 
L 243.367033 48.848453 
L 243.400934 48.848453 
L 243.473601 47.592331 
L 243.513709 47.592331 
L 243.583473 46.022179 
L 243.625059 46.022179 
L 243.667148 45.394118 
L 243.785927 45.394118 
L 243.891261 44.766057 
L 243.998833 44.766057 
L 244.086042 44.137996 
L 244.282882 44.137996 
L 244.363192 42.567843 
L 244.449154 42.567843 
L 244.523635 41.939782 
L 244.575269 41.939782 
L 244.649568 40.68366 
L 244.723029 40.68366 
L 244.825508 38.485447 
L 244.927222 38.485447 
L 245.002905 36.287233 
L 245.106563 36.287233 
L 245.18874 35.031111 
L 245.247378 35.031111 
L 245.302477 34.08902 
L 245.432049 34.08902 
L 245.473663 32.832898 
L 245.549411 32.832898 
L 245.63934 31.262745 
L 245.661705 31.262745 
L 245.765363 30.006623 
L 245.77513 30.006623 
L 245.847778 29.064532 
L 245.963737 29.064532 
L 246.067396 27.80841 
L 246.099943 27.80841 
L 246.112305 27.180349 
L 246.286336 27.180349 
L 246.378846 26.238257 
L 246.400059 26.238257 
L 246.461495 24.982135 
L 246.543117 24.982135 
L 246.607488 24.354074 
L 246.701562 24.354074 
L 246.728951 23.411983 
L 247.026382 23.411983 
L 247.114825 22.783922 
L 247.170056 22.783922 
L 247.216574 21.84183 
L 247.364599 21.84183 
L 247.411117 21.213769 
L 247.503949 21.213769 
L 247.610511 19.957647 
L 247.812663 19.957647 
L 247.921665 19.329586 
L 247.953057 19.329586 
L 247.953057 19.015556 
L 248.112778 19.015556 
L 248.112778 18.701525 
L 248.242817 18.701525 
L 248.242817 18.387495 
L 248.628707 18.387495 
L 248.628707 18.073464 
L 248.79194 18.073464 
L 248.894921 17.445403 
L 249.019246 17.445403 
L 249.087168 16.503312 
L 249.313815 16.503312 
L 249.364273 15.56122 
L 249.542526 15.56122 
L 249.589044 14.933159 
L 250.381409 14.933159 
L 250.427927 14.305098 
L 250.53025 14.305098 
L 250.53025 13.991068 
L 250.653627 13.991068 
L 250.731966 13.048976 
L 250.953742 13.048976 
L 251.053118 12.106885 
L 251.627831 12.106885 
L 251.627831 11.792854 
L 251.983461 11.792854 
L 251.983461 11.478824 
L 252.160059 11.478824 
L 252.160059 11.164793 
L 252.304613 11.164793 
L 252.304613 10.850763 
L 252.426273 10.850763 
L 252.426273 10.536732 
L 252.845167 10.536732 
L 252.845167 10.222702 
L 253.340551 10.222702 
L 253.340551 9.908671 
L 253.57293 9.908671 
L 253.619448 9.28061 
L 253.894082 9.28061 
L 253.9406 8.652549 
L 254.061602 8.652549 
L 254.061602 8.338519 
L 254.592046 8.338519 
L 254.592046 8.024488 
L 255.159183 8.024488 
L 255.159183 7.710458 
L 256.181515 7.710458 
L 256.228033 7.082397 
L 256.871903 7.082397 
L 256.871903 6.768366 
L 258.123398 6.768366 
L 258.123398 6.454336 
L 259.712867 6.454336 
L 259.759385 5.826275 
L 453.192 5.826275 
L 453.192 5.826275 
" clip-path="url(#pfa62e8570c)" style="fill: none; stroke: #ff0000; stroke-width: 3; stroke-linecap: square"/>
   </g>
   <g id="line2d_50">
    <path clip-path="url(#pfa62e8570c)" style="fill: none; stroke: #ff0000; stroke-width: 3; stroke-linecap: square"/>
   </g>
   <g id="line2d_51">
    <path d="M 243.676 291.28 
L 243.676 3 
" clip-path="url(#pfa62e8570c)" style="fill: none; stroke: #000000; stroke-width: 1.5; stroke-linecap: square"/>
   </g>
   <g id="line2d_52">
    <path d="M 34.16 147.14 
L 453.192 147.14 
" clip-path="url(#pfa62e8570c)" style="fill: none; stroke-dasharray: 2,3.3; stroke-dashoffset: 0; stroke: #000000; stroke-width: 2"/>
   </g>
   <g id="patch_3">
    <path d="M 34.16 291.28 
L 34.16 3 
" style="fill: none; stroke: #000000; stroke-width: 0.8; stroke-linejoin: miter; stroke-linecap: square"/>
   </g>
   <g id="patch_4">
    <path d="M 453.192 291.28 
L 453.192 3 
" style="fill: none; stroke: #000000; stroke-width: 0.8; stroke-linejoin: miter; stroke-linecap: square"/>
   </g>
   <g id="patch_5">
    <path d="M 34.16 291.28 
L 453.192 291.28 
" style="fill: none; stroke: #000000; stroke-width: 0.8; stroke-linejoin: miter; stroke-linecap: square"/>
   </g>
   <g id="patch_6">
    <path d="M 34.16 3 
L 453.192 3 
" style="fill: none; stroke: #000000; stroke-width: 0.8; stroke-linejoin: miter; stroke-linecap: square"/>
   </g>
   <g id="text_6">
    <!-- f6-f9,5-D -->
    <g transform="translate(356.36761 285.5144)scale(0.2 -0.2)">
     <defs>
      <path id="DejaVuSans-36" d="M 2113 2584 
Q 1688 2584 1439 2293 
Q 1191 2003 1191 1497 
Q 1191 994 1439 701 
Q 1688 409 2113 409 
Q 2538 409 2786 701 
Q 3034 994 3034 1497 
Q 3034 2003 2786 2293 
Q 2538 2584 2113 2584 
z
M 3366 4563 
L 3366 3988 
Q 3128 4100 2886 4159 
Q 2644 4219 2406 4219 
Q 1781 4219 1451 3797 
Q 1122 3375 1075 2522 
Q 1259 2794 1537 2939 
Q 1816 3084 2150 3084 
Q 2853 3084 3261 2657 
Q 3669 2231 3669 1497 
Q 3669 778 3244 343 
Q 2819 -91 2113 -91 
Q 1303 -91 875 529 
Q 447 1150 447 2328 
Q 447 3434 972 4092 
Q 1497 4750 2381 4750 
Q 2619 4750 2861 4703 
Q 3103 4656 3366 4563 
z
" transform="scale(0.015625)"/>
      <path id="DejaVuSans-39" d="M 703 97 
L 703 672 
Q 941 559 1184 500 
Q 1428 441 1663 441 
Q 2288 441 2617 861 
Q 2947 1281 2994 2138 
Q 2813 1869 2534 1725 
Q 2256 1581 1919 1581 
Q 1219 1581 811 2004 
Q 403 2428 403 3163 
Q 403 3881 828 4315 
Q 1253 4750 1959 4750 
Q 2769 4750 3195 4129 
Q 3622 3509 3622 2328 
Q 3622 1225 3098 567 
Q 2575 -91 1691 -91 
Q 1453 -91 1209 -44 
Q 966 3 703 97 
z
M 1959 2075 
Q 2384 2075 2632 2365 
Q 2881 2656 2881 3163 
Q 2881 3666 2632 3958 
Q 2384 4250 1959 4250 
Q 1534 4250 1286 3958 
Q 1038 3666 1038 3163 
Q 1038 2656 1286 2365 
Q 1534 2075 1959 2075 
z
" transform="scale(0.015625)"/>
      <path id="DejaVuSans-2c" d="M 750 794 
L 1409 794 
L 1409 256 
L 897 -744 
L 494 -744 
L 750 256 
L 750 794 
z
" transform="scale(0.015625)"/>
      <path id="DejaVuSans-35" d="M 691 4666 
L 3169 4666 
L 3169 4134 
L 1269 4134 
L 1269 2991 
Q 1406 3038 1543 3061 
Q 1681 3084 1819 3084 
Q 2600 3084 3056 2656 
Q 3513 2228 3513 1497 
Q 3513 744 3044 326 
Q 2575 -91 1722 -91 
Q 1428 -91 1123 -41 
Q 819 9 494 109 
L 494 744 
Q 775 591 1075 516 
Q 1375 441 1709 441 
Q 2250 441 2565 725 
Q 2881 1009 2881 1497 
Q 2881 1984 2565 2268 
Q 2250 2553 1709 2553 
Q 1456 2553 1204 2497 
Q 953 2441 691 2322 
L 691 4666 
z
" transform="scale(0.015625)"/>
      <path id="DejaVuSans-44" d="M 1259 4147 
L 1259 519 
L 2022 519 
Q 2988 519 3436 956 
Q 3884 1394 3884 2338 
Q 3884 3275 3436 3711 
Q 2988 4147 2022 4147 
L 1259 4147 
z
M 628 4666 
L 1925 4666 
Q 3281 4666 3915 4102 
Q 4550 3538 4550 2338 
Q 4550 1131 3912 565 
Q 3275 0 1925 0 
L 628 0 
L 628 4666 
z
" transform="scale(0.015625)"/>
     </defs>
     <use xlink:href="#DejaVuSans-66"/>
     <use xlink:href="#DejaVuSans-36" x="35.205078"/>
     <use xlink:href="#DejaVuSans-2d" x="98.828125"/>
     <use xlink:href="#DejaVuSans-66" x="134.912109"/>
     <use xlink:href="#DejaVuSans-39" x="170.117188"/>
     <use xlink:href="#DejaVuSans-2c" x="233.740234"/>
     <use xlink:href="#DejaVuSans-35" x="265.527344"/>
     <use xlink:href="#DejaVuSans-2d" x="329.150391"/>
     <use xlink:href="#DejaVuSans-44" x="365.234375"/>
    </g>
   </g>
   <g id="text_7">
    <!-- v2.6.3 -->
    <g style="fill: #808080" transform="translate(227.99475 286.317512)scale(0.1 -0.1)">
     <defs>
      <path id="DejaVuSans-32" d="M 1228 531 
L 3431 531 
L 3431 0 
L 469 0 
L 469 531 
Q 828 903 1448 1529 
Q 2069 2156 2228 2338 
Q 2531 2678 2651 2914 
Q 2772 3150 2772 3378 
Q 2772 3750 2511 3984 
Q 2250 4219 1831 4219 
Q 1534 4219 1204 4116 
Q 875 4013 500 3803 
L 500 4441 
Q 881 4594 1212 4672 
Q 1544 4750 1819 4750 
Q 2544 4750 2975 4387 
Q 3406 4025 3406 3419 
Q 3406 3131 3298 2873 
Q 3191 2616 2906 2266 
Q 2828 2175 2409 1742 
Q 1991 1309 1228 531 
z
" transform="scale(0.015625)"/>
      <path id="DejaVuSans-2e" d="M 684 794 
L 1344 794 
L 1344 0 
L 684 0 
L 684 794 
z
" transform="scale(0.015625)"/>
      <path id="DejaVuSans-33" d="M 2597 2516 
Q 3050 2419 3304 2112 
Q 3559 1806 3559 1356 
Q 3559 666 3084 287 
Q 2609 -91 1734 -91 
Q 1441 -91 1130 -33 
Q 819 25 488 141 
L 488 750 
Q 750 597 1062 519 
Q 1375 441 1716 441 
Q 2309 441 2620 675 
Q 2931 909 2931 1356 
Q 2931 1769 2642 2001 
Q 2353 2234 1838 2234 
L 1294 2234 
L 1294 2753 
L 1863 2753 
Q 2328 2753 2575 2939 
Q 2822 3125 2822 3475 
Q 2822 3834 2567 4026 
Q 2313 4219 1838 4219 
Q 1578 4219 1281 4162 
Q 984 4106 628 3988 
L 628 4550 
Q 988 4650 1302 4700 
Q 1616 4750 1894 4750 
Q 2613 4750 3031 4423 
Q 3450 4097 3450 3541 
Q 3450 3153 3228 2886 
Q 3006 2619 2597 2516 
z
" transform="scale(0.015625)"/>
     </defs>
     <use xlink:href="#DejaVuSans-76"/>
     <use xlink:href="#DejaVuSans-32" x="59.179688"/>
     <use xlink:href="#DejaVuSans-2e" x="122.802734"/>
     <use xlink:href="#DejaVuSans-36" x="154.589844"/>
     <use xlink:href="#DejaVuSans-2e" x="218.212891"/>
     <use xlink:href="#DejaVuSans-33" x="250"/>
    </g>
   </g>
   <g id="legend_1">
    <g id="patch_7">
     <path d="M 48.16 136.425 
L 177.381875 136.425 
Q 181.381875 136.425 181.381875 132.425 
L 181.381875 17 
Q 181.381875 13 177.381875 13 
L 48.16 13 
Q 44.16 13 44.16 17 
L 44.16 132.425 
Q 44.16 136.425 48.16 136.425 
z
" style="fill: #ffffff; opacity: 0.2; stroke: #cccccc; stroke-linejoin: miter"/>
    </g>
    <g id="line2d_53">
     <path d="M 52.16 29.196875 
L 72.16 29.196875 
L 92.16 29.196875 
" style="fill: none; stroke: #000000; stroke-width: 3; stroke-linecap: square"/>
    </g>
    <g id="text_8">
     <!-- 1: 4/4 -->
     <g transform="translate(108.16 36.196875)scale(0.2 -0.2)">
      <defs>
       <path id="DejaVuSans-3a" d="M 750 794 
L 1409 794 
L 1409 0 
L 750 0 
L 750 794 
z
M 750 3309 
L 1409 3309 
L 1409 2516 
L 750 2516 
L 750 3309 
z
" transform="scale(0.015625)"/>
       <path id="DejaVuSans-34" d="M 2419 4116 
L 825 1625 
L 2419 1625 
L 2419 4116 
z
M 2253 4666 
L 3047 4666 
L 3047 1625 
L 3713 1625 
L 3713 1100 
L 3047 1100 
L 3047 0 
L 2419 0 
L 2419 1100 
L 313 1100 
L 313 1709 
L 2253 4666 
z
" transform="scale(0.015625)"/>
       <path id="DejaVuSans-2f" d="M 1625 4666 
L 2156 4666 
L 531 -594 
L 0 -594 
L 1625 4666 
z
" transform="scale(0.015625)"/>
      </defs>
      <use xlink:href="#DejaVuSans-31"/>
      <use xlink:href="#DejaVuSans-3a" x="63.623047"/>
      <use xlink:href="#DejaVuSans-20" x="97.314453"/>
      <use xlink:href="#DejaVuSans-34" x="129.101562"/>
      <use xlink:href="#DejaVuSans-2f" x="192.724609"/>
      <use xlink:href="#DejaVuSans-34" x="226.416016"/>
     </g>
    </g>
    <g id="line2d_54">
     <path d="M 52.16 58.553125 
L 72.16 58.553125 
L 92.16 58.553125 
" style="fill: none; stroke: #00bfbf; stroke-width: 3; stroke-linecap: square"/>
    </g>
    <g id="text_9">
     <!-- -1: 4/4 -->
     <g transform="translate(108.16 65.553125)scale(0.2 -0.2)">
      <use xlink:href="#DejaVuSans-2d"/>
      <use xlink:href="#DejaVuSans-31" x="36.083984"/>
      <use xlink:href="#DejaVuSans-3a" x="99.707031"/>
      <use xlink:href="#DejaVuSans-20" x="133.398438"/>
      <use xlink:href="#DejaVuSans-34" x="165.185547"/>
      <use xlink:href="#DejaVuSans-2f" x="228.808594"/>
      <use xlink:href="#DejaVuSans-34" x="262.5"/>
     </g>
    </g>
    <g id="line2d_55">
     <path d="M 52.16 87.909375 
L 72.16 87.909375 
L 92.16 87.909375 
" style="fill: none; stroke: #bf00bf; stroke-width: 3; stroke-linecap: square"/>
    </g>
    <g id="text_10">
     <!-- -4: 4/4 -->
     <g transform="translate(108.16 94.909375)scale(0.2 -0.2)">
      <use xlink:href="#DejaVuSans-2d"/>
      <use xlink:href="#DejaVuSans-34" x="36.083984"/>
      <use xlink:href="#DejaVuSans-3a" x="99.707031"/>
      <use xlink:href="#DejaVuSans-20" x="133.398438"/>
      <use xlink:href="#DejaVuSans-34" x="165.185547"/>
      <use xlink:href="#DejaVuSans-2f" x="228.808594"/>
      <use xlink:href="#DejaVuSans-34" x="262.5"/>
     </g>
    </g>
    <g id="line2d_56">
     <path d="M 52.16 117.265625 
L 72.16 117.265625 
L 92.16 117.265625 
" style="fill: none; stroke: #ff0000; stroke-width: 3; stroke-linecap: square"/>
    </g>
    <g id="text_11">
     <!-- -8: 4/4 -->
     <g transform="translate(108.16 124.265625)scale(0.2 -0.2)">
      <defs>
       <path id="DejaVuSans-38" d="M 2034 2216 
Q 1584 2216 1326 1975 
Q 1069 1734 1069 1313 
Q 1069 891 1326 650 
Q 1584 409 2034 409 
Q 2484 409 2743 651 
Q 3003 894 3003 1313 
Q 3003 1734 2745 1975 
Q 2488 2216 2034 2216 
z
M 1403 2484 
Q 997 2584 770 2862 
Q 544 3141 544 3541 
Q 544 4100 942 4425 
Q 1341 4750 2034 4750 
Q 2731 4750 3128 4425 
Q 3525 4100 3525 3541 
Q 3525 3141 3298 2862 
Q 3072 2584 2669 2484 
Q 3125 2378 3379 2068 
Q 3634 1759 3634 1313 
Q 3634 634 3220 271 
Q 2806 -91 2034 -91 
Q 1263 -91 848 271 
Q 434 634 434 1313 
Q 434 1759 690 2068 
Q 947 2378 1403 2484 
z
M 1172 3481 
Q 1172 3119 1398 2916 
Q 1625 2713 2034 2713 
Q 2441 2713 2670 2916 
Q 2900 3119 2900 3481 
Q 2900 3844 2670 4047 
Q 2441 4250 2034 4250 
Q 1625 4250 1398 4047 
Q 1172 3844 1172 3481 
z
" transform="scale(0.015625)"/>
      </defs>
      <use xlink:href="#DejaVuSans-2d"/>
      <use xlink:href="#DejaVuSans-38" x="36.083984"/>
      <use xlink:href="#DejaVuSans-3a" x="99.707031"/>
      <use xlink:href="#DejaVuSans-20" x="133.398438"/>
      <use xlink:href="#DejaVuSans-34" x="165.185547"/>
      <use xlink:href="#DejaVuSans-2f" x="228.808594"/>
      <use xlink:href="#DejaVuSans-34" x="262.5"/>
     </g>
    </g>
   </g>
  </g>
 </g>
 <defs>
  <clipPath id="pfa62e8570c">
   <rect x="34.16" y="3" width="419.032" height="288.28"/>
  </clipPath>
 </defs>
</svg>
