<?xml version="1.0" encoding="utf-8" standalone="no"?>
<!DOCTYPE svg PUBLIC "-//W3C//DTD SVG 1.1//EN"
  "http://www.w3.org/Graphics/SVG/1.1/DTD/svg11.dtd">
<svg xmlns:xlink="http://www.w3.org/1999/xlink" width="460.8pt" height="345.6pt" viewBox="0 0 460.8 345.6" xmlns="http://www.w3.org/2000/svg" version="1.1">
 <metadata>
  <rdf:RDF xmlns:dc="http://purl.org/dc/elements/1.1/" xmlns:cc="http://creativecommons.org/ns#" xmlns:rdf="http://www.w3.org/1999/02/22-rdf-syntax-ns#">
   <cc:Work>
    <dc:type rdf:resource="http://purl.org/dc/dcmitype/StillImage"/>
    <dc:date>2024-06-19T19:28:35.188221</dc:date>
    <dc:format>image/svg+xml</dc:format>
    <dc:creator>
     <cc:Agent>
      <dc:title>Matplotlib v3.5.2, https://matplotlib.org/</dc:title>
     </cc:Agent>
    </dc:creator>
   </cc:Work>
  </rdf:RDF>
 </metadata>
 <defs>
  <style type="text/css">*{stroke-linejoin: round; stroke-linecap: butt}</style>
 </defs>
 <g id="figure_1">
  <g id="patch_1">
   <path d="M 0 345.6 
L 460.8 345.6 
L 460.8 0 
L 0 0 
z
" style="fill: #ffffff"/>
  </g>
  <g id="axes_1">
   <g id="patch_2">
    <path d="M 62.208 293.76 
L 460.8 293.76 
L 460.8 3.456 
L 62.208 3.456 
z
" style="fill: #ffffff"/>
   </g>
   <g id="line2d_1"/>
   <g id="line2d_2"/>
   <g id="line2d_3">
    <path d="M 180.764808 293.76 
L 180.764808 289.927604 
L 207.236414 289.927604 
L 207.236414 286.095208 
L 218.935482 286.095208 
L 218.935482 282.262812 
L 238.218669 282.262812 
L 238.218669 278.430416 
L 242.134123 278.430416 
L 242.134123 274.59802 
L 242.393704 274.59802 
L 242.393704 270.765624 
L 244.015749 270.765624 
L 244.015749 266.933228 
L 249.833873 266.933228 
L 249.833873 263.100832 
L 257.544767 263.100832 
L 257.544767 259.268436 
L 262.931794 259.268436 
L 262.931794 255.43604 
L 263.596985 255.43604 
L 263.596985 251.603644 
L 266.884546 251.603644 
L 266.884546 247.771248 
L 275.982656 247.771248 
L 275.982656 243.938851 
L 297.76461 243.938851 
L 297.76461 240.106455 
L 299.088963 240.106455 
L 299.088963 236.274059 
L 299.810272 236.274059 
L 299.810272 232.441663 
L 299.810272 232.441663 
L 299.810272 232.441663 
L 460.8 232.441663 
" clip-path="url(#p0c7d084058)" style="fill: none; stroke: #f5deb3; stroke-width: 1.5; stroke-linecap: square"/>
   </g>
   <g id="line2d_4">
    <path d="M 203.147673 293.76 
L 203.147673 289.927604 
L 209.654185 289.927604 
L 209.654185 286.095208 
L 213.133401 286.095208 
L 213.133401 282.262812 
L 226.338572 282.262812 
L 226.338572 278.430416 
L 228.634532 278.430416 
L 228.634532 274.59802 
L 258.089134 274.59802 
L 258.089134 270.765624 
L 259.984286 270.765624 
L 259.984286 266.933228 
L 262.543304 266.933228 
L 262.543304 263.100832 
L 266.370318 263.100832 
L 266.370318 259.268436 
L 267.72107 259.268436 
L 267.72107 255.43604 
L 271.600512 255.43604 
L 271.600512 251.603644 
L 273.423025 251.603644 
L 273.423025 247.771248 
L 274.409158 247.771248 
L 274.409158 243.938851 
L 276.967661 243.938851 
L 276.967661 240.106455 
L 279.815626 240.106455 
L 279.815626 236.274059 
L 279.929294 236.274059 
L 279.929294 232.441663 
L 280.819993 232.441663 
L 280.819993 228.609267 
L 282.718383 228.609267 
L 282.718383 224.776871 
L 284.565822 224.776871 
L 284.565822 220.944475 
L 284.680658 220.944475 
L 284.680658 217.112079 
L 286.394033 217.112079 
L 286.394033 213.279683 
L 286.596489 213.279683 
L 286.596489 209.447287 
L 290.49386 209.447287 
L 290.49386 205.614891 
L 292.94804 205.614891 
L 292.94804 201.782495 
L 293.275518 201.782495 
L 293.275518 197.950099 
L 295.239027 197.950099 
L 295.239027 194.117703 
L 295.239027 194.117703 
L 295.239027 194.117703 
L 460.8 194.117703 
" clip-path="url(#p0c7d084058)" style="fill: none; stroke: #f5deb3; stroke-width: 1.5; stroke-linecap: square"/>
   </g>
   <g id="line2d_5"/>
   <g id="line2d_6"/>
   <g id="line2d_7">
    <path d="M 184.381268 293.76 
L 184.381268 289.927604 
L 232.686176 289.927604 
L 232.686176 286.095208 
L 233.355624 286.095208 
L 233.355624 282.262812 
L 259.639074 282.262812 
L 259.639074 278.430416 
L 261.207527 278.430416 
L 261.207527 274.59802 
L 281.229146 274.59802 
L 281.229146 270.765624 
L 285.410377 270.765624 
L 285.410377 266.933228 
L 288.679847 266.933228 
L 288.679847 263.100832 
L 291.000497 263.100832 
L 291.000497 259.268436 
L 306.199666 259.268436 
L 306.199666 255.43604 
L 319.371577 255.43604 
L 319.371577 251.603644 
L 323.355169 251.603644 
L 323.355169 247.771248 
L 325.281965 247.771248 
L 325.281965 243.938851 
L 330.319105 243.938851 
L 330.319105 240.106455 
L 355.216903 240.106455 
L 355.216903 236.274059 
L 361.955108 236.274059 
L 361.955108 232.441663 
L 400.122529 232.441663 
L 400.122529 228.609267 
L 405.112207 228.609267 
L 405.112207 224.776871 
L 407.342582 224.776871 
L 407.342582 220.944475 
L 411.165854 220.944475 
L 411.165854 217.112079 
L 428.535016 217.112079 
L 428.535016 213.279683 
L 431.039826 213.279683 
L 431.039826 209.447287 
L 438.959716 209.447287 
L 438.959716 205.614891 
L 448.181354 205.614891 
L 448.181354 201.782495 
L 452.017253 201.782495 
L 452.017253 197.950099 
L 461.8 197.950099 
" clip-path="url(#p0c7d084058)" style="fill: none; stroke: #f5deb3; stroke-width: 1.5; stroke-linecap: square"/>
   </g>
   <g id="line2d_8"/>
   <g id="line2d_9">
    <path d="M 184.265418 293.76 
L 184.265418 289.927604 
L 185.099439 289.927604 
L 185.099439 286.095208 
L 217.454439 286.095208 
L 217.454439 282.262812 
L 238.571752 282.262812 
L 238.571752 278.430416 
L 254.613758 278.430416 
L 254.613758 274.59802 
L 256.676045 274.59802 
L 256.676045 270.765624 
L 282.1753 270.765624 
L 282.1753 266.933228 
L 293.825158 266.933228 
L 293.825158 263.100832 
L 305.065035 263.100832 
L 305.065035 259.268436 
L 307.538061 259.268436 
L 307.538061 255.43604 
L 307.92093 255.43604 
L 307.92093 251.603644 
L 308.073596 251.603644 
L 308.073596 247.771248 
L 317.836473 247.771248 
L 317.836473 243.938851 
L 318.028742 243.938851 
L 318.028742 240.106455 
L 318.649385 240.106455 
L 318.649385 236.274059 
L 319.121053 236.274059 
L 319.121053 232.441663 
L 320.426511 232.441663 
L 320.426511 228.609267 
L 328.273921 228.609267 
L 328.273921 224.776871 
L 328.628519 224.776871 
L 328.628519 220.944475 
L 332.737366 220.944475 
L 332.737366 217.112079 
L 333.470266 217.112079 
L 333.470266 213.279683 
L 333.739589 213.279683 
L 333.739589 209.447287 
L 334.229992 209.447287 
L 334.229992 205.614891 
L 340.092747 205.614891 
L 340.092747 201.782495 
L 341.325005 201.782495 
L 341.325005 197.950099 
L 342.782039 197.950099 
L 342.782039 194.117703 
L 345.155314 194.117703 
L 345.155314 190.285307 
L 345.218197 190.285307 
L 345.218197 186.452911 
L 346.586652 186.452911 
L 346.586652 182.620515 
L 347.011554 182.620515 
L 347.011554 178.788119 
L 347.090826 178.788119 
L 347.090826 174.955723 
L 358.325503 174.955723 
L 358.325503 171.123327 
L 361.993415 171.123327 
L 361.993415 167.290931 
L 367.513853 167.290931 
L 367.513853 163.458535 
L 367.77529 163.458535 
L 367.77529 159.626139 
L 369.295385 159.626139 
L 369.295385 155.793743 
L 369.41092 155.793743 
L 369.41092 151.961347 
L 370.413295 151.961347 
L 370.413295 148.12895 
L 389.484858 148.12895 
L 389.484858 144.296554 
L 389.516635 144.296554 
L 389.516635 140.464158 
L 389.705011 140.464158 
L 389.705011 136.631762 
L 389.772573 136.631762 
L 389.772573 132.799366 
L 389.792026 132.799366 
L 389.792026 128.96697 
L 390.095598 128.96697 
L 390.095598 125.134574 
L 390.341607 125.134574 
L 390.341607 121.302178 
L 390.633687 121.302178 
L 390.633687 117.469782 
L 390.722853 117.469782 
L 390.722853 113.637386 
L 395.42718 113.637386 
L 395.42718 109.80499 
L 399.660194 109.80499 
L 399.660194 105.972594 
L 404.180601 105.972594 
L 404.180601 102.140198 
L 404.180601 102.140198 
L 404.180601 102.140198 
L 460.8 102.140198 
" clip-path="url(#p0c7d084058)" style="fill: none; stroke: #f5deb3; stroke-width: 1.5; stroke-linecap: square"/>
   </g>
   <g id="line2d_10">
    <path d="M 314.381476 293.76 
L 314.381476 289.927604 
L 343.08299 289.927604 
L 343.08299 286.095208 
L 343.08299 286.095208 
L 343.08299 286.095208 
L 460.8 286.095208 
" clip-path="url(#p0c7d084058)" style="fill: none; stroke: #f5deb3; stroke-width: 1.5; stroke-linecap: square"/>
   </g>
   <g id="line2d_11">
    <path d="M 202.775439 293.76 
L 202.775439 289.927604 
L 217.733285 289.927604 
L 217.733285 286.095208 
L 232.276766 286.095208 
L 232.276766 282.262812 
L 233.175395 282.262812 
L 233.175395 278.430416 
L 239.467026 278.430416 
L 239.467026 274.59802 
L 249.429332 274.59802 
L 249.429332 270.765624 
L 256.493325 270.765624 
L 256.493325 266.933228 
L 265.676573 266.933228 
L 265.676573 263.100832 
L 265.843184 263.100832 
L 265.843184 259.268436 
L 272.235202 259.268436 
L 272.235202 255.43604 
L 272.598569 255.43604 
L 272.598569 251.603644 
L 272.99579 251.603644 
L 272.99579 247.771248 
L 277.492 247.771248 
L 277.492 243.938851 
L 284.762442 243.938851 
L 284.762442 240.106455 
L 287.032929 240.106455 
L 287.032929 236.274059 
L 287.987717 236.274059 
L 287.987717 232.441663 
L 289.556315 232.441663 
L 289.556315 228.609267 
L 295.434488 228.609267 
L 295.434488 224.776871 
L 296.157838 224.776871 
L 296.157838 220.944475 
L 297.204404 220.944475 
L 297.204404 217.112079 
L 302.1197 217.112079 
L 302.1197 213.279683 
L 304.889533 213.279683 
L 304.889533 209.447287 
L 306.214833 209.447287 
L 306.214833 205.614891 
L 308.739143 205.614891 
L 308.739143 201.782495 
L 312.004724 201.782495 
L 312.004724 197.950099 
L 323.928887 197.950099 
L 323.928887 194.117703 
L 326.694118 194.117703 
L 326.694118 190.285307 
L 330.498446 190.285307 
L 330.498446 186.452911 
L 335.995626 186.452911 
L 335.995626 182.620515 
L 344.175941 182.620515 
L 344.175941 178.788119 
L 344.175941 178.788119 
L 344.175941 178.788119 
L 460.8 178.788119 
" clip-path="url(#p0c7d084058)" style="fill: none; stroke: #f5deb3; stroke-width: 1.5; stroke-linecap: square"/>
   </g>
   <g id="line2d_12">
    <path d="M 212.092282 293.76 
L 212.092282 289.927604 
L 269.844387 289.927604 
L 269.844387 286.095208 
L 269.844387 286.095208 
L 269.844387 286.095208 
L 460.8 286.095208 
" clip-path="url(#p0c7d084058)" style="fill: none; stroke: #f5deb3; stroke-width: 1.5; stroke-linecap: square"/>
   </g>
   <g id="line2d_13"/>
   <g id="line2d_14">
    <path d="M 170.153115 293.76 
L 170.153115 289.927604 
L 191.518981 289.927604 
L 191.518981 286.095208 
L 211.474526 286.095208 
L 211.474526 282.262812 
L 221.766481 282.262812 
L 221.766481 278.430416 
L 227.824764 278.430416 
L 227.824764 274.59802 
L 230.045473 274.59802 
L 230.045473 270.765624 
L 233.184173 270.765624 
L 233.184173 266.933228 
L 241.679188 266.933228 
L 241.679188 263.100832 
L 247.779824 263.100832 
L 247.779824 259.268436 
L 255.593873 259.268436 
L 255.593873 255.43604 
L 262.925116 255.43604 
L 262.925116 251.603644 
L 273.506375 251.603644 
L 273.506375 247.771248 
L 278.560417 247.771248 
L 278.560417 243.938851 
L 289.203713 243.938851 
L 289.203713 240.106455 
L 290.438916 240.106455 
L 290.438916 236.274059 
L 291.06628 236.274059 
L 291.06628 232.441663 
L 293.082793 232.441663 
L 293.082793 228.609267 
L 293.825158 228.609267 
L 293.825158 224.776871 
L 294.482586 224.776871 
L 294.482586 220.944475 
L 296.830746 220.944475 
L 296.830746 217.112079 
L 299.632089 217.112079 
L 299.632089 213.279683 
L 300.0202 213.279683 
L 300.0202 209.447287 
L 300.0202 209.447287 
L 300.0202 209.447287 
L 460.8 209.447287 
" clip-path="url(#p0c7d084058)" style="fill: none; stroke: #f5deb3; stroke-width: 1.5; stroke-linecap: square"/>
   </g>
   <g id="line2d_15"/>
   <g id="line2d_16">
    <path d="M 244.464688 293.76 
L 244.464688 289.927604 
L 268.320801 289.927604 
L 268.320801 286.095208 
L 274.541687 286.095208 
L 274.541687 282.262812 
L 276.009868 282.262812 
L 276.009868 278.430416 
L 282.387709 278.430416 
L 282.387709 274.59802 
L 299.402386 274.59802 
L 299.402386 270.765624 
L 316.757946 270.765624 
L 316.757946 266.933228 
L 316.827862 266.933228 
L 316.827862 263.100832 
L 322.515896 263.100832 
L 322.515896 259.268436 
L 332.1602 259.268436 
L 332.1602 255.43604 
L 339.293037 255.43604 
L 339.293037 251.603644 
L 347.712961 251.603644 
L 347.712961 247.771248 
L 349.42578 247.771248 
L 349.42578 243.938851 
L 349.993174 243.938851 
L 349.993174 240.106455 
L 350.422945 240.106455 
L 350.422945 236.274059 
L 351.152954 236.274059 
L 351.152954 232.441663 
L 357.051589 232.441663 
L 357.051589 228.609267 
L 363.314253 228.609267 
L 363.314253 224.776871 
L 364.23795 224.776871 
L 364.23795 220.944475 
L 376.61853 220.944475 
L 376.61853 217.112079 
L 378.448214 217.112079 
L 378.448214 213.279683 
L 378.698534 213.279683 
L 378.698534 209.447287 
L 381.662933 209.447287 
L 381.662933 205.614891 
L 385.191632 205.614891 
L 385.191632 201.782495 
L 387.960876 201.782495 
L 387.960876 197.950099 
L 389.162069 197.950099 
L 389.162069 194.117703 
L 397.542029 194.117703 
L 397.542029 190.285307 
L 398.750071 190.285307 
L 398.750071 186.452911 
L 406.096751 186.452911 
L 406.096751 182.620515 
L 406.096751 182.620515 
L 406.096751 182.620515 
L 460.8 182.620515 
" clip-path="url(#p0c7d084058)" style="fill: none; stroke: #f5deb3; stroke-width: 1.5; stroke-linecap: square"/>
   </g>
   <g id="line2d_17"/>
   <g id="line2d_18">
    <path d="M 164.189495 293.76 
L 164.189495 289.927604 
L 198.798306 289.927604 
L 198.798306 286.095208 
L 204.548193 286.095208 
L 204.548193 282.262812 
L 208.101612 282.262812 
L 208.101612 278.430416 
L 210.346066 278.430416 
L 210.346066 274.59802 
L 213.906142 274.59802 
L 213.906142 270.765624 
L 214.258525 270.765624 
L 214.258525 266.933228 
L 220.728364 266.933228 
L 220.728364 263.100832 
L 223.621711 263.100832 
L 223.621711 259.268436 
L 230.50699 259.268436 
L 230.50699 255.43604 
L 234.145559 255.43604 
L 234.145559 251.603644 
L 235.322613 251.603644 
L 235.322613 247.771248 
L 242.100559 247.771248 
L 242.100559 243.938851 
L 242.922064 243.938851 
L 242.922064 240.106455 
L 243.594138 240.106455 
L 243.594138 236.274059 
L 245.476713 236.274059 
L 245.476713 232.441663 
L 246.156671 232.441663 
L 246.156671 228.609267 
L 257.838371 228.609267 
L 257.838371 224.776871 
L 267.179941 224.776871 
L 267.179941 220.944475 
L 267.806021 220.944475 
L 267.806021 217.112079 
L 274.321143 217.112079 
L 274.321143 213.279683 
L 275.074874 213.279683 
L 275.074874 209.447287 
L 275.074874 209.447287 
L 275.074874 209.447287 
L 460.8 209.447287 
" clip-path="url(#p0c7d084058)" style="fill: none; stroke: #f5deb3; stroke-width: 1.5; stroke-linecap: square"/>
   </g>
   <g id="line2d_19">
    <path d="M 283.374402 293.76 
L 283.374402 289.927604 
L 286.610093 289.927604 
L 286.610093 286.095208 
L 288.806127 286.095208 
L 288.806127 282.262812 
L 292.093802 282.262812 
L 292.093802 278.430416 
L 292.150028 278.430416 
L 292.150028 274.59802 
L 292.337287 274.59802 
L 292.337287 270.765624 
L 293.383706 270.765624 
L 293.383706 266.933228 
L 293.83663 266.933228 
L 293.83663 263.100832 
L 294.300329 263.100832 
L 294.300329 259.268436 
L 294.358579 259.268436 
L 294.358579 255.43604 
L 299.437597 255.43604 
L 299.437597 251.603644 
L 305.777937 251.603644 
L 305.777937 247.771248 
L 311.0572 247.771248 
L 311.0572 243.938851 
L 313.865738 243.938851 
L 313.865738 240.106455 
L 329.62189 240.106455 
L 329.62189 236.274059 
L 383.803121 236.274059 
L 383.803121 232.441663 
L 383.803121 232.441663 
L 383.803121 232.441663 
L 460.8 232.441663 
" clip-path="url(#p0c7d084058)" style="fill: none; stroke: #f5deb3; stroke-width: 1.5; stroke-linecap: square"/>
   </g>
   <g id="line2d_20">
    <path d="M 190.029204 293.76 
L 190.029204 289.927604 
L 194.33461 289.927604 
L 194.33461 286.095208 
L 223.232806 286.095208 
L 223.232806 282.262812 
L 228.129535 282.262812 
L 228.129535 278.430416 
L 232.648572 278.430416 
L 232.648572 274.59802 
L 234.553321 274.59802 
L 234.553321 270.765624 
L 236.008397 270.765624 
L 236.008397 266.933228 
L 236.201268 266.933228 
L 236.201268 263.100832 
L 245.546498 263.100832 
L 245.546498 259.268436 
L 254.743092 259.268436 
L 254.743092 255.43604 
L 256.853966 255.43604 
L 256.853966 251.603644 
L 258.483917 251.603644 
L 258.483917 247.771248 
L 258.598622 247.771248 
L 258.598622 243.938851 
L 259.011678 243.938851 
L 259.011678 240.106455 
L 260.03225 240.106455 
L 260.03225 236.274059 
L 265.077677 236.274059 
L 265.077677 232.441663 
L 265.22374 232.441663 
L 265.22374 228.609267 
L 265.985993 228.609267 
L 265.985993 224.776871 
L 266.882157 224.776871 
L 266.882157 220.944475 
L 270.202329 220.944475 
L 270.202329 217.112079 
L 272.377376 217.112079 
L 272.377376 213.279683 
L 276.266791 213.279683 
L 276.266791 209.447287 
L 288.173304 209.447287 
L 288.173304 205.614891 
L 298.083357 205.614891 
L 298.083357 201.782495 
L 309.752323 201.782495 
L 309.752323 197.950099 
L 310.106722 197.950099 
L 310.106722 194.117703 
L 314.265113 194.117703 
L 314.265113 190.285307 
L 316.401908 190.285307 
L 316.401908 186.452911 
L 316.401908 186.452911 
L 316.401908 186.452911 
L 460.8 186.452911 
" clip-path="url(#p0c7d084058)" style="fill: none; stroke: #f5deb3; stroke-width: 1.5; stroke-linecap: square"/>
   </g>
   <g id="line2d_21">
    <path d="M 297.318923 293.76 
L 297.318923 289.927604 
L 297.318923 289.927604 
L 297.318923 289.927604 
L 460.8 289.927604 
" clip-path="url(#p0c7d084058)" style="fill: none; stroke: #f5deb3; stroke-width: 1.5; stroke-linecap: square"/>
   </g>
   <g id="line2d_22">
    <path d="M 257.068383 293.76 
L 257.068383 289.927604 
L 275.055024 289.927604 
L 275.055024 286.095208 
L 281.786851 286.095208 
L 281.786851 282.262812 
L 283.426646 282.262812 
L 283.426646 278.430416 
L 285.422518 278.430416 
L 285.422518 274.59802 
L 289.540391 274.59802 
L 289.540391 270.765624 
L 296.548554 270.765624 
L 296.548554 266.933228 
L 296.709967 266.933228 
L 296.709967 263.100832 
L 298.646079 263.100832 
L 298.646079 259.268436 
L 298.646079 259.268436 
L 298.646079 259.268436 
L 460.8 259.268436 
" clip-path="url(#p0c7d084058)" style="fill: none; stroke: #f5deb3; stroke-width: 1.5; stroke-linecap: square"/>
   </g>
   <g id="line2d_23">
    <path d="M 242.045768 293.76 
L 242.045768 289.927604 
L 242.045768 289.927604 
L 242.045768 289.927604 
L 460.8 289.927604 
" clip-path="url(#p0c7d084058)" style="fill: none; stroke: #f5deb3; stroke-width: 1.5; stroke-linecap: square"/>
   </g>
   <g id="line2d_24">
    <path d="M 284.653259 293.76 
L 284.653259 289.927604 
L 289.287088 289.927604 
L 289.287088 286.095208 
L 291.262817 286.095208 
L 291.262817 282.262812 
L 318.653072 282.262812 
L 318.653072 278.430416 
L 318.678285 278.430416 
L 318.678285 274.59802 
L 319.540382 274.59802 
L 319.540382 270.765624 
L 319.636643 270.765624 
L 319.636643 266.933228 
L 319.777798 266.933228 
L 319.777798 263.100832 
L 322.700384 263.100832 
L 322.700384 259.268436 
L 324.962804 259.268436 
L 324.962804 255.43604 
L 326.340281 255.43604 
L 326.340281 251.603644 
L 328.737323 251.603644 
L 328.737323 247.771248 
L 343.120981 247.771248 
L 343.120981 243.938851 
L 350.411717 243.938851 
L 350.411717 240.106455 
L 352.176972 240.106455 
L 352.176972 236.274059 
L 382.583473 236.274059 
L 382.583473 232.441663 
L 383.570015 232.441663 
L 383.570015 228.609267 
L 388.018499 228.609267 
L 388.018499 224.776871 
L 400.591666 224.776871 
L 400.591666 220.944475 
L 401.342684 220.944475 
L 401.342684 217.112079 
L 401.7243 217.112079 
L 401.7243 213.279683 
L 402.819651 213.279683 
L 402.819651 209.447287 
L 405.2139 209.447287 
L 405.2139 205.614891 
L 417.518549 205.614891 
L 417.518549 201.782495 
L 417.518549 201.782495 
L 417.518549 201.782495 
L 460.8 201.782495 
" clip-path="url(#p0c7d084058)" style="fill: none; stroke: #f5deb3; stroke-width: 1.5; stroke-linecap: square"/>
   </g>
   <g id="line2d_25">
    <path d="M 287.25723 293.76 
L 287.25723 289.927604 
L 287.560974 289.927604 
L 287.560974 286.095208 
L 288.334634 286.095208 
L 288.334634 282.262812 
L 288.334634 282.262812 
L 288.334634 282.262812 
L 460.8 282.262812 
" clip-path="url(#p0c7d084058)" style="fill: none; stroke: #f5deb3; stroke-width: 1.5; stroke-linecap: square"/>
   </g>
   <g id="line2d_26">
    <path d="M 229.020838 293.76 
L 229.020838 290.530453 
L 280.198879 290.530453 
L 280.198879 287.300906 
L 298.590129 287.300906 
L 298.590129 284.071358 
L 300.151505 284.071358 
L 300.151505 280.841811 
L 319.326242 280.841811 
L 319.326242 277.612264 
L 323.351447 277.612264 
L 323.351447 274.382717 
L 323.351447 274.382717 
L 323.351447 274.382717 
L 460.8 274.382717 
" clip-path="url(#p0c7d084058)" style="fill: none; stroke: #f5deb3; stroke-width: 1.5; stroke-linecap: square"/>
   </g>
   <g id="line2d_27">
    <path d="M 180.009559 293.76 
L 180.009559 289.927604 
L 209.987392 289.927604 
L 209.987392 286.095208 
L 212.23065 286.095208 
L 212.23065 282.262812 
L 215.108473 282.262812 
L 215.108473 278.430416 
L 225.692646 278.430416 
L 225.692646 274.59802 
L 230.32533 274.59802 
L 230.32533 270.765624 
L 240.0727 270.765624 
L 240.0727 266.933228 
L 240.665844 266.933228 
L 240.665844 263.100832 
L 247.930225 263.100832 
L 247.930225 259.268436 
L 259.563139 259.268436 
L 259.563139 255.43604 
L 267.893909 255.43604 
L 267.893909 251.603644 
L 271.885175 251.603644 
L 271.885175 247.771248 
L 272.672392 247.771248 
L 272.672392 243.938851 
L 282.145116 243.938851 
L 282.145116 240.106455 
L 284.931186 240.106455 
L 284.931186 236.274059 
L 289.687114 236.274059 
L 289.687114 232.441663 
L 292.282183 232.441663 
L 292.282183 228.609267 
L 292.492664 228.609267 
L 292.492664 224.776871 
L 295.631632 224.776871 
L 295.631632 220.944475 
L 302.682255 220.944475 
L 302.682255 217.112079 
L 312.024534 217.112079 
L 312.024534 213.279683 
L 316.692097 213.279683 
L 316.692097 209.447287 
L 318.260866 209.447287 
L 318.260866 205.614891 
L 325.298484 205.614891 
L 325.298484 201.782495 
L 325.298484 201.782495 
L 325.298484 201.782495 
L 460.8 201.782495 
" clip-path="url(#p0c7d084058)" style="fill: none; stroke: #f5deb3; stroke-width: 1.5; stroke-linecap: square"/>
   </g>
   <g id="line2d_28">
    <path d="M 282.035203 293.76 
L 282.035203 289.927604 
L 282.166301 289.927604 
L 282.166301 286.095208 
L 283.858957 286.095208 
L 283.858957 282.262812 
L 311.489916 282.262812 
L 311.489916 278.430416 
L 311.841662 278.430416 
L 311.841662 274.59802 
L 333.424752 274.59802 
L 333.424752 270.765624 
L 335.245265 270.765624 
L 335.245265 266.933228 
L 335.897782 266.933228 
L 335.897782 263.100832 
L 347.808164 263.100832 
L 347.808164 259.268436 
L 352.054606 259.268436 
L 352.054606 255.43604 
L 352.96412 255.43604 
L 352.96412 251.603644 
L 353.90827 251.603644 
L 353.90827 247.771248 
L 356.986667 247.771248 
L 356.986667 243.938851 
L 360.668781 243.938851 
L 360.668781 240.106455 
L 361.831777 240.106455 
L 361.831777 236.274059 
L 362.044913 236.274059 
L 362.044913 232.441663 
L 367.11866 232.441663 
L 367.11866 228.609267 
L 372.258406 228.609267 
L 372.258406 224.776871 
L 379.900622 224.776871 
L 379.900622 220.944475 
L 381.022831 220.944475 
L 381.022831 217.112079 
L 381.256934 217.112079 
L 381.256934 213.279683 
L 386.161058 213.279683 
L 386.161058 209.447287 
L 390.542856 209.447287 
L 390.542856 205.614891 
L 393.59228 205.614891 
L 393.59228 201.782495 
L 399.918883 201.782495 
L 399.918883 197.950099 
L 400.555986 197.950099 
L 400.555986 194.117703 
L 402.738734 194.117703 
L 402.738734 190.285307 
L 402.738734 190.285307 
L 402.738734 190.285307 
L 460.8 190.285307 
" clip-path="url(#p0c7d084058)" style="fill: none; stroke: #f5deb3; stroke-width: 1.5; stroke-linecap: square"/>
   </g>
   <g id="line2d_29">
    <path d="M 257.895208 293.76 
L 257.895208 289.927604 
L 274.361252 289.927604 
L 274.361252 286.095208 
L 274.361252 286.095208 
L 274.361252 286.095208 
L 460.8 286.095208 
" clip-path="url(#p0c7d084058)" style="fill: none; stroke: #f5deb3; stroke-width: 1.5; stroke-linecap: square"/>
   </g>
   <g id="line2d_30">
    <path d="M 220.362307 293.76 
L 220.362307 289.927604 
L 237.941167 289.927604 
L 237.941167 286.095208 
L 255.575398 286.095208 
L 255.575398 282.262812 
L 260.431192 282.262812 
L 260.431192 278.430416 
L 276.215876 278.430416 
L 276.215876 274.59802 
L 281.432276 274.59802 
L 281.432276 270.765624 
L 289.414049 270.765624 
L 289.414049 266.933228 
L 298.860342 266.933228 
L 298.860342 263.100832 
L 299.51072 263.100832 
L 299.51072 259.268436 
L 300.136169 259.268436 
L 300.136169 255.43604 
L 300.136169 255.43604 
L 300.136169 255.43604 
L 460.8 255.43604 
" clip-path="url(#p0c7d084058)" style="fill: none; stroke: #f5deb3; stroke-width: 1.5; stroke-linecap: square"/>
   </g>
   <g id="matplotlib.axis_1">
    <g id="xtick_1">
     <g id="line2d_31">
      <path d="M 62.208 293.76 
L 62.208 3.456 
" clip-path="url(#p0c7d084058)" style="fill: none; stroke: #b0b0b0; stroke-width: 0.8; stroke-linecap: square"/>
     </g>
     <g id="line2d_32">
      <defs>
       <path id="m484cd49129" d="M 0 0 
L 0 3.5 
" style="stroke: #000000; stroke-width: 0.8"/>
      </defs>
      <g>
       <use xlink:href="#m484cd49129" x="62.208" y="293.76" style="stroke: #000000; stroke-width: 0.8"/>
      </g>
     </g>
     <g id="text_1">
      <!-- 0 -->
      <g transform="translate(55.8455 315.956875)scale(0.2 -0.2)">
       <defs>
        <path id="DejaVuSans-30" d="M 2034 4250 
Q 1547 4250 1301 3770 
Q 1056 3291 1056 2328 
Q 1056 1369 1301 889 
Q 1547 409 2034 409 
Q 2525 409 2770 889 
Q 3016 1369 3016 2328 
Q 3016 3291 2770 3770 
Q 2525 4250 2034 4250 
z
M 2034 4750 
Q 2819 4750 3233 4129 
Q 3647 3509 3647 2328 
Q 3647 1150 3233 529 
Q 2819 -91 2034 -91 
Q 1250 -91 836 529 
Q 422 1150 422 2328 
Q 422 3509 836 4129 
Q 1250 4750 2034 4750 
z
" transform="scale(0.015625)"/>
       </defs>
       <use xlink:href="#DejaVuSans-30"/>
      </g>
     </g>
    </g>
    <g id="xtick_2">
     <g id="line2d_33">
      <path d="M 181.446916 293.76 
L 181.446916 3.456 
" clip-path="url(#p0c7d084058)" style="fill: none; stroke: #b0b0b0; stroke-width: 0.8; stroke-linecap: square"/>
     </g>
     <g id="line2d_34">
      <g>
       <use xlink:href="#m484cd49129" x="181.446916" y="293.76" style="stroke: #000000; stroke-width: 0.8"/>
      </g>
     </g>
     <g id="text_2">
      <!-- 2 -->
      <g transform="translate(175.084416 315.956875)scale(0.2 -0.2)">
       <defs>
        <path id="DejaVuSans-32" d="M 1228 531 
L 3431 531 
L 3431 0 
L 469 0 
L 469 531 
Q 828 903 1448 1529 
Q 2069 2156 2228 2338 
Q 2531 2678 2651 2914 
Q 2772 3150 2772 3378 
Q 2772 3750 2511 3984 
Q 2250 4219 1831 4219 
Q 1534 4219 1204 4116 
Q 875 4013 500 3803 
L 500 4441 
Q 881 4594 1212 4672 
Q 1544 4750 1819 4750 
Q 2544 4750 2975 4387 
Q 3406 4025 3406 3419 
Q 3406 3131 3298 2873 
Q 3191 2616 2906 2266 
Q 2828 2175 2409 1742 
Q 1991 1309 1228 531 
z
" transform="scale(0.015625)"/>
       </defs>
       <use xlink:href="#DejaVuSans-32"/>
      </g>
     </g>
    </g>
    <g id="xtick_3">
     <g id="line2d_35">
      <path d="M 300.685833 293.76 
L 300.685833 3.456 
" clip-path="url(#p0c7d084058)" style="fill: none; stroke: #b0b0b0; stroke-width: 0.8; stroke-linecap: square"/>
     </g>
     <g id="line2d_36">
      <g>
       <use xlink:href="#m484cd49129" x="300.685833" y="293.76" style="stroke: #000000; stroke-width: 0.8"/>
      </g>
     </g>
     <g id="text_3">
      <!-- 4 -->
      <g transform="translate(294.323333 315.956875)scale(0.2 -0.2)">
       <defs>
        <path id="DejaVuSans-34" d="M 2419 4116 
L 825 1625 
L 2419 1625 
L 2419 4116 
z
M 2253 4666 
L 3047 4666 
L 3047 1625 
L 3713 1625 
L 3713 1100 
L 3047 1100 
L 3047 0 
L 2419 0 
L 2419 1100 
L 313 1100 
L 313 1709 
L 2253 4666 
z
" transform="scale(0.015625)"/>
       </defs>
       <use xlink:href="#DejaVuSans-34"/>
      </g>
     </g>
    </g>
    <g id="xtick_4">
     <g id="line2d_37">
      <path d="M 419.924749 293.76 
L 419.924749 3.456 
" clip-path="url(#p0c7d084058)" style="fill: none; stroke: #b0b0b0; stroke-width: 0.8; stroke-linecap: square"/>
     </g>
     <g id="line2d_38">
      <g>
       <use xlink:href="#m484cd49129" x="419.924749" y="293.76" style="stroke: #000000; stroke-width: 0.8"/>
      </g>
     </g>
     <g id="text_4">
      <!-- 6 -->
      <g transform="translate(413.562249 315.956875)scale(0.2 -0.2)">
       <defs>
        <path id="DejaVuSans-36" d="M 2113 2584 
Q 1688 2584 1439 2293 
Q 1191 2003 1191 1497 
Q 1191 994 1439 701 
Q 1688 409 2113 409 
Q 2538 409 2786 701 
Q 3034 994 3034 1497 
Q 3034 2003 2786 2293 
Q 2538 2584 2113 2584 
z
M 3366 4563 
L 3366 3988 
Q 3128 4100 2886 4159 
Q 2644 4219 2406 4219 
Q 1781 4219 1451 3797 
Q 1122 3375 1075 2522 
Q 1259 2794 1537 2939 
Q 1816 3084 2150 3084 
Q 2853 3084 3261 2657 
Q 3669 2231 3669 1497 
Q 3669 778 3244 343 
Q 2819 -91 2113 -91 
Q 1303 -91 875 529 
Q 447 1150 447 2328 
Q 447 3434 972 4092 
Q 1497 4750 2381 4750 
Q 2619 4750 2861 4703 
Q 3103 4656 3366 4563 
z
" transform="scale(0.015625)"/>
       </defs>
       <use xlink:href="#DejaVuSans-36"/>
      </g>
     </g>
    </g>
    <g id="text_5">
     <!-- log10 of FEvals / DIM -->
     <g transform="translate(156.430563 339.313125)scale(0.2 -0.2)">
      <defs>
       <path id="DejaVuSans-6c" d="M 603 4863 
L 1178 4863 
L 1178 0 
L 603 0 
L 603 4863 
z
" transform="scale(0.015625)"/>
       <path id="DejaVuSans-6f" d="M 1959 3097 
Q 1497 3097 1228 2736 
Q 959 2375 959 1747 
Q 959 1119 1226 758 
Q 1494 397 1959 397 
Q 2419 397 2687 759 
Q 2956 1122 2956 1747 
Q 2956 2369 2687 2733 
Q 2419 3097 1959 3097 
z
M 1959 3584 
Q 2709 3584 3137 3096 
Q 3566 2609 3566 1747 
Q 3566 888 3137 398 
Q 2709 -91 1959 -91 
Q 1206 -91 779 398 
Q 353 888 353 1747 
Q 353 2609 779 3096 
Q 1206 3584 1959 3584 
z
" transform="scale(0.015625)"/>
       <path id="DejaVuSans-67" d="M 2906 1791 
Q 2906 2416 2648 2759 
Q 2391 3103 1925 3103 
Q 1463 3103 1205 2759 
Q 947 2416 947 1791 
Q 947 1169 1205 825 
Q 1463 481 1925 481 
Q 2391 481 2648 825 
Q 2906 1169 2906 1791 
z
M 3481 434 
Q 3481 -459 3084 -895 
Q 2688 -1331 1869 -1331 
Q 1566 -1331 1297 -1286 
Q 1028 -1241 775 -1147 
L 775 -588 
Q 1028 -725 1275 -790 
Q 1522 -856 1778 -856 
Q 2344 -856 2625 -561 
Q 2906 -266 2906 331 
L 2906 616 
Q 2728 306 2450 153 
Q 2172 0 1784 0 
Q 1141 0 747 490 
Q 353 981 353 1791 
Q 353 2603 747 3093 
Q 1141 3584 1784 3584 
Q 2172 3584 2450 3431 
Q 2728 3278 2906 2969 
L 2906 3500 
L 3481 3500 
L 3481 434 
z
" transform="scale(0.015625)"/>
       <path id="DejaVuSans-31" d="M 794 531 
L 1825 531 
L 1825 4091 
L 703 3866 
L 703 4441 
L 1819 4666 
L 2450 4666 
L 2450 531 
L 3481 531 
L 3481 0 
L 794 0 
L 794 531 
z
" transform="scale(0.015625)"/>
       <path id="DejaVuSans-20" transform="scale(0.015625)"/>
       <path id="DejaVuSans-66" d="M 2375 4863 
L 2375 4384 
L 1825 4384 
Q 1516 4384 1395 4259 
Q 1275 4134 1275 3809 
L 1275 3500 
L 2222 3500 
L 2222 3053 
L 1275 3053 
L 1275 0 
L 697 0 
L 697 3053 
L 147 3053 
L 147 3500 
L 697 3500 
L 697 3744 
Q 697 4328 969 4595 
Q 1241 4863 1831 4863 
L 2375 4863 
z
" transform="scale(0.015625)"/>
       <path id="DejaVuSans-46" d="M 628 4666 
L 3309 4666 
L 3309 4134 
L 1259 4134 
L 1259 2759 
L 3109 2759 
L 3109 2228 
L 1259 2228 
L 1259 0 
L 628 0 
L 628 4666 
z
" transform="scale(0.015625)"/>
       <path id="DejaVuSans-45" d="M 628 4666 
L 3578 4666 
L 3578 4134 
L 1259 4134 
L 1259 2753 
L 3481 2753 
L 3481 2222 
L 1259 2222 
L 1259 531 
L 3634 531 
L 3634 0 
L 628 0 
L 628 4666 
z
" transform="scale(0.015625)"/>
       <path id="DejaVuSans-76" d="M 191 3500 
L 800 3500 
L 1894 563 
L 2988 3500 
L 3597 3500 
L 2284 0 
L 1503 0 
L 191 3500 
z
" transform="scale(0.015625)"/>
       <path id="DejaVuSans-61" d="M 2194 1759 
Q 1497 1759 1228 1600 
Q 959 1441 959 1056 
Q 959 750 1161 570 
Q 1363 391 1709 391 
Q 2188 391 2477 730 
Q 2766 1069 2766 1631 
L 2766 1759 
L 2194 1759 
z
M 3341 1997 
L 3341 0 
L 2766 0 
L 2766 531 
Q 2569 213 2275 61 
Q 1981 -91 1556 -91 
Q 1019 -91 701 211 
Q 384 513 384 1019 
Q 384 1609 779 1909 
Q 1175 2209 1959 2209 
L 2766 2209 
L 2766 2266 
Q 2766 2663 2505 2880 
Q 2244 3097 1772 3097 
Q 1472 3097 1187 3025 
Q 903 2953 641 2809 
L 641 3341 
Q 956 3463 1253 3523 
Q 1550 3584 1831 3584 
Q 2591 3584 2966 3190 
Q 3341 2797 3341 1997 
z
" transform="scale(0.015625)"/>
       <path id="DejaVuSans-73" d="M 2834 3397 
L 2834 2853 
Q 2591 2978 2328 3040 
Q 2066 3103 1784 3103 
Q 1356 3103 1142 2972 
Q 928 2841 928 2578 
Q 928 2378 1081 2264 
Q 1234 2150 1697 2047 
L 1894 2003 
Q 2506 1872 2764 1633 
Q 3022 1394 3022 966 
Q 3022 478 2636 193 
Q 2250 -91 1575 -91 
Q 1294 -91 989 -36 
Q 684 19 347 128 
L 347 722 
Q 666 556 975 473 
Q 1284 391 1588 391 
Q 1994 391 2212 530 
Q 2431 669 2431 922 
Q 2431 1156 2273 1281 
Q 2116 1406 1581 1522 
L 1381 1569 
Q 847 1681 609 1914 
Q 372 2147 372 2553 
Q 372 3047 722 3315 
Q 1072 3584 1716 3584 
Q 2034 3584 2315 3537 
Q 2597 3491 2834 3397 
z
" transform="scale(0.015625)"/>
       <path id="DejaVuSans-2f" d="M 1625 4666 
L 2156 4666 
L 531 -594 
L 0 -594 
L 1625 4666 
z
" transform="scale(0.015625)"/>
       <path id="DejaVuSans-44" d="M 1259 4147 
L 1259 519 
L 2022 519 
Q 2988 519 3436 956 
Q 3884 1394 3884 2338 
Q 3884 3275 3436 3711 
Q 2988 4147 2022 4147 
L 1259 4147 
z
M 628 4666 
L 1925 4666 
Q 3281 4666 3915 4102 
Q 4550 3538 4550 2338 
Q 4550 1131 3912 565 
Q 3275 0 1925 0 
L 628 0 
L 628 4666 
z
" transform="scale(0.015625)"/>
       <path id="DejaVuSans-49" d="M 628 4666 
L 1259 4666 
L 1259 0 
L 628 0 
L 628 4666 
z
" transform="scale(0.015625)"/>
       <path id="DejaVuSans-4d" d="M 628 4666 
L 1569 4666 
L 2759 1491 
L 3956 4666 
L 4897 4666 
L 4897 0 
L 4281 0 
L 4281 4097 
L 3078 897 
L 2444 897 
L 1241 4097 
L 1241 0 
L 628 0 
L 628 4666 
z
" transform="scale(0.015625)"/>
      </defs>
      <use xlink:href="#DejaVuSans-6c"/>
      <use xlink:href="#DejaVuSans-6f" x="27.783203"/>
      <use xlink:href="#DejaVuSans-67" x="88.964844"/>
      <use xlink:href="#DejaVuSans-31" x="152.441406"/>
      <use xlink:href="#DejaVuSans-30" x="216.064453"/>
      <use xlink:href="#DejaVuSans-20" x="279.6875"/>
      <use xlink:href="#DejaVuSans-6f" x="311.474609"/>
      <use xlink:href="#DejaVuSans-66" x="372.65625"/>
      <use xlink:href="#DejaVuSans-20" x="407.861328"/>
      <use xlink:href="#DejaVuSans-46" x="439.648438"/>
      <use xlink:href="#DejaVuSans-45" x="497.167969"/>
      <use xlink:href="#DejaVuSans-76" x="560.351562"/>
      <use xlink:href="#DejaVuSans-61" x="619.53125"/>
      <use xlink:href="#DejaVuSans-6c" x="680.810547"/>
      <use xlink:href="#DejaVuSans-73" x="708.59375"/>
      <use xlink:href="#DejaVuSans-20" x="760.693359"/>
      <use xlink:href="#DejaVuSans-2f" x="792.480469"/>
      <use xlink:href="#DejaVuSans-20" x="826.171875"/>
      <use xlink:href="#DejaVuSans-44" x="857.958984"/>
      <use xlink:href="#DejaVuSans-49" x="934.960938"/>
      <use xlink:href="#DejaVuSans-4d" x="964.453125"/>
     </g>
    </g>
   </g>
   <g id="matplotlib.axis_2">
    <g id="ytick_1">
     <g id="line2d_39">
      <path d="M 62.208 293.76 
L 460.8 293.76 
" clip-path="url(#p0c7d084058)" style="fill: none; stroke: #b0b0b0; stroke-width: 0.8; stroke-linecap: square"/>
     </g>
     <g id="line2d_40">
      <defs>
       <path id="m068994c7f3" d="M 0 0 
L -3.5 0 
" style="stroke: #000000; stroke-width: 0.8"/>
      </defs>
      <g>
       <use xlink:href="#m068994c7f3" x="62.208" y="293.76" style="stroke: #000000; stroke-width: 0.8"/>
      </g>
     </g>
     <g id="text_6">
      <!-- 0.0 -->
      <g transform="translate(29.763 299.83875)scale(0.16 -0.16)">
       <defs>
        <path id="DejaVuSans-2e" d="M 684 794 
L 1344 794 
L 1344 0 
L 684 0 
L 684 794 
z
" transform="scale(0.015625)"/>
       </defs>
       <use xlink:href="#DejaVuSans-30"/>
       <use xlink:href="#DejaVuSans-2e" x="63.623047"/>
       <use xlink:href="#DejaVuSans-30" x="95.410156"/>
      </g>
     </g>
    </g>
    <g id="ytick_2">
     <g id="line2d_41">
      <path d="M 62.208 236.274059 
L 460.8 236.274059 
" clip-path="url(#p0c7d084058)" style="fill: none; stroke: #b0b0b0; stroke-width: 0.8; stroke-linecap: square"/>
     </g>
     <g id="line2d_42">
      <g>
       <use xlink:href="#m068994c7f3" x="62.208" y="236.274059" style="stroke: #000000; stroke-width: 0.8"/>
      </g>
     </g>
     <g id="text_7">
      <!-- 0.2 -->
      <g transform="translate(29.763 242.352809)scale(0.16 -0.16)">
       <use xlink:href="#DejaVuSans-30"/>
       <use xlink:href="#DejaVuSans-2e" x="63.623047"/>
       <use xlink:href="#DejaVuSans-32" x="95.410156"/>
      </g>
     </g>
    </g>
    <g id="ytick_3">
     <g id="line2d_43">
      <path d="M 62.208 178.788119 
L 460.8 178.788119 
" clip-path="url(#p0c7d084058)" style="fill: none; stroke: #b0b0b0; stroke-width: 0.8; stroke-linecap: square"/>
     </g>
     <g id="line2d_44">
      <g>
       <use xlink:href="#m068994c7f3" x="62.208" y="178.788119" style="stroke: #000000; stroke-width: 0.8"/>
      </g>
     </g>
     <g id="text_8">
      <!-- 0.4 -->
      <g transform="translate(29.763 184.866869)scale(0.16 -0.16)">
       <use xlink:href="#DejaVuSans-30"/>
       <use xlink:href="#DejaVuSans-2e" x="63.623047"/>
       <use xlink:href="#DejaVuSans-34" x="95.410156"/>
      </g>
     </g>
    </g>
    <g id="ytick_4">
     <g id="line2d_45">
      <path d="M 62.208 121.302178 
L 460.8 121.302178 
" clip-path="url(#p0c7d084058)" style="fill: none; stroke: #b0b0b0; stroke-width: 0.8; stroke-linecap: square"/>
     </g>
     <g id="line2d_46">
      <g>
       <use xlink:href="#m068994c7f3" x="62.208" y="121.302178" style="stroke: #000000; stroke-width: 0.8"/>
      </g>
     </g>
     <g id="text_9">
      <!-- 0.6 -->
      <g transform="translate(29.763 127.380928)scale(0.16 -0.16)">
       <use xlink:href="#DejaVuSans-30"/>
       <use xlink:href="#DejaVuSans-2e" x="63.623047"/>
       <use xlink:href="#DejaVuSans-36" x="95.410156"/>
      </g>
     </g>
    </g>
    <g id="ytick_5">
     <g id="line2d_47">
      <path d="M 62.208 63.816238 
L 460.8 63.816238 
" clip-path="url(#p0c7d084058)" style="fill: none; stroke: #b0b0b0; stroke-width: 0.8; stroke-linecap: square"/>
     </g>
     <g id="line2d_48">
      <g>
       <use xlink:href="#m068994c7f3" x="62.208" y="63.816238" style="stroke: #000000; stroke-width: 0.8"/>
      </g>
     </g>
     <g id="text_10">
      <!-- 0.8 -->
      <g transform="translate(29.763 69.894988)scale(0.16 -0.16)">
       <defs>
        <path id="DejaVuSans-38" d="M 2034 2216 
Q 1584 2216 1326 1975 
Q 1069 1734 1069 1313 
Q 1069 891 1326 650 
Q 1584 409 2034 409 
Q 2484 409 2743 651 
Q 3003 894 3003 1313 
Q 3003 1734 2745 1975 
Q 2488 2216 2034 2216 
z
M 1403 2484 
Q 997 2584 770 2862 
Q 544 3141 544 3541 
Q 544 4100 942 4425 
Q 1341 4750 2034 4750 
Q 2731 4750 3128 4425 
Q 3525 4100 3525 3541 
Q 3525 3141 3298 2862 
Q 3072 2584 2669 2484 
Q 3125 2378 3379 2068 
Q 3634 1759 3634 1313 
Q 3634 634 3220 271 
Q 2806 -91 2034 -91 
Q 1263 -91 848 271 
Q 434 634 434 1313 
Q 434 1759 690 2068 
Q 947 2378 1403 2484 
z
M 1172 3481 
Q 1172 3119 1398 2916 
Q 1625 2713 2034 2713 
Q 2441 2713 2670 2916 
Q 2900 3119 2900 3481 
Q 2900 3844 2670 4047 
Q 2441 4250 2034 4250 
Q 1625 4250 1398 4047 
Q 1172 3844 1172 3481 
z
" transform="scale(0.015625)"/>
       </defs>
       <use xlink:href="#DejaVuSans-30"/>
       <use xlink:href="#DejaVuSans-2e" x="63.623047"/>
       <use xlink:href="#DejaVuSans-38" x="95.410156"/>
      </g>
     </g>
    </g>
    <g id="ytick_6">
     <g id="line2d_49">
      <path d="M 62.208 6.330297 
L 460.8 6.330297 
" clip-path="url(#p0c7d084058)" style="fill: none; stroke: #b0b0b0; stroke-width: 0.8; stroke-linecap: square"/>
     </g>
     <g id="line2d_50">
      <g>
       <use xlink:href="#m068994c7f3" x="62.208" y="6.330297" style="stroke: #000000; stroke-width: 0.8"/>
      </g>
     </g>
     <g id="text_11">
      <!-- 1.0 -->
      <g transform="translate(29.763 12.409047)scale(0.16 -0.16)">
       <use xlink:href="#DejaVuSans-31"/>
       <use xlink:href="#DejaVuSans-2e" x="63.623047"/>
       <use xlink:href="#DejaVuSans-30" x="95.410156"/>
      </g>
     </g>
    </g>
    <g id="text_12">
     <!-- proportion of trials -->
     <g transform="translate(21.603625 241.61425)rotate(-90)scale(0.2 -0.2)">
      <defs>
       <path id="DejaVuSans-70" d="M 1159 525 
L 1159 -1331 
L 581 -1331 
L 581 3500 
L 1159 3500 
L 1159 2969 
Q 1341 3281 1617 3432 
Q 1894 3584 2278 3584 
Q 2916 3584 3314 3078 
Q 3713 2572 3713 1747 
Q 3713 922 3314 415 
Q 2916 -91 2278 -91 
Q 1894 -91 1617 61 
Q 1341 213 1159 525 
z
M 3116 1747 
Q 3116 2381 2855 2742 
Q 2594 3103 2138 3103 
Q 1681 3103 1420 2742 
Q 1159 2381 1159 1747 
Q 1159 1113 1420 752 
Q 1681 391 2138 391 
Q 2594 391 2855 752 
Q 3116 1113 3116 1747 
z
" transform="scale(0.015625)"/>
       <path id="DejaVuSans-72" d="M 2631 2963 
Q 2534 3019 2420 3045 
Q 2306 3072 2169 3072 
Q 1681 3072 1420 2755 
Q 1159 2438 1159 1844 
L 1159 0 
L 581 0 
L 581 3500 
L 1159 3500 
L 1159 2956 
Q 1341 3275 1631 3429 
Q 1922 3584 2338 3584 
Q 2397 3584 2469 3576 
Q 2541 3569 2628 3553 
L 2631 2963 
z
" transform="scale(0.015625)"/>
       <path id="DejaVuSans-74" d="M 1172 4494 
L 1172 3500 
L 2356 3500 
L 2356 3053 
L 1172 3053 
L 1172 1153 
Q 1172 725 1289 603 
Q 1406 481 1766 481 
L 2356 481 
L 2356 0 
L 1766 0 
Q 1100 0 847 248 
Q 594 497 594 1153 
L 594 3053 
L 172 3053 
L 172 3500 
L 594 3500 
L 594 4494 
L 1172 4494 
z
" transform="scale(0.015625)"/>
       <path id="DejaVuSans-69" d="M 603 3500 
L 1178 3500 
L 1178 0 
L 603 0 
L 603 3500 
z
M 603 4863 
L 1178 4863 
L 1178 4134 
L 603 4134 
L 603 4863 
z
" transform="scale(0.015625)"/>
       <path id="DejaVuSans-6e" d="M 3513 2113 
L 3513 0 
L 2938 0 
L 2938 2094 
Q 2938 2591 2744 2837 
Q 2550 3084 2163 3084 
Q 1697 3084 1428 2787 
Q 1159 2491 1159 1978 
L 1159 0 
L 581 0 
L 581 3500 
L 1159 3500 
L 1159 2956 
Q 1366 3272 1645 3428 
Q 1925 3584 2291 3584 
Q 2894 3584 3203 3211 
Q 3513 2838 3513 2113 
z
" transform="scale(0.015625)"/>
      </defs>
      <use xlink:href="#DejaVuSans-70"/>
      <use xlink:href="#DejaVuSans-72" x="63.476562"/>
      <use xlink:href="#DejaVuSans-6f" x="102.339844"/>
      <use xlink:href="#DejaVuSans-70" x="163.521484"/>
      <use xlink:href="#DejaVuSans-6f" x="226.998047"/>
      <use xlink:href="#DejaVuSans-72" x="288.179688"/>
      <use xlink:href="#DejaVuSans-74" x="329.292969"/>
      <use xlink:href="#DejaVuSans-69" x="368.501953"/>
      <use xlink:href="#DejaVuSans-6f" x="396.285156"/>
      <use xlink:href="#DejaVuSans-6e" x="457.466797"/>
      <use xlink:href="#DejaVuSans-20" x="520.845703"/>
      <use xlink:href="#DejaVuSans-6f" x="552.632812"/>
      <use xlink:href="#DejaVuSans-66" x="613.814453"/>
      <use xlink:href="#DejaVuSans-20" x="649.019531"/>
      <use xlink:href="#DejaVuSans-74" x="680.806641"/>
      <use xlink:href="#DejaVuSans-72" x="720.015625"/>
      <use xlink:href="#DejaVuSans-69" x="761.128906"/>
      <use xlink:href="#DejaVuSans-61" x="788.912109"/>
      <use xlink:href="#DejaVuSans-6c" x="850.191406"/>
      <use xlink:href="#DejaVuSans-73" x="877.974609"/>
     </g>
    </g>
   </g>
   <g id="line2d_51">
    <path d="M -1 286.095208 
L 13.087007 286.095208 
L 13.087007 278.430416 
L 20.535787 278.430416 
L 20.535787 274.59802 
L 26.31351 274.59802 
L 26.31351 266.933228 
L 31.034253 266.933228 
L 31.034253 255.43604 
L 38.483032 255.43604 
L 38.483032 251.603644 
L 41.532718 251.603644 
L 41.532718 247.771248 
L 51.053996 247.771248 
L 51.053996 240.106455 
L 57.999995 240.106455 
L 57.999995 236.274059 
L 199.58763 236.274059 
L 199.58763 220.944475 
L 199.747757 220.944475 
L 199.760524 178.788119 
L 199.900552 178.788119 
L 199.944948 128.96697 
L 200.071376 128.96697 
L 200.083985 121.302178 
L 200.234815 121.302178 
L 200.241081 109.80499 
L 200.372308 109.80499 
L 200.372308 105.972594 
L 200.527669 105.972594 
L 200.55863 98.307802 
L 200.737475 98.307802 
L 200.737475 94.475406 
L 201.200396 94.475406 
L 201.254671 86.810614 
L 203.745472 86.810614 
L 203.745472 82.978218 
L 205.881869 82.978218 
L 205.982442 75.313426 
L 206.057616 75.313426 
L 206.057616 71.48103 
L 206.425313 71.48103 
L 206.425313 67.648634 
L 206.67572 67.648634 
L 206.67572 63.816238 
L 327.158844 63.816238 
L 327.158844 59.983842 
L 330.76669 59.983842 
L 330.76669 56.151446 
L 332.750991 56.151446 
L 332.750991 52.31905 
L 334.251886 52.31905 
L 334.251886 48.486653 
L 334.478126 48.486653 
L 334.478126 44.654257 
L 337.448377 44.654257 
L 337.448377 40.821861 
L 340.782703 40.821861 
L 340.782703 36.989465 
L 341.527308 36.989465 
L 341.527308 33.157069 
L 342.899097 33.157069 
L 342.899097 29.324673 
L 343.408072 29.324673 
L 343.408072 25.492277 
L 345.53655 25.492277 
L 345.53655 21.659881 
L 345.820814 21.659881 
L 345.820814 17.827485 
L 347.009758 17.827485 
L 347.009758 13.995089 
L 347.448087 13.995089 
L 347.448087 10.162693 
L 350.206265 10.162693 
L 350.206265 6.330297 
L 350.206265 6.330297 
L 460.8 6.330297 
L 460.8 6.330297 
" clip-path="url(#p0c7d084058)" style="fill: none; stroke: #000000; stroke-width: 1.5; stroke-linecap: square"/>
   </g>
   <g id="line2d_52">
    <defs>
     <path id="m98161e80b8" d="M -0 14.142136 
L 8.485281 0 
L -0 -14.142136 
L -8.485281 -0 
z
" style="stroke: #000000; stroke-width: 1.5; stroke-linejoin: miter"/>
    </defs>
    <g clip-path="url(#p0c7d084058)">
     <use xlink:href="#m98161e80b8" x="199.906899" y="174.955723" style="fill-opacity: 0; stroke: #000000; stroke-width: 1.5; stroke-linejoin: miter"/>
     <use xlink:href="#m98161e80b8" x="201.200396" y="94.475406" style="fill-opacity: 0; stroke: #000000; stroke-width: 1.5; stroke-linejoin: miter"/>
     <use xlink:href="#m98161e80b8" x="206.425313" y="71.48103" style="fill-opacity: 0; stroke: #000000; stroke-width: 1.5; stroke-linejoin: miter"/>
     <use xlink:href="#m98161e80b8" x="334.251886" y="52.31905" style="fill-opacity: 0; stroke: #000000; stroke-width: 1.5; stroke-linejoin: miter"/>
     <use xlink:href="#m98161e80b8" x="350.206265" y="10.162693" style="fill-opacity: 0; stroke: #000000; stroke-width: 1.5; stroke-linejoin: miter"/>
     <use xlink:href="#m98161e80b8" x="350.206265" y="6.330297" style="fill-opacity: 0; stroke: #000000; stroke-width: 1.5; stroke-linejoin: miter"/>
    </g>
   </g>
   <g id="line2d_53">
    <path clip-path="url(#p0c7d084058)" style="fill: none; stroke: #000000; stroke-width: 1.5; stroke-linecap: square"/>
    <g clip-path="url(#p0c7d084058)">
     <use xlink:href="#m98161e80b8" x="-1" y="581.189703" style="fill-opacity: 0; stroke: #000000; stroke-width: 1.5; stroke-linejoin: miter"/>
     <use xlink:href="#m98161e80b8" x="460.8" y="581.189703" style="fill-opacity: 0; stroke: #000000; stroke-width: 1.5; stroke-linejoin: miter"/>
    </g>
   </g>
   <g id="line2d_54">
    <path d="M -1 286.095208 
L 2.588542 286.095208 
L 2.588542 282.262812 
L 13.087007 282.262812 
L 13.087007 274.59802 
L 20.535787 274.59802 
L 20.535787 266.933228 
L 26.31351 266.933228 
L 26.31351 263.100832 
L 31.034253 263.100832 
L 31.034253 255.43604 
L 35.025584 255.43604 
L 35.025584 251.603644 
L 38.483032 251.603644 
L 38.483032 243.938851 
L 57.999995 243.938851 
L 57.999995 236.274059 
L 199.574777 236.274059 
L 199.574777 217.112079 
L 199.741371 217.112079 
L 199.754141 194.117703 
L 199.913245 194.117703 
L 199.938611 182.620515 
L 200.102887 182.620515 
L 200.115481 171.123327 
L 200.291151 171.123327 
L 200.291151 167.290931 
L 200.459425 167.290931 
L 200.459425 163.458535 
L 200.632785 163.458535 
L 200.632785 159.626139 
L 200.957786 159.626139 
L 200.957786 155.793743 
L 211.881337 155.793743 
L 211.909297 144.296554 
L 212.008906 144.296554 
L 212.120015 132.799366 
L 212.33296 132.799366 
L 212.344739 125.134574 
L 212.446601 125.134574 
L 212.446601 121.302178 
L 212.563638 121.302178 
L 212.66852 109.80499 
L 212.687897 109.80499 
L 212.687897 105.972594 
L 213.634937 105.972594 
L 213.634937 102.140198 
L 219.961767 102.140198 
L 219.961767 98.307802 
L 220.605968 98.307802 
L 220.680044 86.810614 
L 220.850185 86.810614 
L 220.923566 75.313426 
L 221.002361 75.313426 
L 221.002361 71.48103 
L 221.615999 71.48103 
L 221.615999 67.648634 
L 222.029764 67.648634 
L 222.029764 63.816238 
L 336.515835 63.816238 
L 336.515835 59.983842 
L 337.252713 59.983842 
L 337.252713 56.151446 
L 345.984967 56.151446 
L 345.984967 52.31905 
L 347.453617 52.31905 
L 347.453617 48.486653 
L 350.831703 48.486653 
L 350.831703 44.654257 
L 351.346722 44.654257 
L 351.346722 40.821861 
L 353.15597 40.821861 
L 353.15597 36.989465 
L 363.34936 36.989465 
L 363.34936 33.157069 
L 373.824664 33.157069 
L 373.824664 29.324673 
L 377.429464 29.324673 
L 377.429464 25.492277 
L 383.995451 25.492277 
L 383.995451 21.659881 
L 385.339536 21.659881 
L 385.339536 17.827485 
L 398.988769 17.827485 
L 398.988769 13.995089 
L 398.988769 13.995089 
L 460.8 13.995089 
L 460.8 13.995089 
" clip-path="url(#p0c7d084058)" style="fill: none; stroke: #000000; stroke-width: 1.5; stroke-linecap: square"/>
   </g>
   <g id="line2d_55">
    <defs>
     <path id="mde48f58812" d="M 0 7.5 
C 1.989023 7.5 3.896849 6.709753 5.303301 5.303301 
C 6.709753 3.896849 7.5 1.989023 7.5 0 
C 7.5 -1.989023 6.709753 -3.896849 5.303301 -5.303301 
C 3.896849 -6.709753 1.989023 -7.5 0 -7.5 
C -1.989023 -7.5 -3.896849 -6.709753 -5.303301 -5.303301 
C -6.709753 -3.896849 -7.5 -1.989023 -7.5 0 
C -7.5 1.989023 -6.709753 3.896849 -5.303301 5.303301 
C -3.896849 6.709753 -1.989023 7.5 0 7.5 
z
" style="stroke: #000000; stroke-width: 1.5"/>
    </defs>
    <g clip-path="url(#p0c7d084058)">
     <use xlink:href="#mde48f58812" x="212.120015" y="136.631762" style="fill-opacity: 0; stroke: #000000; stroke-width: 1.5"/>
     <use xlink:href="#mde48f58812" x="221.615999" y="71.48103" style="fill-opacity: 0; stroke: #000000; stroke-width: 1.5"/>
     <use xlink:href="#mde48f58812" x="222.029764" y="67.648634" style="fill-opacity: 0; stroke: #000000; stroke-width: 1.5"/>
     <use xlink:href="#mde48f58812" x="353.15597" y="40.821861" style="fill-opacity: 0; stroke: #000000; stroke-width: 1.5"/>
     <use xlink:href="#mde48f58812" x="398.988769" y="17.827485" style="fill-opacity: 0; stroke: #000000; stroke-width: 1.5"/>
     <use xlink:href="#mde48f58812" x="398.988769" y="13.995089" style="fill-opacity: 0; stroke: #000000; stroke-width: 1.5"/>
    </g>
   </g>
   <g id="line2d_56">
    <path clip-path="url(#p0c7d084058)" style="fill: none; stroke: #000000; stroke-width: 1.5; stroke-linecap: square"/>
   </g>
   <g id="line2d_57">
    <path d="M 200.725181 293.76 
L 200.725181 289.927604 
L 201.02473 289.927604 
L 201.02473 282.262812 
L 201.488559 282.262812 
L 201.488559 278.430416 
L 201.814851 278.430416 
L 201.814851 274.59802 
L 204.033864 274.59802 
L 204.033864 270.765624 
L 206.909206 270.765624 
L 206.909206 266.933228 
L 212.056582 266.933228 
L 212.056582 263.100832 
L 221.178776 263.100832 
L 221.276268 255.43604 
L 224.137137 255.43604 
L 224.137137 251.603644 
L 225.18605 251.603644 
L 225.18605 247.771248 
L 232.293122 247.771248 
L 232.293122 243.938851 
L 238.127465 243.938851 
L 238.127465 240.106455 
L 249.24969 240.106455 
L 249.24969 236.274059 
L 250.862342 236.274059 
L 250.862342 232.441663 
L 256.07471 232.441663 
L 256.07471 228.609267 
L 257.628897 228.609267 
L 257.628897 224.776871 
L 257.855977 224.776871 
L 257.855977 220.944475 
L 261.410127 220.944475 
L 261.410127 217.112079 
L 298.793018 217.112079 
L 298.793018 213.279683 
L 299.088825 213.279683 
L 299.088825 209.447287 
L 301.213162 209.447287 
L 301.213162 205.614891 
L 301.395314 205.614891 
L 301.395314 201.782495 
L 301.822934 201.782495 
L 301.822934 197.950099 
L 303.042183 197.950099 
L 303.042183 194.117703 
L 304.901087 194.117703 
L 304.901087 190.285307 
L 313.959881 190.285307 
L 313.959881 186.452911 
L 373.31907 186.452911 
L 373.31907 182.620515 
L 374.039443 182.620515 
L 374.039443 178.788119 
L 376.330254 178.788119 
L 376.330254 174.955723 
L 376.965981 174.955723 
L 376.965981 171.123327 
L 378.77913 171.123327 
L 378.77913 167.290931 
L 379.302501 167.290931 
L 379.302501 163.458535 
L 380.005149 163.458535 
L 380.005149 159.626139 
L 380.746701 159.626139 
L 380.746701 155.793743 
L 381.296749 155.793743 
L 381.296749 151.961347 
L 381.523813 151.961347 
L 381.523813 148.12895 
L 382.233264 148.12895 
L 382.233264 144.296554 
L 382.911035 144.296554 
L 382.911035 140.464158 
L 384.827804 140.464158 
L 384.879824 132.799366 
L 385.392691 132.799366 
L 385.392691 128.96697 
L 385.685959 128.96697 
L 385.685959 125.134574 
L 387.030695 125.134574 
L 387.030695 121.302178 
L 388.842761 121.302178 
L 388.842761 117.469782 
L 390.432632 117.469782 
L 390.432632 113.637386 
L 390.619097 113.637386 
L 390.619097 109.80499 
L 398.585266 109.80499 
L 398.585266 105.972594 
L 400.783529 105.972594 
L 400.83628 98.307802 
L 400.906717 98.307802 
L 400.906717 94.475406 
L 401.859359 94.475406 
L 401.859359 90.64301 
L 401.983668 90.64301 
L 401.983668 86.810614 
L 402.503994 86.810614 
L 402.503994 82.978218 
L 405.183882 82.978218 
L 405.183882 79.145822 
L 405.832888 79.145822 
L 405.832888 75.313426 
L 408.322151 75.313426 
L 408.322151 71.48103 
L 411.207987 71.48103 
L 411.207987 67.648634 
L 414.411587 67.648634 
L 414.411587 63.816238 
L 415.656619 63.816238 
L 415.656619 59.983842 
L 419.987384 59.983842 
L 419.987384 56.151446 
L 424.397363 56.151446 
L 424.397363 52.31905 
L 424.920615 52.31905 
L 424.920615 48.486653 
L 425.183092 48.486653 
L 425.183092 44.654257 
L 425.499165 44.654257 
L 425.508447 36.989465 
L 425.761923 36.989465 
L 425.761923 33.157069 
L 426.268346 33.157069 
L 426.268346 29.324673 
L 427.077745 29.324673 
L 427.077745 25.492277 
L 430.65329 25.492277 
L 430.65329 21.659881 
L 432.473575 21.659881 
L 432.473575 17.827485 
L 432.473575 17.827485 
L 460.8 17.827485 
L 460.8 17.827485 
" clip-path="url(#p0c7d084058)" style="fill: none; stroke: #00bfbf; stroke-width: 1.5; stroke-linecap: square"/>
   </g>
   <g id="line2d_58">
    <defs>
     <path id="maa96db47a6" d="M -0 14.142136 
L 8.485281 0 
L -0 -14.142136 
L -8.485281 -0 
z
" style="stroke: #00bfbf; stroke-width: 1.5; stroke-linejoin: miter"/>
    </defs>
    <g clip-path="url(#p0c7d084058)">
     <use xlink:href="#maa96db47a6" x="257.855977" y="224.776871" style="fill-opacity: 0; stroke: #00bfbf; stroke-width: 1.5; stroke-linejoin: miter"/>
     <use xlink:href="#maa96db47a6" x="304.901087" y="194.117703" style="fill-opacity: 0; stroke: #00bfbf; stroke-width: 1.5; stroke-linejoin: miter"/>
     <use xlink:href="#maa96db47a6" x="384.879824" y="136.631762" style="fill-opacity: 0; stroke: #00bfbf; stroke-width: 1.5; stroke-linejoin: miter"/>
     <use xlink:href="#maa96db47a6" x="415.656619" y="63.816238" style="fill-opacity: 0; stroke: #00bfbf; stroke-width: 1.5; stroke-linejoin: miter"/>
     <use xlink:href="#maa96db47a6" x="432.473575" y="21.659881" style="fill-opacity: 0; stroke: #00bfbf; stroke-width: 1.5; stroke-linejoin: miter"/>
     <use xlink:href="#maa96db47a6" x="432.473575" y="17.827485" style="fill-opacity: 0; stroke: #00bfbf; stroke-width: 1.5; stroke-linejoin: miter"/>
    </g>
   </g>
   <g id="line2d_59">
    <path clip-path="url(#p0c7d084058)" style="fill: none; stroke: #00bfbf; stroke-width: 1.5; stroke-linecap: square"/>
    <g clip-path="url(#p0c7d084058)">
     <use xlink:href="#maa96db47a6" x="-1" y="581.189703" style="fill-opacity: 0; stroke: #00bfbf; stroke-width: 1.5; stroke-linejoin: miter"/>
     <use xlink:href="#maa96db47a6" x="460.8" y="581.189703" style="fill-opacity: 0; stroke: #00bfbf; stroke-width: 1.5; stroke-linejoin: miter"/>
    </g>
   </g>
   <g id="line2d_60">
    <path d="M 258.015909 293.76 
L 258.015909 289.927604 
L 258.623606 289.927604 
L 258.623606 286.095208 
L 258.877977 286.095208 
L 258.877977 282.262812 
L 259.942478 282.262812 
L 259.942478 278.430416 
L 260.215192 278.430416 
L 260.215192 274.59802 
L 262.800707 274.59802 
L 262.800707 270.765624 
L 263.904798 270.765624 
L 263.904798 266.933228 
L 264.419459 266.933228 
L 264.419459 263.100832 
L 266.547059 263.100832 
L 266.547059 259.268436 
L 267.100487 259.268436 
L 267.100487 255.43604 
L 268.56769 255.43604 
L 268.56769 251.603644 
L 270.009587 251.603644 
L 270.009587 247.771248 
L 270.016783 247.771248 
L 270.016783 243.938851 
L 276.138147 243.938851 
L 276.138147 240.106455 
L 280.003357 240.106455 
L 280.003357 236.274059 
L 296.317714 236.274059 
L 296.317714 232.441663 
L 329.049983 232.441663 
L 329.049983 228.609267 
L 329.314044 228.609267 
L 329.314044 224.776871 
L 331.692203 224.776871 
L 331.692203 220.944475 
L 331.774708 220.944475 
L 331.774708 217.112079 
L 332.848109 217.112079 
L 332.848109 213.279683 
L 334.219464 213.279683 
L 334.219464 209.447287 
L 334.622487 209.447287 
L 334.622487 205.614891 
L 335.246697 205.614891 
L 335.246697 201.782495 
L 335.275713 201.782495 
L 335.275713 197.950099 
L 337.273834 197.950099 
L 337.273834 194.117703 
L 337.589274 194.117703 
L 337.589274 190.285307 
L 337.662137 190.285307 
L 337.662137 186.452911 
L 338.616596 186.452911 
L 338.616596 182.620515 
L 339.781438 182.620515 
L 339.781438 178.788119 
L 341.18025 178.788119 
L 341.18025 174.955723 
L 363.903228 174.955723 
L 363.903228 171.123327 
L 377.878597 171.123327 
L 377.878597 167.290931 
L 379.805097 167.290931 
L 379.805097 163.458535 
L 384.267893 163.458535 
L 384.267893 159.626139 
L 388.349608 159.626139 
L 388.349608 155.793743 
L 389.669441 155.793743 
L 389.669441 151.961347 
L 390.479371 151.961347 
L 390.479371 148.12895 
L 391.780779 148.12895 
L 391.780779 144.296554 
L 391.780779 144.296554 
L 391.780779 144.296554 
L 460.8 144.296554 
" clip-path="url(#p0c7d084058)" style="fill: none; stroke: #00bfbf; stroke-width: 1.5; stroke-linecap: square"/>
   </g>
   <g id="line2d_61">
    <defs>
     <path id="m013dd41204" d="M 0 7.5 
C 1.989023 7.5 3.896849 6.709753 5.303301 5.303301 
C 6.709753 3.896849 7.5 1.989023 7.5 0 
C 7.5 -1.989023 6.709753 -3.896849 5.303301 -5.303301 
C 3.896849 -6.709753 1.989023 -7.5 0 -7.5 
C -1.989023 -7.5 -3.896849 -6.709753 -5.303301 -5.303301 
C -6.709753 -3.896849 -7.5 -1.989023 -7.5 0 
C -7.5 1.989023 -6.709753 3.896849 -5.303301 5.303301 
C -3.896849 6.709753 -1.989023 7.5 0 7.5 
z
" style="stroke: #00bfbf; stroke-width: 1.5"/>
    </defs>
    <g clip-path="url(#p0c7d084058)">
     <use xlink:href="#m013dd41204" x="270.016783" y="247.771248" style="fill-opacity: 0; stroke: #00bfbf; stroke-width: 1.5"/>
     <use xlink:href="#m013dd41204" x="280.003357" y="240.106455" style="fill-opacity: 0; stroke: #00bfbf; stroke-width: 1.5"/>
     <use xlink:href="#m013dd41204" x="339.781438" y="182.620515" style="fill-opacity: 0; stroke: #00bfbf; stroke-width: 1.5"/>
     <use xlink:href="#m013dd41204" x="384.267893" y="163.458535" style="fill-opacity: 0; stroke: #00bfbf; stroke-width: 1.5"/>
     <use xlink:href="#m013dd41204" x="391.780779" y="144.296554" style="fill-opacity: 0; stroke: #00bfbf; stroke-width: 1.5"/>
    </g>
   </g>
   <g id="line2d_62">
    <path clip-path="url(#p0c7d084058)" style="fill: none; stroke: #00bfbf; stroke-width: 1.5; stroke-linecap: square"/>
   </g>
   <g id="line2d_63">
    <path d="M 202.54721 293.76 
L 202.581573 286.095208 
L 202.809501 286.095208 
L 202.809501 282.262812 
L 207.925283 282.262812 
L 207.925283 278.430416 
L 218.592369 278.430416 
L 218.592369 274.59802 
L 221.954039 274.59802 
L 221.954039 270.765624 
L 224.778856 270.765624 
L 224.778856 266.933228 
L 232.71479 266.933228 
L 232.71479 263.100832 
L 240.39224 263.100832 
L 240.39224 259.268436 
L 243.316719 259.268436 
L 243.316719 255.43604 
L 249.559288 255.43604 
L 249.559288 251.603644 
L 264.339484 251.603644 
L 264.339484 247.771248 
L 269.003516 247.771248 
L 269.003516 243.938851 
L 280.667578 243.938851 
L 280.667578 240.106455 
L 289.046506 240.106455 
L 289.046506 236.274059 
L 316.262822 236.274059 
L 316.262822 232.441663 
L 317.316893 232.441663 
L 317.316893 228.609267 
L 322.668832 228.609267 
L 322.668832 224.776871 
L 324.14126 224.776871 
L 324.14126 220.944475 
L 326.004388 220.944475 
L 326.004388 217.112079 
L 327.669358 217.112079 
L 327.71899 209.447287 
L 328.066966 209.447287 
L 328.066966 205.614891 
L 329.188358 205.614891 
L 329.188358 201.782495 
L 330.191008 201.782495 
L 330.191008 197.950099 
L 331.5369 197.950099 
L 331.5369 194.117703 
L 332.124626 194.117703 
L 332.124626 190.285307 
L 336.373199 190.285307 
L 336.373199 186.452911 
L 387.187117 186.452911 
L 387.187117 182.620515 
L 390.421589 182.620515 
L 390.421589 178.788119 
L 390.703539 178.788119 
L 390.703539 174.955723 
L 393.771079 174.955723 
L 393.771079 171.123327 
L 394.434432 171.123327 
L 394.434432 167.290931 
L 396.423554 167.290931 
L 396.423554 163.458535 
L 396.993815 163.458535 
L 396.993815 159.626139 
L 400.499686 159.626139 
L 400.499686 155.793743 
L 401.526359 155.793743 
L 401.526359 151.961347 
L 402.223326 151.961347 
L 402.223326 148.12895 
L 404.014149 148.12895 
L 404.014149 144.296554 
L 406.389753 144.296554 
L 406.389753 140.464158 
L 409.263364 140.464158 
L 409.263364 136.631762 
L 410.77262 136.631762 
L 410.77262 132.799366 
L 413.141031 132.799366 
L 413.141031 128.96697 
L 414.627583 128.96697 
L 414.735333 121.302178 
L 415.137853 121.302178 
L 415.137853 117.469782 
L 415.419865 117.469782 
L 415.419865 113.637386 
L 416.834602 113.637386 
L 416.834602 109.80499 
L 420.868633 109.80499 
L 420.868633 105.972594 
L 424.004061 105.972594 
L 424.004061 102.140198 
L 424.924462 102.140198 
L 424.924462 98.307802 
L 425.964491 98.307802 
L 425.964491 94.475406 
L 426.162819 94.475406 
L 426.162819 90.64301 
L 426.822871 90.64301 
L 426.822871 86.810614 
L 427.416696 86.810614 
L 427.416696 82.978218 
L 427.667117 82.978218 
L 427.741181 75.313426 
L 427.927 75.313426 
L 427.927 71.48103 
L 428.06925 71.48103 
L 428.06925 67.648634 
L 431.514996 67.648634 
L 431.514996 63.816238 
L 433.80669 63.816238 
L 433.80669 59.983842 
L 435.386828 59.983842 
L 435.386828 56.151446 
L 437.146467 56.151446 
L 437.146467 52.31905 
L 437.146467 52.31905 
L 460.8 52.31905 
L 460.8 52.31905 
" clip-path="url(#p0c7d084058)" style="fill: none; stroke: #bf00bf; stroke-width: 1.5; stroke-linecap: square"/>
   </g>
   <g id="line2d_64">
    <defs>
     <path id="m6c0bc44111" d="M -0 14.142136 
L 8.485281 0 
L -0 -14.142136 
L -8.485281 -0 
z
" style="stroke: #bf00bf; stroke-width: 1.5; stroke-linejoin: miter"/>
    </defs>
    <g clip-path="url(#p0c7d084058)">
     <use xlink:href="#m6c0bc44111" x="221.954039" y="274.59802" style="fill-opacity: 0; stroke: #bf00bf; stroke-width: 1.5; stroke-linejoin: miter"/>
     <use xlink:href="#m6c0bc44111" x="289.046506" y="240.106455" style="fill-opacity: 0; stroke: #bf00bf; stroke-width: 1.5; stroke-linejoin: miter"/>
     <use xlink:href="#m6c0bc44111" x="328.066966" y="209.447287" style="fill-opacity: 0; stroke: #bf00bf; stroke-width: 1.5; stroke-linejoin: miter"/>
     <use xlink:href="#m6c0bc44111" x="390.421589" y="182.620515" style="fill-opacity: 0; stroke: #bf00bf; stroke-width: 1.5; stroke-linejoin: miter"/>
     <use xlink:href="#m6c0bc44111" x="427.416696" y="86.810614" style="fill-opacity: 0; stroke: #bf00bf; stroke-width: 1.5; stroke-linejoin: miter"/>
     <use xlink:href="#m6c0bc44111" x="437.146467" y="52.31905" style="fill-opacity: 0; stroke: #bf00bf; stroke-width: 1.5; stroke-linejoin: miter"/>
    </g>
   </g>
   <g id="line2d_65">
    <path clip-path="url(#p0c7d084058)" style="fill: none; stroke: #bf00bf; stroke-width: 1.5; stroke-linecap: square"/>
    <g clip-path="url(#p0c7d084058)">
     <use xlink:href="#m6c0bc44111" x="-1" y="581.189703" style="fill-opacity: 0; stroke: #bf00bf; stroke-width: 1.5; stroke-linejoin: miter"/>
     <use xlink:href="#m6c0bc44111" x="460.8" y="581.189703" style="fill-opacity: 0; stroke: #bf00bf; stroke-width: 1.5; stroke-linejoin: miter"/>
    </g>
   </g>
   <g id="line2d_66">
    <path d="M 271.794455 293.76 
L 271.794455 289.927604 
L 273.575076 289.927604 
L 273.575076 286.095208 
L 273.754461 286.095208 
L 273.754461 282.262812 
L 273.85318 282.262812 
L 273.85318 278.430416 
L 275.528981 278.430416 
L 275.528981 274.59802 
L 277.713012 274.59802 
L 277.713012 270.765624 
L 280.875979 270.765624 
L 280.875979 266.933228 
L 281.162364 266.933228 
L 281.162364 263.100832 
L 281.90317 263.100832 
L 281.90317 259.268436 
L 282.006187 259.268436 
L 282.006187 255.43604 
L 282.109326 255.43604 
L 282.109326 251.603644 
L 283.366821 251.603644 
L 283.366821 247.771248 
L 283.965113 247.771248 
L 283.965113 243.938851 
L 290.169042 243.938851 
L 290.169042 240.106455 
L 291.316785 240.106455 
L 291.316785 236.274059 
L 302.477333 236.274059 
L 302.477333 232.441663 
L 344.13137 232.441663 
L 344.13137 228.609267 
L 349.254074 228.609267 
L 349.254074 224.776871 
L 376.026171 224.776871 
L 376.026171 220.944475 
L 380.337517 220.944475 
L 380.337517 217.112079 
L 380.642109 217.112079 
L 380.642109 213.279683 
L 384.682479 213.279683 
L 384.682479 209.447287 
L 390.859556 209.447287 
L 390.859556 205.614891 
L 391.744845 205.614891 
L 391.744845 201.782495 
L 395.682018 201.782495 
L 395.682018 197.950099 
L 395.682018 197.950099 
L 395.682018 197.950099 
L 460.8 197.950099 
" clip-path="url(#p0c7d084058)" style="fill: none; stroke: #bf00bf; stroke-width: 1.5; stroke-linecap: square"/>
   </g>
   <g id="line2d_67">
    <defs>
     <path id="mf9c8f4c200" d="M 0 7.5 
C 1.989023 7.5 3.896849 6.709753 5.303301 5.303301 
C 6.709753 3.896849 7.5 1.989023 7.5 0 
C 7.5 -1.989023 6.709753 -3.896849 5.303301 -5.303301 
C 3.896849 -6.709753 1.989023 -7.5 0 -7.5 
C -1.989023 -7.5 -3.896849 -6.709753 -5.303301 -5.303301 
C -6.709753 -3.896849 -7.5 -1.989023 -7.5 0 
C -7.5 1.989023 -6.709753 3.896849 -5.303301 5.303301 
C -3.896849 6.709753 -1.989023 7.5 0 7.5 
z
" style="stroke: #bf00bf; stroke-width: 1.5"/>
    </defs>
    <g clip-path="url(#p0c7d084058)">
     <use xlink:href="#mf9c8f4c200" x="282.006187" y="259.268436" style="fill-opacity: 0; stroke: #bf00bf; stroke-width: 1.5"/>
     <use xlink:href="#mf9c8f4c200" x="291.316785" y="240.106455" style="fill-opacity: 0; stroke: #bf00bf; stroke-width: 1.5"/>
     <use xlink:href="#mf9c8f4c200" x="344.13137" y="232.441663" style="fill-opacity: 0; stroke: #bf00bf; stroke-width: 1.5"/>
     <use xlink:href="#mf9c8f4c200" x="380.642109" y="217.112079" style="fill-opacity: 0; stroke: #bf00bf; stroke-width: 1.5"/>
     <use xlink:href="#mf9c8f4c200" x="395.682018" y="197.950099" style="fill-opacity: 0; stroke: #bf00bf; stroke-width: 1.5"/>
    </g>
   </g>
   <g id="line2d_68">
    <path clip-path="url(#p0c7d084058)" style="fill: none; stroke: #bf00bf; stroke-width: 1.5; stroke-linecap: square"/>
   </g>
   <g id="line2d_69">
    <path d="M 298.756361 293.76 
L 298.803044 286.095208 
L 298.909611 286.095208 
L 299.020436 270.765624 
L 300.961538 270.765624 
L 300.961538 266.933228 
L 301.63292 266.933228 
L 301.63292 263.100832 
L 302.088815 263.100832 
L 302.166693 255.43604 
L 302.548873 255.43604 
L 302.548873 251.603644 
L 305.354739 251.603644 
L 305.354739 247.771248 
L 305.676068 247.771248 
L 305.676068 243.938851 
L 307.701685 243.938851 
L 307.701685 240.106455 
L 309.907562 240.106455 
L 309.907562 236.274059 
L 335.477553 236.274059 
L 335.477553 232.441663 
L 336.368957 232.441663 
L 336.368957 228.609267 
L 338.190887 228.609267 
L 338.190887 224.776871 
L 339.107705 224.776871 
L 339.107705 220.944475 
L 339.461014 220.944475 
L 339.461014 217.112079 
L 339.637862 217.112079 
L 339.637862 213.279683 
L 341.694167 213.279683 
L 341.694167 209.447287 
L 342.8355 209.447287 
L 342.8355 205.614891 
L 343.513799 205.614891 
L 343.610266 197.950099 
L 343.639853 197.950099 
L 343.639853 194.117703 
L 343.986742 194.117703 
L 343.986742 190.285307 
L 345.752567 190.285307 
L 345.752567 186.452911 
L 388.6441 186.452911 
L 388.6441 182.620515 
L 392.678652 182.620515 
L 392.678652 178.788119 
L 400.801003 178.788119 
L 400.801003 174.955723 
L 402.560178 174.955723 
L 402.560178 171.123327 
L 403.289654 171.123327 
L 403.289654 167.290931 
L 403.492349 167.290931 
L 403.492349 163.458535 
L 404.110573 163.458535 
L 404.110573 159.626139 
L 404.926379 159.626139 
L 404.926379 155.793743 
L 405.42193 155.793743 
L 405.42193 151.961347 
L 406.839445 151.961347 
L 406.839445 148.12895 
L 407.929789 148.12895 
L 407.929789 144.296554 
L 408.143648 144.296554 
L 408.143648 140.464158 
L 410.007503 140.464158 
L 410.007503 136.631762 
L 411.387556 136.631762 
L 411.387556 132.799366 
L 413.864112 132.799366 
L 413.864112 128.96697 
L 415.095582 128.96697 
L 415.095582 125.134574 
L 415.925529 125.134574 
L 415.925529 121.302178 
L 417.536196 121.302178 
L 417.536196 117.469782 
L 418.785892 117.469782 
L 418.785892 113.637386 
L 419.805184 113.637386 
L 419.805184 109.80499 
L 421.30099 109.80499 
L 421.30099 105.972594 
L 424.255471 105.972594 
L 424.255471 102.140198 
L 425.360001 102.140198 
L 425.360001 98.307802 
L 426.529716 98.307802 
L 426.529716 94.475406 
L 427.078394 94.475406 
L 427.078394 90.64301 
L 427.644808 90.64301 
L 427.644808 86.810614 
L 428.169161 86.810614 
L 428.169161 82.978218 
L 428.354736 82.978218 
L 428.354736 79.145822 
L 429.069765 79.145822 
L 429.069765 75.313426 
L 430.135447 75.313426 
L 430.135447 71.48103 
L 430.532598 71.48103 
L 430.532598 67.648634 
L 431.746036 67.648634 
L 431.746036 63.816238 
L 434.222399 63.816238 
L 434.222399 59.983842 
L 435.854064 59.983842 
L 435.854064 56.151446 
L 437.347634 56.151446 
L 437.347634 52.31905 
L 437.347634 52.31905 
L 460.8 52.31905 
L 460.8 52.31905 
" clip-path="url(#p0c7d084058)" style="fill: none; stroke: #ff0000; stroke-width: 3; stroke-linecap: square"/>
   </g>
   <g id="line2d_70">
    <defs>
     <path id="ma170d192cc" d="M -0 14.142136 
L 8.485281 0 
L -0 -14.142136 
L -8.485281 -0 
z
" style="stroke: #ff0000; stroke-width: 3; stroke-linejoin: miter"/>
    </defs>
    <g clip-path="url(#p0c7d084058)">
     <use xlink:href="#ma170d192cc" x="343.986742" y="194.117703" style="fill-opacity: 0; stroke: #ff0000; stroke-width: 3; stroke-linejoin: miter"/>
     <use xlink:href="#ma170d192cc" x="392.678652" y="182.620515" style="fill-opacity: 0; stroke: #ff0000; stroke-width: 3; stroke-linejoin: miter"/>
     <use xlink:href="#ma170d192cc" x="424.255471" y="105.972594" style="fill-opacity: 0; stroke: #ff0000; stroke-width: 3; stroke-linejoin: miter"/>
     <use xlink:href="#ma170d192cc" x="437.347634" y="56.151446" style="fill-opacity: 0; stroke: #ff0000; stroke-width: 3; stroke-linejoin: miter"/>
     <use xlink:href="#ma170d192cc" x="437.347634" y="52.31905" style="fill-opacity: 0; stroke: #ff0000; stroke-width: 3; stroke-linejoin: miter"/>
    </g>
   </g>
   <g id="line2d_71">
    <path clip-path="url(#p0c7d084058)" style="fill: none; stroke: #ff0000; stroke-width: 3; stroke-linecap: square"/>
    <g clip-path="url(#p0c7d084058)">
     <use xlink:href="#ma170d192cc" x="-1" y="581.189703" style="fill-opacity: 0; stroke: #ff0000; stroke-width: 3; stroke-linejoin: miter"/>
     <use xlink:href="#ma170d192cc" x="460.8" y="581.189703" style="fill-opacity: 0; stroke: #ff0000; stroke-width: 3; stroke-linejoin: miter"/>
    </g>
   </g>
   <g id="line2d_72">
    <path d="M 281.330226 293.76 
L 281.330226 289.927604 
L 283.330404 289.927604 
L 283.330404 286.095208 
L 283.37617 286.095208 
L 283.37617 282.262812 
L 283.872839 282.262812 
L 283.872839 278.430416 
L 284.621979 278.430416 
L 284.621979 274.59802 
L 287.852909 274.59802 
L 287.852909 270.765624 
L 288.174563 270.765624 
L 288.174563 266.933228 
L 289.073686 266.933228 
L 289.073686 263.100832 
L 289.488372 263.100832 
L 289.488372 259.268436 
L 289.987289 259.268436 
L 289.987289 255.43604 
L 290.3252 255.43604 
L 290.3252 251.603644 
L 290.824129 251.603644 
L 290.824129 247.771248 
L 291.343542 247.771248 
L 291.343542 243.938851 
L 296.223599 243.938851 
L 296.223599 240.106455 
L 297.249977 240.106455 
L 297.249977 236.274059 
L 306.968981 236.274059 
L 306.968981 232.441663 
L 346.017965 232.441663 
L 346.017965 228.609267 
L 381.097642 228.609267 
L 381.097642 224.776871 
L 385.365586 224.776871 
L 385.365586 220.944475 
L 391.252829 220.944475 
L 391.252829 217.112079 
L 391.252829 217.112079 
L 391.252829 217.112079 
L 460.8 217.112079 
" clip-path="url(#p0c7d084058)" style="fill: none; stroke: #ff0000; stroke-width: 3; stroke-linecap: square"/>
   </g>
   <g id="line2d_73">
    <defs>
     <path id="m5257191704" d="M 0 7.5 
C 1.989023 7.5 3.896849 6.709753 5.303301 5.303301 
C 6.709753 3.896849 7.5 1.989023 7.5 0 
C 7.5 -1.989023 6.709753 -3.896849 5.303301 -5.303301 
C 3.896849 -6.709753 1.989023 -7.5 0 -7.5 
C -1.989023 -7.5 -3.896849 -6.709753 -5.303301 -5.303301 
C -6.709753 -3.896849 -7.5 -1.989023 -7.5 0 
C -7.5 1.989023 -6.709753 3.896849 -5.303301 5.303301 
C -3.896849 6.709753 -1.989023 7.5 0 7.5 
z
" style="stroke: #ff0000; stroke-width: 3"/>
    </defs>
    <g clip-path="url(#p0c7d084058)">
     <use xlink:href="#m5257191704" x="290.824129" y="251.603644" style="fill-opacity: 0; stroke: #ff0000; stroke-width: 3"/>
     <use xlink:href="#m5257191704" x="306.968981" y="236.274059" style="fill-opacity: 0; stroke: #ff0000; stroke-width: 3"/>
     <use xlink:href="#m5257191704" x="346.017965" y="232.441663" style="fill-opacity: 0; stroke: #ff0000; stroke-width: 3"/>
     <use xlink:href="#m5257191704" x="391.252829" y="217.112079" style="fill-opacity: 0; stroke: #ff0000; stroke-width: 3"/>
    </g>
   </g>
   <g id="line2d_74">
    <path clip-path="url(#p0c7d084058)" style="fill: none; stroke: #ff0000; stroke-width: 3; stroke-linecap: square"/>
   </g>
   <g id="line2d_75">
    <path d="M 439.497181 293.76 
L 439.497181 3.456 
" clip-path="url(#p0c7d084058)" style="fill: none; stroke: #000000; stroke-width: 1.5; stroke-linecap: square"/>
    <defs>
     <path id="mc7594473d1" d="M -10 0 
L 10 0 
M 0 10 
L 0 -10 
" style="stroke: #000000; stroke-width: 3"/>
    </defs>
    <g clip-path="url(#p0c7d084058)">
     <use xlink:href="#mc7594473d1" x="439.497181" y="293.76" style="stroke: #000000; stroke-width: 3"/>
     <use xlink:href="#mc7594473d1" x="439.497181" y="3.456" style="stroke: #000000; stroke-width: 3"/>
    </g>
   </g>
   <g id="line2d_76">
    <path d="M 399.933732 293.76 
L 399.933732 3.456 
" clip-path="url(#p0c7d084058)" style="fill: none; stroke: #000000; stroke-width: 1.5; stroke-linecap: square"/>
    <defs>
     <path id="mf92444cdf8" d="M 0 7.5 
C 1.989023 7.5 3.896849 6.709753 5.303301 5.303301 
C 6.709753 3.896849 7.5 1.989023 7.5 0 
C 7.5 -1.989023 6.709753 -3.896849 5.303301 -5.303301 
C 3.896849 -6.709753 1.989023 -7.5 0 -7.5 
C -1.989023 -7.5 -3.896849 -6.709753 -5.303301 -5.303301 
C -6.709753 -3.896849 -7.5 -1.989023 -7.5 0 
C -7.5 1.989023 -6.709753 3.896849 -5.303301 5.303301 
C -3.896849 6.709753 -1.989023 7.5 0 7.5 
z
" style="stroke: #000000; stroke-width: 3"/>
    </defs>
    <g clip-path="url(#p0c7d084058)">
     <use xlink:href="#mf92444cdf8" x="399.933732" y="293.76" style="fill-opacity: 0; stroke: #000000; stroke-width: 3"/>
     <use xlink:href="#mf92444cdf8" x="399.933732" y="3.456" style="fill-opacity: 0; stroke: #000000; stroke-width: 3"/>
    </g>
   </g>
   <g id="patch_3">
    <path d="M 62.208 293.76 
L 62.208 3.456 
" style="fill: none; stroke: #000000; stroke-width: 0.8; stroke-linejoin: miter; stroke-linecap: square"/>
   </g>
   <g id="patch_4">
    <path d="M 460.8 293.76 
L 460.8 3.456 
" style="fill: none; stroke: #000000; stroke-width: 0.8; stroke-linejoin: miter; stroke-linecap: square"/>
   </g>
   <g id="patch_5">
    <path d="M 62.208 293.76 
L 460.8 293.76 
" style="fill: none; stroke: #000000; stroke-width: 0.8; stroke-linejoin: miter; stroke-linecap: square"/>
   </g>
   <g id="patch_6">
    <path d="M 62.208 3.456 
L 460.8 3.456 
" style="fill: none; stroke: #000000; stroke-width: 0.8; stroke-linejoin: miter; stroke-linecap: square"/>
   </g>
   <g id="text_13">
    <!-- f20-f24 -->
    <g transform="translate(225.405563 24.458955)scale(0.2 -0.2)">
     <defs>
      <path id="DejaVuSans-2d" d="M 313 2009 
L 1997 2009 
L 1997 1497 
L 313 1497 
L 313 2009 
z
" transform="scale(0.015625)"/>
     </defs>
     <use xlink:href="#DejaVuSans-66"/>
     <use xlink:href="#DejaVuSans-32" x="35.205078"/>
     <use xlink:href="#DejaVuSans-30" x="98.828125"/>
     <use xlink:href="#DejaVuSans-2d" x="162.451172"/>
     <use xlink:href="#DejaVuSans-66" x="198.535156"/>
     <use xlink:href="#DejaVuSans-32" x="233.740234"/>
     <use xlink:href="#DejaVuSans-34" x="297.363281"/>
    </g>
   </g>
   <g id="text_14">
    <!-- absolute targets -->
    <g transform="translate(62.208 609.932673)scale(0.14 -0.14)">
     <defs>
      <path id="DejaVuSans-62" d="M 3116 1747 
Q 3116 2381 2855 2742 
Q 2594 3103 2138 3103 
Q 1681 3103 1420 2742 
Q 1159 2381 1159 1747 
Q 1159 1113 1420 752 
Q 1681 391 2138 391 
Q 2594 391 2855 752 
Q 3116 1113 3116 1747 
z
M 1159 2969 
Q 1341 3281 1617 3432 
Q 1894 3584 2278 3584 
Q 2916 3584 3314 3078 
Q 3713 2572 3713 1747 
Q 3713 922 3314 415 
Q 2916 -91 2278 -91 
Q 1894 -91 1617 61 
Q 1341 213 1159 525 
L 1159 0 
L 581 0 
L 581 4863 
L 1159 4863 
L 1159 2969 
z
" transform="scale(0.015625)"/>
      <path id="DejaVuSans-75" d="M 544 1381 
L 544 3500 
L 1119 3500 
L 1119 1403 
Q 1119 906 1312 657 
Q 1506 409 1894 409 
Q 2359 409 2629 706 
Q 2900 1003 2900 1516 
L 2900 3500 
L 3475 3500 
L 3475 0 
L 2900 0 
L 2900 538 
Q 2691 219 2414 64 
Q 2138 -91 1772 -91 
Q 1169 -91 856 284 
Q 544 659 544 1381 
z
M 1991 3584 
L 1991 3584 
z
" transform="scale(0.015625)"/>
      <path id="DejaVuSans-65" d="M 3597 1894 
L 3597 1613 
L 953 1613 
Q 991 1019 1311 708 
Q 1631 397 2203 397 
Q 2534 397 2845 478 
Q 3156 559 3463 722 
L 3463 178 
Q 3153 47 2828 -22 
Q 2503 -91 2169 -91 
Q 1331 -91 842 396 
Q 353 884 353 1716 
Q 353 2575 817 3079 
Q 1281 3584 2069 3584 
Q 2775 3584 3186 3129 
Q 3597 2675 3597 1894 
z
M 3022 2063 
Q 3016 2534 2758 2815 
Q 2500 3097 2075 3097 
Q 1594 3097 1305 2825 
Q 1016 2553 972 2059 
L 3022 2063 
z
" transform="scale(0.015625)"/>
     </defs>
     <use xlink:href="#DejaVuSans-61"/>
     <use xlink:href="#DejaVuSans-62" x="61.279297"/>
     <use xlink:href="#DejaVuSans-73" x="124.755859"/>
     <use xlink:href="#DejaVuSans-6f" x="176.855469"/>
     <use xlink:href="#DejaVuSans-6c" x="238.037109"/>
     <use xlink:href="#DejaVuSans-75" x="265.820312"/>
     <use xlink:href="#DejaVuSans-74" x="329.199219"/>
     <use xlink:href="#DejaVuSans-65" x="368.408203"/>
     <use xlink:href="#DejaVuSans-20" x="429.931641"/>
     <use xlink:href="#DejaVuSans-74" x="461.71875"/>
     <use xlink:href="#DejaVuSans-61" x="500.927734"/>
     <use xlink:href="#DejaVuSans-72" x="562.207031"/>
     <use xlink:href="#DejaVuSans-67" x="601.570312"/>
     <use xlink:href="#DejaVuSans-65" x="665.046875"/>
     <use xlink:href="#DejaVuSans-74" x="726.570312"/>
     <use xlink:href="#DejaVuSans-73" x="765.779297"/>
    </g>
   </g>
   <g id="text_15">
    <!-- v2.6.3 -->
    <g style="fill: #808080" transform="translate(245.82275 288.777272)scale(0.1 -0.1)">
     <defs>
      <path id="DejaVuSans-33" d="M 2597 2516 
Q 3050 2419 3304 2112 
Q 3559 1806 3559 1356 
Q 3559 666 3084 287 
Q 2609 -91 1734 -91 
Q 1441 -91 1130 -33 
Q 819 25 488 141 
L 488 750 
Q 750 597 1062 519 
Q 1375 441 1716 441 
Q 2309 441 2620 675 
Q 2931 909 2931 1356 
Q 2931 1769 2642 2001 
Q 2353 2234 1838 2234 
L 1294 2234 
L 1294 2753 
L 1863 2753 
Q 2328 2753 2575 2939 
Q 2822 3125 2822 3475 
Q 2822 3834 2567 4026 
Q 2313 4219 1838 4219 
Q 1578 4219 1281 4162 
Q 984 4106 628 3988 
L 628 4550 
Q 988 4650 1302 4700 
Q 1616 4750 1894 4750 
Q 2613 4750 3031 4423 
Q 3450 4097 3450 3541 
Q 3450 3153 3228 2886 
Q 3006 2619 2597 2516 
z
" transform="scale(0.015625)"/>
     </defs>
     <use xlink:href="#DejaVuSans-76"/>
     <use xlink:href="#DejaVuSans-32" x="59.179688"/>
     <use xlink:href="#DejaVuSans-2e" x="122.802734"/>
     <use xlink:href="#DejaVuSans-36" x="154.589844"/>
     <use xlink:href="#DejaVuSans-2e" x="218.212891"/>
     <use xlink:href="#DejaVuSans-33" x="250"/>
    </g>
   </g>
   <g id="legend_1">
    <g id="patch_7">
     <path d="M 76.208 136.881 
L 160.148625 136.881 
Q 164.148625 136.881 164.148625 132.881 
L 164.148625 17.456 
Q 164.148625 13.456 160.148625 13.456 
L 76.208 13.456 
Q 72.208 13.456 72.208 17.456 
L 72.208 132.881 
Q 72.208 136.881 76.208 136.881 
z
" style="fill: #ffffff; opacity: 0.2; stroke: #cccccc; stroke-linejoin: miter"/>
    </g>
    <g id="line2d_77">
     <path d="M 80.208 29.652875 
L 80.208 29.652875 
L 100.208 29.652875 
L 100.208 29.652875 
L 120.208 29.652875 
" style="fill: none; stroke: #000000; stroke-width: 1.5; stroke-linecap: square"/>
    </g>
    <g id="text_16">
     <!-- 1 -->
     <g transform="translate(136.208 36.652875)scale(0.2 -0.2)">
      <use xlink:href="#DejaVuSans-31"/>
     </g>
    </g>
    <g id="line2d_78">
     <path d="M 80.208 59.009125 
L 80.208 59.009125 
L 100.208 59.009125 
L 100.208 59.009125 
L 120.208 59.009125 
" style="fill: none; stroke: #00bfbf; stroke-width: 1.5; stroke-linecap: square"/>
    </g>
    <g id="text_17">
     <!-- -1 -->
     <g transform="translate(136.208 66.009125)scale(0.2 -0.2)">
      <use xlink:href="#DejaVuSans-2d"/>
      <use xlink:href="#DejaVuSans-31" x="36.083984"/>
     </g>
    </g>
    <g id="line2d_79">
     <path d="M 80.208 88.365375 
L 80.208 88.365375 
L 100.208 88.365375 
L 100.208 88.365375 
L 120.208 88.365375 
" style="fill: none; stroke: #bf00bf; stroke-width: 1.5; stroke-linecap: square"/>
    </g>
    <g id="text_18">
     <!-- -4 -->
     <g transform="translate(136.208 95.365375)scale(0.2 -0.2)">
      <use xlink:href="#DejaVuSans-2d"/>
      <use xlink:href="#DejaVuSans-34" x="36.083984"/>
     </g>
    </g>
    <g id="line2d_80">
     <path d="M 80.208 117.721625 
L 80.208 117.721625 
L 100.208 117.721625 
L 100.208 117.721625 
L 120.208 117.721625 
" style="fill: none; stroke: #ff0000; stroke-width: 3; stroke-linecap: square"/>
    </g>
    <g id="text_19">
     <!-- -8 -->
     <g transform="translate(136.208 124.721625)scale(0.2 -0.2)">
      <use xlink:href="#DejaVuSans-2d"/>
      <use xlink:href="#DejaVuSans-38" x="36.083984"/>
     </g>
    </g>
   </g>
  </g>
 </g>
 <defs>
  <clipPath id="p0c7d084058">
   <rect x="62.208" y="3.456" width="398.592" height="290.304"/>
  </clipPath>
 </defs>
</svg>
