<?xml version="1.0" encoding="utf-8" standalone="no"?>
<!DOCTYPE svg PUBLIC "-//W3C//DTD SVG 1.1//EN"
  "http://www.w3.org/Graphics/SVG/1.1/DTD/svg11.dtd">
<svg xmlns:xlink="http://www.w3.org/1999/xlink" width="460.8pt" height="345.6pt" viewBox="0 0 460.8 345.6" xmlns="http://www.w3.org/2000/svg" version="1.1">
 <metadata>
  <rdf:RDF xmlns:dc="http://purl.org/dc/elements/1.1/" xmlns:cc="http://creativecommons.org/ns#" xmlns:rdf="http://www.w3.org/1999/02/22-rdf-syntax-ns#">
   <cc:Work>
    <dc:type rdf:resource="http://purl.org/dc/dcmitype/StillImage"/>
    <dc:date>2024-06-19T19:28:29.806257</dc:date>
    <dc:format>image/svg+xml</dc:format>
    <dc:creator>
     <cc:Agent>
      <dc:title>Matplotlib v3.5.2, https://matplotlib.org/</dc:title>
     </cc:Agent>
    </dc:creator>
   </cc:Work>
  </rdf:RDF>
 </metadata>
 <defs>
  <style type="text/css">*{stroke-linejoin: round; stroke-linecap: butt}</style>
 </defs>
 <g id="figure_1">
  <g id="patch_1">
   <path d="M 0 345.6 
L 460.8 345.6 
L 460.8 0 
L 0 0 
z
" style="fill: #ffffff"/>
  </g>
  <g id="axes_1">
   <g id="patch_2">
    <path d="M 62.208 293.76 
L 460.8 293.76 
L 460.8 3.456 
L 62.208 3.456 
z
" style="fill: #ffffff"/>
   </g>
   <g id="line2d_1"/>
   <g id="line2d_2">
    <path d="M 327.931769 293.76 
L 327.931769 282.262812 
L 331.364783 282.262812 
L 331.364783 270.765624 
L 331.364783 270.765624 
L 331.364783 270.765624 
L 460.8 270.765624 
" clip-path="url(#p1b099e084d)" style="fill: none; stroke: #f5deb3; stroke-width: 1.5; stroke-linecap: square"/>
   </g>
   <g id="line2d_3"/>
   <g id="line2d_4"/>
   <g id="line2d_5"/>
   <g id="line2d_6"/>
   <g id="line2d_7">
    <path d="M 298.164739 293.76 
L 298.164739 289.927604 
L 318.620503 289.927604 
L 318.620503 286.095208 
L 323.637999 286.095208 
L 323.637999 282.262812 
L 324.070462 282.262812 
L 324.070462 278.430416 
L 324.645853 278.430416 
L 324.645853 274.59802 
L 328.430871 274.59802 
L 328.430871 270.765624 
L 328.610933 270.765624 
L 328.610933 266.933228 
L 330.519965 266.933228 
L 330.519965 263.100832 
L 335.282652 263.100832 
L 335.282652 259.268436 
L 339.62715 259.268436 
L 339.62715 255.43604 
L 339.942586 255.43604 
L 339.942586 251.603644 
L 341.040353 251.603644 
L 341.040353 247.771248 
L 349.698439 247.771248 
L 349.698439 243.938851 
L 353.608094 243.938851 
L 353.608094 240.106455 
L 356.1597 240.106455 
L 356.1597 236.274059 
L 359.232058 236.274059 
L 359.232058 232.441663 
L 360.676935 232.441663 
L 360.676935 228.609267 
L 361.814547 228.609267 
L 361.814547 224.776871 
L 364.78282 224.776871 
L 364.822936 217.112079 
L 364.906379 217.112079 
L 364.906379 213.279683 
L 365.913155 213.279683 
L 365.913155 209.447287 
L 369.55534 209.447287 
L 369.55534 205.614891 
L 373.455116 205.614891 
L 373.455116 201.782495 
L 381.121071 201.782495 
L 381.121071 197.950099 
L 381.572196 197.950099 
L 381.572196 194.117703 
L 384.462514 194.117703 
L 384.462514 190.285307 
L 388.272433 190.285307 
L 388.272433 186.452911 
L 390.244347 186.452911 
L 390.244347 182.620515 
L 392.25485 182.620515 
L 392.25485 178.788119 
L 396.448499 178.788119 
L 396.448499 174.955723 
L 398.028285 174.955723 
L 398.028285 171.123327 
L 398.603667 171.123327 
L 398.603667 167.290931 
L 401.894155 167.290931 
L 401.894155 163.458535 
L 403.209997 163.458535 
L 403.209997 159.626139 
L 407.44222 159.626139 
L 407.44222 155.793743 
L 409.162487 155.793743 
L 409.162487 151.961347 
L 413.846074 151.961347 
L 413.846074 148.12895 
L 417.499702 148.12895 
L 417.499702 144.296554 
L 423.704421 144.296554 
L 423.793246 136.631762 
L 427.422805 136.631762 
L 427.422805 132.799366 
L 435.873144 132.799366 
L 435.873144 128.96697 
L 440.443813 128.96697 
L 440.443813 125.134574 
L 441.706153 125.134574 
L 441.706153 121.302178 
L 444.027197 121.302178 
L 444.027197 117.469782 
L 454.341857 117.469782 
L 454.341857 113.637386 
L 454.794943 113.637386 
L 454.794943 109.80499 
L 456.290009 109.80499 
L 456.290009 105.972594 
L 461.8 105.972594 
L 461.8 105.972594 
" clip-path="url(#p1b099e084d)" style="fill: none; stroke: #f5deb3; stroke-width: 1.5; stroke-linecap: square"/>
   </g>
   <g id="line2d_8">
    <path d="M 313.182598 293.76 
L 313.182598 289.927604 
L 314.358226 289.927604 
L 314.358226 286.095208 
L 314.719432 286.095208 
L 314.719432 282.262812 
L 314.869935 282.262812 
L 314.869935 278.430416 
L 315.301136 278.430416 
L 315.301136 274.59802 
L 315.313888 274.59802 
L 315.313888 270.765624 
L 327.564715 270.765624 
L 327.564715 266.933228 
L 328.297936 266.933228 
L 328.297936 263.100832 
L 328.817412 263.100832 
L 328.817412 259.268436 
L 328.879636 259.268436 
L 328.879636 255.43604 
L 329.248444 255.43604 
L 329.248444 251.603644 
L 329.59848 251.603644 
L 329.59848 247.771248 
L 329.603525 247.771248 
L 329.603525 243.938851 
L 329.910762 243.938851 
L 329.910762 240.106455 
L 329.924787 240.106455 
L 329.924787 236.274059 
L 330.175098 236.274059 
L 330.175098 232.441663 
L 331.455688 232.441663 
L 331.455688 228.609267 
L 362.233628 228.609267 
L 362.233628 224.776871 
L 362.700497 224.776871 
L 362.700497 220.944475 
L 362.700497 220.944475 
L 362.700497 220.944475 
L 460.8 220.944475 
" clip-path="url(#p1b099e084d)" style="fill: none; stroke: #f5deb3; stroke-width: 1.5; stroke-linecap: square"/>
   </g>
   <g id="line2d_9">
    <path d="M 214.363073 293.76 
L 214.363073 289.927604 
L 246.871122 289.927604 
L 246.871122 286.095208 
L 247.364404 286.095208 
L 247.364404 282.262812 
L 247.973428 282.262812 
L 247.973428 278.430416 
L 250.56075 278.430416 
L 250.56075 274.59802 
L 254.051614 274.59802 
L 254.051614 270.765624 
L 254.456437 270.765624 
L 254.456437 266.933228 
L 254.593311 266.933228 
L 254.593311 263.100832 
L 255.334126 263.100832 
L 255.343617 255.43604 
L 255.560993 255.43604 
L 255.560993 251.603644 
L 255.83264 251.603644 
L 255.83264 247.771248 
L 261.999314 247.771248 
L 261.999314 243.938851 
L 266.247421 243.938851 
L 266.247421 240.106455 
L 266.905386 240.106455 
L 266.905386 236.274059 
L 267.672213 236.274059 
L 267.672213 232.441663 
L 268.29129 232.441663 
L 268.29129 228.609267 
L 269.241604 228.609267 
L 269.287267 220.944475 
L 273.180256 220.944475 
L 273.180256 217.112079 
L 274.059027 217.112079 
L 274.059027 213.279683 
L 274.777785 213.279683 
L 274.777785 209.447287 
L 274.984691 209.447287 
L 274.984691 205.614891 
L 275.213022 205.614891 
L 275.320759 197.950099 
L 275.389307 197.950099 
L 275.482712 190.285307 
L 275.684379 190.285307 
L 275.684379 186.452911 
L 276.529108 186.452911 
L 276.612165 178.788119 
L 276.760168 178.788119 
L 276.760168 174.955723 
L 277.128857 174.955723 
L 277.128857 171.123327 
L 277.671698 171.123327 
L 277.671698 167.290931 
L 278.472423 167.290931 
L 278.507066 159.626139 
L 278.883265 159.626139 
L 278.883265 155.793743 
L 279.690811 155.793743 
L 279.76288 148.12895 
L 282.969843 148.12895 
L 282.969843 144.296554 
L 287.634497 144.296554 
L 287.634497 140.464158 
L 287.856874 140.464158 
L 287.888701 132.799366 
L 288.819746 132.799366 
L 288.819746 128.96697 
L 292.10561 128.96697 
L 292.10561 125.134574 
L 293.59756 125.134574 
L 293.59756 121.302178 
L 294.472048 121.302178 
L 294.472048 117.469782 
L 296.320599 117.469782 
L 296.320599 113.637386 
L 296.702638 113.637386 
L 296.702638 109.80499 
L 297.519333 109.80499 
L 297.519333 105.972594 
L 298.140883 105.972594 
L 298.140883 102.140198 
L 298.29063 102.140198 
L 298.29063 98.307802 
L 302.18466 98.307802 
L 302.18466 94.475406 
L 303.557526 94.475406 
L 303.580364 86.810614 
L 303.984208 86.810614 
L 303.984208 82.978218 
L 304.279059 82.978218 
L 304.279059 79.145822 
L 304.399598 79.145822 
L 304.399598 75.313426 
L 306.163105 75.313426 
L 306.163105 71.48103 
L 308.030007 71.48103 
L 308.030007 67.648634 
L 308.189635 67.648634 
L 308.189635 63.816238 
L 310.543283 63.816238 
L 310.543283 59.983842 
L 312.461174 59.983842 
L 312.461174 56.151446 
L 314.697165 56.151446 
L 314.697165 52.31905 
L 315.184498 52.31905 
L 315.184498 48.486653 
L 327.00613 48.486653 
L 327.00613 44.654257 
L 332.071903 44.654257 
L 332.180303 36.989465 
L 334.733979 36.989465 
L 334.733979 33.157069 
L 341.942937 33.157069 
L 341.942937 29.324673 
L 343.225075 29.324673 
L 343.225075 25.492277 
L 346.884367 25.492277 
L 346.884367 21.659881 
L 350.949162 21.659881 
L 350.949162 17.827485 
L 352.295603 17.827485 
L 352.369301 10.162693 
L 363.113388 10.162693 
L 363.113388 6.330297 
L 363.113388 6.330297 
L 460.8 6.330297 
L 460.8 6.330297 
" clip-path="url(#p1b099e084d)" style="fill: none; stroke: #f5deb3; stroke-width: 1.5; stroke-linecap: square"/>
   </g>
   <g id="line2d_10"/>
   <g id="line2d_11">
    <path d="M 342.295486 293.76 
L 342.295486 289.927604 
L 381.310882 289.927604 
L 381.310882 286.095208 
L 387.05073 286.095208 
L 387.05073 282.262812 
L 393.11515 282.262812 
L 393.11515 278.430416 
L 394.110797 278.430416 
L 394.110797 274.59802 
L 424.548255 274.59802 
L 424.548255 270.765624 
L 428.865977 270.765624 
L 428.865977 266.933228 
L 435.0195 266.933228 
L 435.0195 263.100832 
L 438.123179 263.100832 
L 438.123179 259.268436 
L 438.656511 259.268436 
L 438.656511 255.43604 
L 438.656511 255.43604 
L 438.656511 255.43604 
L 460.8 255.43604 
" clip-path="url(#p1b099e084d)" style="fill: none; stroke: #f5deb3; stroke-width: 1.5; stroke-linecap: square"/>
   </g>
   <g id="line2d_12"/>
   <g id="line2d_13"/>
   <g id="line2d_14"/>
   <g id="line2d_15"/>
   <g id="line2d_16"/>
   <g id="line2d_17">
    <path d="M 307.861774 293.76 
L 307.861774 289.927604 
L 309.715246 289.927604 
L 309.715246 286.095208 
L 310.526839 286.095208 
L 310.526839 282.262812 
L 311.627405 282.262812 
L 311.627405 278.430416 
L 313.762669 278.430416 
L 313.762669 274.59802 
L 313.861431 274.59802 
L 313.861431 270.765624 
L 314.88181 270.765624 
L 314.88181 266.933228 
L 315.163675 266.933228 
L 315.163675 263.100832 
L 315.27455 263.100832 
L 315.27455 259.268436 
L 317.874577 259.268436 
L 317.874577 255.43604 
L 318.254612 255.43604 
L 318.254612 251.603644 
L 324.165986 251.603644 
L 324.165986 247.771248 
L 329.191854 247.771248 
L 329.191854 243.938851 
L 329.257066 243.938851 
L 329.257066 240.106455 
L 329.295353 240.106455 
L 329.295353 236.274059 
L 331.469239 236.274059 
L 331.469239 232.441663 
L 332.032982 232.441663 
L 332.032982 228.609267 
L 333.971629 228.609267 
L 333.971629 224.776871 
L 334.92519 224.776871 
L 334.92519 220.944475 
L 335.674435 220.944475 
L 335.674435 217.112079 
L 336.677581 217.112079 
L 336.677581 213.279683 
L 337.891217 213.279683 
L 337.891217 209.447287 
L 341.3706 209.447287 
L 341.3706 205.614891 
L 342.099409 205.614891 
L 342.099409 201.782495 
L 343.758239 201.782495 
L 343.758239 197.950099 
L 344.558197 197.950099 
L 344.558197 194.117703 
L 346.587177 194.117703 
L 346.587177 190.285307 
L 347.497965 190.285307 
L 347.497965 186.452911 
L 347.497965 186.452911 
L 347.497965 186.452911 
L 460.8 186.452911 
" clip-path="url(#p1b099e084d)" style="fill: none; stroke: #f5deb3; stroke-width: 1.5; stroke-linecap: square"/>
   </g>
   <g id="line2d_18"/>
   <g id="line2d_19">
    <path d="M 321.123081 293.76 
L 321.123081 289.927604 
L 346.914211 289.927604 
L 346.914211 286.095208 
L 354.399848 286.095208 
L 354.399848 282.262812 
L 356.885904 282.262812 
L 356.885904 278.430416 
L 363.317155 278.430416 
L 363.317155 274.59802 
L 367.561749 274.59802 
L 367.561749 270.765624 
L 368.421388 270.765624 
L 368.421388 266.933228 
L 369.455449 266.933228 
L 369.455449 263.100832 
L 371.320221 263.100832 
L 371.320221 259.268436 
L 373.079367 259.268436 
L 373.079367 255.43604 
L 373.222681 255.43604 
L 373.222681 251.603644 
L 374.261474 251.603644 
L 374.261474 247.771248 
L 376.576151 247.771248 
L 376.576151 243.938851 
L 384.507954 243.938851 
L 384.507954 240.106455 
L 385.262507 240.106455 
L 385.262507 236.274059 
L 386.346116 236.274059 
L 386.346116 232.441663 
L 388.080156 232.441663 
L 388.080156 228.609267 
L 396.390681 228.609267 
L 396.390681 224.776871 
L 396.947238 224.776871 
L 396.947238 220.944475 
L 403.252769 220.944475 
L 403.252769 217.112079 
L 403.857576 217.112079 
L 403.857576 213.279683 
L 405.742597 213.279683 
L 405.742597 209.447287 
L 408.742943 209.447287 
L 408.742943 205.614891 
L 410.480789 205.614891 
L 410.480789 201.782495 
L 411.785473 201.782495 
L 411.785473 197.950099 
L 418.492849 197.950099 
L 418.492849 194.117703 
L 419.496396 194.117703 
L 419.496396 190.285307 
L 422.789338 190.285307 
L 422.789338 186.452911 
L 426.950772 186.452911 
L 426.950772 182.620515 
L 427.592739 182.620515 
L 427.592739 178.788119 
L 433.15432 178.788119 
L 433.15432 174.955723 
L 435.42629 174.955723 
L 435.42629 171.123327 
L 436.868038 171.123327 
L 436.868038 167.290931 
L 439.732842 167.290931 
L 439.732842 163.458535 
L 439.902728 163.458535 
L 439.902728 159.626139 
L 439.902728 159.626139 
L 460.8 159.626139 
L 460.8 159.626139 
" clip-path="url(#p1b099e084d)" style="fill: none; stroke: #f5deb3; stroke-width: 1.5; stroke-linecap: square"/>
   </g>
   <g id="line2d_20">
    <path d="M 309.030297 293.76 
L 309.030297 289.927604 
L 309.030297 289.927604 
L 309.030297 289.927604 
L 460.8 289.927604 
" clip-path="url(#p1b099e084d)" style="fill: none; stroke: #f5deb3; stroke-width: 1.5; stroke-linecap: square"/>
   </g>
   <g id="line2d_21"/>
   <g id="line2d_22">
    <path d="M 321.235857 293.76 
L 321.235857 289.927604 
L 337.667836 289.927604 
L 337.667836 286.095208 
L 354.32631 286.095208 
L 354.32631 282.262812 
L 362.401595 282.262812 
L 362.401595 278.430416 
L 374.762277 278.430416 
L 374.762277 274.59802 
L 374.762277 274.59802 
L 374.762277 274.59802 
L 460.8 274.59802 
" clip-path="url(#p1b099e084d)" style="fill: none; stroke: #f5deb3; stroke-width: 1.5; stroke-linecap: square"/>
   </g>
   <g id="line2d_23">
    <path d="M 335.763456 293.76 
L 335.763456 289.927604 
L 341.81364 289.927604 
L 341.81364 286.095208 
L 341.81364 286.095208 
L 341.81364 286.095208 
L 460.8 286.095208 
" clip-path="url(#p1b099e084d)" style="fill: none; stroke: #f5deb3; stroke-width: 1.5; stroke-linecap: square"/>
   </g>
   <g id="line2d_24">
    <path d="M 238.286737 293.76 
L 238.286737 289.927604 
L 240.697905 289.927604 
L 240.697905 286.095208 
L 242.171946 286.095208 
L 242.171946 282.262812 
L 245.763001 282.262812 
L 245.763001 278.430416 
L 248.084968 278.430416 
L 248.084968 274.59802 
L 291.080129 274.59802 
L 291.080129 270.765624 
L 292.463967 270.765624 
L 292.463967 266.933228 
L 292.785066 266.933228 
L 292.785066 263.100832 
L 292.898495 263.100832 
L 292.898495 259.268436 
L 293.982214 259.268436 
L 293.982214 255.43604 
L 294.221916 255.43604 
L 294.291817 247.771248 
L 295.419605 247.771248 
L 295.419605 243.938851 
L 295.681935 243.938851 
L 295.744956 236.274059 
L 295.886766 236.274059 
L 295.886766 232.441663 
L 296.148959 232.441663 
L 296.148959 228.609267 
L 298.032277 228.609267 
L 298.032277 224.776871 
L 299.742848 224.776871 
L 299.742848 220.944475 
L 300.166313 220.944475 
L 300.166313 217.112079 
L 300.32562 217.112079 
L 300.32562 213.279683 
L 300.952844 213.279683 
L 300.952844 209.447287 
L 301.087123 209.447287 
L 301.087123 205.614891 
L 301.269579 205.614891 
L 301.337799 197.950099 
L 301.65976 197.950099 
L 301.752303 190.285307 
L 302.109919 190.285307 
L 302.109919 186.452911 
L 302.405967 186.452911 
L 302.492633 178.788119 
L 302.693796 178.788119 
L 302.693796 174.955723 
L 302.897672 174.955723 
L 302.926912 167.290931 
L 304.080443 167.290931 
L 304.094849 159.626139 
L 304.496752 159.626139 
L 304.496752 155.793743 
L 305.058651 155.793743 
L 305.058651 151.961347 
L 305.90893 151.961347 
L 305.90893 148.12895 
L 306.131184 148.12895 
L 306.131184 144.296554 
L 308.433834 144.296554 
L 308.433834 140.464158 
L 309.886754 140.464158 
L 309.886754 136.631762 
L 313.483541 136.631762 
L 313.483541 132.799366 
L 318.316093 132.799366 
L 318.316093 128.96697 
L 318.442434 128.96697 
L 318.442434 125.134574 
L 319.04237 125.134574 
L 319.04237 121.302178 
L 320.537648 121.302178 
L 320.537648 117.469782 
L 321.287587 117.469782 
L 321.287587 113.637386 
L 322.617282 113.637386 
L 322.617282 109.80499 
L 323.389528 109.80499 
L 323.389528 105.972594 
L 326.941581 105.972594 
L 326.941581 102.140198 
L 330.314611 102.140198 
L 330.314611 98.307802 
L 330.917999 98.307802 
L 330.917999 94.475406 
L 333.872533 94.475406 
L 333.872533 90.64301 
L 338.314471 90.64301 
L 338.314471 86.810614 
L 339.029896 86.810614 
L 339.029896 82.978218 
L 340.527665 82.978218 
L 340.559383 75.313426 
L 340.750813 75.313426 
L 340.750813 71.48103 
L 342.544276 71.48103 
L 342.544276 67.648634 
L 343.427943 67.648634 
L 343.427943 63.816238 
L 358.462851 63.816238 
L 358.462851 59.983842 
L 359.066219 59.983842 
L 359.066219 56.151446 
L 360.013199 56.151446 
L 360.013199 52.31905 
L 363.05647 52.31905 
L 363.05647 48.486653 
L 368.086875 48.486653 
L 368.086875 44.654257 
L 372.014489 44.654257 
L 372.014489 40.821861 
L 372.430718 40.821861 
L 372.430718 36.989465 
L 376.072371 36.989465 
L 376.072371 33.157069 
L 377.800349 33.157069 
L 377.800349 29.324673 
L 383.494798 29.324673 
L 383.494798 25.492277 
L 385.624567 25.492277 
L 385.624567 21.659881 
L 390.19746 21.659881 
L 390.19746 17.827485 
L 391.391898 17.827485 
L 391.391898 13.995089 
L 394.764567 13.995089 
L 394.764567 10.162693 
L 404.773268 10.162693 
L 404.773268 6.330297 
L 404.773268 6.330297 
L 460.8 6.330297 
L 460.8 6.330297 
" clip-path="url(#p1b099e084d)" style="fill: none; stroke: #f5deb3; stroke-width: 1.5; stroke-linecap: square"/>
   </g>
   <g id="line2d_25">
    <path d="M 321.637289 293.76 
L 321.637289 289.927604 
L 323.929651 289.927604 
L 323.929651 286.095208 
L 324.068918 286.095208 
L 324.068918 282.262812 
L 325.044197 282.262812 
L 325.044197 278.430416 
L 326.298248 278.430416 
L 326.298248 274.59802 
L 326.786876 274.59802 
L 326.786876 270.765624 
L 326.995383 270.765624 
L 326.995383 266.933228 
L 327.58271 266.933228 
L 327.58271 263.100832 
L 327.610528 263.100832 
L 327.610528 259.268436 
L 329.158869 259.268436 
L 329.158869 255.43604 
L 330.000401 255.43604 
L 330.000401 251.603644 
L 345.7353 251.603644 
L 345.7353 247.771248 
L 346.216684 247.771248 
L 346.216684 243.938851 
L 346.597011 243.938851 
L 346.597011 240.106455 
L 346.923593 240.106455 
L 346.923593 236.274059 
L 347.001544 236.274059 
L 347.001544 232.441663 
L 347.194128 232.441663 
L 347.194128 228.609267 
L 347.467437 228.609267 
L 347.467437 224.776871 
L 347.49452 224.776871 
L 347.49452 220.944475 
L 347.55319 220.944475 
L 347.55319 217.112079 
L 347.554336 217.112079 
L 347.554336 213.279683 
L 347.576918 213.279683 
L 347.576918 209.447287 
L 347.584441 209.447287 
L 347.584441 205.614891 
L 347.631494 205.614891 
L 347.631494 201.782495 
L 347.753489 201.782495 
L 347.753489 197.950099 
L 347.772822 197.950099 
L 347.772822 194.117703 
L 347.865719 194.117703 
L 347.865719 190.285307 
L 348.139011 190.285307 
L 348.139011 186.452911 
L 348.26244 186.452911 
L 348.26244 182.620515 
L 348.288111 182.620515 
L 348.288111 178.788119 
L 348.357351 178.788119 
L 348.357351 174.955723 
L 348.399446 174.955723 
L 348.399446 171.123327 
L 348.6162 171.123327 
L 348.6162 167.290931 
L 348.702361 167.290931 
L 348.702361 163.458535 
L 348.86186 163.458535 
L 348.86186 159.626139 
L 353.34899 159.626139 
L 353.34899 155.793743 
L 372.813521 155.793743 
L 372.813521 151.961347 
L 372.813521 151.961347 
L 372.813521 151.961347 
L 460.8 151.961347 
" clip-path="url(#p1b099e084d)" style="fill: none; stroke: #f5deb3; stroke-width: 1.5; stroke-linecap: square"/>
   </g>
   <g id="line2d_26">
    <path d="M 281.095501 293.76 
L 281.095501 289.927604 
L 283.229883 289.927604 
L 283.229883 286.095208 
L 289.034128 286.095208 
L 289.034128 282.262812 
L 289.934364 282.262812 
L 289.934364 278.430416 
L 290.895489 278.430416 
L 290.895489 274.59802 
L 292.109328 274.59802 
L 292.109328 270.765624 
L 294.144933 270.765624 
L 294.144933 266.933228 
L 299.621587 266.933228 
L 299.621587 263.100832 
L 302.361678 263.100832 
L 302.361678 259.268436 
L 309.487513 259.268436 
L 309.487513 255.43604 
L 311.01468 255.43604 
L 311.01468 251.603644 
L 318.744982 251.603644 
L 318.744982 247.771248 
L 323.311491 247.771248 
L 323.311491 243.938851 
L 324.006722 243.938851 
L 324.006722 240.106455 
L 328.439096 240.106455 
L 328.439096 236.274059 
L 332.461514 236.274059 
L 332.461514 232.441663 
L 334.195426 232.441663 
L 334.195426 228.609267 
L 336.315287 228.609267 
L 336.315287 224.776871 
L 338.066073 224.776871 
L 338.066073 220.944475 
L 338.700541 220.944475 
L 338.700541 217.112079 
L 338.700541 217.112079 
L 338.700541 217.112079 
L 460.8 217.112079 
" clip-path="url(#p1b099e084d)" style="fill: none; stroke: #f5deb3; stroke-width: 1.5; stroke-linecap: square"/>
   </g>
   <g id="line2d_27"/>
   <g id="line2d_28">
    <path d="M 231.21198 293.76 
L 231.21198 289.927604 
L 241.123799 289.927604 
L 241.123799 286.095208 
L 272.824207 286.095208 
L 272.824207 282.262812 
L 282.298981 282.262812 
L 282.298981 278.430416 
L 285.016286 278.430416 
L 285.016286 274.59802 
L 286.622194 274.59802 
L 286.622194 270.765624 
L 299.575386 270.765624 
L 299.575386 266.933228 
L 300.151532 266.933228 
L 300.151532 263.100832 
L 301.54847 263.100832 
L 301.54847 259.268436 
L 302.138293 259.268436 
L 302.138293 255.43604 
L 302.921901 255.43604 
L 302.921901 251.603644 
L 304.515669 251.603644 
L 304.515669 247.771248 
L 305.279456 247.771248 
L 305.279456 243.938851 
L 306.070206 243.938851 
L 306.070206 240.106455 
L 306.537438 240.106455 
L 306.537438 236.274059 
L 310.870738 236.274059 
L 310.870738 232.441663 
L 311.035803 232.441663 
L 311.035803 228.609267 
L 311.457929 228.609267 
L 311.519012 220.944475 
L 311.760179 220.944475 
L 311.760179 217.112079 
L 317.549478 217.112079 
L 317.549478 213.279683 
L 318.986216 213.279683 
L 318.986216 209.447287 
L 319.631715 209.447287 
L 319.631715 205.614891 
L 320.135241 205.614891 
L 320.135241 201.782495 
L 320.535453 201.782495 
L 320.606042 194.117703 
L 322.199505 194.117703 
L 322.199505 190.285307 
L 322.319052 190.285307 
L 322.319052 186.452911 
L 322.718002 186.452911 
L 322.718002 182.620515 
L 325.153828 182.620515 
L 325.153828 178.788119 
L 326.204536 178.788119 
L 326.204536 174.955723 
L 326.333795 174.955723 
L 326.333795 171.123327 
L 326.499549 171.123327 
L 326.499549 167.290931 
L 327.073987 167.290931 
L 327.073987 163.458535 
L 327.874404 163.458535 
L 327.874404 159.626139 
L 328.859558 159.626139 
L 328.861502 151.961347 
L 329.079929 151.961347 
L 329.079929 148.12895 
L 329.920113 148.12895 
L 329.920113 144.296554 
L 330.238013 144.296554 
L 330.238013 140.464158 
L 330.746177 140.464158 
L 330.746177 136.631762 
L 331.091437 136.631762 
L 331.091437 132.799366 
L 331.565668 132.799366 
L 331.565668 128.96697 
L 331.841899 128.96697 
L 331.841899 125.134574 
L 333.124868 125.134574 
L 333.124868 121.302178 
L 334.329468 121.302178 
L 334.329468 117.469782 
L 334.463386 117.469782 
L 334.463386 113.637386 
L 334.903635 113.637386 
L 334.903635 109.80499 
L 335.987872 109.80499 
L 335.987872 105.972594 
L 336.676119 105.972594 
L 336.676119 102.140198 
L 342.819642 102.140198 
L 342.819642 98.307802 
L 345.197354 98.307802 
L 345.197354 94.475406 
L 348.686188 94.475406 
L 348.686188 90.64301 
L 348.98814 90.64301 
L 348.98814 86.810614 
L 349.276964 86.810614 
L 349.276964 82.978218 
L 351.409352 82.978218 
L 351.409352 79.145822 
L 351.818541 79.145822 
L 351.818541 75.313426 
L 355.462204 75.313426 
L 355.462204 71.48103 
L 356.396486 71.48103 
L 356.396486 67.648634 
L 359.7657 67.648634 
L 359.7657 63.816238 
L 359.900682 63.816238 
L 359.900682 59.983842 
L 376.369988 59.983842 
L 376.369988 56.151446 
L 376.498766 56.151446 
L 376.498766 52.31905 
L 376.710911 52.31905 
L 376.710911 48.486653 
L 378.895481 48.486653 
L 378.895481 44.654257 
L 385.779967 44.654257 
L 385.779967 40.821861 
L 406.930656 40.821861 
L 406.930656 36.989465 
L 408.318653 36.989465 
L 408.318653 33.157069 
L 409.254373 33.157069 
L 409.254373 29.324673 
L 411.938711 29.324673 
L 411.938711 25.492277 
L 412.927824 25.492277 
L 412.927824 21.659881 
L 416.17052 21.659881 
L 416.17052 17.827485 
L 426.535709 17.827485 
L 426.535709 13.995089 
L 427.685351 13.995089 
L 427.685351 10.162693 
L 428.402854 10.162693 
L 428.402854 6.330297 
L 428.402854 6.330297 
L 460.8 6.330297 
L 460.8 6.330297 
" clip-path="url(#p1b099e084d)" style="fill: none; stroke: #f5deb3; stroke-width: 1.5; stroke-linecap: square"/>
   </g>
   <g id="line2d_29"/>
   <g id="line2d_30"/>
   <g id="matplotlib.axis_1">
    <g id="xtick_1">
     <g id="line2d_31">
      <path d="M 62.208 293.76 
L 62.208 3.456 
" clip-path="url(#p1b099e084d)" style="fill: none; stroke: #b0b0b0; stroke-width: 0.8; stroke-linecap: square"/>
     </g>
     <g id="line2d_32">
      <defs>
       <path id="me461db2f4c" d="M 0 0 
L 0 3.5 
" style="stroke: #000000; stroke-width: 0.8"/>
      </defs>
      <g>
       <use xlink:href="#me461db2f4c" x="62.208" y="293.76" style="stroke: #000000; stroke-width: 0.8"/>
      </g>
     </g>
     <g id="text_1">
      <!-- 0 -->
      <g transform="translate(55.8455 315.956875)scale(0.2 -0.2)">
       <defs>
        <path id="DejaVuSans-30" d="M 2034 4250 
Q 1547 4250 1301 3770 
Q 1056 3291 1056 2328 
Q 1056 1369 1301 889 
Q 1547 409 2034 409 
Q 2525 409 2770 889 
Q 3016 1369 3016 2328 
Q 3016 3291 2770 3770 
Q 2525 4250 2034 4250 
z
M 2034 4750 
Q 2819 4750 3233 4129 
Q 3647 3509 3647 2328 
Q 3647 1150 3233 529 
Q 2819 -91 2034 -91 
Q 1250 -91 836 529 
Q 422 1150 422 2328 
Q 422 3509 836 4129 
Q 1250 4750 2034 4750 
z
" transform="scale(0.015625)"/>
       </defs>
       <use xlink:href="#DejaVuSans-30"/>
      </g>
     </g>
    </g>
    <g id="xtick_2">
     <g id="line2d_33">
      <path d="M 188.340201 293.76 
L 188.340201 3.456 
" clip-path="url(#p1b099e084d)" style="fill: none; stroke: #b0b0b0; stroke-width: 0.8; stroke-linecap: square"/>
     </g>
     <g id="line2d_34">
      <g>
       <use xlink:href="#me461db2f4c" x="188.340201" y="293.76" style="stroke: #000000; stroke-width: 0.8"/>
      </g>
     </g>
     <g id="text_2">
      <!-- 2 -->
      <g transform="translate(181.977701 315.956875)scale(0.2 -0.2)">
       <defs>
        <path id="DejaVuSans-32" d="M 1228 531 
L 3431 531 
L 3431 0 
L 469 0 
L 469 531 
Q 828 903 1448 1529 
Q 2069 2156 2228 2338 
Q 2531 2678 2651 2914 
Q 2772 3150 2772 3378 
Q 2772 3750 2511 3984 
Q 2250 4219 1831 4219 
Q 1534 4219 1204 4116 
Q 875 4013 500 3803 
L 500 4441 
Q 881 4594 1212 4672 
Q 1544 4750 1819 4750 
Q 2544 4750 2975 4387 
Q 3406 4025 3406 3419 
Q 3406 3131 3298 2873 
Q 3191 2616 2906 2266 
Q 2828 2175 2409 1742 
Q 1991 1309 1228 531 
z
" transform="scale(0.015625)"/>
       </defs>
       <use xlink:href="#DejaVuSans-32"/>
      </g>
     </g>
    </g>
    <g id="xtick_3">
     <g id="line2d_35">
      <path d="M 314.472403 293.76 
L 314.472403 3.456 
" clip-path="url(#p1b099e084d)" style="fill: none; stroke: #b0b0b0; stroke-width: 0.8; stroke-linecap: square"/>
     </g>
     <g id="line2d_36">
      <g>
       <use xlink:href="#me461db2f4c" x="314.472403" y="293.76" style="stroke: #000000; stroke-width: 0.8"/>
      </g>
     </g>
     <g id="text_3">
      <!-- 4 -->
      <g transform="translate(308.109903 315.956875)scale(0.2 -0.2)">
       <defs>
        <path id="DejaVuSans-34" d="M 2419 4116 
L 825 1625 
L 2419 1625 
L 2419 4116 
z
M 2253 4666 
L 3047 4666 
L 3047 1625 
L 3713 1625 
L 3713 1100 
L 3047 1100 
L 3047 0 
L 2419 0 
L 2419 1100 
L 313 1100 
L 313 1709 
L 2253 4666 
z
" transform="scale(0.015625)"/>
       </defs>
       <use xlink:href="#DejaVuSans-34"/>
      </g>
     </g>
    </g>
    <g id="xtick_4">
     <g id="line2d_37">
      <path d="M 440.604604 293.76 
L 440.604604 3.456 
" clip-path="url(#p1b099e084d)" style="fill: none; stroke: #b0b0b0; stroke-width: 0.8; stroke-linecap: square"/>
     </g>
     <g id="line2d_38">
      <g>
       <use xlink:href="#me461db2f4c" x="440.604604" y="293.76" style="stroke: #000000; stroke-width: 0.8"/>
      </g>
     </g>
     <g id="text_4">
      <!-- 6 -->
      <g transform="translate(434.242104 315.956875)scale(0.2 -0.2)">
       <defs>
        <path id="DejaVuSans-36" d="M 2113 2584 
Q 1688 2584 1439 2293 
Q 1191 2003 1191 1497 
Q 1191 994 1439 701 
Q 1688 409 2113 409 
Q 2538 409 2786 701 
Q 3034 994 3034 1497 
Q 3034 2003 2786 2293 
Q 2538 2584 2113 2584 
z
M 3366 4563 
L 3366 3988 
Q 3128 4100 2886 4159 
Q 2644 4219 2406 4219 
Q 1781 4219 1451 3797 
Q 1122 3375 1075 2522 
Q 1259 2794 1537 2939 
Q 1816 3084 2150 3084 
Q 2853 3084 3261 2657 
Q 3669 2231 3669 1497 
Q 3669 778 3244 343 
Q 2819 -91 2113 -91 
Q 1303 -91 875 529 
Q 447 1150 447 2328 
Q 447 3434 972 4092 
Q 1497 4750 2381 4750 
Q 2619 4750 2861 4703 
Q 3103 4656 3366 4563 
z
" transform="scale(0.015625)"/>
       </defs>
       <use xlink:href="#DejaVuSans-36"/>
      </g>
     </g>
    </g>
    <g id="text_5">
     <!-- log10 of FEvals / DIM -->
     <g transform="translate(156.430563 339.313125)scale(0.2 -0.2)">
      <defs>
       <path id="DejaVuSans-6c" d="M 603 4863 
L 1178 4863 
L 1178 0 
L 603 0 
L 603 4863 
z
" transform="scale(0.015625)"/>
       <path id="DejaVuSans-6f" d="M 1959 3097 
Q 1497 3097 1228 2736 
Q 959 2375 959 1747 
Q 959 1119 1226 758 
Q 1494 397 1959 397 
Q 2419 397 2687 759 
Q 2956 1122 2956 1747 
Q 2956 2369 2687 2733 
Q 2419 3097 1959 3097 
z
M 1959 3584 
Q 2709 3584 3137 3096 
Q 3566 2609 3566 1747 
Q 3566 888 3137 398 
Q 2709 -91 1959 -91 
Q 1206 -91 779 398 
Q 353 888 353 1747 
Q 353 2609 779 3096 
Q 1206 3584 1959 3584 
z
" transform="scale(0.015625)"/>
       <path id="DejaVuSans-67" d="M 2906 1791 
Q 2906 2416 2648 2759 
Q 2391 3103 1925 3103 
Q 1463 3103 1205 2759 
Q 947 2416 947 1791 
Q 947 1169 1205 825 
Q 1463 481 1925 481 
Q 2391 481 2648 825 
Q 2906 1169 2906 1791 
z
M 3481 434 
Q 3481 -459 3084 -895 
Q 2688 -1331 1869 -1331 
Q 1566 -1331 1297 -1286 
Q 1028 -1241 775 -1147 
L 775 -588 
Q 1028 -725 1275 -790 
Q 1522 -856 1778 -856 
Q 2344 -856 2625 -561 
Q 2906 -266 2906 331 
L 2906 616 
Q 2728 306 2450 153 
Q 2172 0 1784 0 
Q 1141 0 747 490 
Q 353 981 353 1791 
Q 353 2603 747 3093 
Q 1141 3584 1784 3584 
Q 2172 3584 2450 3431 
Q 2728 3278 2906 2969 
L 2906 3500 
L 3481 3500 
L 3481 434 
z
" transform="scale(0.015625)"/>
       <path id="DejaVuSans-31" d="M 794 531 
L 1825 531 
L 1825 4091 
L 703 3866 
L 703 4441 
L 1819 4666 
L 2450 4666 
L 2450 531 
L 3481 531 
L 3481 0 
L 794 0 
L 794 531 
z
" transform="scale(0.015625)"/>
       <path id="DejaVuSans-20" transform="scale(0.015625)"/>
       <path id="DejaVuSans-66" d="M 2375 4863 
L 2375 4384 
L 1825 4384 
Q 1516 4384 1395 4259 
Q 1275 4134 1275 3809 
L 1275 3500 
L 2222 3500 
L 2222 3053 
L 1275 3053 
L 1275 0 
L 697 0 
L 697 3053 
L 147 3053 
L 147 3500 
L 697 3500 
L 697 3744 
Q 697 4328 969 4595 
Q 1241 4863 1831 4863 
L 2375 4863 
z
" transform="scale(0.015625)"/>
       <path id="DejaVuSans-46" d="M 628 4666 
L 3309 4666 
L 3309 4134 
L 1259 4134 
L 1259 2759 
L 3109 2759 
L 3109 2228 
L 1259 2228 
L 1259 0 
L 628 0 
L 628 4666 
z
" transform="scale(0.015625)"/>
       <path id="DejaVuSans-45" d="M 628 4666 
L 3578 4666 
L 3578 4134 
L 1259 4134 
L 1259 2753 
L 3481 2753 
L 3481 2222 
L 1259 2222 
L 1259 531 
L 3634 531 
L 3634 0 
L 628 0 
L 628 4666 
z
" transform="scale(0.015625)"/>
       <path id="DejaVuSans-76" d="M 191 3500 
L 800 3500 
L 1894 563 
L 2988 3500 
L 3597 3500 
L 2284 0 
L 1503 0 
L 191 3500 
z
" transform="scale(0.015625)"/>
       <path id="DejaVuSans-61" d="M 2194 1759 
Q 1497 1759 1228 1600 
Q 959 1441 959 1056 
Q 959 750 1161 570 
Q 1363 391 1709 391 
Q 2188 391 2477 730 
Q 2766 1069 2766 1631 
L 2766 1759 
L 2194 1759 
z
M 3341 1997 
L 3341 0 
L 2766 0 
L 2766 531 
Q 2569 213 2275 61 
Q 1981 -91 1556 -91 
Q 1019 -91 701 211 
Q 384 513 384 1019 
Q 384 1609 779 1909 
Q 1175 2209 1959 2209 
L 2766 2209 
L 2766 2266 
Q 2766 2663 2505 2880 
Q 2244 3097 1772 3097 
Q 1472 3097 1187 3025 
Q 903 2953 641 2809 
L 641 3341 
Q 956 3463 1253 3523 
Q 1550 3584 1831 3584 
Q 2591 3584 2966 3190 
Q 3341 2797 3341 1997 
z
" transform="scale(0.015625)"/>
       <path id="DejaVuSans-73" d="M 2834 3397 
L 2834 2853 
Q 2591 2978 2328 3040 
Q 2066 3103 1784 3103 
Q 1356 3103 1142 2972 
Q 928 2841 928 2578 
Q 928 2378 1081 2264 
Q 1234 2150 1697 2047 
L 1894 2003 
Q 2506 1872 2764 1633 
Q 3022 1394 3022 966 
Q 3022 478 2636 193 
Q 2250 -91 1575 -91 
Q 1294 -91 989 -36 
Q 684 19 347 128 
L 347 722 
Q 666 556 975 473 
Q 1284 391 1588 391 
Q 1994 391 2212 530 
Q 2431 669 2431 922 
Q 2431 1156 2273 1281 
Q 2116 1406 1581 1522 
L 1381 1569 
Q 847 1681 609 1914 
Q 372 2147 372 2553 
Q 372 3047 722 3315 
Q 1072 3584 1716 3584 
Q 2034 3584 2315 3537 
Q 2597 3491 2834 3397 
z
" transform="scale(0.015625)"/>
       <path id="DejaVuSans-2f" d="M 1625 4666 
L 2156 4666 
L 531 -594 
L 0 -594 
L 1625 4666 
z
" transform="scale(0.015625)"/>
       <path id="DejaVuSans-44" d="M 1259 4147 
L 1259 519 
L 2022 519 
Q 2988 519 3436 956 
Q 3884 1394 3884 2338 
Q 3884 3275 3436 3711 
Q 2988 4147 2022 4147 
L 1259 4147 
z
M 628 4666 
L 1925 4666 
Q 3281 4666 3915 4102 
Q 4550 3538 4550 2338 
Q 4550 1131 3912 565 
Q 3275 0 1925 0 
L 628 0 
L 628 4666 
z
" transform="scale(0.015625)"/>
       <path id="DejaVuSans-49" d="M 628 4666 
L 1259 4666 
L 1259 0 
L 628 0 
L 628 4666 
z
" transform="scale(0.015625)"/>
       <path id="DejaVuSans-4d" d="M 628 4666 
L 1569 4666 
L 2759 1491 
L 3956 4666 
L 4897 4666 
L 4897 0 
L 4281 0 
L 4281 4097 
L 3078 897 
L 2444 897 
L 1241 4097 
L 1241 0 
L 628 0 
L 628 4666 
z
" transform="scale(0.015625)"/>
      </defs>
      <use xlink:href="#DejaVuSans-6c"/>
      <use xlink:href="#DejaVuSans-6f" x="27.783203"/>
      <use xlink:href="#DejaVuSans-67" x="88.964844"/>
      <use xlink:href="#DejaVuSans-31" x="152.441406"/>
      <use xlink:href="#DejaVuSans-30" x="216.064453"/>
      <use xlink:href="#DejaVuSans-20" x="279.6875"/>
      <use xlink:href="#DejaVuSans-6f" x="311.474609"/>
      <use xlink:href="#DejaVuSans-66" x="372.65625"/>
      <use xlink:href="#DejaVuSans-20" x="407.861328"/>
      <use xlink:href="#DejaVuSans-46" x="439.648438"/>
      <use xlink:href="#DejaVuSans-45" x="497.167969"/>
      <use xlink:href="#DejaVuSans-76" x="560.351562"/>
      <use xlink:href="#DejaVuSans-61" x="619.53125"/>
      <use xlink:href="#DejaVuSans-6c" x="680.810547"/>
      <use xlink:href="#DejaVuSans-73" x="708.59375"/>
      <use xlink:href="#DejaVuSans-20" x="760.693359"/>
      <use xlink:href="#DejaVuSans-2f" x="792.480469"/>
      <use xlink:href="#DejaVuSans-20" x="826.171875"/>
      <use xlink:href="#DejaVuSans-44" x="857.958984"/>
      <use xlink:href="#DejaVuSans-49" x="934.960938"/>
      <use xlink:href="#DejaVuSans-4d" x="964.453125"/>
     </g>
    </g>
   </g>
   <g id="matplotlib.axis_2">
    <g id="ytick_1">
     <g id="line2d_39">
      <path d="M 62.208 293.76 
L 460.8 293.76 
" clip-path="url(#p1b099e084d)" style="fill: none; stroke: #b0b0b0; stroke-width: 0.8; stroke-linecap: square"/>
     </g>
     <g id="line2d_40">
      <defs>
       <path id="m7646c9cdaf" d="M 0 0 
L -3.5 0 
" style="stroke: #000000; stroke-width: 0.8"/>
      </defs>
      <g>
       <use xlink:href="#m7646c9cdaf" x="62.208" y="293.76" style="stroke: #000000; stroke-width: 0.8"/>
      </g>
     </g>
     <g id="text_6">
      <!-- 0.0 -->
      <g transform="translate(29.763 299.83875)scale(0.16 -0.16)">
       <defs>
        <path id="DejaVuSans-2e" d="M 684 794 
L 1344 794 
L 1344 0 
L 684 0 
L 684 794 
z
" transform="scale(0.015625)"/>
       </defs>
       <use xlink:href="#DejaVuSans-30"/>
       <use xlink:href="#DejaVuSans-2e" x="63.623047"/>
       <use xlink:href="#DejaVuSans-30" x="95.410156"/>
      </g>
     </g>
    </g>
    <g id="ytick_2">
     <g id="line2d_41">
      <path d="M 62.208 236.274059 
L 460.8 236.274059 
" clip-path="url(#p1b099e084d)" style="fill: none; stroke: #b0b0b0; stroke-width: 0.8; stroke-linecap: square"/>
     </g>
     <g id="line2d_42">
      <g>
       <use xlink:href="#m7646c9cdaf" x="62.208" y="236.274059" style="stroke: #000000; stroke-width: 0.8"/>
      </g>
     </g>
     <g id="text_7">
      <!-- 0.2 -->
      <g transform="translate(29.763 242.352809)scale(0.16 -0.16)">
       <use xlink:href="#DejaVuSans-30"/>
       <use xlink:href="#DejaVuSans-2e" x="63.623047"/>
       <use xlink:href="#DejaVuSans-32" x="95.410156"/>
      </g>
     </g>
    </g>
    <g id="ytick_3">
     <g id="line2d_43">
      <path d="M 62.208 178.788119 
L 460.8 178.788119 
" clip-path="url(#p1b099e084d)" style="fill: none; stroke: #b0b0b0; stroke-width: 0.8; stroke-linecap: square"/>
     </g>
     <g id="line2d_44">
      <g>
       <use xlink:href="#m7646c9cdaf" x="62.208" y="178.788119" style="stroke: #000000; stroke-width: 0.8"/>
      </g>
     </g>
     <g id="text_8">
      <!-- 0.4 -->
      <g transform="translate(29.763 184.866869)scale(0.16 -0.16)">
       <use xlink:href="#DejaVuSans-30"/>
       <use xlink:href="#DejaVuSans-2e" x="63.623047"/>
       <use xlink:href="#DejaVuSans-34" x="95.410156"/>
      </g>
     </g>
    </g>
    <g id="ytick_4">
     <g id="line2d_45">
      <path d="M 62.208 121.302178 
L 460.8 121.302178 
" clip-path="url(#p1b099e084d)" style="fill: none; stroke: #b0b0b0; stroke-width: 0.8; stroke-linecap: square"/>
     </g>
     <g id="line2d_46">
      <g>
       <use xlink:href="#m7646c9cdaf" x="62.208" y="121.302178" style="stroke: #000000; stroke-width: 0.8"/>
      </g>
     </g>
     <g id="text_9">
      <!-- 0.6 -->
      <g transform="translate(29.763 127.380928)scale(0.16 -0.16)">
       <use xlink:href="#DejaVuSans-30"/>
       <use xlink:href="#DejaVuSans-2e" x="63.623047"/>
       <use xlink:href="#DejaVuSans-36" x="95.410156"/>
      </g>
     </g>
    </g>
    <g id="ytick_5">
     <g id="line2d_47">
      <path d="M 62.208 63.816238 
L 460.8 63.816238 
" clip-path="url(#p1b099e084d)" style="fill: none; stroke: #b0b0b0; stroke-width: 0.8; stroke-linecap: square"/>
     </g>
     <g id="line2d_48">
      <g>
       <use xlink:href="#m7646c9cdaf" x="62.208" y="63.816238" style="stroke: #000000; stroke-width: 0.8"/>
      </g>
     </g>
     <g id="text_10">
      <!-- 0.8 -->
      <g transform="translate(29.763 69.894988)scale(0.16 -0.16)">
       <defs>
        <path id="DejaVuSans-38" d="M 2034 2216 
Q 1584 2216 1326 1975 
Q 1069 1734 1069 1313 
Q 1069 891 1326 650 
Q 1584 409 2034 409 
Q 2484 409 2743 651 
Q 3003 894 3003 1313 
Q 3003 1734 2745 1975 
Q 2488 2216 2034 2216 
z
M 1403 2484 
Q 997 2584 770 2862 
Q 544 3141 544 3541 
Q 544 4100 942 4425 
Q 1341 4750 2034 4750 
Q 2731 4750 3128 4425 
Q 3525 4100 3525 3541 
Q 3525 3141 3298 2862 
Q 3072 2584 2669 2484 
Q 3125 2378 3379 2068 
Q 3634 1759 3634 1313 
Q 3634 634 3220 271 
Q 2806 -91 2034 -91 
Q 1263 -91 848 271 
Q 434 634 434 1313 
Q 434 1759 690 2068 
Q 947 2378 1403 2484 
z
M 1172 3481 
Q 1172 3119 1398 2916 
Q 1625 2713 2034 2713 
Q 2441 2713 2670 2916 
Q 2900 3119 2900 3481 
Q 2900 3844 2670 4047 
Q 2441 4250 2034 4250 
Q 1625 4250 1398 4047 
Q 1172 3844 1172 3481 
z
" transform="scale(0.015625)"/>
       </defs>
       <use xlink:href="#DejaVuSans-30"/>
       <use xlink:href="#DejaVuSans-2e" x="63.623047"/>
       <use xlink:href="#DejaVuSans-38" x="95.410156"/>
      </g>
     </g>
    </g>
    <g id="ytick_6">
     <g id="line2d_49">
      <path d="M 62.208 6.330297 
L 460.8 6.330297 
" clip-path="url(#p1b099e084d)" style="fill: none; stroke: #b0b0b0; stroke-width: 0.8; stroke-linecap: square"/>
     </g>
     <g id="line2d_50">
      <g>
       <use xlink:href="#m7646c9cdaf" x="62.208" y="6.330297" style="stroke: #000000; stroke-width: 0.8"/>
      </g>
     </g>
     <g id="text_11">
      <!-- 1.0 -->
      <g transform="translate(29.763 12.409047)scale(0.16 -0.16)">
       <use xlink:href="#DejaVuSans-31"/>
       <use xlink:href="#DejaVuSans-2e" x="63.623047"/>
       <use xlink:href="#DejaVuSans-30" x="95.410156"/>
      </g>
     </g>
    </g>
    <g id="text_12">
     <!-- proportion of trials -->
     <g transform="translate(21.603625 241.61425)rotate(-90)scale(0.2 -0.2)">
      <defs>
       <path id="DejaVuSans-70" d="M 1159 525 
L 1159 -1331 
L 581 -1331 
L 581 3500 
L 1159 3500 
L 1159 2969 
Q 1341 3281 1617 3432 
Q 1894 3584 2278 3584 
Q 2916 3584 3314 3078 
Q 3713 2572 3713 1747 
Q 3713 922 3314 415 
Q 2916 -91 2278 -91 
Q 1894 -91 1617 61 
Q 1341 213 1159 525 
z
M 3116 1747 
Q 3116 2381 2855 2742 
Q 2594 3103 2138 3103 
Q 1681 3103 1420 2742 
Q 1159 2381 1159 1747 
Q 1159 1113 1420 752 
Q 1681 391 2138 391 
Q 2594 391 2855 752 
Q 3116 1113 3116 1747 
z
" transform="scale(0.015625)"/>
       <path id="DejaVuSans-72" d="M 2631 2963 
Q 2534 3019 2420 3045 
Q 2306 3072 2169 3072 
Q 1681 3072 1420 2755 
Q 1159 2438 1159 1844 
L 1159 0 
L 581 0 
L 581 3500 
L 1159 3500 
L 1159 2956 
Q 1341 3275 1631 3429 
Q 1922 3584 2338 3584 
Q 2397 3584 2469 3576 
Q 2541 3569 2628 3553 
L 2631 2963 
z
" transform="scale(0.015625)"/>
       <path id="DejaVuSans-74" d="M 1172 4494 
L 1172 3500 
L 2356 3500 
L 2356 3053 
L 1172 3053 
L 1172 1153 
Q 1172 725 1289 603 
Q 1406 481 1766 481 
L 2356 481 
L 2356 0 
L 1766 0 
Q 1100 0 847 248 
Q 594 497 594 1153 
L 594 3053 
L 172 3053 
L 172 3500 
L 594 3500 
L 594 4494 
L 1172 4494 
z
" transform="scale(0.015625)"/>
       <path id="DejaVuSans-69" d="M 603 3500 
L 1178 3500 
L 1178 0 
L 603 0 
L 603 3500 
z
M 603 4863 
L 1178 4863 
L 1178 4134 
L 603 4134 
L 603 4863 
z
" transform="scale(0.015625)"/>
       <path id="DejaVuSans-6e" d="M 3513 2113 
L 3513 0 
L 2938 0 
L 2938 2094 
Q 2938 2591 2744 2837 
Q 2550 3084 2163 3084 
Q 1697 3084 1428 2787 
Q 1159 2491 1159 1978 
L 1159 0 
L 581 0 
L 581 3500 
L 1159 3500 
L 1159 2956 
Q 1366 3272 1645 3428 
Q 1925 3584 2291 3584 
Q 2894 3584 3203 3211 
Q 3513 2838 3513 2113 
z
" transform="scale(0.015625)"/>
      </defs>
      <use xlink:href="#DejaVuSans-70"/>
      <use xlink:href="#DejaVuSans-72" x="63.476562"/>
      <use xlink:href="#DejaVuSans-6f" x="102.339844"/>
      <use xlink:href="#DejaVuSans-70" x="163.521484"/>
      <use xlink:href="#DejaVuSans-6f" x="226.998047"/>
      <use xlink:href="#DejaVuSans-72" x="288.179688"/>
      <use xlink:href="#DejaVuSans-74" x="329.292969"/>
      <use xlink:href="#DejaVuSans-69" x="368.501953"/>
      <use xlink:href="#DejaVuSans-6f" x="396.285156"/>
      <use xlink:href="#DejaVuSans-6e" x="457.466797"/>
      <use xlink:href="#DejaVuSans-20" x="520.845703"/>
      <use xlink:href="#DejaVuSans-6f" x="552.632812"/>
      <use xlink:href="#DejaVuSans-66" x="613.814453"/>
      <use xlink:href="#DejaVuSans-20" x="649.019531"/>
      <use xlink:href="#DejaVuSans-74" x="680.806641"/>
      <use xlink:href="#DejaVuSans-72" x="720.015625"/>
      <use xlink:href="#DejaVuSans-69" x="761.128906"/>
      <use xlink:href="#DejaVuSans-61" x="788.912109"/>
      <use xlink:href="#DejaVuSans-6c" x="850.191406"/>
      <use xlink:href="#DejaVuSans-73" x="877.974609"/>
     </g>
    </g>
   </g>
   <g id="line2d_51">
    <path d="M 18.126687 293.76 
L 18.126687 286.095208 
L 37.111475 286.095208 
L 37.111475 278.430416 
L 48.216864 278.430416 
L 48.216864 274.59802 
L 56.096263 274.59802 
L 56.096263 270.765624 
L 67.201652 270.765624 
L 67.201652 266.933228 
L 71.423725 266.933228 
L 71.423725 263.100832 
L 75.081051 263.100832 
L 75.081051 255.43604 
L 81.192788 255.43604 
L 81.192788 251.603644 
L 83.803263 251.603644 
L 83.803263 243.938851 
L 88.378751 243.938851 
L 88.378751 240.106455 
L 90.408513 240.106455 
L 90.408513 236.274059 
L 95.726303 236.274059 
L 95.726303 232.441663 
L 98.772691 232.441663 
L 98.772691 228.609267 
L 100.177576 228.609267 
L 100.177576 224.776871 
L 105.171228 224.776871 
L 105.171228 220.944475 
L 107.363539 220.944475 
L 107.363539 213.279683 
L 108.397219 213.279683 
L 108.397219 209.447287 
L 110.354427 209.447287 
L 110.354427 205.614891 
L 115.505038 205.614891 
L 115.505038 201.782495 
L 116.276618 201.782495 
L 116.276618 197.950099 
L 122.388354 197.950099 
L 122.388354 194.117703 
L 127.382007 194.117703 
L 127.382007 190.285307 
L 130.267753 190.285307 
L 130.267753 186.452911 
L 131.60408 186.452911 
L 131.60408 182.620515 
L 135.261406 182.620515 
L 135.261406 178.788119 
L 141.675789 178.788119 
L 141.675789 174.955723 
L 146.619232 174.955723 
L 146.619232 171.123327 
L 149.023341 171.123327 
L 149.023341 167.290931 
L 155.181071 167.290931 
L 155.181071 163.458535 
L 158.953045 163.458535 
L 158.953045 159.626139 
L 159.429392 159.626139 
L 159.429392 151.961347 
L 164.185906 151.961347 
L 164.185906 148.12895 
L 166.347665 148.12895 
L 166.347665 144.296554 
L 168.464627 144.296554 
L 168.464627 140.464158 
L 170.63952 140.464158 
L 170.63952 136.631762 
L 174.891445 136.631762 
L 174.891445 132.799366 
L 181.535029 132.799366 
L 181.535029 128.96697 
L 182.500997 128.96697 
L 182.500997 125.134574 
L 183.104457 125.134574 
L 183.104457 121.302178 
L 183.953298 121.302178 
L 183.953298 117.469782 
L 185.996834 117.469782 
L 185.996834 113.637386 
L 189.571988 113.637386 
L 189.571988 109.80499 
L 191.297067 109.80499 
L 191.297067 105.972594 
L 197.122106 105.972594 
L 197.122106 102.140198 
L 202.90592 102.140198 
L 202.90592 98.307802 
L 203.416095 98.307802 
L 203.416095 94.475406 
L 203.573596 94.475406 
L 203.573596 90.64301 
L 207.434328 90.64301 
L 207.434328 86.810614 
L 207.786693 86.810614 
L 207.786693 82.978218 
L 208.134583 82.978218 
L 208.134583 79.145822 
L 208.346493 79.145822 
L 208.346493 75.313426 
L 216.813247 75.313426 
L 216.813247 71.48103 
L 245.122845 71.48103 
L 245.122845 67.648634 
L 246.819358 67.648634 
L 246.819358 63.816238 
L 247.345351 63.816238 
L 247.345351 59.983842 
L 247.642342 59.983842 
L 247.642342 56.151446 
L 251.285523 56.151446 
L 251.31302 48.486653 
L 254.49072 48.486653 
L 254.49072 44.654257 
L 254.680941 44.654257 
L 254.680941 40.821861 
L 254.951789 40.821861 
L 255.023885 33.157069 
L 255.476138 33.157069 
L 255.476138 29.324673 
L 257.222841 29.324673 
L 257.222841 25.492277 
L 259.266522 25.492277 
L 259.266522 21.659881 
L 259.573144 21.659881 
L 259.682693 13.995089 
L 259.811964 13.995089 
L 259.811964 10.162693 
L 259.944639 10.162693 
L 259.944639 6.330297 
L 259.944639 6.330297 
L 460.8 6.330297 
L 460.8 6.330297 
" clip-path="url(#p1b099e084d)" style="fill: none; stroke: #000000; stroke-width: 1.5; stroke-linecap: square"/>
   </g>
   <g id="line2d_52">
    <defs>
     <path id="m51142d5df9" d="M -0 14.142136 
L 8.485281 0 
L -0 -14.142136 
L -8.485281 -0 
z
" style="stroke: #000000; stroke-width: 1.5; stroke-linejoin: miter"/>
    </defs>
    <g clip-path="url(#p1b099e084d)">
     <use xlink:href="#m51142d5df9" x="105.171228" y="224.776871" style="fill-opacity: 0; stroke: #000000; stroke-width: 1.5; stroke-linejoin: miter"/>
     <use xlink:href="#m51142d5df9" x="159.429392" y="159.626139" style="fill-opacity: 0; stroke: #000000; stroke-width: 1.5; stroke-linejoin: miter"/>
     <use xlink:href="#m51142d5df9" x="203.416095" y="98.307802" style="fill-opacity: 0; stroke: #000000; stroke-width: 1.5; stroke-linejoin: miter"/>
     <use xlink:href="#m51142d5df9" x="251.31302" y="52.31905" style="fill-opacity: 0; stroke: #000000; stroke-width: 1.5; stroke-linejoin: miter"/>
     <use xlink:href="#m51142d5df9" x="259.944639" y="6.330297" style="fill-opacity: 0; stroke: #000000; stroke-width: 1.5; stroke-linejoin: miter"/>
    </g>
   </g>
   <g id="line2d_53">
    <path clip-path="url(#p1b099e084d)" style="fill: none; stroke: #000000; stroke-width: 1.5; stroke-linecap: square"/>
    <g clip-path="url(#p1b099e084d)">
     <use xlink:href="#m51142d5df9" x="-1" y="581.189703" style="fill-opacity: 0; stroke: #000000; stroke-width: 1.5; stroke-linejoin: miter"/>
     <use xlink:href="#m51142d5df9" x="460.8" y="581.189703" style="fill-opacity: 0; stroke: #000000; stroke-width: 1.5; stroke-linejoin: miter"/>
    </g>
   </g>
   <g id="line2d_54">
    <path d="M 18.126687 293.76 
L 18.126687 289.927604 
L 37.111475 289.927604 
L 37.111475 274.59802 
L 48.216864 274.59802 
L 48.216864 270.765624 
L 62.208 270.765624 
L 62.208 263.100832 
L 67.201652 263.100832 
L 67.201652 259.268436 
L 75.081051 259.268436 
L 75.081051 255.43604 
L 78.307041 255.43604 
L 78.307041 247.771248 
L 81.192788 247.771248 
L 81.192788 236.274059 
L 83.803263 236.274059 
L 83.803263 224.776871 
L 86.18644 224.776871 
L 86.18644 220.944475 
L 88.378751 220.944475 
L 88.378751 213.279683 
L 94.065839 213.279683 
L 94.065839 209.447287 
L 97.29183 209.447287 
L 97.29183 205.614891 
L 98.772691 205.614891 
L 98.772691 201.782495 
L 102.788051 201.782495 
L 102.788051 197.950099 
L 104.005552 197.950099 
L 104.005552 194.117703 
L 113.050627 194.117703 
L 113.050627 190.285307 
L 120.49869 190.285307 
L 120.49869 186.452911 
L 124.720763 186.452911 
L 124.720763 178.788119 
L 125.81648 178.788119 
L 125.81648 174.955723 
L 138.823464 174.955723 
L 138.823464 171.123327 
L 141.373142 171.123327 
L 141.373142 167.290931 
L 143.140804 167.290931 
L 143.140804 163.458535 
L 160.205343 163.458535 
L 160.205343 159.626139 
L 160.509672 159.626139 
L 160.509672 155.793743 
L 161.108368 155.793743 
L 161.108368 151.961347 
L 164.05327 151.961347 
L 164.05327 148.12895 
L 167.543893 148.12895 
L 167.543893 144.296554 
L 171.86611 144.296554 
L 171.86611 140.464158 
L 178.649282 140.464158 
L 178.649282 136.631762 
L 179.342718 136.631762 
L 179.342718 132.799366 
L 180.60649 132.799366 
L 180.60649 128.96697 
L 184.017516 128.96697 
L 184.017516 125.134574 
L 187.392767 125.134574 
L 187.392767 121.302178 
L 190.700545 121.302178 
L 190.700545 117.469782 
L 191.099667 117.469782 
L 191.099667 113.637386 
L 192.780517 113.637386 
L 192.780517 109.80499 
L 203.162196 109.80499 
L 203.162196 105.972594 
L 204.071596 105.972594 
L 204.071596 102.140198 
L 207.352365 102.140198 
L 207.407034 94.475406 
L 207.488834 94.475406 
L 207.488834 90.64301 
L 207.70578 90.64301 
L 207.70578 86.810614 
L 211.271791 86.810614 
L 211.271791 82.978218 
L 212.250083 82.978218 
L 212.250083 79.145822 
L 212.658885 79.145822 
L 212.658885 75.313426 
L 214.845993 75.313426 
L 214.845993 71.48103 
L 220.74042 71.48103 
L 220.74042 67.648634 
L 221.713117 67.648634 
L 221.713117 63.816238 
L 230.680133 63.816238 
L 230.680133 59.983842 
L 231.30343 59.983842 
L 231.30343 56.151446 
L 237.723832 56.151446 
L 237.723832 52.31905 
L 237.993325 52.31905 
L 237.993325 48.486653 
L 243.592558 48.486653 
L 243.621688 40.821861 
L 243.73065 40.821861 
L 243.73065 36.989465 
L 243.940087 36.989465 
L 243.940087 33.157069 
L 247.929929 33.157069 
L 247.929929 29.324673 
L 248.072597 29.324673 
L 248.072597 25.492277 
L 248.416889 25.492277 
L 248.422998 17.827485 
L 251.830276 17.827485 
L 251.830276 13.995089 
L 252.258409 13.995089 
L 252.258409 10.162693 
L 252.527892 10.162693 
L 252.527892 6.330297 
L 252.527892 6.330297 
L 460.8 6.330297 
L 460.8 6.330297 
" clip-path="url(#p1b099e084d)" style="fill: none; stroke: #000000; stroke-width: 1.5; stroke-linecap: square"/>
   </g>
   <g id="line2d_55">
    <defs>
     <path id="mebafd1052f" d="M 0 7.5 
C 1.989023 7.5 3.896849 6.709753 5.303301 5.303301 
C 6.709753 3.896849 7.5 1.989023 7.5 0 
C 7.5 -1.989023 6.709753 -3.896849 5.303301 -5.303301 
C 3.896849 -6.709753 1.989023 -7.5 0 -7.5 
C -1.989023 -7.5 -3.896849 -6.709753 -5.303301 -5.303301 
C -6.709753 -3.896849 -7.5 -1.989023 -7.5 0 
C -7.5 1.989023 -6.709753 3.896849 -5.303301 5.303301 
C -3.896849 6.709753 -1.989023 7.5 0 7.5 
z
" style="stroke: #000000; stroke-width: 1.5"/>
    </defs>
    <g clip-path="url(#p1b099e084d)">
     <use xlink:href="#mebafd1052f" x="98.772691" y="205.614891" style="fill-opacity: 0; stroke: #000000; stroke-width: 1.5"/>
     <use xlink:href="#mebafd1052f" x="143.140804" y="167.290931" style="fill-opacity: 0; stroke: #000000; stroke-width: 1.5"/>
     <use xlink:href="#mebafd1052f" x="212.250083" y="82.978218" style="fill-opacity: 0; stroke: #000000; stroke-width: 1.5"/>
     <use xlink:href="#mebafd1052f" x="252.258409" y="13.995089" style="fill-opacity: 0; stroke: #000000; stroke-width: 1.5"/>
     <use xlink:href="#mebafd1052f" x="252.527892" y="6.330297" style="fill-opacity: 0; stroke: #000000; stroke-width: 1.5"/>
    </g>
   </g>
   <g id="line2d_56">
    <path clip-path="url(#p1b099e084d)" style="fill: none; stroke: #000000; stroke-width: 1.5; stroke-linecap: square"/>
   </g>
   <g id="line2d_57">
    <path d="M 256.395389 293.76 
L 256.395389 289.927604 
L 271.531077 289.927604 
L 271.531077 286.095208 
L 272.04124 286.095208 
L 272.04124 282.262812 
L 274.037458 282.262812 
L 274.037458 278.430416 
L 274.385278 278.430416 
L 274.430219 270.765624 
L 276.315943 270.765624 
L 276.315943 266.933228 
L 278.125628 266.933228 
L 278.125628 263.100832 
L 278.77256 263.100832 
L 278.77256 259.268436 
L 279.964443 259.268436 
L 280.056975 247.771248 
L 280.250661 247.771248 
L 280.294577 240.106455 
L 280.866643 240.106455 
L 280.866643 236.274059 
L 281.311434 236.274059 
L 281.311434 232.441663 
L 281.779856 232.441663 
L 281.83041 224.776871 
L 281.959978 224.776871 
L 281.959978 220.944475 
L 282.222626 220.944475 
L 282.322023 209.447287 
L 282.733503 209.447287 
L 282.763157 197.950099 
L 282.933482 197.950099 
L 282.933482 194.117703 
L 283.786374 194.117703 
L 283.861847 186.452911 
L 284.015504 186.452911 
L 284.070411 178.788119 
L 285.343502 178.788119 
L 285.343502 174.955723 
L 287.631578 174.955723 
L 287.631578 171.123327 
L 287.901711 171.123327 
L 287.901711 167.290931 
L 289.007769 167.290931 
L 289.007769 163.458535 
L 290.25187 163.458535 
L 290.25187 159.626139 
L 290.432981 159.626139 
L 290.519805 140.464158 
L 290.56836 140.464158 
L 290.640377 132.799366 
L 290.684801 132.799366 
L 290.684801 128.96697 
L 291.7927 128.96697 
L 291.7927 125.134574 
L 292.20336 125.134574 
L 292.20336 121.302178 
L 292.666309 121.302178 
L 292.706356 113.637386 
L 292.973053 113.637386 
L 293.054593 102.140198 
L 293.784733 102.140198 
L 293.784733 98.307802 
L 294.185175 98.307802 
L 294.283805 90.64301 
L 295.124779 90.64301 
L 295.178016 82.978218 
L 295.272037 82.978218 
L 295.272037 79.145822 
L 296.266345 79.145822 
L 296.266345 75.313426 
L 296.475323 75.313426 
L 296.475323 71.48103 
L 298.762254 71.48103 
L 298.762254 67.648634 
L 299.740034 67.648634 
L 299.740034 63.816238 
L 300.628771 63.816238 
L 300.679576 56.151446 
L 300.791738 56.151446 
L 300.791738 52.31905 
L 306.52719 52.31905 
L 306.563042 44.654257 
L 306.77209 44.654257 
L 306.77209 40.821861 
L 310.586245 40.821861 
L 310.586245 36.989465 
L 311.148595 36.989465 
L 311.148595 33.157069 
L 311.64381 33.157069 
L 311.64381 29.324673 
L 311.990246 29.324673 
L 311.990246 25.492277 
L 312.359588 25.492277 
L 312.359588 21.659881 
L 312.831823 21.659881 
L 312.831823 17.827485 
L 313.023659 17.827485 
L 313.023659 13.995089 
L 313.262868 13.995089 
L 313.262868 10.162693 
L 315.029815 10.162693 
L 315.029815 6.330297 
L 315.029815 6.330297 
L 460.8 6.330297 
L 460.8 6.330297 
" clip-path="url(#p1b099e084d)" style="fill: none; stroke: #00bfbf; stroke-width: 1.5; stroke-linecap: square"/>
   </g>
   <g id="line2d_58">
    <defs>
     <path id="m552711ea94" d="M -0 14.142136 
L 8.485281 0 
L -0 -14.142136 
L -8.485281 -0 
z
" style="stroke: #00bfbf; stroke-width: 1.5; stroke-linejoin: miter"/>
    </defs>
    <g clip-path="url(#p1b099e084d)">
     <use xlink:href="#m552711ea94" x="294.283805" y="94.475406" style="fill-opacity: 0; stroke: #00bfbf; stroke-width: 1.5; stroke-linejoin: miter"/>
     <use xlink:href="#m552711ea94" x="315.029815" y="10.162693" style="fill-opacity: 0; stroke: #00bfbf; stroke-width: 1.5; stroke-linejoin: miter"/>
     <use xlink:href="#m552711ea94" x="315.029815" y="6.330297" style="fill-opacity: 0; stroke: #00bfbf; stroke-width: 1.5; stroke-linejoin: miter"/>
    </g>
   </g>
   <g id="line2d_59">
    <path clip-path="url(#p1b099e084d)" style="fill: none; stroke: #00bfbf; stroke-width: 1.5; stroke-linecap: square"/>
    <g clip-path="url(#p1b099e084d)">
     <use xlink:href="#m552711ea94" x="-1" y="581.189703" style="fill-opacity: 0; stroke: #00bfbf; stroke-width: 1.5; stroke-linejoin: miter"/>
     <use xlink:href="#m552711ea94" x="460.8" y="581.189703" style="fill-opacity: 0; stroke: #00bfbf; stroke-width: 1.5; stroke-linejoin: miter"/>
    </g>
   </g>
   <g id="line2d_60">
    <path d="M 264.351156 293.76 
L 264.351156 289.927604 
L 265.152029 289.927604 
L 265.152029 286.095208 
L 268.509251 286.095208 
L 268.509251 282.262812 
L 268.888004 282.262812 
L 268.888004 278.430416 
L 269.026538 278.430416 
L 269.026538 274.59802 
L 269.164375 274.59802 
L 269.164375 270.765624 
L 270.636491 270.765624 
L 270.636491 266.933228 
L 270.954943 266.933228 
L 270.973718 259.268436 
L 271.179402 259.268436 
L 271.182063 251.603644 
L 271.312141 251.603644 
L 271.312141 247.771248 
L 272.162176 247.771248 
L 272.162176 243.938851 
L 273.561027 243.938851 
L 273.561027 240.106455 
L 273.794232 240.106455 
L 273.794232 236.274059 
L 274.302298 236.274059 
L 274.302298 232.441663 
L 274.465647 232.441663 
L 274.465647 228.609267 
L 276.012022 228.609267 
L 276.012022 224.776871 
L 276.666671 224.776871 
L 276.666671 220.944475 
L 276.976378 220.944475 
L 276.976378 217.112079 
L 277.124573 217.112079 
L 277.124573 213.279683 
L 278.249254 213.279683 
L 278.249254 209.447287 
L 278.400961 209.447287 
L 278.400961 205.614891 
L 278.977513 205.614891 
L 278.977513 201.782495 
L 279.974097 201.782495 
L 279.974097 197.950099 
L 280.344137 197.950099 
L 280.344137 194.117703 
L 281.125131 194.117703 
L 281.125131 190.285307 
L 281.252545 190.285307 
L 281.283845 182.620515 
L 281.372032 182.620515 
L 281.408693 174.955723 
L 281.743689 174.955723 
L 281.743689 171.123327 
L 283.551923 171.123327 
L 283.551923 167.290931 
L 283.881939 167.290931 
L 283.881939 163.458535 
L 284.982544 163.458535 
L 284.982544 159.626139 
L 285.770152 159.626139 
L 285.770152 155.793743 
L 289.385463 155.793743 
L 289.385463 151.961347 
L 290.304873 151.961347 
L 290.304873 148.12895 
L 290.576225 148.12895 
L 290.576225 144.296554 
L 291.13027 144.296554 
L 291.13027 140.464158 
L 292.172464 140.464158 
L 292.26628 128.96697 
L 292.544595 128.96697 
L 292.544595 125.134574 
L 293.168106 125.134574 
L 293.220521 117.469782 
L 294.274645 117.469782 
L 294.274645 113.637386 
L 294.508406 113.637386 
L 294.508406 109.80499 
L 294.721043 109.80499 
L 294.721043 105.972594 
L 295.477753 105.972594 
L 295.477753 102.140198 
L 296.097578 102.140198 
L 296.097578 98.307802 
L 296.248236 98.307802 
L 296.248236 94.475406 
L 296.633381 94.475406 
L 296.633381 90.64301 
L 296.845844 90.64301 
L 296.845844 86.810614 
L 297.043218 86.810614 
L 297.043218 82.978218 
L 297.668461 82.978218 
L 297.668461 79.145822 
L 298.934745 79.145822 
L 298.993608 71.48103 
L 299.12535 71.48103 
L 299.223981 59.983842 
L 299.256461 59.983842 
L 299.256461 56.151446 
L 299.812166 56.151446 
L 299.859838 48.486653 
L 300.370574 48.486653 
L 300.370574 44.654257 
L 300.916925 44.654257 
L 300.916925 40.821861 
L 301.305925 40.821861 
L 301.305925 36.989465 
L 302.688743 36.989465 
L 302.688743 33.157069 
L 303.202734 33.157069 
L 303.202734 29.324673 
L 305.12269 29.324673 
L 305.12269 25.492277 
L 306.223136 25.492277 
L 306.223136 21.659881 
L 309.913294 21.659881 
L 309.913294 17.827485 
L 316.223969 17.827485 
L 316.223969 13.995089 
L 317.78784 13.995089 
L 317.78784 10.162693 
L 323.082838 10.162693 
L 323.082838 6.330297 
L 323.082838 6.330297 
L 460.8 6.330297 
L 460.8 6.330297 
" clip-path="url(#p1b099e084d)" style="fill: none; stroke: #00bfbf; stroke-width: 1.5; stroke-linecap: square"/>
   </g>
   <g id="line2d_61">
    <defs>
     <path id="me92578f77f" d="M 0 7.5 
C 1.989023 7.5 3.896849 6.709753 5.303301 5.303301 
C 6.709753 3.896849 7.5 1.989023 7.5 0 
C 7.5 -1.989023 6.709753 -3.896849 5.303301 -5.303301 
C 3.896849 -6.709753 1.989023 -7.5 0 -7.5 
C -1.989023 -7.5 -3.896849 -6.709753 -5.303301 -5.303301 
C -6.709753 -3.896849 -7.5 -1.989023 -7.5 0 
C -7.5 1.989023 -6.709753 3.896849 -5.303301 5.303301 
C -3.896849 6.709753 -1.989023 7.5 0 7.5 
z
" style="stroke: #00bfbf; stroke-width: 1.5"/>
    </defs>
    <g clip-path="url(#p1b099e084d)">
     <use xlink:href="#me92578f77f" x="279.974097" y="201.782495" style="fill-opacity: 0; stroke: #00bfbf; stroke-width: 1.5"/>
     <use xlink:href="#me92578f77f" x="300.916925" y="44.654257" style="fill-opacity: 0; stroke: #00bfbf; stroke-width: 1.5"/>
     <use xlink:href="#me92578f77f" x="323.082838" y="6.330297" style="fill-opacity: 0; stroke: #00bfbf; stroke-width: 1.5"/>
    </g>
   </g>
   <g id="line2d_62">
    <path clip-path="url(#p1b099e084d)" style="fill: none; stroke: #00bfbf; stroke-width: 1.5; stroke-linecap: square"/>
   </g>
   <g id="line2d_63">
    <path d="M 299.857036 293.76 
L 299.857036 289.927604 
L 302.767803 289.927604 
L 302.767803 286.095208 
L 302.926077 286.095208 
L 302.926077 282.262812 
L 303.725916 282.262812 
L 303.725916 278.430416 
L 308.260512 278.430416 
L 308.260512 274.59802 
L 308.457726 274.59802 
L 308.457726 270.765624 
L 309.072361 270.765624 
L 309.173583 263.100832 
L 309.214101 263.100832 
L 309.214101 259.268436 
L 309.779037 259.268436 
L 309.779037 255.43604 
L 310.201625 255.43604 
L 310.290471 247.771248 
L 310.702786 247.771248 
L 310.702786 243.938851 
L 310.841983 243.938851 
L 310.93626 236.274059 
L 311.028971 236.274059 
L 311.134367 228.609267 
L 311.672342 228.609267 
L 311.778922 220.944475 
L 311.881476 220.944475 
L 311.942224 213.279683 
L 312.183878 213.279683 
L 312.210664 205.614891 
L 312.759027 205.614891 
L 312.759027 201.782495 
L 312.920664 201.782495 
L 312.924142 194.117703 
L 313.352607 194.117703 
L 313.352607 190.285307 
L 313.538575 190.285307 
L 313.538575 186.452911 
L 313.733983 186.452911 
L 313.733983 182.620515 
L 313.87991 182.620515 
L 313.87991 178.788119 
L 314.552263 178.788119 
L 314.552263 174.955723 
L 315.159936 174.955723 
L 315.159936 171.123327 
L 315.349986 171.123327 
L 315.349986 167.290931 
L 315.627098 167.290931 
L 315.683234 159.626139 
L 316.056973 159.626139 
L 316.056973 155.793743 
L 316.316306 155.793743 
L 316.316306 151.961347 
L 316.99659 151.961347 
L 317.077399 144.296554 
L 317.110253 144.296554 
L 317.110253 140.464158 
L 317.271462 140.464158 
L 317.340614 125.134574 
L 317.684268 125.134574 
L 317.705696 117.469782 
L 318.084225 117.469782 
L 318.14561 109.80499 
L 318.218804 109.80499 
L 318.218804 105.972594 
L 318.379336 105.972594 
L 318.379336 102.140198 
L 318.612498 102.140198 
L 318.612498 98.307802 
L 318.832949 98.307802 
L 318.871696 90.64301 
L 319.039124 90.64301 
L 319.039124 86.810614 
L 319.359028 86.810614 
L 319.400699 79.145822 
L 319.636252 79.145822 
L 319.636252 75.313426 
L 320.542476 75.313426 
L 320.542476 71.48103 
L 320.692168 71.48103 
L 320.770626 63.816238 
L 321.416273 63.816238 
L 321.416273 59.983842 
L 322.046219 59.983842 
L 322.046219 56.151446 
L 326.639374 56.151446 
L 326.639374 52.31905 
L 327.587461 52.31905 
L 327.587461 48.486653 
L 328.279744 48.486653 
L 328.279744 44.654257 
L 330.769451 44.654257 
L 330.769451 40.821861 
L 331.66059 40.821861 
L 331.66059 36.989465 
L 332.331402 36.989465 
L 332.331402 33.157069 
L 332.468613 33.157069 
L 332.468613 29.324673 
L 333.964909 29.324673 
L 333.964909 25.492277 
L 336.200059 25.492277 
L 336.200059 21.659881 
L 337.314208 21.659881 
L 337.314208 17.827485 
L 343.677075 17.827485 
L 343.677075 13.995089 
L 371.958 13.995089 
L 371.958 10.162693 
L 374.848467 10.162693 
L 374.848467 6.330297 
L 374.848467 6.330297 
L 460.8 6.330297 
L 460.8 6.330297 
" clip-path="url(#p1b099e084d)" style="fill: none; stroke: #bf00bf; stroke-width: 1.5; stroke-linecap: square"/>
   </g>
   <g id="line2d_64">
    <defs>
     <path id="me260a94ab1" d="M -0 14.142136 
L 8.485281 0 
L -0 -14.142136 
L -8.485281 -0 
z
" style="stroke: #bf00bf; stroke-width: 1.5; stroke-linejoin: miter"/>
    </defs>
    <g clip-path="url(#p1b099e084d)">
     <use xlink:href="#me260a94ab1" x="314.552263" y="178.788119" style="fill-opacity: 0; stroke: #bf00bf; stroke-width: 1.5; stroke-linejoin: miter"/>
     <use xlink:href="#me260a94ab1" x="322.046219" y="59.983842" style="fill-opacity: 0; stroke: #bf00bf; stroke-width: 1.5; stroke-linejoin: miter"/>
     <use xlink:href="#me260a94ab1" x="343.677075" y="17.827485" style="fill-opacity: 0; stroke: #bf00bf; stroke-width: 1.5; stroke-linejoin: miter"/>
     <use xlink:href="#me260a94ab1" x="374.848467" y="6.330297" style="fill-opacity: 0; stroke: #bf00bf; stroke-width: 1.5; stroke-linejoin: miter"/>
    </g>
   </g>
   <g id="line2d_65">
    <path clip-path="url(#p1b099e084d)" style="fill: none; stroke: #bf00bf; stroke-width: 1.5; stroke-linecap: square"/>
    <g clip-path="url(#p1b099e084d)">
     <use xlink:href="#me260a94ab1" x="-1" y="581.189703" style="fill-opacity: 0; stroke: #bf00bf; stroke-width: 1.5; stroke-linejoin: miter"/>
     <use xlink:href="#me260a94ab1" x="460.8" y="581.189703" style="fill-opacity: 0; stroke: #bf00bf; stroke-width: 1.5; stroke-linejoin: miter"/>
    </g>
   </g>
   <g id="line2d_66">
    <path d="M 297.250483 293.76 
L 297.250483 289.927604 
L 299.227805 289.927604 
L 299.227805 286.095208 
L 299.426827 286.095208 
L 299.426827 282.262812 
L 300.244701 282.262812 
L 300.25667 274.59802 
L 300.369657 274.59802 
L 300.369657 270.765624 
L 300.708565 270.765624 
L 300.708565 266.933228 
L 300.895351 266.933228 
L 300.897149 259.268436 
L 301.171827 259.268436 
L 301.265144 247.771248 
L 301.479893 247.771248 
L 301.479893 243.938851 
L 302.492633 243.938851 
L 302.533323 236.274059 
L 303.085932 236.274059 
L 303.145638 228.609267 
L 303.279502 228.609267 
L 303.345367 220.944475 
L 303.691834 220.944475 
L 303.691834 217.112079 
L 303.874732 217.112079 
L 303.874732 213.279683 
L 304.420163 213.279683 
L 304.420163 209.447287 
L 304.881183 209.447287 
L 304.887402 201.782495 
L 305.638008 201.782495 
L 305.72409 194.117703 
L 305.911925 194.117703 
L 305.974003 186.452911 
L 306.309616 186.452911 
L 306.309616 182.620515 
L 306.628769 182.620515 
L 306.628769 178.788119 
L 307.019135 178.788119 
L 307.019135 174.955723 
L 307.174738 174.955723 
L 307.238302 163.458535 
L 307.542642 163.458535 
L 307.542642 159.626139 
L 307.932808 159.626139 
L 308.011982 148.12895 
L 308.354503 148.12895 
L 308.354503 144.296554 
L 308.775874 144.296554 
L 308.861393 136.631762 
L 308.945305 136.631762 
L 308.945305 132.799366 
L 309.067023 132.799366 
L 309.117691 125.134574 
L 309.359732 125.134574 
L 309.38151 117.469782 
L 309.652612 117.469782 
L 309.652612 113.637386 
L 309.983726 113.637386 
L 310.039812 105.972594 
L 310.156131 105.972594 
L 310.156131 102.140198 
L 310.796289 102.140198 
L 310.796289 98.307802 
L 311.162198 98.307802 
L 311.162198 94.475406 
L 311.38874 94.475406 
L 311.38874 90.64301 
L 311.571436 90.64301 
L 311.571436 86.810614 
L 311.694176 86.810614 
L 311.694176 82.978218 
L 313.443758 82.978218 
L 313.443758 79.145822 
L 315.519226 79.145822 
L 315.519226 75.313426 
L 316.040425 75.313426 
L 316.040425 71.48103 
L 318.171465 71.48103 
L 318.171465 67.648634 
L 318.605904 67.648634 
L 318.647796 56.151446 
L 320.761049 56.151446 
L 320.761049 52.31905 
L 321.01933 52.31905 
L 321.01933 48.486653 
L 324.614475 48.486653 
L 324.614475 44.654257 
L 326.003204 44.654257 
L 326.003204 40.821861 
L 331.23766 40.821861 
L 331.23766 36.989465 
L 343.541517 36.989465 
L 343.541517 33.157069 
L 355.563813 33.157069 
L 355.563813 29.324673 
L 361.925974 29.324673 
L 361.925974 25.492277 
L 365.316827 25.492277 
L 365.316827 21.659881 
L 366.061146 21.659881 
L 366.061146 17.827485 
L 367.862718 17.827485 
L 367.862718 13.995089 
L 370.171751 13.995089 
L 370.171751 10.162693 
L 378.857138 10.162693 
L 378.857138 6.330297 
L 378.857138 6.330297 
L 460.8 6.330297 
L 460.8 6.330297 
" clip-path="url(#p1b099e084d)" style="fill: none; stroke: #bf00bf; stroke-width: 1.5; stroke-linecap: square"/>
   </g>
   <g id="line2d_67">
    <defs>
     <path id="m12118b46d7" d="M 0 7.5 
C 1.989023 7.5 3.896849 6.709753 5.303301 5.303301 
C 6.709753 3.896849 7.5 1.989023 7.5 0 
C 7.5 -1.989023 6.709753 -3.896849 5.303301 -5.303301 
C 3.896849 -6.709753 1.989023 -7.5 0 -7.5 
C -1.989023 -7.5 -3.896849 -6.709753 -5.303301 -5.303301 
C -6.709753 -3.896849 -7.5 -1.989023 -7.5 0 
C -7.5 1.989023 -6.709753 3.896849 -5.303301 5.303301 
C -3.896849 6.709753 -1.989023 7.5 0 7.5 
z
" style="stroke: #bf00bf; stroke-width: 1.5"/>
    </defs>
    <g clip-path="url(#p1b099e084d)">
     <use xlink:href="#m12118b46d7" x="311.694176" y="86.810614" style="fill-opacity: 0; stroke: #bf00bf; stroke-width: 1.5"/>
     <use xlink:href="#m12118b46d7" x="355.563813" y="33.157069" style="fill-opacity: 0; stroke: #bf00bf; stroke-width: 1.5"/>
     <use xlink:href="#m12118b46d7" x="378.857138" y="10.162693" style="fill-opacity: 0; stroke: #bf00bf; stroke-width: 1.5"/>
     <use xlink:href="#m12118b46d7" x="378.857138" y="6.330297" style="fill-opacity: 0; stroke: #bf00bf; stroke-width: 1.5"/>
    </g>
   </g>
   <g id="line2d_68">
    <path clip-path="url(#p1b099e084d)" style="fill: none; stroke: #bf00bf; stroke-width: 1.5; stroke-linecap: square"/>
   </g>
   <g id="line2d_69">
    <path d="M 308.523149 293.76 
L 308.523149 289.927604 
L 309.536754 289.927604 
L 309.609468 282.262812 
L 310.755538 282.262812 
L 310.755538 278.430416 
L 313.473885 278.430416 
L 313.563502 270.765624 
L 314.397253 270.765624 
L 314.397253 266.933228 
L 314.633524 266.933228 
L 314.633524 263.100832 
L 316.408844 263.100832 
L 316.517342 247.771248 
L 319.610381 247.771248 
L 319.610381 243.938851 
L 319.813061 243.938851 
L 319.813061 240.106455 
L 322.433164 240.106455 
L 322.433164 236.274059 
L 323.166713 236.274059 
L 323.166713 232.441663 
L 323.430636 232.441663 
L 323.430636 228.609267 
L 323.692432 228.609267 
L 323.692432 224.776871 
L 323.83641 224.776871 
L 323.83641 220.944475 
L 324.194041 220.944475 
L 324.194041 217.112079 
L 324.411734 217.112079 
L 324.411734 213.279683 
L 324.958044 213.279683 
L 325.001714 205.614891 
L 325.579618 205.614891 
L 325.579618 201.782495 
L 325.691495 201.782495 
L 325.691495 197.950099 
L 325.82283 197.950099 
L 325.82283 194.117703 
L 325.976583 194.117703 
L 326.086137 182.620515 
L 326.160956 182.620515 
L 326.193469 174.955723 
L 326.370716 174.955723 
L 326.370716 171.123327 
L 326.59437 171.123327 
L 326.59437 167.290931 
L 326.785478 167.290931 
L 326.785478 163.458535 
L 327.185445 163.458535 
L 327.232927 151.961347 
L 327.376592 151.961347 
L 327.414183 140.464158 
L 327.651524 140.464158 
L 327.651524 136.631762 
L 328.157707 136.631762 
L 328.157707 132.799366 
L 328.374213 132.799366 
L 328.465401 121.302178 
L 328.975289 121.302178 
L 328.975289 117.469782 
L 329.125845 117.469782 
L 329.125845 113.637386 
L 329.342183 113.637386 
L 329.425132 105.972594 
L 330.271262 105.972594 
L 330.335799 98.307802 
L 330.507461 98.307802 
L 330.507461 94.475406 
L 330.820162 94.475406 
L 330.820162 90.64301 
L 330.963937 90.64301 
L 331.065746 82.978218 
L 331.080686 82.978218 
L 331.09293 75.313426 
L 331.245678 75.313426 
L 331.281879 67.648634 
L 331.422961 67.648634 
L 331.422961 63.816238 
L 331.543355 63.816238 
L 331.543355 59.983842 
L 332.15073 59.983842 
L 332.15073 56.151446 
L 332.329119 56.151446 
L 332.329119 52.31905 
L 332.810908 52.31905 
L 332.810908 48.486653 
L 333.559162 48.486653 
L 333.559162 44.654257 
L 333.744363 44.654257 
L 333.744363 40.821861 
L 334.462066 40.821861 
L 334.543792 33.157069 
L 335.93463 33.157069 
L 335.93463 29.324673 
L 338.515588 29.324673 
L 338.515588 25.492277 
L 339.478283 25.492277 
L 339.478283 21.659881 
L 343.083402 21.659881 
L 343.083402 17.827485 
L 346.045286 17.827485 
L 346.045286 13.995089 
L 373.566988 13.995089 
L 373.566988 10.162693 
L 375.703153 10.162693 
L 375.703153 6.330297 
L 375.703153 6.330297 
L 460.8 6.330297 
L 460.8 6.330297 
" clip-path="url(#p1b099e084d)" style="fill: none; stroke: #ff0000; stroke-width: 3; stroke-linecap: square"/>
   </g>
   <g id="line2d_70">
    <defs>
     <path id="m87d6eb536d" d="M -0 14.142136 
L 8.485281 0 
L -0 -14.142136 
L -8.485281 -0 
z
" style="stroke: #ff0000; stroke-width: 3; stroke-linejoin: miter"/>
    </defs>
    <g clip-path="url(#p1b099e084d)">
     <use xlink:href="#m87d6eb536d" x="316.441999" y="255.43604" style="fill-opacity: 0; stroke: #ff0000; stroke-width: 3; stroke-linejoin: miter"/>
     <use xlink:href="#m87d6eb536d" x="330.335799" y="102.140198" style="fill-opacity: 0; stroke: #ff0000; stroke-width: 3; stroke-linejoin: miter"/>
     <use xlink:href="#m87d6eb536d" x="339.478283" y="25.492277" style="fill-opacity: 0; stroke: #ff0000; stroke-width: 3; stroke-linejoin: miter"/>
     <use xlink:href="#m87d6eb536d" x="375.703153" y="6.330297" style="fill-opacity: 0; stroke: #ff0000; stroke-width: 3; stroke-linejoin: miter"/>
    </g>
   </g>
   <g id="line2d_71">
    <path clip-path="url(#p1b099e084d)" style="fill: none; stroke: #ff0000; stroke-width: 3; stroke-linecap: square"/>
    <g clip-path="url(#p1b099e084d)">
     <use xlink:href="#m87d6eb536d" x="-1" y="581.189703" style="fill-opacity: 0; stroke: #ff0000; stroke-width: 3; stroke-linejoin: miter"/>
     <use xlink:href="#m87d6eb536d" x="460.8" y="581.189703" style="fill-opacity: 0; stroke: #ff0000; stroke-width: 3; stroke-linejoin: miter"/>
    </g>
   </g>
   <g id="line2d_72">
    <path d="M 304.313212 293.76 
L 304.313212 289.927604 
L 306.762656 289.927604 
L 306.784423 282.262812 
L 307.104575 282.262812 
L 307.104575 278.430416 
L 307.579303 278.430416 
L 307.579303 274.59802 
L 307.95714 274.59802 
L 307.95714 270.765624 
L 308.593849 270.765624 
L 308.593849 266.933228 
L 310.000499 266.933228 
L 310.000499 263.100832 
L 310.8326 263.100832 
L 310.8326 259.268436 
L 311.130654 259.268436 
L 311.130654 255.43604 
L 311.723867 255.43604 
L 311.723867 251.603644 
L 311.836882 251.603644 
L 311.836882 247.771248 
L 312.368462 247.771248 
L 312.368462 243.938851 
L 314.111787 243.938851 
L 314.111787 240.106455 
L 315.365367 240.106455 
L 315.365367 236.274059 
L 315.666458 236.274059 
L 315.666458 232.441663 
L 315.820204 232.441663 
L 315.820204 228.609267 
L 316.187461 228.609267 
L 316.294276 220.944475 
L 316.781941 220.944475 
L 316.874426 209.447287 
L 317.083874 209.447287 
L 317.083874 205.614891 
L 317.42976 205.614891 
L 317.42976 201.782495 
L 317.598392 201.782495 
L 317.598392 197.950099 
L 317.915669 197.950099 
L 318.018852 186.452911 
L 318.414936 186.452911 
L 318.414936 182.620515 
L 318.652028 182.620515 
L 318.652028 178.788119 
L 318.767937 178.788119 
L 318.767937 174.955723 
L 319.223963 174.955723 
L 319.223963 171.123327 
L 319.418082 171.123327 
L 319.45601 163.458535 
L 319.630807 163.458535 
L 319.679768 151.961347 
L 319.782393 151.961347 
L 319.867546 144.296554 
L 320.282739 144.296554 
L 320.282739 140.464158 
L 320.882692 140.464158 
L 320.950232 132.799366 
L 321.21017 132.799366 
L 321.21017 128.96697 
L 321.534624 128.96697 
L 321.534624 125.134574 
L 322.365493 125.134574 
L 322.456502 117.469782 
L 322.849435 117.469782 
L 322.930407 105.972594 
L 323.20059 105.972594 
L 323.243175 98.307802 
L 323.560274 98.307802 
L 323.560274 94.475406 
L 323.814609 94.475406 
L 323.878796 86.810614 
L 324.115569 86.810614 
L 324.115569 82.978218 
L 324.361768 82.978218 
L 324.445629 71.48103 
L 324.82286 71.48103 
L 324.82286 67.648634 
L 325.333857 67.648634 
L 325.333857 63.816238 
L 325.776101 63.816238 
L 325.776101 59.983842 
L 325.934081 59.983842 
L 325.934081 56.151446 
L 326.253035 56.151446 
L 326.253035 52.31905 
L 326.446178 52.31905 
L 326.446178 48.486653 
L 327.477971 48.486653 
L 327.477971 44.654257 
L 329.024922 44.654257 
L 329.024922 40.821861 
L 333.631379 40.821861 
L 333.631379 36.989465 
L 346.555446 36.989465 
L 346.555446 33.157069 
L 357.025155 33.157069 
L 357.025155 29.324673 
L 363.362323 29.324673 
L 363.362323 25.492277 
L 365.959927 25.492277 
L 365.959927 21.659881 
L 367.740784 21.659881 
L 367.740784 17.827485 
L 368.604247 17.827485 
L 368.604247 13.995089 
L 370.745056 13.995089 
L 370.745056 10.162693 
L 379.405238 10.162693 
L 379.405238 6.330297 
L 379.405238 6.330297 
L 460.8 6.330297 
L 460.8 6.330297 
" clip-path="url(#p1b099e084d)" style="fill: none; stroke: #ff0000; stroke-width: 3; stroke-linecap: square"/>
   </g>
   <g id="line2d_73">
    <defs>
     <path id="m4bbac2e9fa" d="M 0 7.5 
C 1.989023 7.5 3.896849 6.709753 5.303301 5.303301 
C 6.709753 3.896849 7.5 1.989023 7.5 0 
C 7.5 -1.989023 6.709753 -3.896849 5.303301 -5.303301 
C 3.896849 -6.709753 1.989023 -7.5 0 -7.5 
C -1.989023 -7.5 -3.896849 -6.709753 -5.303301 -5.303301 
C -6.709753 -3.896849 -7.5 -1.989023 -7.5 0 
C -7.5 1.989023 -6.709753 3.896849 -5.303301 5.303301 
C -3.896849 6.709753 -1.989023 7.5 0 7.5 
z
" style="stroke: #ff0000; stroke-width: 3"/>
    </defs>
    <g clip-path="url(#p1b099e084d)">
     <use xlink:href="#m4bbac2e9fa" x="318.652028" y="182.620515" style="fill-opacity: 0; stroke: #ff0000; stroke-width: 3"/>
     <use xlink:href="#m4bbac2e9fa" x="325.333857" y="67.648634" style="fill-opacity: 0; stroke: #ff0000; stroke-width: 3"/>
     <use xlink:href="#m4bbac2e9fa" x="370.745056" y="13.995089" style="fill-opacity: 0; stroke: #ff0000; stroke-width: 3"/>
     <use xlink:href="#m4bbac2e9fa" x="379.405238" y="6.330297" style="fill-opacity: 0; stroke: #ff0000; stroke-width: 3"/>
    </g>
   </g>
   <g id="line2d_74">
    <path clip-path="url(#p1b099e084d)" style="fill: none; stroke: #ff0000; stroke-width: 3; stroke-linecap: square"/>
   </g>
   <g id="line2d_75">
    <path d="M 375.703153 293.76 
L 375.703153 3.456 
" clip-path="url(#p1b099e084d)" style="fill: none; stroke: #000000; stroke-width: 1.5; stroke-linecap: square"/>
    <defs>
     <path id="mcccae0aedc" d="M -10 0 
L 10 0 
M 0 10 
L 0 -10 
" style="stroke: #000000; stroke-width: 3"/>
    </defs>
    <g clip-path="url(#p1b099e084d)">
     <use xlink:href="#mcccae0aedc" x="375.703153" y="293.76" style="stroke: #000000; stroke-width: 3"/>
     <use xlink:href="#mcccae0aedc" x="375.703153" y="3.456" style="stroke: #000000; stroke-width: 3"/>
    </g>
   </g>
   <g id="line2d_76">
    <path d="M 379.405238 293.76 
L 379.405238 3.456 
" clip-path="url(#p1b099e084d)" style="fill: none; stroke: #000000; stroke-width: 1.5; stroke-linecap: square"/>
    <defs>
     <path id="mc4f37ac20b" d="M 0 7.5 
C 1.989023 7.5 3.896849 6.709753 5.303301 5.303301 
C 6.709753 3.896849 7.5 1.989023 7.5 0 
C 7.5 -1.989023 6.709753 -3.896849 5.303301 -5.303301 
C 3.896849 -6.709753 1.989023 -7.5 0 -7.5 
C -1.989023 -7.5 -3.896849 -6.709753 -5.303301 -5.303301 
C -6.709753 -3.896849 -7.5 -1.989023 -7.5 0 
C -7.5 1.989023 -6.709753 3.896849 -5.303301 5.303301 
C -3.896849 6.709753 -1.989023 7.5 0 7.5 
z
" style="stroke: #000000; stroke-width: 3"/>
    </defs>
    <g clip-path="url(#p1b099e084d)">
     <use xlink:href="#mc4f37ac20b" x="379.405238" y="293.76" style="fill-opacity: 0; stroke: #000000; stroke-width: 3"/>
     <use xlink:href="#mc4f37ac20b" x="379.405238" y="3.456" style="fill-opacity: 0; stroke: #000000; stroke-width: 3"/>
    </g>
   </g>
   <g id="patch_3">
    <path d="M 62.208 293.76 
L 62.208 3.456 
" style="fill: none; stroke: #000000; stroke-width: 0.8; stroke-linejoin: miter; stroke-linecap: square"/>
   </g>
   <g id="patch_4">
    <path d="M 460.8 293.76 
L 460.8 3.456 
" style="fill: none; stroke: #000000; stroke-width: 0.8; stroke-linejoin: miter; stroke-linecap: square"/>
   </g>
   <g id="patch_5">
    <path d="M 62.208 293.76 
L 460.8 293.76 
" style="fill: none; stroke: #000000; stroke-width: 0.8; stroke-linejoin: miter; stroke-linecap: square"/>
   </g>
   <g id="patch_6">
    <path d="M 62.208 3.456 
L 460.8 3.456 
" style="fill: none; stroke: #000000; stroke-width: 0.8; stroke-linejoin: miter; stroke-linecap: square"/>
   </g>
   <g id="text_13">
    <!-- f15-f19 -->
    <g transform="translate(225.405563 24.458955)scale(0.2 -0.2)">
     <defs>
      <path id="DejaVuSans-35" d="M 691 4666 
L 3169 4666 
L 3169 4134 
L 1269 4134 
L 1269 2991 
Q 1406 3038 1543 3061 
Q 1681 3084 1819 3084 
Q 2600 3084 3056 2656 
Q 3513 2228 3513 1497 
Q 3513 744 3044 326 
Q 2575 -91 1722 -91 
Q 1428 -91 1123 -41 
Q 819 9 494 109 
L 494 744 
Q 775 591 1075 516 
Q 1375 441 1709 441 
Q 2250 441 2565 725 
Q 2881 1009 2881 1497 
Q 2881 1984 2565 2268 
Q 2250 2553 1709 2553 
Q 1456 2553 1204 2497 
Q 953 2441 691 2322 
L 691 4666 
z
" transform="scale(0.015625)"/>
      <path id="DejaVuSans-2d" d="M 313 2009 
L 1997 2009 
L 1997 1497 
L 313 1497 
L 313 2009 
z
" transform="scale(0.015625)"/>
      <path id="DejaVuSans-39" d="M 703 97 
L 703 672 
Q 941 559 1184 500 
Q 1428 441 1663 441 
Q 2288 441 2617 861 
Q 2947 1281 2994 2138 
Q 2813 1869 2534 1725 
Q 2256 1581 1919 1581 
Q 1219 1581 811 2004 
Q 403 2428 403 3163 
Q 403 3881 828 4315 
Q 1253 4750 1959 4750 
Q 2769 4750 3195 4129 
Q 3622 3509 3622 2328 
Q 3622 1225 3098 567 
Q 2575 -91 1691 -91 
Q 1453 -91 1209 -44 
Q 966 3 703 97 
z
M 1959 2075 
Q 2384 2075 2632 2365 
Q 2881 2656 2881 3163 
Q 2881 3666 2632 3958 
Q 2384 4250 1959 4250 
Q 1534 4250 1286 3958 
Q 1038 3666 1038 3163 
Q 1038 2656 1286 2365 
Q 1534 2075 1959 2075 
z
" transform="scale(0.015625)"/>
     </defs>
     <use xlink:href="#DejaVuSans-66"/>
     <use xlink:href="#DejaVuSans-31" x="35.205078"/>
     <use xlink:href="#DejaVuSans-35" x="98.828125"/>
     <use xlink:href="#DejaVuSans-2d" x="162.451172"/>
     <use xlink:href="#DejaVuSans-66" x="198.535156"/>
     <use xlink:href="#DejaVuSans-31" x="233.740234"/>
     <use xlink:href="#DejaVuSans-39" x="297.363281"/>
    </g>
   </g>
   <g id="text_14">
    <!-- absolute targets -->
    <g transform="translate(62.208 609.932673)scale(0.14 -0.14)">
     <defs>
      <path id="DejaVuSans-62" d="M 3116 1747 
Q 3116 2381 2855 2742 
Q 2594 3103 2138 3103 
Q 1681 3103 1420 2742 
Q 1159 2381 1159 1747 
Q 1159 1113 1420 752 
Q 1681 391 2138 391 
Q 2594 391 2855 752 
Q 3116 1113 3116 1747 
z
M 1159 2969 
Q 1341 3281 1617 3432 
Q 1894 3584 2278 3584 
Q 2916 3584 3314 3078 
Q 3713 2572 3713 1747 
Q 3713 922 3314 415 
Q 2916 -91 2278 -91 
Q 1894 -91 1617 61 
Q 1341 213 1159 525 
L 1159 0 
L 581 0 
L 581 4863 
L 1159 4863 
L 1159 2969 
z
" transform="scale(0.015625)"/>
      <path id="DejaVuSans-75" d="M 544 1381 
L 544 3500 
L 1119 3500 
L 1119 1403 
Q 1119 906 1312 657 
Q 1506 409 1894 409 
Q 2359 409 2629 706 
Q 2900 1003 2900 1516 
L 2900 3500 
L 3475 3500 
L 3475 0 
L 2900 0 
L 2900 538 
Q 2691 219 2414 64 
Q 2138 -91 1772 -91 
Q 1169 -91 856 284 
Q 544 659 544 1381 
z
M 1991 3584 
L 1991 3584 
z
" transform="scale(0.015625)"/>
      <path id="DejaVuSans-65" d="M 3597 1894 
L 3597 1613 
L 953 1613 
Q 991 1019 1311 708 
Q 1631 397 2203 397 
Q 2534 397 2845 478 
Q 3156 559 3463 722 
L 3463 178 
Q 3153 47 2828 -22 
Q 2503 -91 2169 -91 
Q 1331 -91 842 396 
Q 353 884 353 1716 
Q 353 2575 817 3079 
Q 1281 3584 2069 3584 
Q 2775 3584 3186 3129 
Q 3597 2675 3597 1894 
z
M 3022 2063 
Q 3016 2534 2758 2815 
Q 2500 3097 2075 3097 
Q 1594 3097 1305 2825 
Q 1016 2553 972 2059 
L 3022 2063 
z
" transform="scale(0.015625)"/>
     </defs>
     <use xlink:href="#DejaVuSans-61"/>
     <use xlink:href="#DejaVuSans-62" x="61.279297"/>
     <use xlink:href="#DejaVuSans-73" x="124.755859"/>
     <use xlink:href="#DejaVuSans-6f" x="176.855469"/>
     <use xlink:href="#DejaVuSans-6c" x="238.037109"/>
     <use xlink:href="#DejaVuSans-75" x="265.820312"/>
     <use xlink:href="#DejaVuSans-74" x="329.199219"/>
     <use xlink:href="#DejaVuSans-65" x="368.408203"/>
     <use xlink:href="#DejaVuSans-20" x="429.931641"/>
     <use xlink:href="#DejaVuSans-74" x="461.71875"/>
     <use xlink:href="#DejaVuSans-61" x="500.927734"/>
     <use xlink:href="#DejaVuSans-72" x="562.207031"/>
     <use xlink:href="#DejaVuSans-67" x="601.570312"/>
     <use xlink:href="#DejaVuSans-65" x="665.046875"/>
     <use xlink:href="#DejaVuSans-74" x="726.570312"/>
     <use xlink:href="#DejaVuSans-73" x="765.779297"/>
    </g>
   </g>
   <g id="text_15">
    <!-- v2.6.3 -->
    <g style="fill: #808080" transform="translate(245.82275 288.777272)scale(0.1 -0.1)">
     <defs>
      <path id="DejaVuSans-33" d="M 2597 2516 
Q 3050 2419 3304 2112 
Q 3559 1806 3559 1356 
Q 3559 666 3084 287 
Q 2609 -91 1734 -91 
Q 1441 -91 1130 -33 
Q 819 25 488 141 
L 488 750 
Q 750 597 1062 519 
Q 1375 441 1716 441 
Q 2309 441 2620 675 
Q 2931 909 2931 1356 
Q 2931 1769 2642 2001 
Q 2353 2234 1838 2234 
L 1294 2234 
L 1294 2753 
L 1863 2753 
Q 2328 2753 2575 2939 
Q 2822 3125 2822 3475 
Q 2822 3834 2567 4026 
Q 2313 4219 1838 4219 
Q 1578 4219 1281 4162 
Q 984 4106 628 3988 
L 628 4550 
Q 988 4650 1302 4700 
Q 1616 4750 1894 4750 
Q 2613 4750 3031 4423 
Q 3450 4097 3450 3541 
Q 3450 3153 3228 2886 
Q 3006 2619 2597 2516 
z
" transform="scale(0.015625)"/>
     </defs>
     <use xlink:href="#DejaVuSans-76"/>
     <use xlink:href="#DejaVuSans-32" x="59.179688"/>
     <use xlink:href="#DejaVuSans-2e" x="122.802734"/>
     <use xlink:href="#DejaVuSans-36" x="154.589844"/>
     <use xlink:href="#DejaVuSans-2e" x="218.212891"/>
     <use xlink:href="#DejaVuSans-33" x="250"/>
    </g>
   </g>
   <g id="legend_1">
    <g id="patch_7">
     <path d="M 76.208 136.881 
L 160.148625 136.881 
Q 164.148625 136.881 164.148625 132.881 
L 164.148625 17.456 
Q 164.148625 13.456 160.148625 13.456 
L 76.208 13.456 
Q 72.208 13.456 72.208 17.456 
L 72.208 132.881 
Q 72.208 136.881 76.208 136.881 
z
" style="fill: #ffffff; opacity: 0.2; stroke: #cccccc; stroke-linejoin: miter"/>
    </g>
    <g id="line2d_77">
     <path d="M 80.208 29.652875 
L 80.208 29.652875 
L 100.208 29.652875 
L 100.208 29.652875 
L 120.208 29.652875 
" style="fill: none; stroke: #000000; stroke-width: 1.5; stroke-linecap: square"/>
    </g>
    <g id="text_16">
     <!-- 1 -->
     <g transform="translate(136.208 36.652875)scale(0.2 -0.2)">
      <use xlink:href="#DejaVuSans-31"/>
     </g>
    </g>
    <g id="line2d_78">
     <path d="M 80.208 59.009125 
L 80.208 59.009125 
L 100.208 59.009125 
L 100.208 59.009125 
L 120.208 59.009125 
" style="fill: none; stroke: #00bfbf; stroke-width: 1.5; stroke-linecap: square"/>
    </g>
    <g id="text_17">
     <!-- -1 -->
     <g transform="translate(136.208 66.009125)scale(0.2 -0.2)">
      <use xlink:href="#DejaVuSans-2d"/>
      <use xlink:href="#DejaVuSans-31" x="36.083984"/>
     </g>
    </g>
    <g id="line2d_79">
     <path d="M 80.208 88.365375 
L 80.208 88.365375 
L 100.208 88.365375 
L 100.208 88.365375 
L 120.208 88.365375 
" style="fill: none; stroke: #bf00bf; stroke-width: 1.5; stroke-linecap: square"/>
    </g>
    <g id="text_18">
     <!-- -4 -->
     <g transform="translate(136.208 95.365375)scale(0.2 -0.2)">
      <use xlink:href="#DejaVuSans-2d"/>
      <use xlink:href="#DejaVuSans-34" x="36.083984"/>
     </g>
    </g>
    <g id="line2d_80">
     <path d="M 80.208 117.721625 
L 80.208 117.721625 
L 100.208 117.721625 
L 100.208 117.721625 
L 120.208 117.721625 
" style="fill: none; stroke: #ff0000; stroke-width: 3; stroke-linecap: square"/>
    </g>
    <g id="text_19">
     <!-- -8 -->
     <g transform="translate(136.208 124.721625)scale(0.2 -0.2)">
      <use xlink:href="#DejaVuSans-2d"/>
      <use xlink:href="#DejaVuSans-38" x="36.083984"/>
     </g>
    </g>
   </g>
  </g>
 </g>
 <defs>
  <clipPath id="p1b099e084d">
   <rect x="62.208" y="3.456" width="398.592" height="290.304"/>
  </clipPath>
 </defs>
</svg>
