<?xml version="1.0" encoding="utf-8" standalone="no"?>
<!DOCTYPE svg PUBLIC "-//W3C//DTD SVG 1.1//EN"
  "http://www.w3.org/Graphics/SVG/1.1/DTD/svg11.dtd">
<svg xmlns:xlink="http://www.w3.org/1999/xlink" width="460.8pt" height="345.6pt" viewBox="0 0 460.8 345.6" xmlns="http://www.w3.org/2000/svg" version="1.1">
 <metadata>
  <rdf:RDF xmlns:dc="http://purl.org/dc/elements/1.1/" xmlns:cc="http://creativecommons.org/ns#" xmlns:rdf="http://www.w3.org/1999/02/22-rdf-syntax-ns#">
   <cc:Work>
    <dc:type rdf:resource="http://purl.org/dc/dcmitype/StillImage"/>
    <dc:date>2024-06-19T19:28:34.006963</dc:date>
    <dc:format>image/svg+xml</dc:format>
    <dc:creator>
     <cc:Agent>
      <dc:title>Matplotlib v3.5.2, https://matplotlib.org/</dc:title>
     </cc:Agent>
    </dc:creator>
   </cc:Work>
  </rdf:RDF>
 </metadata>
 <defs>
  <style type="text/css">*{stroke-linejoin: round; stroke-linecap: butt}</style>
 </defs>
 <g id="figure_1">
  <g id="patch_1">
   <path d="M 0 345.6 
L 460.8 345.6 
L 460.8 0 
L 0 0 
z
" style="fill: #ffffff"/>
  </g>
  <g id="axes_1">
   <g id="patch_2">
    <path d="M 62.208 293.76 
L 460.8 293.76 
L 460.8 3.456 
L 62.208 3.456 
z
" style="fill: #ffffff"/>
   </g>
   <g id="line2d_1"/>
   <g id="line2d_2"/>
   <g id="line2d_3"/>
   <g id="line2d_4"/>
   <g id="line2d_5"/>
   <g id="line2d_6"/>
   <g id="line2d_7"/>
   <g id="line2d_8"/>
   <g id="line2d_9">
    <path d="M 264.38108 293.76 
L 264.38108 289.927604 
L 277.244126 289.927604 
L 277.244126 286.095208 
L 281.575393 286.095208 
L 281.575393 282.262812 
L 282.156505 282.262812 
L 282.156505 278.430416 
L 282.574168 278.430416 
L 282.574168 274.59802 
L 282.786961 274.59802 
L 282.786961 270.765624 
L 283.160033 270.765624 
L 283.160033 266.933228 
L 283.908749 266.933228 
L 283.940654 259.268436 
L 284.740163 259.268436 
L 284.740163 255.43604 
L 285.363393 255.43604 
L 285.363393 251.603644 
L 285.595145 251.603644 
L 285.595145 247.771248 
L 285.796557 247.771248 
L 285.796557 243.938851 
L 286.00235 243.938851 
L 286.00235 240.106455 
L 286.282276 240.106455 
L 286.31883 232.441663 
L 286.414934 232.441663 
L 286.414934 228.609267 
L 287.424568 228.609267 
L 287.424568 224.776871 
L 287.644873 224.776871 
L 287.644873 220.944475 
L 296.162772 220.944475 
L 296.162772 217.112079 
L 298.031771 217.112079 
L 298.031771 213.279683 
L 299.958759 213.279683 
L 299.958759 209.447287 
L 301.4989 209.447287 
L 301.4989 205.614891 
L 302.589561 205.614891 
L 302.589561 201.782495 
L 302.914211 201.782495 
L 302.914211 197.950099 
L 304.089255 197.950099 
L 304.089255 194.117703 
L 304.688443 194.117703 
L 304.701861 186.452911 
L 305.73238 186.452911 
L 305.73238 182.620515 
L 306.095139 182.620515 
L 306.095139 178.788119 
L 306.363937 178.788119 
L 306.363937 174.955723 
L 306.475566 174.955723 
L 306.475566 171.123327 
L 306.73698 171.123327 
L 306.834972 163.458535 
L 307.350588 163.458535 
L 307.350588 159.626139 
L 307.922496 159.626139 
L 307.922496 155.793743 
L 308.479937 155.793743 
L 308.479937 151.961347 
L 308.719501 151.961347 
L 308.719501 148.12895 
L 309.520052 148.12895 
L 309.520052 144.296554 
L 310.893714 144.296554 
L 310.893714 140.464158 
L 313.483731 140.464158 
L 313.594374 132.799366 
L 313.652343 132.799366 
L 313.652343 128.96697 
L 313.876242 128.96697 
L 313.876242 125.134574 
L 313.996916 125.134574 
L 314.067508 117.469782 
L 314.728588 117.469782 
L 314.74469 109.80499 
L 317.724084 109.80499 
L 317.724084 105.972594 
L 317.926168 105.972594 
L 317.926168 102.140198 
L 319.221605 102.140198 
L 319.279312 94.475406 
L 319.74055 94.475406 
L 319.74055 90.64301 
L 323.294524 90.64301 
L 323.294524 86.810614 
L 328.402472 86.810614 
L 328.402472 82.978218 
L 329.05046 82.978218 
L 329.05046 79.145822 
L 329.604523 79.145822 
L 329.604523 75.313426 
L 329.745158 75.313426 
L 329.745158 71.48103 
L 331.077817 71.48103 
L 331.077817 67.648634 
L 332.102127 67.648634 
L 332.102127 63.816238 
L 377.825887 63.816238 
L 377.825887 59.983842 
L 380.617838 59.983842 
L 380.617838 56.151446 
L 383.968135 56.151446 
L 383.968135 52.31905 
L 386.513251 52.31905 
L 386.513251 48.486653 
L 390.394222 48.486653 
L 390.394222 44.654257 
L 392.525928 44.654257 
L 392.525928 40.821861 
L 393.529065 40.821861 
L 393.622241 33.157069 
L 393.673539 33.157069 
L 393.673539 29.324673 
L 393.985057 29.324673 
L 393.985057 25.492277 
L 395.450209 25.492277 
L 395.450209 21.659881 
L 395.896616 21.659881 
L 395.896616 17.827485 
L 396.122364 17.827485 
L 396.122364 13.995089 
L 396.783508 13.995089 
L 396.783508 10.162693 
L 397.227191 10.162693 
L 397.227191 6.330297 
L 397.227191 6.330297 
L 460.8 6.330297 
L 460.8 6.330297 
" clip-path="url(#pb485366842)" style="fill: none; stroke: #f5deb3; stroke-width: 1.5; stroke-linecap: square"/>
   </g>
   <g id="line2d_10"/>
   <g id="line2d_11"/>
   <g id="line2d_12"/>
   <g id="line2d_13"/>
   <g id="line2d_14"/>
   <g id="line2d_15"/>
   <g id="line2d_16"/>
   <g id="line2d_17"/>
   <g id="line2d_18"/>
   <g id="line2d_19"/>
   <g id="line2d_20"/>
   <g id="line2d_21"/>
   <g id="line2d_22"/>
   <g id="line2d_23"/>
   <g id="line2d_24">
    <path d="M 274.088942 293.76 
L 274.088942 289.927604 
L 276.157517 289.927604 
L 276.184212 282.262812 
L 303.770593 282.262812 
L 303.85813 274.59802 
L 305.938662 274.59802 
L 305.938662 270.765624 
L 306.404661 270.765624 
L 306.404661 266.933228 
L 306.627709 266.933228 
L 306.627709 263.100832 
L 308.501964 263.100832 
L 308.501964 259.268436 
L 310.492795 259.268436 
L 310.492795 255.43604 
L 310.612541 255.43604 
L 310.612541 251.603644 
L 321.038317 251.603644 
L 321.038317 247.771248 
L 322.429223 247.771248 
L 322.429223 243.938851 
L 322.764753 243.938851 
L 322.764753 240.106455 
L 323.030584 240.106455 
L 323.030584 236.274059 
L 323.209447 236.274059 
L 323.209447 232.441663 
L 323.641404 232.441663 
L 323.699699 224.776871 
L 323.897266 224.776871 
L 323.897266 220.944475 
L 324.444387 220.944475 
L 324.501162 213.279683 
L 324.742574 213.279683 
L 324.742574 209.447287 
L 325.039691 209.447287 
L 325.039691 205.614891 
L 325.372836 205.614891 
L 325.372836 201.782495 
L 325.833544 201.782495 
L 325.833544 197.950099 
L 326.045356 197.950099 
L 326.071353 190.285307 
L 326.439347 190.285307 
L 326.439347 186.452911 
L 326.686578 186.452911 
L 326.776629 178.788119 
L 327.059459 178.788119 
L 327.059459 174.955723 
L 327.521222 174.955723 
L 327.57847 167.290931 
L 327.890507 167.290931 
L 327.890507 163.458535 
L 328.275973 163.458535 
L 328.281459 155.793743 
L 328.688203 155.793743 
L 328.688203 151.961347 
L 328.864907 151.961347 
L 328.864907 148.12895 
L 328.996725 148.12895 
L 329.086235 140.464158 
L 329.25918 140.464158 
L 329.314344 132.799366 
L 329.629046 132.799366 
L 329.662509 125.134574 
L 332.789949 125.134574 
L 332.789949 121.302178 
L 334.166617 121.302178 
L 334.166617 117.469782 
L 334.307845 117.469782 
L 334.307845 113.637386 
L 335.297421 113.637386 
L 335.297421 109.80499 
L 344.465717 109.80499 
L 344.465717 105.972594 
L 344.939321 105.972594 
L 344.939321 102.140198 
L 345.302198 102.140198 
L 345.302198 98.307802 
L 348.839202 98.307802 
L 348.839202 94.475406 
L 350.049083 94.475406 
L 350.049083 90.64301 
L 350.643844 90.64301 
L 350.643844 86.810614 
L 351.053673 86.810614 
L 351.053673 82.978218 
L 351.924573 82.978218 
L 351.924573 79.145822 
L 364.543417 79.145822 
L 364.543417 75.313426 
L 364.91788 75.313426 
L 364.91788 71.48103 
L 365.417817 71.48103 
L 365.417817 67.648634 
L 365.855625 67.648634 
L 365.855625 63.816238 
L 397.950625 63.816238 
L 397.950625 59.983842 
L 408.138855 59.983842 
L 408.138855 56.151446 
L 413.262963 56.151446 
L 413.262963 52.31905 
L 415.588945 52.31905 
L 415.588945 48.486653 
L 419.324384 48.486653 
L 419.324384 44.654257 
L 419.324384 44.654257 
L 460.8 44.654257 
L 460.8 44.654257 
" clip-path="url(#pb485366842)" style="fill: none; stroke: #f5deb3; stroke-width: 1.5; stroke-linecap: square"/>
   </g>
   <g id="line2d_25">
    <path d="M 318.325665 293.76 
L 318.325665 289.927604 
L 318.707412 289.927604 
L 318.707412 286.095208 
L 318.895842 286.095208 
L 318.895842 282.262812 
L 319.153239 282.262812 
L 319.153239 278.430416 
L 319.595575 278.430416 
L 319.595575 274.59802 
L 319.939737 274.59802 
L 319.939737 270.765624 
L 319.939737 270.765624 
L 319.939737 270.765624 
L 460.8 270.765624 
" clip-path="url(#pb485366842)" style="fill: none; stroke: #f5deb3; stroke-width: 1.5; stroke-linecap: square"/>
   </g>
   <g id="line2d_26">
    <path d="M 343.127491 293.76 
L 343.127491 289.927604 
L 353.077292 289.927604 
L 353.077292 286.095208 
L 353.077292 286.095208 
L 353.077292 286.095208 
L 460.8 286.095208 
" clip-path="url(#pb485366842)" style="fill: none; stroke: #f5deb3; stroke-width: 1.5; stroke-linecap: square"/>
   </g>
   <g id="line2d_27"/>
   <g id="line2d_28">
    <path d="M 335.875143 293.76 
L 335.875143 289.927604 
L 336.92849 289.927604 
L 336.92849 286.095208 
L 355.189092 286.095208 
L 355.189092 282.262812 
L 355.416099 282.262812 
L 355.416099 278.430416 
L 355.653113 278.430416 
L 355.653113 274.59802 
L 355.726236 274.59802 
L 355.726236 270.765624 
L 356.783579 270.765624 
L 356.783579 266.933228 
L 356.928604 266.933228 
L 356.928604 263.100832 
L 357.396239 263.100832 
L 357.396239 259.268436 
L 357.450619 259.268436 
L 357.450619 255.43604 
L 357.593805 255.43604 
L 357.593805 251.603644 
L 357.623488 251.603644 
L 357.623488 247.771248 
L 357.767524 247.771248 
L 357.767524 243.938851 
L 357.76898 243.938851 
L 357.76898 240.106455 
L 358.10113 240.106455 
L 358.10113 236.274059 
L 358.660968 236.274059 
L 358.660968 232.441663 
L 358.726329 232.441663 
L 358.726329 228.609267 
L 358.838767 228.609267 
L 358.838767 224.776871 
L 359.193556 224.776871 
L 359.193556 220.944475 
L 359.394353 220.944475 
L 359.394353 217.112079 
L 359.647707 217.112079 
L 359.647707 213.279683 
L 359.700041 213.279683 
L 359.700041 209.447287 
L 359.726889 209.447287 
L 359.726889 205.614891 
L 359.855777 205.614891 
L 359.855777 201.782495 
L 359.928035 201.782495 
L 359.928035 197.950099 
L 359.96925 197.950099 
L 359.96925 194.117703 
L 360.333408 194.117703 
L 360.333408 190.285307 
L 360.457646 190.285307 
L 360.457646 186.452911 
L 360.560788 186.452911 
L 360.560788 182.620515 
L 360.675955 182.620515 
L 360.675955 178.788119 
L 361.113966 178.788119 
L 361.113966 174.955723 
L 361.131503 174.955723 
L 361.131503 171.123327 
L 362.441684 171.123327 
L 362.441684 167.290931 
L 362.638002 167.290931 
L 362.638002 163.458535 
L 362.870484 163.458535 
L 362.870484 159.626139 
L 363.362593 159.626139 
L 363.362593 155.793743 
L 363.530917 155.793743 
L 363.530917 151.961347 
L 363.628231 151.961347 
L 363.628231 148.12895 
L 363.722366 148.12895 
L 363.722366 144.296554 
L 363.928172 144.296554 
L 363.928172 140.464158 
L 364.667915 140.464158 
L 364.667915 136.631762 
L 365.210688 136.631762 
L 365.210688 132.799366 
L 365.498876 132.799366 
L 365.498876 128.96697 
L 368.906884 128.96697 
L 368.906884 125.134574 
L 371.838471 125.134574 
L 371.838471 121.302178 
L 378.181253 121.302178 
L 378.181253 117.469782 
L 381.454915 117.469782 
L 381.454915 113.637386 
L 382.679984 113.637386 
L 382.679984 109.80499 
L 382.775984 109.80499 
L 382.775984 105.972594 
L 383.23646 105.972594 
L 383.23646 102.140198 
L 383.49067 102.140198 
L 383.49067 98.307802 
L 383.515879 98.307802 
L 383.515879 94.475406 
L 383.606451 94.475406 
L 383.606451 90.64301 
L 384.463374 90.64301 
L 384.463374 86.810614 
L 392.125158 86.810614 
L 392.125158 82.978218 
L 392.98812 82.978218 
L 392.98812 79.145822 
L 393.95497 79.145822 
L 393.95497 75.313426 
L 403.882216 75.313426 
L 403.882216 71.48103 
L 404.768357 71.48103 
L 404.768357 67.648634 
L 413.758254 67.648634 
L 413.758254 63.816238 
L 413.758254 63.816238 
L 413.758254 63.816238 
L 460.8 63.816238 
" clip-path="url(#pb485366842)" style="fill: none; stroke: #f5deb3; stroke-width: 1.5; stroke-linecap: square"/>
   </g>
   <g id="line2d_29"/>
   <g id="line2d_30"/>
   <g id="matplotlib.axis_1">
    <g id="xtick_1">
     <g id="line2d_31">
      <path d="M 62.208 293.76 
L 62.208 3.456 
" clip-path="url(#pb485366842)" style="fill: none; stroke: #b0b0b0; stroke-width: 0.8; stroke-linecap: square"/>
     </g>
     <g id="line2d_32">
      <defs>
       <path id="md268643c3f" d="M 0 0 
L 0 3.5 
" style="stroke: #000000; stroke-width: 0.8"/>
      </defs>
      <g>
       <use xlink:href="#md268643c3f" x="62.208" y="293.76" style="stroke: #000000; stroke-width: 0.8"/>
      </g>
     </g>
     <g id="text_1">
      <!-- 0 -->
      <g transform="translate(55.8455 315.956875)scale(0.2 -0.2)">
       <defs>
        <path id="DejaVuSans-30" d="M 2034 4250 
Q 1547 4250 1301 3770 
Q 1056 3291 1056 2328 
Q 1056 1369 1301 889 
Q 1547 409 2034 409 
Q 2525 409 2770 889 
Q 3016 1369 3016 2328 
Q 3016 3291 2770 3770 
Q 2525 4250 2034 4250 
z
M 2034 4750 
Q 2819 4750 3233 4129 
Q 3647 3509 3647 2328 
Q 3647 1150 3233 529 
Q 2819 -91 2034 -91 
Q 1250 -91 836 529 
Q 422 1150 422 2328 
Q 422 3509 836 4129 
Q 1250 4750 2034 4750 
z
" transform="scale(0.015625)"/>
       </defs>
       <use xlink:href="#DejaVuSans-30"/>
      </g>
     </g>
    </g>
    <g id="xtick_2">
     <g id="line2d_33">
      <path d="M 181.446916 293.76 
L 181.446916 3.456 
" clip-path="url(#pb485366842)" style="fill: none; stroke: #b0b0b0; stroke-width: 0.8; stroke-linecap: square"/>
     </g>
     <g id="line2d_34">
      <g>
       <use xlink:href="#md268643c3f" x="181.446916" y="293.76" style="stroke: #000000; stroke-width: 0.8"/>
      </g>
     </g>
     <g id="text_2">
      <!-- 2 -->
      <g transform="translate(175.084416 315.956875)scale(0.2 -0.2)">
       <defs>
        <path id="DejaVuSans-32" d="M 1228 531 
L 3431 531 
L 3431 0 
L 469 0 
L 469 531 
Q 828 903 1448 1529 
Q 2069 2156 2228 2338 
Q 2531 2678 2651 2914 
Q 2772 3150 2772 3378 
Q 2772 3750 2511 3984 
Q 2250 4219 1831 4219 
Q 1534 4219 1204 4116 
Q 875 4013 500 3803 
L 500 4441 
Q 881 4594 1212 4672 
Q 1544 4750 1819 4750 
Q 2544 4750 2975 4387 
Q 3406 4025 3406 3419 
Q 3406 3131 3298 2873 
Q 3191 2616 2906 2266 
Q 2828 2175 2409 1742 
Q 1991 1309 1228 531 
z
" transform="scale(0.015625)"/>
       </defs>
       <use xlink:href="#DejaVuSans-32"/>
      </g>
     </g>
    </g>
    <g id="xtick_3">
     <g id="line2d_35">
      <path d="M 300.685833 293.76 
L 300.685833 3.456 
" clip-path="url(#pb485366842)" style="fill: none; stroke: #b0b0b0; stroke-width: 0.8; stroke-linecap: square"/>
     </g>
     <g id="line2d_36">
      <g>
       <use xlink:href="#md268643c3f" x="300.685833" y="293.76" style="stroke: #000000; stroke-width: 0.8"/>
      </g>
     </g>
     <g id="text_3">
      <!-- 4 -->
      <g transform="translate(294.323333 315.956875)scale(0.2 -0.2)">
       <defs>
        <path id="DejaVuSans-34" d="M 2419 4116 
L 825 1625 
L 2419 1625 
L 2419 4116 
z
M 2253 4666 
L 3047 4666 
L 3047 1625 
L 3713 1625 
L 3713 1100 
L 3047 1100 
L 3047 0 
L 2419 0 
L 2419 1100 
L 313 1100 
L 313 1709 
L 2253 4666 
z
" transform="scale(0.015625)"/>
       </defs>
       <use xlink:href="#DejaVuSans-34"/>
      </g>
     </g>
    </g>
    <g id="xtick_4">
     <g id="line2d_37">
      <path d="M 419.924749 293.76 
L 419.924749 3.456 
" clip-path="url(#pb485366842)" style="fill: none; stroke: #b0b0b0; stroke-width: 0.8; stroke-linecap: square"/>
     </g>
     <g id="line2d_38">
      <g>
       <use xlink:href="#md268643c3f" x="419.924749" y="293.76" style="stroke: #000000; stroke-width: 0.8"/>
      </g>
     </g>
     <g id="text_4">
      <!-- 6 -->
      <g transform="translate(413.562249 315.956875)scale(0.2 -0.2)">
       <defs>
        <path id="DejaVuSans-36" d="M 2113 2584 
Q 1688 2584 1439 2293 
Q 1191 2003 1191 1497 
Q 1191 994 1439 701 
Q 1688 409 2113 409 
Q 2538 409 2786 701 
Q 3034 994 3034 1497 
Q 3034 2003 2786 2293 
Q 2538 2584 2113 2584 
z
M 3366 4563 
L 3366 3988 
Q 3128 4100 2886 4159 
Q 2644 4219 2406 4219 
Q 1781 4219 1451 3797 
Q 1122 3375 1075 2522 
Q 1259 2794 1537 2939 
Q 1816 3084 2150 3084 
Q 2853 3084 3261 2657 
Q 3669 2231 3669 1497 
Q 3669 778 3244 343 
Q 2819 -91 2113 -91 
Q 1303 -91 875 529 
Q 447 1150 447 2328 
Q 447 3434 972 4092 
Q 1497 4750 2381 4750 
Q 2619 4750 2861 4703 
Q 3103 4656 3366 4563 
z
" transform="scale(0.015625)"/>
       </defs>
       <use xlink:href="#DejaVuSans-36"/>
      </g>
     </g>
    </g>
    <g id="text_5">
     <!-- log10 of FEvals / DIM -->
     <g transform="translate(156.430563 339.313125)scale(0.2 -0.2)">
      <defs>
       <path id="DejaVuSans-6c" d="M 603 4863 
L 1178 4863 
L 1178 0 
L 603 0 
L 603 4863 
z
" transform="scale(0.015625)"/>
       <path id="DejaVuSans-6f" d="M 1959 3097 
Q 1497 3097 1228 2736 
Q 959 2375 959 1747 
Q 959 1119 1226 758 
Q 1494 397 1959 397 
Q 2419 397 2687 759 
Q 2956 1122 2956 1747 
Q 2956 2369 2687 2733 
Q 2419 3097 1959 3097 
z
M 1959 3584 
Q 2709 3584 3137 3096 
Q 3566 2609 3566 1747 
Q 3566 888 3137 398 
Q 2709 -91 1959 -91 
Q 1206 -91 779 398 
Q 353 888 353 1747 
Q 353 2609 779 3096 
Q 1206 3584 1959 3584 
z
" transform="scale(0.015625)"/>
       <path id="DejaVuSans-67" d="M 2906 1791 
Q 2906 2416 2648 2759 
Q 2391 3103 1925 3103 
Q 1463 3103 1205 2759 
Q 947 2416 947 1791 
Q 947 1169 1205 825 
Q 1463 481 1925 481 
Q 2391 481 2648 825 
Q 2906 1169 2906 1791 
z
M 3481 434 
Q 3481 -459 3084 -895 
Q 2688 -1331 1869 -1331 
Q 1566 -1331 1297 -1286 
Q 1028 -1241 775 -1147 
L 775 -588 
Q 1028 -725 1275 -790 
Q 1522 -856 1778 -856 
Q 2344 -856 2625 -561 
Q 2906 -266 2906 331 
L 2906 616 
Q 2728 306 2450 153 
Q 2172 0 1784 0 
Q 1141 0 747 490 
Q 353 981 353 1791 
Q 353 2603 747 3093 
Q 1141 3584 1784 3584 
Q 2172 3584 2450 3431 
Q 2728 3278 2906 2969 
L 2906 3500 
L 3481 3500 
L 3481 434 
z
" transform="scale(0.015625)"/>
       <path id="DejaVuSans-31" d="M 794 531 
L 1825 531 
L 1825 4091 
L 703 3866 
L 703 4441 
L 1819 4666 
L 2450 4666 
L 2450 531 
L 3481 531 
L 3481 0 
L 794 0 
L 794 531 
z
" transform="scale(0.015625)"/>
       <path id="DejaVuSans-20" transform="scale(0.015625)"/>
       <path id="DejaVuSans-66" d="M 2375 4863 
L 2375 4384 
L 1825 4384 
Q 1516 4384 1395 4259 
Q 1275 4134 1275 3809 
L 1275 3500 
L 2222 3500 
L 2222 3053 
L 1275 3053 
L 1275 0 
L 697 0 
L 697 3053 
L 147 3053 
L 147 3500 
L 697 3500 
L 697 3744 
Q 697 4328 969 4595 
Q 1241 4863 1831 4863 
L 2375 4863 
z
" transform="scale(0.015625)"/>
       <path id="DejaVuSans-46" d="M 628 4666 
L 3309 4666 
L 3309 4134 
L 1259 4134 
L 1259 2759 
L 3109 2759 
L 3109 2228 
L 1259 2228 
L 1259 0 
L 628 0 
L 628 4666 
z
" transform="scale(0.015625)"/>
       <path id="DejaVuSans-45" d="M 628 4666 
L 3578 4666 
L 3578 4134 
L 1259 4134 
L 1259 2753 
L 3481 2753 
L 3481 2222 
L 1259 2222 
L 1259 531 
L 3634 531 
L 3634 0 
L 628 0 
L 628 4666 
z
" transform="scale(0.015625)"/>
       <path id="DejaVuSans-76" d="M 191 3500 
L 800 3500 
L 1894 563 
L 2988 3500 
L 3597 3500 
L 2284 0 
L 1503 0 
L 191 3500 
z
" transform="scale(0.015625)"/>
       <path id="DejaVuSans-61" d="M 2194 1759 
Q 1497 1759 1228 1600 
Q 959 1441 959 1056 
Q 959 750 1161 570 
Q 1363 391 1709 391 
Q 2188 391 2477 730 
Q 2766 1069 2766 1631 
L 2766 1759 
L 2194 1759 
z
M 3341 1997 
L 3341 0 
L 2766 0 
L 2766 531 
Q 2569 213 2275 61 
Q 1981 -91 1556 -91 
Q 1019 -91 701 211 
Q 384 513 384 1019 
Q 384 1609 779 1909 
Q 1175 2209 1959 2209 
L 2766 2209 
L 2766 2266 
Q 2766 2663 2505 2880 
Q 2244 3097 1772 3097 
Q 1472 3097 1187 3025 
Q 903 2953 641 2809 
L 641 3341 
Q 956 3463 1253 3523 
Q 1550 3584 1831 3584 
Q 2591 3584 2966 3190 
Q 3341 2797 3341 1997 
z
" transform="scale(0.015625)"/>
       <path id="DejaVuSans-73" d="M 2834 3397 
L 2834 2853 
Q 2591 2978 2328 3040 
Q 2066 3103 1784 3103 
Q 1356 3103 1142 2972 
Q 928 2841 928 2578 
Q 928 2378 1081 2264 
Q 1234 2150 1697 2047 
L 1894 2003 
Q 2506 1872 2764 1633 
Q 3022 1394 3022 966 
Q 3022 478 2636 193 
Q 2250 -91 1575 -91 
Q 1294 -91 989 -36 
Q 684 19 347 128 
L 347 722 
Q 666 556 975 473 
Q 1284 391 1588 391 
Q 1994 391 2212 530 
Q 2431 669 2431 922 
Q 2431 1156 2273 1281 
Q 2116 1406 1581 1522 
L 1381 1569 
Q 847 1681 609 1914 
Q 372 2147 372 2553 
Q 372 3047 722 3315 
Q 1072 3584 1716 3584 
Q 2034 3584 2315 3537 
Q 2597 3491 2834 3397 
z
" transform="scale(0.015625)"/>
       <path id="DejaVuSans-2f" d="M 1625 4666 
L 2156 4666 
L 531 -594 
L 0 -594 
L 1625 4666 
z
" transform="scale(0.015625)"/>
       <path id="DejaVuSans-44" d="M 1259 4147 
L 1259 519 
L 2022 519 
Q 2988 519 3436 956 
Q 3884 1394 3884 2338 
Q 3884 3275 3436 3711 
Q 2988 4147 2022 4147 
L 1259 4147 
z
M 628 4666 
L 1925 4666 
Q 3281 4666 3915 4102 
Q 4550 3538 4550 2338 
Q 4550 1131 3912 565 
Q 3275 0 1925 0 
L 628 0 
L 628 4666 
z
" transform="scale(0.015625)"/>
       <path id="DejaVuSans-49" d="M 628 4666 
L 1259 4666 
L 1259 0 
L 628 0 
L 628 4666 
z
" transform="scale(0.015625)"/>
       <path id="DejaVuSans-4d" d="M 628 4666 
L 1569 4666 
L 2759 1491 
L 3956 4666 
L 4897 4666 
L 4897 0 
L 4281 0 
L 4281 4097 
L 3078 897 
L 2444 897 
L 1241 4097 
L 1241 0 
L 628 0 
L 628 4666 
z
" transform="scale(0.015625)"/>
      </defs>
      <use xlink:href="#DejaVuSans-6c"/>
      <use xlink:href="#DejaVuSans-6f" x="27.783203"/>
      <use xlink:href="#DejaVuSans-67" x="88.964844"/>
      <use xlink:href="#DejaVuSans-31" x="152.441406"/>
      <use xlink:href="#DejaVuSans-30" x="216.064453"/>
      <use xlink:href="#DejaVuSans-20" x="279.6875"/>
      <use xlink:href="#DejaVuSans-6f" x="311.474609"/>
      <use xlink:href="#DejaVuSans-66" x="372.65625"/>
      <use xlink:href="#DejaVuSans-20" x="407.861328"/>
      <use xlink:href="#DejaVuSans-46" x="439.648438"/>
      <use xlink:href="#DejaVuSans-45" x="497.167969"/>
      <use xlink:href="#DejaVuSans-76" x="560.351562"/>
      <use xlink:href="#DejaVuSans-61" x="619.53125"/>
      <use xlink:href="#DejaVuSans-6c" x="680.810547"/>
      <use xlink:href="#DejaVuSans-73" x="708.59375"/>
      <use xlink:href="#DejaVuSans-20" x="760.693359"/>
      <use xlink:href="#DejaVuSans-2f" x="792.480469"/>
      <use xlink:href="#DejaVuSans-20" x="826.171875"/>
      <use xlink:href="#DejaVuSans-44" x="857.958984"/>
      <use xlink:href="#DejaVuSans-49" x="934.960938"/>
      <use xlink:href="#DejaVuSans-4d" x="964.453125"/>
     </g>
    </g>
   </g>
   <g id="matplotlib.axis_2">
    <g id="ytick_1">
     <g id="line2d_39">
      <path d="M 62.208 293.76 
L 460.8 293.76 
" clip-path="url(#pb485366842)" style="fill: none; stroke: #b0b0b0; stroke-width: 0.8; stroke-linecap: square"/>
     </g>
     <g id="line2d_40">
      <defs>
       <path id="me4a298a78f" d="M 0 0 
L -3.5 0 
" style="stroke: #000000; stroke-width: 0.8"/>
      </defs>
      <g>
       <use xlink:href="#me4a298a78f" x="62.208" y="293.76" style="stroke: #000000; stroke-width: 0.8"/>
      </g>
     </g>
     <g id="text_6">
      <!-- 0.0 -->
      <g transform="translate(29.763 299.83875)scale(0.16 -0.16)">
       <defs>
        <path id="DejaVuSans-2e" d="M 684 794 
L 1344 794 
L 1344 0 
L 684 0 
L 684 794 
z
" transform="scale(0.015625)"/>
       </defs>
       <use xlink:href="#DejaVuSans-30"/>
       <use xlink:href="#DejaVuSans-2e" x="63.623047"/>
       <use xlink:href="#DejaVuSans-30" x="95.410156"/>
      </g>
     </g>
    </g>
    <g id="ytick_2">
     <g id="line2d_41">
      <path d="M 62.208 236.274059 
L 460.8 236.274059 
" clip-path="url(#pb485366842)" style="fill: none; stroke: #b0b0b0; stroke-width: 0.8; stroke-linecap: square"/>
     </g>
     <g id="line2d_42">
      <g>
       <use xlink:href="#me4a298a78f" x="62.208" y="236.274059" style="stroke: #000000; stroke-width: 0.8"/>
      </g>
     </g>
     <g id="text_7">
      <!-- 0.2 -->
      <g transform="translate(29.763 242.352809)scale(0.16 -0.16)">
       <use xlink:href="#DejaVuSans-30"/>
       <use xlink:href="#DejaVuSans-2e" x="63.623047"/>
       <use xlink:href="#DejaVuSans-32" x="95.410156"/>
      </g>
     </g>
    </g>
    <g id="ytick_3">
     <g id="line2d_43">
      <path d="M 62.208 178.788119 
L 460.8 178.788119 
" clip-path="url(#pb485366842)" style="fill: none; stroke: #b0b0b0; stroke-width: 0.8; stroke-linecap: square"/>
     </g>
     <g id="line2d_44">
      <g>
       <use xlink:href="#me4a298a78f" x="62.208" y="178.788119" style="stroke: #000000; stroke-width: 0.8"/>
      </g>
     </g>
     <g id="text_8">
      <!-- 0.4 -->
      <g transform="translate(29.763 184.866869)scale(0.16 -0.16)">
       <use xlink:href="#DejaVuSans-30"/>
       <use xlink:href="#DejaVuSans-2e" x="63.623047"/>
       <use xlink:href="#DejaVuSans-34" x="95.410156"/>
      </g>
     </g>
    </g>
    <g id="ytick_4">
     <g id="line2d_45">
      <path d="M 62.208 121.302178 
L 460.8 121.302178 
" clip-path="url(#pb485366842)" style="fill: none; stroke: #b0b0b0; stroke-width: 0.8; stroke-linecap: square"/>
     </g>
     <g id="line2d_46">
      <g>
       <use xlink:href="#me4a298a78f" x="62.208" y="121.302178" style="stroke: #000000; stroke-width: 0.8"/>
      </g>
     </g>
     <g id="text_9">
      <!-- 0.6 -->
      <g transform="translate(29.763 127.380928)scale(0.16 -0.16)">
       <use xlink:href="#DejaVuSans-30"/>
       <use xlink:href="#DejaVuSans-2e" x="63.623047"/>
       <use xlink:href="#DejaVuSans-36" x="95.410156"/>
      </g>
     </g>
    </g>
    <g id="ytick_5">
     <g id="line2d_47">
      <path d="M 62.208 63.816238 
L 460.8 63.816238 
" clip-path="url(#pb485366842)" style="fill: none; stroke: #b0b0b0; stroke-width: 0.8; stroke-linecap: square"/>
     </g>
     <g id="line2d_48">
      <g>
       <use xlink:href="#me4a298a78f" x="62.208" y="63.816238" style="stroke: #000000; stroke-width: 0.8"/>
      </g>
     </g>
     <g id="text_10">
      <!-- 0.8 -->
      <g transform="translate(29.763 69.894988)scale(0.16 -0.16)">
       <defs>
        <path id="DejaVuSans-38" d="M 2034 2216 
Q 1584 2216 1326 1975 
Q 1069 1734 1069 1313 
Q 1069 891 1326 650 
Q 1584 409 2034 409 
Q 2484 409 2743 651 
Q 3003 894 3003 1313 
Q 3003 1734 2745 1975 
Q 2488 2216 2034 2216 
z
M 1403 2484 
Q 997 2584 770 2862 
Q 544 3141 544 3541 
Q 544 4100 942 4425 
Q 1341 4750 2034 4750 
Q 2731 4750 3128 4425 
Q 3525 4100 3525 3541 
Q 3525 3141 3298 2862 
Q 3072 2584 2669 2484 
Q 3125 2378 3379 2068 
Q 3634 1759 3634 1313 
Q 3634 634 3220 271 
Q 2806 -91 2034 -91 
Q 1263 -91 848 271 
Q 434 634 434 1313 
Q 434 1759 690 2068 
Q 947 2378 1403 2484 
z
M 1172 3481 
Q 1172 3119 1398 2916 
Q 1625 2713 2034 2713 
Q 2441 2713 2670 2916 
Q 2900 3119 2900 3481 
Q 2900 3844 2670 4047 
Q 2441 4250 2034 4250 
Q 1625 4250 1398 4047 
Q 1172 3844 1172 3481 
z
" transform="scale(0.015625)"/>
       </defs>
       <use xlink:href="#DejaVuSans-30"/>
       <use xlink:href="#DejaVuSans-2e" x="63.623047"/>
       <use xlink:href="#DejaVuSans-38" x="95.410156"/>
      </g>
     </g>
    </g>
    <g id="ytick_6">
     <g id="line2d_49">
      <path d="M 62.208 6.330297 
L 460.8 6.330297 
" clip-path="url(#pb485366842)" style="fill: none; stroke: #b0b0b0; stroke-width: 0.8; stroke-linecap: square"/>
     </g>
     <g id="line2d_50">
      <g>
       <use xlink:href="#me4a298a78f" x="62.208" y="6.330297" style="stroke: #000000; stroke-width: 0.8"/>
      </g>
     </g>
     <g id="text_11">
      <!-- 1.0 -->
      <g transform="translate(29.763 12.409047)scale(0.16 -0.16)">
       <use xlink:href="#DejaVuSans-31"/>
       <use xlink:href="#DejaVuSans-2e" x="63.623047"/>
       <use xlink:href="#DejaVuSans-30" x="95.410156"/>
      </g>
     </g>
    </g>
    <g id="text_12">
     <!-- proportion of trials -->
     <g transform="translate(21.603625 241.61425)rotate(-90)scale(0.2 -0.2)">
      <defs>
       <path id="DejaVuSans-70" d="M 1159 525 
L 1159 -1331 
L 581 -1331 
L 581 3500 
L 1159 3500 
L 1159 2969 
Q 1341 3281 1617 3432 
Q 1894 3584 2278 3584 
Q 2916 3584 3314 3078 
Q 3713 2572 3713 1747 
Q 3713 922 3314 415 
Q 2916 -91 2278 -91 
Q 1894 -91 1617 61 
Q 1341 213 1159 525 
z
M 3116 1747 
Q 3116 2381 2855 2742 
Q 2594 3103 2138 3103 
Q 1681 3103 1420 2742 
Q 1159 2381 1159 1747 
Q 1159 1113 1420 752 
Q 1681 391 2138 391 
Q 2594 391 2855 752 
Q 3116 1113 3116 1747 
z
" transform="scale(0.015625)"/>
       <path id="DejaVuSans-72" d="M 2631 2963 
Q 2534 3019 2420 3045 
Q 2306 3072 2169 3072 
Q 1681 3072 1420 2755 
Q 1159 2438 1159 1844 
L 1159 0 
L 581 0 
L 581 3500 
L 1159 3500 
L 1159 2956 
Q 1341 3275 1631 3429 
Q 1922 3584 2338 3584 
Q 2397 3584 2469 3576 
Q 2541 3569 2628 3553 
L 2631 2963 
z
" transform="scale(0.015625)"/>
       <path id="DejaVuSans-74" d="M 1172 4494 
L 1172 3500 
L 2356 3500 
L 2356 3053 
L 1172 3053 
L 1172 1153 
Q 1172 725 1289 603 
Q 1406 481 1766 481 
L 2356 481 
L 2356 0 
L 1766 0 
Q 1100 0 847 248 
Q 594 497 594 1153 
L 594 3053 
L 172 3053 
L 172 3500 
L 594 3500 
L 594 4494 
L 1172 4494 
z
" transform="scale(0.015625)"/>
       <path id="DejaVuSans-69" d="M 603 3500 
L 1178 3500 
L 1178 0 
L 603 0 
L 603 3500 
z
M 603 4863 
L 1178 4863 
L 1178 4134 
L 603 4134 
L 603 4863 
z
" transform="scale(0.015625)"/>
       <path id="DejaVuSans-6e" d="M 3513 2113 
L 3513 0 
L 2938 0 
L 2938 2094 
Q 2938 2591 2744 2837 
Q 2550 3084 2163 3084 
Q 1697 3084 1428 2787 
Q 1159 2491 1159 1978 
L 1159 0 
L 581 0 
L 581 3500 
L 1159 3500 
L 1159 2956 
Q 1366 3272 1645 3428 
Q 1925 3584 2291 3584 
Q 2894 3584 3203 3211 
Q 3513 2838 3513 2113 
z
" transform="scale(0.015625)"/>
      </defs>
      <use xlink:href="#DejaVuSans-70"/>
      <use xlink:href="#DejaVuSans-72" x="63.476562"/>
      <use xlink:href="#DejaVuSans-6f" x="102.339844"/>
      <use xlink:href="#DejaVuSans-70" x="163.521484"/>
      <use xlink:href="#DejaVuSans-6f" x="226.998047"/>
      <use xlink:href="#DejaVuSans-72" x="288.179688"/>
      <use xlink:href="#DejaVuSans-74" x="329.292969"/>
      <use xlink:href="#DejaVuSans-69" x="368.501953"/>
      <use xlink:href="#DejaVuSans-6f" x="396.285156"/>
      <use xlink:href="#DejaVuSans-6e" x="457.466797"/>
      <use xlink:href="#DejaVuSans-20" x="520.845703"/>
      <use xlink:href="#DejaVuSans-6f" x="552.632812"/>
      <use xlink:href="#DejaVuSans-66" x="613.814453"/>
      <use xlink:href="#DejaVuSans-20" x="649.019531"/>
      <use xlink:href="#DejaVuSans-74" x="680.806641"/>
      <use xlink:href="#DejaVuSans-72" x="720.015625"/>
      <use xlink:href="#DejaVuSans-69" x="761.128906"/>
      <use xlink:href="#DejaVuSans-61" x="788.912109"/>
      <use xlink:href="#DejaVuSans-6c" x="850.191406"/>
      <use xlink:href="#DejaVuSans-73" x="877.974609"/>
     </g>
    </g>
   </g>
   <g id="line2d_51">
    <path d="M 155.029849 293.76 
L 155.029849 289.927604 
L 161.536983 289.927604 
L 161.536983 286.095208 
L 166.248414 286.095208 
L 166.248414 282.262812 
L 173.012981 282.262812 
L 173.012981 278.430416 
L 174.544698 278.430416 
L 174.544698 274.59802 
L 175.555666 274.59802 
L 175.555666 270.765624 
L 181.459859 270.765624 
L 181.459859 247.771248 
L 184.588501 247.771248 
L 184.588501 243.938851 
L 184.828194 243.938851 
L 184.828194 240.106455 
L 186.817534 240.106455 
L 186.817534 236.274059 
L 197.072876 236.274059 
L 197.072876 232.441663 
L 198.004658 232.441663 
L 198.004658 228.609267 
L 199.413574 228.609267 
L 199.510416 205.614891 
L 199.555485 205.614891 
L 199.658208 194.117703 
L 199.696624 194.117703 
L 199.703021 186.452911 
L 199.830633 186.452911 
L 199.830633 182.620515 
L 199.989268 182.620515 
L 199.989268 178.788119 
L 200.571004 178.788119 
L 200.571004 174.955723 
L 296.89662 174.955723 
L 296.89662 171.123327 
L 297.183959 171.123327 
L 297.183959 167.290931 
L 298.183084 167.290931 
L 298.183084 163.458535 
L 298.349249 163.458535 
L 298.349249 159.626139 
L 298.675058 159.626139 
L 298.675058 155.793743 
L 300.275176 155.793743 
L 300.368527 140.464158 
L 304.089028 140.464158 
L 304.089028 136.631762 
L 308.841574 136.631762 
L 308.841574 132.799366 
L 308.98338 132.799366 
L 308.98338 128.96697 
L 310.908112 128.96697 
L 310.999459 121.302178 
L 311.024829 121.302178 
L 311.024829 117.469782 
L 311.249207 117.469782 
L 311.284308 109.80499 
L 311.540362 109.80499 
L 311.540362 105.972594 
L 312.760432 105.972594 
L 312.857783 98.307802 
L 313.172289 98.307802 
L 313.172289 94.475406 
L 313.323711 94.475406 
L 313.363095 86.810614 
L 313.662619 86.810614 
L 313.717932 79.145822 
L 314.534806 79.145822 
L 314.534806 75.313426 
L 314.852856 75.313426 
L 314.852856 71.48103 
L 316.428988 71.48103 
L 316.428988 67.648634 
L 320.564637 67.648634 
L 320.564637 63.816238 
L 324.721911 63.816238 
L 324.721911 59.983842 
L 328.338254 59.983842 
L 328.338254 56.151446 
L 328.501265 56.151446 
L 328.501265 52.31905 
L 329.492544 52.31905 
L 329.492544 48.486653 
L 330.505282 48.486653 
L 330.505282 44.654257 
L 330.651174 44.654257 
L 330.651174 40.821861 
L 330.780097 40.821861 
L 330.780097 36.989465 
L 333.362524 36.989465 
L 333.362524 33.157069 
L 335.158254 33.157069 
L 335.219183 25.492277 
L 336.054584 25.492277 
L 336.054584 21.659881 
L 336.979852 21.659881 
L 336.979852 17.827485 
L 340.632744 17.827485 
L 340.632744 13.995089 
L 341.369375 13.995089 
L 341.369375 10.162693 
L 342.16072 10.162693 
L 342.16072 6.330297 
L 342.16072 6.330297 
L 460.8 6.330297 
L 460.8 6.330297 
" clip-path="url(#pb485366842)" style="fill: none; stroke: #000000; stroke-width: 1.5; stroke-linecap: square"/>
   </g>
   <g id="line2d_52">
    <defs>
     <path id="mae87115d77" d="M -0 14.142136 
L 8.485281 0 
L -0 -14.142136 
L -8.485281 -0 
z
" style="stroke: #000000; stroke-width: 1.5; stroke-linejoin: miter"/>
    </defs>
    <g clip-path="url(#pb485366842)">
     <use xlink:href="#mae87115d77" x="199.696624" y="194.117703" style="fill-opacity: 0; stroke: #000000; stroke-width: 1.5; stroke-linejoin: miter"/>
     <use xlink:href="#mae87115d77" x="200.571004" y="178.788119" style="fill-opacity: 0; stroke: #000000; stroke-width: 1.5; stroke-linejoin: miter"/>
     <use xlink:href="#mae87115d77" x="310.908112" y="128.96697" style="fill-opacity: 0; stroke: #000000; stroke-width: 1.5; stroke-linejoin: miter"/>
     <use xlink:href="#mae87115d77" x="330.651174" y="44.654257" style="fill-opacity: 0; stroke: #000000; stroke-width: 1.5; stroke-linejoin: miter"/>
     <use xlink:href="#mae87115d77" x="342.16072" y="10.162693" style="fill-opacity: 0; stroke: #000000; stroke-width: 1.5; stroke-linejoin: miter"/>
     <use xlink:href="#mae87115d77" x="342.16072" y="6.330297" style="fill-opacity: 0; stroke: #000000; stroke-width: 1.5; stroke-linejoin: miter"/>
    </g>
   </g>
   <g id="line2d_53">
    <path clip-path="url(#pb485366842)" style="fill: none; stroke: #000000; stroke-width: 1.5; stroke-linecap: square"/>
    <g clip-path="url(#pb485366842)">
     <use xlink:href="#mae87115d77" x="-1" y="581.189703" style="fill-opacity: 0; stroke: #000000; stroke-width: 1.5; stroke-linejoin: miter"/>
     <use xlink:href="#mae87115d77" x="460.8" y="581.189703" style="fill-opacity: 0; stroke: #000000; stroke-width: 1.5; stroke-linejoin: miter"/>
    </g>
   </g>
   <g id="line2d_54">
    <path d="M 115.227686 293.76 
L 115.227686 289.927604 
L 163.551404 289.927604 
L 163.551404 286.095208 
L 179.762046 286.095208 
L 179.762046 282.262812 
L 181.640385 282.262812 
L 181.717369 274.59802 
L 181.794125 274.59802 
L 181.794125 270.765624 
L 182.060994 270.765624 
L 182.060994 266.933228 
L 182.51218 266.933228 
L 182.51218 263.100832 
L 183.174551 263.100832 
L 183.271255 255.43604 
L 183.630711 255.43604 
L 183.630711 251.603644 
L 183.773108 251.603644 
L 183.773108 247.771248 
L 185.983602 247.771248 
L 185.983602 243.938851 
L 186.616857 243.938851 
L 186.616857 240.106455 
L 187.14165 240.106455 
L 187.14165 236.274059 
L 187.90942 236.274059 
L 187.90942 232.441663 
L 188.13038 232.441663 
L 188.13038 228.609267 
L 188.339552 228.609267 
L 188.339552 224.776871 
L 189.092377 224.776871 
L 189.092377 220.944475 
L 192.935992 220.944475 
L 193.035482 213.279683 
L 199.420041 213.279683 
L 199.529741 197.950099 
L 199.53618 197.950099 
L 199.53618 194.117703 
L 202.769758 194.117703 
L 202.769758 190.285307 
L 203.745472 190.285307 
L 203.745472 186.452911 
L 208.763624 186.452911 
L 208.763624 182.620515 
L 212.214874 182.620515 
L 212.214874 178.788119 
L 239.478041 178.788119 
L 239.478041 174.955723 
L 240.548561 174.955723 
L 240.548561 171.123327 
L 240.850571 171.123327 
L 240.850571 167.290931 
L 241.576573 167.290931 
L 241.576573 163.458535 
L 243.712462 163.458535 
L 243.712462 159.626139 
L 244.251497 159.626139 
L 244.251497 155.793743 
L 244.524794 155.793743 
L 244.524794 151.961347 
L 245.735281 151.961347 
L 245.735281 148.12895 
L 246.31783 148.12895 
L 246.31783 144.296554 
L 247.156026 144.296554 
L 247.156026 140.464158 
L 248.024403 140.464158 
L 248.024403 136.631762 
L 248.726285 136.631762 
L 248.726285 132.799366 
L 250.427722 132.799366 
L 250.427722 128.96697 
L 250.813521 128.96697 
L 250.813521 125.134574 
L 252.492241 125.134574 
L 252.492241 121.302178 
L 283.6853 121.302178 
L 283.6853 117.469782 
L 285.114197 117.469782 
L 285.114197 113.637386 
L 291.249959 113.637386 
L 291.249959 109.80499 
L 293.691 109.80499 
L 293.731338 102.140198 
L 294.59978 102.140198 
L 294.59978 98.307802 
L 296.335179 98.307802 
L 296.335179 94.475406 
L 297.408706 94.475406 
L 297.408706 90.64301 
L 298.066889 90.64301 
L 298.066889 86.810614 
L 300.606351 86.810614 
L 300.606351 82.978218 
L 301.027165 82.978218 
L 301.027165 79.145822 
L 302.311417 79.145822 
L 302.311417 75.313426 
L 302.976972 75.313426 
L 302.976972 71.48103 
L 303.163526 71.48103 
L 303.163526 67.648634 
L 303.847476 67.648634 
L 303.847476 63.816238 
L 304.116825 63.816238 
L 304.116825 59.983842 
L 304.380482 59.983842 
L 304.380482 56.151446 
L 304.983245 56.151446 
L 304.983245 52.31905 
L 305.61471 52.31905 
L 305.61471 48.486653 
L 307.33497 48.486653 
L 307.33497 44.654257 
L 312.566506 44.654257 
L 312.566506 40.821861 
L 324.847679 40.821861 
L 324.940388 33.157069 
L 325.09548 33.157069 
L 325.09548 29.324673 
L 325.595955 29.324673 
L 325.595955 25.492277 
L 326.531262 25.492277 
L 326.531262 21.659881 
L 327.860927 21.659881 
L 327.860927 17.827485 
L 329.830399 17.827485 
L 329.830399 13.995089 
L 336.227082 13.995089 
L 336.227082 10.162693 
L 337.813546 10.162693 
L 337.813546 6.330297 
L 337.813546 6.330297 
L 460.8 6.330297 
L 460.8 6.330297 
" clip-path="url(#pb485366842)" style="fill: none; stroke: #000000; stroke-width: 1.5; stroke-linecap: square"/>
   </g>
   <g id="line2d_55">
    <defs>
     <path id="mcd597bc04b" d="M 0 7.5 
C 1.989023 7.5 3.896849 6.709753 5.303301 5.303301 
C 6.709753 3.896849 7.5 1.989023 7.5 0 
C 7.5 -1.989023 6.709753 -3.896849 5.303301 -5.303301 
C 3.896849 -6.709753 1.989023 -7.5 0 -7.5 
C -1.989023 -7.5 -3.896849 -6.709753 -5.303301 -5.303301 
C -6.709753 -3.896849 -7.5 -1.989023 -7.5 0 
C -7.5 1.989023 -6.709753 3.896849 -5.303301 5.303301 
C -3.896849 6.709753 -1.989023 7.5 0 7.5 
z
" style="stroke: #000000; stroke-width: 1.5"/>
    </defs>
    <g clip-path="url(#pb485366842)">
     <use xlink:href="#mcd597bc04b" x="192.935992" y="220.944475" style="fill-opacity: 0; stroke: #000000; stroke-width: 1.5"/>
     <use xlink:href="#mcd597bc04b" x="212.214874" y="182.620515" style="fill-opacity: 0; stroke: #000000; stroke-width: 1.5"/>
     <use xlink:href="#mcd597bc04b" x="252.492241" y="125.134574" style="fill-opacity: 0; stroke: #000000; stroke-width: 1.5"/>
     <use xlink:href="#mcd597bc04b" x="312.566506" y="44.654257" style="fill-opacity: 0; stroke: #000000; stroke-width: 1.5"/>
     <use xlink:href="#mcd597bc04b" x="337.813546" y="10.162693" style="fill-opacity: 0; stroke: #000000; stroke-width: 1.5"/>
     <use xlink:href="#mcd597bc04b" x="337.813546" y="6.330297" style="fill-opacity: 0; stroke: #000000; stroke-width: 1.5"/>
    </g>
   </g>
   <g id="line2d_56">
    <path clip-path="url(#pb485366842)" style="fill: none; stroke: #000000; stroke-width: 1.5; stroke-linecap: square"/>
   </g>
   <g id="line2d_57">
    <path d="M 296.827591 293.76 
L 296.827591 289.927604 
L 336.290099 289.927604 
L 336.290099 286.095208 
L 341.991467 286.095208 
L 341.991467 282.262812 
L 342.565131 282.262812 
L 342.565131 278.430416 
L 345.389888 278.430416 
L 345.389888 274.59802 
L 345.557359 274.59802 
L 345.557359 270.765624 
L 346.512215 270.765624 
L 346.512215 266.933228 
L 347.12014 266.933228 
L 347.12014 263.100832 
L 347.553357 263.100832 
L 347.554862 255.43604 
L 349.013331 255.43604 
L 349.013331 251.603644 
L 349.514291 251.603644 
L 349.60297 243.938851 
L 350.076657 243.938851 
L 350.076657 240.106455 
L 350.473469 240.106455 
L 350.473469 236.274059 
L 351.016152 236.274059 
L 351.016152 232.441663 
L 351.958014 232.441663 
L 351.958014 228.609267 
L 352.489758 228.609267 
L 352.489758 224.776871 
L 353.206002 224.776871 
L 353.206002 220.944475 
L 353.733434 220.944475 
L 353.733434 217.112079 
L 354.073552 217.112079 
L 354.075907 209.447287 
L 356.393605 209.447287 
L 356.393605 205.614891 
L 358.187763 205.614891 
L 358.187763 201.782495 
L 358.385567 201.782495 
L 358.385567 197.950099 
L 358.64463 197.950099 
L 358.64463 194.117703 
L 359.176563 194.117703 
L 359.176563 190.285307 
L 359.317414 190.285307 
L 359.317414 186.452911 
L 359.764394 186.452911 
L 359.787266 178.788119 
L 361.231826 178.788119 
L 361.231826 174.955723 
L 361.90247 174.955723 
L 361.90247 171.123327 
L 362.177304 171.123327 
L 362.235768 163.458535 
L 362.778055 163.458535 
L 362.803753 155.793743 
L 363.241041 155.793743 
L 363.241041 151.961347 
L 364.362162 151.961347 
L 364.362162 148.12895 
L 365.106617 148.12895 
L 365.106617 144.296554 
L 365.744583 144.296554 
L 365.744583 140.464158 
L 366.019457 140.464158 
L 366.019457 136.631762 
L 366.622158 136.631762 
L 366.622158 132.799366 
L 366.97562 132.799366 
L 366.97562 128.96697 
L 369.552921 128.96697 
L 369.552921 125.134574 
L 370.652969 125.134574 
L 370.652969 121.302178 
L 372.501105 121.302178 
L 372.501105 117.469782 
L 372.703876 117.469782 
L 372.703876 113.637386 
L 372.850923 113.637386 
L 372.850923 109.80499 
L 375.296857 109.80499 
L 375.296857 105.972594 
L 376.148956 105.972594 
L 376.148956 102.140198 
L 377.946938 102.140198 
L 377.946938 98.307802 
L 378.160974 98.307802 
L 378.160974 94.475406 
L 378.724645 94.475406 
L 378.724645 90.64301 
L 379.116415 90.64301 
L 379.116415 86.810614 
L 379.787186 86.810614 
L 379.787186 82.978218 
L 380.470429 82.978218 
L 380.470429 79.145822 
L 383.493081 79.145822 
L 383.493081 75.313426 
L 383.835052 75.313426 
L 383.835052 71.48103 
L 384.373916 71.48103 
L 384.373916 67.648634 
L 386.68813 67.648634 
L 386.68813 63.816238 
L 387.164076 63.816238 
L 387.164076 59.983842 
L 387.879605 59.983842 
L 387.879605 56.151446 
L 392.487332 56.151446 
L 392.487332 52.31905 
L 392.951983 52.31905 
L 392.951983 48.486653 
L 398.639117 48.486653 
L 398.639117 44.654257 
L 399.14621 44.654257 
L 399.14621 40.821861 
L 399.754467 40.821861 
L 399.754467 36.989465 
L 400.73986 36.989465 
L 400.73986 33.157069 
L 401.88154 33.157069 
L 401.88154 29.324673 
L 402.322761 29.324673 
L 402.322761 25.492277 
L 402.850679 25.492277 
L 402.850679 21.659881 
L 403.241856 21.659881 
L 403.241856 17.827485 
L 404.067478 17.827485 
L 404.067478 13.995089 
L 408.547328 13.995089 
L 408.547328 10.162693 
L 411.615074 10.162693 
L 411.615074 6.330297 
L 411.615074 6.330297 
L 460.8 6.330297 
L 460.8 6.330297 
" clip-path="url(#pb485366842)" style="fill: none; stroke: #00bfbf; stroke-width: 1.5; stroke-linecap: square"/>
   </g>
   <g id="line2d_58">
    <defs>
     <path id="m2d77ba9667" d="M -0 14.142136 
L 8.485281 0 
L -0 -14.142136 
L -8.485281 -0 
z
" style="stroke: #00bfbf; stroke-width: 1.5; stroke-linejoin: miter"/>
    </defs>
    <g clip-path="url(#pb485366842)">
     <use xlink:href="#m2d77ba9667" x="349.514291" y="251.603644" style="fill-opacity: 0; stroke: #00bfbf; stroke-width: 1.5; stroke-linejoin: miter"/>
     <use xlink:href="#m2d77ba9667" x="364.362162" y="151.961347" style="fill-opacity: 0; stroke: #00bfbf; stroke-width: 1.5; stroke-linejoin: miter"/>
     <use xlink:href="#m2d77ba9667" x="392.487332" y="56.151446" style="fill-opacity: 0; stroke: #00bfbf; stroke-width: 1.5; stroke-linejoin: miter"/>
     <use xlink:href="#m2d77ba9667" x="411.615074" y="6.330297" style="fill-opacity: 0; stroke: #00bfbf; stroke-width: 1.5; stroke-linejoin: miter"/>
    </g>
   </g>
   <g id="line2d_59">
    <path clip-path="url(#pb485366842)" style="fill: none; stroke: #00bfbf; stroke-width: 1.5; stroke-linecap: square"/>
    <g clip-path="url(#pb485366842)">
     <use xlink:href="#m2d77ba9667" x="-1" y="581.189703" style="fill-opacity: 0; stroke: #00bfbf; stroke-width: 1.5; stroke-linejoin: miter"/>
     <use xlink:href="#m2d77ba9667" x="460.8" y="581.189703" style="fill-opacity: 0; stroke: #00bfbf; stroke-width: 1.5; stroke-linejoin: miter"/>
    </g>
   </g>
   <g id="line2d_60">
    <path d="M 280.954878 293.76 
L 280.954878 289.927604 
L 281.239573 289.927604 
L 281.239573 286.095208 
L 281.975538 286.095208 
L 281.975538 282.262812 
L 283.087585 282.262812 
L 283.087585 278.430416 
L 283.332682 278.430416 
L 283.332682 274.59802 
L 283.369854 274.59802 
L 283.369854 270.765624 
L 283.374907 270.765624 
L 283.374907 266.933228 
L 284.428167 266.933228 
L 284.428167 263.100832 
L 284.731054 263.100832 
L 284.731054 259.268436 
L 285.56034 259.268436 
L 285.56034 255.43604 
L 285.959173 255.43604 
L 285.959173 251.603644 
L 286.555856 251.603644 
L 286.555856 247.771248 
L 286.963301 247.771248 
L 286.963301 243.938851 
L 291.840536 243.938851 
L 291.840536 240.106455 
L 292.64835 240.106455 
L 292.64835 236.274059 
L 293.416125 236.274059 
L 293.416125 232.441663 
L 293.680143 232.441663 
L 293.680143 228.609267 
L 293.800172 228.609267 
L 293.800172 224.776871 
L 294.250413 224.776871 
L 294.250413 220.944475 
L 298.350241 220.944475 
L 298.350241 217.112079 
L 298.386911 217.112079 
L 298.386911 213.279683 
L 298.425507 213.279683 
L 298.425507 209.447287 
L 299.732619 209.447287 
L 299.732619 205.614891 
L 300.500558 205.614891 
L 300.500558 201.782495 
L 300.956542 201.782495 
L 300.956542 197.950099 
L 307.191169 197.950099 
L 307.191169 194.117703 
L 307.727935 194.117703 
L 307.727935 190.285307 
L 309.473716 190.285307 
L 309.473716 186.452911 
L 311.13471 186.452911 
L 311.13471 182.620515 
L 312.805059 182.620515 
L 312.805059 178.788119 
L 315.388989 178.788119 
L 315.388989 174.955723 
L 316.527686 174.955723 
L 316.527686 171.123327 
L 320.295415 171.123327 
L 320.295415 167.290931 
L 324.74605 167.290931 
L 324.74605 163.458535 
L 325.859705 163.458535 
L 325.859705 159.626139 
L 332.995801 159.626139 
L 332.995801 155.793743 
L 333.606331 155.793743 
L 333.606331 151.961347 
L 334.82368 151.961347 
L 334.82368 148.12895 
L 336.018259 148.12895 
L 336.018259 144.296554 
L 336.797264 144.296554 
L 336.797264 140.464158 
L 337.581397 140.464158 
L 337.581397 136.631762 
L 338.443243 136.631762 
L 338.443243 132.799366 
L 339.689321 132.799366 
L 339.689321 128.96697 
L 340.045793 128.96697 
L 340.045793 125.134574 
L 340.634847 125.134574 
L 340.634847 121.302178 
L 341.383064 121.302178 
L 341.383064 117.469782 
L 344.212217 117.469782 
L 344.212217 113.637386 
L 346.060035 113.637386 
L 346.060035 109.80499 
L 353.243731 109.80499 
L 353.243731 105.972594 
L 353.916092 105.972594 
L 353.916092 102.140198 
L 375.164039 102.140198 
L 375.164039 98.307802 
L 384.045779 98.307802 
L 384.045779 94.475406 
L 390.495787 94.475406 
L 390.495787 90.64301 
L 393.139778 90.64301 
L 393.139778 86.810614 
L 394.246888 86.810614 
L 394.246888 82.978218 
L 396.19647 82.978218 
L 396.19647 79.145822 
L 396.19647 79.145822 
L 396.19647 79.145822 
L 460.8 79.145822 
" clip-path="url(#pb485366842)" style="fill: none; stroke: #00bfbf; stroke-width: 1.5; stroke-linecap: square"/>
   </g>
   <g id="line2d_61">
    <defs>
     <path id="m2a30c95dd8" d="M 0 7.5 
C 1.989023 7.5 3.896849 6.709753 5.303301 5.303301 
C 6.709753 3.896849 7.5 1.989023 7.5 0 
C 7.5 -1.989023 6.709753 -3.896849 5.303301 -5.303301 
C 3.896849 -6.709753 1.989023 -7.5 0 -7.5 
C -1.989023 -7.5 -3.896849 -6.709753 -5.303301 -5.303301 
C -6.709753 -3.896849 -7.5 -1.989023 -7.5 0 
C -7.5 1.989023 -6.709753 3.896849 -5.303301 5.303301 
C -3.896849 6.709753 -1.989023 7.5 0 7.5 
z
" style="stroke: #00bfbf; stroke-width: 1.5"/>
    </defs>
    <g clip-path="url(#pb485366842)">
     <use xlink:href="#m2a30c95dd8" x="293.680143" y="232.441663" style="fill-opacity: 0; stroke: #00bfbf; stroke-width: 1.5"/>
     <use xlink:href="#m2a30c95dd8" x="324.74605" y="167.290931" style="fill-opacity: 0; stroke: #00bfbf; stroke-width: 1.5"/>
     <use xlink:href="#m2a30c95dd8" x="353.916092" y="105.972594" style="fill-opacity: 0; stroke: #00bfbf; stroke-width: 1.5"/>
     <use xlink:href="#m2a30c95dd8" x="396.19647" y="79.145822" style="fill-opacity: 0; stroke: #00bfbf; stroke-width: 1.5"/>
    </g>
   </g>
   <g id="line2d_62">
    <path clip-path="url(#pb485366842)" style="fill: none; stroke: #00bfbf; stroke-width: 1.5; stroke-linecap: square"/>
   </g>
   <g id="line2d_63">
    <path d="M 357.915193 293.76 
L 357.915193 289.927604 
L 366.169081 289.927604 
L 366.169081 286.095208 
L 375.600389 286.095208 
L 375.600389 282.262812 
L 375.733062 282.262812 
L 375.733062 278.430416 
L 377.917662 278.430416 
L 377.917662 274.59802 
L 378.018214 274.59802 
L 378.018214 270.765624 
L 379.134283 270.765624 
L 379.134283 266.933228 
L 379.689288 266.933228 
L 379.689288 263.100832 
L 380.027571 263.100832 
L 380.027571 259.268436 
L 380.04583 259.268436 
L 380.04583 255.43604 
L 380.049508 255.43604 
L 380.049508 251.603644 
L 380.716408 251.603644 
L 380.716408 247.771248 
L 380.726365 247.771248 
L 380.726365 243.938851 
L 381.218494 243.938851 
L 381.218494 240.106455 
L 381.423877 240.106455 
L 381.423877 236.274059 
L 382.305034 236.274059 
L 382.305034 232.441663 
L 382.716152 232.441663 
L 382.716152 228.609267 
L 382.839475 228.609267 
L 382.839475 224.776871 
L 383.098194 224.776871 
L 383.098194 220.944475 
L 383.154778 220.944475 
L 383.154778 217.112079 
L 383.504842 217.112079 
L 383.504842 213.279683 
L 383.526257 213.279683 
L 383.526257 209.447287 
L 383.927807 209.447287 
L 383.927807 205.614891 
L 384.402681 205.614891 
L 384.402681 201.782495 
L 384.897297 201.782495 
L 384.897297 197.950099 
L 385.7688 197.950099 
L 385.7688 194.117703 
L 386.508588 194.117703 
L 386.508588 190.285307 
L 387.216003 190.285307 
L 387.216003 186.452911 
L 388.121227 186.452911 
L 388.121227 182.620515 
L 388.166818 182.620515 
L 388.166818 178.788119 
L 388.196026 178.788119 
L 388.196026 174.955723 
L 390.210314 174.955723 
L 390.210314 171.123327 
L 390.282093 171.123327 
L 390.282093 167.290931 
L 390.57869 167.290931 
L 390.57869 163.458535 
L 390.824706 163.458535 
L 390.824706 159.626139 
L 392.446149 159.626139 
L 392.446149 155.793743 
L 392.50125 155.793743 
L 392.50125 151.961347 
L 392.968779 151.961347 
L 392.968779 148.12895 
L 393.47744 148.12895 
L 393.47744 144.296554 
L 402.278827 144.296554 
L 402.278827 140.464158 
L 403.590362 140.464158 
L 403.590362 136.631762 
L 404.987801 136.631762 
L 404.987801 132.799366 
L 405.691013 132.799366 
L 405.691013 128.96697 
L 406.796075 128.96697 
L 406.796075 125.134574 
L 406.987046 125.134574 
L 406.987046 121.302178 
L 414.434784 121.302178 
L 414.434784 117.469782 
L 414.707076 117.469782 
L 414.707076 113.637386 
L 417.955533 113.637386 
L 417.955533 109.80499 
L 420.344487 109.80499 
L 420.344487 105.972594 
L 421.693652 105.972594 
L 421.693652 102.140198 
L 421.957434 102.140198 
L 421.957434 98.307802 
L 428.180994 98.307802 
L 428.180994 94.475406 
L 429.649308 94.475406 
L 429.649308 90.64301 
L 431.040637 90.64301 
L 431.040637 86.810614 
L 431.459436 86.810614 
L 431.459436 82.978218 
L 433.066705 82.978218 
L 433.066705 79.145822 
L 434.781932 79.145822 
L 434.781932 75.313426 
L 435.155253 75.313426 
L 435.155253 71.48103 
L 436.470006 71.48103 
L 436.470006 67.648634 
L 436.834063 67.648634 
L 436.834063 63.816238 
L 436.834063 63.816238 
L 436.834063 63.816238 
L 460.8 63.816238 
" clip-path="url(#pb485366842)" style="fill: none; stroke: #bf00bf; stroke-width: 1.5; stroke-linecap: square"/>
   </g>
   <g id="line2d_64">
    <defs>
     <path id="m47c877f5ee" d="M -0 14.142136 
L 8.485281 0 
L -0 -14.142136 
L -8.485281 -0 
z
" style="stroke: #bf00bf; stroke-width: 1.5; stroke-linejoin: miter"/>
    </defs>
    <g clip-path="url(#pb485366842)">
     <use xlink:href="#m47c877f5ee" x="390.210314" y="174.955723" style="fill-opacity: 0; stroke: #bf00bf; stroke-width: 1.5; stroke-linejoin: miter"/>
     <use xlink:href="#m47c877f5ee" x="421.693652" y="105.972594" style="fill-opacity: 0; stroke: #bf00bf; stroke-width: 1.5; stroke-linejoin: miter"/>
     <use xlink:href="#m47c877f5ee" x="436.834063" y="67.648634" style="fill-opacity: 0; stroke: #bf00bf; stroke-width: 1.5; stroke-linejoin: miter"/>
     <use xlink:href="#m47c877f5ee" x="436.834063" y="63.816238" style="fill-opacity: 0; stroke: #bf00bf; stroke-width: 1.5; stroke-linejoin: miter"/>
    </g>
   </g>
   <g id="line2d_65">
    <path clip-path="url(#pb485366842)" style="fill: none; stroke: #bf00bf; stroke-width: 1.5; stroke-linecap: square"/>
    <g clip-path="url(#pb485366842)">
     <use xlink:href="#m47c877f5ee" x="-1" y="581.189703" style="fill-opacity: 0; stroke: #bf00bf; stroke-width: 1.5; stroke-linejoin: miter"/>
     <use xlink:href="#m47c877f5ee" x="460.8" y="581.189703" style="fill-opacity: 0; stroke: #bf00bf; stroke-width: 1.5; stroke-linejoin: miter"/>
    </g>
   </g>
   <g id="line2d_66">
    <path d="M 309.096922 293.76 
L 309.096922 289.927604 
L 314.998885 289.927604 
L 314.998885 286.095208 
L 317.665421 286.095208 
L 317.665421 282.262812 
L 324.792322 282.262812 
L 324.792322 278.430416 
L 328.68008 278.430416 
L 328.68008 274.59802 
L 333.119175 274.59802 
L 333.119175 270.765624 
L 345.74523 270.765624 
L 345.74523 266.933228 
L 345.970851 266.933228 
L 345.970851 263.100832 
L 364.232756 263.100832 
L 364.232756 259.268436 
L 364.982628 259.268436 
L 364.982628 255.43604 
L 365.13406 255.43604 
L 365.13406 251.603644 
L 366.277191 251.603644 
L 366.277191 247.771248 
L 370.794364 247.771248 
L 370.794364 243.938851 
L 371.752707 243.938851 
L 371.752707 240.106455 
L 374.4975 240.106455 
L 374.4975 236.274059 
L 375.764086 236.274059 
L 375.764086 232.441663 
L 378.060728 232.441663 
L 378.060728 228.609267 
L 378.228775 228.609267 
L 378.228775 224.776871 
L 379.307597 224.776871 
L 379.307597 220.944475 
L 380.42209 220.944475 
L 380.42209 217.112079 
L 381.484888 217.112079 
L 381.484888 213.279683 
L 391.816486 213.279683 
L 391.816486 209.447287 
L 392.677869 209.447287 
L 392.677869 205.614891 
L 396.403585 205.614891 
L 396.403585 201.782495 
L 396.473014 201.782495 
L 396.473014 197.950099 
L 398.139146 197.950099 
L 398.139146 194.117703 
L 398.139146 194.117703 
L 398.139146 194.117703 
L 460.8 194.117703 
" clip-path="url(#pb485366842)" style="fill: none; stroke: #bf00bf; stroke-width: 1.5; stroke-linecap: square"/>
   </g>
   <g id="line2d_67">
    <defs>
     <path id="m49bd33cee0" d="M 0 7.5 
C 1.989023 7.5 3.896849 6.709753 5.303301 5.303301 
C 6.709753 3.896849 7.5 1.989023 7.5 0 
C 7.5 -1.989023 6.709753 -3.896849 5.303301 -5.303301 
C 3.896849 -6.709753 1.989023 -7.5 0 -7.5 
C -1.989023 -7.5 -3.896849 -6.709753 -5.303301 -5.303301 
C -6.709753 -3.896849 -7.5 -1.989023 -7.5 0 
C -7.5 1.989023 -6.709753 3.896849 -5.303301 5.303301 
C -3.896849 6.709753 -1.989023 7.5 0 7.5 
z
" style="stroke: #bf00bf; stroke-width: 1.5"/>
    </defs>
    <g clip-path="url(#pb485366842)">
     <use xlink:href="#m49bd33cee0" x="345.74523" y="270.765624" style="fill-opacity: 0; stroke: #bf00bf; stroke-width: 1.5"/>
     <use xlink:href="#m49bd33cee0" x="378.228775" y="228.609267" style="fill-opacity: 0; stroke: #bf00bf; stroke-width: 1.5"/>
     <use xlink:href="#m49bd33cee0" x="396.473014" y="201.782495" style="fill-opacity: 0; stroke: #bf00bf; stroke-width: 1.5"/>
     <use xlink:href="#m49bd33cee0" x="398.139146" y="194.117703" style="fill-opacity: 0; stroke: #bf00bf; stroke-width: 1.5"/>
    </g>
   </g>
   <g id="line2d_68">
    <path clip-path="url(#pb485366842)" style="fill: none; stroke: #bf00bf; stroke-width: 1.5; stroke-linecap: square"/>
   </g>
   <g id="line2d_69">
    <path d="M 367.457382 293.76 
L 367.457382 289.927604 
L 370.775933 289.927604 
L 370.775933 286.095208 
L 378.961532 286.095208 
L 378.961532 282.262812 
L 379.185391 282.262812 
L 379.185391 278.430416 
L 382.665948 278.430416 
L 382.665948 274.59802 
L 382.733509 274.59802 
L 382.733509 270.765624 
L 383.447525 270.765624 
L 383.447525 266.933228 
L 383.932319 266.933228 
L 383.932319 263.100832 
L 384.341758 263.100832 
L 384.341758 259.268436 
L 385.817095 259.268436 
L 385.817095 255.43604 
L 388.011222 255.43604 
L 388.011222 251.603644 
L 388.681019 251.603644 
L 388.681019 247.771248 
L 389.568171 247.771248 
L 389.568171 243.938851 
L 391.360045 243.938851 
L 391.360045 240.106455 
L 395.190086 240.106455 
L 395.190086 236.274059 
L 395.643905 236.274059 
L 395.643905 232.441663 
L 395.66286 232.441663 
L 395.66286 228.609267 
L 397.045322 228.609267 
L 397.045322 224.776871 
L 397.328096 224.776871 
L 397.328096 220.944475 
L 397.612174 220.944475 
L 397.612174 217.112079 
L 397.74802 217.112079 
L 397.74802 213.279683 
L 398.162277 213.279683 
L 398.162277 209.447287 
L 398.177082 209.447287 
L 398.177082 205.614891 
L 399.007718 205.614891 
L 399.007718 201.782495 
L 399.408392 201.782495 
L 399.408392 197.950099 
L 399.443272 197.950099 
L 399.443272 194.117703 
L 400.194479 194.117703 
L 400.194479 190.285307 
L 400.43605 190.285307 
L 400.43605 186.452911 
L 400.543732 186.452911 
L 400.543732 182.620515 
L 401.911119 182.620515 
L 401.911119 178.788119 
L 405.050829 178.788119 
L 405.050829 174.955723 
L 405.863854 174.955723 
L 405.863854 171.123327 
L 406.465157 171.123327 
L 406.465157 167.290931 
L 406.865919 167.290931 
L 406.865919 163.458535 
L 406.963568 163.458535 
L 406.963568 159.626139 
L 407.499281 159.626139 
L 407.499281 155.793743 
L 409.209309 155.793743 
L 409.209309 151.961347 
L 409.598928 151.961347 
L 409.598928 148.12895 
L 409.893824 148.12895 
L 409.893824 144.296554 
L 410.278647 144.296554 
L 410.278647 140.464158 
L 415.413305 140.464158 
L 415.413305 136.631762 
L 417.209634 136.631762 
L 417.209634 132.799366 
L 421.962451 132.799366 
L 421.962451 128.96697 
L 423.713563 128.96697 
L 423.713563 125.134574 
L 424.210802 125.134574 
L 424.210802 121.302178 
L 425.040859 121.302178 
L 425.040859 117.469782 
L 428.672395 117.469782 
L 428.672395 113.637386 
L 430.129425 113.637386 
L 430.129425 109.80499 
L 431.068098 109.80499 
L 431.068098 105.972594 
L 431.152733 105.972594 
L 431.152733 102.140198 
L 431.54648 102.140198 
L 431.54648 98.307802 
L 433.438419 98.307802 
L 433.438419 94.475406 
L 435.567019 94.475406 
L 435.567019 90.64301 
L 437.000461 90.64301 
L 437.000461 86.810614 
L 437.000461 86.810614 
L 437.000461 86.810614 
L 460.8 86.810614 
" clip-path="url(#pb485366842)" style="fill: none; stroke: #ff0000; stroke-width: 3; stroke-linecap: square"/>
   </g>
   <g id="line2d_70">
    <defs>
     <path id="mcaafdbbbe5" d="M -0 14.142136 
L 8.485281 0 
L -0 -14.142136 
L -8.485281 -0 
z
" style="stroke: #ff0000; stroke-width: 3; stroke-linejoin: miter"/>
    </defs>
    <g clip-path="url(#pb485366842)">
     <use xlink:href="#mcaafdbbbe5" x="391.360045" y="243.938851" style="fill-opacity: 0; stroke: #ff0000; stroke-width: 3; stroke-linejoin: miter"/>
     <use xlink:href="#mcaafdbbbe5" x="409.598928" y="151.961347" style="fill-opacity: 0; stroke: #ff0000; stroke-width: 3; stroke-linejoin: miter"/>
     <use xlink:href="#mcaafdbbbe5" x="437.000461" y="90.64301" style="fill-opacity: 0; stroke: #ff0000; stroke-width: 3; stroke-linejoin: miter"/>
     <use xlink:href="#mcaafdbbbe5" x="437.000461" y="86.810614" style="fill-opacity: 0; stroke: #ff0000; stroke-width: 3; stroke-linejoin: miter"/>
    </g>
   </g>
   <g id="line2d_71">
    <path clip-path="url(#pb485366842)" style="fill: none; stroke: #ff0000; stroke-width: 3; stroke-linecap: square"/>
    <g clip-path="url(#pb485366842)">
     <use xlink:href="#mcaafdbbbe5" x="-1" y="581.189703" style="fill-opacity: 0; stroke: #ff0000; stroke-width: 3; stroke-linejoin: miter"/>
     <use xlink:href="#mcaafdbbbe5" x="460.8" y="581.189703" style="fill-opacity: 0; stroke: #ff0000; stroke-width: 3; stroke-linejoin: miter"/>
    </g>
   </g>
   <g id="line2d_72">
    <path d="M 361.40424 293.76 
L 361.40424 289.927604 
L 366.520045 289.927604 
L 366.520045 286.095208 
L 367.737766 286.095208 
L 367.737766 282.262812 
L 378.607804 282.262812 
L 378.607804 278.430416 
L 382.497378 278.430416 
L 382.497378 274.59802 
L 386.89857 274.59802 
L 386.89857 270.765624 
L 396.416074 270.765624 
L 396.416074 266.933228 
L 396.416074 266.933228 
L 396.416074 266.933228 
L 460.8 266.933228 
" clip-path="url(#pb485366842)" style="fill: none; stroke: #ff0000; stroke-width: 3; stroke-linecap: square"/>
   </g>
   <g id="line2d_73">
    <defs>
     <path id="m1d4cfe60d9" d="M 0 7.5 
C 1.989023 7.5 3.896849 6.709753 5.303301 5.303301 
C 6.709753 3.896849 7.5 1.989023 7.5 0 
C 7.5 -1.989023 6.709753 -3.896849 5.303301 -5.303301 
C 3.896849 -6.709753 1.989023 -7.5 0 -7.5 
C -1.989023 -7.5 -3.896849 -6.709753 -5.303301 -5.303301 
C -6.709753 -3.896849 -7.5 -1.989023 -7.5 0 
C -7.5 1.989023 -6.709753 3.896849 -5.303301 5.303301 
C -3.896849 6.709753 -1.989023 7.5 0 7.5 
z
" style="stroke: #ff0000; stroke-width: 3"/>
    </defs>
    <g clip-path="url(#pb485366842)">
     <use xlink:href="#m1d4cfe60d9" x="366.520045" y="289.927604" style="fill-opacity: 0; stroke: #ff0000; stroke-width: 3"/>
     <use xlink:href="#m1d4cfe60d9" x="382.497378" y="278.430416" style="fill-opacity: 0; stroke: #ff0000; stroke-width: 3"/>
     <use xlink:href="#m1d4cfe60d9" x="396.416074" y="266.933228" style="fill-opacity: 0; stroke: #ff0000; stroke-width: 3"/>
    </g>
   </g>
   <g id="line2d_74">
    <path clip-path="url(#pb485366842)" style="fill: none; stroke: #ff0000; stroke-width: 3; stroke-linecap: square"/>
   </g>
   <g id="line2d_75">
    <path d="M 441.819429 293.76 
L 441.819429 3.456 
" clip-path="url(#pb485366842)" style="fill: none; stroke: #000000; stroke-width: 1.5; stroke-linecap: square"/>
    <defs>
     <path id="md896098de4" d="M -10 0 
L 10 0 
M 0 10 
L 0 -10 
" style="stroke: #000000; stroke-width: 3"/>
    </defs>
    <g clip-path="url(#pb485366842)">
     <use xlink:href="#md896098de4" x="441.819429" y="293.76" style="stroke: #000000; stroke-width: 3"/>
     <use xlink:href="#md896098de4" x="441.819429" y="3.456" style="stroke: #000000; stroke-width: 3"/>
    </g>
   </g>
   <g id="line2d_76">
    <path d="M 400.287863 293.76 
L 400.287863 3.456 
" clip-path="url(#pb485366842)" style="fill: none; stroke: #000000; stroke-width: 1.5; stroke-linecap: square"/>
    <defs>
     <path id="m4794583608" d="M 0 7.5 
C 1.989023 7.5 3.896849 6.709753 5.303301 5.303301 
C 6.709753 3.896849 7.5 1.989023 7.5 0 
C 7.5 -1.989023 6.709753 -3.896849 5.303301 -5.303301 
C 3.896849 -6.709753 1.989023 -7.5 0 -7.5 
C -1.989023 -7.5 -3.896849 -6.709753 -5.303301 -5.303301 
C -6.709753 -3.896849 -7.5 -1.989023 -7.5 0 
C -7.5 1.989023 -6.709753 3.896849 -5.303301 5.303301 
C -3.896849 6.709753 -1.989023 7.5 0 7.5 
z
" style="stroke: #000000; stroke-width: 3"/>
    </defs>
    <g clip-path="url(#pb485366842)">
     <use xlink:href="#m4794583608" x="400.287863" y="293.76" style="fill-opacity: 0; stroke: #000000; stroke-width: 3"/>
     <use xlink:href="#m4794583608" x="400.287863" y="3.456" style="fill-opacity: 0; stroke: #000000; stroke-width: 3"/>
    </g>
   </g>
   <g id="patch_3">
    <path d="M 62.208 293.76 
L 62.208 3.456 
" style="fill: none; stroke: #000000; stroke-width: 0.8; stroke-linejoin: miter; stroke-linecap: square"/>
   </g>
   <g id="patch_4">
    <path d="M 460.8 293.76 
L 460.8 3.456 
" style="fill: none; stroke: #000000; stroke-width: 0.8; stroke-linejoin: miter; stroke-linecap: square"/>
   </g>
   <g id="patch_5">
    <path d="M 62.208 293.76 
L 460.8 293.76 
" style="fill: none; stroke: #000000; stroke-width: 0.8; stroke-linejoin: miter; stroke-linecap: square"/>
   </g>
   <g id="patch_6">
    <path d="M 62.208 3.456 
L 460.8 3.456 
" style="fill: none; stroke: #000000; stroke-width: 0.8; stroke-linejoin: miter; stroke-linecap: square"/>
   </g>
   <g id="text_13">
    <!-- f15-f19 -->
    <g transform="translate(225.405563 24.458955)scale(0.2 -0.2)">
     <defs>
      <path id="DejaVuSans-35" d="M 691 4666 
L 3169 4666 
L 3169 4134 
L 1269 4134 
L 1269 2991 
Q 1406 3038 1543 3061 
Q 1681 3084 1819 3084 
Q 2600 3084 3056 2656 
Q 3513 2228 3513 1497 
Q 3513 744 3044 326 
Q 2575 -91 1722 -91 
Q 1428 -91 1123 -41 
Q 819 9 494 109 
L 494 744 
Q 775 591 1075 516 
Q 1375 441 1709 441 
Q 2250 441 2565 725 
Q 2881 1009 2881 1497 
Q 2881 1984 2565 2268 
Q 2250 2553 1709 2553 
Q 1456 2553 1204 2497 
Q 953 2441 691 2322 
L 691 4666 
z
" transform="scale(0.015625)"/>
      <path id="DejaVuSans-2d" d="M 313 2009 
L 1997 2009 
L 1997 1497 
L 313 1497 
L 313 2009 
z
" transform="scale(0.015625)"/>
      <path id="DejaVuSans-39" d="M 703 97 
L 703 672 
Q 941 559 1184 500 
Q 1428 441 1663 441 
Q 2288 441 2617 861 
Q 2947 1281 2994 2138 
Q 2813 1869 2534 1725 
Q 2256 1581 1919 1581 
Q 1219 1581 811 2004 
Q 403 2428 403 3163 
Q 403 3881 828 4315 
Q 1253 4750 1959 4750 
Q 2769 4750 3195 4129 
Q 3622 3509 3622 2328 
Q 3622 1225 3098 567 
Q 2575 -91 1691 -91 
Q 1453 -91 1209 -44 
Q 966 3 703 97 
z
M 1959 2075 
Q 2384 2075 2632 2365 
Q 2881 2656 2881 3163 
Q 2881 3666 2632 3958 
Q 2384 4250 1959 4250 
Q 1534 4250 1286 3958 
Q 1038 3666 1038 3163 
Q 1038 2656 1286 2365 
Q 1534 2075 1959 2075 
z
" transform="scale(0.015625)"/>
     </defs>
     <use xlink:href="#DejaVuSans-66"/>
     <use xlink:href="#DejaVuSans-31" x="35.205078"/>
     <use xlink:href="#DejaVuSans-35" x="98.828125"/>
     <use xlink:href="#DejaVuSans-2d" x="162.451172"/>
     <use xlink:href="#DejaVuSans-66" x="198.535156"/>
     <use xlink:href="#DejaVuSans-31" x="233.740234"/>
     <use xlink:href="#DejaVuSans-39" x="297.363281"/>
    </g>
   </g>
   <g id="text_14">
    <!-- absolute targets -->
    <g transform="translate(62.208 609.932673)scale(0.14 -0.14)">
     <defs>
      <path id="DejaVuSans-62" d="M 3116 1747 
Q 3116 2381 2855 2742 
Q 2594 3103 2138 3103 
Q 1681 3103 1420 2742 
Q 1159 2381 1159 1747 
Q 1159 1113 1420 752 
Q 1681 391 2138 391 
Q 2594 391 2855 752 
Q 3116 1113 3116 1747 
z
M 1159 2969 
Q 1341 3281 1617 3432 
Q 1894 3584 2278 3584 
Q 2916 3584 3314 3078 
Q 3713 2572 3713 1747 
Q 3713 922 3314 415 
Q 2916 -91 2278 -91 
Q 1894 -91 1617 61 
Q 1341 213 1159 525 
L 1159 0 
L 581 0 
L 581 4863 
L 1159 4863 
L 1159 2969 
z
" transform="scale(0.015625)"/>
      <path id="DejaVuSans-75" d="M 544 1381 
L 544 3500 
L 1119 3500 
L 1119 1403 
Q 1119 906 1312 657 
Q 1506 409 1894 409 
Q 2359 409 2629 706 
Q 2900 1003 2900 1516 
L 2900 3500 
L 3475 3500 
L 3475 0 
L 2900 0 
L 2900 538 
Q 2691 219 2414 64 
Q 2138 -91 1772 -91 
Q 1169 -91 856 284 
Q 544 659 544 1381 
z
M 1991 3584 
L 1991 3584 
z
" transform="scale(0.015625)"/>
      <path id="DejaVuSans-65" d="M 3597 1894 
L 3597 1613 
L 953 1613 
Q 991 1019 1311 708 
Q 1631 397 2203 397 
Q 2534 397 2845 478 
Q 3156 559 3463 722 
L 3463 178 
Q 3153 47 2828 -22 
Q 2503 -91 2169 -91 
Q 1331 -91 842 396 
Q 353 884 353 1716 
Q 353 2575 817 3079 
Q 1281 3584 2069 3584 
Q 2775 3584 3186 3129 
Q 3597 2675 3597 1894 
z
M 3022 2063 
Q 3016 2534 2758 2815 
Q 2500 3097 2075 3097 
Q 1594 3097 1305 2825 
Q 1016 2553 972 2059 
L 3022 2063 
z
" transform="scale(0.015625)"/>
     </defs>
     <use xlink:href="#DejaVuSans-61"/>
     <use xlink:href="#DejaVuSans-62" x="61.279297"/>
     <use xlink:href="#DejaVuSans-73" x="124.755859"/>
     <use xlink:href="#DejaVuSans-6f" x="176.855469"/>
     <use xlink:href="#DejaVuSans-6c" x="238.037109"/>
     <use xlink:href="#DejaVuSans-75" x="265.820312"/>
     <use xlink:href="#DejaVuSans-74" x="329.199219"/>
     <use xlink:href="#DejaVuSans-65" x="368.408203"/>
     <use xlink:href="#DejaVuSans-20" x="429.931641"/>
     <use xlink:href="#DejaVuSans-74" x="461.71875"/>
     <use xlink:href="#DejaVuSans-61" x="500.927734"/>
     <use xlink:href="#DejaVuSans-72" x="562.207031"/>
     <use xlink:href="#DejaVuSans-67" x="601.570312"/>
     <use xlink:href="#DejaVuSans-65" x="665.046875"/>
     <use xlink:href="#DejaVuSans-74" x="726.570312"/>
     <use xlink:href="#DejaVuSans-73" x="765.779297"/>
    </g>
   </g>
   <g id="text_15">
    <!-- v2.6.3 -->
    <g style="fill: #808080" transform="translate(245.82275 288.777272)scale(0.1 -0.1)">
     <defs>
      <path id="DejaVuSans-33" d="M 2597 2516 
Q 3050 2419 3304 2112 
Q 3559 1806 3559 1356 
Q 3559 666 3084 287 
Q 2609 -91 1734 -91 
Q 1441 -91 1130 -33 
Q 819 25 488 141 
L 488 750 
Q 750 597 1062 519 
Q 1375 441 1716 441 
Q 2309 441 2620 675 
Q 2931 909 2931 1356 
Q 2931 1769 2642 2001 
Q 2353 2234 1838 2234 
L 1294 2234 
L 1294 2753 
L 1863 2753 
Q 2328 2753 2575 2939 
Q 2822 3125 2822 3475 
Q 2822 3834 2567 4026 
Q 2313 4219 1838 4219 
Q 1578 4219 1281 4162 
Q 984 4106 628 3988 
L 628 4550 
Q 988 4650 1302 4700 
Q 1616 4750 1894 4750 
Q 2613 4750 3031 4423 
Q 3450 4097 3450 3541 
Q 3450 3153 3228 2886 
Q 3006 2619 2597 2516 
z
" transform="scale(0.015625)"/>
     </defs>
     <use xlink:href="#DejaVuSans-76"/>
     <use xlink:href="#DejaVuSans-32" x="59.179688"/>
     <use xlink:href="#DejaVuSans-2e" x="122.802734"/>
     <use xlink:href="#DejaVuSans-36" x="154.589844"/>
     <use xlink:href="#DejaVuSans-2e" x="218.212891"/>
     <use xlink:href="#DejaVuSans-33" x="250"/>
    </g>
   </g>
   <g id="legend_1">
    <g id="patch_7">
     <path d="M 76.208 136.881 
L 160.148625 136.881 
Q 164.148625 136.881 164.148625 132.881 
L 164.148625 17.456 
Q 164.148625 13.456 160.148625 13.456 
L 76.208 13.456 
Q 72.208 13.456 72.208 17.456 
L 72.208 132.881 
Q 72.208 136.881 76.208 136.881 
z
" style="fill: #ffffff; opacity: 0.2; stroke: #cccccc; stroke-linejoin: miter"/>
    </g>
    <g id="line2d_77">
     <path d="M 80.208 29.652875 
L 80.208 29.652875 
L 100.208 29.652875 
L 100.208 29.652875 
L 120.208 29.652875 
" style="fill: none; stroke: #000000; stroke-width: 1.5; stroke-linecap: square"/>
    </g>
    <g id="text_16">
     <!-- 1 -->
     <g transform="translate(136.208 36.652875)scale(0.2 -0.2)">
      <use xlink:href="#DejaVuSans-31"/>
     </g>
    </g>
    <g id="line2d_78">
     <path d="M 80.208 59.009125 
L 80.208 59.009125 
L 100.208 59.009125 
L 100.208 59.009125 
L 120.208 59.009125 
" style="fill: none; stroke: #00bfbf; stroke-width: 1.5; stroke-linecap: square"/>
    </g>
    <g id="text_17">
     <!-- -1 -->
     <g transform="translate(136.208 66.009125)scale(0.2 -0.2)">
      <use xlink:href="#DejaVuSans-2d"/>
      <use xlink:href="#DejaVuSans-31" x="36.083984"/>
     </g>
    </g>
    <g id="line2d_79">
     <path d="M 80.208 88.365375 
L 80.208 88.365375 
L 100.208 88.365375 
L 100.208 88.365375 
L 120.208 88.365375 
" style="fill: none; stroke: #bf00bf; stroke-width: 1.5; stroke-linecap: square"/>
    </g>
    <g id="text_18">
     <!-- -4 -->
     <g transform="translate(136.208 95.365375)scale(0.2 -0.2)">
      <use xlink:href="#DejaVuSans-2d"/>
      <use xlink:href="#DejaVuSans-34" x="36.083984"/>
     </g>
    </g>
    <g id="line2d_80">
     <path d="M 80.208 117.721625 
L 80.208 117.721625 
L 100.208 117.721625 
L 100.208 117.721625 
L 120.208 117.721625 
" style="fill: none; stroke: #ff0000; stroke-width: 3; stroke-linecap: square"/>
    </g>
    <g id="text_19">
     <!-- -8 -->
     <g transform="translate(136.208 124.721625)scale(0.2 -0.2)">
      <use xlink:href="#DejaVuSans-2d"/>
      <use xlink:href="#DejaVuSans-38" x="36.083984"/>
     </g>
    </g>
   </g>
  </g>
 </g>
 <defs>
  <clipPath id="pb485366842">
   <rect x="62.208" y="3.456" width="398.592" height="290.304"/>
  </clipPath>
 </defs>
</svg>
