<?xml version="1.0" encoding="utf-8" standalone="no"?>
<!DOCTYPE svg PUBLIC "-//W3C//DTD SVG 1.1//EN"
  "http://www.w3.org/Graphics/SVG/1.1/DTD/svg11.dtd">
<svg xmlns:xlink="http://www.w3.org/1999/xlink" width="460.8pt" height="345.6pt" viewBox="0 0 460.8 345.6" xmlns="http://www.w3.org/2000/svg" version="1.1">
 <metadata>
  <rdf:RDF xmlns:dc="http://purl.org/dc/elements/1.1/" xmlns:cc="http://creativecommons.org/ns#" xmlns:rdf="http://www.w3.org/1999/02/22-rdf-syntax-ns#">
   <cc:Work>
    <dc:type rdf:resource="http://purl.org/dc/dcmitype/StillImage"/>
    <dc:date>2024-06-19T19:28:36.241706</dc:date>
    <dc:format>image/svg+xml</dc:format>
    <dc:creator>
     <cc:Agent>
      <dc:title>Matplotlib v3.5.2, https://matplotlib.org/</dc:title>
     </cc:Agent>
    </dc:creator>
   </cc:Work>
  </rdf:RDF>
 </metadata>
 <defs>
  <style type="text/css">*{stroke-linejoin: round; stroke-linecap: butt}</style>
 </defs>
 <g id="figure_1">
  <g id="patch_1">
   <path d="M 0 345.6 
L 460.8 345.6 
L 460.8 0 
L 0 0 
z
" style="fill: #ffffff"/>
  </g>
  <g id="axes_1">
   <g id="patch_2">
    <path d="M 62.208 293.76 
L 460.8 293.76 
L 460.8 3.456 
L 62.208 3.456 
z
" style="fill: #ffffff"/>
   </g>
   <g id="line2d_1"/>
   <g id="line2d_2"/>
   <g id="line2d_3"/>
   <g id="line2d_4">
    <path d="M 235.523849 293.76 
L 235.536675 286.095208 
L 236.112067 286.095208 
L 236.112067 282.262812 
L 236.52419 282.262812 
L 236.52419 278.430416 
L 236.795847 278.430416 
L 236.795847 274.59802 
L 237.04957 274.59802 
L 237.143137 263.100832 
L 237.585242 263.100832 
L 237.616323 251.603644 
L 238.623022 251.603644 
L 238.623022 247.771248 
L 238.962247 247.771248 
L 238.962247 243.938851 
L 239.509681 243.938851 
L 239.604372 236.274059 
L 240.176079 236.274059 
L 240.176079 232.441663 
L 240.556485 232.441663 
L 240.556485 228.609267 
L 241.109062 228.609267 
L 241.109062 224.776871 
L 241.235417 224.776871 
L 241.235417 220.944475 
L 241.566417 220.944475 
L 241.566417 217.112079 
L 241.864382 217.112079 
L 241.864382 213.279683 
L 243.095017 213.279683 
L 243.118947 205.614891 
L 244.057304 205.614891 
L 244.057304 201.782495 
L 244.823246 201.782495 
L 244.823246 197.950099 
L 245.696335 197.950099 
L 245.738524 190.285307 
L 246.182184 190.285307 
L 246.182184 186.452911 
L 246.399088 186.452911 
L 246.399088 182.620515 
L 248.373329 182.620515 
L 248.373329 178.788119 
L 249.868914 178.788119 
L 249.868914 174.955723 
L 250.345525 174.955723 
L 250.345525 171.123327 
L 250.467372 171.123327 
L 250.467372 167.290931 
L 251.152474 167.290931 
L 251.152474 163.458535 
L 251.432451 163.458535 
L 251.432451 159.626139 
L 252.18566 159.626139 
L 252.18566 155.793743 
L 252.336053 155.793743 
L 252.341079 148.12895 
L 252.501399 148.12895 
L 252.501399 144.296554 
L 252.762292 144.296554 
L 252.819091 136.631762 
L 253.054013 136.631762 
L 253.054013 132.799366 
L 253.320718 132.799366 
L 253.349735 125.134574 
L 253.634948 125.134574 
L 253.634948 121.302178 
L 254.112557 121.302178 
L 254.112557 117.469782 
L 255.197118 117.469782 
L 255.197118 113.637386 
L 256.818057 113.637386 
L 256.818057 109.80499 
L 261.844891 109.80499 
L 261.844891 105.972594 
L 262.207898 105.972594 
L 262.280464 98.307802 
L 262.535396 98.307802 
L 262.535396 94.475406 
L 264.434689 94.475406 
L 264.434689 90.64301 
L 268.857431 90.64301 
L 268.857431 86.810614 
L 271.968908 86.810614 
L 271.968908 82.978218 
L 274.748034 82.978218 
L 274.748034 79.145822 
L 275.060249 79.145822 
L 275.060249 75.313426 
L 275.234165 75.313426 
L 275.337406 67.648634 
L 275.873187 67.648634 
L 275.873187 63.816238 
L 276.651552 63.816238 
L 276.651552 59.983842 
L 288.470699 59.983842 
L 288.470699 56.151446 
L 296.481482 56.151446 
L 296.481482 52.31905 
L 298.088653 52.31905 
L 298.088653 48.486653 
L 298.088653 48.486653 
L 460.8 48.486653 
L 460.8 48.486653 
" clip-path="url(#pf6187909e2)" style="fill: none; stroke: #f5deb3; stroke-width: 1.5; stroke-linecap: square"/>
   </g>
   <g id="line2d_5"/>
   <g id="line2d_6"/>
   <g id="line2d_7">
    <path d="M 234.898966 293.76 
L 234.980977 282.262812 
L 235.124688 282.262812 
L 235.124688 278.430416 
L 235.353302 278.430416 
L 235.353302 274.59802 
L 235.498178 274.59802 
L 235.498178 270.765624 
L 235.685312 270.765624 
L 235.685312 266.933228 
L 235.810907 266.933228 
L 235.839439 259.268436 
L 236.141835 259.268436 
L 236.251211 243.938851 
L 237.306819 243.938851 
L 237.306819 240.106455 
L 242.203599 240.106455 
L 242.203599 236.274059 
L 242.31857 236.274059 
L 242.31857 232.441663 
L 242.442855 232.441663 
L 242.442855 228.609267 
L 242.749162 228.609267 
L 242.858116 217.112079 
L 243.139271 217.112079 
L 243.139271 213.279683 
L 243.706617 213.279683 
L 243.706617 209.447287 
L 244.049229 209.447287 
L 244.049229 205.614891 
L 244.758218 205.614891 
L 244.808685 197.950099 
L 245.237587 197.950099 
L 245.237587 194.117703 
L 245.597627 194.117703 
L 245.597627 190.285307 
L 245.754732 190.285307 
L 245.754732 186.452911 
L 246.708064 186.452911 
L 246.708064 182.620515 
L 247.040135 182.620515 
L 247.06582 174.955723 
L 247.924266 174.955723 
L 247.924266 171.123327 
L 248.084695 171.123327 
L 248.084695 167.290931 
L 248.4805 167.290931 
L 248.4805 163.458535 
L 248.815697 163.458535 
L 248.815697 159.626139 
L 249.694161 159.626139 
L 249.79324 151.961347 
L 250.068112 151.961347 
L 250.068112 148.12895 
L 251.172635 148.12895 
L 251.172635 144.296554 
L 251.682813 144.296554 
L 251.682813 140.464158 
L 251.909494 140.464158 
L 251.909494 136.631762 
L 253.028741 136.631762 
L 253.028741 132.799366 
L 253.332812 132.799366 
L 253.369867 125.134574 
L 254.371728 125.134574 
L 254.371728 121.302178 
L 254.912011 121.302178 
L 254.912011 117.469782 
L 261.088308 117.469782 
L 261.088308 113.637386 
L 266.309345 113.637386 
L 266.309345 109.80499 
L 270.012127 109.80499 
L 270.012127 105.972594 
L 272.551796 105.972594 
L 272.551796 102.140198 
L 278.729341 102.140198 
L 278.729341 98.307802 
L 279.17231 98.307802 
L 279.17231 94.475406 
L 279.594384 94.475406 
L 279.594384 90.64301 
L 280.394919 90.64301 
L 280.394919 86.810614 
L 280.800746 86.810614 
L 280.800746 82.978218 
L 280.939617 82.978218 
L 280.939617 79.145822 
L 289.078956 79.145822 
L 289.078956 75.313426 
L 291.415869 75.313426 
L 291.415869 71.48103 
L 291.645782 71.48103 
L 291.645782 67.648634 
L 291.917848 67.648634 
L 291.917848 63.816238 
L 389.707344 63.816238 
L 389.707344 59.983842 
L 420.527207 59.983842 
L 420.527207 56.151446 
L 435.898043 56.151446 
L 435.898043 52.31905 
L 442.616506 52.31905 
L 442.616506 48.486653 
L 448.721619 48.486653 
L 448.721619 44.654257 
L 452.673106 44.654257 
L 452.673106 40.821861 
L 453.691196 40.821861 
L 453.691196 36.989465 
L 456.568714 36.989465 
L 456.568714 33.157069 
L 456.989113 33.157069 
L 456.989113 29.324673 
L 461.8 29.324673 
L 461.8 29.324673 
" clip-path="url(#pf6187909e2)" style="fill: none; stroke: #f5deb3; stroke-width: 1.5; stroke-linecap: square"/>
   </g>
   <g id="line2d_8"/>
   <g id="line2d_9">
    <path d="M 233.765621 293.76 
L 233.765621 289.927604 
L 233.987786 289.927604 
L 233.987786 286.095208 
L 234.104935 286.095208 
L 234.104935 282.262812 
L 234.223243 282.262812 
L 234.223243 278.430416 
L 234.456577 278.430416 
L 234.456577 274.59802 
L 234.593248 274.59802 
L 234.593248 270.765624 
L 234.836464 270.765624 
L 234.926879 263.100832 
L 235.031694 263.100832 
L 235.116544 251.603644 
L 235.162118 251.603644 
L 235.173499 240.106455 
L 235.4548 240.106455 
L 235.4548 236.274059 
L 237.24237 236.274059 
L 237.24237 232.441663 
L 239.749168 232.441663 
L 239.749168 228.609267 
L 240.06059 228.609267 
L 240.108997 217.112079 
L 240.25902 217.112079 
L 240.320386 209.447287 
L 240.438705 209.447287 
L 240.537993 194.117703 
L 240.627687 194.117703 
L 240.627687 190.285307 
L 241.014538 190.285307 
L 241.014538 186.452911 
L 241.155549 186.452911 
L 241.155549 182.620515 
L 241.41997 182.620515 
L 241.50921 174.955723 
L 241.725926 174.955723 
L 241.725926 171.123327 
L 242.37771 171.123327 
L 242.37771 167.290931 
L 242.502937 167.290931 
L 242.502937 163.458535 
L 243.124927 163.458535 
L 243.124927 159.626139 
L 243.732325 159.626139 
L 243.732325 155.793743 
L 244.145963 155.793743 
L 244.250352 148.12895 
L 244.45106 148.12895 
L 244.544043 136.631762 
L 244.781781 136.631762 
L 244.781781 132.799366 
L 244.979541 132.799366 
L 245.041796 121.302178 
L 245.215537 121.302178 
L 245.245299 113.637386 
L 245.3662 113.637386 
L 245.3662 109.80499 
L 245.498541 109.80499 
L 245.498541 105.972594 
L 245.641062 105.972594 
L 245.641062 102.140198 
L 248.244136 102.140198 
L 248.269634 94.475406 
L 250.638789 94.475406 
L 250.638789 90.64301 
L 250.924345 90.64301 
L 250.924345 86.810614 
L 253.657247 86.810614 
L 253.657247 82.978218 
L 255.249573 82.978218 
L 255.29968 75.313426 
L 257.833629 75.313426 
L 257.833629 71.48103 
L 258.815434 71.48103 
L 258.815434 67.648634 
L 261.294804 67.648634 
L 261.294804 63.816238 
L 263.320023 63.816238 
L 263.320023 59.983842 
L 266.255569 59.983842 
L 266.255569 56.151446 
L 267.363452 56.151446 
L 267.363452 52.31905 
L 267.494873 52.31905 
L 267.494873 48.486653 
L 267.898962 48.486653 
L 267.898962 44.654257 
L 268.092968 44.654257 
L 268.092968 40.821861 
L 276.157517 40.821861 
L 276.157517 36.989465 
L 282.693755 36.989465 
L 282.693755 33.157069 
L 290.996733 33.157069 
L 290.996733 29.324673 
L 292.66159 29.324673 
L 292.66159 25.492277 
L 293.109001 25.492277 
L 293.109001 21.659881 
L 293.359836 21.659881 
L 293.359836 17.827485 
L 293.881287 17.827485 
L 293.881287 13.995089 
L 295.304292 13.995089 
L 295.304292 10.162693 
L 295.762233 10.162693 
L 295.762233 6.330297 
L 295.762233 6.330297 
L 460.8 6.330297 
L 460.8 6.330297 
" clip-path="url(#pf6187909e2)" style="fill: none; stroke: #f5deb3; stroke-width: 1.5; stroke-linecap: square"/>
   </g>
   <g id="line2d_10"/>
   <g id="line2d_11">
    <path d="M 364.883883 293.76 
L 364.883883 289.927604 
L 404.129394 289.927604 
L 404.129394 286.095208 
L 404.260565 286.095208 
L 404.260565 282.262812 
L 404.589981 282.262812 
L 404.589981 278.430416 
L 404.699711 278.430416 
L 404.699711 274.59802 
L 404.902237 274.59802 
L 404.902237 270.765624 
L 405.143396 270.765624 
L 405.143396 266.933228 
L 405.203562 266.933228 
L 405.203562 263.100832 
L 405.291328 263.100832 
L 405.291328 259.268436 
L 405.450396 259.268436 
L 405.450396 255.43604 
L 405.65474 255.43604 
L 405.65474 251.603644 
L 406.05955 251.603644 
L 406.05955 247.771248 
L 406.259576 247.771248 
L 406.259576 243.938851 
L 408.40508 243.938851 
L 408.40508 240.106455 
L 408.40508 240.106455 
L 408.40508 240.106455 
L 460.8 240.106455 
" clip-path="url(#pf6187909e2)" style="fill: none; stroke: #f5deb3; stroke-width: 1.5; stroke-linecap: square"/>
   </g>
   <g id="line2d_12">
    <path d="M 287.957256 293.76 
L 287.957256 289.927604 
L 287.957256 289.927604 
L 287.957256 289.927604 
L 460.8 289.927604 
" clip-path="url(#pf6187909e2)" style="fill: none; stroke: #f5deb3; stroke-width: 1.5; stroke-linecap: square"/>
   </g>
   <g id="line2d_13"/>
   <g id="line2d_14"/>
   <g id="line2d_15"/>
   <g id="line2d_16">
    <path d="M 406.943812 293.76 
L 406.943812 289.927604 
L 408.823356 289.927604 
L 408.823356 286.095208 
L 408.823356 286.095208 
L 408.823356 286.095208 
L 460.8 286.095208 
" clip-path="url(#pf6187909e2)" style="fill: none; stroke: #f5deb3; stroke-width: 1.5; stroke-linecap: square"/>
   </g>
   <g id="line2d_17">
    <path d="M 310.60301 293.76 
L 310.60301 289.927604 
L 312.480451 289.927604 
L 312.480451 286.095208 
L 315.44103 286.095208 
L 315.44103 282.262812 
L 315.578326 282.262812 
L 315.578326 278.430416 
L 315.975574 278.430416 
L 315.975574 274.59802 
L 316.01041 274.59802 
L 316.01041 270.765624 
L 316.126978 270.765624 
L 316.126978 266.933228 
L 316.571253 266.933228 
L 316.571253 263.100832 
L 316.842086 263.100832 
L 316.842086 259.268436 
L 317.115675 259.268436 
L 317.115675 255.43604 
L 317.449767 255.43604 
L 317.449767 251.603644 
L 317.580211 251.603644 
L 317.580211 247.771248 
L 318.024501 247.771248 
L 318.024501 243.938851 
L 318.046957 243.938851 
L 318.046957 240.106455 
L 318.087183 240.106455 
L 318.087183 236.274059 
L 318.276884 236.274059 
L 318.276884 232.441663 
L 318.524101 232.441663 
L 318.524101 228.609267 
L 318.906861 228.609267 
L 318.906861 224.776871 
L 319.540819 224.776871 
L 319.540819 220.944475 
L 320.242608 220.944475 
L 320.242608 217.112079 
L 320.268266 217.112079 
L 320.268266 213.279683 
L 321.216322 213.279683 
L 321.216322 209.447287 
L 322.043651 209.447287 
L 322.043651 205.614891 
L 322.305662 205.614891 
L 322.305662 201.782495 
L 322.494548 201.782495 
L 322.494548 197.950099 
L 322.8951 197.950099 
L 322.8951 194.117703 
L 323.556764 194.117703 
L 323.556764 190.285307 
L 323.633667 190.285307 
L 323.633667 186.452911 
L 323.67776 186.452911 
L 323.67776 182.620515 
L 323.785306 182.620515 
L 323.785306 178.788119 
L 324.305775 178.788119 
L 324.305775 174.955723 
L 324.464601 174.955723 
L 324.464601 171.123327 
L 324.582363 171.123327 
L 324.582363 167.290931 
L 324.666746 167.290931 
L 324.666746 163.458535 
L 325.713914 163.458535 
L 325.713914 159.626139 
L 325.898116 159.626139 
L 325.898116 155.793743 
L 325.929242 155.793743 
L 325.929242 151.961347 
L 326.147299 151.961347 
L 326.147299 148.12895 
L 326.506631 148.12895 
L 326.506631 144.296554 
L 326.543569 144.296554 
L 326.543569 140.464158 
L 326.748492 140.464158 
L 326.748492 136.631762 
L 327.314664 136.631762 
L 327.314664 132.799366 
L 327.425341 132.799366 
L 327.425341 128.96697 
L 328.00876 128.96697 
L 328.00876 125.134574 
L 329.053273 125.134574 
L 329.053273 121.302178 
L 329.338886 121.302178 
L 329.338886 117.469782 
L 332.926794 117.469782 
L 332.926794 113.637386 
L 333.760926 113.637386 
L 333.760926 109.80499 
L 333.869291 109.80499 
L 333.869291 105.972594 
L 333.873639 105.972594 
L 333.873639 102.140198 
L 334.038722 102.140198 
L 334.038722 98.307802 
L 334.132168 98.307802 
L 334.132168 94.475406 
L 334.901117 94.475406 
L 334.901117 90.64301 
L 335.214611 90.64301 
L 335.214611 86.810614 
L 335.413879 86.810614 
L 335.413879 82.978218 
L 335.632314 82.978218 
L 335.632314 79.145822 
L 336.663014 79.145822 
L 336.663014 75.313426 
L 336.940398 75.313426 
L 336.940398 71.48103 
L 337.072427 71.48103 
L 337.072427 67.648634 
L 337.343377 67.648634 
L 337.343377 63.816238 
L 337.343377 63.816238 
L 337.343377 63.816238 
L 460.8 63.816238 
" clip-path="url(#pf6187909e2)" style="fill: none; stroke: #f5deb3; stroke-width: 1.5; stroke-linecap: square"/>
   </g>
   <g id="line2d_18">
    <path d="M 219.331116 293.76 
L 219.331116 289.927604 
L 223.237961 289.927604 
L 223.237961 286.095208 
L 224.206747 286.095208 
L 224.206747 282.262812 
L 224.80313 282.262812 
L 224.80313 278.430416 
L 225.00854 278.430416 
L 225.00854 274.59802 
L 226.184921 274.59802 
L 226.184921 270.765624 
L 229.500813 270.765624 
L 229.500813 266.933228 
L 232.423599 266.933228 
L 232.423599 263.100832 
L 232.574996 263.100832 
L 232.574996 259.268436 
L 232.609118 259.268436 
L 232.609118 255.43604 
L 235.77758 255.43604 
L 235.77758 251.603644 
L 238.747921 251.603644 
L 238.747921 247.771248 
L 240.571005 247.771248 
L 240.571005 243.938851 
L 242.570211 243.938851 
L 242.570211 240.106455 
L 247.482438 240.106455 
L 247.482438 236.274059 
L 280.348106 236.274059 
L 280.348106 232.441663 
L 280.846469 232.441663 
L 280.846469 228.609267 
L 281.809137 228.609267 
L 281.809137 224.776871 
L 281.989934 224.776871 
L 281.989934 220.944475 
L 282.999045 220.944475 
L 282.999045 217.112079 
L 283.145509 217.112079 
L 283.145509 213.279683 
L 283.291402 213.279683 
L 283.291402 209.447287 
L 283.590518 209.447287 
L 283.590518 205.614891 
L 283.627572 205.614891 
L 283.627572 201.782495 
L 283.955234 201.782495 
L 283.955234 197.950099 
L 284.265135 197.950099 
L 284.265135 194.117703 
L 284.344833 194.117703 
L 284.344833 190.285307 
L 284.436898 190.285307 
L 284.436898 186.452911 
L 284.470098 186.452911 
L 284.470098 182.620515 
L 284.692906 182.620515 
L 284.692906 178.788119 
L 284.735609 178.788119 
L 284.735609 174.955723 
L 284.967084 174.955723 
L 284.967084 171.123327 
L 285.126714 171.123327 
L 285.126714 167.290931 
L 285.143708 167.290931 
L 285.143708 163.458535 
L 285.727902 163.458535 
L 285.727902 159.626139 
L 285.747273 159.626139 
L 285.747273 155.793743 
L 288.485842 155.793743 
L 288.485842 151.961347 
L 291.724775 151.961347 
L 291.724775 148.12895 
L 298.851589 148.12895 
L 298.851589 144.296554 
L 303.212304 144.296554 
L 303.212304 140.464158 
L 303.571243 140.464158 
L 303.571243 136.631762 
L 305.030686 136.631762 
L 305.030686 132.799366 
L 315.603006 132.799366 
L 315.603006 128.96697 
L 328.153245 128.96697 
L 328.153245 125.134574 
L 335.368505 125.134574 
L 335.368505 121.302178 
L 335.368505 121.302178 
L 335.368505 121.302178 
L 460.8 121.302178 
" clip-path="url(#pf6187909e2)" style="fill: none; stroke: #f5deb3; stroke-width: 1.5; stroke-linecap: square"/>
   </g>
   <g id="line2d_19"/>
   <g id="line2d_20"/>
   <g id="line2d_21"/>
   <g id="line2d_22"/>
   <g id="line2d_23"/>
   <g id="line2d_24">
    <path d="M 246.927853 293.76 
L 246.927853 289.927604 
L 247.78282 289.927604 
L 247.78282 286.095208 
L 248.364541 286.095208 
L 248.364541 282.262812 
L 248.802257 282.262812 
L 248.802257 278.430416 
L 249.187324 278.430416 
L 249.187324 274.59802 
L 250.50786 274.59802 
L 250.50786 270.765624 
L 250.920806 270.765624 
L 250.920806 266.933228 
L 251.175264 266.933228 
L 251.215536 259.268436 
L 251.693121 259.268436 
L 251.693121 255.43604 
L 252.215977 255.43604 
L 252.215977 251.603644 
L 252.96259 251.603644 
L 252.996095 243.938851 
L 253.348929 243.938851 
L 253.358595 236.274059 
L 253.826259 236.274059 
L 253.826259 232.441663 
L 254.472206 232.441663 
L 254.511519 224.776871 
L 254.653622 224.776871 
L 254.664344 217.112079 
L 255.324324 217.112079 
L 255.324324 213.279683 
L 255.516192 213.279683 
L 255.516192 209.447287 
L 255.910314 209.447287 
L 255.98755 197.950099 
L 256.207789 197.950099 
L 256.207789 194.117703 
L 256.7701 194.117703 
L 256.87366 182.620515 
L 257.140854 182.620515 
L 257.140854 178.788119 
L 257.264422 178.788119 
L 257.264422 174.955723 
L 258.168172 174.955723 
L 258.168172 171.123327 
L 258.526167 171.123327 
L 258.526167 167.290931 
L 258.776267 167.290931 
L 258.776267 163.458535 
L 258.89554 163.458535 
L 258.976048 155.793743 
L 259.21865 155.793743 
L 259.21865 151.961347 
L 260.430579 151.961347 
L 260.440382 144.296554 
L 260.803549 144.296554 
L 260.803549 140.464158 
L 261.384741 140.464158 
L 261.384741 136.631762 
L 262.001666 136.631762 
L 262.04028 128.96697 
L 262.338598 128.96697 
L 262.338598 125.134574 
L 262.658271 125.134574 
L 262.658271 121.302178 
L 266.561088 121.302178 
L 266.561088 117.469782 
L 266.723562 117.469782 
L 266.723562 113.637386 
L 267.12416 113.637386 
L 267.12416 109.80499 
L 267.309475 109.80499 
L 267.317461 102.140198 
L 267.74372 102.140198 
L 267.74372 98.307802 
L 267.875068 98.307802 
L 267.875068 94.475406 
L 268.238432 94.475406 
L 268.238432 90.64301 
L 268.717639 90.64301 
L 268.737656 82.978218 
L 269.39574 82.978218 
L 269.494818 75.313426 
L 269.512948 75.313426 
L 269.512948 71.48103 
L 270.629892 71.48103 
L 270.629892 67.648634 
L 273.504896 67.648634 
L 273.504896 63.816238 
L 279.318397 63.816238 
L 279.318397 59.983842 
L 285.09411 59.983842 
L 285.09411 56.151446 
L 285.519908 56.151446 
L 285.519908 52.31905 
L 287.371146 52.31905 
L 287.410088 44.654257 
L 287.761793 44.654257 
L 287.761793 40.821861 
L 287.932056 40.821861 
L 287.932056 36.989465 
L 288.164906 36.989465 
L 288.164906 33.157069 
L 288.382359 33.157069 
L 288.390062 25.492277 
L 288.635348 25.492277 
L 288.635348 21.659881 
L 291.044872 21.659881 
L 291.044872 17.827485 
L 291.191555 17.827485 
L 291.191555 13.995089 
L 291.744897 13.995089 
L 291.744897 10.162693 
L 292.264983 10.162693 
L 292.264983 6.330297 
L 292.264983 6.330297 
L 460.8 6.330297 
L 460.8 6.330297 
" clip-path="url(#pf6187909e2)" style="fill: none; stroke: #f5deb3; stroke-width: 1.5; stroke-linecap: square"/>
   </g>
   <g id="line2d_25"/>
   <g id="line2d_26">
    <path d="M 250.211283 293.76 
L 250.211283 289.927604 
L 261.142621 289.927604 
L 261.142621 286.095208 
L 261.19801 286.095208 
L 261.19801 282.262812 
L 264.373714 282.262812 
L 264.373714 278.430416 
L 266.086182 278.430416 
L 266.086182 274.59802 
L 266.502502 274.59802 
L 266.502502 270.765624 
L 267.387354 270.765624 
L 267.387354 266.933228 
L 267.509797 266.933228 
L 267.509797 263.100832 
L 267.54381 263.100832 
L 267.54381 259.268436 
L 267.836885 259.268436 
L 267.836885 255.43604 
L 267.908605 255.43604 
L 267.908605 251.603644 
L 268.295937 251.603644 
L 268.295937 247.771248 
L 268.365496 247.771248 
L 268.365496 243.938851 
L 268.406962 243.938851 
L 268.406962 240.106455 
L 268.452408 240.106455 
L 268.452408 236.274059 
L 268.727427 236.274059 
L 268.727427 232.441663 
L 268.804266 232.441663 
L 268.804266 228.609267 
L 268.872917 228.609267 
L 268.872917 224.776871 
L 269.307158 224.776871 
L 269.307158 220.944475 
L 269.758184 220.944475 
L 269.758184 217.112079 
L 270.123634 217.112079 
L 270.123634 213.279683 
L 270.129534 213.279683 
L 270.129534 209.447287 
L 270.176685 209.447287 
L 270.176685 205.614891 
L 270.818908 205.614891 
L 270.818908 201.782495 
L 270.882017 201.782495 
L 270.882017 197.950099 
L 270.917602 197.950099 
L 270.917602 194.117703 
L 270.999629 194.117703 
L 270.999629 190.285307 
L 271.750954 190.285307 
L 271.750954 186.452911 
L 272.014787 186.452911 
L 272.014787 182.620515 
L 273.267837 182.620515 
L 273.267837 178.788119 
L 273.585034 178.788119 
L 273.585034 174.955723 
L 274.263018 174.955723 
L 274.263018 171.123327 
L 275.713036 171.123327 
L 275.713036 167.290931 
L 275.774438 167.290931 
L 275.774438 163.458535 
L 279.532624 163.458535 
L 279.532624 159.626139 
L 281.939246 159.626139 
L 281.939246 155.793743 
L 287.394518 155.793743 
L 287.394518 151.961347 
L 290.815411 151.961347 
L 290.815411 148.12895 
L 292.325489 148.12895 
L 292.325489 144.296554 
L 293.333538 144.296554 
L 293.333538 140.464158 
L 293.389026 140.464158 
L 293.389026 136.631762 
L 294.337743 136.631762 
L 294.337743 132.799366 
L 294.391123 132.799366 
L 294.391123 128.96697 
L 294.563891 128.96697 
L 294.563891 125.134574 
L 295.626439 125.134574 
L 295.626439 121.302178 
L 300.602844 121.302178 
L 300.602844 117.469782 
L 300.864905 117.469782 
L 300.864905 113.637386 
L 301.246123 113.637386 
L 301.246123 109.80499 
L 306.264247 109.80499 
L 306.264247 105.972594 
L 306.782237 105.972594 
L 306.782237 102.140198 
L 307.281239 102.140198 
L 307.281239 98.307802 
L 307.692501 98.307802 
L 307.692501 94.475406 
L 315.651424 94.475406 
L 315.651424 90.64301 
L 321.009751 90.64301 
L 321.009751 86.810614 
L 343.085584 86.810614 
L 343.085584 82.978218 
L 346.217464 82.978218 
L 346.217464 79.145822 
L 346.95917 79.145822 
L 346.95917 75.313426 
L 348.824422 75.313426 
L 348.824422 71.48103 
L 354.331355 71.48103 
L 354.331355 67.648634 
L 354.331355 67.648634 
L 354.331355 67.648634 
L 460.8 67.648634 
" clip-path="url(#pf6187909e2)" style="fill: none; stroke: #f5deb3; stroke-width: 1.5; stroke-linecap: square"/>
   </g>
   <g id="line2d_27">
    <path d="M 230.580852 293.76 
L 230.580852 289.927604 
L 230.737594 289.927604 
L 230.737594 286.095208 
L 231.002471 286.095208 
L 231.002471 282.262812 
L 231.520487 282.262812 
L 231.520487 278.430416 
L 232.077852 278.430416 
L 232.077852 274.59802 
L 234.725894 274.59802 
L 234.725894 270.765624 
L 236.11677 270.765624 
L 236.11677 266.933228 
L 237.013259 266.933228 
L 237.013259 263.100832 
L 239.265183 263.100832 
L 239.265183 259.268436 
L 239.450495 259.268436 
L 239.450495 255.43604 
L 243.283465 255.43604 
L 243.283465 251.603644 
L 243.826757 251.603644 
L 243.826757 247.771248 
L 245.23428 247.771248 
L 245.23428 243.938851 
L 246.384333 243.938851 
L 246.384333 240.106455 
L 247.339567 240.106455 
L 247.339567 236.274059 
L 285.309525 236.274059 
L 285.309525 232.441663 
L 287.778422 232.441663 
L 287.778422 228.609267 
L 288.259012 228.609267 
L 288.259012 224.776871 
L 288.270097 224.776871 
L 288.270097 220.944475 
L 288.443502 220.944475 
L 288.443502 217.112079 
L 288.564528 217.112079 
L 288.564528 213.279683 
L 289.116426 213.279683 
L 289.116426 209.447287 
L 289.534417 209.447287 
L 289.534417 205.614891 
L 289.709477 205.614891 
L 289.709477 201.782495 
L 289.832223 201.782495 
L 289.832223 197.950099 
L 290.451413 197.950099 
L 290.451413 194.117703 
L 290.925112 194.117703 
L 290.925112 190.285307 
L 291.549419 190.285307 
L 291.549419 186.452911 
L 291.638806 186.452911 
L 291.638806 182.620515 
L 293.08644 182.620515 
L 293.08644 178.788119 
L 299.708969 178.788119 
L 299.708969 174.955723 
L 314.0373 174.955723 
L 314.0373 171.123327 
L 316.243733 171.123327 
L 316.243733 167.290931 
L 316.975964 167.290931 
L 316.975964 163.458535 
L 318.444739 163.458535 
L 318.444739 159.626139 
L 319.27205 159.626139 
L 319.27205 155.793743 
L 319.356663 155.793743 
L 319.356663 151.961347 
L 320.191339 151.961347 
L 320.191339 148.12895 
L 320.411225 148.12895 
L 320.411225 144.296554 
L 320.586796 144.296554 
L 320.586796 140.464158 
L 320.667047 140.464158 
L 320.667047 136.631762 
L 320.669261 136.631762 
L 320.669261 132.799366 
L 324.822717 132.799366 
L 324.822717 128.96697 
L 325.041207 128.96697 
L 325.041207 125.134574 
L 325.505468 125.134574 
L 325.505468 121.302178 
L 329.141424 121.302178 
L 329.141424 117.469782 
L 329.141424 117.469782 
L 329.141424 117.469782 
L 460.8 117.469782 
" clip-path="url(#pf6187909e2)" style="fill: none; stroke: #f5deb3; stroke-width: 1.5; stroke-linecap: square"/>
   </g>
   <g id="line2d_28">
    <path d="M 233.924748 293.76 
L 233.970764 286.095208 
L 234.060854 286.095208 
L 234.060854 282.262812 
L 234.275464 282.262812 
L 234.31246 274.59802 
L 234.494984 274.59802 
L 234.596572 266.933228 
L 235.021885 266.933228 
L 235.100248 259.268436 
L 235.134458 259.268436 
L 235.134458 255.43604 
L 235.600709 255.43604 
L 235.600709 251.603644 
L 235.848942 251.603644 
L 235.848942 247.771248 
L 236.204392 247.771248 
L 236.254329 236.274059 
L 236.358574 236.274059 
L 236.358574 232.441663 
L 236.55657 232.441663 
L 236.55657 228.609267 
L 236.917701 228.609267 
L 236.917701 224.776871 
L 237.236367 224.776871 
L 237.34272 217.112079 
L 237.869494 217.112079 
L 237.869494 213.279683 
L 238.073751 213.279683 
L 238.073751 209.447287 
L 238.407292 209.447287 
L 238.407292 205.614891 
L 238.637245 205.614891 
L 238.637245 201.782495 
L 239.015552 201.782495 
L 239.015552 197.950099 
L 239.844345 197.950099 
L 239.871475 190.285307 
L 240.122427 190.285307 
L 240.214907 182.620515 
L 240.681617 182.620515 
L 240.681617 178.788119 
L 241.318885 178.788119 
L 241.347075 171.123327 
L 241.753677 171.123327 
L 241.806572 155.793743 
L 242.450219 155.793743 
L 242.450219 151.961347 
L 242.61415 151.961347 
L 242.61415 148.12895 
L 242.872609 148.12895 
L 242.872609 144.296554 
L 243.086637 144.296554 
L 243.086637 140.464158 
L 243.374809 140.464158 
L 243.383097 132.799366 
L 244.11606 132.799366 
L 244.11606 128.96697 
L 244.47377 128.96697 
L 244.47377 125.134574 
L 245.411118 125.134574 
L 245.411118 121.302178 
L 250.667397 121.302178 
L 250.667397 117.469782 
L 250.970309 117.469782 
L 250.970309 113.637386 
L 251.657025 113.637386 
L 251.657025 109.80499 
L 251.969042 109.80499 
L 251.969042 105.972594 
L 252.099568 105.972594 
L 252.099568 102.140198 
L 252.619334 102.140198 
L 252.619334 98.307802 
L 252.80264 98.307802 
L 252.80264 94.475406 
L 253.119118 94.475406 
L 253.119118 90.64301 
L 253.574323 90.64301 
L 253.574323 86.810614 
L 253.747842 86.810614 
L 253.747842 82.978218 
L 254.546156 82.978218 
L 254.546156 79.145822 
L 255.880377 79.145822 
L 255.979546 71.48103 
L 258.383297 71.48103 
L 258.383297 67.648634 
L 259.01103 67.648634 
L 259.01103 63.816238 
L 261.6562 63.816238 
L 261.6562 59.983842 
L 262.542739 59.983842 
L 262.542739 56.151446 
L 266.185984 56.151446 
L 266.185984 52.31905 
L 266.777814 52.31905 
L 266.777814 48.486653 
L 267.467335 48.486653 
L 267.571267 36.989465 
L 267.857134 36.989465 
L 267.953559 29.324673 
L 268.948004 29.324673 
L 268.987227 21.659881 
L 270.355245 21.659881 
L 270.355245 17.827485 
L 271.143464 17.827485 
L 271.143464 13.995089 
L 272.042979 13.995089 
L 272.042979 10.162693 
L 272.69797 10.162693 
L 272.69797 6.330297 
L 272.69797 6.330297 
L 460.8 6.330297 
L 460.8 6.330297 
" clip-path="url(#pf6187909e2)" style="fill: none; stroke: #f5deb3; stroke-width: 1.5; stroke-linecap: square"/>
   </g>
   <g id="line2d_29"/>
   <g id="line2d_30"/>
   <g id="matplotlib.axis_1">
    <g id="xtick_1">
     <g id="line2d_31">
      <path d="M 62.208 293.76 
L 62.208 3.456 
" clip-path="url(#pf6187909e2)" style="fill: none; stroke: #b0b0b0; stroke-width: 0.8; stroke-linecap: square"/>
     </g>
     <g id="line2d_32">
      <defs>
       <path id="m46cc58e6fb" d="M 0 0 
L 0 3.5 
" style="stroke: #000000; stroke-width: 0.8"/>
      </defs>
      <g>
       <use xlink:href="#m46cc58e6fb" x="62.208" y="293.76" style="stroke: #000000; stroke-width: 0.8"/>
      </g>
     </g>
     <g id="text_1">
      <!-- 0 -->
      <g transform="translate(55.8455 315.956875)scale(0.2 -0.2)">
       <defs>
        <path id="DejaVuSans-30" d="M 2034 4250 
Q 1547 4250 1301 3770 
Q 1056 3291 1056 2328 
Q 1056 1369 1301 889 
Q 1547 409 2034 409 
Q 2525 409 2770 889 
Q 3016 1369 3016 2328 
Q 3016 3291 2770 3770 
Q 2525 4250 2034 4250 
z
M 2034 4750 
Q 2819 4750 3233 4129 
Q 3647 3509 3647 2328 
Q 3647 1150 3233 529 
Q 2819 -91 2034 -91 
Q 1250 -91 836 529 
Q 422 1150 422 2328 
Q 422 3509 836 4129 
Q 1250 4750 2034 4750 
z
" transform="scale(0.015625)"/>
       </defs>
       <use xlink:href="#DejaVuSans-30"/>
      </g>
     </g>
    </g>
    <g id="xtick_2">
     <g id="line2d_33">
      <path d="M 181.446916 293.76 
L 181.446916 3.456 
" clip-path="url(#pf6187909e2)" style="fill: none; stroke: #b0b0b0; stroke-width: 0.8; stroke-linecap: square"/>
     </g>
     <g id="line2d_34">
      <g>
       <use xlink:href="#m46cc58e6fb" x="181.446916" y="293.76" style="stroke: #000000; stroke-width: 0.8"/>
      </g>
     </g>
     <g id="text_2">
      <!-- 2 -->
      <g transform="translate(175.084416 315.956875)scale(0.2 -0.2)">
       <defs>
        <path id="DejaVuSans-32" d="M 1228 531 
L 3431 531 
L 3431 0 
L 469 0 
L 469 531 
Q 828 903 1448 1529 
Q 2069 2156 2228 2338 
Q 2531 2678 2651 2914 
Q 2772 3150 2772 3378 
Q 2772 3750 2511 3984 
Q 2250 4219 1831 4219 
Q 1534 4219 1204 4116 
Q 875 4013 500 3803 
L 500 4441 
Q 881 4594 1212 4672 
Q 1544 4750 1819 4750 
Q 2544 4750 2975 4387 
Q 3406 4025 3406 3419 
Q 3406 3131 3298 2873 
Q 3191 2616 2906 2266 
Q 2828 2175 2409 1742 
Q 1991 1309 1228 531 
z
" transform="scale(0.015625)"/>
       </defs>
       <use xlink:href="#DejaVuSans-32"/>
      </g>
     </g>
    </g>
    <g id="xtick_3">
     <g id="line2d_35">
      <path d="M 300.685833 293.76 
L 300.685833 3.456 
" clip-path="url(#pf6187909e2)" style="fill: none; stroke: #b0b0b0; stroke-width: 0.8; stroke-linecap: square"/>
     </g>
     <g id="line2d_36">
      <g>
       <use xlink:href="#m46cc58e6fb" x="300.685833" y="293.76" style="stroke: #000000; stroke-width: 0.8"/>
      </g>
     </g>
     <g id="text_3">
      <!-- 4 -->
      <g transform="translate(294.323333 315.956875)scale(0.2 -0.2)">
       <defs>
        <path id="DejaVuSans-34" d="M 2419 4116 
L 825 1625 
L 2419 1625 
L 2419 4116 
z
M 2253 4666 
L 3047 4666 
L 3047 1625 
L 3713 1625 
L 3713 1100 
L 3047 1100 
L 3047 0 
L 2419 0 
L 2419 1100 
L 313 1100 
L 313 1709 
L 2253 4666 
z
" transform="scale(0.015625)"/>
       </defs>
       <use xlink:href="#DejaVuSans-34"/>
      </g>
     </g>
    </g>
    <g id="xtick_4">
     <g id="line2d_37">
      <path d="M 419.924749 293.76 
L 419.924749 3.456 
" clip-path="url(#pf6187909e2)" style="fill: none; stroke: #b0b0b0; stroke-width: 0.8; stroke-linecap: square"/>
     </g>
     <g id="line2d_38">
      <g>
       <use xlink:href="#m46cc58e6fb" x="419.924749" y="293.76" style="stroke: #000000; stroke-width: 0.8"/>
      </g>
     </g>
     <g id="text_4">
      <!-- 6 -->
      <g transform="translate(413.562249 315.956875)scale(0.2 -0.2)">
       <defs>
        <path id="DejaVuSans-36" d="M 2113 2584 
Q 1688 2584 1439 2293 
Q 1191 2003 1191 1497 
Q 1191 994 1439 701 
Q 1688 409 2113 409 
Q 2538 409 2786 701 
Q 3034 994 3034 1497 
Q 3034 2003 2786 2293 
Q 2538 2584 2113 2584 
z
M 3366 4563 
L 3366 3988 
Q 3128 4100 2886 4159 
Q 2644 4219 2406 4219 
Q 1781 4219 1451 3797 
Q 1122 3375 1075 2522 
Q 1259 2794 1537 2939 
Q 1816 3084 2150 3084 
Q 2853 3084 3261 2657 
Q 3669 2231 3669 1497 
Q 3669 778 3244 343 
Q 2819 -91 2113 -91 
Q 1303 -91 875 529 
Q 447 1150 447 2328 
Q 447 3434 972 4092 
Q 1497 4750 2381 4750 
Q 2619 4750 2861 4703 
Q 3103 4656 3366 4563 
z
" transform="scale(0.015625)"/>
       </defs>
       <use xlink:href="#DejaVuSans-36"/>
      </g>
     </g>
    </g>
    <g id="text_5">
     <!-- log10 of FEvals / DIM -->
     <g transform="translate(156.430563 339.313125)scale(0.2 -0.2)">
      <defs>
       <path id="DejaVuSans-6c" d="M 603 4863 
L 1178 4863 
L 1178 0 
L 603 0 
L 603 4863 
z
" transform="scale(0.015625)"/>
       <path id="DejaVuSans-6f" d="M 1959 3097 
Q 1497 3097 1228 2736 
Q 959 2375 959 1747 
Q 959 1119 1226 758 
Q 1494 397 1959 397 
Q 2419 397 2687 759 
Q 2956 1122 2956 1747 
Q 2956 2369 2687 2733 
Q 2419 3097 1959 3097 
z
M 1959 3584 
Q 2709 3584 3137 3096 
Q 3566 2609 3566 1747 
Q 3566 888 3137 398 
Q 2709 -91 1959 -91 
Q 1206 -91 779 398 
Q 353 888 353 1747 
Q 353 2609 779 3096 
Q 1206 3584 1959 3584 
z
" transform="scale(0.015625)"/>
       <path id="DejaVuSans-67" d="M 2906 1791 
Q 2906 2416 2648 2759 
Q 2391 3103 1925 3103 
Q 1463 3103 1205 2759 
Q 947 2416 947 1791 
Q 947 1169 1205 825 
Q 1463 481 1925 481 
Q 2391 481 2648 825 
Q 2906 1169 2906 1791 
z
M 3481 434 
Q 3481 -459 3084 -895 
Q 2688 -1331 1869 -1331 
Q 1566 -1331 1297 -1286 
Q 1028 -1241 775 -1147 
L 775 -588 
Q 1028 -725 1275 -790 
Q 1522 -856 1778 -856 
Q 2344 -856 2625 -561 
Q 2906 -266 2906 331 
L 2906 616 
Q 2728 306 2450 153 
Q 2172 0 1784 0 
Q 1141 0 747 490 
Q 353 981 353 1791 
Q 353 2603 747 3093 
Q 1141 3584 1784 3584 
Q 2172 3584 2450 3431 
Q 2728 3278 2906 2969 
L 2906 3500 
L 3481 3500 
L 3481 434 
z
" transform="scale(0.015625)"/>
       <path id="DejaVuSans-31" d="M 794 531 
L 1825 531 
L 1825 4091 
L 703 3866 
L 703 4441 
L 1819 4666 
L 2450 4666 
L 2450 531 
L 3481 531 
L 3481 0 
L 794 0 
L 794 531 
z
" transform="scale(0.015625)"/>
       <path id="DejaVuSans-20" transform="scale(0.015625)"/>
       <path id="DejaVuSans-66" d="M 2375 4863 
L 2375 4384 
L 1825 4384 
Q 1516 4384 1395 4259 
Q 1275 4134 1275 3809 
L 1275 3500 
L 2222 3500 
L 2222 3053 
L 1275 3053 
L 1275 0 
L 697 0 
L 697 3053 
L 147 3053 
L 147 3500 
L 697 3500 
L 697 3744 
Q 697 4328 969 4595 
Q 1241 4863 1831 4863 
L 2375 4863 
z
" transform="scale(0.015625)"/>
       <path id="DejaVuSans-46" d="M 628 4666 
L 3309 4666 
L 3309 4134 
L 1259 4134 
L 1259 2759 
L 3109 2759 
L 3109 2228 
L 1259 2228 
L 1259 0 
L 628 0 
L 628 4666 
z
" transform="scale(0.015625)"/>
       <path id="DejaVuSans-45" d="M 628 4666 
L 3578 4666 
L 3578 4134 
L 1259 4134 
L 1259 2753 
L 3481 2753 
L 3481 2222 
L 1259 2222 
L 1259 531 
L 3634 531 
L 3634 0 
L 628 0 
L 628 4666 
z
" transform="scale(0.015625)"/>
       <path id="DejaVuSans-76" d="M 191 3500 
L 800 3500 
L 1894 563 
L 2988 3500 
L 3597 3500 
L 2284 0 
L 1503 0 
L 191 3500 
z
" transform="scale(0.015625)"/>
       <path id="DejaVuSans-61" d="M 2194 1759 
Q 1497 1759 1228 1600 
Q 959 1441 959 1056 
Q 959 750 1161 570 
Q 1363 391 1709 391 
Q 2188 391 2477 730 
Q 2766 1069 2766 1631 
L 2766 1759 
L 2194 1759 
z
M 3341 1997 
L 3341 0 
L 2766 0 
L 2766 531 
Q 2569 213 2275 61 
Q 1981 -91 1556 -91 
Q 1019 -91 701 211 
Q 384 513 384 1019 
Q 384 1609 779 1909 
Q 1175 2209 1959 2209 
L 2766 2209 
L 2766 2266 
Q 2766 2663 2505 2880 
Q 2244 3097 1772 3097 
Q 1472 3097 1187 3025 
Q 903 2953 641 2809 
L 641 3341 
Q 956 3463 1253 3523 
Q 1550 3584 1831 3584 
Q 2591 3584 2966 3190 
Q 3341 2797 3341 1997 
z
" transform="scale(0.015625)"/>
       <path id="DejaVuSans-73" d="M 2834 3397 
L 2834 2853 
Q 2591 2978 2328 3040 
Q 2066 3103 1784 3103 
Q 1356 3103 1142 2972 
Q 928 2841 928 2578 
Q 928 2378 1081 2264 
Q 1234 2150 1697 2047 
L 1894 2003 
Q 2506 1872 2764 1633 
Q 3022 1394 3022 966 
Q 3022 478 2636 193 
Q 2250 -91 1575 -91 
Q 1294 -91 989 -36 
Q 684 19 347 128 
L 347 722 
Q 666 556 975 473 
Q 1284 391 1588 391 
Q 1994 391 2212 530 
Q 2431 669 2431 922 
Q 2431 1156 2273 1281 
Q 2116 1406 1581 1522 
L 1381 1569 
Q 847 1681 609 1914 
Q 372 2147 372 2553 
Q 372 3047 722 3315 
Q 1072 3584 1716 3584 
Q 2034 3584 2315 3537 
Q 2597 3491 2834 3397 
z
" transform="scale(0.015625)"/>
       <path id="DejaVuSans-2f" d="M 1625 4666 
L 2156 4666 
L 531 -594 
L 0 -594 
L 1625 4666 
z
" transform="scale(0.015625)"/>
       <path id="DejaVuSans-44" d="M 1259 4147 
L 1259 519 
L 2022 519 
Q 2988 519 3436 956 
Q 3884 1394 3884 2338 
Q 3884 3275 3436 3711 
Q 2988 4147 2022 4147 
L 1259 4147 
z
M 628 4666 
L 1925 4666 
Q 3281 4666 3915 4102 
Q 4550 3538 4550 2338 
Q 4550 1131 3912 565 
Q 3275 0 1925 0 
L 628 0 
L 628 4666 
z
" transform="scale(0.015625)"/>
       <path id="DejaVuSans-49" d="M 628 4666 
L 1259 4666 
L 1259 0 
L 628 0 
L 628 4666 
z
" transform="scale(0.015625)"/>
       <path id="DejaVuSans-4d" d="M 628 4666 
L 1569 4666 
L 2759 1491 
L 3956 4666 
L 4897 4666 
L 4897 0 
L 4281 0 
L 4281 4097 
L 3078 897 
L 2444 897 
L 1241 4097 
L 1241 0 
L 628 0 
L 628 4666 
z
" transform="scale(0.015625)"/>
      </defs>
      <use xlink:href="#DejaVuSans-6c"/>
      <use xlink:href="#DejaVuSans-6f" x="27.783203"/>
      <use xlink:href="#DejaVuSans-67" x="88.964844"/>
      <use xlink:href="#DejaVuSans-31" x="152.441406"/>
      <use xlink:href="#DejaVuSans-30" x="216.064453"/>
      <use xlink:href="#DejaVuSans-20" x="279.6875"/>
      <use xlink:href="#DejaVuSans-6f" x="311.474609"/>
      <use xlink:href="#DejaVuSans-66" x="372.65625"/>
      <use xlink:href="#DejaVuSans-20" x="407.861328"/>
      <use xlink:href="#DejaVuSans-46" x="439.648438"/>
      <use xlink:href="#DejaVuSans-45" x="497.167969"/>
      <use xlink:href="#DejaVuSans-76" x="560.351562"/>
      <use xlink:href="#DejaVuSans-61" x="619.53125"/>
      <use xlink:href="#DejaVuSans-6c" x="680.810547"/>
      <use xlink:href="#DejaVuSans-73" x="708.59375"/>
      <use xlink:href="#DejaVuSans-20" x="760.693359"/>
      <use xlink:href="#DejaVuSans-2f" x="792.480469"/>
      <use xlink:href="#DejaVuSans-20" x="826.171875"/>
      <use xlink:href="#DejaVuSans-44" x="857.958984"/>
      <use xlink:href="#DejaVuSans-49" x="934.960938"/>
      <use xlink:href="#DejaVuSans-4d" x="964.453125"/>
     </g>
    </g>
   </g>
   <g id="matplotlib.axis_2">
    <g id="ytick_1">
     <g id="line2d_39">
      <path d="M 62.208 293.76 
L 460.8 293.76 
" clip-path="url(#pf6187909e2)" style="fill: none; stroke: #b0b0b0; stroke-width: 0.8; stroke-linecap: square"/>
     </g>
     <g id="line2d_40">
      <defs>
       <path id="mbb7177db3a" d="M 0 0 
L -3.5 0 
" style="stroke: #000000; stroke-width: 0.8"/>
      </defs>
      <g>
       <use xlink:href="#mbb7177db3a" x="62.208" y="293.76" style="stroke: #000000; stroke-width: 0.8"/>
      </g>
     </g>
     <g id="text_6">
      <!-- 0.0 -->
      <g transform="translate(29.763 299.83875)scale(0.16 -0.16)">
       <defs>
        <path id="DejaVuSans-2e" d="M 684 794 
L 1344 794 
L 1344 0 
L 684 0 
L 684 794 
z
" transform="scale(0.015625)"/>
       </defs>
       <use xlink:href="#DejaVuSans-30"/>
       <use xlink:href="#DejaVuSans-2e" x="63.623047"/>
       <use xlink:href="#DejaVuSans-30" x="95.410156"/>
      </g>
     </g>
    </g>
    <g id="ytick_2">
     <g id="line2d_41">
      <path d="M 62.208 236.274059 
L 460.8 236.274059 
" clip-path="url(#pf6187909e2)" style="fill: none; stroke: #b0b0b0; stroke-width: 0.8; stroke-linecap: square"/>
     </g>
     <g id="line2d_42">
      <g>
       <use xlink:href="#mbb7177db3a" x="62.208" y="236.274059" style="stroke: #000000; stroke-width: 0.8"/>
      </g>
     </g>
     <g id="text_7">
      <!-- 0.2 -->
      <g transform="translate(29.763 242.352809)scale(0.16 -0.16)">
       <use xlink:href="#DejaVuSans-30"/>
       <use xlink:href="#DejaVuSans-2e" x="63.623047"/>
       <use xlink:href="#DejaVuSans-32" x="95.410156"/>
      </g>
     </g>
    </g>
    <g id="ytick_3">
     <g id="line2d_43">
      <path d="M 62.208 178.788119 
L 460.8 178.788119 
" clip-path="url(#pf6187909e2)" style="fill: none; stroke: #b0b0b0; stroke-width: 0.8; stroke-linecap: square"/>
     </g>
     <g id="line2d_44">
      <g>
       <use xlink:href="#mbb7177db3a" x="62.208" y="178.788119" style="stroke: #000000; stroke-width: 0.8"/>
      </g>
     </g>
     <g id="text_8">
      <!-- 0.4 -->
      <g transform="translate(29.763 184.866869)scale(0.16 -0.16)">
       <use xlink:href="#DejaVuSans-30"/>
       <use xlink:href="#DejaVuSans-2e" x="63.623047"/>
       <use xlink:href="#DejaVuSans-34" x="95.410156"/>
      </g>
     </g>
    </g>
    <g id="ytick_4">
     <g id="line2d_45">
      <path d="M 62.208 121.302178 
L 460.8 121.302178 
" clip-path="url(#pf6187909e2)" style="fill: none; stroke: #b0b0b0; stroke-width: 0.8; stroke-linecap: square"/>
     </g>
     <g id="line2d_46">
      <g>
       <use xlink:href="#mbb7177db3a" x="62.208" y="121.302178" style="stroke: #000000; stroke-width: 0.8"/>
      </g>
     </g>
     <g id="text_9">
      <!-- 0.6 -->
      <g transform="translate(29.763 127.380928)scale(0.16 -0.16)">
       <use xlink:href="#DejaVuSans-30"/>
       <use xlink:href="#DejaVuSans-2e" x="63.623047"/>
       <use xlink:href="#DejaVuSans-36" x="95.410156"/>
      </g>
     </g>
    </g>
    <g id="ytick_5">
     <g id="line2d_47">
      <path d="M 62.208 63.816238 
L 460.8 63.816238 
" clip-path="url(#pf6187909e2)" style="fill: none; stroke: #b0b0b0; stroke-width: 0.8; stroke-linecap: square"/>
     </g>
     <g id="line2d_48">
      <g>
       <use xlink:href="#mbb7177db3a" x="62.208" y="63.816238" style="stroke: #000000; stroke-width: 0.8"/>
      </g>
     </g>
     <g id="text_10">
      <!-- 0.8 -->
      <g transform="translate(29.763 69.894988)scale(0.16 -0.16)">
       <defs>
        <path id="DejaVuSans-38" d="M 2034 2216 
Q 1584 2216 1326 1975 
Q 1069 1734 1069 1313 
Q 1069 891 1326 650 
Q 1584 409 2034 409 
Q 2484 409 2743 651 
Q 3003 894 3003 1313 
Q 3003 1734 2745 1975 
Q 2488 2216 2034 2216 
z
M 1403 2484 
Q 997 2584 770 2862 
Q 544 3141 544 3541 
Q 544 4100 942 4425 
Q 1341 4750 2034 4750 
Q 2731 4750 3128 4425 
Q 3525 4100 3525 3541 
Q 3525 3141 3298 2862 
Q 3072 2584 2669 2484 
Q 3125 2378 3379 2068 
Q 3634 1759 3634 1313 
Q 3634 634 3220 271 
Q 2806 -91 2034 -91 
Q 1263 -91 848 271 
Q 434 634 434 1313 
Q 434 1759 690 2068 
Q 947 2378 1403 2484 
z
M 1172 3481 
Q 1172 3119 1398 2916 
Q 1625 2713 2034 2713 
Q 2441 2713 2670 2916 
Q 2900 3119 2900 3481 
Q 2900 3844 2670 4047 
Q 2441 4250 2034 4250 
Q 1625 4250 1398 4047 
Q 1172 3844 1172 3481 
z
" transform="scale(0.015625)"/>
       </defs>
       <use xlink:href="#DejaVuSans-30"/>
       <use xlink:href="#DejaVuSans-2e" x="63.623047"/>
       <use xlink:href="#DejaVuSans-38" x="95.410156"/>
      </g>
     </g>
    </g>
    <g id="ytick_6">
     <g id="line2d_49">
      <path d="M 62.208 6.330297 
L 460.8 6.330297 
" clip-path="url(#pf6187909e2)" style="fill: none; stroke: #b0b0b0; stroke-width: 0.8; stroke-linecap: square"/>
     </g>
     <g id="line2d_50">
      <g>
       <use xlink:href="#mbb7177db3a" x="62.208" y="6.330297" style="stroke: #000000; stroke-width: 0.8"/>
      </g>
     </g>
     <g id="text_11">
      <!-- 1.0 -->
      <g transform="translate(29.763 12.409047)scale(0.16 -0.16)">
       <use xlink:href="#DejaVuSans-31"/>
       <use xlink:href="#DejaVuSans-2e" x="63.623047"/>
       <use xlink:href="#DejaVuSans-30" x="95.410156"/>
      </g>
     </g>
    </g>
    <g id="text_12">
     <!-- proportion of trials -->
     <g transform="translate(21.603625 241.61425)rotate(-90)scale(0.2 -0.2)">
      <defs>
       <path id="DejaVuSans-70" d="M 1159 525 
L 1159 -1331 
L 581 -1331 
L 581 3500 
L 1159 3500 
L 1159 2969 
Q 1341 3281 1617 3432 
Q 1894 3584 2278 3584 
Q 2916 3584 3314 3078 
Q 3713 2572 3713 1747 
Q 3713 922 3314 415 
Q 2916 -91 2278 -91 
Q 1894 -91 1617 61 
Q 1341 213 1159 525 
z
M 3116 1747 
Q 3116 2381 2855 2742 
Q 2594 3103 2138 3103 
Q 1681 3103 1420 2742 
Q 1159 2381 1159 1747 
Q 1159 1113 1420 752 
Q 1681 391 2138 391 
Q 2594 391 2855 752 
Q 3116 1113 3116 1747 
z
" transform="scale(0.015625)"/>
       <path id="DejaVuSans-72" d="M 2631 2963 
Q 2534 3019 2420 3045 
Q 2306 3072 2169 3072 
Q 1681 3072 1420 2755 
Q 1159 2438 1159 1844 
L 1159 0 
L 581 0 
L 581 3500 
L 1159 3500 
L 1159 2956 
Q 1341 3275 1631 3429 
Q 1922 3584 2338 3584 
Q 2397 3584 2469 3576 
Q 2541 3569 2628 3553 
L 2631 2963 
z
" transform="scale(0.015625)"/>
       <path id="DejaVuSans-74" d="M 1172 4494 
L 1172 3500 
L 2356 3500 
L 2356 3053 
L 1172 3053 
L 1172 1153 
Q 1172 725 1289 603 
Q 1406 481 1766 481 
L 2356 481 
L 2356 0 
L 1766 0 
Q 1100 0 847 248 
Q 594 497 594 1153 
L 594 3053 
L 172 3053 
L 172 3500 
L 594 3500 
L 594 4494 
L 1172 4494 
z
" transform="scale(0.015625)"/>
       <path id="DejaVuSans-69" d="M 603 3500 
L 1178 3500 
L 1178 0 
L 603 0 
L 603 3500 
z
M 603 4863 
L 1178 4863 
L 1178 4134 
L 603 4134 
L 603 4863 
z
" transform="scale(0.015625)"/>
       <path id="DejaVuSans-6e" d="M 3513 2113 
L 3513 0 
L 2938 0 
L 2938 2094 
Q 2938 2591 2744 2837 
Q 2550 3084 2163 3084 
Q 1697 3084 1428 2787 
Q 1159 2491 1159 1978 
L 1159 0 
L 581 0 
L 581 3500 
L 1159 3500 
L 1159 2956 
Q 1366 3272 1645 3428 
Q 1925 3584 2291 3584 
Q 2894 3584 3203 3211 
Q 3513 2838 3513 2113 
z
" transform="scale(0.015625)"/>
      </defs>
      <use xlink:href="#DejaVuSans-70"/>
      <use xlink:href="#DejaVuSans-72" x="63.476562"/>
      <use xlink:href="#DejaVuSans-6f" x="102.339844"/>
      <use xlink:href="#DejaVuSans-70" x="163.521484"/>
      <use xlink:href="#DejaVuSans-6f" x="226.998047"/>
      <use xlink:href="#DejaVuSans-72" x="288.179688"/>
      <use xlink:href="#DejaVuSans-74" x="329.292969"/>
      <use xlink:href="#DejaVuSans-69" x="368.501953"/>
      <use xlink:href="#DejaVuSans-6f" x="396.285156"/>
      <use xlink:href="#DejaVuSans-6e" x="457.466797"/>
      <use xlink:href="#DejaVuSans-20" x="520.845703"/>
      <use xlink:href="#DejaVuSans-6f" x="552.632812"/>
      <use xlink:href="#DejaVuSans-66" x="613.814453"/>
      <use xlink:href="#DejaVuSans-20" x="649.019531"/>
      <use xlink:href="#DejaVuSans-74" x="680.806641"/>
      <use xlink:href="#DejaVuSans-72" x="720.015625"/>
      <use xlink:href="#DejaVuSans-69" x="761.128906"/>
      <use xlink:href="#DejaVuSans-61" x="788.912109"/>
      <use xlink:href="#DejaVuSans-6c" x="850.191406"/>
      <use xlink:href="#DejaVuSans-73" x="877.974609"/>
     </g>
    </g>
   </g>
   <g id="line2d_51">
    <path d="M 199.581204 293.76 
L 199.58763 282.262812 
L 199.734983 282.262812 
L 199.773285 236.274059 
L 200.798861 236.274059 
L 200.811121 228.609267 
L 200.933399 228.609267 
L 200.951691 220.944475 
L 201.085439 220.944475 
L 201.121797 205.614891 
L 201.206432 205.614891 
L 201.230563 194.117703 
L 201.808955 194.117703 
L 201.867855 182.620515 
L 201.979397 182.620515 
L 202.032066 174.955723 
L 202.119609 174.955723 
L 202.119609 171.123327 
L 202.270653 171.123327 
L 202.270653 167.290931 
L 204.195692 167.290931 
L 204.195692 163.458535 
L 204.436553 163.458535 
L 204.436553 159.626139 
L 204.595892 159.626139 
L 204.622353 151.961347 
L 205.347356 151.961347 
L 205.455145 144.296554 
L 205.460267 144.296554 
L 205.48586 136.631762 
L 207.677328 136.631762 
L 207.677328 132.799366 
L 208.212362 132.799366 
L 208.212362 128.96697 
L 212.399638 128.96697 
L 212.399638 125.134574 
L 216.986197 125.134574 
L 216.986197 121.302178 
L 324.658336 121.302178 
L 324.658336 117.469782 
L 330.177957 117.469782 
L 330.177957 113.637386 
L 331.304349 113.637386 
L 331.304349 109.80499 
L 332.110052 109.80499 
L 332.110052 105.972594 
L 333.123171 105.972594 
L 333.123171 102.140198 
L 333.939741 102.140198 
L 333.988045 94.475406 
L 334.210989 94.475406 
L 334.210989 90.64301 
L 335.591088 90.64301 
L 335.66573 79.145822 
L 336.523524 79.145822 
L 336.523524 75.313426 
L 338.113979 75.313426 
L 338.113979 71.48103 
L 338.814254 71.48103 
L 338.814254 67.648634 
L 339.352747 67.648634 
L 339.352747 63.816238 
L 349.74797 63.816238 
L 349.74797 59.983842 
L 350.359304 59.983842 
L 350.359304 56.151446 
L 350.918725 56.151446 
L 350.918725 52.31905 
L 351.656043 52.31905 
L 351.656043 48.486653 
L 351.956584 48.486653 
L 351.956584 44.654257 
L 354.088831 44.654257 
L 354.088831 40.821861 
L 354.350589 40.821861 
L 354.350589 36.989465 
L 355.322939 36.989465 
L 355.322939 33.157069 
L 355.593453 33.157069 
L 355.593453 29.324673 
L 356.024456 29.324673 
L 356.024456 25.492277 
L 357.367948 25.492277 
L 357.437331 17.827485 
L 358.933785 17.827485 
L 358.933785 13.995089 
L 360.619075 13.995089 
L 360.619075 10.162693 
L 361.318456 10.162693 
L 361.318456 6.330297 
L 361.318456 6.330297 
L 460.8 6.330297 
L 460.8 6.330297 
" clip-path="url(#pf6187909e2)" style="fill: none; stroke: #000000; stroke-width: 1.5; stroke-linecap: square"/>
   </g>
   <g id="line2d_52">
    <defs>
     <path id="m4feb9fb1e4" d="M -0 14.142136 
L 8.485281 0 
L -0 -14.142136 
L -8.485281 -0 
z
" style="stroke: #000000; stroke-width: 1.5; stroke-linejoin: miter"/>
    </defs>
    <g clip-path="url(#pf6187909e2)">
     <use xlink:href="#m4feb9fb1e4" x="202.270653" y="171.123327" style="fill-opacity: 0; stroke: #000000; stroke-width: 1.5; stroke-linejoin: miter"/>
     <use xlink:href="#m4feb9fb1e4" x="212.399638" y="128.96697" style="fill-opacity: 0; stroke: #000000; stroke-width: 1.5; stroke-linejoin: miter"/>
     <use xlink:href="#m4feb9fb1e4" x="339.352747" y="67.648634" style="fill-opacity: 0; stroke: #000000; stroke-width: 1.5; stroke-linejoin: miter"/>
     <use xlink:href="#m4feb9fb1e4" x="361.318456" y="10.162693" style="fill-opacity: 0; stroke: #000000; stroke-width: 1.5; stroke-linejoin: miter"/>
     <use xlink:href="#m4feb9fb1e4" x="361.318456" y="6.330297" style="fill-opacity: 0; stroke: #000000; stroke-width: 1.5; stroke-linejoin: miter"/>
    </g>
   </g>
   <g id="line2d_53">
    <path clip-path="url(#pf6187909e2)" style="fill: none; stroke: #000000; stroke-width: 1.5; stroke-linecap: square"/>
    <g clip-path="url(#pf6187909e2)">
     <use xlink:href="#m4feb9fb1e4" x="-1" y="581.189703" style="fill-opacity: 0; stroke: #000000; stroke-width: 1.5; stroke-linejoin: miter"/>
     <use xlink:href="#m4feb9fb1e4" x="460.8" y="581.189703" style="fill-opacity: 0; stroke: #000000; stroke-width: 1.5; stroke-linejoin: miter"/>
    </g>
   </g>
   <g id="line2d_54">
    <path d="M 199.561918 293.76 
L 199.574777 259.268436 
L 212.004929 259.268436 
L 212.004929 255.43604 
L 212.352589 255.43604 
L 212.442691 247.771248 
L 212.575312 247.771248 
L 212.680148 240.106455 
L 212.792278 240.106455 
L 212.792278 236.274059 
L 264.597982 236.274059 
L 264.597982 232.441663 
L 264.71978 232.441663 
L 264.798591 217.112079 
L 264.890579 217.112079 
L 264.962699 209.447287 
L 265.246647 209.447287 
L 265.246647 205.614891 
L 265.443826 205.614891 
L 265.443826 201.782495 
L 266.154561 201.782495 
L 266.262909 186.452911 
L 266.298598 186.452911 
L 266.33863 174.955723 
L 266.522852 174.955723 
L 266.578493 163.458535 
L 267.502802 163.458535 
L 267.613095 155.793743 
L 267.805099 155.793743 
L 267.834583 148.12895 
L 267.999807 148.12895 
L 267.999807 144.296554 
L 268.444765 144.296554 
L 268.444765 140.464158 
L 268.677559 140.464158 
L 268.677559 136.631762 
L 269.081297 136.631762 
L 269.129955 128.96697 
L 269.27974 128.96697 
L 269.27974 125.134574 
L 269.691843 125.134574 
L 269.691843 121.302178 
L 270.451974 121.302178 
L 270.451974 117.469782 
L 270.806186 117.469782 
L 270.806186 113.637386 
L 271.147111 113.637386 
L 271.147111 109.80499 
L 273.159361 109.80499 
L 273.159361 105.972594 
L 273.448244 105.972594 
L 273.448244 102.140198 
L 273.827988 102.140198 
L 273.827988 98.307802 
L 274.885157 98.307802 
L 274.963938 90.64301 
L 275.454991 90.64301 
L 275.47625 82.978218 
L 275.923432 82.978218 
L 275.923432 79.145822 
L 276.392814 79.145822 
L 276.392814 75.313426 
L 276.940791 75.313426 
L 276.940791 71.48103 
L 277.665181 71.48103 
L 277.665181 67.648634 
L 278.959264 67.648634 
L 278.959264 63.816238 
L 288.147263 63.816238 
L 288.147263 59.983842 
L 288.803873 59.983842 
L 288.803873 56.151446 
L 290.260604 56.151446 
L 290.260604 52.31905 
L 291.41772 52.31905 
L 291.41772 48.486653 
L 292.397624 48.486653 
L 292.397624 44.654257 
L 292.555121 44.654257 
L 292.555121 40.821861 
L 295.013568 40.821861 
L 295.013568 36.989465 
L 295.735601 36.989465 
L 295.735601 33.157069 
L 295.942139 33.157069 
L 295.942139 29.324673 
L 296.42477 29.324673 
L 296.42477 25.492277 
L 297.137528 25.492277 
L 297.137528 21.659881 
L 303.881027 21.659881 
L 303.888006 13.995089 
L 304.985767 13.995089 
L 304.985767 10.162693 
L 307.88223 10.162693 
L 307.88223 6.330297 
L 307.88223 6.330297 
L 460.8 6.330297 
L 460.8 6.330297 
" clip-path="url(#pf6187909e2)" style="fill: none; stroke: #000000; stroke-width: 1.5; stroke-linecap: square"/>
   </g>
   <g id="line2d_55">
    <defs>
     <path id="m5fb99d747d" d="M 0 7.5 
C 1.989023 7.5 3.896849 6.709753 5.303301 5.303301 
C 6.709753 3.896849 7.5 1.989023 7.5 0 
C 7.5 -1.989023 6.709753 -3.896849 5.303301 -5.303301 
C 3.896849 -6.709753 1.989023 -7.5 0 -7.5 
C -1.989023 -7.5 -3.896849 -6.709753 -5.303301 -5.303301 
C -6.709753 -3.896849 -7.5 -1.989023 -7.5 0 
C -7.5 1.989023 -6.709753 3.896849 -5.303301 5.303301 
C -3.896849 6.709753 -1.989023 7.5 0 7.5 
z
" style="stroke: #000000; stroke-width: 1.5"/>
    </defs>
    <g clip-path="url(#pf6187909e2)">
     <use xlink:href="#m5fb99d747d" x="264.71978" y="232.441663" style="fill-opacity: 0; stroke: #000000; stroke-width: 1.5"/>
     <use xlink:href="#m5fb99d747d" x="276.392814" y="79.145822" style="fill-opacity: 0; stroke: #000000; stroke-width: 1.5"/>
     <use xlink:href="#m5fb99d747d" x="307.88223" y="10.162693" style="fill-opacity: 0; stroke: #000000; stroke-width: 1.5"/>
     <use xlink:href="#m5fb99d747d" x="307.88223" y="6.330297" style="fill-opacity: 0; stroke: #000000; stroke-width: 1.5"/>
    </g>
   </g>
   <g id="line2d_56">
    <path clip-path="url(#pf6187909e2)" style="fill: none; stroke: #000000; stroke-width: 1.5; stroke-linecap: square"/>
   </g>
   <g id="line2d_57">
    <path d="M 200.272386 293.76 
L 200.284897 286.095208 
L 200.40968 286.095208 
L 200.465637 263.100832 
L 200.55863 263.100832 
L 200.595734 251.603644 
L 200.675944 251.603644 
L 200.706728 240.106455 
L 200.804992 240.106455 
L 200.804992 236.274059 
L 201.518393 236.274059 
L 201.518393 232.441663 
L 204.733196 232.441663 
L 204.733196 228.609267 
L 209.645473 228.609267 
L 209.645473 224.776871 
L 209.918506 224.776871 
L 209.978791 217.112079 
L 212.0407 217.112079 
L 212.0407 213.279683 
L 212.321176 213.279683 
L 212.321176 209.447287 
L 216.328219 209.447287 
L 216.331584 201.782495 
L 218.319553 201.782495 
L 218.319553 197.950099 
L 225.478434 197.950099 
L 225.478434 194.117703 
L 229.240484 194.117703 
L 229.240484 190.285307 
L 231.662354 190.285307 
L 231.662354 186.452911 
L 236.030423 186.452911 
L 236.030423 182.620515 
L 250.49707 182.620515 
L 250.49707 178.788119 
L 299.243685 178.788119 
L 299.243685 174.955723 
L 302.382689 174.955723 
L 302.417343 167.290931 
L 305.139155 167.290931 
L 305.195558 159.626139 
L 305.291964 159.626139 
L 305.291964 155.793743 
L 305.443985 155.793743 
L 305.482415 148.12895 
L 307.682227 148.12895 
L 307.696649 140.464158 
L 307.907122 140.464158 
L 307.907122 136.631762 
L 309.29283 136.631762 
L 309.29283 132.799366 
L 309.970139 132.799366 
L 309.970139 128.96697 
L 310.100873 128.96697 
L 310.100873 125.134574 
L 310.351287 125.134574 
L 310.351287 121.302178 
L 353.996842 121.302178 
L 354.04399 113.637386 
L 355.331318 113.637386 
L 355.331318 109.80499 
L 357.273254 109.80499 
L 357.273254 105.972594 
L 358.013145 105.972594 
L 358.013145 102.140198 
L 358.24791 102.140198 
L 358.358965 90.64301 
L 358.57066 90.64301 
L 358.653697 79.145822 
L 359.304203 79.145822 
L 359.339005 71.48103 
L 359.987513 71.48103 
L 359.987513 67.648634 
L 360.194558 67.648634 
L 360.22938 59.983842 
L 360.476314 59.983842 
L 360.476314 56.151446 
L 360.706923 56.151446 
L 360.766637 48.486653 
L 360.878728 48.486653 
L 360.878728 44.654257 
L 361.014369 44.654257 
L 361.014369 40.821861 
L 362.205073 40.821861 
L 362.314247 33.157069 
L 362.724129 33.157069 
L 362.807338 21.659881 
L 364.682776 21.659881 
L 364.682776 17.827485 
L 365.688152 17.827485 
L 365.688152 13.995089 
L 365.845666 13.995089 
L 365.845666 10.162693 
L 367.486025 10.162693 
L 367.486025 6.330297 
L 367.486025 6.330297 
L 460.8 6.330297 
L 460.8 6.330297 
" clip-path="url(#pf6187909e2)" style="fill: none; stroke: #00bfbf; stroke-width: 1.5; stroke-linecap: square"/>
   </g>
   <g id="line2d_58">
    <defs>
     <path id="m2f1c8b061f" d="M -0 14.142136 
L 8.485281 0 
L -0 -14.142136 
L -8.485281 -0 
z
" style="stroke: #00bfbf; stroke-width: 1.5; stroke-linejoin: miter"/>
    </defs>
    <g clip-path="url(#pf6187909e2)">
     <use xlink:href="#m2f1c8b061f" x="236.030423" y="186.452911" style="fill-opacity: 0; stroke: #00bfbf; stroke-width: 1.5; stroke-linejoin: miter"/>
     <use xlink:href="#m2f1c8b061f" x="305.482415" y="151.961347" style="fill-opacity: 0; stroke: #00bfbf; stroke-width: 1.5; stroke-linejoin: miter"/>
     <use xlink:href="#m2f1c8b061f" x="358.24791" y="102.140198" style="fill-opacity: 0; stroke: #00bfbf; stroke-width: 1.5; stroke-linejoin: miter"/>
     <use xlink:href="#m2f1c8b061f" x="367.486025" y="10.162693" style="fill-opacity: 0; stroke: #00bfbf; stroke-width: 1.5; stroke-linejoin: miter"/>
     <use xlink:href="#m2f1c8b061f" x="367.486025" y="6.330297" style="fill-opacity: 0; stroke: #00bfbf; stroke-width: 1.5; stroke-linejoin: miter"/>
    </g>
   </g>
   <g id="line2d_59">
    <path clip-path="url(#pf6187909e2)" style="fill: none; stroke: #00bfbf; stroke-width: 1.5; stroke-linecap: square"/>
    <g clip-path="url(#pf6187909e2)">
     <use xlink:href="#m2f1c8b061f" x="-1" y="581.189703" style="fill-opacity: 0; stroke: #00bfbf; stroke-width: 1.5; stroke-linejoin: miter"/>
     <use xlink:href="#m2f1c8b061f" x="460.8" y="581.189703" style="fill-opacity: 0; stroke: #00bfbf; stroke-width: 1.5; stroke-linejoin: miter"/>
    </g>
   </g>
   <g id="line2d_60">
    <path d="M 243.417405 293.76 
L 243.520057 286.095208 
L 243.529476 286.095208 
L 243.529476 282.262812 
L 245.802217 282.262812 
L 245.802217 278.430416 
L 245.994503 278.430416 
L 245.994503 274.59802 
L 246.236315 274.59802 
L 246.236315 270.765624 
L 248.851184 270.765624 
L 248.852142 263.100832 
L 250.675438 263.100832 
L 250.777957 255.43604 
L 251.384694 255.43604 
L 251.384694 251.603644 
L 252.925766 251.603644 
L 252.960954 243.938851 
L 253.157292 243.938851 
L 253.157292 240.106455 
L 256.799731 240.106455 
L 256.799731 236.274059 
L 279.360027 236.274059 
L 279.360027 232.441663 
L 281.782822 232.441663 
L 281.782822 228.609267 
L 282.00672 228.609267 
L 282.00672 224.776871 
L 282.469728 224.776871 
L 282.469728 220.944475 
L 283.437738 220.944475 
L 283.467208 213.279683 
L 283.563696 213.279683 
L 283.664822 194.117703 
L 283.683553 194.117703 
L 283.683553 190.285307 
L 283.936452 190.285307 
L 284.045 178.788119 
L 284.28124 178.788119 
L 284.328036 171.123327 
L 284.550617 171.123327 
L 284.550617 167.290931 
L 284.725299 167.290931 
L 284.82797 155.793743 
L 284.921192 155.793743 
L 284.921192 151.961347 
L 285.081814 151.961347 
L 285.081814 148.12895 
L 285.391219 148.12895 
L 285.483371 136.631762 
L 285.519908 136.631762 
L 285.599782 125.134574 
L 285.973345 125.134574 
L 285.973345 121.302178 
L 286.37064 121.302178 
L 286.373341 113.637386 
L 286.642848 113.637386 
L 286.672893 105.972594 
L 286.838071 105.972594 
L 286.91619 98.307802 
L 286.986824 98.307802 
L 286.991219 90.64301 
L 287.336699 90.64301 
L 287.425648 79.145822 
L 287.668214 79.145822 
L 287.668214 75.313426 
L 288.738238 75.313426 
L 288.738238 71.48103 
L 291.569125 71.48103 
L 291.569125 67.648634 
L 292.646584 67.648634 
L 292.646584 63.816238 
L 301.63267 63.816238 
L 301.724246 56.151446 
L 302.876528 56.151446 
L 302.876528 52.31905 
L 304.391704 52.31905 
L 304.391704 48.486653 
L 305.654064 48.486653 
L 305.654064 44.654257 
L 305.936125 44.654257 
L 305.936125 40.821861 
L 306.695236 40.821861 
L 306.695236 36.989465 
L 306.833747 36.989465 
L 306.833747 33.157069 
L 309.983523 33.157069 
L 309.983523 29.324673 
L 310.186677 29.324673 
L 310.186677 25.492277 
L 310.559458 25.492277 
L 310.616159 17.827485 
L 311.895375 17.827485 
L 311.895375 13.995089 
L 313.754611 13.995089 
L 313.754611 10.162693 
L 318.418318 10.162693 
L 318.418318 6.330297 
L 318.418318 6.330297 
L 460.8 6.330297 
L 460.8 6.330297 
" clip-path="url(#pf6187909e2)" style="fill: none; stroke: #00bfbf; stroke-width: 1.5; stroke-linecap: square"/>
   </g>
   <g id="line2d_61">
    <defs>
     <path id="m6588360cff" d="M 0 7.5 
C 1.989023 7.5 3.896849 6.709753 5.303301 5.303301 
C 6.709753 3.896849 7.5 1.989023 7.5 0 
C 7.5 -1.989023 6.709753 -3.896849 5.303301 -5.303301 
C 3.896849 -6.709753 1.989023 -7.5 0 -7.5 
C -1.989023 -7.5 -3.896849 -6.709753 -5.303301 -5.303301 
C -6.709753 -3.896849 -7.5 -1.989023 -7.5 0 
C -7.5 1.989023 -6.709753 3.896849 -5.303301 5.303301 
C -3.896849 6.709753 -1.989023 7.5 0 7.5 
z
" style="stroke: #00bfbf; stroke-width: 1.5"/>
    </defs>
    <g clip-path="url(#pf6187909e2)">
     <use xlink:href="#m6588360cff" x="284.28124" y="178.788119" style="fill-opacity: 0; stroke: #00bfbf; stroke-width: 1.5"/>
     <use xlink:href="#m6588360cff" x="291.569125" y="71.48103" style="fill-opacity: 0; stroke: #00bfbf; stroke-width: 1.5"/>
     <use xlink:href="#m6588360cff" x="318.418318" y="10.162693" style="fill-opacity: 0; stroke: #00bfbf; stroke-width: 1.5"/>
     <use xlink:href="#m6588360cff" x="318.418318" y="6.330297" style="fill-opacity: 0; stroke: #00bfbf; stroke-width: 1.5"/>
    </g>
   </g>
   <g id="line2d_62">
    <path clip-path="url(#pf6187909e2)" style="fill: none; stroke: #00bfbf; stroke-width: 1.5; stroke-linecap: square"/>
   </g>
   <g id="line2d_63">
    <path d="M 248.648158 293.76 
L 248.648158 289.927604 
L 254.190659 289.927604 
L 254.190659 286.095208 
L 261.060212 286.095208 
L 261.060212 282.262812 
L 262.451075 282.262812 
L 262.451075 278.430416 
L 264.095938 278.430416 
L 264.095938 274.59802 
L 266.28296 274.59802 
L 266.28296 270.765624 
L 269.186827 270.765624 
L 269.186827 266.933228 
L 272.540281 266.933228 
L 272.540281 263.100832 
L 277.74506 263.100832 
L 277.74506 259.268436 
L 280.512568 259.268436 
L 280.512568 255.43604 
L 296.06577 255.43604 
L 296.06577 251.603644 
L 305.756871 251.603644 
L 305.756871 247.771248 
L 308.952258 247.771248 
L 308.952258 243.938851 
L 309.760805 243.938851 
L 309.760805 240.106455 
L 316.324321 240.106455 
L 316.324321 236.274059 
L 322.263105 236.274059 
L 322.263105 232.441663 
L 322.40148 232.441663 
L 322.416866 224.776871 
L 323.689318 224.776871 
L 323.771084 209.447287 
L 324.82185 209.447287 
L 324.922827 201.782495 
L 325.159351 201.782495 
L 325.159351 197.950099 
L 325.968671 197.950099 
L 325.968671 194.117703 
L 326.349412 194.117703 
L 326.42517 186.452911 
L 327.2017 186.452911 
L 327.254138 174.955723 
L 327.677667 174.955723 
L 327.707092 167.290931 
L 328.137734 167.290931 
L 328.137734 163.458535 
L 328.379914 163.458535 
L 328.379914 159.626139 
L 328.546548 159.626139 
L 328.546548 155.793743 
L 328.836682 155.793743 
L 328.877243 148.12895 
L 329.247411 148.12895 
L 329.247411 144.296554 
L 329.506031 144.296554 
L 329.520191 136.631762 
L 330.593038 136.631762 
L 330.593038 132.799366 
L 331.024724 132.799366 
L 331.024724 128.96697 
L 331.32997 128.96697 
L 331.351169 121.302178 
L 367.050896 121.302178 
L 367.104785 113.637386 
L 367.178714 113.637386 
L 367.178714 109.80499 
L 367.368925 109.80499 
L 367.368925 105.972594 
L 368.574313 105.972594 
L 368.574313 102.140198 
L 368.976617 102.140198 
L 368.976617 98.307802 
L 369.210411 98.307802 
L 369.308308 82.978218 
L 369.627921 82.978218 
L 369.627921 79.145822 
L 369.77588 79.145822 
L 369.77588 75.313426 
L 369.91297 75.313426 
L 369.91297 71.48103 
L 370.241042 71.48103 
L 370.241042 67.648634 
L 370.426207 67.648634 
L 370.529446 52.31905 
L 370.702076 52.31905 
L 370.702076 48.486653 
L 370.957763 48.486653 
L 370.957763 44.654257 
L 371.090227 44.654257 
L 371.096338 36.989465 
L 371.365533 36.989465 
L 371.365533 33.157069 
L 371.51338 33.157069 
L 371.51338 29.324673 
L 371.625428 29.324673 
L 371.731415 21.659881 
L 371.903495 21.659881 
L 371.903495 17.827485 
L 372.608139 17.827485 
L 372.608139 13.995089 
L 373.134634 13.995089 
L 373.134634 10.162693 
L 374.574173 10.162693 
L 374.574173 6.330297 
L 374.574173 6.330297 
L 460.8 6.330297 
L 460.8 6.330297 
" clip-path="url(#pf6187909e2)" style="fill: none; stroke: #bf00bf; stroke-width: 1.5; stroke-linecap: square"/>
   </g>
   <g id="line2d_64">
    <defs>
     <path id="m317ff7dfca" d="M -0 14.142136 
L 8.485281 0 
L -0 -14.142136 
L -8.485281 -0 
z
" style="stroke: #bf00bf; stroke-width: 1.5; stroke-linejoin: miter"/>
    </defs>
    <g clip-path="url(#pf6187909e2)">
     <use xlink:href="#m317ff7dfca" x="309.760805" y="243.938851" style="fill-opacity: 0; stroke: #bf00bf; stroke-width: 1.5; stroke-linejoin: miter"/>
     <use xlink:href="#m317ff7dfca" x="328.546548" y="159.626139" style="fill-opacity: 0; stroke: #bf00bf; stroke-width: 1.5; stroke-linejoin: miter"/>
     <use xlink:href="#m317ff7dfca" x="369.91297" y="75.313426" style="fill-opacity: 0; stroke: #bf00bf; stroke-width: 1.5; stroke-linejoin: miter"/>
     <use xlink:href="#m317ff7dfca" x="374.574173" y="10.162693" style="fill-opacity: 0; stroke: #bf00bf; stroke-width: 1.5; stroke-linejoin: miter"/>
     <use xlink:href="#m317ff7dfca" x="374.574173" y="6.330297" style="fill-opacity: 0; stroke: #bf00bf; stroke-width: 1.5; stroke-linejoin: miter"/>
    </g>
   </g>
   <g id="line2d_65">
    <path clip-path="url(#pf6187909e2)" style="fill: none; stroke: #bf00bf; stroke-width: 1.5; stroke-linecap: square"/>
    <g clip-path="url(#pf6187909e2)">
     <use xlink:href="#m317ff7dfca" x="-1" y="581.189703" style="fill-opacity: 0; stroke: #bf00bf; stroke-width: 1.5; stroke-linejoin: miter"/>
     <use xlink:href="#m317ff7dfca" x="460.8" y="581.189703" style="fill-opacity: 0; stroke: #bf00bf; stroke-width: 1.5; stroke-linejoin: miter"/>
    </g>
   </g>
   <g id="line2d_66">
    <path d="M 283.801118 293.76 
L 283.801118 289.927604 
L 284.005334 289.927604 
L 284.005334 286.095208 
L 284.674412 286.095208 
L 284.78518 274.59802 
L 285.561965 274.59802 
L 285.561965 270.765624 
L 286.102135 270.765624 
L 286.108729 263.100832 
L 286.372215 263.100832 
L 286.372215 259.268436 
L 286.512474 259.268436 
L 286.512474 255.43604 
L 287.147834 255.43604 
L 287.162243 247.771248 
L 288.780715 247.771248 
L 288.780715 243.938851 
L 289.317029 243.938851 
L 289.317029 240.106455 
L 290.065646 240.106455 
L 290.065646 236.274059 
L 292.927609 236.274059 
L 292.927609 232.441663 
L 293.211666 232.441663 
L 293.279482 224.776871 
L 295.312737 224.776871 
L 295.338534 217.112079 
L 295.828536 217.112079 
L 295.828536 213.279683 
L 296.275842 213.279683 
L 296.275842 209.447287 
L 296.502033 209.447287 
L 296.502033 205.614891 
L 296.930917 205.614891 
L 296.94558 197.950099 
L 297.177733 197.950099 
L 297.177733 194.117703 
L 297.382539 194.117703 
L 297.382539 190.285307 
L 297.685215 190.285307 
L 297.685215 186.452911 
L 297.877693 186.452911 
L 297.877693 182.620515 
L 298.090084 182.620515 
L 298.129553 174.955723 
L 298.406852 174.955723 
L 298.514637 167.290931 
L 298.691143 167.290931 
L 298.691143 163.458535 
L 299.031203 163.458535 
L 299.031203 159.626139 
L 299.364675 159.626139 
L 299.364675 155.793743 
L 299.484153 155.793743 
L 299.574179 148.12895 
L 299.617253 148.12895 
L 299.704532 140.464158 
L 299.748866 140.464158 
L 299.748866 136.631762 
L 300.311716 136.631762 
L 300.311716 132.799366 
L 300.542641 132.799366 
L 300.542641 128.96697 
L 300.85436 128.96697 
L 300.960897 117.469782 
L 301.144826 117.469782 
L 301.219758 109.80499 
L 301.271069 109.80499 
L 301.271069 105.972594 
L 301.409292 105.972594 
L 301.409292 102.140198 
L 301.550162 102.140198 
L 301.550162 98.307802 
L 301.6889 98.307802 
L 301.695126 90.64301 
L 301.92569 90.64301 
L 301.92569 86.810614 
L 302.275281 86.810614 
L 302.275281 82.978218 
L 303.015574 82.978218 
L 303.015574 79.145822 
L 303.241527 79.145822 
L 303.319995 71.48103 
L 303.860535 71.48103 
L 303.957355 63.816238 
L 310.19161 63.816238 
L 310.19161 59.983842 
L 310.941936 59.983842 
L 310.941936 56.151446 
L 311.488125 56.151446 
L 311.488125 52.31905 
L 312.776588 52.31905 
L 312.776588 48.486653 
L 313.325936 48.486653 
L 313.325936 44.654257 
L 313.789365 44.654257 
L 313.789365 40.821861 
L 314.514475 40.821861 
L 314.514475 36.989465 
L 316.617265 36.989465 
L 316.617265 33.157069 
L 316.971892 33.157069 
L 316.971892 29.324673 
L 318.70554 29.324673 
L 318.722704 21.659881 
L 319.426754 21.659881 
L 319.426754 17.827485 
L 323.135134 17.827485 
L 323.135134 13.995089 
L 323.559601 13.995089 
L 323.559601 10.162693 
L 324.361662 10.162693 
L 324.361662 6.330297 
L 324.361662 6.330297 
L 460.8 6.330297 
L 460.8 6.330297 
" clip-path="url(#pf6187909e2)" style="fill: none; stroke: #bf00bf; stroke-width: 1.5; stroke-linecap: square"/>
   </g>
   <g id="line2d_67">
    <defs>
     <path id="m6ccbc86a05" d="M 0 7.5 
C 1.989023 7.5 3.896849 6.709753 5.303301 5.303301 
C 6.709753 3.896849 7.5 1.989023 7.5 0 
C 7.5 -1.989023 6.709753 -3.896849 5.303301 -5.303301 
C 3.896849 -6.709753 1.989023 -7.5 0 -7.5 
C -1.989023 -7.5 -3.896849 -6.709753 -5.303301 -5.303301 
C -6.709753 -3.896849 -7.5 -1.989023 -7.5 0 
C -7.5 1.989023 -6.709753 3.896849 -5.303301 5.303301 
C -3.896849 6.709753 -1.989023 7.5 0 7.5 
z
" style="stroke: #bf00bf; stroke-width: 1.5"/>
    </defs>
    <g clip-path="url(#pf6187909e2)">
     <use xlink:href="#m6ccbc86a05" x="297.177733" y="197.950099" style="fill-opacity: 0; stroke: #bf00bf; stroke-width: 1.5"/>
     <use xlink:href="#m6ccbc86a05" x="314.514475" y="40.821861" style="fill-opacity: 0; stroke: #bf00bf; stroke-width: 1.5"/>
     <use xlink:href="#m6ccbc86a05" x="324.361662" y="6.330297" style="fill-opacity: 0; stroke: #bf00bf; stroke-width: 1.5"/>
    </g>
   </g>
   <g id="line2d_68">
    <path clip-path="url(#pf6187909e2)" style="fill: none; stroke: #bf00bf; stroke-width: 1.5; stroke-linecap: square"/>
   </g>
   <g id="line2d_69">
    <path d="M 324.108693 293.76 
L 324.108693 289.927604 
L 341.804415 289.927604 
L 341.804415 286.095208 
L 343.31569 286.095208 
L 343.31569 282.262812 
L 344.573663 282.262812 
L 344.573663 278.430416 
L 344.896633 278.430416 
L 344.896633 274.59802 
L 345.046271 274.59802 
L 345.094398 266.933228 
L 345.313565 266.933228 
L 345.313565 263.100832 
L 345.737982 263.100832 
L 345.737982 259.268436 
L 345.865173 259.268436 
L 345.865173 255.43604 
L 346.359791 255.43604 
L 346.359791 251.603644 
L 346.655151 251.603644 
L 346.655151 247.771248 
L 346.856674 247.771248 
L 346.856674 243.938851 
L 347.006166 243.938851 
L 347.008308 236.274059 
L 348.792452 236.274059 
L 348.792452 232.441663 
L 350.105007 232.441663 
L 350.105007 228.609267 
L 351.63222 228.609267 
L 351.63222 224.776871 
L 354.225837 224.776871 
L 354.225837 220.944475 
L 355.213689 220.944475 
L 355.213689 217.112079 
L 356.557453 217.112079 
L 356.557453 213.279683 
L 356.801387 213.279683 
L 356.801387 209.447287 
L 357.286874 209.447287 
L 357.286874 205.614891 
L 357.579786 205.614891 
L 357.667676 194.117703 
L 357.839478 194.117703 
L 357.842952 186.452911 
L 358.272259 186.452911 
L 358.308615 178.788119 
L 359.007134 178.788119 
L 359.024674 171.123327 
L 359.386386 171.123327 
L 359.386386 167.290931 
L 359.53476 167.290931 
L 359.53476 163.458535 
L 359.731258 163.458535 
L 359.731258 159.626139 
L 359.992165 159.626139 
L 359.992165 155.793743 
L 360.112088 155.793743 
L 360.112088 151.961347 
L 360.291253 151.961347 
L 360.343519 144.296554 
L 360.487487 144.296554 
L 360.487487 140.464158 
L 360.720405 140.464158 
L 360.720405 136.631762 
L 362.068301 136.631762 
L 362.161812 128.96697 
L 363.418616 128.96697 
L 363.418616 125.134574 
L 365.303276 125.134574 
L 365.303276 121.302178 
L 376.350283 121.302178 
L 376.350283 117.469782 
L 376.535557 117.469782 
L 376.535557 113.637386 
L 376.852458 113.637386 
L 376.852458 109.80499 
L 377.485393 109.80499 
L 377.485393 105.972594 
L 377.793114 105.972594 
L 377.793114 102.140198 
L 378.151995 102.140198 
L 378.212845 90.64301 
L 378.446583 90.64301 
L 378.539152 79.145822 
L 378.702599 79.145822 
L 378.702599 75.313426 
L 379.031575 75.313426 
L 379.040172 67.648634 
L 379.320639 67.648634 
L 379.320639 63.816238 
L 379.44964 63.816238 
L 379.44964 59.983842 
L 379.620532 59.983842 
L 379.649325 48.486653 
L 379.743811 48.486653 
L 379.74383 40.821861 
L 379.870356 40.821861 
L 379.962072 29.324673 
L 380.014427 29.324673 
L 380.014427 25.492277 
L 380.162452 25.492277 
L 380.162452 21.659881 
L 380.84473 21.659881 
L 380.856405 13.995089 
L 381.539365 13.995089 
L 381.539365 10.162693 
L 381.883233 10.162693 
L 381.883233 6.330297 
L 381.883233 6.330297 
L 460.8 6.330297 
L 460.8 6.330297 
" clip-path="url(#pf6187909e2)" style="fill: none; stroke: #ff0000; stroke-width: 3; stroke-linecap: square"/>
   </g>
   <g id="line2d_70">
    <defs>
     <path id="m3824ee5a75" d="M -0 14.142136 
L 8.485281 0 
L -0 -14.142136 
L -8.485281 -0 
z
" style="stroke: #ff0000; stroke-width: 3; stroke-linejoin: miter"/>
    </defs>
    <g clip-path="url(#pf6187909e2)">
     <use xlink:href="#m3824ee5a75" x="378.446583" y="90.64301" style="fill-opacity: 0; stroke: #ff0000; stroke-width: 3; stroke-linejoin: miter"/>
     <use xlink:href="#m3824ee5a75" x="381.883233" y="10.162693" style="fill-opacity: 0; stroke: #ff0000; stroke-width: 3; stroke-linejoin: miter"/>
     <use xlink:href="#m3824ee5a75" x="381.883233" y="6.330297" style="fill-opacity: 0; stroke: #ff0000; stroke-width: 3; stroke-linejoin: miter"/>
    </g>
   </g>
   <g id="line2d_71">
    <path clip-path="url(#pf6187909e2)" style="fill: none; stroke: #ff0000; stroke-width: 3; stroke-linecap: square"/>
    <g clip-path="url(#pf6187909e2)">
     <use xlink:href="#m3824ee5a75" x="-1" y="581.189703" style="fill-opacity: 0; stroke: #ff0000; stroke-width: 3; stroke-linejoin: miter"/>
     <use xlink:href="#m3824ee5a75" x="460.8" y="581.189703" style="fill-opacity: 0; stroke: #ff0000; stroke-width: 3; stroke-linejoin: miter"/>
    </g>
   </g>
   <g id="line2d_72">
    <path d="M 303.793912 293.76 
L 303.793912 289.927604 
L 305.439029 289.927604 
L 305.439029 286.095208 
L 305.723642 286.095208 
L 305.723642 282.262812 
L 306.132616 282.262812 
L 306.132616 278.430416 
L 306.442937 278.430416 
L 306.442937 274.59802 
L 306.766785 274.59802 
L 306.836197 266.933228 
L 307.007852 266.933228 
L 307.007852 263.100832 
L 307.133302 263.100832 
L 307.133302 259.268436 
L 307.46164 259.268436 
L 307.525638 251.603644 
L 307.630697 251.603644 
L 307.630697 247.771248 
L 308.128041 247.771248 
L 308.193031 236.274059 
L 308.247999 236.274059 
L 308.254475 228.609267 
L 308.416817 228.609267 
L 308.499188 217.112079 
L 308.841574 217.112079 
L 308.841574 213.279683 
L 308.955175 213.279683 
L 308.980372 205.614891 
L 309.232314 205.614891 
L 309.332817 194.117703 
L 310.651336 194.117703 
L 310.651336 190.285307 
L 310.846189 190.285307 
L 310.846189 186.452911 
L 311.399944 186.452911 
L 311.399944 182.620515 
L 311.758394 182.620515 
L 311.758394 178.788119 
L 312.429503 178.788119 
L 312.429503 174.955723 
L 312.558896 174.955723 
L 312.624943 167.290931 
L 312.795491 167.290931 
L 312.795491 163.458535 
L 313.285302 163.458535 
L 313.360159 155.793743 
L 313.433455 155.793743 
L 313.433455 151.961347 
L 313.636803 151.961347 
L 313.668893 144.296554 
L 313.939947 144.296554 
L 314.032352 132.799366 
L 314.28832 132.799366 
L 314.335513 125.134574 
L 314.740026 125.134574 
L 314.805547 117.469782 
L 315.819383 117.469782 
L 315.819383 113.637386 
L 318.737086 113.637386 
L 318.737086 109.80499 
L 319.632907 109.80499 
L 319.694055 102.140198 
L 320.703763 102.140198 
L 320.703763 98.307802 
L 321.238691 98.307802 
L 321.238691 94.475406 
L 321.632541 94.475406 
L 321.632541 90.64301 
L 322.940852 90.64301 
L 323.000854 79.145822 
L 324.427004 79.145822 
L 324.427004 75.313426 
L 325.194393 75.313426 
L 325.194393 71.48103 
L 325.914197 71.48103 
L 325.914197 67.648634 
L 328.384356 67.648634 
L 328.384356 63.816238 
L 328.503078 63.816238 
L 328.503078 59.983842 
L 329.222525 59.983842 
L 329.222525 56.151446 
L 351.70061 56.151446 
L 351.70061 52.31905 
L 362.264591 52.31905 
L 362.264591 48.486653 
L 382.963999 48.486653 
L 382.963999 44.654257 
L 382.963999 44.654257 
L 460.8 44.654257 
L 460.8 44.654257 
" clip-path="url(#pf6187909e2)" style="fill: none; stroke: #ff0000; stroke-width: 3; stroke-linecap: square"/>
   </g>
   <g id="line2d_73">
    <defs>
     <path id="m0a8e53af33" d="M 0 7.5 
C 1.989023 7.5 3.896849 6.709753 5.303301 5.303301 
C 6.709753 3.896849 7.5 1.989023 7.5 0 
C 7.5 -1.989023 6.709753 -3.896849 5.303301 -5.303301 
C 3.896849 -6.709753 1.989023 -7.5 0 -7.5 
C -1.989023 -7.5 -3.896849 -6.709753 -5.303301 -5.303301 
C -6.709753 -3.896849 -7.5 -1.989023 -7.5 0 
C -7.5 1.989023 -6.709753 3.896849 -5.303301 5.303301 
C -3.896849 6.709753 -1.989023 7.5 0 7.5 
z
" style="stroke: #ff0000; stroke-width: 3"/>
    </defs>
    <g clip-path="url(#pf6187909e2)">
     <use xlink:href="#m0a8e53af33" x="308.955175" y="213.279683" style="fill-opacity: 0; stroke: #ff0000; stroke-width: 3"/>
     <use xlink:href="#m0a8e53af33" x="321.632541" y="94.475406" style="fill-opacity: 0; stroke: #ff0000; stroke-width: 3"/>
     <use xlink:href="#m0a8e53af33" x="351.70061" y="56.151446" style="fill-opacity: 0; stroke: #ff0000; stroke-width: 3"/>
     <use xlink:href="#m0a8e53af33" x="382.963999" y="44.654257" style="fill-opacity: 0; stroke: #ff0000; stroke-width: 3"/>
    </g>
   </g>
   <g id="line2d_74">
    <path clip-path="url(#pf6187909e2)" style="fill: none; stroke: #ff0000; stroke-width: 3; stroke-linecap: square"/>
   </g>
   <g id="line2d_75">
    <path d="M 381.883233 293.76 
L 381.883233 3.456 
" clip-path="url(#pf6187909e2)" style="fill: none; stroke: #000000; stroke-width: 1.5; stroke-linecap: square"/>
    <defs>
     <path id="m04e7bd83aa" d="M -10 0 
L 10 0 
M 0 10 
L 0 -10 
" style="stroke: #000000; stroke-width: 3"/>
    </defs>
    <g clip-path="url(#pf6187909e2)">
     <use xlink:href="#m04e7bd83aa" x="381.883233" y="293.76" style="stroke: #000000; stroke-width: 3"/>
     <use xlink:href="#m04e7bd83aa" x="381.883233" y="3.456" style="stroke: #000000; stroke-width: 3"/>
    </g>
   </g>
   <g id="line2d_76">
    <path d="M 399.825735 293.76 
L 399.825735 3.456 
" clip-path="url(#pf6187909e2)" style="fill: none; stroke: #000000; stroke-width: 1.5; stroke-linecap: square"/>
    <defs>
     <path id="mf3c001b685" d="M 0 7.5 
C 1.989023 7.5 3.896849 6.709753 5.303301 5.303301 
C 6.709753 3.896849 7.5 1.989023 7.5 0 
C 7.5 -1.989023 6.709753 -3.896849 5.303301 -5.303301 
C 3.896849 -6.709753 1.989023 -7.5 0 -7.5 
C -1.989023 -7.5 -3.896849 -6.709753 -5.303301 -5.303301 
C -6.709753 -3.896849 -7.5 -1.989023 -7.5 0 
C -7.5 1.989023 -6.709753 3.896849 -5.303301 5.303301 
C -3.896849 6.709753 -1.989023 7.5 0 7.5 
z
" style="stroke: #000000; stroke-width: 3"/>
    </defs>
    <g clip-path="url(#pf6187909e2)">
     <use xlink:href="#mf3c001b685" x="399.825735" y="293.76" style="fill-opacity: 0; stroke: #000000; stroke-width: 3"/>
     <use xlink:href="#mf3c001b685" x="399.825735" y="3.456" style="fill-opacity: 0; stroke: #000000; stroke-width: 3"/>
    </g>
   </g>
   <g id="patch_3">
    <path d="M 62.208 293.76 
L 62.208 3.456 
" style="fill: none; stroke: #000000; stroke-width: 0.8; stroke-linejoin: miter; stroke-linecap: square"/>
   </g>
   <g id="patch_4">
    <path d="M 460.8 293.76 
L 460.8 3.456 
" style="fill: none; stroke: #000000; stroke-width: 0.8; stroke-linejoin: miter; stroke-linecap: square"/>
   </g>
   <g id="patch_5">
    <path d="M 62.208 293.76 
L 460.8 293.76 
" style="fill: none; stroke: #000000; stroke-width: 0.8; stroke-linejoin: miter; stroke-linecap: square"/>
   </g>
   <g id="patch_6">
    <path d="M 62.208 3.456 
L 460.8 3.456 
" style="fill: none; stroke: #000000; stroke-width: 0.8; stroke-linejoin: miter; stroke-linecap: square"/>
   </g>
   <g id="text_13">
    <!-- f10-f14 -->
    <g transform="translate(225.405563 24.458955)scale(0.2 -0.2)">
     <defs>
      <path id="DejaVuSans-2d" d="M 313 2009 
L 1997 2009 
L 1997 1497 
L 313 1497 
L 313 2009 
z
" transform="scale(0.015625)"/>
     </defs>
     <use xlink:href="#DejaVuSans-66"/>
     <use xlink:href="#DejaVuSans-31" x="35.205078"/>
     <use xlink:href="#DejaVuSans-30" x="98.828125"/>
     <use xlink:href="#DejaVuSans-2d" x="162.451172"/>
     <use xlink:href="#DejaVuSans-66" x="198.535156"/>
     <use xlink:href="#DejaVuSans-31" x="233.740234"/>
     <use xlink:href="#DejaVuSans-34" x="297.363281"/>
    </g>
   </g>
   <g id="text_14">
    <!-- absolute targets -->
    <g transform="translate(62.208 609.932673)scale(0.14 -0.14)">
     <defs>
      <path id="DejaVuSans-62" d="M 3116 1747 
Q 3116 2381 2855 2742 
Q 2594 3103 2138 3103 
Q 1681 3103 1420 2742 
Q 1159 2381 1159 1747 
Q 1159 1113 1420 752 
Q 1681 391 2138 391 
Q 2594 391 2855 752 
Q 3116 1113 3116 1747 
z
M 1159 2969 
Q 1341 3281 1617 3432 
Q 1894 3584 2278 3584 
Q 2916 3584 3314 3078 
Q 3713 2572 3713 1747 
Q 3713 922 3314 415 
Q 2916 -91 2278 -91 
Q 1894 -91 1617 61 
Q 1341 213 1159 525 
L 1159 0 
L 581 0 
L 581 4863 
L 1159 4863 
L 1159 2969 
z
" transform="scale(0.015625)"/>
      <path id="DejaVuSans-75" d="M 544 1381 
L 544 3500 
L 1119 3500 
L 1119 1403 
Q 1119 906 1312 657 
Q 1506 409 1894 409 
Q 2359 409 2629 706 
Q 2900 1003 2900 1516 
L 2900 3500 
L 3475 3500 
L 3475 0 
L 2900 0 
L 2900 538 
Q 2691 219 2414 64 
Q 2138 -91 1772 -91 
Q 1169 -91 856 284 
Q 544 659 544 1381 
z
M 1991 3584 
L 1991 3584 
z
" transform="scale(0.015625)"/>
      <path id="DejaVuSans-65" d="M 3597 1894 
L 3597 1613 
L 953 1613 
Q 991 1019 1311 708 
Q 1631 397 2203 397 
Q 2534 397 2845 478 
Q 3156 559 3463 722 
L 3463 178 
Q 3153 47 2828 -22 
Q 2503 -91 2169 -91 
Q 1331 -91 842 396 
Q 353 884 353 1716 
Q 353 2575 817 3079 
Q 1281 3584 2069 3584 
Q 2775 3584 3186 3129 
Q 3597 2675 3597 1894 
z
M 3022 2063 
Q 3016 2534 2758 2815 
Q 2500 3097 2075 3097 
Q 1594 3097 1305 2825 
Q 1016 2553 972 2059 
L 3022 2063 
z
" transform="scale(0.015625)"/>
     </defs>
     <use xlink:href="#DejaVuSans-61"/>
     <use xlink:href="#DejaVuSans-62" x="61.279297"/>
     <use xlink:href="#DejaVuSans-73" x="124.755859"/>
     <use xlink:href="#DejaVuSans-6f" x="176.855469"/>
     <use xlink:href="#DejaVuSans-6c" x="238.037109"/>
     <use xlink:href="#DejaVuSans-75" x="265.820312"/>
     <use xlink:href="#DejaVuSans-74" x="329.199219"/>
     <use xlink:href="#DejaVuSans-65" x="368.408203"/>
     <use xlink:href="#DejaVuSans-20" x="429.931641"/>
     <use xlink:href="#DejaVuSans-74" x="461.71875"/>
     <use xlink:href="#DejaVuSans-61" x="500.927734"/>
     <use xlink:href="#DejaVuSans-72" x="562.207031"/>
     <use xlink:href="#DejaVuSans-67" x="601.570312"/>
     <use xlink:href="#DejaVuSans-65" x="665.046875"/>
     <use xlink:href="#DejaVuSans-74" x="726.570312"/>
     <use xlink:href="#DejaVuSans-73" x="765.779297"/>
    </g>
   </g>
   <g id="text_15">
    <!-- v2.6.3 -->
    <g style="fill: #808080" transform="translate(245.82275 288.777272)scale(0.1 -0.1)">
     <defs>
      <path id="DejaVuSans-33" d="M 2597 2516 
Q 3050 2419 3304 2112 
Q 3559 1806 3559 1356 
Q 3559 666 3084 287 
Q 2609 -91 1734 -91 
Q 1441 -91 1130 -33 
Q 819 25 488 141 
L 488 750 
Q 750 597 1062 519 
Q 1375 441 1716 441 
Q 2309 441 2620 675 
Q 2931 909 2931 1356 
Q 2931 1769 2642 2001 
Q 2353 2234 1838 2234 
L 1294 2234 
L 1294 2753 
L 1863 2753 
Q 2328 2753 2575 2939 
Q 2822 3125 2822 3475 
Q 2822 3834 2567 4026 
Q 2313 4219 1838 4219 
Q 1578 4219 1281 4162 
Q 984 4106 628 3988 
L 628 4550 
Q 988 4650 1302 4700 
Q 1616 4750 1894 4750 
Q 2613 4750 3031 4423 
Q 3450 4097 3450 3541 
Q 3450 3153 3228 2886 
Q 3006 2619 2597 2516 
z
" transform="scale(0.015625)"/>
     </defs>
     <use xlink:href="#DejaVuSans-76"/>
     <use xlink:href="#DejaVuSans-32" x="59.179688"/>
     <use xlink:href="#DejaVuSans-2e" x="122.802734"/>
     <use xlink:href="#DejaVuSans-36" x="154.589844"/>
     <use xlink:href="#DejaVuSans-2e" x="218.212891"/>
     <use xlink:href="#DejaVuSans-33" x="250"/>
    </g>
   </g>
   <g id="legend_1">
    <g id="patch_7">
     <path d="M 76.208 136.881 
L 160.148625 136.881 
Q 164.148625 136.881 164.148625 132.881 
L 164.148625 17.456 
Q 164.148625 13.456 160.148625 13.456 
L 76.208 13.456 
Q 72.208 13.456 72.208 17.456 
L 72.208 132.881 
Q 72.208 136.881 76.208 136.881 
z
" style="fill: #ffffff; opacity: 0.2; stroke: #cccccc; stroke-linejoin: miter"/>
    </g>
    <g id="line2d_77">
     <path d="M 80.208 29.652875 
L 80.208 29.652875 
L 100.208 29.652875 
L 100.208 29.652875 
L 120.208 29.652875 
" style="fill: none; stroke: #000000; stroke-width: 1.5; stroke-linecap: square"/>
    </g>
    <g id="text_16">
     <!-- 1 -->
     <g transform="translate(136.208 36.652875)scale(0.2 -0.2)">
      <use xlink:href="#DejaVuSans-31"/>
     </g>
    </g>
    <g id="line2d_78">
     <path d="M 80.208 59.009125 
L 80.208 59.009125 
L 100.208 59.009125 
L 100.208 59.009125 
L 120.208 59.009125 
" style="fill: none; stroke: #00bfbf; stroke-width: 1.5; stroke-linecap: square"/>
    </g>
    <g id="text_17">
     <!-- -1 -->
     <g transform="translate(136.208 66.009125)scale(0.2 -0.2)">
      <use xlink:href="#DejaVuSans-2d"/>
      <use xlink:href="#DejaVuSans-31" x="36.083984"/>
     </g>
    </g>
    <g id="line2d_79">
     <path d="M 80.208 88.365375 
L 80.208 88.365375 
L 100.208 88.365375 
L 100.208 88.365375 
L 120.208 88.365375 
" style="fill: none; stroke: #bf00bf; stroke-width: 1.5; stroke-linecap: square"/>
    </g>
    <g id="text_18">
     <!-- -4 -->
     <g transform="translate(136.208 95.365375)scale(0.2 -0.2)">
      <use xlink:href="#DejaVuSans-2d"/>
      <use xlink:href="#DejaVuSans-34" x="36.083984"/>
     </g>
    </g>
    <g id="line2d_80">
     <path d="M 80.208 117.721625 
L 80.208 117.721625 
L 100.208 117.721625 
L 100.208 117.721625 
L 120.208 117.721625 
" style="fill: none; stroke: #ff0000; stroke-width: 3; stroke-linecap: square"/>
    </g>
    <g id="text_19">
     <!-- -8 -->
     <g transform="translate(136.208 124.721625)scale(0.2 -0.2)">
      <use xlink:href="#DejaVuSans-2d"/>
      <use xlink:href="#DejaVuSans-38" x="36.083984"/>
     </g>
    </g>
   </g>
  </g>
 </g>
 <defs>
  <clipPath id="pf6187909e2">
   <rect x="62.208" y="3.456" width="398.592" height="290.304"/>
  </clipPath>
 </defs>
</svg>
