<?xml version="1.0" encoding="utf-8" standalone="no"?>
<!DOCTYPE svg PUBLIC "-//W3C//DTD SVG 1.1//EN"
  "http://www.w3.org/Graphics/SVG/1.1/DTD/svg11.dtd">
<svg xmlns:xlink="http://www.w3.org/1999/xlink" width="331.234883pt" height="352.342812pt" viewBox="0 0 331.234883 352.342812" xmlns="http://www.w3.org/2000/svg" version="1.1">
 <metadata>
  <rdf:RDF xmlns:dc="http://purl.org/dc/elements/1.1/" xmlns:cc="http://creativecommons.org/ns#" xmlns:rdf="http://www.w3.org/1999/02/22-rdf-syntax-ns#">
   <cc:Work>
    <dc:type rdf:resource="http://purl.org/dc/dcmitype/StillImage"/>
    <dc:date>2024-06-19T19:30:57.426669</dc:date>
    <dc:format>image/svg+xml</dc:format>
    <dc:creator>
     <cc:Agent>
      <dc:title>Matplotlib v3.5.2, https://matplotlib.org/</dc:title>
     </cc:Agent>
    </dc:creator>
   </cc:Work>
  </rdf:RDF>
 </metadata>
 <defs>
  <style type="text/css">*{stroke-linejoin: round; stroke-linecap: butt}</style>
 </defs>
 <g id="figure_1">
  <g id="patch_1">
   <path d="M 0 352.342812 
L 331.234883 352.342812 
L 331.234883 0 
L 0 0 
z
" style="fill: #ffffff"/>
  </g>
  <g id="axes_1">
   <g id="patch_2">
    <path d="M 45.469063 301.237187 
L 319.829063 301.237187 
L 319.829063 26.877187 
L 45.469063 26.877187 
z
" style="fill: #ffffff"/>
   </g>
   <g id="line2d_1">
    <path d="M 181.35115 198.519096 
L 181.35115 165.936761 
" clip-path="url(#p801f09fb0b)" style="fill: none; stroke: #00bfbf; stroke-width: 1.5; stroke-linecap: square"/>
   </g>
   <g id="line2d_2">
    <path d="M 148.768814 165.936761 
L 181.35115 165.936761 
" clip-path="url(#p801f09fb0b)" style="fill: none; stroke: #00bfbf; stroke-width: 1.5; stroke-linecap: square"/>
   </g>
   <g id="line2d_3">
    <path d="M 217.565736 183.927916 
L 217.565736 151.345581 
" clip-path="url(#p801f09fb0b)" style="fill: none; stroke: #008000; stroke-width: 1.5; stroke-linecap: square"/>
   </g>
   <g id="line2d_4">
    <path d="M 184.983401 151.345581 
L 217.565736 151.345581 
" clip-path="url(#p801f09fb0b)" style="fill: none; stroke: #008000; stroke-width: 1.5; stroke-linecap: square"/>
   </g>
   <g id="line2d_5">
    <path d="M 239.065072 144.534431 
L 239.065072 111.952096 
" clip-path="url(#p801f09fb0b)" style="fill: none; stroke: #0000ff; stroke-width: 1.5; stroke-linecap: square"/>
   </g>
   <g id="line2d_6">
    <path d="M 206.482737 111.952096 
L 239.065072 111.952096 
" clip-path="url(#p801f09fb0b)" style="fill: none; stroke: #0000ff; stroke-width: 1.5; stroke-linecap: square"/>
   </g>
   <g id="line2d_7">
    <path d="M 271.748796 116.777426 
L 271.748796 84.19509 
" clip-path="url(#p801f09fb0b)" style="fill: none; stroke: #000000; stroke-width: 1.5; stroke-linecap: square"/>
   </g>
   <g id="line2d_8">
    <path d="M 239.166461 84.19509 
L 271.748796 84.19509 
" clip-path="url(#p801f09fb0b)" style="fill: none; stroke: #000000; stroke-width: 1.5; stroke-linecap: square"/>
   </g>
   <g id="line2d_9">
    <path d="M 306.85822 95.996724 
L 306.85822 63.414388 
" clip-path="url(#p801f09fb0b)" style="fill: none; stroke: #ff0000; stroke-width: 1.5; stroke-linecap: square"/>
   </g>
   <g id="line2d_10">
    <path d="M 274.275885 63.414388 
L 306.85822 63.414388 
" clip-path="url(#p801f09fb0b)" style="fill: none; stroke: #ff0000; stroke-width: 1.5; stroke-linecap: square"/>
   </g>
   <g id="matplotlib.axis_1">
    <g id="xtick_1">
     <g id="line2d_11">
      <path d="M 113.758486 301.237187 
L 113.758486 26.877187 
" clip-path="url(#p801f09fb0b)" style="fill: none; stroke: #b0b0b0; stroke-width: 0.8; stroke-linecap: square"/>
     </g>
     <g id="line2d_12">
      <defs>
       <path id="m3189ed7025" d="M 0 0 
L 0 3.5 
" style="stroke: #000000; stroke-width: 0.8"/>
      </defs>
      <g>
       <use xlink:href="#m3189ed7025" x="113.758486" y="301.237187" style="stroke: #000000; stroke-width: 0.8"/>
      </g>
     </g>
     <g id="text_1">
      <!-- 2 -->
      <g transform="translate(108.350361 321.154531)scale(0.17 -0.17)">
       <defs>
        <path id="DejaVuSans-32" d="M 1228 531 
L 3431 531 
L 3431 0 
L 469 0 
L 469 531 
Q 828 903 1448 1529 
Q 2069 2156 2228 2338 
Q 2531 2678 2651 2914 
Q 2772 3150 2772 3378 
Q 2772 3750 2511 3984 
Q 2250 4219 1831 4219 
Q 1534 4219 1204 4116 
Q 875 4013 500 3803 
L 500 4441 
Q 881 4594 1212 4672 
Q 1544 4750 1819 4750 
Q 2544 4750 2975 4387 
Q 3406 4025 3406 3419 
Q 3406 3131 3298 2873 
Q 3191 2616 2906 2266 
Q 2828 2175 2409 1742 
Q 1991 1309 1228 531 
z
" transform="scale(0.015625)"/>
       </defs>
       <use xlink:href="#DejaVuSans-32"/>
      </g>
     </g>
    </g>
    <g id="xtick_2">
     <g id="line2d_13">
      <path d="M 182.04791 301.237187 
L 182.04791 26.877187 
" clip-path="url(#p801f09fb0b)" style="fill: none; stroke: #b0b0b0; stroke-width: 0.8; stroke-linecap: square"/>
     </g>
     <g id="line2d_14">
      <g>
       <use xlink:href="#m3189ed7025" x="182.04791" y="301.237187" style="stroke: #000000; stroke-width: 0.8"/>
      </g>
     </g>
     <g id="text_2">
      <!-- 4 -->
      <g transform="translate(176.639785 321.154531)scale(0.17 -0.17)">
       <defs>
        <path id="DejaVuSans-34" d="M 2419 4116 
L 825 1625 
L 2419 1625 
L 2419 4116 
z
M 2253 4666 
L 3047 4666 
L 3047 1625 
L 3713 1625 
L 3713 1100 
L 3047 1100 
L 3047 0 
L 2419 0 
L 2419 1100 
L 313 1100 
L 313 1709 
L 2253 4666 
z
" transform="scale(0.015625)"/>
       </defs>
       <use xlink:href="#DejaVuSans-34"/>
      </g>
     </g>
    </g>
    <g id="xtick_3">
     <g id="line2d_15">
      <path d="M 250.337334 301.237187 
L 250.337334 26.877187 
" clip-path="url(#p801f09fb0b)" style="fill: none; stroke: #b0b0b0; stroke-width: 0.8; stroke-linecap: square"/>
     </g>
     <g id="line2d_16">
      <g>
       <use xlink:href="#m3189ed7025" x="250.337334" y="301.237187" style="stroke: #000000; stroke-width: 0.8"/>
      </g>
     </g>
     <g id="text_3">
      <!-- 6 -->
      <g transform="translate(244.929209 321.154531)scale(0.17 -0.17)">
       <defs>
        <path id="DejaVuSans-36" d="M 2113 2584 
Q 1688 2584 1439 2293 
Q 1191 2003 1191 1497 
Q 1191 994 1439 701 
Q 1688 409 2113 409 
Q 2538 409 2786 701 
Q 3034 994 3034 1497 
Q 3034 2003 2786 2293 
Q 2538 2584 2113 2584 
z
M 3366 4563 
L 3366 3988 
Q 3128 4100 2886 4159 
Q 2644 4219 2406 4219 
Q 1781 4219 1451 3797 
Q 1122 3375 1075 2522 
Q 1259 2794 1537 2939 
Q 1816 3084 2150 3084 
Q 2853 3084 3261 2657 
Q 3669 2231 3669 1497 
Q 3669 778 3244 343 
Q 2819 -91 2113 -91 
Q 1303 -91 875 529 
Q 447 1150 447 2328 
Q 447 3434 972 4092 
Q 1497 4750 2381 4750 
Q 2619 4750 2861 4703 
Q 3103 4656 3366 4563 
z
" transform="scale(0.015625)"/>
       </defs>
       <use xlink:href="#DejaVuSans-36"/>
      </g>
     </g>
    </g>
    <g id="xtick_4">
     <g id="line2d_17">
      <path d="M 318.626758 301.237187 
L 318.626758 26.877187 
" clip-path="url(#p801f09fb0b)" style="fill: none; stroke: #b0b0b0; stroke-width: 0.8; stroke-linecap: square"/>
     </g>
     <g id="line2d_18">
      <g>
       <use xlink:href="#m3189ed7025" x="318.626758" y="301.237187" style="stroke: #000000; stroke-width: 0.8"/>
      </g>
     </g>
     <g id="text_4">
      <!-- 8 -->
      <g transform="translate(313.218633 321.154531)scale(0.17 -0.17)">
       <defs>
        <path id="DejaVuSans-38" d="M 2034 2216 
Q 1584 2216 1326 1975 
Q 1069 1734 1069 1313 
Q 1069 891 1326 650 
Q 1584 409 2034 409 
Q 2484 409 2743 651 
Q 3003 894 3003 1313 
Q 3003 1734 2745 1975 
Q 2488 2216 2034 2216 
z
M 1403 2484 
Q 997 2584 770 2862 
Q 544 3141 544 3541 
Q 544 4100 942 4425 
Q 1341 4750 2034 4750 
Q 2731 4750 3128 4425 
Q 3525 4100 3525 3541 
Q 3525 3141 3298 2862 
Q 3072 2584 2669 2484 
Q 3125 2378 3379 2068 
Q 3634 1759 3634 1313 
Q 3634 634 3220 271 
Q 2806 -91 2034 -91 
Q 1263 -91 848 271 
Q 434 634 434 1313 
Q 434 1759 690 2068 
Q 947 2378 1403 2484 
z
M 1172 3481 
Q 1172 3119 1398 2916 
Q 1625 2713 2034 2713 
Q 2441 2713 2670 2916 
Q 2900 3119 2900 3481 
Q 2900 3844 2670 4047 
Q 2441 4250 2034 4250 
Q 1625 4250 1398 4047 
Q 1172 3844 1172 3481 
z
" transform="scale(0.015625)"/>
       </defs>
       <use xlink:href="#DejaVuSans-38"/>
      </g>
     </g>
    </g>
    <g id="text_5">
     <!-- log10(ERT of UMAGS3) -->
     <g transform="translate(86.182031 341.607344)scale(0.17 -0.17)">
      <defs>
       <path id="DejaVuSans-6c" d="M 603 4863 
L 1178 4863 
L 1178 0 
L 603 0 
L 603 4863 
z
" transform="scale(0.015625)"/>
       <path id="DejaVuSans-6f" d="M 1959 3097 
Q 1497 3097 1228 2736 
Q 959 2375 959 1747 
Q 959 1119 1226 758 
Q 1494 397 1959 397 
Q 2419 397 2687 759 
Q 2956 1122 2956 1747 
Q 2956 2369 2687 2733 
Q 2419 3097 1959 3097 
z
M 1959 3584 
Q 2709 3584 3137 3096 
Q 3566 2609 3566 1747 
Q 3566 888 3137 398 
Q 2709 -91 1959 -91 
Q 1206 -91 779 398 
Q 353 888 353 1747 
Q 353 2609 779 3096 
Q 1206 3584 1959 3584 
z
" transform="scale(0.015625)"/>
       <path id="DejaVuSans-67" d="M 2906 1791 
Q 2906 2416 2648 2759 
Q 2391 3103 1925 3103 
Q 1463 3103 1205 2759 
Q 947 2416 947 1791 
Q 947 1169 1205 825 
Q 1463 481 1925 481 
Q 2391 481 2648 825 
Q 2906 1169 2906 1791 
z
M 3481 434 
Q 3481 -459 3084 -895 
Q 2688 -1331 1869 -1331 
Q 1566 -1331 1297 -1286 
Q 1028 -1241 775 -1147 
L 775 -588 
Q 1028 -725 1275 -790 
Q 1522 -856 1778 -856 
Q 2344 -856 2625 -561 
Q 2906 -266 2906 331 
L 2906 616 
Q 2728 306 2450 153 
Q 2172 0 1784 0 
Q 1141 0 747 490 
Q 353 981 353 1791 
Q 353 2603 747 3093 
Q 1141 3584 1784 3584 
Q 2172 3584 2450 3431 
Q 2728 3278 2906 2969 
L 2906 3500 
L 3481 3500 
L 3481 434 
z
" transform="scale(0.015625)"/>
       <path id="DejaVuSans-31" d="M 794 531 
L 1825 531 
L 1825 4091 
L 703 3866 
L 703 4441 
L 1819 4666 
L 2450 4666 
L 2450 531 
L 3481 531 
L 3481 0 
L 794 0 
L 794 531 
z
" transform="scale(0.015625)"/>
       <path id="DejaVuSans-30" d="M 2034 4250 
Q 1547 4250 1301 3770 
Q 1056 3291 1056 2328 
Q 1056 1369 1301 889 
Q 1547 409 2034 409 
Q 2525 409 2770 889 
Q 3016 1369 3016 2328 
Q 3016 3291 2770 3770 
Q 2525 4250 2034 4250 
z
M 2034 4750 
Q 2819 4750 3233 4129 
Q 3647 3509 3647 2328 
Q 3647 1150 3233 529 
Q 2819 -91 2034 -91 
Q 1250 -91 836 529 
Q 422 1150 422 2328 
Q 422 3509 836 4129 
Q 1250 4750 2034 4750 
z
" transform="scale(0.015625)"/>
       <path id="DejaVuSans-28" d="M 1984 4856 
Q 1566 4138 1362 3434 
Q 1159 2731 1159 2009 
Q 1159 1288 1364 580 
Q 1569 -128 1984 -844 
L 1484 -844 
Q 1016 -109 783 600 
Q 550 1309 550 2009 
Q 550 2706 781 3412 
Q 1013 4119 1484 4856 
L 1984 4856 
z
" transform="scale(0.015625)"/>
       <path id="DejaVuSans-45" d="M 628 4666 
L 3578 4666 
L 3578 4134 
L 1259 4134 
L 1259 2753 
L 3481 2753 
L 3481 2222 
L 1259 2222 
L 1259 531 
L 3634 531 
L 3634 0 
L 628 0 
L 628 4666 
z
" transform="scale(0.015625)"/>
       <path id="DejaVuSans-52" d="M 2841 2188 
Q 3044 2119 3236 1894 
Q 3428 1669 3622 1275 
L 4263 0 
L 3584 0 
L 2988 1197 
Q 2756 1666 2539 1819 
Q 2322 1972 1947 1972 
L 1259 1972 
L 1259 0 
L 628 0 
L 628 4666 
L 2053 4666 
Q 2853 4666 3247 4331 
Q 3641 3997 3641 3322 
Q 3641 2881 3436 2590 
Q 3231 2300 2841 2188 
z
M 1259 4147 
L 1259 2491 
L 2053 2491 
Q 2509 2491 2742 2702 
Q 2975 2913 2975 3322 
Q 2975 3731 2742 3939 
Q 2509 4147 2053 4147 
L 1259 4147 
z
" transform="scale(0.015625)"/>
       <path id="DejaVuSans-54" d="M -19 4666 
L 3928 4666 
L 3928 4134 
L 2272 4134 
L 2272 0 
L 1638 0 
L 1638 4134 
L -19 4134 
L -19 4666 
z
" transform="scale(0.015625)"/>
       <path id="DejaVuSans-20" transform="scale(0.015625)"/>
       <path id="DejaVuSans-66" d="M 2375 4863 
L 2375 4384 
L 1825 4384 
Q 1516 4384 1395 4259 
Q 1275 4134 1275 3809 
L 1275 3500 
L 2222 3500 
L 2222 3053 
L 1275 3053 
L 1275 0 
L 697 0 
L 697 3053 
L 147 3053 
L 147 3500 
L 697 3500 
L 697 3744 
Q 697 4328 969 4595 
Q 1241 4863 1831 4863 
L 2375 4863 
z
" transform="scale(0.015625)"/>
       <path id="DejaVuSans-55" d="M 556 4666 
L 1191 4666 
L 1191 1831 
Q 1191 1081 1462 751 
Q 1734 422 2344 422 
Q 2950 422 3222 751 
Q 3494 1081 3494 1831 
L 3494 4666 
L 4128 4666 
L 4128 1753 
Q 4128 841 3676 375 
Q 3225 -91 2344 -91 
Q 1459 -91 1007 375 
Q 556 841 556 1753 
L 556 4666 
z
" transform="scale(0.015625)"/>
       <path id="DejaVuSans-4d" d="M 628 4666 
L 1569 4666 
L 2759 1491 
L 3956 4666 
L 4897 4666 
L 4897 0 
L 4281 0 
L 4281 4097 
L 3078 897 
L 2444 897 
L 1241 4097 
L 1241 0 
L 628 0 
L 628 4666 
z
" transform="scale(0.015625)"/>
       <path id="DejaVuSans-41" d="M 2188 4044 
L 1331 1722 
L 3047 1722 
L 2188 4044 
z
M 1831 4666 
L 2547 4666 
L 4325 0 
L 3669 0 
L 3244 1197 
L 1141 1197 
L 716 0 
L 50 0 
L 1831 4666 
z
" transform="scale(0.015625)"/>
       <path id="DejaVuSans-47" d="M 3809 666 
L 3809 1919 
L 2778 1919 
L 2778 2438 
L 4434 2438 
L 4434 434 
Q 4069 175 3628 42 
Q 3188 -91 2688 -91 
Q 1594 -91 976 548 
Q 359 1188 359 2328 
Q 359 3472 976 4111 
Q 1594 4750 2688 4750 
Q 3144 4750 3555 4637 
Q 3966 4525 4313 4306 
L 4313 3634 
Q 3963 3931 3569 4081 
Q 3175 4231 2741 4231 
Q 1884 4231 1454 3753 
Q 1025 3275 1025 2328 
Q 1025 1384 1454 906 
Q 1884 428 2741 428 
Q 3075 428 3337 486 
Q 3600 544 3809 666 
z
" transform="scale(0.015625)"/>
       <path id="DejaVuSans-53" d="M 3425 4513 
L 3425 3897 
Q 3066 4069 2747 4153 
Q 2428 4238 2131 4238 
Q 1616 4238 1336 4038 
Q 1056 3838 1056 3469 
Q 1056 3159 1242 3001 
Q 1428 2844 1947 2747 
L 2328 2669 
Q 3034 2534 3370 2195 
Q 3706 1856 3706 1288 
Q 3706 609 3251 259 
Q 2797 -91 1919 -91 
Q 1588 -91 1214 -16 
Q 841 59 441 206 
L 441 856 
Q 825 641 1194 531 
Q 1563 422 1919 422 
Q 2459 422 2753 634 
Q 3047 847 3047 1241 
Q 3047 1584 2836 1778 
Q 2625 1972 2144 2069 
L 1759 2144 
Q 1053 2284 737 2584 
Q 422 2884 422 3419 
Q 422 4038 858 4394 
Q 1294 4750 2059 4750 
Q 2388 4750 2728 4690 
Q 3069 4631 3425 4513 
z
" transform="scale(0.015625)"/>
       <path id="DejaVuSans-33" d="M 2597 2516 
Q 3050 2419 3304 2112 
Q 3559 1806 3559 1356 
Q 3559 666 3084 287 
Q 2609 -91 1734 -91 
Q 1441 -91 1130 -33 
Q 819 25 488 141 
L 488 750 
Q 750 597 1062 519 
Q 1375 441 1716 441 
Q 2309 441 2620 675 
Q 2931 909 2931 1356 
Q 2931 1769 2642 2001 
Q 2353 2234 1838 2234 
L 1294 2234 
L 1294 2753 
L 1863 2753 
Q 2328 2753 2575 2939 
Q 2822 3125 2822 3475 
Q 2822 3834 2567 4026 
Q 2313 4219 1838 4219 
Q 1578 4219 1281 4162 
Q 984 4106 628 3988 
L 628 4550 
Q 988 4650 1302 4700 
Q 1616 4750 1894 4750 
Q 2613 4750 3031 4423 
Q 3450 4097 3450 3541 
Q 3450 3153 3228 2886 
Q 3006 2619 2597 2516 
z
" transform="scale(0.015625)"/>
       <path id="DejaVuSans-29" d="M 513 4856 
L 1013 4856 
Q 1481 4119 1714 3412 
Q 1947 2706 1947 2009 
Q 1947 1309 1714 600 
Q 1481 -109 1013 -844 
L 513 -844 
Q 928 -128 1133 580 
Q 1338 1288 1338 2009 
Q 1338 2731 1133 3434 
Q 928 4138 513 4856 
z
" transform="scale(0.015625)"/>
      </defs>
      <use xlink:href="#DejaVuSans-6c"/>
      <use xlink:href="#DejaVuSans-6f" x="27.783203"/>
      <use xlink:href="#DejaVuSans-67" x="88.964844"/>
      <use xlink:href="#DejaVuSans-31" x="152.441406"/>
      <use xlink:href="#DejaVuSans-30" x="216.064453"/>
      <use xlink:href="#DejaVuSans-28" x="279.6875"/>
      <use xlink:href="#DejaVuSans-45" x="318.701172"/>
      <use xlink:href="#DejaVuSans-52" x="381.884766"/>
      <use xlink:href="#DejaVuSans-54" x="444.117188"/>
      <use xlink:href="#DejaVuSans-20" x="505.201172"/>
      <use xlink:href="#DejaVuSans-6f" x="536.988281"/>
      <use xlink:href="#DejaVuSans-66" x="598.169922"/>
      <use xlink:href="#DejaVuSans-20" x="633.375"/>
      <use xlink:href="#DejaVuSans-55" x="665.162109"/>
      <use xlink:href="#DejaVuSans-4d" x="738.355469"/>
      <use xlink:href="#DejaVuSans-41" x="824.634766"/>
      <use xlink:href="#DejaVuSans-47" x="891.292969"/>
      <use xlink:href="#DejaVuSans-53" x="968.783203"/>
      <use xlink:href="#DejaVuSans-33" x="1032.259766"/>
      <use xlink:href="#DejaVuSans-29" x="1095.882812"/>
     </g>
    </g>
   </g>
   <g id="matplotlib.axis_2">
    <g id="ytick_1">
     <g id="line2d_19">
      <path d="M 45.469063 232.947764 
L 319.829063 232.947764 
" clip-path="url(#p801f09fb0b)" style="fill: none; stroke: #b0b0b0; stroke-width: 0.8; stroke-linecap: square"/>
     </g>
     <g id="line2d_20">
      <defs>
       <path id="m5a7d2f301d" d="M 0 0 
L -3.5 0 
" style="stroke: #000000; stroke-width: 0.8"/>
      </defs>
      <g>
       <use xlink:href="#m5a7d2f301d" x="45.469063" y="232.947764" style="stroke: #000000; stroke-width: 0.8"/>
      </g>
     </g>
     <g id="text_6">
      <!-- 2 -->
      <g transform="translate(27.652813 239.406435)scale(0.17 -0.17)">
       <use xlink:href="#DejaVuSans-32"/>
      </g>
     </g>
    </g>
    <g id="ytick_2">
     <g id="line2d_21">
      <path d="M 45.469063 164.65834 
L 319.829063 164.65834 
" clip-path="url(#p801f09fb0b)" style="fill: none; stroke: #b0b0b0; stroke-width: 0.8; stroke-linecap: square"/>
     </g>
     <g id="line2d_22">
      <g>
       <use xlink:href="#m5a7d2f301d" x="45.469063" y="164.65834" style="stroke: #000000; stroke-width: 0.8"/>
      </g>
     </g>
     <g id="text_7">
      <!-- 4 -->
      <g transform="translate(27.652813 171.117011)scale(0.17 -0.17)">
       <use xlink:href="#DejaVuSans-34"/>
      </g>
     </g>
    </g>
    <g id="ytick_3">
     <g id="line2d_23">
      <path d="M 45.469063 96.368916 
L 319.829063 96.368916 
" clip-path="url(#p801f09fb0b)" style="fill: none; stroke: #b0b0b0; stroke-width: 0.8; stroke-linecap: square"/>
     </g>
     <g id="line2d_24">
      <g>
       <use xlink:href="#m5a7d2f301d" x="45.469063" y="96.368916" style="stroke: #000000; stroke-width: 0.8"/>
      </g>
     </g>
     <g id="text_8">
      <!-- 6 -->
      <g transform="translate(27.652813 102.827588)scale(0.17 -0.17)">
       <use xlink:href="#DejaVuSans-36"/>
      </g>
     </g>
    </g>
    <g id="ytick_4">
     <g id="line2d_25">
      <path d="M 45.469063 28.079492 
L 319.829063 28.079492 
" clip-path="url(#p801f09fb0b)" style="fill: none; stroke: #b0b0b0; stroke-width: 0.8; stroke-linecap: square"/>
     </g>
     <g id="line2d_26">
      <g>
       <use xlink:href="#m5a7d2f301d" x="45.469063" y="28.079492" style="stroke: #000000; stroke-width: 0.8"/>
      </g>
     </g>
     <g id="text_9">
      <!-- 8 -->
      <g transform="translate(27.652813 34.538164)scale(0.17 -0.17)">
       <use xlink:href="#DejaVuSans-38"/>
      </g>
     </g>
    </g>
    <g id="text_10">
     <!-- log10(ERT of UMAGS2) -->
     <g transform="translate(20.117344 260.524219)rotate(-90)scale(0.17 -0.17)">
      <use xlink:href="#DejaVuSans-6c"/>
      <use xlink:href="#DejaVuSans-6f" x="27.783203"/>
      <use xlink:href="#DejaVuSans-67" x="88.964844"/>
      <use xlink:href="#DejaVuSans-31" x="152.441406"/>
      <use xlink:href="#DejaVuSans-30" x="216.064453"/>
      <use xlink:href="#DejaVuSans-28" x="279.6875"/>
      <use xlink:href="#DejaVuSans-45" x="318.701172"/>
      <use xlink:href="#DejaVuSans-52" x="381.884766"/>
      <use xlink:href="#DejaVuSans-54" x="444.117188"/>
      <use xlink:href="#DejaVuSans-20" x="505.201172"/>
      <use xlink:href="#DejaVuSans-6f" x="536.988281"/>
      <use xlink:href="#DejaVuSans-66" x="598.169922"/>
      <use xlink:href="#DejaVuSans-20" x="633.375"/>
      <use xlink:href="#DejaVuSans-55" x="665.162109"/>
      <use xlink:href="#DejaVuSans-4d" x="738.355469"/>
      <use xlink:href="#DejaVuSans-41" x="824.634766"/>
      <use xlink:href="#DejaVuSans-47" x="891.292969"/>
      <use xlink:href="#DejaVuSans-53" x="968.783203"/>
      <use xlink:href="#DejaVuSans-32" x="1032.259766"/>
      <use xlink:href="#DejaVuSans-29" x="1095.882812"/>
     </g>
    </g>
   </g>
   <g id="line2d_27">
    <defs>
     <path id="m02dcf45f0b" d="M -7 0 
L 7 0 
M 0 7 
L 0 -7 
" style="stroke: #00bfbf; stroke-width: 3"/>
    </defs>
    <g>
     <use xlink:href="#m02dcf45f0b" x="45.469063" y="301.237187" style="fill-opacity: 0; stroke: #00bfbf; stroke-width: 3"/>
     <use xlink:href="#m02dcf45f0b" x="51.80757" y="298.533567" style="fill-opacity: 0; stroke: #00bfbf; stroke-width: 3"/>
     <use xlink:href="#m02dcf45f0b" x="70.105696" y="274.022603" style="fill-opacity: 0; stroke: #00bfbf; stroke-width: 3"/>
     <use xlink:href="#m02dcf45f0b" x="89.990888" y="252.961402" style="fill-opacity: 0; stroke: #00bfbf; stroke-width: 3"/>
     <use xlink:href="#m02dcf45f0b" x="104.231625" y="241.475365" style="fill-opacity: 0; stroke: #00bfbf; stroke-width: 3"/>
     <use xlink:href="#m02dcf45f0b" x="126.748926" y="219.7083" style="fill-opacity: 0; stroke: #00bfbf; stroke-width: 3"/>
     <use xlink:href="#m02dcf45f0b" x="146.644161" y="195.632341" style="fill-opacity: 0; stroke: #00bfbf; stroke-width: 3"/>
     <use xlink:href="#m02dcf45f0b" x="152.645622" y="189.952894" style="fill-opacity: 0; stroke: #00bfbf; stroke-width: 3"/>
     <use xlink:href="#m02dcf45f0b" x="159.427011" y="183.610364" style="fill-opacity: 0; stroke: #00bfbf; stroke-width: 3"/>
     <use xlink:href="#m02dcf45f0b" x="163.628103" y="180.654113" style="fill-opacity: 0; stroke: #00bfbf; stroke-width: 3"/>
     <use xlink:href="#m02dcf45f0b" x="169.311129" y="177.101896" style="fill-opacity: 0; stroke: #00bfbf; stroke-width: 3"/>
     <use xlink:href="#m02dcf45f0b" x="170.178365" y="176.280357" style="fill-opacity: 0; stroke: #00bfbf; stroke-width: 3"/>
     <use xlink:href="#m02dcf45f0b" x="172.766529" y="174.318108" style="fill-opacity: 0; stroke: #00bfbf; stroke-width: 3"/>
     <use xlink:href="#m02dcf45f0b" x="173.873439" y="173.196135" style="fill-opacity: 0; stroke: #00bfbf; stroke-width: 3"/>
     <use xlink:href="#m02dcf45f0b" x="175.044721" y="172.171479" style="fill-opacity: 0; stroke: #00bfbf; stroke-width: 3"/>
     <use xlink:href="#m02dcf45f0b" x="175.755551" y="171.797698" style="fill-opacity: 0; stroke: #00bfbf; stroke-width: 3"/>
     <use xlink:href="#m02dcf45f0b" x="176.421873" y="170.896247" style="fill-opacity: 0; stroke: #00bfbf; stroke-width: 3"/>
     <use xlink:href="#m02dcf45f0b" x="177.406682" y="170.524988" style="fill-opacity: 0; stroke: #00bfbf; stroke-width: 3"/>
     <use xlink:href="#m02dcf45f0b" x="178.22062" y="170.032402" style="fill-opacity: 0; stroke: #00bfbf; stroke-width: 3"/>
     <use xlink:href="#m02dcf45f0b" x="178.664988" y="169.724415" style="fill-opacity: 0; stroke: #00bfbf; stroke-width: 3"/>
     <use xlink:href="#m02dcf45f0b" x="179.126794" y="168.834188" style="fill-opacity: 0; stroke: #00bfbf; stroke-width: 3"/>
     <use xlink:href="#m02dcf45f0b" x="179.463625" y="168.688694" style="fill-opacity: 0; stroke: #00bfbf; stroke-width: 3"/>
    </g>
   </g>
   <g id="line2d_28">
    <defs>
     <path id="ma0565cd304" d="M -0 7 
L 7 -7 
L -7 -7 
z
" style="stroke: #008000; stroke-width: 3; stroke-linejoin: miter"/>
    </defs>
    <g>
     <use xlink:href="#ma0565cd304" x="45.469063" y="301.237187" style="fill-opacity: 0; stroke: #008000; stroke-width: 3; stroke-linejoin: miter"/>
     <use xlink:href="#ma0565cd304" x="57.160986" y="292.520981" style="fill-opacity: 0; stroke: #008000; stroke-width: 3; stroke-linejoin: miter"/>
     <use xlink:href="#ma0565cd304" x="81.729205" y="264.062933" style="fill-opacity: 0; stroke: #008000; stroke-width: 3; stroke-linejoin: miter"/>
     <use xlink:href="#ma0565cd304" x="111.255179" y="237.17427" style="fill-opacity: 0; stroke: #008000; stroke-width: 3; stroke-linejoin: miter"/>
     <use xlink:href="#ma0565cd304" x="135.156379" y="203.520045" style="fill-opacity: 0; stroke: #008000; stroke-width: 3; stroke-linejoin: miter"/>
     <use xlink:href="#ma0565cd304" x="153.397373" y="187.896366" style="fill-opacity: 0; stroke: #008000; stroke-width: 3; stroke-linejoin: miter"/>
     <use xlink:href="#ma0565cd304" x="164.470561" y="172.899527" style="fill-opacity: 0; stroke: #008000; stroke-width: 3; stroke-linejoin: miter"/>
     <use xlink:href="#ma0565cd304" x="172.644763" y="166.514136" style="fill-opacity: 0; stroke: #008000; stroke-width: 3; stroke-linejoin: miter"/>
     <use xlink:href="#ma0565cd304" x="178.813643" y="162.642329" style="fill-opacity: 0; stroke: #008000; stroke-width: 3; stroke-linejoin: miter"/>
     <use xlink:href="#ma0565cd304" x="182.689937" y="161.920323" style="fill-opacity: 0; stroke: #008000; stroke-width: 3; stroke-linejoin: miter"/>
     <use xlink:href="#ma0565cd304" x="191.001446" y="160.53681" style="fill-opacity: 0; stroke: #008000; stroke-width: 3; stroke-linejoin: miter"/>
     <use xlink:href="#ma0565cd304" x="191.633255" y="159.946822" style="fill-opacity: 0; stroke: #008000; stroke-width: 3; stroke-linejoin: miter"/>
     <use xlink:href="#ma0565cd304" x="192.777097" y="159.017809" style="fill-opacity: 0; stroke: #008000; stroke-width: 3; stroke-linejoin: miter"/>
     <use xlink:href="#ma0565cd304" x="193.230185" y="158.370013" style="fill-opacity: 0; stroke: #008000; stroke-width: 3; stroke-linejoin: miter"/>
     <use xlink:href="#ma0565cd304" x="193.795674" y="157.405554" style="fill-opacity: 0; stroke: #008000; stroke-width: 3; stroke-linejoin: miter"/>
     <use xlink:href="#ma0565cd304" x="194.159168" y="156.675492" style="fill-opacity: 0; stroke: #008000; stroke-width: 3; stroke-linejoin: miter"/>
     <use xlink:href="#ma0565cd304" x="194.681187" y="156.082239" style="fill-opacity: 0; stroke: #008000; stroke-width: 3; stroke-linejoin: miter"/>
     <use xlink:href="#ma0565cd304" x="194.867467" y="155.638471" style="fill-opacity: 0; stroke: #008000; stroke-width: 3; stroke-linejoin: miter"/>
     <use xlink:href="#ma0565cd304" x="195.76146" y="154.753975" style="fill-opacity: 0; stroke: #008000; stroke-width: 3; stroke-linejoin: miter"/>
     <use xlink:href="#ma0565cd304" x="196.110017" y="154.427186" style="fill-opacity: 0; stroke: #008000; stroke-width: 3; stroke-linejoin: miter"/>
     <use xlink:href="#ma0565cd304" x="196.40138" y="153.809998" style="fill-opacity: 0; stroke: #008000; stroke-width: 3; stroke-linejoin: miter"/>
     <use xlink:href="#ma0565cd304" x="196.629183" y="153.56488" style="fill-opacity: 0; stroke: #008000; stroke-width: 3; stroke-linejoin: miter"/>
    </g>
   </g>
   <g id="line2d_29">
    <defs>
     <path id="md38567c94b" d="M 0 -7 
L -1.571598 -2.163119 
L -6.657396 -2.163119 
L -2.542899 0.826238 
L -4.114497 5.663119 
L -0 2.673762 
L 4.114497 5.663119 
L 2.542899 0.826238 
L 6.657396 -2.163119 
L 1.571598 -2.163119 
z
" style="stroke: #0000ff; stroke-width: 3; stroke-linejoin: bevel"/>
    </defs>
    <g>
     <use xlink:href="#md38567c94b" x="45.469063" y="301.237187" style="fill-opacity: 0; stroke: #0000ff; stroke-width: 3; stroke-linejoin: bevel"/>
     <use xlink:href="#md38567c94b" x="54.724559" y="296.247688" style="fill-opacity: 0; stroke: #0000ff; stroke-width: 3; stroke-linejoin: bevel"/>
     <use xlink:href="#md38567c94b" x="97.167736" y="253.308517" style="fill-opacity: 0; stroke: #0000ff; stroke-width: 3; stroke-linejoin: bevel"/>
     <use xlink:href="#md38567c94b" x="131.614996" y="211.707165" style="fill-opacity: 0; stroke: #0000ff; stroke-width: 3; stroke-linejoin: bevel"/>
     <use xlink:href="#md38567c94b" x="169.706957" y="171.216456" style="fill-opacity: 0; stroke: #0000ff; stroke-width: 3; stroke-linejoin: bevel"/>
     <use xlink:href="#md38567c94b" x="182.972655" y="160.188372" style="fill-opacity: 0; stroke: #0000ff; stroke-width: 3; stroke-linejoin: bevel"/>
     <use xlink:href="#md38567c94b" x="198.875583" y="152.21021" style="fill-opacity: 0; stroke: #0000ff; stroke-width: 3; stroke-linejoin: bevel"/>
     <use xlink:href="#md38567c94b" x="201.80684" y="150.696221" style="fill-opacity: 0; stroke: #0000ff; stroke-width: 3; stroke-linejoin: bevel"/>
     <use xlink:href="#md38567c94b" x="211.334388" y="139.343484" style="fill-opacity: 0; stroke: #0000ff; stroke-width: 3; stroke-linejoin: bevel"/>
     <use xlink:href="#md38567c94b" x="212.02767" y="138.877247" style="fill-opacity: 0; stroke: #0000ff; stroke-width: 3; stroke-linejoin: bevel"/>
     <use xlink:href="#md38567c94b" x="212.683708" y="138.204608" style="fill-opacity: 0; stroke: #0000ff; stroke-width: 3; stroke-linejoin: bevel"/>
     <use xlink:href="#md38567c94b" x="213.07957" y="137.32037" style="fill-opacity: 0; stroke: #0000ff; stroke-width: 3; stroke-linejoin: bevel"/>
     <use xlink:href="#md38567c94b" x="213.500587" y="133.86722" style="fill-opacity: 0; stroke: #0000ff; stroke-width: 3; stroke-linejoin: bevel"/>
     <use xlink:href="#md38567c94b" x="213.811537" y="133.480778" style="fill-opacity: 0; stroke: #0000ff; stroke-width: 3; stroke-linejoin: bevel"/>
     <use xlink:href="#md38567c94b" x="214.357058" y="133.111794" style="fill-opacity: 0; stroke: #0000ff; stroke-width: 3; stroke-linejoin: bevel"/>
     <use xlink:href="#md38567c94b" x="214.646439" y="132.87177" style="fill-opacity: 0; stroke: #0000ff; stroke-width: 3; stroke-linejoin: bevel"/>
     <use xlink:href="#md38567c94b" x="214.970152" y="132.385387" style="fill-opacity: 0; stroke: #0000ff; stroke-width: 3; stroke-linejoin: bevel"/>
     <use xlink:href="#md38567c94b" x="215.274176" y="132.131369" style="fill-opacity: 0; stroke: #0000ff; stroke-width: 3; stroke-linejoin: bevel"/>
     <use xlink:href="#md38567c94b" x="215.72812" y="131.760993" style="fill-opacity: 0; stroke: #0000ff; stroke-width: 3; stroke-linejoin: bevel"/>
     <use xlink:href="#md38567c94b" x="215.996299" y="131.587334" style="fill-opacity: 0; stroke: #0000ff; stroke-width: 3; stroke-linejoin: bevel"/>
     <use xlink:href="#md38567c94b" x="216.216043" y="131.279151" style="fill-opacity: 0; stroke: #0000ff; stroke-width: 3; stroke-linejoin: bevel"/>
     <use xlink:href="#md38567c94b" x="216.300254" y="131.049634" style="fill-opacity: 0; stroke: #0000ff; stroke-width: 3; stroke-linejoin: bevel"/>
    </g>
   </g>
   <g id="line2d_30">
    <defs>
     <path id="m9252727fb7" d="M 0 7 
C 1.856422 7 3.637059 6.262436 4.949747 4.949747 
C 6.262436 3.637059 7 1.856422 7 0 
C 7 -1.856422 6.262436 -3.637059 4.949747 -4.949747 
C 3.637059 -6.262436 1.856422 -7 0 -7 
C -1.856422 -7 -3.637059 -6.262436 -4.949747 -4.949747 
C -6.262436 -3.637059 -7 -1.856422 -7 0 
C -7 1.856422 -6.262436 3.637059 -4.949747 4.949747 
C -3.637059 6.262436 -1.856422 7 0 7 
z
" style="stroke: #000000; stroke-width: 3"/>
    </defs>
    <g>
     <use xlink:href="#m9252727fb7" x="45.469063" y="301.237187" style="fill-opacity: 0; stroke: #000000; stroke-width: 3"/>
     <use xlink:href="#m9252727fb7" x="51.80757" y="297.731811" style="fill-opacity: 0; stroke: #000000; stroke-width: 3"/>
     <use xlink:href="#m9252727fb7" x="122.976865" y="224.29761" style="fill-opacity: 0; stroke: #000000; stroke-width: 3"/>
     <use xlink:href="#m9252727fb7" x="182.81034" y="161.69673" style="fill-opacity: 0; stroke: #000000; stroke-width: 3"/>
     <use xlink:href="#m9252727fb7" x="221.013873" y="135.648644" style="fill-opacity: 0; stroke: #000000; stroke-width: 3"/>
     <use xlink:href="#m9252727fb7" x="233.2942" y="132.095294" style="fill-opacity: 0; stroke: #000000; stroke-width: 3"/>
     <use xlink:href="#m9252727fb7" x="237.013743" y="125.235657" style="fill-opacity: 0; stroke: #000000; stroke-width: 3"/>
     <use xlink:href="#m9252727fb7" x="238.881987" y="116.977557" style="fill-opacity: 0; stroke: #000000; stroke-width: 3"/>
     <use xlink:href="#m9252727fb7" x="243.72392" y="109.702601" style="fill-opacity: 0; stroke: #000000; stroke-width: 3"/>
     <use xlink:href="#m9252727fb7" x="244.229732" y="109.018228" style="fill-opacity: 0; stroke: #000000; stroke-width: 3"/>
     <use xlink:href="#m9252727fb7" x="245.509478" y="104.030302" style="fill-opacity: 0; stroke: #000000; stroke-width: 3"/>
     <use xlink:href="#m9252727fb7" x="249.31741" y="103.709172" style="fill-opacity: 0; stroke: #000000; stroke-width: 3"/>
     <use xlink:href="#m9252727fb7" x="249.690353" y="103.494803" style="fill-opacity: 0; stroke: #000000; stroke-width: 3"/>
     <use xlink:href="#m9252727fb7" x="249.981535" y="101.154007" style="fill-opacity: 0; stroke: #000000; stroke-width: 3"/>
     <use xlink:href="#m9252727fb7" x="250.32134" y="101.016675" style="fill-opacity: 0; stroke: #000000; stroke-width: 3"/>
     <use xlink:href="#m9252727fb7" x="250.519973" y="100.916549" style="fill-opacity: 0; stroke: #000000; stroke-width: 3"/>
     <use xlink:href="#m9252727fb7" x="250.86354" y="100.774398" style="fill-opacity: 0; stroke: #000000; stroke-width: 3"/>
     <use xlink:href="#m9252727fb7" x="251.001318" y="100.705064" style="fill-opacity: 0; stroke: #000000; stroke-width: 3"/>
     <use xlink:href="#m9252727fb7" x="251.27337" y="100.5603" style="fill-opacity: 0; stroke: #000000; stroke-width: 3"/>
     <use xlink:href="#m9252727fb7" x="251.477076" y="100.494081" style="fill-opacity: 0; stroke: #000000; stroke-width: 3"/>
     <use xlink:href="#m9252727fb7" x="251.704108" y="100.373733" style="fill-opacity: 0; stroke: #000000; stroke-width: 3"/>
     <use xlink:href="#m9252727fb7" x="251.853468" y="100.30929" style="fill-opacity: 0; stroke: #000000; stroke-width: 3"/>
    </g>
   </g>
   <g id="line2d_31">
    <defs>
     <path id="md0b59840ba" d="M -7 7 
L 7 7 
L 7 -7 
L -7 -7 
z
" style="stroke: #ff0000; stroke-width: 3; stroke-linejoin: miter"/>
    </defs>
    <g>
     <use xlink:href="#md0b59840ba" x="45.469063" y="301.237187" style="fill-opacity: 0; stroke: #ff0000; stroke-width: 3; stroke-linejoin: miter"/>
     <use xlink:href="#md0b59840ba" x="51.80757" y="298.533567" style="fill-opacity: 0; stroke: #ff0000; stroke-width: 3; stroke-linejoin: miter"/>
     <use xlink:href="#md0b59840ba" x="163.775946" y="179.392085" style="fill-opacity: 0; stroke: #ff0000; stroke-width: 3; stroke-linejoin: miter"/>
     <use xlink:href="#md0b59840ba" x="229.113294" y="121.969336" style="fill-opacity: 0; stroke: #ff0000; stroke-width: 3; stroke-linejoin: miter"/>
     <use xlink:href="#md0b59840ba" x="264.14056" y="115.897988" style="fill-opacity: 0; stroke: #ff0000; stroke-width: 3; stroke-linejoin: miter"/>
     <use xlink:href="#md0b59840ba" x="272.025654" y="112.184751" style="fill-opacity: 0; stroke: #ff0000; stroke-width: 3; stroke-linejoin: miter"/>
     <use xlink:href="#md0b59840ba" x="280.8793" y="101.026295" style="fill-opacity: 0; stroke: #ff0000; stroke-width: 3; stroke-linejoin: miter"/>
     <use xlink:href="#md0b59840ba" x="283.008751" y="90.329166" style="fill-opacity: 0; stroke: #ff0000; stroke-width: 3; stroke-linejoin: miter"/>
     <use xlink:href="#md0b59840ba" x="287.156696" y="76.926866" style="fill-opacity: 0; stroke: #ff0000; stroke-width: 3; stroke-linejoin: miter"/>
     <use xlink:href="#md0b59840ba" x="290.291726" y="72.684449" style="fill-opacity: 0; stroke: #ff0000; stroke-width: 3; stroke-linejoin: miter"/>
    </g>
   </g>
   <g id="line2d_32">
    <defs>
     <path id="md135a998e3" d="M -4 4 
L 4 4 
L 4 -4 
L -4 -4 
z
" style="stroke: #ff0000; stroke-linejoin: miter"/>
    </defs>
    <g>
     <use xlink:href="#md135a998e3" x="298.353602" y="62.597283" style="fill-opacity: 0; stroke: #ff0000; stroke-linejoin: miter"/>
     <use xlink:href="#md135a998e3" x="298.587108" y="62.145146" style="fill-opacity: 0; stroke: #ff0000; stroke-linejoin: miter"/>
     <use xlink:href="#md135a998e3" x="299.39338" y="61.112341" style="fill-opacity: 0; stroke: #ff0000; stroke-linejoin: miter"/>
     <use xlink:href="#md135a998e3" x="301.887979" y="58.990253" style="fill-opacity: 0; stroke: #ff0000; stroke-linejoin: miter"/>
     <use xlink:href="#md135a998e3" x="302.171555" y="58.516083" style="fill-opacity: 0; stroke: #ff0000; stroke-linejoin: miter"/>
     <use xlink:href="#md135a998e3" x="302.55806" y="58.461562" style="fill-opacity: 0; stroke: #ff0000; stroke-linejoin: miter"/>
     <use xlink:href="#md135a998e3" x="304.846879" y="58.157137" style="fill-opacity: 0; stroke: #ff0000; stroke-linejoin: miter"/>
     <use xlink:href="#md135a998e3" x="304.919049" y="58.066916" style="fill-opacity: 0; stroke: #ff0000; stroke-linejoin: miter"/>
     <use xlink:href="#md135a998e3" x="305.001845" y="57.995895" style="fill-opacity: 0; stroke: #ff0000; stroke-linejoin: miter"/>
     <use xlink:href="#md135a998e3" x="305.066072" y="57.916407" style="fill-opacity: 0; stroke: #ff0000; stroke-linejoin: miter"/>
     <use xlink:href="#md135a998e3" x="306.725174" y="52.828665" style="fill-opacity: 0; stroke: #ff0000; stroke-linejoin: miter"/>
     <use xlink:href="#md135a998e3" x="306.764301" y="49.673788" style="fill-opacity: 0; stroke: #ff0000; stroke-linejoin: miter"/>
    </g>
   </g>
   <g id="line2d_33">
    <path d="M 45.469063 301.237187 
L 319.829063 26.877187 
" clip-path="url(#p801f09fb0b)" style="fill: none; stroke: #000000; stroke-width: 1.5; stroke-linecap: square"/>
   </g>
   <g id="line2d_34">
    <path d="M 79.613774 301.237187 
L 332.234883 48.616079 
" clip-path="url(#p801f09fb0b)" style="fill: none; stroke: #d3d3d3; stroke-linecap: square"/>
   </g>
   <g id="line2d_35">
    <path d="M 113.758486 301.237187 
L 332.234883 82.760791 
" clip-path="url(#p801f09fb0b)" style="fill: none; stroke: #d3d3d3; stroke-linecap: square"/>
   </g>
   <g id="line2d_36">
    <path d="M 45.469063 267.092476 
L 313.561538 -1 
" clip-path="url(#p801f09fb0b)" style="fill: none; stroke: #d3d3d3; stroke-linecap: square"/>
   </g>
   <g id="line2d_37">
    <path d="M 45.469063 232.947764 
L 279.416826 -1 
" clip-path="url(#p801f09fb0b)" style="fill: none; stroke: #d3d3d3; stroke-linecap: square"/>
   </g>
   <g id="patch_3">
    <path d="M 45.469063 301.237187 
L 45.469063 26.877187 
" style="fill: none; stroke: #000000; stroke-width: 0.8; stroke-linejoin: miter; stroke-linecap: square"/>
   </g>
   <g id="patch_4">
    <path d="M 319.829063 301.237187 
L 319.829063 26.877187 
" style="fill: none; stroke: #000000; stroke-width: 0.8; stroke-linejoin: miter; stroke-linecap: square"/>
   </g>
   <g id="patch_5">
    <path d="M 45.469063 301.237187 
L 319.829063 301.237187 
" style="fill: none; stroke: #000000; stroke-width: 0.8; stroke-linejoin: miter; stroke-linecap: square"/>
   </g>
   <g id="patch_6">
    <path d="M 45.469063 26.877187 
L 319.829063 26.877187 
" style="fill: none; stroke: #000000; stroke-width: 0.8; stroke-linejoin: miter; stroke-linecap: square"/>
   </g>
   <g id="text_11">
    <!-- 22 targets: 3e21..1e-8 -->
    <g transform="translate(48.212663 40.114794)scale(0.102 -0.102)">
     <defs>
      <path id="DejaVuSans-74" d="M 1172 4494 
L 1172 3500 
L 2356 3500 
L 2356 3053 
L 1172 3053 
L 1172 1153 
Q 1172 725 1289 603 
Q 1406 481 1766 481 
L 2356 481 
L 2356 0 
L 1766 0 
Q 1100 0 847 248 
Q 594 497 594 1153 
L 594 3053 
L 172 3053 
L 172 3500 
L 594 3500 
L 594 4494 
L 1172 4494 
z
" transform="scale(0.015625)"/>
      <path id="DejaVuSans-61" d="M 2194 1759 
Q 1497 1759 1228 1600 
Q 959 1441 959 1056 
Q 959 750 1161 570 
Q 1363 391 1709 391 
Q 2188 391 2477 730 
Q 2766 1069 2766 1631 
L 2766 1759 
L 2194 1759 
z
M 3341 1997 
L 3341 0 
L 2766 0 
L 2766 531 
Q 2569 213 2275 61 
Q 1981 -91 1556 -91 
Q 1019 -91 701 211 
Q 384 513 384 1019 
Q 384 1609 779 1909 
Q 1175 2209 1959 2209 
L 2766 2209 
L 2766 2266 
Q 2766 2663 2505 2880 
Q 2244 3097 1772 3097 
Q 1472 3097 1187 3025 
Q 903 2953 641 2809 
L 641 3341 
Q 956 3463 1253 3523 
Q 1550 3584 1831 3584 
Q 2591 3584 2966 3190 
Q 3341 2797 3341 1997 
z
" transform="scale(0.015625)"/>
      <path id="DejaVuSans-72" d="M 2631 2963 
Q 2534 3019 2420 3045 
Q 2306 3072 2169 3072 
Q 1681 3072 1420 2755 
Q 1159 2438 1159 1844 
L 1159 0 
L 581 0 
L 581 3500 
L 1159 3500 
L 1159 2956 
Q 1341 3275 1631 3429 
Q 1922 3584 2338 3584 
Q 2397 3584 2469 3576 
Q 2541 3569 2628 3553 
L 2631 2963 
z
" transform="scale(0.015625)"/>
      <path id="DejaVuSans-65" d="M 3597 1894 
L 3597 1613 
L 953 1613 
Q 991 1019 1311 708 
Q 1631 397 2203 397 
Q 2534 397 2845 478 
Q 3156 559 3463 722 
L 3463 178 
Q 3153 47 2828 -22 
Q 2503 -91 2169 -91 
Q 1331 -91 842 396 
Q 353 884 353 1716 
Q 353 2575 817 3079 
Q 1281 3584 2069 3584 
Q 2775 3584 3186 3129 
Q 3597 2675 3597 1894 
z
M 3022 2063 
Q 3016 2534 2758 2815 
Q 2500 3097 2075 3097 
Q 1594 3097 1305 2825 
Q 1016 2553 972 2059 
L 3022 2063 
z
" transform="scale(0.015625)"/>
      <path id="DejaVuSans-73" d="M 2834 3397 
L 2834 2853 
Q 2591 2978 2328 3040 
Q 2066 3103 1784 3103 
Q 1356 3103 1142 2972 
Q 928 2841 928 2578 
Q 928 2378 1081 2264 
Q 1234 2150 1697 2047 
L 1894 2003 
Q 2506 1872 2764 1633 
Q 3022 1394 3022 966 
Q 3022 478 2636 193 
Q 2250 -91 1575 -91 
Q 1294 -91 989 -36 
Q 684 19 347 128 
L 347 722 
Q 666 556 975 473 
Q 1284 391 1588 391 
Q 1994 391 2212 530 
Q 2431 669 2431 922 
Q 2431 1156 2273 1281 
Q 2116 1406 1581 1522 
L 1381 1569 
Q 847 1681 609 1914 
Q 372 2147 372 2553 
Q 372 3047 722 3315 
Q 1072 3584 1716 3584 
Q 2034 3584 2315 3537 
Q 2597 3491 2834 3397 
z
" transform="scale(0.015625)"/>
      <path id="DejaVuSans-3a" d="M 750 794 
L 1409 794 
L 1409 0 
L 750 0 
L 750 794 
z
M 750 3309 
L 1409 3309 
L 1409 2516 
L 750 2516 
L 750 3309 
z
" transform="scale(0.015625)"/>
      <path id="DejaVuSans-2e" d="M 684 794 
L 1344 794 
L 1344 0 
L 684 0 
L 684 794 
z
" transform="scale(0.015625)"/>
      <path id="DejaVuSans-2d" d="M 313 2009 
L 1997 2009 
L 1997 1497 
L 313 1497 
L 313 2009 
z
" transform="scale(0.015625)"/>
     </defs>
     <use xlink:href="#DejaVuSans-32"/>
     <use xlink:href="#DejaVuSans-32" x="63.623047"/>
     <use xlink:href="#DejaVuSans-20" x="127.246094"/>
     <use xlink:href="#DejaVuSans-74" x="159.033203"/>
     <use xlink:href="#DejaVuSans-61" x="198.242188"/>
     <use xlink:href="#DejaVuSans-72" x="259.521484"/>
     <use xlink:href="#DejaVuSans-67" x="298.884766"/>
     <use xlink:href="#DejaVuSans-65" x="362.361328"/>
     <use xlink:href="#DejaVuSans-74" x="423.884766"/>
     <use xlink:href="#DejaVuSans-73" x="463.09375"/>
     <use xlink:href="#DejaVuSans-3a" x="515.193359"/>
     <use xlink:href="#DejaVuSans-20" x="548.884766"/>
     <use xlink:href="#DejaVuSans-33" x="580.671875"/>
     <use xlink:href="#DejaVuSans-65" x="644.294922"/>
     <use xlink:href="#DejaVuSans-32" x="705.818359"/>
     <use xlink:href="#DejaVuSans-31" x="769.441406"/>
     <use xlink:href="#DejaVuSans-2e" x="833.064453"/>
     <use xlink:href="#DejaVuSans-2e" x="864.851562"/>
     <use xlink:href="#DejaVuSans-31" x="896.638672"/>
     <use xlink:href="#DejaVuSans-65" x="960.261719"/>
     <use xlink:href="#DejaVuSans-2d" x="1021.785156"/>
     <use xlink:href="#DejaVuSans-38" x="1057.869141"/>
    </g>
    <!-- 15 and 15 instances -->
    <g transform="translate(48.212663 51.536562)scale(0.102 -0.102)">
     <defs>
      <path id="DejaVuSans-35" d="M 691 4666 
L 3169 4666 
L 3169 4134 
L 1269 4134 
L 1269 2991 
Q 1406 3038 1543 3061 
Q 1681 3084 1819 3084 
Q 2600 3084 3056 2656 
Q 3513 2228 3513 1497 
Q 3513 744 3044 326 
Q 2575 -91 1722 -91 
Q 1428 -91 1123 -41 
Q 819 9 494 109 
L 494 744 
Q 775 591 1075 516 
Q 1375 441 1709 441 
Q 2250 441 2565 725 
Q 2881 1009 2881 1497 
Q 2881 1984 2565 2268 
Q 2250 2553 1709 2553 
Q 1456 2553 1204 2497 
Q 953 2441 691 2322 
L 691 4666 
z
" transform="scale(0.015625)"/>
      <path id="DejaVuSans-6e" d="M 3513 2113 
L 3513 0 
L 2938 0 
L 2938 2094 
Q 2938 2591 2744 2837 
Q 2550 3084 2163 3084 
Q 1697 3084 1428 2787 
Q 1159 2491 1159 1978 
L 1159 0 
L 581 0 
L 581 3500 
L 1159 3500 
L 1159 2956 
Q 1366 3272 1645 3428 
Q 1925 3584 2291 3584 
Q 2894 3584 3203 3211 
Q 3513 2838 3513 2113 
z
" transform="scale(0.015625)"/>
      <path id="DejaVuSans-64" d="M 2906 2969 
L 2906 4863 
L 3481 4863 
L 3481 0 
L 2906 0 
L 2906 525 
Q 2725 213 2448 61 
Q 2172 -91 1784 -91 
Q 1150 -91 751 415 
Q 353 922 353 1747 
Q 353 2572 751 3078 
Q 1150 3584 1784 3584 
Q 2172 3584 2448 3432 
Q 2725 3281 2906 2969 
z
M 947 1747 
Q 947 1113 1208 752 
Q 1469 391 1925 391 
Q 2381 391 2643 752 
Q 2906 1113 2906 1747 
Q 2906 2381 2643 2742 
Q 2381 3103 1925 3103 
Q 1469 3103 1208 2742 
Q 947 2381 947 1747 
z
" transform="scale(0.015625)"/>
      <path id="DejaVuSans-69" d="M 603 3500 
L 1178 3500 
L 1178 0 
L 603 0 
L 603 3500 
z
M 603 4863 
L 1178 4863 
L 1178 4134 
L 603 4134 
L 603 4863 
z
" transform="scale(0.015625)"/>
      <path id="DejaVuSans-63" d="M 3122 3366 
L 3122 2828 
Q 2878 2963 2633 3030 
Q 2388 3097 2138 3097 
Q 1578 3097 1268 2742 
Q 959 2388 959 1747 
Q 959 1106 1268 751 
Q 1578 397 2138 397 
Q 2388 397 2633 464 
Q 2878 531 3122 666 
L 3122 134 
Q 2881 22 2623 -34 
Q 2366 -91 2075 -91 
Q 1284 -91 818 406 
Q 353 903 353 1747 
Q 353 2603 823 3093 
Q 1294 3584 2113 3584 
Q 2378 3584 2631 3529 
Q 2884 3475 3122 3366 
z
" transform="scale(0.015625)"/>
     </defs>
     <use xlink:href="#DejaVuSans-31"/>
     <use xlink:href="#DejaVuSans-35" x="63.623047"/>
     <use xlink:href="#DejaVuSans-20" x="127.246094"/>
     <use xlink:href="#DejaVuSans-61" x="159.033203"/>
     <use xlink:href="#DejaVuSans-6e" x="220.3125"/>
     <use xlink:href="#DejaVuSans-64" x="283.691406"/>
     <use xlink:href="#DejaVuSans-20" x="347.167969"/>
     <use xlink:href="#DejaVuSans-31" x="378.955078"/>
     <use xlink:href="#DejaVuSans-35" x="442.578125"/>
     <use xlink:href="#DejaVuSans-20" x="506.201172"/>
     <use xlink:href="#DejaVuSans-69" x="537.988281"/>
     <use xlink:href="#DejaVuSans-6e" x="565.771484"/>
     <use xlink:href="#DejaVuSans-73" x="629.150391"/>
     <use xlink:href="#DejaVuSans-74" x="681.25"/>
     <use xlink:href="#DejaVuSans-61" x="720.458984"/>
     <use xlink:href="#DejaVuSans-6e" x="781.738281"/>
     <use xlink:href="#DejaVuSans-63" x="845.117188"/>
     <use xlink:href="#DejaVuSans-65" x="900.097656"/>
     <use xlink:href="#DejaVuSans-73" x="961.621094"/>
    </g>
   </g>
   <g id="text_12">
    <!-- v2.6.3 -->
    <g style="fill: #808080" transform="translate(166.967813 296.4139)scale(0.1 -0.1)">
     <defs>
      <path id="DejaVuSans-76" d="M 191 3500 
L 800 3500 
L 1894 563 
L 2988 3500 
L 3597 3500 
L 2284 0 
L 1503 0 
L 191 3500 
z
" transform="scale(0.015625)"/>
     </defs>
     <use xlink:href="#DejaVuSans-76"/>
     <use xlink:href="#DejaVuSans-32" x="59.179688"/>
     <use xlink:href="#DejaVuSans-2e" x="122.802734"/>
     <use xlink:href="#DejaVuSans-36" x="154.589844"/>
     <use xlink:href="#DejaVuSans-2e" x="218.212891"/>
     <use xlink:href="#DejaVuSans-33" x="250"/>
    </g>
   </g>
   <g id="text_13">
    <!-- 16 Weierstrass -->
    <g transform="translate(115.881719 20.877187)scale(0.18 -0.18)">
     <defs>
      <path id="DejaVuSans-57" d="M 213 4666 
L 850 4666 
L 1831 722 
L 2809 4666 
L 3519 4666 
L 4500 722 
L 5478 4666 
L 6119 4666 
L 4947 0 
L 4153 0 
L 3169 4050 
L 2175 0 
L 1381 0 
L 213 4666 
z
" transform="scale(0.015625)"/>
     </defs>
     <use xlink:href="#DejaVuSans-31"/>
     <use xlink:href="#DejaVuSans-36" x="63.623047"/>
     <use xlink:href="#DejaVuSans-20" x="127.246094"/>
     <use xlink:href="#DejaVuSans-57" x="159.033203"/>
     <use xlink:href="#DejaVuSans-65" x="252.035156"/>
     <use xlink:href="#DejaVuSans-69" x="313.558594"/>
     <use xlink:href="#DejaVuSans-65" x="341.341797"/>
     <use xlink:href="#DejaVuSans-72" x="402.865234"/>
     <use xlink:href="#DejaVuSans-73" x="443.978516"/>
     <use xlink:href="#DejaVuSans-74" x="496.078125"/>
     <use xlink:href="#DejaVuSans-72" x="535.287109"/>
     <use xlink:href="#DejaVuSans-61" x="576.400391"/>
     <use xlink:href="#DejaVuSans-73" x="637.679688"/>
     <use xlink:href="#DejaVuSans-73" x="689.779297"/>
    </g>
   </g>
  </g>
 </g>
 <defs>
  <clipPath id="p801f09fb0b">
   <rect x="45.469063" y="26.877187" width="274.36" height="274.36"/>
  </clipPath>
 </defs>
</svg>
